<?xml version="1.0" encoding="UTF-8"?>
<svg version="1.1" xmlns="http://www.w3.org/2000/svg" width="110" height="110">
<path d="M0 0 C4.03336019 1.35695553 4.03336019 1.35695553 8 0 C9.010625 -0.556875 10.02125 -1.11375 11.0625 -1.6875 C15.11331466 -2.18691551 19.03431245 -2.37603273 23.0625 -1.6875 C23.86171875 -0.98238281 24.6609375 -0.27726563 25.484375 0.44921875 C27.99573551 2.71922415 27.99573551 2.71922415 31.41796875 1.828125 C32.70059103 1.42258135 33.97778336 0.99959312 35.25 0.5625 C41.45664652 -1.26735669 47.27451004 -2.17293456 53.75 -2.25 C54.50369873 -2.27610352 55.25739746 -2.30220703 56.03393555 -2.32910156 C60.01857038 -2.30573918 61.83783044 -1.8689871 64.96875 0.66015625 C70.53929493 7.71687269 70.95070055 14.48816987 70.0625 23.3125 C68.60683872 27.14773542 66.34466289 28.89406418 63.0625 31.3125 C64.03781168 33.36599715 65.02540826 35.25969698 66.33398438 37.12255859 C70.74921702 43.6785595 70.76703757 50.19386898 70.60449219 57.8515625 C70.56242838 59.94105791 70.56345411 62.02733711 70.5703125 64.1171875 C70.51742116 70.91907405 70.23702694 76.22357571 67.0625 82.3125 C64.375 83.75 64.375 83.75 62.0625 84.3125 C62.64 84.61542969 63.2175 84.91835937 63.8125 85.23046875 C66.03280607 86.48324561 68.08157882 87.7051736 70.0625 89.3125 C70.5625 92.125 70.5625 92.125 70.0625 94.3125 C63.19813296 98.61955383 57.10268768 99.45822674 49.0625 98.3125 C42.90243278 96.08145001 39.29156854 91.86246155 36.0625 86.3125 C36.0625 84.9925 36.0625 83.6725 36.0625 82.3125 C34.4125 82.9725 32.7625 83.6325 31.0625 84.3125 C32.0525 85.7975 32.0525 85.7975 33.0625 87.3125 C33.5625 90.1875 33.5625 90.1875 33.0625 93.3125 C30.38266919 96.55650572 28.76434692 97.9710291 24.6484375 98.796875 C20.38866675 99.02852416 17.0184169 98.80191202 13.5 96.25 C10.66399911 92.83225534 10.2343957 90.69584042 10.0625 86.3125 C5.783949 86.78789456 3.96602893 89.33815329 1.0625 92.3125 C-8.05610128 98.89815648 -18.13680745 98.9811143 -28.9375 98.3125 C-29.9375 97.3125 -29.9375 97.3125 -30.25 94 C-29.9375 90.3125 -29.9375 90.3125 -28.25 87.9375 C-25.74631813 86.17815598 -23.95549494 85.64783277 -20.9375 85.3125 C-20.9375 84.6525 -20.9375 83.9925 -20.9375 83.3125 C-21.72125 83.044375 -22.505 82.77625 -23.3125 82.5 C-25.9375 81.3125 -25.9375 81.3125 -27.9375 78.3125 C-28.11749405 75.49259316 -28.18742114 73.10770362 -27.3359375 70.3984375 C-26.83038588 67.7517261 -27.4242578 66.38073388 -28.375 63.875 C-31.37554638 54.48619357 -30.97835137 44.34127728 -26.9375 35.3125 C-25.41431696 32.79199473 -23.79003302 30.61564916 -21.9375 28.3125 C-22.88625 27.590625 -23.835 26.86875 -24.8125 26.125 C-27.75590487 23.88545282 -28.84660162 21.84639614 -29.9375 18.3125 C-30.62182523 12.96035634 -31.25764767 7.17394632 -27.8125 2.6875 C-20.0550769 -3.72080604 -9.12938139 -2.89346514 0 0 Z M-25.9375 5.3125 C-27.95443496 9.34636993 -27.05786235 13.72071847 -26.1875 18 C-24.89030801 21.43755878 -23.93401956 23.19730973 -20.9375 25.3125 C-18.71891747 25.17608623 -18.71891747 25.17608623 -16.9375 24.3125 C-17.55625 23.57 -18.175 22.8275 -18.8125 22.0625 C-22.51016952 17.27728062 -23.38629147 14.48338267 -22.9375 8.3125 C-20.9375 5.3125 -20.9375 5.3125 -17.9375 4.3125 C-10.88411967 3.94766998 -4.62485252 5.08338249 2.0625 7.3125 C2.3925 6.3225 2.7225 5.3325 3.0625 4.3125 C-6.91370585 0.08017024 -16.613031 -0.66923483 -25.9375 5.3125 Z M12.0625 1.3125 C12.0625 1.6425 12.0625 1.9725 12.0625 2.3125 C13.320625 2.395 14.57875 2.4775 15.875 2.5625 C18.80161218 2.93611007 19.82200263 3.10844163 22.125 5.0625 C23.31665915 7.92248196 22.98444902 9.39299477 22.0625 12.3125 C21.7325 12.9725 21.4025 13.6325 21.0625 14.3125 C23.92974686 13.73905063 24.9239515 13.4510485 27.0625 11.3125 C26.91708197 7.96788522 26.36110977 5.80585527 24.625 2.9375 C20.64685303 0.41477265 16.64877011 0.99741274 12.0625 1.3125 Z M30.0625 5.3125 C30.3925 6.6325 30.7225 7.9525 31.0625 9.3125 C31.86171875 8.9515625 32.6609375 8.590625 33.484375 8.21875 C41.05896433 5.0182193 47.80455015 2.90446247 56.0625 4.3125 C59.13615786 6.12053404 60.49269732 7.17289464 62.0625 10.3125 C63.10165592 19.39769172 63.10165592 19.39769172 60.9453125 23.37109375 C59.5625 25 59.5625 25 57.0625 27.3125 C58.0525 27.6425 59.0425 27.9725 60.0625 28.3125 C64.59974604 25.11085395 64.59974604 25.11085395 67.0625 20.3125 C67.44975292 14.50370615 67.12952574 10.45718833 64.0625 5.3125 C54.55076341 -2.41578598 40.64133639 1.41503396 30.0625 5.3125 Z M6.0625 5.3125 C7.0625 7.3125 7.0625 7.3125 7.0625 7.3125 Z M10.0625 7.3125 C10.3810177 9.42070797 10.3810177 9.42070797 11.0625 11.3125 C13.3725 11.3125 15.6825 11.3125 18.0625 11.3125 C18.7225 9.9925 19.3825 8.6725 20.0625 7.3125 C16.26156828 4.77854552 13.47578319 3.89921681 10.0625 7.3125 Z M-7.9375 7.3125 C-7.9375 10.3125 -7.9375 10.3125 -7.9375 10.3125 Z M5.0625 7.3125 C4.37756627 10.17028033 4.37756627 10.17028033 4.0625 13.3125 C5.0525 14.7975 5.0525 14.7975 6.0625 16.3125 C8.26975073 16.67612818 8.26975073 16.67612818 10.6875 16.5 C11.50476562 16.47292969 12.32203125 16.44585937 13.1640625 16.41796875 C13.79054688 16.38316406 14.41703125 16.34835938 15.0625 16.3125 C14.44632813 16.01085938 13.83015625 15.70921875 13.1953125 15.3984375 C9.19629098 13.36230566 6.80188257 11.51600787 5.0625 7.3125 Z M53.0625 7.3125 C53.0625 7.9725 53.0625 8.6325 53.0625 9.3125 C53.7225 9.3125 54.3825 9.3125 55.0625 9.3125 C55.0625 8.6525 55.0625 7.9925 55.0625 7.3125 C54.4025 7.3125 53.7425 7.3125 53.0625 7.3125 Z M35.0625 9.3125 C35.3925 9.9725 35.7225 10.6325 36.0625 11.3125 C36.3925 10.6525 36.7225 9.9925 37.0625 9.3125 C36.4025 9.3125 35.7425 9.3125 35.0625 9.3125 Z M-11.9375 10.3125 C-11.9375 13.3125 -11.9375 13.3125 -11.9375 13.3125 Z M-5.9375 10.3125 C-6.2675 11.3025 -6.5975 12.2925 -6.9375 13.3125 C-5.9475 12.9825 -4.9575 12.6525 -3.9375 12.3125 C-3.9375 11.6525 -3.9375 10.9925 -3.9375 10.3125 C-4.5975 10.3125 -5.2575 10.3125 -5.9375 10.3125 Z M57.0625 10.3125 C56.7325 11.6325 56.4025 12.9525 56.0625 14.3125 C57.0525 13.3225 58.0425 12.3325 59.0625 11.3125 C58.4025 10.9825 57.7425 10.6525 57.0625 10.3125 Z M50.0625 11.3125 C49.7325 11.9725 49.4025 12.6325 49.0625 13.3125 C49.7225 13.3125 50.3825 13.3125 51.0625 13.3125 C50.7325 12.6525 50.4025 11.9925 50.0625 11.3125 Z M-2.9375 13.3125 C-2.9375 14.3025 -2.9375 15.2925 -2.9375 16.3125 C-2.2775 15.3225 -1.6175 14.3325 -0.9375 13.3125 C-1.5975 13.3125 -2.2575 13.3125 -2.9375 13.3125 Z M32.0625 13.3125 C31.7325 13.9725 31.4025 14.6325 31.0625 15.3125 C32.0525 14.9825 33.0425 14.6525 34.0625 14.3125 C33.4025 13.9825 32.7425 13.6525 32.0625 13.3125 Z M-9.9375 14.3125 C-9.6075 14.9725 -9.2775 15.6325 -8.9375 16.3125 C-8.6075 15.6525 -8.2775 14.9925 -7.9375 14.3125 C-8.5975 14.3125 -9.2575 14.3125 -9.9375 14.3125 Z M46.0625 14.3125 C47.0625 16.3125 47.0625 16.3125 47.0625 16.3125 Z M59.0625 14.3125 C59.0625 17.3125 59.0625 17.3125 59.0625 17.3125 Z M52.0625 15.3125 C52.3925 15.9725 52.7225 16.6325 53.0625 17.3125 C53.3925 16.6525 53.7225 15.9925 54.0625 15.3125 C53.4025 15.3125 52.7425 15.3125 52.0625 15.3125 Z M0.0625 16.3125 C-0.2675 16.9725 -0.5975 17.6325 -0.9375 18.3125 C0.0525 17.9825 1.0425 17.6525 2.0625 17.3125 C1.4025 16.9825 0.7425 16.6525 0.0625 16.3125 Z M43.0625 17.3125 C44.0625 20.3125 44.0625 20.3125 44.0625 20.3125 Z M55.0625 18.3125 C55.0625 18.9725 55.0625 19.6325 55.0625 20.3125 C55.7225 20.3125 56.3825 20.3125 57.0625 20.3125 C57.0625 19.6525 57.0625 18.9925 57.0625 18.3125 C56.4025 18.3125 55.7425 18.3125 55.0625 18.3125 Z M-20.9375 32.3125 C-27.27146516 41.91616069 -27.51414495 50.57784782 -25.703125 61.6484375 C-24.89665188 64.45463478 -23.8310841 66.11719097 -21.9375 68.3125 C-19.9575 67.8175 -19.9575 67.8175 -17.9375 67.3125 C-17.87804199 66.72871582 -17.81858398 66.14493164 -17.75732422 65.54345703 C-15.298929 42.61201728 -15.298929 42.61201728 -7.33203125 34.72265625 C1.77628595 27.78585838 18.19907067 27.13878014 29.0625 28.3125 C32.96311843 29.24623877 36.45356868 30.57380725 40.0625 32.3125 C40.80371094 32.663125 41.54492188 33.01375 42.30859375 33.375 C47.8849652 36.41090733 51.38961611 40.57358646 54.0625 46.3125 C54.97723535 50.86651256 55.1713379 55.36433758 55.3125 60 C55.41499704 62.37921252 55.52414527 64.75814979 55.640625 67.13671875 C55.67575195 68.17916748 55.71087891 69.22161621 55.74707031 70.2956543 C56.08560971 73.53352684 56.92906033 76.26943618 58.0625 79.3125 C60.0425 79.6425 62.0225 79.9725 64.0625 80.3125 C69.41756111 72.27990834 68.9498131 57.08825806 67.5625 47.75 C65.3313171 39.21200677 58.52513844 30.89769478 51.0625 26.3125 C46.1459907 24.24470638 41.2034865 22.71858178 36.0625 21.3125 C35.2065625 21.065 34.350625 20.8175 33.46875 20.5625 C16.834938 16.46101211 -9.00209392 18.52272292 -20.9375 32.3125 Z M-5.9375 37.3125 C-12.14254971 43.87212397 -13.39317004 50.83685494 -14.109375 59.43945312 C-14.56425765 63.99265351 -15.66160408 67.34823564 -17.9375 71.3125 C-19.9175 71.3125 -21.8975 71.3125 -23.9375 71.3125 C-24.2675 73.2925 -24.5975 75.2725 -24.9375 77.3125 C-14.61799661 86.15778862 1.73735731 83.40668263 14.30419922 82.53759766 C20.2623918 82.05136526 26.16240778 81.2725466 32.0625 80.3125 C31.0725 79.8175 31.0725 79.8175 30.0625 79.3125 C30.0625 77.6625 30.0625 76.0125 30.0625 74.3125 C32.375 74.0625 32.375 74.0625 35.0625 74.3125 C36.875 76.3125 36.875 76.3125 38.0625 78.3125 C39.0525 77.3225 39.0525 77.3225 40.0625 76.3125 C40.0625 74.9925 40.0625 73.6725 40.0625 72.3125 C39.33804688 72.28671875 38.61359375 72.2609375 37.8671875 72.234375 C31.72100466 71.87379894 27.76280197 71.39434118 23.0625 67.3125 C21.56093126 64.30936252 21.96968796 61.52182478 22 58.1875 C22.00902344 56.90617187 22.01804688 55.62484375 22.02734375 54.3046875 C22.03894531 53.31726563 22.05054688 52.32984375 22.0625 51.3125 C19.7525 51.3125 17.4425 51.3125 15.0625 51.3125 C15.7225 49.9925 16.3825 48.6725 17.0625 47.3125 C18.3825 47.3125 19.7025 47.3125 21.0625 47.3125 C21.7225 47.9725 22.3825 48.6325 23.0625 49.3125 C24.0525 48.3225 25.0425 47.3325 26.0625 46.3125 C24.7425 45.3225 23.4225 44.3325 22.0625 43.3125 C22.3925 42.3225 22.7225 41.3325 23.0625 40.3125 C24.3825 40.3125 25.7025 40.3125 27.0625 40.3125 C27.7225 41.3025 28.3825 42.2925 29.0625 43.3125 C30.3825 41.9925 31.7025 40.6725 33.0625 39.3125 C31.4125 39.3125 29.7625 39.3125 28.0625 39.3125 C28.25 37.4375 28.25 37.4375 29.0625 35.3125 C31.625 34.0625 31.625 34.0625 34.0625 33.3125 C23.77697551 26.45548368 3.21056651 30.35782955 -5.9375 37.3125 Z M34.0625 33.3125 C34.3925 34.9625 34.7225 36.6125 35.0625 38.3125 C36.7125 37.9825 38.3625 37.6525 40.0625 37.3125 C40.0625 36.6525 40.0625 35.9925 40.0625 35.3125 C38.0825 34.6525 36.1025 33.9925 34.0625 33.3125 Z M43.0625 39.3125 C44.0625 41.3125 44.0625 41.3125 44.0625 41.3125 Z M41.0625 44.3125 C40.7325 45.3025 40.4025 46.2925 40.0625 47.3125 C40.7225 47.3125 41.3825 47.3125 42.0625 47.3125 C42.3925 46.3225 42.7225 45.3325 43.0625 44.3125 C42.4025 44.3125 41.7425 44.3125 41.0625 44.3125 Z M30.0625 47.3125 C30.3925 47.9725 30.7225 48.6325 31.0625 49.3125 C31.3925 48.6525 31.7225 47.9925 32.0625 47.3125 C31.4025 47.3125 30.7425 47.3125 30.0625 47.3125 Z M36.0625 48.3125 C36.3925 48.9725 36.7225 49.6325 37.0625 50.3125 C37.3925 49.6525 37.7225 48.9925 38.0625 48.3125 C37.4025 48.3125 36.7425 48.3125 36.0625 48.3125 Z M45.0625 48.3125 C42.95335529 53.23383765 43.25015779 55.37890176 45.0625 60.3125 C45.5235367 64.69234861 45.56704281 66.57145275 43.0625 70.25 C42.0725 71.2709375 42.0725 71.2709375 41.0625 72.3125 C42.7125 72.3125 44.3625 72.3125 46.0625 72.3125 C46.0625 72.9725 46.0625 73.6325 46.0625 74.3125 C47.3825 73.6525 48.7025 72.9925 50.0625 72.3125 C49.4025 71.9825 48.7425 71.6525 48.0625 71.3125 C48.0625 69.6625 48.0625 68.0125 48.0625 66.3125 C49.3825 66.3125 50.7025 66.3125 52.0625 66.3125 C52.0625 64.6625 52.0625 63.0125 52.0625 61.3125 C50.7425 60.9825 49.4225 60.6525 48.0625 60.3125 C48.0625 58.9925 48.0625 57.6725 48.0625 56.3125 C49.3825 55.6525 50.7025 54.9925 52.0625 54.3125 C52.0625 53.3225 52.0625 52.3325 52.0625 51.3125 C50.4125 51.3125 48.7625 51.3125 47.0625 51.3125 C46.7325 50.3225 46.4025 49.3325 46.0625 48.3125 C45.7325 48.3125 45.4025 48.3125 45.0625 48.3125 Z M32.0625 50.3125 C32.3925 50.9725 32.7225 51.6325 33.0625 52.3125 C33.3925 51.6525 33.7225 50.9925 34.0625 50.3125 C33.4025 50.3125 32.7425 50.3125 32.0625 50.3125 Z M34.0625 54.3125 C34.3925 54.9725 34.7225 55.6325 35.0625 56.3125 C35.3925 55.6525 35.7225 54.9925 36.0625 54.3125 C35.4025 54.3125 34.7425 54.3125 34.0625 54.3125 Z M30.0625 56.3125 C29.7325 56.9725 29.4025 57.6325 29.0625 58.3125 C29.7225 58.3125 30.3825 58.3125 31.0625 58.3125 C30.7325 57.6525 30.4025 56.9925 30.0625 56.3125 Z M31.0625 60.3125 C31.3925 60.9725 31.7225 61.6325 32.0625 62.3125 C32.3925 61.6525 32.7225 60.9925 33.0625 60.3125 C32.4025 60.3125 31.7425 60.3125 31.0625 60.3125 Z M28.0625 62.3125 C29.0625 64.3125 29.0625 64.3125 29.0625 64.3125 Z M40.0625 63.3125 C41.0625 65.3125 41.0625 65.3125 41.0625 65.3125 Z M47.0625 78.3125 C46.93305003 81.14788907 46.93305003 81.14788907 48.0625 84.3125 C50.54269208 86.34174807 53.21868752 87.8484872 56.0625 89.3125 C55.0725 89.6425 54.0825 89.9725 53.0625 90.3125 C47.56718253 87.56484127 45.98555491 84.86799195 44.0625 79.3125 C42.4125 79.9725 40.7625 80.6325 39.0625 81.3125 C40.08923149 87.01656386 41.81435199 89.51809967 46.30859375 93.1484375 C50.53366744 95.95260667 55.1839073 95.79632738 60.0625 95.3125 C62.58375603 94.52259829 64.69666261 93.52058718 67.0625 92.3125 C65.4843833 90.57657163 64.30768176 89.41531816 62.125 88.5 C57.44068059 85.80296761 55.30953658 80.03127681 53.0625 75.3125 C50.90731828 75.3125 48.8463343 77.21475582 47.0625 78.3125 Z M-25.25 90.3125 C-27.25993547 92.25851196 -27.25993547 92.25851196 -26.9375 95.3125 C-17.18988392 95.8947691 -6.59645543 94.90771162 1.0625 88.3125 C1.0625 87.6525 1.0625 86.9925 1.0625 86.3125 C-5.1388185 85.89207163 -7.1224161 86.23819824 -11.9375 90.3125 C-15.75 91.0625 -15.75 91.0625 -18.9375 91.3125 C-19.2675 90.6525 -19.5975 89.9925 -19.9375 89.3125 C-16.95898438 89.06835938 -16.95898438 89.06835938 -13.98046875 88.82421875 C-11.52238721 88.20852337 -10.55613701 87.21707919 -8.9375 85.3125 C-16.05832147 84.89362815 -19.74058091 85.54759701 -25.25 90.3125 Z M16.0625 85.3125 C15.4025 85.9725 14.7425 86.6325 14.0625 87.3125 C13.99703102 89.82297485 13.99703102 89.82297485 15.0625 92.3125 C18.13458604 95.02316415 19.62862979 95.3345612 23.75 95.125 C27.1183794 94.60215507 27.1183794 94.60215507 29.0625 92.3125 C29.56264953 89.85508463 29.56264953 89.85508463 29.0625 87.3125 C24.87970251 83.26912909 21.5599747 84.33080809 16.0625 85.3125 Z " fill="#000000" transform="translate(34.9375,6.6875)"/>
<path d="M0 0 C1.2065625 0.0309375 1.2065625 0.0309375 2.4375 0.0625 C2.81968767 1.71864657 3.15145102 3.38707024 3.4375 5.0625 C2.4375 6.0625 2.4375 6.0625 -0.125 6.125 C-1.3315625 6.0940625 -1.3315625 6.0940625 -2.5625 6.0625 C-2.94468767 4.40635343 -3.27645102 2.73792976 -3.5625 1.0625 C-2.5625 0.0625 -2.5625 0.0625 0 0 Z " fill="#000000" transform="translate(51.5625,61.9375)"/>
<path d="M0 0 C1.2065625 0.0309375 1.2065625 0.0309375 2.4375 0.0625 C2.7675 1.3825 3.0975 2.7025 3.4375 4.0625 C0.4375 6.0625 0.4375 6.0625 -3.5625 6.0625 C-3.605221 4.39638095 -3.60313832 2.72867115 -3.5625 1.0625 C-2.5625 0.0625 -2.5625 0.0625 0 0 Z " fill="#000000" transform="translate(59.5625,77.9375)"/>
<path d="M0 0 C0.99 0.33 1.98 0.66 3 1 C3 2.65 3 4.3 3 6 C1.35 6.33 -0.3 6.66 -2 7 C-2.33 5.35 -2.66 3.7 -3 2 C-2.01 1.34 -1.02 0.68 0 0 Z " fill="#000000" transform="translate(52,71)"/>
<path d="M0 0 C0.99 0.33 1.98 0.66 3 1 C2.67 1.99 2.34 2.98 2 4 C1.01 4 0.02 4 -1 4 C-0.67 2.68 -0.34 1.36 0 0 Z " fill="#000000" transform="translate(38,50)"/>
<path d="M0 0 C0.99 0 1.98 0 3 0 C2.67 1.32 2.34 2.64 2 4 C1.34 4 0.68 4 0 4 C0 2.68 0 1.36 0 0 Z " fill="#000000" transform="translate(34,78)"/>
<path d="M0 0 C0.99 0.33 1.98 0.66 3 1 C3 1.99 3 2.98 3 4 C2.01 4 1.02 4 0 4 C0 2.68 0 1.36 0 0 Z " fill="#000000" transform="translate(30,71)"/>
<path d="M0 0 C1.32 0.33 2.64 0.66 4 1 C3.01 1.99 2.02 2.98 1 4 C0.67 2.68 0.34 1.36 0 0 Z " fill="#000000" transform="translate(30,63)"/>
<path d="M0 0 C0.99 0.33 1.98 0.66 3 1 C3 1.66 3 2.32 3 3 C2.01 3.33 1.02 3.66 0 4 C0 2.68 0 1.36 0 0 Z " fill="#000000" transform="translate(33,55)"/>
</svg>
