<?xml version="1.0" encoding="UTF-8"?>
<!DOCTYPE svg PUBLIC "-//W3C//DTD SVG 1.1//EN" "http://www.w3.org/Graphics/SVG/1.1/DTD/svg11.dtd">
<svg xmlns="http://www.w3.org/2000/svg" version="1.1" width="110px" height="110px" style="shape-rendering:geometricPrecision; text-rendering:geometricPrecision; image-rendering:optimizeQuality; fill-rule:evenodd; clip-rule:evenodd" xmlns:xlink="http://www.w3.org/1999/xlink">
<g><path style="opacity:0.776" fill="#000000" d="M 15.5,4.5 C 23.744,3.73206 31.5774,5.06539 39,8.5C 47.4897,2.83501 55.6564,3.16834 63.5,9.5C 74.0427,4.91153 85.0427,3.41153 96.5,5C 96.1667,5.33333 95.8333,5.66667 95.5,6C 100.551,7.71675 103.385,11.2167 104,16.5C 104.667,20.8333 104.667,25.1667 104,29.5C 101.718,32.6212 99.2181,35.6212 96.5,38.5C 99.5936,42.101 102.094,46.101 104,50.5C 104.667,60.8333 104.667,71.1667 104,81.5C 103.833,87 101,89.8333 95.5,90C 98.1207,92.2013 100.954,94.0347 104,95.5C 104.743,97.4406 104.576,99.2739 103.5,101C 87.5693,108.855 76.2359,104.688 69.5,88.5C 67.556,89.1892 65.556,89.6892 63.5,90C 69.2587,95.4586 68.5921,100.125 61.5,104C 55.3062,105.711 50.1396,104.211 46,99.5C 45.041,96.5959 44.541,93.9292 44.5,91.5C 43.2054,92.0983 41.8721,92.5983 40.5,93C 33.4927,101.162 24.4927,104.996 13.5,104.5C 4.59213,106.089 2.09213,102.755 6,94.5C 8.56284,93.259 11.0628,91.9256 13.5,90.5C 6.46517,87.2932 4.7985,82.2932 8.5,75.5C 3.83684,65.0411 3.33684,54.3744 7,43.5C 8.39988,40.0976 10.5665,37.2643 13.5,35C 5.37523,29.6395 2.54189,22.1395 5,12.5C 7.27056,8.04449 10.7706,5.37783 15.5,4.5 Z M 16.5,7.5 C 23.9362,6.70006 30.9362,8.03339 37.5,11.5C 37.1924,12.3081 36.6924,12.9747 36,13.5C 28.8105,9.77341 21.3105,8.94007 13.5,11C 8.93182,18.6246 10.2652,25.2912 17.5,31C 14.2106,31.7464 11.7106,30.5797 10,27.5C 7.48382,22.2486 7.15049,16.9153 9,11.5C 11.5138,9.99577 14.0138,8.66243 16.5,7.5 Z M 55.5,20.5 C 59.5449,16.4469 59.2116,12.6136 54.5,9C 51.8333,8.66667 49.1667,8.33333 46.5,8C 54.6299,5.26041 59.6299,7.92708 61.5,16C 60.4799,18.8585 58.4799,20.3585 55.5,20.5 Z M 80.5,7.5 C 97.3801,5.82613 103.88,13.1595 100,29.5C 98.2609,31.7411 96.0942,33.4078 93.5,34.5C 92.6919,34.1924 92.0253,33.6924 91.5,33C 96.1051,30.792 98.1051,27.1253 97.5,22C 96.0828,10.7704 89.7494,6.77045 78.5,10C 73.7533,11.2484 69.2533,13.0817 65,15.5C 64.51,14.2068 64.3433,12.8734 64.5,11.5C 69.892,9.91532 75.2254,8.58199 80.5,7.5 Z M 46.5,11.5 C 49.7977,11.0162 52.4643,12.0162 54.5,14.5C 54.0233,15.4776 53.3567,16.3109 52.5,17C 50.1667,17.6667 47.8333,17.6667 45.5,17C 44.2427,14.9235 44.576,13.0902 46.5,11.5 Z M 26.5,13.5 C 27.7125,14.4971 27.5458,15.4971 26,16.5C 25.5304,15.4232 25.6971,14.4232 26.5,13.5 Z M 40.5,13.5 C 40.9834,18.8137 43.9834,21.647 49.5,22C 46.5,22.6667 43.5,22.6667 40.5,22C 37.8663,19.0492 37.8663,16.2159 40.5,13.5 Z M 87.5,13.5 C 89.337,13.6395 89.6704,14.3061 88.5,15.5C 87.7025,15.0431 87.3691,14.3764 87.5,13.5 Z M 69.5,15.5 C 72.0009,15.5109 72.1676,16.1776 70,17.5C 69.5357,16.9056 69.369,16.2389 69.5,15.5 Z M 22.5,16.5 C 23.7125,17.4971 23.5458,18.4971 22,19.5C 21.5304,18.4232 21.6971,17.4232 22.5,16.5 Z M 28.5,16.5 C 31.0118,17.2162 31.0118,18.2162 28.5,19.5C 27.4376,18.5754 27.4376,17.5754 28.5,16.5 Z M 91.5,16.5 C 93.8918,17.7421 93.7251,19.0755 91,20.5C 90.4209,19.0715 90.5876,17.7382 91.5,16.5 Z M 84.5,17.5 C 85.7733,18.0768 85.7733,18.7435 84.5,19.5C 83.537,19.0302 83.537,18.3635 84.5,17.5 Z M 31.5,19.5 C 33.6569,20.0533 33.4903,21.0533 31,22.5C 30.5304,21.4232 30.6971,20.4232 31.5,19.5 Z M 66.5,19.5 C 68.9752,19.7467 68.9752,20.4134 66.5,21.5C 65.537,21.0302 65.537,20.3635 66.5,19.5 Z M 24.5,20.5 C 27.0009,20.5109 27.1676,21.1776 25,22.5C 24.5357,21.9056 24.369,21.2389 24.5,20.5 Z M 93.5,20.5 C 94.5735,21.2506 94.7401,22.2506 94,23.5C 92.2716,22.6477 92.105,21.6477 93.5,20.5 Z M 86.5,21.5 C 89.0009,21.5109 89.1676,22.1776 87,23.5C 86.5357,22.9056 86.369,22.2389 86.5,21.5 Z M 34.5,22.5 C 36.9752,22.7467 36.9752,23.4134 34.5,24.5C 33.537,24.0302 33.537,23.3635 34.5,22.5 Z M 89.5,24.5 C 91.337,24.6395 91.6704,25.3061 90.5,26.5C 89.7025,26.0431 89.3691,25.3764 89.5,24.5 Z M 43.5,25.5 C 58.8566,24.8047 73.5233,27.638 87.5,34C 100.717,46.0378 105.217,60.8712 101,78.5C 100.79,81.2342 99.9563,83.7342 98.5,86C 95.648,86.9132 93.4814,86.0799 92,83.5C 90.5751,73.2231 89.5751,62.8898 89,52.5C 83.7149,42.0895 75.2149,35.9229 63.5,34C 50.9181,32.7379 38.9181,34.7379 27.5,40C 24.0483,43.7336 21.215,47.9003 19,52.5C 17.6743,59.4541 16.6743,66.4541 16,73.5C 14.0624,74.8602 12.3957,74.5268 11,72.5C 3.75978,54.6452 8.25978,40.8119 24.5,31C 30.8236,28.712 37.1569,26.8786 43.5,25.5 Z M 68.5,39.5 C 64.1937,39.3029 62.1937,41.3029 62.5,45.5C 64.1992,45.3398 65.8659,45.5065 67.5,46C 65.714,46.7845 64.214,47.9512 63,49.5C 61.2056,44.5969 58.7056,44.2636 55.5,48.5C 56.4724,50.6365 58.1391,51.8032 60.5,52C 59.6667,53.5 58.5,54.6667 57,55.5C 54.3064,51.4583 51.8064,51.6249 49.5,56C 51.2254,58.4732 53.3921,58.9732 56,57.5C 55.5242,62.1168 55.5242,66.7834 56,71.5C 57.3597,74.0226 59.193,76.0226 61.5,77.5C 65.8283,78.0464 70.1616,78.7131 74.5,79.5C 73.2889,80.7202 73.2889,81.8869 74.5,83C 72.2557,85.3486 71.0891,84.8486 71,81.5C 68.0083,78.8194 65.5083,79.3194 63.5,83C 64.1667,84.3333 65.1667,85.3333 66.5,86C 49.4938,89.1136 32.4938,89.447 15.5,87C 9.84661,85.703 8.34661,82.5363 11,77.5C 13.5918,78.9817 15.9251,78.6483 18,76.5C 19.6266,74.0273 20.1266,71.5273 19.5,69C 20.2949,61.0814 22.4616,53.5814 26,46.5C 29.1651,42.334 33.3318,39.834 38.5,39C 43.6357,37.9806 48.8024,37.1473 54,36.5C 59.1163,36.8159 63.9497,37.8159 68.5,39.5 Z M 68.5,39.5 C 75.498,41.0459 75.8313,42.7126 69.5,44.5C 69.634,42.7085 69.3007,41.0418 68.5,39.5 Z M 75.5,50.5 C 77.6559,50.8718 77.6559,51.8718 75.5,53.5C 74.4376,52.5754 74.4376,51.5754 75.5,50.5 Z M 64.5,53.5 C 67.0009,53.5109 67.1676,54.1776 65,55.5C 64.5357,54.9056 64.369,54.2389 64.5,53.5 Z M 70.5,54.5 C 73.0009,54.5109 73.1676,55.1776 71,56.5C 70.5357,55.9056 70.369,55.2389 70.5,54.5 Z M 80.5,54.5 C 81.6798,56.913 83.6798,57.913 86.5,57.5C 86.7804,60.3882 85.4471,61.8882 82.5,62C 80.5081,66.152 81.8415,67.9854 86.5,67.5C 86.5,69.1667 86.5,70.8333 86.5,72.5C 83.7673,72.1961 82.1006,73.3628 81.5,76C 81.8198,77.6532 82.8198,78.6532 84.5,79C 83.5,79.5 82.5,80 81.5,80.5C 79.7801,79.0451 77.7801,78.2117 75.5,78C 80.0685,75.4586 81.5685,71.6253 80,66.5C 76.873,62.1154 77.0397,58.1154 80.5,54.5 Z M 66.5,56.5 C 69.0009,56.5109 69.1676,57.1776 67,58.5C 66.5357,57.9056 66.369,57.2389 66.5,56.5 Z M 68.5,60.5 C 71.0009,60.5109 71.1676,61.1776 69,62.5C 68.5357,61.9056 68.369,61.2389 68.5,60.5 Z M 64.5,62.5 C 65.7733,63.0768 65.7733,63.7435 64.5,64.5C 63.537,64.0302 63.537,63.3635 64.5,62.5 Z M 65.5,66.5 C 68.0009,66.5109 68.1676,67.1776 66,68.5C 65.5357,67.9056 65.369,67.2389 65.5,66.5 Z M 86.5,81.5 C 88.7098,85.5725 91.2098,89.5725 94,93.5C 96.087,94.7938 98.2537,95.9605 100.5,97C 101.833,97.6667 101.833,98.3333 100.5,99C 87.7875,104.602 78.7875,101.102 73.5,88.5C 76.7245,84.8243 78.5579,85.1576 79,89.5C 81.1408,93.6392 84.4742,96.3059 89,97.5C 90.0588,97.3699 90.8921,96.8699 91.5,96C 87.734,94.2312 84.5673,91.7312 82,88.5C 81.2195,87.0563 81.3861,85.723 82.5,84.5C 83.9014,83.4793 85.2347,82.4793 86.5,81.5 Z M 57.5,90.5 C 63.5792,91.7766 64.9126,94.9432 61.5,100C 55.7293,102.441 51.396,100.941 48.5,95.5C 48.5288,93.9707 49.1955,92.804 50.5,92C 53.0356,91.8138 55.369,91.3138 57.5,90.5 Z M 16.5,91.5 C 19.5184,91.3354 22.5184,91.502 25.5,92C 22.052,93.95 18.3853,95.45 14.5,96.5C 14.8869,97.7199 15.7202,98.3865 17,98.5C 21.2789,98.1109 24.7789,96.2776 27.5,93C 30.2272,92.1816 32.8938,92.3483 35.5,93.5C 33.2457,95.9189 30.579,97.7523 27.5,99C 20.954,100.813 14.2874,101.647 7.5,101.5C 7.49136,99.6916 7.99136,98.0249 9,96.5C 12.0136,95.4612 14.5136,93.7945 16.5,91.5 Z"/></g>
<g><path style="opacity:0.718" fill="#000000" d="M 37.5,49.5 C 38.9953,49.4148 39.9953,50.0815 40.5,51.5C 39.6798,53.1112 38.3464,53.7778 36.5,53.5C 36.4326,52.0413 36.7659,50.7079 37.5,49.5 Z"/></g>
<g><path style="opacity:0.732" fill="#000000" d="M 32.5,54.5 C 36.1232,55.4114 36.2899,56.7447 33,58.5C 31.2317,57.3181 31.0651,55.9848 32.5,54.5 Z"/></g>
<g><path style="opacity:0.647" fill="#000000" d="M 48.5,61.5 C 53.1225,60.4082 54.9558,62.0748 54,66.5C 48.4205,68.7516 46.5871,67.0849 48.5,61.5 Z"/></g>
<g><path style="opacity:0.745" fill="#000000" d="M 29.5,62.5 C 33.8638,62.6648 34.3638,63.9981 31,66.5C 29.8118,65.4366 29.3118,64.1033 29.5,62.5 Z"/></g>
<g><path style="opacity:0.716" fill="#000000" d="M 29.5,70.5 C 31.9118,70.6941 32.9118,72.0274 32.5,74.5C 31.5,74.5 30.5,74.5 29.5,74.5C 29.5,73.1667 29.5,71.8333 29.5,70.5 Z"/></g>
<g><path style="opacity:0.639" fill="#000000" d="M 51.5,70.5 C 53.7224,70.5587 54.7224,71.7253 54.5,74C 54.2334,77.1642 52.5667,78.1642 49.5,77C 47.9329,74.0944 48.5995,71.9277 51.5,70.5 Z"/></g>
<g><path style="opacity:0.716" fill="#000000" d="M 33.5,77.5 C 34.5,77.5 35.5,77.5 36.5,77.5C 36.7778,79.3464 36.1112,80.6798 34.5,81.5C 33.5713,80.3112 33.238,78.9778 33.5,77.5 Z"/></g>
<g><path style="opacity:0.67" fill="#000000" d="M 61.5,77.5 C 62.6178,82.0214 60.6178,84.0214 55.5,83.5C 54.5,78.5 56.5,76.5 61.5,77.5 Z"/></g>
</svg>
