<?xml version="1.0" encoding="UTF-8"?>
<!DOCTYPE svg PUBLIC "-//W3C//DTD SVG 1.1//EN" "http://www.w3.org/Graphics/SVG/1.1/DTD/svg11.dtd">
<svg xmlns="http://www.w3.org/2000/svg" version="1.1" width="110px" height="110px" style="shape-rendering:geometricPrecision; text-rendering:geometricPrecision; image-rendering:optimizeQuality; fill-rule:evenodd; clip-rule:evenodd" xmlns:xlink="http://www.w3.org/1999/xlink">
<g><path style="opacity:0.75" fill="#000000" d="M 83.5,11.5 C 86.8584,13.6997 89.3584,16.6997 91,20.5C 92.1237,26.1027 92.7904,31.7694 93,37.5C 93.2362,48.186 93.7362,58.8527 94.5,69.5C 94.3298,75.7412 91.9965,80.9079 87.5,85C 94.5691,86.7684 100.069,90.6017 104,96.5C 104.497,98.8098 104.663,101.143 104.5,103.5C 98.1012,101.943 91.6012,100.943 85,100.5C 79.9897,100.323 75.1564,101.156 70.5,103C 61.2881,104.681 52.6214,103.348 44.5,99C 42.6469,96.9602 41.3136,94.6269 40.5,92C 38.236,91.7638 36.0693,91.2638 34,90.5C 34.4755,95.713 32.6422,99.8797 28.5,103C 22.4422,103.739 16.4422,103.406 10.5,102C 4.97524,99.0812 3.14191,94.5812 5,88.5C 7.88559,86.6615 10.7189,84.8282 13.5,83C 11.505,78.7299 11.1716,74.3966 12.5,70C 10.9395,54.8237 10.7729,39.657 12,24.5C 14.0043,16.1586 19.171,10.6586 27.5,8C 44.5119,2.0011 61.5119,2.0011 78.5,8C 80.5844,8.69724 82.2511,9.8639 83.5,11.5 Z M 45.5,6.5 C 56.2019,5.5694 66.5352,7.0694 76.5,11C 86.9229,15.9163 91.0896,24.083 89,35.5C 88.1072,34.2888 87.2739,34.2888 86.5,35.5C 85.2939,38.0794 83.9606,40.5794 82.5,43C 78.5,45.3333 74.5,47.6667 70.5,50C 65.4839,51.9206 60.4839,51.9206 55.5,50C 50.6539,42.9493 51.9872,37.2826 59.5,33C 64.5477,31.7914 69.5477,30.458 74.5,29C 77.6354,25.4285 79.302,21.2618 79.5,16.5C 78.325,16.281 77.325,16.6143 76.5,17.5C 74.2475,22.6549 70.2475,25.1549 64.5,25C 61.5,25.6667 58.5,25.6667 55.5,25C 59.699,19.7186 59.3657,14.7186 54.5,10C 46.3546,5.97846 44.688,7.8118 49.5,15.5C 48.7867,21.7198 46.2867,27.0532 42,31.5C 41.8823,34.3713 41.2156,37.038 40,39.5C 36.2702,38.0847 32.4368,36.918 28.5,36C 26.8116,34.3116 25.1449,32.6449 23.5,31C 22.2808,28.616 22.2808,26.2826 23.5,24C 22.1354,22.3181 20.6354,22.1514 19,23.5C 12.6976,33.4347 14.8643,40.9347 25.5,46C 20.7773,49.2536 19.2773,53.7536 21,59.5C 22.6491,61.6499 24.4824,63.6499 26.5,65.5C 29.3959,65.2934 32.3959,65.1267 35.5,65C 40.8706,63.1029 43.3706,59.2696 43,53.5C 46.9415,58.4069 47.1082,63.2402 43.5,68C 37.3846,70.0292 31.3846,72.3625 25.5,75C 23.3333,77.8333 21.1667,80.6667 19,83.5C 15.8884,80.9795 14.3884,77.6462 14.5,73.5C 14.2665,65.9513 14.5998,58.2846 15.5,50.5C 14.8647,42.4794 14.1981,34.4794 13.5,26.5C 16.4488,21.0565 20.2821,16.3898 25,12.5C 23.5363,23.3639 28.3696,27.8639 39.5,26C 45.7073,20.3373 46.0407,14.3373 40.5,8C 42.3817,7.80192 44.0484,7.30192 45.5,6.5 Z M 33.5,9.5 C 40.6371,10.4363 42.8038,14.1029 40,20.5C 34.5183,24.9212 30.3516,23.9212 27.5,17.5C 27.7004,13.3198 29.7004,10.6531 33.5,9.5 Z M 53.5,13.5 C 54.8086,14.624 55.4753,16.124 55.5,18C 54.8695,21.2962 53.3695,24.1296 51,26.5C 50.51,27.7932 50.3433,29.1266 50.5,30.5C 52.9013,29.9512 55.2346,29.1178 57.5,28C 59.5,27.3333 61.5,27.3333 63.5,28C 57.5739,29.5846 53.0739,33.0846 50,38.5C 49.42,43.5951 50.5866,48.2617 53.5,52.5C 57.0018,54.2622 60.6684,54.7622 64.5,54C 71.2756,52.427 77.6089,50.0937 83.5,47C 76.8226,52.4536 69.156,55.7869 60.5,57C 54.1602,61.0836 53.8269,65.7503 59.5,71C 67.3961,74.6985 75.7295,76.6985 84.5,77C 89.1926,77.8164 89.5259,79.3164 85.5,81.5C 83.8333,80.3333 82.1667,79.1667 80.5,78C 79.0563,77.2195 77.723,77.3861 76.5,78.5C 78.6789,79.7567 80.6789,81.2567 82.5,83C 81.6667,83.8333 80.8333,84.6667 80,85.5C 77.1248,81.1481 73.2914,79.1481 68.5,79.5C 71.6377,80.8045 73.971,82.9712 75.5,86C 73.0675,88.9665 71.5675,88.7998 71,85.5C 69.3163,83.6487 67.4829,81.982 65.5,80.5C 64.4173,81.365 64.2506,82.365 65,83.5C 70.64,86.8031 70.4734,88.8031 64.5,89.5C 64.5326,85.8981 63.1993,82.8981 60.5,80.5C 59.6919,80.8076 59.0253,81.3076 58.5,82C 60.5402,84.1851 61.8736,86.6851 62.5,89.5C 60.8333,89.5 59.1667,89.5 57.5,89.5C 57.9838,86.2023 56.9838,83.5357 54.5,81.5C 53.795,84.089 53.795,86.7557 54.5,89.5C 50.5244,89.8648 49.5244,88.3648 51.5,85C 51.6125,83.3376 50.9458,82.1709 49.5,81.5C 48.4512,84.0795 47.7845,86.7462 47.5,89.5C 46.0222,89.762 44.6888,89.4287 43.5,88.5C 44.3052,86.0846 45.3052,83.7513 46.5,81.5C 46.1667,81.1667 45.8333,80.8333 45.5,80.5C 43.1132,82.6068 41.7799,85.2735 41.5,88.5C 40.0222,88.762 38.6888,88.4287 37.5,87.5C 38.6667,85.8333 39.8333,84.1667 41,82.5C 41.7494,81.365 41.5827,80.365 40.5,79.5C 37.7565,82.236 35.4231,85.236 33.5,88.5C 33.2218,85.2053 34.5551,82.372 37.5,80C 36.5,79.3333 35.5,79.3333 34.5,80C 32.2097,82.0795 30.5431,84.5795 29.5,87.5C 28.5,87 27.5,86.5 26.5,86C 27.9578,83.54 29.7911,81.3734 32,79.5C 32.5908,78.5165 32.2575,77.8499 31,77.5C 27.6527,79.3481 25.1527,82.0147 23.5,85.5C 23.1667,85.1667 22.8333,84.8333 22.5,84.5C 25.9615,76.9297 31.9615,73.0964 40.5,73C 52.5892,66.5212 53.7559,58.3545 44,48.5C 43.6667,48.8333 43.3333,49.1667 43,49.5C 37.0105,46.6134 30.8439,44.1134 24.5,42C 21.4475,39.8012 19.4475,36.9678 18.5,33.5C 18.8333,32.5 19.1667,31.5 19.5,30.5C 20.8034,32.9371 22.4701,35.1038 24.5,37C 31.5623,39.5946 38.5623,41.9279 45.5,44C 44.374,40.2564 44.2073,36.423 45,32.5C 49.6837,26.9321 52.517,20.5987 53.5,13.5 Z M 89.5,40.5 C 89.8906,51.6275 90.224,62.9608 90.5,74.5C 83.166,73.3701 75.8327,72.2034 68.5,71C 64.0566,70.1228 60.7232,67.7895 58.5,64C 59.1007,62.395 60.1007,61.0616 61.5,60C 69.9442,58.943 77.6109,55.943 84.5,51C 86.5654,47.702 88.2321,44.202 89.5,40.5 Z M 17.5,86.5 C 21.511,88.0015 25.511,89.5015 29.5,91C 24.1072,90.9703 18.7738,90.9703 13.5,91C 12.8333,90.3333 12.1667,89.6667 11.5,89C 13.5018,87.9808 15.5018,87.1475 17.5,86.5 Z M 82.5,88.5 C 90.8763,88.3538 97.2096,91.8538 101.5,99C 96.0116,98.4536 90.5116,97.6202 85,96.5C 77.7257,97.7214 70.559,99.3881 63.5,101.5C 57.5173,101.187 51.8506,99.6874 46.5,97C 43.2985,93.614 43.9652,92.2806 48.5,93C 50.9385,96.3955 54.2719,98.5622 58.5,99.5C 59.3081,99.1924 59.9747,98.6924 60.5,98C 57.8333,96.3333 55.1667,94.6667 52.5,93C 53.6667,92.8333 54.8333,92.6667 56,92.5C 59.6276,93.2276 63.1276,94.3943 66.5,96C 72.6693,96.3793 78.8359,96.2127 85,95.5C 88.8463,95.3312 92.513,95.9978 96,97.5C 97.3636,95.3966 96.5302,93.8966 93.5,93C 84.505,93.1327 75.505,93.1327 66.5,93C 72.035,91.7865 77.3683,90.2865 82.5,88.5 Z M 7.5,91.5 C 10.1662,91.0658 11.3329,92.0658 11,94.5C 8.34223,95.694 7.17556,94.694 7.5,91.5 Z M 14.5,93.5 C 19.8054,93.0346 25.1387,93.5346 30.5,95C 28.7681,98.8676 25.7681,100.701 21.5,100.5C 18.076,100.263 14.7426,99.5961 11.5,98.5C 13.2779,97.2742 14.2779,95.6075 14.5,93.5 Z"/></g>
<g><path style="opacity:0.075" fill="#000000" d="M 88.5,4.5 C 88.8966,3.47498 89.5632,3.30831 90.5,4C 89.9056,4.46434 89.2389,4.63101 88.5,4.5 Z"/></g>
<g><path style="opacity:0.075" fill="#000000" d="M 83.5,10.5 C 84.8333,11.1667 84.8333,11.1667 83.5,10.5 Z"/></g>
<g><path style="opacity:0.105" fill="#000000" d="M 4.5,55.5 C 5.57346,56.2506 5.74012,57.2506 5,58.5C 4.51722,57.552 4.35055,56.552 4.5,55.5 Z"/></g>
</svg>
