<?xml version="1.0" encoding="UTF-8"?>
<svg version="1.1" xmlns="http://www.w3.org/2000/svg" width="110" height="110">
<path d="M0 0 C10.04563664 9.04107298 10.41423597 17.26692241 11.11254883 30.06225586 C11.33879285 34.5202335 11.51659353 38.9788124 11.66748047 43.43994141 C11.72275866 44.98740366 11.78500034 46.53463197 11.85400391 48.08154297 C12.57909307 64.41494955 12.57909307 64.41494955 9 72 C7.39355469 73.72558594 7.39355469 73.72558594 6 75 C6.66386719 75.30292969 7.32773438 75.60585937 8.01171875 75.91796875 C19.0861244 81.1722488 19.0861244 81.1722488 22 87 C22.04022391 89.3329866 22.04320247 91.66706666 22 94 C14.38591373 93.11168994 14.38591373 93.11168994 12.19140625 92.4765625 C9.01288362 91.78533298 5.936533 91.8288268 2.6875 91.8125 C0.77517578 91.79123047 0.77517578 91.79123047 -1.17578125 91.76953125 C-4.97929789 91.85939631 -4.97929789 91.85939631 -8.42578125 92.984375 C-16.61334992 95.31089724 -27.72084349 95.82867409 -35.4375 91.875 C-38.95853078 89.48670393 -40.17871421 86.81602738 -42 83 C-45.08961458 82.02525184 -45.08961458 82.02525184 -48 82 C-48.2475 83.2375 -48.495 84.475 -48.75 85.75 C-49.51908709 89.59543544 -50.85510176 91.61348363 -54 94 C-60.54307871 95.0092592 -67.90979539 94.72115525 -74 92 C-76.49752621 89.82266946 -77.7564587 88.28549637 -78.37890625 85 C-78.56650928 81.70786946 -78.51797982 79.59471758 -76.3125 77.0625 C-73.86466586 75.93781945 -71.66347212 75.36992668 -69 75 C-69.32073486 74.18716553 -69.64146973 73.37433105 -69.97192383 72.53686523 C-71.17584712 68.39503746 -71.36797549 64.69710996 -71.44921875 60.41015625 C-71.47095657 59.58857529 -71.4926944 58.76699432 -71.51509094 57.92051697 C-71.5588695 56.18336465 -71.59810018 54.44609247 -71.63305664 52.70874023 C-71.68669555 50.10160056 -71.75719726 47.49533636 -71.83007812 44.88867188 C-72.64195828 12.52121501 -72.64195828 12.52121501 -66.59765625 5.33203125 C-62.06864388 1.01614888 -56.8580842 -1.04150231 -51 -3 C-50.22527344 -3.30035156 -49.45054688 -3.60070312 -48.65234375 -3.91015625 C-34.02470377 -8.89421742 -13.54782814 -7.78472085 0 0 Z M-42 -2 C-41.505 -1.34 -41.01 -0.68 -40.5 0 C-38.22487012 4.55025975 -38.66751265 8.40659868 -39.3125 13.4375 C-39.539375 13.953125 -39.76625 14.46875 -40 15 C-44.9304428 16.64348093 -49.26388569 16.81264925 -53.9375 14.625 C-56 13 -56 13 -57 11 C-57.13415472 8.3276379 -57.04318541 5.67749512 -57 3 C-62.77869031 6.13046183 -66.17680673 10.07039661 -69 16 C-69.6734541 20.28999465 -69.35047603 24.31690913 -68.9375 28.625 C-68.77552512 31.00491145 -68.61807074 33.38513432 -68.46484375 35.765625 C-68.37960449 36.96380859 -68.29436523 38.16199219 -68.20654297 39.39648438 C-67.82450815 46.06177273 -67.95310618 52.7243606 -68.03881836 59.39697266 C-68.0466333 60.32558105 -68.05444824 61.25418945 -68.0625 62.2109375 C-68.07410156 63.01837402 -68.08570312 63.82581055 -68.09765625 64.65771484 C-67.9906842 67.22343943 -67.67852726 69.52178521 -67 72 C-65.03241727 73.36020151 -65.03241727 73.36020151 -63 74 C-62.52433594 73.20335938 -62.52433594 73.20335938 -62.0390625 72.390625 C-57.95435428 66.20714405 -53.9485989 64.18415127 -47 62 C-40.79017805 60.10626748 -40.79017805 60.10626748 -36 56 C-35.7411104 53.80881023 -35.7411104 53.80881023 -36.125 51.5 C-36.21007813 50.7265625 -36.29515625 49.953125 -36.3828125 49.15625 C-37.0935418 46.67319572 -38.04886866 45.64527832 -40 44 C-40.226875 45.258125 -40.45375 46.51625 -40.6875 47.8125 C-41.45777512 50.81391684 -41.80736445 51.81869595 -44.125 54 C-47.93568388 55.32545526 -50.96922814 55.13215645 -55 55 C-55.99 55.495 -55.99 55.495 -57 56 C-57 55.34 -57 54.68 -57 54 C-57.66 54 -58.32 54 -59 54 C-61.43700734 49.70111906 -61.74310075 45.85607698 -61 41 C-59 37.9375 -59 37.9375 -57 36 C-57.48210938 35.67386719 -57.96421875 35.34773438 -58.4609375 35.01171875 C-59.09257813 34.57472656 -59.72421875 34.13773438 -60.375 33.6875 C-61.00148438 33.25824219 -61.62796875 32.82898437 -62.2734375 32.38671875 C-64.56770972 30.54403404 -65.87539937 28.86411346 -66.30078125 25.9140625 C-66.32551243 21.08323953 -66.0753663 17.97234814 -63 14 C-62.01 14.33 -61.02 14.66 -60 15 C-59.938125 16.2375 -59.87625 17.475 -59.8125 18.75 C-59.39849217 21.75951848 -59.11207296 22.85701036 -57.1875 25.3125 C-52.41483648 27.83920422 -47.32128953 29.12672089 -42 30 C-40.64933472 28.8654902 -40.64933472 28.8654902 -40.75 25.875 C-39.94064824 21.69334926 -38.729329 20.01180452 -36.21484375 16.75390625 C-33.58640708 12.95915363 -32.87754219 9.27356125 -33.3125 4.75 C-33.97842911 1.93688517 -33.97842911 1.93688517 -35 -1 C-31.56466156 -0.70554242 -29.97701716 0.01736482 -27.1875 2.125 C-24.44069575 5.73508559 -24.43462191 7.55774361 -25 12 C-25.62726511 13.35231679 -26.28677153 14.69098229 -27 16 C-20.46388367 16.31124363 -14.95149736 15.92029994 -9 13 C-6.8955794 11.12143733 -6.8955794 11.12143733 -6 9 C-6 8.34 -6 7.68 -6 7 C-5.01 7 -4.02 7 -3 7 C-3.5916101 8.79585197 -4.19874192 10.58659629 -4.8125 12.375 C-5.14894531 13.37273438 -5.48539063 14.37046875 -5.83203125 15.3984375 C-7 18 -7 18 -10 20 C-12.09403622 20.48366925 -14.20033574 20.91540337 -16.3125 21.3125 C-21.94545678 22.5433356 -25.09997757 23.7749757 -29 28 C-30.52846661 31.05693322 -30.23242445 33.62984547 -30 37 C-28.23984869 40.1850357 -27.50109084 40.83296972 -24 42 C-14.23533094 42.66201146 -6.48180334 39.31087071 1 33 C3.40225969 29.26032257 3.40225969 29.26032257 4 25 C5.485 25.495 5.485 25.495 7 26 C7.39169951 18.78982749 7.38433622 12.91521249 2.40625 7.15625 C-6.10254915 -1.07357213 -17.06229267 -3.18426273 -28.5 -3.125 C-29.24636719 -3.12886719 -29.99273437 -3.13273438 -30.76171875 -3.13671875 C-34.64139586 -3.12985206 -38.21080898 -2.94729776 -42 -2 Z M-54 3 C-55.16025399 6.45421315 -55.16025399 6.45421315 -55 10 C-53.4729383 12.69481477 -52.05324061 12.98148153 -49.125 14 C-45.82299384 14.30957868 -45.82299384 14.30957868 -43.125 11.875 C-40.8915691 9.21989904 -40.8915691 9.21989904 -40.3125 6.4375 C-40.83802473 3.67270954 -40.83802473 3.67270954 -43.875 1.6875 C-48.36600681 -0.73764368 -50.02882358 -0.15657613 -54 3 Z M-29 4 C-29.226875 4.94875 -29.45375 5.8975 -29.6875 6.875 C-31.29973603 12.54682314 -33.7995107 18.7995107 -38 23 C-38.24315656 25.66949409 -38.24315656 25.66949409 -38.125 28.625 C-38.09792969 30.12933594 -38.09792969 30.12933594 -38.0703125 31.6640625 C-38.04710938 32.43492188 -38.02390625 33.20578125 -38 34 C-40.90270512 33.12285858 -43.79571546 32.2244043 -46.6875 31.3125 C-47.50412109 31.06822266 -48.32074219 30.82394531 -49.16210938 30.57226562 C-54.27687314 28.93636952 -57.49860178 27.27488264 -61 23 C-61.33 22.34 -61.66 21.68 -62 21 C-62.66 21 -63.32 21 -64 21 C-64.67350769 23.70012347 -64.67350769 23.70012347 -64 27 C-59.54278236 33.57549929 -52.12326091 35.71717467 -44.90454102 37.95898438 C-40.17038859 39.44329135 -37.27739338 40.55875932 -34.9453125 45.015625 C-33.40761044 49.20403251 -32.84496066 51.36950669 -33.9375 55.8125 C-37.49825214 61.31548058 -41.38315786 62.93216901 -47.5625 64.4375 C-52.33774838 65.63780021 -54.99030245 66.92234525 -58 71 C-59.319018 73.66533035 -59.319018 73.66533035 -60 76 C-59.34 76 -58.68 76 -58 76 C-57.38125 75.05125 -56.7625 74.1025 -56.125 73.125 C-54 70 -54 70 -50 68 C-51.98 70.64 -53.96 73.28 -56 76 C-54.68 76.66 -53.36 77.32 -52 78 C-51.01 76.02 -50.02 74.04 -49 72 C-48.34 72 -47.68 72 -47 72 C-47.495 72.598125 -47.99 73.19625 -48.5 73.8125 C-50.28276418 75.97029994 -50.28276418 75.97029994 -50 79 C-46.59402245 77.86467415 -46.46547428 77.51883178 -44.9375 74.5 C-43.20357634 71.10178817 -43.20357634 71.10178817 -41 70 C-42.04166667 71.7578125 -43.08333333 73.515625 -44.125 75.2734375 C-45.15068348 76.97472667 -45.15068348 76.97472667 -45 79 C-43.68 79 -42.36 79 -41 79 C-40.54625 77.865625 -40.0925 76.73125 -39.625 75.5625 C-38 72 -38 72 -36 71 C-36.99 73.97 -37.98 76.94 -39 80 C-37.68 80 -36.36 80 -35 80 C-34.67 77.36 -34.34 74.72 -34 72 C-33.34 72.33 -32.68 72.66 -32 73 C-32 75.31 -32 77.62 -32 80 C-30.68 80 -29.36 80 -28 80 C-28.495 76.04 -28.495 76.04 -29 72 C-26.10067643 74.39509338 -25.49831724 76.31245243 -25 80 C-23.35 80 -21.7 80 -20 80 C-20.62759865 77.07120629 -21.58622659 74.63904371 -23 72 C-22.34 71.67 -21.68 71.34 -21 71 C-20.01 73.97 -19.02 76.94 -18 80 C-15.525 79.505 -15.525 79.505 -13 79 C-14.3089572 75.87802522 -14.3089572 75.87802522 -17 74 C-17.33 73.01 -17.66 72.02 -18 71 C-12.25 75.625 -12.25 75.625 -10 79 C-9.01 78.01 -8.02 77.02 -7 76 C-8.62339805 74.29115995 -10.29319053 72.62553283 -12 71 C-12.66 71 -13.32 71 -14 71 C-14 70.34 -14 69.68 -14 69 C-5.55353075 73.03872437 -5.55353075 73.03872437 -2 76 C-1.01 74.515 -1.01 74.515 0 73 C-2.67247634 70.65712582 -2.67247634 70.65712582 -6 70 C-6 69.34 -6 68.68 -6 68 C-4.30729167 68.78125 -2.61458333 69.5625 -0.921875 70.34375 C1.29242836 71.21542924 1.29242836 71.21542924 5 71 C5 70.01 5 69.02 5 68 C3.56278243 67.70694479 2.12520173 67.41567065 0.6875 67.125 C-0.22386719 66.939375 -1.13523438 66.75375 -2.07421875 66.5625 C-3.98718745 66.19471964 -5.90686581 65.85990487 -7.83203125 65.5625 C-13.68779005 64.64523429 -19.07750925 63.46671654 -24 60 C-26.31361802 56.52957297 -26.51020728 55.08165827 -26 51 C-22.71008347 47.70171218 -18.54835846 46.82894564 -14.1875 45.625 C-8.27144905 43.90148381 -3.70708632 42.11870053 1 38 C0.01 37.505 0.01 37.505 -1 37 C-2.97404732 37.88059423 -4.90668084 38.8551165 -6.8125 39.875 C-14.52782509 43.99622955 -21.37081426 45.09192381 -30 43 C-32.71052632 33.17434211 -32.71052632 33.17434211 -32 29 C-28.73896395 23.59201851 -24.88405928 21.00058016 -19 19 C-19 18.67 -19 18.34 -19 18 C-20.41750563 18.11509661 -21.83401169 18.24253658 -23.25 18.375 C-24.03890625 18.44460937 -24.8278125 18.51421875 -25.640625 18.5859375 C-28.085877 19.01507113 -29.84836903 19.78600638 -32 21 C-30.49760034 17.38058265 -29.17854707 14.2678206 -27 11 C-27.31730524 7.36060068 -27.31730524 7.36060068 -28 4 C-28.33 4 -28.66 4 -29 4 Z M7 31 C6.80148438 31.64066406 6.60296875 32.28132813 6.3984375 32.94140625 C3.69410416 39.86738974 -0.06793073 42.82213673 -6.61694336 45.8684082 C-11.34769886 47.91668032 -15.96769383 49.01003813 -21 50 C-22.75996452 51.3479305 -22.75996452 51.3479305 -24 53 C-24.22292585 55.03676643 -24.22292585 55.03676643 -23 57 C-16.32744269 62.40159401 -8.81941996 63.31244557 -0.5625 64.125 C3.6759375 64.558125 3.6759375 64.558125 8 65 C8 53.78 8 42.56 8 31 C7.67 31 7.34 31 7 31 Z M-71 79 C-70.01 80.485 -70.01 80.485 -69 82 C-66.2114711 82.22107787 -63.65346819 82.28107535 -60.875 82.1875 C-59.74384766 82.16719727 -59.74384766 82.16719727 -58.58984375 82.14648438 C-56.72625873 82.11109985 -54.86304022 82.05729167 -53 82 C-53.83842483 79.77061154 -53.83842483 79.77061154 -56.29296875 79.078125 C-63.71267318 76.87352629 -63.71267318 76.87352629 -71 79 Z M-75 82 C-74.67 83.32 -74.34 84.64 -74 86 C-73.01 85.67 -72.02 85.34 -71 85 C-71.33 84.01 -71.66 83.02 -72 82 C-72.99 82 -73.98 82 -75 82 Z M-16 83 C-16 83.33 -16 83.66 -16 84 C-14.80455566 83.9685791 -14.80455566 83.9685791 -13.58496094 83.93652344 C-9.97343566 83.85336678 -6.36211176 83.80133966 -2.75 83.75 C-0.86861328 83.69972656 -0.86861328 83.69972656 1.05078125 83.6484375 C2.25605469 83.63554688 3.46132812 83.62265625 4.703125 83.609375 C5.81333008 83.58842773 6.92353516 83.56748047 8.06738281 83.54589844 C11.62519334 84.09680816 12.76701723 85.2539063 15 88 C14.2972998 87.67185303 13.59459961 87.34370605 12.87060547 87.00561523 C9.70414058 85.8963561 7.41300874 85.81311705 4.0703125 85.91015625 C2.94496094 85.93013672 1.81960937 85.95011719 0.66015625 85.97070312 C-1.6889123 86.03170104 -4.03787861 86.0967784 -6.38671875 86.16601562 C-12.85358216 86.27318079 -17.25195045 85.96227921 -23 83 C-26.79252787 82.74802757 -26.79252787 82.74802757 -30 83 C-27.83312509 85.27521866 -25.54379491 87.15794162 -23 89 C-24.46224799 88.57576756 -25.91973412 88.13509755 -27.375 87.6875 C-28.18710937 87.44386719 -28.99921875 87.20023438 -29.8359375 86.94921875 C-32 86 -32 86 -34 83 C-35.32 83 -36.64 83 -38 83 C-37.50452457 85.45631001 -37.50452457 85.45631001 -36 88 C-27.23456239 93.22196283 -18.44320583 92.26858122 -8.9375 89.9375 C0.77674994 87.56086843 9.23199567 88.2728021 19 90 C16.24478792 85.26447925 14.09860976 82.16814846 8.79296875 80.16796875 C0.03371981 77.92234421 -7.60385082 80.45060464 -16 83 Z M-68 84 C-68.33 85.32 -68.66 86.64 -69 88 C-69.66 88 -70.32 88 -71 88 C-71 88.66 -71 89.32 -71 90 C-66.18120436 90.96375913 -61.88519142 91.46525633 -57 91 C-53.97590636 88.72872666 -53.97590636 88.72872666 -52 86 C-52 85.67 -52 85.34 -52 85 C-53.72888555 84.83044205 -55.45812443 84.66448486 -57.1875 84.5 C-58.15042969 84.4071875 -59.11335938 84.314375 -60.10546875 84.21875 C-62.75187667 84.01875156 -65.34760865 83.96120817 -68 84 Z " fill="#000000" transform="translate(83,10)"/>
<path d="" fill="#000000" transform="translate(0,0)"/>
<path d="M0 0 C2 1 2 1 2 1 Z " fill="#000000" transform="translate(89,4)"/>
<path d="" fill="#000000" transform="translate(0,0)"/>
</svg>
