<?xml version="1.0" encoding="UTF-8"?>
<!DOCTYPE svg PUBLIC "-//W3C//DTD SVG 1.1//EN" "http://www.w3.org/Graphics/SVG/1.1/DTD/svg11.dtd">
<svg xmlns="http://www.w3.org/2000/svg" version="1.1" width="110px" height="110px" style="shape-rendering:geometricPrecision; text-rendering:geometricPrecision; image-rendering:optimizeQuality; fill-rule:evenodd; clip-rule:evenodd" xmlns:xlink="http://www.w3.org/1999/xlink">
<g><path style="opacity:0.767" fill="#000000" d="M 6.5,26.5 C 9.48528,20.52 14.1519,16.1866 20.5,13.5C 25.6655,11.542 30.9988,10.2086 36.5,9.5C 38.9105,7.07996 41.9105,5.91329 45.5,6C 44.8333,5.66667 44.1667,5.33333 43.5,5C 57.8701,4.13069 72.2034,4.46402 86.5,6C 96.1573,9.43322 101.991,16.2666 104,26.5C 104.405,39.4263 104.572,52.2596 104.5,65C 104.333,65.8333 104.167,66.6667 104,67.5C 103.667,66.1667 103.333,64.8333 103,63.5C 100.809,72.719 95.9754,80.219 88.5,86C 92.9683,86.4931 97.3017,87.4931 101.5,89C 106.606,97.636 104.106,103.136 94,105.5C 93.0938,102.546 91.9271,99.7129 90.5,97C 83.9236,95.6226 77.2569,95.1226 70.5,95.5C 70.8957,98.0444 70.229,100.211 68.5,102C 58.0823,107.344 48.5823,106.177 40,98.5C 34.8834,101.037 29.7167,101.037 24.5,98.5C 21.4277,98.8702 18.761,100.037 16.5,102C 17.8515,104.125 17.1848,105.292 14.5,105.5C 6.06357,104.596 3.23024,100.263 6,92.5C 8.18458,91.3305 10.3512,90.1638 12.5,89C 4.82976,82.613 4.82976,76.4463 12.5,70.5C 8.15029,66.4653 5.98363,61.4653 6,55.5C 3.9661,45.7487 4.13277,36.082 6.5,26.5 Z M 51.5,7.5 C 61.1724,7.33353 70.8391,7.5002 80.5,8C 92.8599,10.3637 99.6933,17.8637 101,30.5C 103.255,45.5142 101.255,59.8475 95,73.5C 92.798,76.6634 90.298,79.4967 87.5,82C 82.5795,83.8072 77.5795,85.3072 72.5,86.5C 71.2054,85.9017 69.8721,85.4017 68.5,85C 74.901,78.7901 77.0677,71.2901 75,62.5C 70.4209,47.1274 60.5876,42.2941 45.5,48C 41.5223,52.9094 40.5223,58.4094 42.5,64.5C 44.8362,66.7996 47.6696,68.133 51,68.5C 53.9704,67.978 54.8037,66.478 53.5,64C 48.2773,63.4327 47.2773,61.0994 50.5,57C 60.8437,55.7036 64.3437,60.2036 61,70.5C 58.5736,81.2948 52.4069,84.4614 42.5,80C 36.2809,73.3039 33.9476,65.3039 35.5,56C 35.324,47.7232 36.1573,39.5566 38,31.5C 39.3103,28.5268 41.3103,26.1935 44,24.5C 46.9508,26.0761 50.1174,26.7428 53.5,26.5C 56.806,37.9607 64.4727,43.4607 76.5,43C 87.882,38.2542 92.382,29.7542 90,17.5C 80.9518,7.641 70.4518,6.141 58.5,13C 55.2456,15.3419 53.4123,18.5085 53,22.5C 49.0485,22.9787 45.2151,22.1453 41.5,20C 38.887,16.7963 38.887,13.6296 41.5,10.5C 44.8965,9.28286 48.2298,8.28286 51.5,7.5 Z M 14.5,22.5 C 12.4556,29.6245 15.1223,32.4578 22.5,31C 25.4957,24.1935 23.1624,21.0268 15.5,21.5C 21.4028,15.4795 28.4028,12.9795 36.5,14C 35.0555,18.1195 36.3889,21.1195 40.5,23C 35.1456,28.7154 32.3123,35.5488 32,43.5C 26.8809,39.2677 22.2142,39.601 18,44.5C 15.7424,51.3224 16.0757,57.9891 19,64.5C 25.1454,68.0318 24.6454,69.5318 17.5,69C 14.3333,67.1667 11.8333,64.6667 10,61.5C 9.03672,53.3413 8.20339,45.3413 7.5,37.5C 8.64061,34.2446 9.47394,30.9112 10,27.5C 10.9959,25.3395 12.4959,23.6728 14.5,22.5 Z M 68.5,12.5 C 70.1992,12.3398 71.8659,12.5065 73.5,13C 75.4891,20.1645 80.1557,23.6645 87.5,23.5C 87.5,24.5 87.5,25.5 87.5,26.5C 80.0189,27.6469 76.0189,31.9803 75.5,39.5C 74.325,39.719 73.325,39.3857 72.5,38.5C 70.3515,30.1397 65.1848,26.473 57,27.5C 56.5172,26.552 56.3505,25.552 56.5,24.5C 64.1378,24.1956 68.1378,20.1956 68.5,12.5 Z M 64.5,13.5 C 65.2895,18.4052 62.9561,21.0719 57.5,21.5C 58.4278,17.574 60.7611,14.9073 64.5,13.5 Z M 77.5,13.5 C 82.106,13.9572 84.9393,16.2905 86,20.5C 81.989,20.0234 79.1557,17.6901 77.5,13.5 Z M 17.5,24.5 C 19.3588,24.4609 20.6921,25.2942 21.5,27C 17.8341,29.2997 16.5008,28.4663 17.5,24.5 Z M 57.5,30.5 C 62.7497,29.6599 66.4164,31.9932 68.5,37.5C 66.477,38.041 64.477,37.541 62.5,36C 60.5981,34.2703 58.9314,32.437 57.5,30.5 Z M 82.5,30.5 C 83.552,30.3505 84.552,30.5172 85.5,31C 83.8495,33.8131 81.8495,36.3131 79.5,38.5C 78.3861,37.277 78.2195,35.9437 79,34.5C 80.3756,33.2949 81.5423,31.9616 82.5,30.5 Z M 26.5,71.5 C 26.6621,69.4727 26.4955,67.4727 26,65.5C 21.2233,62.9419 19.3899,58.9419 20.5,53.5C 18.8195,46.3028 21.4861,43.4695 28.5,45C 31.3872,46.7089 32.7205,49.2089 32.5,52.5C 31.347,57.3553 31.347,62.1886 32.5,67C 30.68,68.743 28.68,70.243 26.5,71.5 Z M 46.5,54.5 C 48.483,49.5082 52.1497,47.6749 57.5,49C 63.615,49.6898 67.7816,52.8565 70,58.5C 71.4561,64.0966 71.7894,69.7633 71,75.5C 68.1667,79.6667 64.6667,83.1667 60.5,86C 61.4489,89.3958 63.2822,92.2292 66,94.5C 66.9701,97.8265 65.8034,99.9932 62.5,101C 56.7469,101.851 51.0802,101.517 45.5,100C 44.7069,98.9148 44.0402,97.7481 43.5,96.5C 46.3511,93.7962 47.8511,90.4629 48,86.5C 49.5827,86.507 51.2494,86.1737 53,85.5C 53.5,86.6667 54.3333,87.5 55.5,88C 51.7098,90.1805 51.7098,92.1805 55.5,94C 50.8787,99.2159 52.212,101.383 59.5,100.5C 59.7711,98.1789 59.1045,96.1789 57.5,94.5C 60.1604,91.9575 59.8271,89.7908 56.5,88C 59.266,87.3088 59.9327,85.8088 58.5,83.5C 60.1924,81.6414 61.6924,79.6414 63,77.5C 63.5953,73.2854 64.4287,69.1188 65.5,65C 63.47,53.7569 57.1366,50.2569 46.5,54.5 Z M 90.5,60.5 C 91.7125,61.4971 91.5458,62.4971 90,63.5C 89.5304,62.4232 89.6971,61.4232 90.5,60.5 Z M 26.5,71.5 C 25.3511,74.0408 25.3511,76.5408 26.5,79C 21.293,80.6092 18.293,78.7759 17.5,73.5C 20.7543,73.7931 23.7543,73.1264 26.5,71.5 Z M 30.5,71.5 C 32.3838,72.3816 33.7171,73.8816 34.5,76C 28.7228,78.3902 27.3895,76.8902 30.5,71.5 Z M 12.5,74.5 C 14.2356,77.4002 16.569,79.9002 19.5,82C 25.5613,83.3466 31.0613,82.18 36,78.5C 37.8333,80.3333 39.6667,82.1667 41.5,84C 31.5432,91.4785 21.7099,91.3118 12,83.5C 9.88049,80.3025 10.0472,77.3025 12.5,74.5 Z M 38.5,92.5 C 38.9867,91.5266 39.4867,90.5266 40,89.5C 40.4652,90.9308 41.2986,92.0975 42.5,93C 41.1807,93.195 39.8474,93.0283 38.5,92.5 Z M 74.5,89.5 C 75.8734,89.3433 77.2068,89.51 78.5,90C 76.9238,90.4396 75.5904,91.273 74.5,92.5C 73.913,91.7666 73.913,90.7666 74.5,89.5 Z M 86.5,89.5 C 87.0431,89.56 87.3764,89.8933 87.5,90.5C 86.277,91.6139 84.9437,91.7805 83.5,91C 84.7375,90.7679 85.7375,90.2679 86.5,89.5 Z M 13.5,94.5 C 13.3893,93.8826 13.056,93.3826 12.5,93C 14.433,92.7489 16.2663,92.2489 18,91.5C 19.8259,93.0738 21.9925,93.9071 24.5,94C 22.5743,94.1245 20.741,94.9578 19,96.5C 18.5172,95.552 18.3505,94.552 18.5,93.5C 16.7839,93.6287 15.1172,93.962 13.5,94.5 Z M 38.5,92.5 C 38.6567,93.8734 38.49,95.2068 38,96.5C 37.5831,95.244 36.7498,94.5774 35.5,94.5C 35.4226,93.2502 34.756,92.4169 33.5,92C 35.1966,91.6155 36.8632,91.7822 38.5,92.5 Z M 93.5,92.5 C 92.4381,94.879 91.1048,94.879 89.5,92.5C 90.5575,92.0941 91.8908,92.0941 93.5,92.5 Z M 97.5,99.5 C 99.2062,97.9273 100.373,95.9273 101,93.5C 102.122,96.8716 100.955,98.8716 97.5,99.5 Z M 13.5,94.5 C 13.1077,96.1789 12.6077,97.8455 12,99.5C 11.2825,100.451 10.4491,100.617 9.5,100C 9.99951,97.4788 11.3328,95.6455 13.5,94.5 Z M 35.5,94.5 C 35.719,95.675 35.3857,96.675 34.5,97.5C 33.3347,96.1405 33.668,95.1405 35.5,94.5 Z M 97.5,99.5 C 97.2172,100.289 96.7172,100.956 96,101.5C 95.4719,100.184 95.9719,99.5173 97.5,99.5 Z"/></g>
<g><path style="opacity:0.075" fill="#000000" d="M 22.5,5.5 C 23.8333,6.16667 23.8333,6.16667 22.5,5.5 Z"/></g>
<g><path style="opacity:0.075" fill="#000000" d="M 17.5,8.5 C 18.8333,9.16667 18.8333,9.16667 17.5,8.5 Z"/></g>
<g><path style="opacity:0.723" fill="#000000" d="M 15.5,21.5 C 23.1624,21.0268 25.4957,24.1935 22.5,31C 15.1223,32.4578 12.4556,29.6245 14.5,22.5C 15.1667,22.5 15.5,22.1667 15.5,21.5 Z M 17.5,24.5 C 16.5008,28.4663 17.8341,29.2997 21.5,27C 20.6921,25.2942 19.3588,24.4609 17.5,24.5 Z"/></g>
<g><path style="opacity:0.075" fill="#000000" d="M 6.5,26.5 C 5.42654,25.7494 5.25988,24.7494 6,23.5C 6.48278,24.448 6.64945,25.448 6.5,26.5 Z"/></g>
<g><path style="opacity:0.748" fill="#000000" d="M 85.5,44.5 C 93.4165,43.1257 97.4165,46.459 97.5,54.5C 95.3594,61.9321 91.3594,67.9321 85.5,72.5C 83.3895,71.7877 82.3895,70.2877 82.5,68C 82.8613,65.551 83.528,63.2177 84.5,61C 82.8035,57.982 81.1369,54.982 79.5,52C 79.8864,48.1221 81.8864,45.6221 85.5,44.5 Z M 90.5,60.5 C 89.6971,61.4232 89.5304,62.4232 90,63.5C 91.5458,62.4971 91.7125,61.4971 90.5,60.5 Z"/></g>
<g><path style="opacity:0.075" fill="#000000" d="M 103.5,74.5 C 104.833,75.1667 104.833,75.1667 103.5,74.5 Z"/></g>
</svg>
