<?xml version="1.0" encoding="UTF-8"?>
<svg version="1.1" xmlns="http://www.w3.org/2000/svg" width="110" height="110">
<path d="M0 0 C0.77205276 -0.00191345 1.54410553 -0.0038269 2.33955383 -0.00579834 C3.97271043 -0.00715749 5.60587792 -0.00347987 7.23901367 0.00488281 C9.71233085 0.01551346 12.18490956 0.00501655 14.65820312 -0.0078125 C37.05725532 -0.02822489 37.05725532 -0.02822489 45.05078125 6.265625 C51.24310353 14.25660408 53.36446539 21.89129939 53.24609375 31.8203125 C53.24326385 32.72186066 53.24043396 33.62340881 53.23751831 34.55227661 C53.22637564 37.41519776 53.20128205 40.27779934 53.17578125 43.140625 C53.1657438 45.08853713 53.15661929 47.03645419 53.1484375 48.984375 C53.12645568 53.7449137 53.09196675 58.50521527 53.05078125 63.265625 C52.39078125 62.605625 51.73078125 61.945625 51.05078125 61.265625 C50.78265625 62.0390625 50.51453125 62.8125 50.23828125 63.609375 C47.41101365 71.12395468 44.19039504 76.08580195 38.05078125 81.265625 C38.88222656 81.44738281 39.71367188 81.62914063 40.5703125 81.81640625 C41.65699219 82.06777344 42.74367188 82.31914063 43.86328125 82.578125 C44.94222656 82.82175781 46.02117187 83.06539063 47.1328125 83.31640625 C50.02915482 84.2585899 51.30708447 84.81131206 53.05078125 87.265625 C53.57149258 91.28254094 53.46680158 93.51678841 51.48828125 97.078125 C48.50325165 99.75699772 45.93648491 100.44364923 42.05078125 101.265625 C41.86902344 100.69972656 41.68726562 100.13382812 41.5 99.55078125 C41.24863281 98.81730469 40.99726562 98.08382812 40.73828125 97.328125 C40.49464844 96.59722656 40.25101562 95.86632812 40 95.11328125 C39.13837684 92.90630476 39.13837684 92.90630476 36.05078125 92.265625 C34.71714422 92.12159152 33.37860079 92.01972077 32.0390625 91.94921875 C31.28173828 91.90732422 30.52441406 91.86542969 29.74414062 91.82226562 C28.95845703 91.78294922 28.17277344 91.74363281 27.36328125 91.703125 C26.56599609 91.65994141 25.76871094 91.61675781 24.94726562 91.57226562 C22.98196678 91.46635132 21.01639629 91.36549949 19.05078125 91.265625 C19.08429688 92.05582031 19.1178125 92.84601563 19.15234375 93.66015625 C19.05078125 96.265625 19.05078125 96.265625 17.42578125 97.953125 C11.36290069 101.30366426 5.42257121 102.31715932 -1.3203125 100.6953125 C-5.4734943 99.39957434 -8.49185759 97.92513359 -11.94921875 95.265625 C-12.93921875 95.595625 -13.92921875 95.925625 -14.94921875 96.265625 C-18.45116307 96.39777384 -21.57294868 96.34241481 -25.01171875 95.640625 C-28.60159635 95.18234275 -30.70771477 95.68256492 -33.94921875 97.265625 C-34.91798932 99.29806048 -34.91798932 99.29806048 -34.94921875 101.265625 C-39.12025116 101.02027015 -41.50514823 100.58017495 -44.94921875 98.140625 C-46.94921875 95.265625 -46.94921875 95.265625 -47.13671875 91.640625 C-45.94921875 88.265625 -45.94921875 88.265625 -42.88671875 86.328125 C-41.91734375 85.9775 -40.94796875 85.626875 -39.94921875 85.265625 C-40.50802734 84.39550781 -40.50802734 84.39550781 -41.078125 83.5078125 C-44.94921875 77.11576124 -44.94921875 77.11576124 -44.94921875 72.890625 C-43.9446502 70.25363257 -43.22863302 68.90680327 -40.94921875 67.265625 C-40.28921875 67.265625 -39.62921875 67.265625 -38.94921875 67.265625 C-39.35914063 66.8015625 -39.7690625 66.3375 -40.19140625 65.859375 C-45.84223709 58.61333354 -46.44252232 51.10536641 -46.94921875 42.265625 C-47.03171875 41.01394531 -47.11421875 39.76226562 -47.19921875 38.47265625 C-47.51291598 29.4832701 -46.35065583 22.36479277 -40.51171875 15.328125 C-34.22194602 10.265625 -34.22194602 10.265625 -30.94921875 10.265625 C-30.94921875 9.605625 -30.94921875 8.945625 -30.94921875 8.265625 C-28.70035637 7.76053292 -26.45008006 7.26173321 -24.19921875 6.765625 C-22.94625 6.4871875 -21.69328125 6.20875 -20.40234375 5.921875 C-16.94921875 5.265625 -16.94921875 5.265625 -12.94921875 5.265625 C-12.61921875 4.275625 -12.28921875 3.285625 -11.94921875 2.265625 C-8.3813021 -0.40266258 -4.26105002 -0.02335666 0 0 Z M-10.66870117 6.62426758 C-12.27738861 8.37248138 -12.27738861 8.37248138 -12.19921875 11.703125 C-11.33082478 15.27574967 -11.33082478 15.27574967 -9.0078125 16.64453125 C-4.56727042 18.76645561 -4.56727042 18.76645561 0.2578125 19.06640625 C2.96812131 17.85591974 3.14580711 15.66472594 4.17578125 13.046875 C5.79869261 9.74309117 7.74623384 8.80394879 11.05078125 7.265625 C19.04291137 5.28044982 25.57319853 4.33701641 33.0234375 8.3203125 C36.30443187 10.52503635 37.82107813 12.14659834 38.62890625 16.08203125 C38.86087276 22.70136129 37.82849931 26.88523867 34.05078125 32.265625 C33.55578125 33.750625 33.55578125 33.750625 33.05078125 35.265625 C27.22482889 38.02528664 21.862535 39.53819177 15.546875 37.4296875 C9.28990959 34.65088617 5.86310924 31.51814957 3.05078125 25.265625 C2.72078125 24.275625 2.39078125 23.285625 2.05078125 22.265625 C-1.27697027 21.25114541 -4.46671383 20.452283 -7.94921875 20.265625 C-12.26829851 23.1450115 -13.78024726 26.29749615 -14.94921875 31.265625 C-16.02953874 38.14970784 -16.13263398 44.93017878 -16.13671875 51.890625 C-16.14896484 52.99664062 -16.16121094 54.10265625 -16.17382812 55.2421875 C-16.18749941 62.82519193 -15.85891429 69.04837839 -10.5703125 74.99609375 C-7.42489795 77.4593702 -3.88741838 78.16519732 0.05078125 78.265625 C4.2490713 76.67960432 6.54592571 73.93344918 9.05078125 70.265625 C10.09355474 67.08242172 10.24629098 64.04065391 10.30078125 60.703125 C10.3265625 59.75308594 10.35234375 58.80304687 10.37890625 57.82421875 C10.24874044 55.25282944 10.24874044 55.25282944 8.7890625 53.4453125 C5.61840067 51.29353751 2.79150478 51.96874218 -0.94921875 52.265625 C-1.60921875 52.925625 -2.26921875 53.585625 -2.94921875 54.265625 C-2.62880478 56.86843068 -2.62880478 56.86843068 -1.94921875 59.265625 C-0.99015625 59.4203125 -0.99015625 59.4203125 -0.01171875 59.578125 C0.66890625 59.805 1.34953125 60.031875 2.05078125 60.265625 C2.38078125 61.255625 2.71078125 62.245625 3.05078125 63.265625 C1.61286609 63.12394363 0.17545755 62.97711457 -1.26171875 62.828125 C-2.06222656 62.74691406 -2.86273438 62.66570312 -3.6875 62.58203125 C-5.94921875 62.265625 -5.94921875 62.265625 -8.94921875 61.265625 C-9.03082623 59.37051801 -9.08868334 57.47437996 -9.13671875 55.578125 C-9.17152344 54.52238281 -9.20632812 53.46664062 -9.2421875 52.37890625 C-8.90771835 48.82461406 -8.13361738 47.06852751 -5.94921875 44.265625 C-1.30830256 41.00310058 4.65325131 41.58143106 10.05078125 42.265625 C14.58905479 44.07660538 18.72776042 46.87769676 21.05078125 51.265625 C23.67692223 57.90008642 24.5396544 65.86923541 22.22265625 72.7109375 C20.72177609 75.74629961 18.92943064 78.44765092 17.05078125 81.265625 C21.51109798 82.56655071 24.62158281 81.8911099 29.05078125 80.640625 C30.24703125 80.31835938 31.44328125 79.99609375 32.67578125 79.6640625 C40.34798926 76.4850689 44.66376205 68.98497588 47.80078125 61.578125 C52.53953486 47.95967617 52.74326055 27.92755338 46.859375 14.55859375 C43.15085866 8.86374957 39.54486613 6.24927275 33.05078125 4.265625 C32.47884033 4.0905542 31.90689941 3.9154834 31.31762695 3.73510742 C25.96756818 2.62706617 20.30409552 3.08080388 14.86328125 3.078125 C12.9287207 3.05975586 12.9287207 3.05975586 10.95507812 3.04101562 C-0.42488717 2.58053685 -0.42488717 2.58053685 -10.66870117 6.62426758 Z M17.05078125 8.265625 C16.65890625 9.52375 16.26703125 10.781875 15.86328125 12.078125 C14.72844667 15.1079192 14.21901344 16.13190198 11.61328125 18.203125 C9.41489884 19.11464941 7.38756414 19.83288743 5.05078125 20.265625 C5.38078125 21.255625 5.71078125 22.245625 6.05078125 23.265625 C7.62859375 23.3584375 7.62859375 23.3584375 9.23828125 23.453125 C13.80447913 24.42624914 15.1660767 25.65974431 18.05078125 29.265625 C19.86328125 32.578125 19.86328125 32.578125 21.05078125 35.265625 C22.04078125 35.265625 23.03078125 35.265625 24.05078125 35.265625 C24.29828125 34.193125 24.54578125 33.120625 24.80078125 32.015625 C26.08531196 28.16203288 26.8523216 26.66446974 30.05078125 24.265625 C33.30078125 23.015625 33.30078125 23.015625 36.05078125 22.265625 C36.05078125 21.275625 36.05078125 20.285625 36.05078125 19.265625 C34.19453125 18.9253125 34.19453125 18.9253125 32.30078125 18.578125 C28.09288873 17.52986909 26.37178445 16.01493785 24.05078125 12.265625 C23.34192231 10.95423596 22.65621673 9.62785483 22.05078125 8.265625 C20.40078125 8.265625 18.75078125 8.265625 17.05078125 8.265625 Z M-28.94921875 11.265625 C-36.12320835 15.92329087 -41.71032588 20.51383758 -43.62744141 29.09814453 C-44.15888844 32.67795237 -43.94612562 36.11040855 -43.63671875 39.703125 C-43.57895264 40.44739746 -43.52118652 41.19166992 -43.46166992 41.95849609 C-43.34643175 43.41626692 -43.22629019 44.87366076 -43.10058594 46.33056641 C-42.97590294 47.92449771 -42.91137659 49.52301687 -42.86328125 51.12109375 C-42.63367948 56.25181017 -41.1757242 59.31974669 -37.71484375 62.95703125 C-34.95434287 65.0029777 -32.3093724 65.19842193 -28.94921875 65.265625 C-28.60132114 62.16064783 -28.60132114 62.16064783 -30.88671875 60.265625 C-31.56734375 59.605625 -32.24796875 58.945625 -32.94921875 58.265625 C-35.0921053 51.83696536 -34.6308182 44.46682372 -31.94921875 38.265625 C-26.68996864 37.37422668 -23.89474698 36.99639839 -18.94921875 39.265625 C-18.7790625 38.39679687 -18.60890625 37.52796875 -18.43359375 36.6328125 C-17.10685649 30.32375339 -16.03414522 25.30370098 -11.94921875 20.265625 C-11.61921875 19.605625 -11.28921875 18.945625 -10.94921875 18.265625 C-11.60921875 17.70875 -12.26921875 17.151875 -12.94921875 16.578125 C-14.94921875 14.265625 -14.94921875 14.265625 -15.19921875 11.515625 C-15.11671875 10.773125 -15.03421875 10.030625 -14.94921875 9.265625 C-19.91187784 7.6114053 -24.21229005 9.33873875 -28.94921875 11.265625 Z M26.05078125 9.265625 C26.09034023 11.18871922 26.09034023 11.18871922 27.05078125 13.265625 C30.80469869 15.56992794 30.80469869 15.56992794 35.05078125 16.265625 C33.66277054 12.91126578 32.16449125 11.15272197 29.05078125 9.265625 C28.06078125 9.265625 27.07078125 9.265625 26.05078125 9.265625 Z M13.05078125 9.265625 C10.42176837 10.78768509 8.20712161 12.10928464 6.05078125 14.265625 C6.05078125 15.255625 6.05078125 16.245625 6.05078125 17.265625 C9.17032863 16.92837664 10.67177775 16.6446285 12.92578125 14.390625 C13.29703125 13.689375 13.66828125 12.988125 14.05078125 12.265625 C13.72078125 11.275625 13.39078125 10.285625 13.05078125 9.265625 Z M6.05078125 25.265625 C8.26513953 29.69434157 10.77379161 31.80863095 15.05078125 34.265625 C15.71078125 34.265625 16.37078125 34.265625 17.05078125 34.265625 C15.70575775 29.86372991 13.92335862 27.75513902 10.05078125 25.265625 C8.73078125 25.265625 7.41078125 25.265625 6.05078125 25.265625 Z M28.86328125 28.015625 C26.63256156 30.30325576 26.63256156 30.30325576 27.05078125 34.265625 C30.34226368 33.13063106 31.04676815 32.27279124 32.80078125 29.140625 C33.21328125 28.191875 33.62578125 27.243125 34.05078125 26.265625 C30.97432118 25.95327748 30.97432118 25.95327748 28.86328125 28.015625 Z M-29.94921875 40.265625 C-32.27690642 44.92100033 -31.49623804 51.21304899 -30.94921875 56.265625 C-28.67794541 59.28971864 -28.67794541 59.28971864 -25.94921875 61.265625 C-25.13671875 64.578125 -25.13671875 64.578125 -24.94921875 67.265625 C-22.96921875 66.275625 -20.98921875 65.285625 -18.94921875 64.265625 C-18.83283839 61.01592731 -18.76191294 57.7667667 -18.69921875 54.515625 C-18.66570313 53.59523438 -18.6321875 52.67484375 -18.59765625 51.7265625 C-18.4582855 46.36042838 -18.4582855 46.36042838 -20.73046875 41.640625 C-23.85010351 39.70733022 -26.36008597 39.98953786 -29.94921875 40.265625 Z M-4.94921875 48.265625 C-4.94921875 48.925625 -4.94921875 49.585625 -4.94921875 50.265625 C-3.75296875 50.059375 -2.55671875 49.853125 -1.32421875 49.640625 C2.63727462 49.14982051 5.37375006 49.55537793 9.05078125 51.265625 C11.63056435 53.39566383 12.51839824 54.88850867 12.92578125 58.203125 C13.4083853 64.08124235 12.1279803 69.77588466 10.05078125 75.265625 C9.5196875 75.79414062 8.98859375 76.32265625 8.44140625 76.8671875 C6.58069903 78.40965267 6.58069903 78.40965267 7.05078125 82.265625 C6.39078125 82.925625 5.73078125 83.585625 5.05078125 84.265625 C5.71078125 84.265625 6.37078125 84.265625 7.05078125 84.265625 C6.72078125 86.575625 6.39078125 88.885625 6.05078125 91.265625 C6.71078125 91.265625 7.37078125 91.265625 8.05078125 91.265625 C8.05078125 92.915625 8.05078125 94.565625 8.05078125 96.265625 C6.07078125 95.935625 4.09078125 95.605625 2.05078125 95.265625 C1.72078125 93.945625 1.39078125 92.625625 1.05078125 91.265625 C2.53578125 90.770625 2.53578125 90.770625 4.05078125 90.265625 C3.72078125 89.646875 3.39078125 89.028125 3.05078125 88.390625 C2.05078125 86.265625 2.05078125 86.265625 2.05078125 84.265625 C3.04078125 83.770625 3.04078125 83.770625 4.05078125 83.265625 C3.39078125 83.265625 2.73078125 83.265625 2.05078125 83.265625 C1.72078125 82.605625 1.39078125 81.945625 1.05078125 81.265625 C-1.42421875 81.760625 -1.42421875 81.760625 -3.94921875 82.265625 C-4.23796875 83.338125 -4.52671875 84.410625 -4.82421875 85.515625 C-5.67741984 88.35962864 -6.51286905 90.70071483 -7.94921875 93.265625 C-6.22695379 96.51412477 -6.22695379 96.51412477 -2.94921875 97.265625 C-0.63902539 97.38632769 1.67496865 97.440988 3.98828125 97.453125 C5.21417969 97.46730469 6.44007812 97.48148438 7.703125 97.49609375 C10.80721937 97.28239297 12.46440676 96.90560682 15.05078125 95.265625 C15.44996308 91.77278397 15.2798599 90.56859999 13.11328125 87.703125 C12.43265625 86.89875 11.75203125 86.094375 11.05078125 85.265625 C10.421875 83.11328125 10.421875 83.11328125 10.05078125 81.265625 C10.68886719 80.71132812 11.32695313 80.15703125 11.984375 79.5859375 C12.81066406 78.86148438 13.63695313 78.13703125 14.48828125 77.390625 C15.31199219 76.67132813 16.13570312 75.95203125 16.984375 75.2109375 C19.51321492 72.83029047 19.99885798 71.97058329 20.25390625 68.5078125 C20.47631203 57.88286561 20.47631203 57.88286561 15.68359375 48.66015625 C12.0759314 45.57897094 7.48136127 44.46197912 2.86328125 43.828125 C-0.73037839 44.38713872 -2.40256501 45.71897126 -4.94921875 48.265625 Z M-5.94921875 50.265625 C-4.94921875 52.265625 -4.94921875 52.265625 -4.94921875 52.265625 Z M-6.94921875 52.265625 C-5.94921875 54.265625 -5.94921875 54.265625 -5.94921875 54.265625 Z M-20.94921875 67.265625 C-21.60921875 68.915625 -22.26921875 70.565625 -22.94921875 72.265625 C-20.47421875 72.760625 -20.47421875 72.760625 -17.94921875 73.265625 C-17.61921875 72.605625 -17.28921875 71.945625 -16.94921875 71.265625 C-17.84085452 69.14878659 -17.84085452 69.14878659 -18.94921875 67.265625 C-19.60921875 67.265625 -20.26921875 67.265625 -20.94921875 67.265625 Z M-30.01171875 68.265625 C-31.11193359 68.5440625 -31.11193359 68.5440625 -32.234375 68.828125 C-33.08322266 69.0446875 -33.08322266 69.0446875 -33.94921875 69.265625 C-33.37576938 72.13287186 -33.08776725 73.1270765 -30.94921875 75.265625 C-27.86574049 75.43243609 -27.86574049 75.43243609 -24.94921875 75.265625 C-24.94921875 72.625625 -24.94921875 69.985625 -24.94921875 67.265625 C-26.68749104 67.265625 -28.33425099 67.83960144 -30.01171875 68.265625 Z M-38.94921875 70.265625 C-41.29721136 72.17975669 -41.29721136 72.17975669 -41.19921875 75.515625 C-39.54601997 80.47522134 -37.28380473 81.76154655 -32.76953125 84.16015625 C-26.35348838 86.67503178 -21.04943892 85.97393675 -14.82421875 83.265625 C-13.52321281 82.61737291 -12.22764874 81.95733591 -10.94921875 81.265625 C-10.94921875 80.275625 -10.94921875 79.285625 -10.94921875 78.265625 C-13.38828935 76.06420168 -13.38828935 76.06420168 -15.94921875 74.265625 C-16.73296875 74.760625 -17.51671875 75.255625 -18.32421875 75.765625 C-22.97340864 77.68942771 -26.9781894 78.0500756 -31.94921875 77.265625 C-35.04721856 75.07435684 -35.75273987 73.85506164 -36.94921875 70.265625 C-37.60921875 70.265625 -38.26921875 70.265625 -38.94921875 70.265625 Z M-11.94921875 85.265625 C-12.27921875 86.255625 -12.60921875 87.245625 -12.94921875 88.265625 C-11.62921875 88.595625 -10.30921875 88.925625 -8.94921875 89.265625 C-9.93921875 87.945625 -10.92921875 86.625625 -11.94921875 85.265625 Z M23.05078125 85.265625 C22.72078125 86.255625 22.39078125 87.245625 22.05078125 88.265625 C22.71078125 88.265625 23.37078125 88.265625 24.05078125 88.265625 C24.05078125 87.605625 24.05078125 86.945625 24.05078125 86.265625 C25.04078125 85.935625 26.03078125 85.605625 27.05078125 85.265625 C25.73078125 85.265625 24.41078125 85.265625 23.05078125 85.265625 Z M35.05078125 85.265625 C34.06078125 85.925625 33.07078125 86.585625 32.05078125 87.265625 C33.37078125 87.265625 34.69078125 87.265625 36.05078125 87.265625 C35.72078125 86.605625 35.39078125 85.945625 35.05078125 85.265625 Z M-17.94921875 87.265625 C-16.95921875 87.760625 -16.95921875 87.760625 -15.94921875 88.265625 C-15.94921875 88.925625 -15.94921875 89.585625 -15.94921875 90.265625 C-15.28921875 90.265625 -14.62921875 90.265625 -13.94921875 90.265625 C-13.61921875 90.925625 -13.28921875 91.585625 -12.94921875 92.265625 C-12.94921875 90.945625 -12.94921875 89.625625 -12.94921875 88.265625 C-14.59921875 87.935625 -16.24921875 87.605625 -17.94921875 87.265625 Z M38.05078125 87.265625 C38.05078125 87.925625 38.05078125 88.585625 38.05078125 89.265625 C39.04078125 89.595625 40.03078125 89.925625 41.05078125 90.265625 C41.38078125 89.605625 41.71078125 88.945625 42.05078125 88.265625 C40.73078125 87.935625 39.41078125 87.605625 38.05078125 87.265625 Z M-38.94921875 88.265625 C-38.61921875 88.925625 -38.28921875 89.585625 -37.94921875 90.265625 C-36.29921875 89.935625 -34.64921875 89.605625 -32.94921875 89.265625 C-32.61921875 90.255625 -32.28921875 91.245625 -31.94921875 92.265625 C-30.29921875 91.605625 -28.64921875 90.945625 -26.94921875 90.265625 C-26.94921875 89.935625 -26.94921875 89.605625 -26.94921875 89.265625 C-31.36147612 87.79487254 -34.43203494 86.89678142 -38.94921875 88.265625 Z M-24.94921875 89.265625 C-23.94921875 91.265625 -23.94921875 91.265625 -23.94921875 91.265625 Z M49.05078125 89.265625 C48.72078125 90.255625 48.39078125 91.245625 48.05078125 92.265625 C47.06078125 92.760625 47.06078125 92.760625 46.05078125 93.265625 C46.05078125 93.925625 46.05078125 94.585625 46.05078125 95.265625 C47.37078125 94.605625 48.69078125 93.945625 50.05078125 93.265625 C49.72078125 91.945625 49.39078125 90.625625 49.05078125 89.265625 Z M-16.94921875 90.265625 C-17.27921875 91.255625 -17.60921875 92.245625 -17.94921875 93.265625 C-17.28921875 93.265625 -16.62921875 93.265625 -15.94921875 93.265625 C-16.27921875 92.275625 -16.60921875 91.285625 -16.94921875 90.265625 Z M-40.94921875 91.265625 C-41.60476994 93.79295735 -41.60476994 93.79295735 -41.94921875 96.265625 C-40.95921875 95.935625 -39.96921875 95.605625 -38.94921875 95.265625 C-38.61921875 93.615625 -38.28921875 91.965625 -37.94921875 90.265625 C-39.17282555 90.1910894 -39.17282555 90.1910894 -40.94921875 91.265625 Z M-43.94921875 92.265625 C-42.94921875 94.265625 -42.94921875 94.265625 -42.94921875 94.265625 Z M44.05078125 95.265625 C44.38078125 95.925625 44.71078125 96.585625 45.05078125 97.265625 C45.38078125 96.605625 45.71078125 95.945625 46.05078125 95.265625 C45.39078125 95.265625 44.73078125 95.265625 44.05078125 95.265625 Z " fill="#000000" transform="translate(51.94921875,4.734375)"/>
<path d="M0 0 C3.35005128 2.11582186 3.93035011 3.77944201 5.125 7.5625 C5.71832342 14.60327128 0.590409 20.6143865 -3.125 26.1875 C-5 28 -5 28 -9 28 C-10.13513514 21.56756757 -10.13513514 21.56756757 -9.375 18.375 C-8.85229694 15.06454729 -10.08848114 13.64671842 -12 11 C-12.33 10.67 -12.66 10.34 -13 10 C-12.875 6.625 -12.875 6.625 -12 3 C-8.32077558 -0.35458697 -4.84336889 -0.61642877 0 0 Z M-2 16 C-2 19 -2 19 -2 19 Z M-7 22 C-6 24 -6 24 -6 24 Z " fill="#000000" transform="translate(93,45)"/>
<path d="M0 0 C3.125 0.3125 3.125 0.3125 5.0625 2 C6.39474434 4.89959063 6.09576103 6.31932016 5.125 9.3125 C4.125 10.3125 4.125 10.3125 1.25 10.5625 C-1.875 10.3125 -1.875 10.3125 -3.8125 9.1875 C-5.41443488 6.36055609 -4.67084319 4.36323223 -3.875 1.3125 C-2.875 0.3125 -2.875 0.3125 0 0 Z M-0.875 3.3125 C-0.875 4.6325 -0.875 5.9525 -0.875 7.3125 C0.445 6.9825 1.765 6.6525 3.125 6.3125 C2.795 5.3225 2.465 4.3325 2.125 3.3125 C1.135 3.3125 0.145 3.3125 -0.875 3.3125 Z " fill="#000000" transform="translate(18.875,21.6875)"/>
<path d="" fill="#000000" transform="translate(0,0)"/>
<path d="" fill="#000000" transform="translate(0,0)"/>
<path d="" fill="#000000" transform="translate(0,0)"/>
<path d="" fill="#000000" transform="translate(0,0)"/>
</svg>
