<?xml version="1.0" encoding="UTF-8"?>
<!DOCTYPE svg PUBLIC "-//W3C//DTD SVG 1.1//EN" "http://www.w3.org/Graphics/SVG/1.1/DTD/svg11.dtd">
<svg xmlns="http://www.w3.org/2000/svg" version="1.1" width="110px" height="110px" style="shape-rendering:geometricPrecision; text-rendering:geometricPrecision; image-rendering:optimizeQuality; fill-rule:evenodd; clip-rule:evenodd" xmlns:xlink="http://www.w3.org/1999/xlink">
<g><path style="opacity:0.767" fill="#000000" d="M 18.5,4.5 C 22.8816,5.29376 27.2149,5.29376 31.5,4.5C 34.3405,6.08641 37.0072,7.91974 39.5,10C 48.1729,11.9564 56.8396,11.9564 65.5,10C 67.7683,7.03219 70.7683,5.36552 74.5,5C 80.8333,4.33333 87.1667,4.33333 93.5,5C 102.916,8.6628 106.416,15.4961 104,25.5C 100.657,29.3768 96.4908,31.8768 91.5,33C 96.8991,37.7459 100.732,43.5793 103,50.5C 104.562,60.4394 104.895,70.4394 104,80.5C 99.882,93.2917 91.382,101.125 78.5,104C 61.455,104.927 44.455,104.593 27.5,103C 19.6858,100.688 13.1858,96.5217 8,90.5C 6.58859,88.3496 5.75526,86.0163 5.5,83.5C 10.696,83.4351 10.696,82.7684 5.5,81.5C 4.09563,78.5967 4.42897,75.9301 6.5,73.5C 4.65541,71.4636 4.15541,69.1303 5,66.5C 6.80629,64.6937 8.63962,62.8604 10.5,61C 5.96199,59.2871 4.46199,56.1205 6,51.5C 7.03329,48.9673 8.86663,47.3006 11.5,46.5C 13.639,41.7253 16.639,37.5587 20.5,34C 7.84651,33.354 2.67984,26.854 5,14.5C 8.04922,9.07273 12.5492,5.7394 18.5,4.5 Z M 100.5,15.5 C 94.4577,12.7447 88.1244,11.9114 81.5,13C 79.3985,14.7328 79.0652,16.7328 80.5,19C 86.4356,20.1979 91.9356,22.3646 97,25.5C 97.5908,26.4835 97.2575,27.1501 96,27.5C 85.8124,30.5723 76.4791,28.5723 68,21.5C 65.0236,15.7098 66.5236,11.5431 72.5,9C 79.8473,7.04261 87.1807,7.04261 94.5,9C 97.3034,10.4514 99.3034,12.6181 100.5,15.5 Z M 17.5,8.5 C 23.7316,7.93864 29.7316,8.77197 35.5,11C 39.771,14.7954 40.9377,19.2954 39,24.5C 30.4373,30.5802 21.2707,31.7469 11.5,28C 10.273,26.4126 10.6063,25.0793 12.5,24C 16.6827,22.2039 21.016,20.8706 25.5,20C 28.9931,18.5219 29.3264,16.5219 26.5,14C 24.8333,13.8333 23.1667,13.6667 21.5,13.5C 16.5461,13.9937 11.8795,15.1604 7.5,17C 9.82467,12.8315 13.158,9.99817 17.5,8.5 Z M 41.5,13.5 C 47.5453,13.4283 53.5453,13.9283 59.5,15C 56.5,15.1667 53.5,15.3333 50.5,15.5C 47.0866,15.483 44.0866,14.8164 41.5,13.5 Z M 83.5,16.5 C 89.6231,14.8369 95.4564,15.8369 101,19.5C 101.774,21.403 101.44,23.0696 100,24.5C 95.4931,19.8301 89.9931,17.1635 83.5,16.5 Z M 14.5,17.5 C 15.552,17.3505 16.552,17.5172 17.5,18C 13.7257,19.3019 10.559,21.4686 8,24.5C 7.33333,23.1667 7.33333,21.8333 8,20.5C 10.294,19.5783 12.4606,18.5783 14.5,17.5 Z M 62.5,17.5 C 63.0431,17.56 63.3764,17.8933 63.5,18.5C 60.5541,19.6548 57.5541,19.8214 54.5,19C 57.3647,18.8171 60.0314,18.3171 62.5,17.5 Z M 43.5,18.5 C 51.1755,18.4561 51.3422,19.1228 44,20.5C 43.5357,19.9056 43.369,19.2389 43.5,18.5 Z M 43.5,22.5 C 50.5079,22.3337 57.5079,22.5004 64.5,23C 65.5,24 66.5,25 67.5,26C 59.7986,26.0659 52.1319,26.2326 44.5,26.5C 43.5,26.3333 42.5,26.1667 41.5,26C 42.305,24.8873 42.9717,23.7206 43.5,22.5 Z M 65.5,31.5 C 61.6822,35.795 58.3489,40.4617 55.5,45.5C 52.6409,37.8079 47.3075,32.6412 39.5,30C 42.2441,30.0192 44.9107,30.6859 47.5,32C 50.9075,34.3689 53.7409,37.2022 56,40.5C 57.9459,38.1194 59.7792,35.6194 61.5,33C 62.745,32.2086 64.0783,31.7086 65.5,31.5 Z M 49.5,30.5 C 52.9758,29.3567 56.6425,29.1901 60.5,30C 58.6217,31.5429 57.1217,33.3762 56,35.5C 54.2228,33.2101 52.0562,31.5434 49.5,30.5 Z M 100.5,68.5 C 100.62,70.1986 100.954,71.8653 101.5,73.5C 101.182,74.6473 100.516,75.4806 99.5,76C 100.476,78.1469 100.309,80.3136 99,82.5C 93.8403,94.665 84.6736,100.832 71.5,101C 72.5536,99.6124 72.7203,98.1124 72,96.5C 69.2595,95.7178 66.4262,95.2178 63.5,95C 65.9515,92.0387 65.2848,89.872 61.5,88.5C 58.2153,89.0278 54.882,89.1945 51.5,89C 49.7516,90.8701 47.5849,92.0368 45,92.5C 44.51,93.7932 44.3433,95.1266 44.5,96.5C 41.101,96.5495 39.7677,98.0495 40.5,101C 30.8701,101.426 22.2034,98.7598 14.5,93C 12.2589,91.2609 10.5922,89.0942 9.5,86.5C 11.4121,86.5123 13.4121,86.179 15.5,85.5C 19.7793,86.274 24.1126,86.774 28.5,87C 31.9727,87.3194 34.806,88.8194 37,91.5C 39.8757,89.537 40.2091,87.2036 38,84.5C 35.7487,82.6227 33.2487,81.1227 30.5,80C 22.8167,78.7539 15.15,78.5872 7.5,79.5C 7.39297,77.0968 8.39297,75.2635 10.5,74C 15.1834,73.4344 19.8501,73.6011 24.5,74.5C 29.5612,74.6066 32.2279,72.1066 32.5,67C 31.1084,63.6189 28.7751,62.7855 25.5,64.5C 26.7515,65.6311 27.7515,66.9644 28.5,68.5C 28.5658,70.2664 27.7324,71.2664 26,71.5C 19.9549,70.8741 13.9549,70.2075 8,69.5C 7.33333,68.8333 7.33333,68.1667 8,67.5C 15.1993,62.4162 18.6993,55.4162 18.5,46.5C 17.1266,46.6567 15.7932,46.49 14.5,46C 17.4156,41.0801 21.0823,36.7467 25.5,33C 41.5435,29.8556 50.8768,36.3556 53.5,52.5C 54.8333,52.5 56.1667,52.5 57.5,52.5C 62.7528,31.5296 74.4194,26.6962 92.5,38C 99.8092,47.0896 102.476,57.2563 100.5,68.5 Z M 81.5,41.5 C 89.3848,42.2166 93.8848,46.5499 95,54.5C 97.94,63.3648 96.7733,71.5315 91.5,79C 86.7767,79.6238 82.11,79.2905 77.5,78C 75.6969,77.3632 74.3636,76.1965 73.5,74.5C 76.086,72.9574 78.586,71.2907 81,69.5C 86.5923,71.948 90.259,70.2813 92,64.5C 93.0932,57.7341 90.7599,52.7341 85,49.5C 83.108,50.13 81.4413,51.13 80,52.5C 78.7337,55.4662 77.5671,58.4662 76.5,61.5C 74.8333,62.1667 73.1667,62.8333 71.5,63.5C 70.0249,53.9066 73.3583,46.5733 81.5,41.5 Z M 27.5,46.5 C 32.1405,45.736 36.1405,46.9026 39.5,50C 33.8777,48.9577 28.3777,49.4577 23,51.5C 22.3333,50.8333 22.3333,50.1667 23,49.5C 24.4087,48.2189 25.9087,47.2189 27.5,46.5 Z M 10.5,49.5 C 15.5051,49.443 15.6718,50.1097 11,51.5C 9.31643,51.3166 9.14976,50.6499 10.5,49.5 Z M 27.5,52.5 C 31.2148,52.423 34.8815,52.7564 38.5,53.5C 37.1389,57.277 34.3056,58.9437 30,58.5C 21.6346,58.0922 20.8013,56.0922 27.5,52.5 Z M 8.5,54.5 C 10.1667,54.5 11.8333,54.5 13.5,54.5C 13.5,55.5 13.5,56.5 13.5,57.5C 10.715,58.0838 9.0483,57.0838 8.5,54.5 Z M 82.5,54.5 C 86.6307,54.5068 88.9641,56.6735 89.5,61C 88.7547,67.1422 85.9214,68.6422 81,65.5C 80.1122,61.5979 80.6122,57.9312 82.5,54.5 Z M 75.5,64.5 C 78.4873,65.5973 78.8206,67.0973 76.5,69C 70.4772,72.3769 64.1439,73.8769 57.5,73.5C 63.5608,70.4696 69.5608,67.4696 75.5,64.5 Z M 49.5,67.5 C 51.1439,67.2865 52.6439,67.6198 54,68.5C 56.8418,78.3126 53.3418,82.4793 43.5,81C 40.1449,74.2052 42.1449,69.7052 49.5,67.5 Z M 53.5,91.5 C 56.0009,91.5109 56.1676,92.1776 54,93.5C 53.5357,92.9056 53.369,92.2389 53.5,91.5 Z M 50.5,97.5 C 51.5426,95.1481 52.8759,94.9815 54.5,97C 53.2068,97.49 51.8734,97.6567 50.5,97.5 Z M 58.5,96.5 C 60.3464,96.2222 61.6798,96.8888 62.5,98.5C 60.8333,99.8333 59.1667,99.8333 57.5,98.5C 57.8627,97.8165 58.1961,97.1499 58.5,96.5 Z M 44.5,98.5 C 45.3764,98.3691 46.0431,98.7025 46.5,99.5C 44.1916,100.873 43.5249,100.54 44.5,98.5 Z"/></g>
<g><path style="opacity:0.756" fill="#000000" d="M 100.5,68.5 C 98.9284,72.0264 97.4284,75.693 96,79.5C 89.5047,82.9688 82.6713,83.4688 75.5,81C 72.3787,79.8603 69.8787,78.027 68,75.5C 64.5425,76.6593 61.0425,77.6593 57.5,78.5C 53.5389,85.946 47.8722,87.446 40.5,83C 35.8301,76.0503 37.1634,70.3836 44.5,66C 50.0789,63.2962 54.9122,64.1295 59,68.5C 61.5669,67.73 64.0669,66.73 66.5,65.5C 66.3464,55.8293 69.6798,47.6627 76.5,41C 83.6207,36.9706 89.7874,38.1372 95,44.5C 98.0964,52.2183 99.9297,60.2183 100.5,68.5 Z M 81.5,41.5 C 73.3583,46.5733 70.0249,53.9066 71.5,63.5C 73.1667,62.8333 74.8333,62.1667 76.5,61.5C 77.5671,58.4662 78.7337,55.4662 80,52.5C 81.4413,51.13 83.108,50.13 85,49.5C 90.7599,52.7341 93.0932,57.7341 92,64.5C 90.259,70.2813 86.5923,71.948 81,69.5C 78.586,71.2907 76.086,72.9574 73.5,74.5C 74.3636,76.1965 75.6969,77.3632 77.5,78C 82.11,79.2905 86.7767,79.6238 91.5,79C 96.7733,71.5315 97.94,63.3648 95,54.5C 93.8848,46.5499 89.3848,42.2166 81.5,41.5 Z M 82.5,54.5 C 80.6122,57.9312 80.1122,61.5979 81,65.5C 85.9214,68.6422 88.7547,67.1422 89.5,61C 88.9641,56.6735 86.6307,54.5068 82.5,54.5 Z M 75.5,64.5 C 69.5608,67.4696 63.5608,70.4696 57.5,73.5C 64.1439,73.8769 70.4772,72.3769 76.5,69C 78.8206,67.0973 78.4873,65.5973 75.5,64.5 Z M 49.5,67.5 C 42.1449,69.7052 40.1449,74.2052 43.5,81C 53.3418,82.4793 56.8418,78.3126 54,68.5C 52.6439,67.6198 51.1439,67.2865 49.5,67.5 Z"/></g>
<g><path style="opacity:0.771" fill="#000000" d="M 28.5,42.5 C 31.5219,42.804 34.5219,43.304 37.5,44C 42.0685,46.5414 43.5685,50.3747 42,55.5C 41.2261,57.9393 39.7261,59.7727 37.5,61C 31.2939,62.2452 25.4605,61.4119 20,58.5C 17.4941,50.203 20.3274,44.8697 28.5,42.5 Z M 27.5,46.5 C 25.9087,47.2189 24.4087,48.2189 23,49.5C 22.3333,50.1667 22.3333,50.8333 23,51.5C 28.3777,49.4577 33.8777,48.9577 39.5,50C 36.1405,46.9026 32.1405,45.736 27.5,46.5 Z M 27.5,52.5 C 20.8013,56.0922 21.6346,58.0922 30,58.5C 34.3056,58.9437 37.1389,57.277 38.5,53.5C 34.8815,52.7564 31.2148,52.423 27.5,52.5 Z"/></g>
</svg>
