<?xml version="1.0" encoding="UTF-8"?>
<svg version="1.1" xmlns="http://www.w3.org/2000/svg" width="110" height="110">
<path d="M0 0 C1.62697913 1.25012873 3.19377159 2.57754123 4.75390625 3.91015625 C9.24181389 4.98054802 13.65301104 5.07427772 18.25390625 5.09765625 C20.1565625 5.11892578 20.1565625 5.11892578 22.09765625 5.140625 C27.72549265 4.7858789 31.35113225 3.28561632 35.75390625 -0.08984375 C40.13581772 -1.45286073 44.51646638 -1.35004559 49.06640625 -1.40234375 C49.89591797 -1.43134766 50.72542969 -1.46035156 51.58007812 -1.49023438 C57.51901777 -1.55117061 60.87949073 -0.51443312 65.75390625 2.91015625 C69.24497425 6.58025338 70.06449246 9.54044948 70.31640625 14.47265625 C70.15860232 18.34411255 69.91128514 19.67647245 67.69140625 22.97265625 C64.30368143 25.20711305 61.69845819 26.05937054 57.75390625 26.91015625 C58.15222656 27.44125 58.55054687 27.97234375 58.9609375 28.51953125 C60.55859375 30.64973958 62.15625 32.77994792 63.75390625 34.91015625 C64.49495605 35.82885498 64.49495605 35.82885498 65.25097656 36.76611328 C72.45121235 47.03779467 70.95663568 63.08430428 69.75390625 74.91015625 C68.0046983 83.17782642 62.22106999 89.74161977 55.75390625 94.91015625 C48.74840553 99.2535667 41.45041695 99.07728961 33.45703125 99.11328125 C32.4682196 99.11898132 31.47940796 99.1246814 30.46063232 99.1305542 C28.37285421 99.13997547 26.28506142 99.14652672 24.19726562 99.15039062 C21.02837734 99.16008141 17.86014219 99.19112654 14.69140625 99.22265625 C12.65495173 99.22918887 10.61849262 99.23443832 8.58203125 99.23828125 C7.17839325 99.25680145 7.17839325 99.25680145 5.74639893 99.2756958 C-4.75840534 99.24069936 -14.69430643 96.11020206 -23.24609375 89.91015625 C-25.77138402 87.15529414 -27.89597737 84.41281666 -29.24609375 80.91015625 C-28.88671875 78.63671875 -28.88671875 78.63671875 -28.24609375 76.91015625 C-28.90609375 76.58015625 -29.56609375 76.25015625 -30.24609375 75.91015625 C-30.49609375 70.28515625 -30.49609375 70.28515625 -28.24609375 66.91015625 C-28.90609375 66.91015625 -29.56609375 66.91015625 -30.24609375 66.91015625 C-30.59947998 63.9417119 -30.78786195 61.75417407 -29.1328125 59.17578125 C-27.89106207 57.70666806 -26.57271457 56.30310811 -25.24609375 54.91015625 C-25.90609375 54.53890625 -26.56609375 54.16765625 -27.24609375 53.78515625 C-29.24609375 51.91015625 -29.24609375 51.91015625 -29.80859375 49.03515625 C-29.07220354 44.94409951 -27.42882835 43.48665569 -24.24609375 40.91015625 C-23.58609375 40.91015625 -22.92609375 40.91015625 -22.24609375 40.91015625 C-22.16359375 40.37390625 -22.08109375 39.83765625 -21.99609375 39.28515625 C-20.70835573 35.2073192 -18.24949371 31.91355621 -15.24609375 28.91015625 C-16.24189453 28.68972656 -16.24189453 28.68972656 -17.2578125 28.46484375 C-25.39099007 26.39889792 -25.39099007 26.39889792 -28.37109375 23.41015625 C-31.00934617 18.4854184 -31.34897526 14.37695741 -30.24609375 8.91015625 C-28.14810572 4.69129305 -24.98935141 1.9571108 -20.74609375 -0.02734375 C-14.48844293 -1.94442753 -6.00277667 -2.91265164 0 0 Z M34.75390625 4.91015625 C34.09390625 5.30203125 33.43390625 5.69390625 32.75390625 6.09765625 C31.30230294 8.72868725 31.62757742 11.082665 32.10546875 13.9765625 C33.13444487 17.04489491 35.07190717 18.2498711 37.75390625 19.91015625 C38.74390625 20.57015625 39.73390625 21.23015625 40.75390625 21.91015625 C48.41700762 24.02710348 55.15672109 24.4425513 62.75390625 21.91015625 C62.09321381 18.84622095 62.09321381 18.84622095 59.93359375 17.8125 C55.25491677 15.85379964 50.67081511 14.16553724 45.75390625 12.91015625 C46.08390625 11.26015625 46.41390625 9.61015625 46.75390625 7.91015625 C53.45909211 7.71197342 59.40567423 7.60170824 65.75390625 9.91015625 C63.17592725 5.51804388 61.66182677 3.34645477 56.75390625 1.91015625 C49.13275348 1.25957004 41.44509774 0.80419784 34.75390625 4.91015625 Z M-25.62109375 8.59765625 C-26.15734375 9.36078125 -26.69359375 10.12390625 -27.24609375 10.91015625 C-26.25609375 11.40515625 -26.25609375 11.40515625 -25.24609375 11.91015625 C-24.25609375 11.43578125 -23.26609375 10.96140625 -22.24609375 10.47265625 C-17.66200694 8.34052285 -13.20427118 8.64079852 -8.24609375 8.91015625 C-7.91609375 10.23015625 -7.58609375 11.55015625 -7.24609375 12.91015625 C-8.83550781 13.38195312 -8.83550781 13.38195312 -10.45703125 13.86328125 C-11.84530167 14.29477071 -13.23330919 14.72710669 -14.62109375 15.16015625 C-15.31976563 15.36511719 -16.0184375 15.57007813 -16.73828125 15.78125 C-20.84756164 17.04679369 -20.84756164 17.04679369 -23.72265625 20.08203125 C-23.89539063 20.6853125 -24.068125 21.28859375 -24.24609375 21.91015625 C-19.47443835 25.09125985 -14.9139275 25.35998433 -9.24609375 24.91015625 C-1.65684426 23.20442533 -1.65684426 23.20442533 4.6171875 18.984375 C6.41801166 15.69833504 5.68510593 13.44871503 4.75390625 9.91015625 C2.25613245 5.89587693 0.20237314 4.33215557 -4.24609375 2.91015625 C-12.64190268 2.10104826 -19.73763042 1.94005301 -25.62109375 8.59765625 Z M6.75390625 7.91015625 C6.75390625 8.57015625 6.75390625 9.23015625 6.75390625 9.91015625 C12.69390625 9.91015625 18.63390625 9.91015625 24.75390625 9.91015625 C24.75390625 9.58015625 24.75390625 9.25015625 24.75390625 8.91015625 C18.72794052 7.83887345 12.86481108 7.8107021 6.75390625 7.91015625 Z M48.75390625 9.91015625 C51.2461487 11.57165121 53.40091609 12.68849319 56.12890625 13.84765625 C59.50473596 15.31804211 62.65227621 16.90910461 65.75390625 18.91015625 C66.08390625 17.26015625 66.41390625 15.61015625 66.75390625 13.91015625 C60.46937419 10.5821771 55.8673189 9.458511 48.75390625 9.91015625 Z M-16.24609375 10.91015625 C-16.24609375 11.24015625 -16.24609375 11.57015625 -16.24609375 11.91015625 C-14.26609375 11.91015625 -12.28609375 11.91015625 -10.24609375 11.91015625 C-10.24609375 11.58015625 -10.24609375 11.25015625 -10.24609375 10.91015625 C-12.22609375 10.91015625 -14.20609375 10.91015625 -16.24609375 10.91015625 Z M-27.24609375 14.91015625 C-26.91609375 16.23015625 -26.58609375 17.55015625 -26.24609375 18.91015625 C-25.50359375 18.31203125 -24.76109375 17.71390625 -23.99609375 17.09765625 C-21.77191611 15.32842403 -19.5294714 13.6015471 -17.24609375 11.91015625 C-21.11305053 11.91015625 -23.75493895 13.32925596 -27.24609375 14.91015625 Z M8.75390625 12.91015625 C9.08390625 13.57015625 9.41390625 14.23015625 9.75390625 14.91015625 C11.40390625 14.58015625 13.05390625 14.25015625 14.75390625 13.91015625 C14.75390625 13.58015625 14.75390625 13.25015625 14.75390625 12.91015625 C12.77390625 12.91015625 10.79390625 12.91015625 8.75390625 12.91015625 Z M27.75390625 11.91015625 C25.11390625 12.24015625 22.47390625 12.57015625 19.75390625 12.91015625 C19.75390625 13.24015625 19.75390625 13.57015625 19.75390625 13.91015625 C22.72390625 13.91015625 25.69390625 13.91015625 28.75390625 13.91015625 C28.42390625 13.25015625 28.09390625 12.59015625 27.75390625 11.91015625 Z M8.75390625 16.91015625 C8.09390625 18.23015625 7.43390625 19.55015625 6.75390625 20.91015625 C15.33390625 20.91015625 23.91390625 20.91015625 32.75390625 20.91015625 C30.33969454 16.76529615 30.33969454 16.76529615 27.4855957 16.45605469 C26.18948364 16.48747559 26.18948364 16.48747559 24.8671875 16.51953125 C23.92939453 16.53242188 22.99160156 16.5453125 22.02539062 16.55859375 C21.04892578 16.59210937 20.07246094 16.625625 19.06640625 16.66015625 C18.07833984 16.67820312 17.09027344 16.69625 16.07226562 16.71484375 C13.63183783 16.76200178 11.19335856 16.82779583 8.75390625 16.91015625 Z M4.75390625 23.91015625 C6.73526716 25.41723166 8.71857557 26.88655725 10.7890625 28.26953125 C15.71817717 31.65058101 17.92699701 34.20106487 19.75390625 39.91015625 C20.41390625 39.91015625 21.07390625 39.91015625 21.75390625 39.91015625 C22.0684375 39.31847656 22.38296875 38.72679687 22.70703125 38.1171875 C25.08655249 33.72367389 27.45428672 29.6986083 30.75390625 25.91015625 C27.43861352 26.89578382 26.00441246 27.56463044 23.94140625 30.41015625 C22.61088731 32.74996563 22.61088731 32.74996563 22.75390625 34.91015625 C19.75390625 33.91015625 19.75390625 33.91015625 18.06640625 31.09765625 C15.22554291 27.18187165 12.27916388 25.48981497 7.75390625 23.91015625 C6.76390625 23.91015625 5.77390625 23.91015625 4.75390625 23.91015625 Z M14.75390625 23.91015625 C17.92930181 27.33594574 17.92930181 27.33594574 21.75390625 29.91015625 C23.07390625 27.93015625 24.39390625 25.95015625 25.75390625 23.91015625 C22.12390625 23.91015625 18.49390625 23.91015625 14.75390625 23.91015625 Z M-18.24609375 36.91015625 C-18.94985026 38.22429057 -19.62969033 39.55285413 -20.24609375 40.91015625 C-18.92609375 40.91015625 -17.60609375 40.91015625 -16.24609375 40.91015625 C-16.89111291 43.18122371 -17.53707628 45.45201532 -18.18359375 47.72265625 C-18.54324219 48.98722656 -18.90289062 50.25179687 -19.2734375 51.5546875 C-19.89100636 53.68517607 -20.54464006 55.80579517 -21.24609375 57.91015625 C-21.88546875 58.21953125 -22.52484375 58.52890625 -23.18359375 58.84765625 C-25.7007829 60.14439005 -26.21496323 61.33232995 -27.24609375 63.91015625 C-25.69659107 65.45965893 -24.14618781 65.12670818 -21.9921875 65.2265625 C-21.13818359 65.26845703 -20.28417969 65.31035156 -19.40429688 65.35351562 C-18.50646484 65.39283203 -17.60863281 65.43214844 -16.68359375 65.47265625 C-15.78189453 65.51583984 -14.88019531 65.55902344 -13.95117188 65.60351562 C-11.7163089 65.70993767 -9.48133067 65.81195613 -7.24609375 65.91015625 C-6.61400875 63.50023398 -6.61400875 63.50023398 -6.24609375 60.91015625 C-7.5798795 59.07467635 -7.5798795 59.07467635 -9.24609375 57.91015625 C-7.59609375 58.24015625 -5.94609375 58.57015625 -4.24609375 58.91015625 C-3.08668337 62.3883874 -3.53788491 64.36911203 -4.24609375 67.91015625 C-4.83624268 67.8944458 -5.4263916 67.87873535 -6.03442383 67.86254883 C-8.70904961 67.80017686 -11.38352239 67.76115968 -14.05859375 67.72265625 C-15.45174805 67.68495117 -15.45174805 67.68495117 -16.87304688 67.64648438 C-17.76572266 67.63681641 -18.65839844 67.62714844 -19.578125 67.6171875 C-20.81139526 67.59362183 -20.81139526 67.59362183 -22.06958008 67.56958008 C-24.3188499 67.74873511 -24.3188499 67.74873511 -26.0378418 69.2409668 C-27.53927361 70.97174856 -27.53927361 70.97174856 -27.24609375 73.91015625 C-26.13814453 73.89275391 -26.13814453 73.89275391 -25.0078125 73.875 C-3.91957738 73.68742993 -3.91957738 73.68742993 2.75390625 78.91015625 C3.69140625 81.66015625 3.69140625 81.66015625 3.75390625 83.91015625 C0.75390625 83.91015625 0.75390625 83.91015625 -2.3125 82.453125 C-6.8474625 80.42366664 -11.27573362 80.35328371 -16.18359375 80.22265625 C-17.05822266 80.18849609 -17.93285156 80.15433594 -18.83398438 80.11914062 C-20.97092629 80.03739968 -23.10848593 79.97208495 -25.24609375 79.91015625 C-23.01658122 86.15070768 -19.05574987 89.0762839 -13.37109375 92.09765625 C-7.04701463 95.0729849 -1.20595038 96.20015028 5.75390625 95.91015625 C5.85703125 95.27078125 5.96015625 94.63140625 6.06640625 93.97265625 C6.29328125 93.29203125 6.52015625 92.61140625 6.75390625 91.91015625 C7.74390625 91.58015625 8.73390625 91.25015625 9.75390625 90.91015625 C10.48714421 88.89507267 10.48714421 88.89507267 10.75390625 86.91015625 C11.55828125 86.78640625 12.36265625 86.66265625 13.19140625 86.53515625 C14.03703125 86.32890625 14.88265625 86.12265625 15.75390625 85.91015625 C16.24890625 84.92015625 16.24890625 84.92015625 16.75390625 83.91015625 C20.71390625 83.91015625 24.67390625 83.91015625 28.75390625 83.91015625 C29.75390625 87.91015625 29.75390625 87.91015625 28.75390625 89.91015625 C31.39390625 90.24015625 34.03390625 90.57015625 36.75390625 90.91015625 C36.75390625 92.56015625 36.75390625 94.21015625 36.75390625 95.91015625 C45.12624762 95.16262577 52.95510677 93.50824971 58.75390625 86.91015625 C64.40666573 78.94490426 67.14522555 71.57732024 67.06640625 61.72265625 C67.0607666 60.98015625 67.05512695 60.23765625 67.04931641 59.47265625 C66.82918115 49.37694838 65.03249599 39.39544022 57.75390625 31.91015625 C52.2868326 27.81620808 46.70403705 24.90380681 39.74609375 25.4609375 C33.55336259 26.85733766 29.28479495 31.92108343 25.75390625 36.91015625 C23.93741851 40.22337545 22.75390625 43.06877419 22.75390625 46.91015625 C21.43390625 46.91015625 20.11390625 46.91015625 18.75390625 46.91015625 C18.67914063 46.35328125 18.604375 45.79640625 18.52734375 45.22265625 C17.45232353 38.98332322 15.50342643 34.23056167 10.75390625 29.91015625 C-1.71685525 22.61671254 -9.99502036 26.08192139 -18.24609375 36.91015625 Z M-24.24609375 43.91015625 C-24.57609375 44.57015625 -24.90609375 45.23015625 -25.24609375 45.91015625 C-23.59609375 45.58015625 -21.94609375 45.25015625 -20.24609375 44.91015625 C-21.56609375 44.58015625 -22.88609375 44.25015625 -24.24609375 43.91015625 Z M-26.24609375 48.91015625 C-25.91609375 49.90015625 -25.58609375 50.89015625 -25.24609375 51.91015625 C-23.92609375 51.91015625 -22.60609375 51.91015625 -21.24609375 51.91015625 C-21.24609375 50.92015625 -21.24609375 49.93015625 -21.24609375 48.91015625 C-22.89609375 48.91015625 -24.54609375 48.91015625 -26.24609375 48.91015625 Z M-23.24609375 75.91015625 C-23.24609375 76.24015625 -23.24609375 76.57015625 -23.24609375 76.91015625 C-20.93609375 76.91015625 -18.62609375 76.91015625 -16.24609375 76.91015625 C-16.24609375 76.58015625 -16.24609375 76.25015625 -16.24609375 75.91015625 C-18.55609375 75.91015625 -20.86609375 75.91015625 -23.24609375 75.91015625 Z M-11.24609375 76.91015625 C-7.24609375 77.91015625 -7.24609375 77.91015625 -7.24609375 77.91015625 Z M18.75390625 85.91015625 C19.08390625 86.57015625 19.41390625 87.23015625 19.75390625 87.91015625 C20.08390625 87.25015625 20.41390625 86.59015625 20.75390625 85.91015625 C20.09390625 85.91015625 19.43390625 85.91015625 18.75390625 85.91015625 Z M16.75390625 89.91015625 C16.42390625 90.57015625 16.09390625 91.23015625 15.75390625 91.91015625 C17.07390625 91.58015625 18.39390625 91.25015625 19.75390625 90.91015625 C18.76390625 90.58015625 17.77390625 90.25015625 16.75390625 89.91015625 Z M23.75390625 90.91015625 C23.42390625 91.90015625 23.09390625 92.89015625 22.75390625 93.91015625 C24.40390625 93.91015625 26.05390625 93.91015625 27.75390625 93.91015625 C27.42390625 92.92015625 27.09390625 91.93015625 26.75390625 90.91015625 C25.76390625 90.91015625 24.77390625 90.91015625 23.75390625 90.91015625 Z M9.75390625 92.91015625 C9.42390625 93.57015625 9.09390625 94.23015625 8.75390625 94.91015625 C9.74390625 94.91015625 10.73390625 94.91015625 11.75390625 94.91015625 C11.75390625 94.25015625 11.75390625 93.59015625 11.75390625 92.91015625 C11.09390625 92.91015625 10.43390625 92.91015625 9.75390625 92.91015625 Z " fill="#000000" transform="translate(35.24609375,6.08984375)"/>
<path d="M0 0 C3.56981796 1.28459358 5.69301836 2.98837543 8 6 C12.28866423 15.40610408 14.8617966 25.93926162 11.1875 35.875 C10.85105469 36.82117188 10.51460937 37.76734375 10.16796875 38.7421875 C9 41 9 41 6 42 C6 42.66 6 43.32 6 44 C-9.11809191 44.57329843 -9.11809191 44.57329843 -16 41 C-16.66 40.01 -17.32 39.02 -18 38 C-23.94 38.495 -23.94 38.495 -30 39 C-30.99 41.475 -30.99 41.475 -32 44 C-33.5625 45.875 -33.5625 45.875 -36 47 C-40.83267783 47.30769859 -44.10111097 46.64206359 -48.0625 43.8125 C-50.39950223 40.4200774 -50.74137441 39.0363718 -50 35 C-47.52875312 30.15255419 -45.15210028 27.78341933 -40 26 C-37.13467974 25.60173155 -34.94456545 25.71504205 -32 26 C-31.34 26.53625 -30.68 27.0725 -30 27.625 C-28.12264626 29.24075537 -28.12264626 29.24075537 -25.984375 28.75390625 C-23.96940872 28.24311934 -21.98171218 27.62754219 -20 27 C-20.04125 25.845 -20.0825 24.69 -20.125 23.5 C-20.09956764 16.30264089 -18.54497074 10.7136775 -14 5 C-9.22313118 0.79180604 -6.47680067 -0.73125169 0 0 Z M-12 7 C-16.00307114 12.52805062 -16.72614863 18.31802648 -17 25 C-13.2854786 24.53130204 -13.2854786 24.53130204 -10 23 C-8.94812225 20.72880273 -8.37294157 18.49215777 -7.73828125 16.07421875 C-7 14 -7 14 -4.5625 12.3125 C-2 12 -2 12 0.1875 12.5 C2.90825209 14.7516569 3.30867236 16.5433618 4 20 C3.87713311 28.12286689 3.87713311 28.12286689 1 31 C-0.216875 30.95875 -1.43375 30.9175 -2.6875 30.875 C-7.47174246 30.71756606 -10.07169315 32.38112877 -14 35 C-13.49743888 37.01432266 -13.49743888 37.01432266 -12 39 C-9.49825963 40.02111852 -7.61778102 40.57442501 -5 41 C-4.24589844 41.13148437 -3.49179688 41.26296875 -2.71484375 41.3984375 C0.64190275 41.72346471 2.96872081 41.81593087 5.68359375 39.66796875 C10.07711741 33.75600349 9.87570532 27.04618443 9 20 C7.78369618 14.42958729 6.43926108 9.62863754 2.625 5.3125 C-3.47693526 2.26153237 -6.7957853 2.36146081 -12 7 Z M-5 16 C-7.71232939 20.06849409 -7.30699887 22.16476784 -7 27 C-6.34 27.66 -5.68 28.32 -5 29 C-2.45286596 28.99077298 -2.45286596 28.99077298 0 28 C1.85890825 25.63411677 2.04221379 24.43269132 1.75 21.4375 C1.05904947 18.77930791 1.05904947 18.77930791 -1 16 C-2.32 16 -3.64 16 -5 16 Z M-16.1328125 27.75 C-17.34130859 28.29140625 -17.34130859 28.29140625 -18.57421875 28.84375 C-19.41597656 29.2253125 -20.25773437 29.606875 -21.125 30 C-21.97449219 30.3815625 -22.82398438 30.763125 -23.69921875 31.15625 C-25.80099174 32.10086708 -27.9011504 33.04890937 -30 34 C-30 34.66 -30 35.32 -30 36 C-23.16382674 35.55895656 -17.06783896 34.32641455 -11 31 C-10.34 30.01 -9.68 29.02 -9 28 C-9.33 27.34 -9.66 26.68 -10 26 C-12.46120841 26 -13.88852385 26.73848962 -16.1328125 27.75 Z M-43 31 C-45.81592036 33.62171895 -45.9913444 34.82688805 -46.1875 38.75 C-46.125625 39.8225 -46.06375 40.895 -46 42 C-42.88450128 43.55774936 -39.3955612 43.56480622 -36 43 C-34.15558614 41.89012958 -34.15558614 41.89012958 -33 40 C-32.63786432 37.48710325 -32.63786432 37.48710325 -32.8125 34.8125 C-32.85310547 33.46091797 -32.85310547 33.46091797 -32.89453125 32.08203125 C-32.94673828 31.05142578 -32.94673828 31.05142578 -33 30 C-37.03772772 28.84636351 -39.30248479 28.95663633 -43 31 Z " fill="#000000" transform="translate(88,39)"/>
<path d="M0 0 C2.43699411 3.6161848 2.48286377 5.58999894 1.9375 9.875 C0.74982145 13.25531589 0.03924775 13.80716817 -3.0625 15.875 C-6.0234375 16.17578125 -6.0234375 16.17578125 -9.4375 16.1875 C-11.11972656 16.21263672 -11.11972656 16.21263672 -12.8359375 16.23828125 C-16.3932893 15.83775617 -18.25576374 15.07046884 -21.0625 12.875 C-22.41911546 8.72535271 -22.41888996 5.92446761 -20.5 2.0625 C-18.88957143 -0.37505344 -18.01083419 -1.15383673 -15.375 -2.625 C-9.51570908 -3.50942127 -4.96053745 -3.44200558 0 0 Z M-18.0625 3.875 C-17.7325 4.535 -17.4025 5.195 -17.0625 5.875 C-16.53140625 5.71128906 -16.0003125 5.54757813 -15.453125 5.37890625 C-12.52373236 4.76143623 -9.80427064 4.77998075 -6.8125 4.8125 C-5.73484375 4.82152344 -4.6571875 4.83054687 -3.546875 4.83984375 C-2.72703125 4.85144531 -1.9071875 4.86304688 -1.0625 4.875 C-4.23192697 1.30678435 -4.23192697 1.30678435 -9 0.4375 C-12.68955571 0.60990915 -15.07511248 1.63445936 -18.0625 3.875 Z M-18.0625 8.875 C-17.7325 9.865 -17.4025 10.855 -17.0625 11.875 C-14.73654054 13.03797973 -13.27526769 13.04100691 -10.6875 13.0625 C-9.91664062 13.07667969 -9.14578125 13.09085938 -8.3515625 13.10546875 C-5.84415112 12.85301607 -4.22988098 12.12693467 -2.0625 10.875 C-2.0625 9.885 -2.0625 8.895 -2.0625 7.875 C-7.63168691 6.01860436 -12.83054316 6.25902158 -18.0625 8.875 Z " fill="#000000" transform="translate(41.0625,46.125)"/>
</svg>
