<?xml version="1.0" encoding="UTF-8"?>
<!DOCTYPE svg PUBLIC "-//W3C//DTD SVG 1.1//EN" "http://www.w3.org/Graphics/SVG/1.1/DTD/svg11.dtd">
<svg xmlns="http://www.w3.org/2000/svg" version="1.1" width="110px" height="110px" style="shape-rendering:geometricPrecision; text-rendering:geometricPrecision; image-rendering:optimizeQuality; fill-rule:evenodd; clip-rule:evenodd" xmlns:xlink="http://www.w3.org/1999/xlink">
<g><path style="opacity:0.73" fill="#000000" d="M 46.5,5.5 C 55.5413,5.28287 64.5413,5.78287 73.5,7C 75.2464,7.47093 76.913,8.13759 78.5,9C 80.5,12.3333 83.1667,15 86.5,17C 91.1232,17.9582 95.7899,18.6249 100.5,19C 106.117,22.8649 106.951,27.6982 103,33.5C 100.548,36.8207 97.3818,39.3207 93.5,41C 98.933,45.7693 102.766,51.6026 105,58.5C 105.667,67.8333 105.667,77.1667 105,86.5C 104.468,89.2635 103.634,91.9302 102.5,94.5C 105.963,97.7592 106.296,101.259 103.5,105C 99.5245,106.379 96.6912,105.213 95,101.5C 92.9285,102.525 90.7619,103.358 88.5,104C 67.1591,105.934 45.8258,106.267 24.5,105C 22.2779,104.305 20.1113,103.472 18,102.5C 14.5947,105.983 10.928,106.316 7,103.5C 5.87703,100.044 6.71037,97.2103 9.5,95C 7.32438,90.7974 6.15771,86.2974 6,81.5C 5.33333,73.5 5.33333,65.5 6,57.5C 6.05836,50.5321 9.22503,45.6988 15.5,43C 12.2409,41.7894 9.40753,39.9561 7,37.5C 6.66667,37.8333 6.33333,38.1667 6,38.5C 5.6018,34.7098 5.6018,30.7098 6,26.5C 8.51063,24.4372 11.344,22.9372 14.5,22C 17.2899,18.2539 19.9566,14.4206 22.5,10.5C 30.3563,7.52967 38.3563,5.863 46.5,5.5 Z M 46.5,8.5 C 55.5462,8.23562 64.5462,8.73562 73.5,10C 77.5401,12.3574 80.3734,15.5241 82,19.5C 77.5548,15.0889 74.0548,15.7556 71.5,21.5C 71.6804,28.1812 75.0137,32.3478 81.5,34C 89.1929,37.2687 95.3596,35.4353 100,28.5C 100.896,25.975 100.396,23.8083 98.5,22C 102.182,22.4681 103.349,24.6348 102,28.5C 100.167,33 97,36.1667 92.5,38C 79.3867,36.7482 66.2201,35.5815 53,34.5C 47.5153,35.1527 42.0153,35.6527 36.5,36C 30.4159,36.7046 24.5826,38.2046 19,40.5C 12.8265,39.8248 8.99316,36.4915 7.5,30.5C 8.31277,29.1861 9.31277,28.0195 10.5,27C 15.0995,26.4577 18.5995,24.291 21,20.5C 21.7203,22.1124 21.5536,23.6124 20.5,25C 17.1098,26.1248 13.9431,27.6248 11,29.5C 10.0799,32.3083 10.9133,34.4749 13.5,36C 27.3675,39.7905 33.5342,34.6239 32,20.5C 29.8179,14.6232 26.4846,13.9566 22,18.5C 21.3698,16.0966 22.2031,14.2633 24.5,13C 31.8124,10.7713 39.1458,9.27135 46.5,8.5 Z M 51.5,16.5 C 56.8997,16.0708 59.3997,18.4041 59,23.5C 55.738,26.0768 52.4046,26.0768 49,23.5C 47.9164,20.3411 48.7498,18.0078 51.5,16.5 Z M 27.5,20.5 C 25.663,20.3605 25.3296,19.6939 26.5,18.5C 27.2975,18.9569 27.6309,19.6236 27.5,20.5 Z M 83.5,20.5 C 83.56,19.9569 83.8933,19.6236 84.5,19.5C 86.7759,20.2132 89.1093,20.7132 91.5,21C 88.7395,21.7218 86.0728,21.5552 83.5,20.5 Z M 27.5,20.5 C 29.0847,21.0024 29.5847,22.0024 29,23.5C 27.9614,22.7562 27.4614,21.7562 27.5,20.5 Z M 84.5,28.5 C 82.8762,28.3601 81.7096,29.0267 81,30.5C 80.2496,29.8742 79.4162,29.3742 78.5,29C 79.9733,28.2904 80.6399,27.1238 80.5,25.5C 79.5,25.5 78.5,25.5 77.5,25.5C 78.0899,24.234 78.5899,22.9007 79,21.5C 80.6823,24.0082 82.5156,26.3416 84.5,28.5 Z M 26.5,25.5 C 25.8333,25.5 25.1667,25.5 24.5,25.5C 24.7856,23.0673 25.4523,23.0673 26.5,25.5 Z M 94.5,26.5 C 94.7828,25.7109 95.2828,25.0442 96,24.5C 96.5281,25.816 96.0281,26.4827 94.5,26.5 Z M 26.5,25.5 C 29.5688,25.963 30.0688,27.2963 28,29.5C 27.5899,28.0993 27.0899,26.766 26.5,25.5 Z M 85.5,26.5 C 86.3864,25.2241 87.3864,25.2241 88.5,26.5C 89.7059,28.5159 89.7059,30.5159 88.5,32.5C 88.7018,31.194 88.3685,29.694 87.5,28C 87.1639,26.9701 86.4972,26.4701 85.5,26.5 Z M 94.5,26.5 C 94.5,27.8333 94.5,29.1667 94.5,30.5C 92.0582,30.8808 91.3915,30.2141 92.5,28.5C 90.2524,27.676 90.0858,26.676 92,25.5C 92.6708,26.2524 93.5041,26.5858 94.5,26.5 Z M 24.5,28.5 C 27.0009,28.5109 27.1676,29.1776 25,30.5C 24.5357,29.9056 24.369,29.2389 24.5,28.5 Z M 84.5,28.5 C 85.404,29.209 85.7373,30.209 85.5,31.5C 84.448,31.6495 83.448,31.4828 82.5,31C 83.756,30.5831 84.4226,29.7498 84.5,28.5 Z M 16.5,29.5 C 17.2674,30.172 17.9341,31.0053 18.5,32C 18.0698,32.9195 17.7365,33.7528 17.5,34.5C 16.2813,33.3539 14.9479,32.3539 13.5,31.5C 13.9377,30.4937 14.6043,30.4937 15.5,31.5C 16.2975,31.0431 16.6309,30.3764 16.5,29.5 Z M 25.5,32.5 C 24.3588,33.339 23.0255,34.0057 21.5,34.5C 20.3861,33.277 20.2195,31.9437 21,30.5C 22.049,32.1066 23.549,32.7733 25.5,32.5 Z M 49.5,37.5 C 56.1311,38.331 62.7978,38.6643 69.5,38.5C 68.7293,46.7716 64.2293,51.1049 56,51.5C 47.2017,51.533 42.3683,47.1997 41.5,38.5C 44.3854,38.8064 47.0521,38.4731 49.5,37.5 Z M 32.5,39.5 C 33.4959,39.4142 34.3292,39.7476 35,40.5C 37.0441,52.8732 44.3774,59.2065 57,59.5C 69.6549,58.8451 76.3216,52.1784 77,39.5C 93.147,41.8156 101.98,51.149 103.5,67.5C 90.6868,74.9447 77.0201,77.4447 62.5,75C 52.4293,72.1983 42.4293,69.1983 32.5,66C 24.4028,64.4778 16.4028,63.9778 8.5,64.5C 8.63801,59.364 9.47134,54.364 11,49.5C 17.4358,44.3623 24.6025,41.029 32.5,39.5 Z M 39.5,45.5 C 38.6942,44.0028 38.0276,42.3361 37.5,40.5C 37.8333,40.1667 38.1667,39.8333 38.5,39.5C 39.4656,41.396 39.7989,43.396 39.5,45.5 Z M 72.5,39.5 C 74.1819,47.2914 71.1819,52.7914 63.5,56C 60.7728,56.8184 58.1062,56.6517 55.5,55.5C 65.7,54.9117 71.3667,49.5783 72.5,39.5 Z M 39.5,45.5 C 41.9734,48.8045 44.9734,51.6378 48.5,54C 47.5,54.6667 46.5,54.6667 45.5,54C 42.436,51.7928 40.436,48.9594 39.5,45.5 Z M 10.5,66.5 C 17.5139,67.1498 24.5139,67.9831 31.5,69C 42.1823,72.3389 52.849,75.6722 63.5,79C 77.5007,80.7505 90.6673,78.2505 103,71.5C 103.49,72.7932 103.657,74.1266 103.5,75.5C 93.8868,78.0374 84.2201,80.3707 74.5,82.5C 68.8264,81.7321 63.1598,80.8988 57.5,80C 41.8154,73.4295 25.482,69.5962 8.5,68.5C 9.24269,67.8182 9.90935,67.1515 10.5,66.5 Z M 8.5,71.5 C 20.1609,71.9321 31.4942,74.0988 42.5,78C 39.9426,80.8922 37.776,84.0589 36,87.5C 34.5991,92.5356 33.0991,97.5356 31.5,102.5C 23.2737,102.556 16.9404,99.2223 12.5,92.5C 10.6471,85.3696 9.31377,78.3696 8.5,71.5 Z M 101.5,78.5 C 103.505,91.0216 98.1712,98.5216 85.5,101C 75.8513,102.124 66.1846,102.457 56.5,102C 56.6709,95.152 59.3375,89.4853 64.5,85C 69.4754,85.3284 74.4754,85.3284 79.5,85C 87.0424,83.1196 94.3757,80.953 101.5,78.5 Z M 44.5,79.5 C 45.2389,79.369 45.9056,79.5357 46.5,80C 40.2442,86.1728 37.5775,93.6728 38.5,102.5C 37.5,102.5 36.5,102.5 35.5,102.5C 35.9622,93.7701 38.9622,86.1034 44.5,79.5 Z M 49.5,80.5 C 50.2389,80.369 50.9056,80.5357 51.5,81C 48.8941,82.9384 47.0608,85.4384 46,88.5C 44.4356,93.4951 42.9356,98.4951 41.5,103.5C 41.0743,98.5443 41.5743,93.5443 43,88.5C 44.4785,85.1725 46.6452,82.5058 49.5,80.5 Z M 53.5,82.5 C 54.552,82.3505 55.552,82.5172 56.5,83C 52.6978,85.0875 50.1978,88.2541 49,92.5C 48.3802,96.2209 47.5468,99.8876 46.5,103.5C 45.3483,100.894 45.1816,98.2272 46,95.5C 48.0506,90.709 50.5506,86.3756 53.5,82.5 Z M 58.5,83.5 C 59.3764,83.3691 60.0431,83.7025 60.5,84.5C 56.1911,89.6364 53.8578,95.6364 53.5,102.5C 51.5378,103.854 50.5378,103.187 50.5,100.5C 51.3015,93.8994 53.9682,88.2327 58.5,83.5 Z M 10.5,97.5 C 13.2974,97.9666 14.6308,99.6333 14.5,102.5C 12.8333,102.5 11.1667,102.5 9.5,102.5C 9.36596,100.708 9.69929,99.0418 10.5,97.5 Z M 99.5,98.5 C 100.5,98.5 101.5,98.5 102.5,98.5C 102.5,99.8333 102.5,101.167 102.5,102.5C 101.167,102.5 99.8333,102.5 98.5,102.5C 98.4326,101.041 98.7659,99.7079 99.5,98.5 Z"/></g>
<g><path style="opacity:0.687" fill="#000000" d="M 52.5,9.5 C 53.9953,9.41483 54.9953,10.0815 55.5,11.5C 54.1667,12.8333 52.8333,12.8333 51.5,11.5C 51.8627,10.8165 52.1961,10.1499 52.5,9.5 Z"/></g>
<g><path style="opacity:0.528" fill="#000000" d="M 58.5,10.5 C 60.0481,10.8212 60.7148,11.8212 60.5,13.5C 57.7524,13.5983 57.0857,12.5983 58.5,10.5 Z"/></g>
<g><path style="opacity:0.601" fill="#000000" d="M 48.5,14.5 C 46.5354,14.0517 46.2021,13.0517 47.5,11.5C 49.5193,12.1329 49.8526,13.1329 48.5,14.5 Z"/></g>
<g><path style="opacity:0.612" fill="#000000" d="M 61.5,12.5 C 62.9778,12.238 64.3112,12.5713 65.5,13.5C 64.6798,15.1112 63.3464,15.7778 61.5,15.5C 61.5,14.5 61.5,13.5 61.5,12.5 Z"/></g>
<g><path style="opacity:0.734" fill="#000000" d="M 49.5,28.5 C 48.5637,27.0256 47.2303,26.0256 45.5,25.5C 43.8464,21.1328 44.8464,17.4661 48.5,14.5C 52.9991,12.8206 57.1658,13.4872 61,16.5C 63.862,26.68 60.0287,30.68 49.5,28.5 Z M 51.5,16.5 C 48.7498,18.0078 47.9164,20.3411 49,23.5C 52.4046,26.0768 55.738,26.0768 59,23.5C 59.3997,18.4041 56.8997,16.0708 51.5,16.5 Z"/></g>
<g><path style="opacity:0.58" fill="#000000" d="M 43.5,14.5 C 46.1247,15.4657 46.1247,16.4657 43.5,17.5C 42.4376,16.5754 42.4376,15.5754 43.5,14.5 Z"/></g>
<g><path style="opacity:0.707" fill="#000000" d="M 64.5,17.5 C 65.5,17.5 66.5,17.5 67.5,17.5C 67.5,18.5 67.5,19.5 67.5,20.5C 66.5,20.5 65.5,20.5 64.5,20.5C 64.5,19.5 64.5,18.5 64.5,17.5 Z"/></g>
<g><path style="opacity:0.677" fill="#000000" d="M 41.5,20.5 C 43.4646,20.9483 43.7979,21.9483 42.5,23.5C 40.4807,22.8671 40.1474,21.8671 41.5,20.5 Z"/></g>
<g><path style="opacity:0.617" fill="#000000" d="M 45.5,25.5 C 45.2504,26.9221 44.417,27.9221 43,28.5C 42.1375,25.457 42.9709,24.457 45.5,25.5 Z"/></g>
<g><path style="opacity:0.606" fill="#000000" d="M 64.5,24.5 C 67.5476,24.494 68.0476,25.494 66,27.5C 64.9614,26.7562 64.4614,25.7562 64.5,24.5 Z"/></g>
<g><path style="opacity:0.745" fill="#000000" d="M 49.5,28.5 C 50.3768,31.2442 49.3768,31.9109 46.5,30.5C 47.0047,29.0815 48.0047,28.4148 49.5,28.5 Z"/></g>
<g><path style="opacity:0.778" fill="#000000" d="M 59.5,29.5 C 62.5476,29.494 63.0476,30.494 61,32.5C 59.9614,31.7562 59.4614,30.7562 59.5,29.5 Z"/></g>
<g><path style="opacity:0.732" fill="#000000" d="M 52.5,30.5 C 54.3547,30.272 55.1881,30.9387 55,32.5C 52.3655,33.6922 51.5322,33.0256 52.5,30.5 Z"/></g>
</svg>
