<?xml version="1.0" encoding="UTF-8"?>
<svg version="1.1" xmlns="http://www.w3.org/2000/svg" width="110" height="110">
<path d="M0 0 C0.70125 0.86625 1.4025 1.7325 2.125 2.625 C6.99937903 7.29989376 11.24043814 7.34180615 17.75 7.83984375 C21.91018014 8.80766344 23.4749101 10.3345538 26.125 13.625 C27.03645903 17.72656565 26.01553323 20.22281686 24 23.75 C21.51957483 27.4599769 18.99819028 29.46321938 15.125 31.625 C15.455 32.615 15.785 33.605 16.125 34.625 C16.723125 34.8725 17.32125 35.12 17.9375 35.375 C22.39193322 37.92039041 24.49665403 43.9162349 26.125 48.625 C26.38378906 51.62011719 26.38378906 51.62011719 26.390625 54.921875 C26.39449219 56.73171875 26.39449219 56.73171875 26.3984375 58.578125 C26.39070313 59.83109375 26.38296875 61.0840625 26.375 62.375 C26.38660156 64.23125 26.38660156 64.23125 26.3984375 66.125 C26.38690084 71.54722915 26.29862936 76.61247805 24.984375 81.890625 C24.70078125 83.12296875 24.4171875 84.3553125 24.125 85.625 C24.785 86.285 25.445 86.945 26.125 87.625 C26.375 90.625 26.375 90.625 26.125 93.625 C24.125 95.625 24.125 95.625 21.1875 95.9375 C18.125 95.625 18.125 95.625 16.25 94.125 C15.693125 93.3825 15.693125 93.3825 15.125 92.625 C14.361875 92.934375 13.59875 93.24375 12.8125 93.5625 C3.2218787 96.32589936 -7.22627738 95.90547039 -17.15185547 96.18261719 C-19.47525408 96.24928989 -21.79807661 96.32752034 -24.12109375 96.40625 C-31.83575382 96.6433595 -39.49792174 96.66672397 -47.20703125 96.24609375 C-47.90442413 96.2101712 -48.60181702 96.17424866 -49.32034302 96.13723755 C-54.3632082 95.81318776 -58.35304052 94.83787379 -62.875 92.625 C-62.875 93.285 -62.875 93.945 -62.875 94.625 C-69.5 95.875 -69.5 95.875 -72.875 93.625 C-73.30632515 89.57054358 -73.17519361 88.07529042 -70.875 84.625 C-71.47234611 82.60321315 -72.15148573 80.60514432 -72.875 78.625 C-74.05294566 72.37282689 -74.09354985 66.16149952 -74.125 59.8125 C-74.145625 58.78318359 -74.16625 57.75386719 -74.1875 56.69335938 C-74.22661453 48.96334943 -73.92384416 40.3091481 -68.1875 34.5 C-67.0428125 33.571875 -67.0428125 33.571875 -65.875 32.625 C-67.009375 32.026875 -68.14375 31.42875 -69.3125 30.8125 C-72.75 29 -72.75 29 -73.875 25.625 C-74.21103141 22.58419115 -74.27871263 19.66137384 -73.875 16.625 C-71.80078373 14.23167353 -69.96279652 13.65744654 -67 12.5625 C-62.97825127 10.06901579 -61.75015001 7.21022266 -59.7578125 3 C-56.00685941 -1.73149269 -49.87145039 -2.62439296 -44.09228516 -3.35058594 C-43.0875415 -3.4554834 -43.0875415 -3.4554834 -42.0625 -3.5625 C-40.9804126 -3.68093262 -40.9804126 -3.68093262 -39.87646484 -3.80175781 C-8.37683965 -6.91999797 -8.37683965 -6.91999797 0 0 Z M-56.8125 4.25 C-57.163125 4.70375 -57.51375 5.1575 -57.875 5.625 C-57.545 6.615 -57.215 7.605 -56.875 8.625 C-55.885 7.965 -54.895 7.305 -53.875 6.625 C-52.555 6.625 -51.235 6.625 -49.875 6.625 C-47.2670468 11.16011541 -47.04653331 15.50507583 -47.875 20.625 C-50.40176039 23.97125024 -51.91433542 25.30477847 -55.875 26.625 C-60.90915457 26.99790034 -63.76542374 26.61378273 -67.875 23.625 C-67.9375 21.375 -67.9375 21.375 -66.875 18.625 C-64.00825156 16.93199573 -61.00086629 15.75536377 -57.875 14.625 C-58.205 13.305 -58.535 11.985 -58.875 10.625 C-59.390625 11.223125 -59.90625 11.82125 -60.4375 12.4375 C-62.875 14.625 -62.875 14.625 -66.5 16.125 C-69.83483773 17.33145425 -69.83483773 17.33145425 -71.5 19.4375 C-72.05908114 21.78794939 -72.05908114 21.78794939 -71.0625 24.6875 C-68.45137408 28.1938691 -66.65209769 29.21488653 -62.5 30.359375 C-58.48162575 30.7659962 -55.18044829 29.65391999 -51.33984375 28.53515625 C-34.66468465 24.15487207 -15.96201535 24.67281459 0.80859375 28.19921875 C6.44846919 29.23589063 11.28045993 29.51311188 16.5 27 C20.15518824 23.69292493 22.93593703 20.79922419 23.375 15.75 C23.2925 15.04875 23.21 14.3475 23.125 13.625 C21.805 12.965 20.485 12.305 19.125 11.625 C19.434375 12.65625 19.74375 13.6875 20.0625 14.75 C20.125 18.625 20.125 18.625 18.9140625 20.42578125 C15.78258442 23.39430912 13.60989126 24.53756059 9.3125 25.3125 C4.06999796 24.84057222 -0.79539592 22.94827299 -4.875 19.625 C-6.40162313 16.66002786 -7.04989908 13.96057538 -6.875 10.625 C-6.215 9.635 -5.555 8.645 -4.875 7.625 C-1.15198497 7.14769038 -0.08308915 7.4862739 3.125 9.625 C1.79279754 6.6291691 0.3861285 4.6171716 -2.0625 2.4375 C-2.88814453 1.67373047 -2.88814453 1.67373047 -3.73046875 0.89453125 C-9.10007753 -2.2841989 -16.28660255 -1.56836607 -22.375 -1.5625 C-23.68633911 -1.5612915 -23.68633911 -1.5612915 -25.02416992 -1.56005859 C-41.90438555 -1.78006767 -41.90438555 -1.78006767 -56.8125 4.25 Z M-53.875 8.625 C-53.875 9.285 -53.875 9.945 -53.875 10.625 C-53.215 10.625 -52.555 10.625 -51.875 10.625 C-51.875 9.965 -51.875 9.305 -51.875 8.625 C-52.535 8.625 -53.195 8.625 -53.875 8.625 Z M4.125 9.625 C4.455 10.285 4.785 10.945 5.125 11.625 C7.435 11.625 9.745 11.625 12.125 11.625 C12.125 11.295 12.125 10.965 12.125 10.625 C9.485 10.295 6.845 9.965 4.125 9.625 Z M-51.875 10.625 C-51.545 11.615 -51.215 12.605 -50.875 13.625 C-50.875 12.635 -50.875 11.645 -50.875 10.625 C-51.205 10.625 -51.535 10.625 -51.875 10.625 Z M-0.875 11.625 C-1.205 12.945 -1.535 14.265 -1.875 15.625 C-0.885 15.625 0.105 15.625 1.125 15.625 C1.125 16.615 1.125 17.605 1.125 18.625 C0.135 19.12 0.135 19.12 -0.875 19.625 C0.115 19.955 1.105 20.285 2.125 20.625 C2.125 19.965 2.125 19.305 2.125 18.625 C3.115 18.625 4.105 18.625 5.125 18.625 C5.125 17.965 5.125 17.305 5.125 16.625 C4.320625 16.356875 3.51625 16.08875 2.6875 15.8125 C1.841875 15.420625 0.99625 15.02875 0.125 14.625 C-0.205 13.635 -0.535 12.645 -0.875 11.625 Z M-54.875 13.625 C-54.875 14.285 -54.875 14.945 -54.875 15.625 C-54.215 15.295 -53.555 14.965 -52.875 14.625 C-53.535 14.295 -54.195 13.965 -54.875 13.625 Z M16.125 14.625 C15.795 15.285 15.465 15.945 15.125 16.625 C15.785 16.625 16.445 16.625 17.125 16.625 C16.795 15.965 16.465 15.305 16.125 14.625 Z M-52.875 15.625 C-52.215 16.945 -51.555 18.265 -50.875 19.625 C-50.875 18.305 -50.875 16.985 -50.875 15.625 C-51.535 15.625 -52.195 15.625 -52.875 15.625 Z M-2.875 15.625 C-1.875 17.625 -1.875 17.625 -1.875 17.625 Z M6.125 15.625 C7.115 16.12 7.115 16.12 8.125 16.625 C8.125 18.605 8.125 20.585 8.125 22.625 C8.785 22.625 9.445 22.625 10.125 22.625 C9.795 20.315 9.465 18.005 9.125 15.625 C8.135 15.625 7.145 15.625 6.125 15.625 Z M12.125 15.625 C11.795 16.285 11.465 16.945 11.125 17.625 C11.785 17.625 12.445 17.625 13.125 17.625 C12.795 18.615 12.465 19.605 12.125 20.625 C13.115 20.625 14.105 20.625 15.125 20.625 C15.125 19.305 15.125 17.985 15.125 16.625 C14.135 16.295 13.145 15.965 12.125 15.625 Z M-54.875 18.625 C-54.545 19.285 -54.215 19.945 -53.875 20.625 C-53.545 19.965 -53.215 19.305 -52.875 18.625 C-53.535 18.625 -54.195 18.625 -54.875 18.625 Z M5.125 18.625 C5.125 19.285 5.125 19.945 5.125 20.625 C4.135 21.12 4.135 21.12 3.125 21.625 C4.115 21.625 5.105 21.625 6.125 21.625 C5.795 20.635 5.465 19.645 5.125 18.625 Z M-62.875 19.625 C-62.875 20.285 -62.875 20.945 -62.875 21.625 C-63.865 21.295 -64.855 20.965 -65.875 20.625 C-65.875 21.285 -65.875 21.945 -65.875 22.625 C-64.885 22.625 -63.895 22.625 -62.875 22.625 C-62.875 23.285 -62.875 23.945 -62.875 24.625 C-62.215 24.295 -61.555 23.965 -60.875 23.625 C-61.535 22.305 -62.195 20.985 -62.875 19.625 Z M-58.875 20.625 C-58.875 21.945 -58.875 23.265 -58.875 24.625 C-57.225 24.295 -55.575 23.965 -53.875 23.625 C-54.514375 23.50125 -55.15375 23.3775 -55.8125 23.25 C-56.493125 23.04375 -57.17375 22.8375 -57.875 22.625 C-58.205 21.965 -58.535 21.305 -58.875 20.625 Z M-37.875 28.625 C-37.42286421 33.48545979 -36.34358739 36.15641261 -32.875 39.625 C-28.5696407 42.20821558 -23.75831871 42.20211948 -18.875 41.625 C-15.17448038 40.01607843 -12.88025336 38.13419338 -10.875 34.625 C-10.50748771 32.63099753 -10.17055328 30.63093105 -9.875 28.625 C-13.0410296 28.42554014 -16.20781796 28.24265572 -19.375 28.0625 C-20.261875 28.00642578 -21.14875 27.95035156 -22.0625 27.89257812 C-27.49765235 27.59284546 -32.49594863 27.7766683 -37.875 28.625 Z M-41.875 29.625 C-41.545 31.605 -41.215 33.585 -40.875 35.625 C-40.545 35.625 -40.215 35.625 -39.875 35.625 C-39.875 33.645 -39.875 31.665 -39.875 29.625 C-40.535 29.625 -41.195 29.625 -41.875 29.625 Z M-6.875 29.625 C-7.18630859 30.63820312 -7.18630859 30.63820312 -7.50390625 31.671875 C-10.33531858 39.86993916 -10.33531858 39.86993916 -14.25 42.1875 C-17.53843015 43.49153265 -20.36461595 44.28252351 -23.875 44.625 C-23.875 45.285 -23.875 45.945 -23.875 46.625 C-17.78001137 47.04534404 -14.74612047 46.70314737 -9.875 42.625 C-6.04671201 39.06073187 -6.18189721 34.57768599 -5.875 29.625 C-6.205 29.625 -6.535 29.625 -6.875 29.625 Z M-66.875 37.625 C-70.14317912 40.95300849 -70.33396192 43.80423843 -70.5625 48.375 C-70.62824219 49.54546875 -70.69398437 50.7159375 -70.76171875 51.921875 C-70.79910156 52.81390625 -70.83648437 53.7059375 -70.875 54.625 C-69.905625 54.66238281 -68.93625 54.69976562 -67.9375 54.73828125 C-54.6637829 55.34558643 -42.3101477 57.28938752 -29.75 61.6875 C-13.48140674 67.37239723 -0.01112672 67.66765494 16.125 61.625 C16.96160156 61.31820312 17.79820313 61.01140625 18.66015625 60.6953125 C20.48684738 60.01876023 22.30688601 59.32427461 24.125 58.625 C23.68659578 49.56464615 21.12367398 42.18032842 14.5625 35.6875 C9.86662828 31.87322872 3.2290982 29.625 -2.875 29.625 C-3.060625 30.81996094 -3.060625 30.81996094 -3.25 32.0390625 C-5.14478809 41.77353631 -5.14478809 41.77353631 -9.875 45.3125 C-16.15567945 49.34498169 -22.92570381 49.54560288 -30.1640625 48.19921875 C-35.53881179 46.50793664 -38.95176423 43.40599308 -41.875 38.625 C-43.11701664 35.67696806 -44.07479471 32.72053099 -44.875 29.625 C-52.45803905 29.625 -60.83506666 33.18313236 -66.875 37.625 Z M-39.875 35.625 C-39.40297514 39.87322374 -36.90844482 41.82489709 -33.875 44.625 C-32.885 44.295 -31.895 43.965 -30.875 43.625 C-31.35710938 43.21507812 -31.83921875 42.80515625 -32.3359375 42.3828125 C-32.96757813 41.84398437 -33.59921875 41.30515625 -34.25 40.75 C-34.87648438 40.21632813 -35.50296875 39.68265625 -36.1484375 39.1328125 C-37.43336651 38.01067993 -38.66871975 36.83128025 -39.875 35.625 Z M-70.875 57.625 C-70.875 58.285 -70.875 58.945 -70.875 59.625 C-68.94914062 59.73714844 -68.94914062 59.73714844 -66.984375 59.8515625 C-52.42709989 60.87125155 -39.26509514 63.97925057 -25.66796875 69.2421875 C-22.47239619 70.45454723 -19.3844242 71.26405453 -16 71.8125 C-14.61167969 72.05033203 -14.61167969 72.05033203 -13.1953125 72.29296875 C-3.77316271 73.23518373 3.71184378 71.96932863 12.75 69.125 C13.84957031 68.79113281 14.94914062 68.45726563 16.08203125 68.11328125 C18.767051 67.29610133 21.44753696 66.46654319 24.125 65.625 C23.63 63.645 23.63 63.645 23.125 61.625 C21.49691406 62.25728516 21.49691406 62.25728516 19.8359375 62.90234375 C18.39073796 63.45602409 16.94541909 64.00939305 15.5 64.5625 C14.78714844 64.84029297 14.07429688 65.11808594 13.33984375 65.40429688 C9.26764584 66.95472085 5.47820034 68.107039 1.125 68.625 C0.02929688 68.76164062 -1.06640625 68.89828125 -2.1953125 69.0390625 C-13.50106661 69.66587022 -22.68458578 66.73020076 -33.32299805 63.05737305 C-51.95492106 56.34027614 -51.95492106 56.34027614 -70.875 57.625 Z M-70.875 61.625 C-70.29023944 68.71906894 -69.24266005 75.64063899 -67.875 82.625 C-67.215 82.625 -66.555 82.625 -65.875 82.625 C-65.689375 83.3675 -65.50375 84.11 -65.3125 84.875 C-63.34811537 88.63295321 -60.7547058 90.21675833 -56.875 91.625 C-53.54462083 92.20672562 -50.25120688 92.48913654 -46.875 92.625 C-46.42060547 90.90603516 -46.42060547 90.90603516 -45.95703125 89.15234375 C-45.53459637 87.62219074 -45.11137727 86.09225408 -44.6875 84.5625 C-44.49091797 83.81033203 -44.29433594 83.05816406 -44.09179688 82.28320312 C-42.56028878 76.84045896 -40.38237511 73.06374531 -36.875 68.625 C-40.34324064 66.31283957 -43.69772641 65.51382407 -47.6875 64.5625 C-48.38681641 64.38912109 -49.08613281 64.21574219 -49.80664062 64.03710938 C-55.44119911 62.66141268 -60.91907127 61.47415259 -66.75 61.5625 C-67.92175781 61.57603516 -67.92175781 61.57603516 -69.1171875 61.58984375 C-69.98730469 61.60724609 -69.98730469 61.60724609 -70.875 61.625 Z M-37.25 71.9375 C-41.77812374 77.59429553 -44.65989267 85.36474281 -43.875 92.625 C-42.885 92.625 -41.895 92.625 -40.875 92.625 C-40.74544922 91.3565625 -40.74544922 91.3565625 -40.61328125 90.0625 C-39.69995933 82.68889181 -38.34274115 77.55604313 -33.875 71.625 C-33.545 70.965 -33.215 70.305 -32.875 69.625 C-35.18865255 69.39246111 -35.18865255 69.39246111 -37.25 71.9375 Z M17.7421875 69.9375 C0.49125083 75.04917045 0.49125083 75.04917045 -8.375 74.5625 C-12.90421452 74.29882391 -12.90421452 74.29882391 -17.05078125 75.7734375 C-21.55932607 80.35730407 -22.22780534 86.45433366 -22.875 92.625 C-0.29291053 93.89496539 -0.29291053 93.89496539 19.6875 85.4375 C22.36293469 80.20295386 23.50447488 74.50686058 23.125 68.625 C21.27341554 68.625 19.49790783 69.3999291 17.7421875 69.9375 Z M-32.3125 72.6875 C-37.92559248 79.12202065 -38.44137732 85.35626403 -38.875 93.625 C-38.215 93.625 -37.555 93.625 -36.875 93.625 C-36.63265625 92.61179687 -36.3903125 91.59859375 -36.140625 90.5546875 C-35.80269604 89.20297167 -35.46411976 87.85141757 -35.125 86.5 C-34.96773437 85.83484375 -34.81046875 85.1696875 -34.6484375 84.484375 C-33.47156722 79.86742237 -31.71894149 76.52096863 -28.875 72.625 C-28.545 71.965 -28.215 71.305 -27.875 70.625 C-30.15270623 70.40968592 -30.15270623 70.40968592 -32.3125 72.6875 Z M-28.875 74.625 C-32.60477495 80.86580654 -34.55874922 86.37725824 -33.875 93.625 C-33.215 93.625 -32.555 93.625 -31.875 93.625 C-31.69324219 92.74457031 -31.51148438 91.86414063 -31.32421875 90.95703125 C-31.07285156 89.79558594 -30.82148437 88.63414063 -30.5625 87.4375 C-30.31886719 86.28894531 -30.07523438 85.14039062 -29.82421875 83.95703125 C-28.49502312 79.29117171 -26.46791833 75.87573563 -22.875 72.625 C-26.05990007 72.3476499 -26.05990007 72.3476499 -28.875 74.625 Z M-20.875 73.625 C-25.63599355 78.7223681 -28.73809976 83.92869351 -29 91 C-28.95875 91.86625 -28.9175 92.7325 -28.875 93.625 C-27.555 93.295 -26.235 92.965 -24.875 92.625 C-24.77703125 91.81675781 -24.6790625 91.00851563 -24.578125 90.17578125 C-23.13867461 79.88867461 -23.13867461 79.88867461 -18.875 75.625 C-18.875 74.965 -18.875 74.305 -18.875 73.625 C-19.535 73.625 -20.195 73.625 -20.875 73.625 Z M-68.875 87.625 C-69.205 89.275 -69.535 90.925 -69.875 92.625 C-68.225 92.625 -66.575 92.625 -64.875 92.625 C-65.14176204 90.64008358 -65.14176204 90.64008358 -65.875 88.625 C-66.865 88.295 -67.855 87.965 -68.875 87.625 Z M20.125 88.625 C19.795 89.945 19.465 91.265 19.125 92.625 C20.445 92.625 21.765 92.625 23.125 92.625 C23.125 91.305 23.125 89.985 23.125 88.625 C22.135 88.625 21.145 88.625 20.125 88.625 Z " fill="#000000" transform="translate(79.875,10.375)"/>
<path d="M0 0 C2.32749345 3.49124017 2.50299316 4.89222251 2 9 C-0.15509113 12.18953487 -1.67410884 12.90343966 -5.375 14 C-9.92392338 14 -11.68412033 13.07903112 -15 10 C-16.125 7.0625 -16.125 7.0625 -16 4 C-14.23342272 0.94246241 -12.97738398 -0.60376325 -9.6875 -1.9375 C-6.10406614 -2.02083567 -3.34413774 -1.26193877 0 0 Z M-12 3 C-12.5 5.5 -12.5 5.5 -12 8 C-8.54754176 10.30163882 -7.05261287 10.34490322 -3 10 C-2.34 9.34 -1.68 8.68 -1 8 C-1.00922702 5.45286596 -1.00922702 5.45286596 -2 3 C-5.78375769 0.35136962 -8.13596918 0.42397945 -12 3 Z " fill="#000000" transform="translate(61,16)"/>
<path d="M0 0 C1.32 0 2.64 0 4 0 C3.67 0.99 3.34 1.98 3 3 C2.01 3 1.02 3 0 3 C0 2.01 0 1.02 0 0 Z " fill="#000000" transform="translate(62,13)"/>
<path d="M0 0 C0.99 0.33 1.98 0.66 3 1 C3 1.66 3 2.32 3 3 C1.68 3 0.36 3 -1 3 C-0.67 2.01 -0.34 1.02 0 0 Z " fill="#000000" transform="translate(53,10)"/>
<path d="M0 0 C0.99 0 1.98 0 3 0 C2.67 0.99 2.34 1.98 2 3 C1.01 2.67 0.02 2.34 -1 2 C-0.67 1.34 -0.34 0.68 0 0 Z " fill="#000000" transform="translate(53,31)"/>
<path d="M0 0 C0.99 0.33 1.98 0.66 3 1 C2.67 1.66 2.34 2.32 2 3 C1.01 3 0.02 3 -1 3 C-0.67 2.01 -0.34 1.02 0 0 Z " fill="#000000" transform="translate(48,29)"/>
<path d="M0 0 C0.99 0.33 1.98 0.66 3 1 C3 1.66 3 2.32 3 3 C2.01 3.33 1.02 3.66 0 4 C0 2.68 0 1.36 0 0 Z " fill="#000000" transform="translate(43,25)"/>
<path d="M0 0 C0.99 0 1.98 0 3 0 C3 0.99 3 1.98 3 3 C2.01 3 1.02 3 0 3 C0 2.01 0 1.02 0 0 Z " fill="#000000" transform="translate(65,18)"/>
<path d="M0 0 C0.66 0 1.32 0 2 0 C2 0.99 2 1.98 2 3 C1.01 3 0.02 3 -1 3 C-0.67 2.01 -0.34 1.02 0 0 Z " fill="#000000" transform="translate(59,11)"/>
<path d="M0 0 C0.99 0 1.98 0 3 0 C2.67 0.99 2.34 1.98 2 3 C1.34 2.67 0.68 2.34 0 2 C0 1.34 0 0.68 0 0 Z " fill="#000000" transform="translate(60,30)"/>
<path d="M0 0 C0.99 0 1.98 0 3 0 C2.67 0.99 2.34 1.98 2 3 C1.34 2.67 0.68 2.34 0 2 C0 1.34 0 0.68 0 0 Z " fill="#000000" transform="translate(65,25)"/>
<path d="M0 0 C0.66 0 1.32 0 2 0 C2 0.99 2 1.98 2 3 C1.01 2.67 0.02 2.34 -1 2 C-0.67 1.34 -0.34 0.68 0 0 Z " fill="#000000" transform="translate(42,21)"/>
<path d="M0 0 C0.99 0.33 1.98 0.66 3 1 C2.67 1.66 2.34 2.32 2 3 C1.34 3 0.68 3 0 3 C0 2.01 0 1.02 0 0 Z " fill="#000000" transform="translate(47,12)"/>
<path d="M0 0 C0.66 0.66 1.32 1.32 2 2 C1.01 2.33 0.02 2.66 -1 3 C-0.67 2.01 -0.34 1.02 0 0 Z " fill="#000000" transform="translate(44,15)"/>
</svg>
