<?xml version="1.0" encoding="UTF-8"?>
<svg version="1.1" xmlns="http://www.w3.org/2000/svg" width="110" height="110">
<path d="M0 0 C3.19289139 1.03841757 4.55917548 0.55624505 7.6953125 -0.5390625 C13.28421716 -2.23312832 18.75209061 -3.12590793 24.5703125 -2.1640625 C26.88671875 -0.765625 26.88671875 -0.765625 28.5703125 0.8359375 C28.5703125 1.4959375 28.5703125 2.1559375 28.5703125 2.8359375 C29.6221875 2.7740625 30.6740625 2.7121875 31.7578125 2.6484375 C35.99156833 2.856655 38.55773415 3.82335915 41.5703125 6.8359375 C41.8203125 9.2734375 41.8203125 9.2734375 41.5703125 11.8359375 C38.31671581 14.00500196 36.45188274 14.30721579 32.6328125 14.8359375 C28.82253268 15.36474957 25.9515362 16.02586057 22.5703125 17.8359375 C20.57920849 18.21884212 18.57930737 18.56198365 16.5703125 18.8359375 C17.2509375 19.2071875 17.9315625 19.5784375 18.6328125 19.9609375 C28.59783008 26.32158702 28.59783008 26.32158702 30.0078125 32.5859375 C30.35168271 34.71431314 30.5703125 36.68152733 30.5703125 38.8359375 C31.1065625 38.9184375 31.6428125 39.0009375 32.1953125 39.0859375 C35.43461637 40.10887556 37.84349929 41.83627448 40.5703125 43.8359375 C42.30697142 47.30925533 42.03220091 51.03818837 41.5703125 54.8359375 C39.26879014 59.26849908 36.12629045 62.37353792 32.5703125 65.8359375 C31.9103125 66.8259375 31.2503125 67.8159375 30.5703125 68.8359375 C31.5603125 70.3209375 31.5603125 70.3209375 32.5703125 71.8359375 C32.89774153 73.932043 33.16135453 76.0385028 33.3828125 78.1484375 C34.20587063 84.12888409 35.43616158 86.59578271 39.5703125 90.8359375 C40.4453125 93.6484375 40.4453125 93.6484375 40.5703125 95.8359375 C38.34109941 98.06515059 33.02251868 97.20598313 29.94067383 97.22314453 C23.65224302 97.09839911 18.57733456 95.85625081 13.5703125 91.8359375 C10.95544753 88.06745564 10.5703125 86.43912661 10.5703125 81.8359375 C6.5821384 82.40567666 3.94584577 83.67213412 0.5703125 85.8359375 C-0.37714844 86.30386719 -0.37714844 86.30386719 -1.34375 86.78125 C-3.41326655 87.82763477 -5.30223343 89.00515795 -7.2421875 90.2734375 C-19.22300844 97.8086848 -33.94321459 98.61919954 -47.7421875 96.1484375 C-52.94598522 94.29623831 -55.35180539 91.99170173 -57.8046875 87.0859375 C-58.60936328 82.90162343 -58.59940813 78.95743635 -57.4296875 74.8359375 C-56.00390625 73.06640625 -56.00390625 73.06640625 -54.4296875 71.8359375 C-53.7696875 71.8359375 -53.1096875 71.8359375 -52.4296875 71.8359375 C-53.0896875 71.0521875 -53.7496875 70.2684375 -54.4296875 69.4609375 C-56.4296875 66.8359375 -56.4296875 66.8359375 -56.4296875 64.8359375 C-57.0896875 64.8359375 -57.7496875 64.8359375 -58.4296875 64.8359375 C-58.78077807 57.76211271 -58.58011491 52.25347481 -55.4296875 45.8359375 C-54.4396875 45.1759375 -53.4496875 44.5159375 -52.4296875 43.8359375 C-51.99077932 41.97901826 -51.55593268 40.12101896 -51.14453125 38.2578125 C-48.90714036 30.67758106 -44.92436131 24.32035513 -38.4296875 19.8359375 C-42.15500035 17.31344707 -45.10862011 16.34730334 -49.5546875 15.7734375 C-53.37509207 15.27325984 -55.17392909 15.00644311 -58.4296875 12.8359375 C-58.15311258 9.51703845 -57.64601842 8.07193487 -55.3671875 5.5859375 C-52.51778933 3.8884237 -51.4021541 3.58873483 -48.2421875 3.3359375 C-46.9840625 3.1709375 -45.7259375 3.0059375 -44.4296875 2.8359375 C-42.97749373 0.93425394 -42.97749373 0.93425394 -42.4296875 -1.1640625 C-39.62470927 -2.56655162 -37.24467385 -2.33385306 -34.1171875 -2.3515625 C-32.98667969 -2.36574219 -31.85617188 -2.37992187 -30.69140625 -2.39453125 C-27.47036204 -2.16693651 -25.36932653 -1.40679615 -22.4296875 -0.1640625 C-18.91807621 -0.41489188 -16.16556364 -0.80555874 -12.9921875 -2.3515625 C-8.47618198 -3.78346669 -4.15762812 -1.99191829 0 0 Z M-39.4296875 0.8359375 C-39.4296875 1.4959375 -39.4296875 2.1559375 -39.4296875 2.8359375 C-38.4396875 2.8359375 -37.4496875 2.8359375 -36.4296875 2.8359375 C-36.4296875 3.4959375 -36.4296875 4.1559375 -36.4296875 4.8359375 C-37.3784375 4.7740625 -38.3271875 4.7121875 -39.3046875 4.6484375 C-44.19270049 4.6484375 -48.97077287 5.8551034 -53.4296875 7.8359375 C-54.0896875 8.8259375 -54.7496875 9.8159375 -55.4296875 10.8359375 C-53.64566354 12.61996146 -51.27090353 11.96826279 -48.8984375 11.97265625 C-47.80015625 11.96685547 -47.80015625 11.96685547 -46.6796875 11.9609375 C-45.96296875 11.96480469 -45.24625 11.96867187 -44.5078125 11.97265625 C-40.6895755 11.96563743 -37.14031536 11.75629008 -33.4296875 10.8359375 C-33.4296875 11.4959375 -33.4296875 12.1559375 -33.4296875 12.8359375 C-35.0796875 13.4959375 -36.7296875 14.1559375 -38.4296875 14.8359375 C-38.4296875 15.1659375 -38.4296875 15.4959375 -38.4296875 15.8359375 C-32.45121945 16.67292303 -28.33056392 15.18446513 -22.9921875 12.5234375 C-22.05125244 12.06118774 -22.05125244 12.06118774 -21.09130859 11.58959961 C-17.24367518 9.65231209 -17.24367518 9.65231209 -15.4296875 5.8359375 C-27.0005704 0.34878987 -27.0005704 0.34878987 -39.4296875 0.8359375 Z M-15.4296875 2.8359375 C-14.4396875 3.8259375 -13.4496875 4.8159375 -12.4296875 5.8359375 C-13.0896875 7.8159375 -13.7496875 9.7959375 -14.4296875 11.8359375 C-13.4396875 11.5059375 -12.4496875 11.1759375 -11.4296875 10.8359375 C-11.0996875 10.1759375 -10.7696875 9.5159375 -10.4296875 8.8359375 C-9.4396875 8.8359375 -8.4496875 8.8359375 -7.4296875 8.8359375 C-5.2421875 11.3359375 -5.2421875 11.3359375 -3.4296875 13.8359375 C-2.4396875 13.5059375 -1.4496875 13.1759375 -0.4296875 12.8359375 C-1.4196875 12.1759375 -2.4096875 11.5159375 -3.4296875 10.8359375 C-3.6171875 8.4609375 -3.6171875 8.4609375 -3.4296875 5.8359375 C-3.4296875 4.5159375 -3.4296875 3.1959375 -3.4296875 1.8359375 C-7.65508316 -0.27676033 -11.62569412 0.29994191 -15.4296875 2.8359375 Z M-1.4296875 6.8359375 C-0.43830384 10.03039595 0.59001969 10.84767795 3.5078125 12.5859375 C8.36951739 14.49147861 13.4372227 14.08655852 18.5703125 13.8359375 C17.5803125 12.5159375 16.5903125 11.1959375 15.5703125 9.8359375 C16.64410156 10.00351562 17.71789062 10.17109375 18.82421875 10.34375 C20.26030657 10.55024629 21.69651106 10.75593236 23.1328125 10.9609375 C24.18952148 11.12916016 24.18952148 11.12916016 25.26757812 11.30078125 C30.28824119 11.99488214 33.78879416 11.53240261 38.5703125 9.8359375 C36.38544821 6.55864107 36.10623629 6.37289438 32.5078125 5.5859375 C27.62607475 4.61909983 23.46293168 5.05933128 18.5703125 5.8359375 C18.5703125 4.8459375 18.5703125 3.8559375 18.5703125 2.8359375 C20.2203125 2.8359375 21.8703125 2.8359375 23.5703125 2.8359375 C23.2403125 2.1759375 22.9103125 1.5159375 22.5703125 0.8359375 C13.95385981 0.26150732 5.8384985 1.99048017 -1.4296875 6.8359375 Z M-16.4296875 11.8359375 C-17.0896875 12.4959375 -17.7496875 13.1559375 -18.4296875 13.8359375 C-17.1096875 13.5059375 -15.7896875 13.1759375 -14.4296875 12.8359375 C-15.0896875 12.5059375 -15.7496875 12.1759375 -16.4296875 11.8359375 Z M-39.4296875 29.8359375 C-42.86956528 35.00166999 -42.86956528 35.00166999 -44.4296875 40.8359375 C-43.15738281 40.71025391 -43.15738281 40.71025391 -41.859375 40.58203125 C-34.14312501 39.912159 -27.10262075 39.93967786 -19.390625 40.875 C-15.89862318 40.82893137 -15.03915358 40.01771101 -12.4296875 37.8359375 C-10.2109375 37.25390625 -10.2109375 37.25390625 -7.9296875 37.0234375 C-7.176875 36.93449219 -6.4240625 36.84554687 -5.6484375 36.75390625 C-3.05217028 36.849895 -1.62018133 37.46453859 0.5703125 38.8359375 C2.3203125 40.9609375 2.3203125 40.9609375 3.5703125 42.8359375 C4.3334375 42.3615625 5.0965625 41.8871875 5.8828125 41.3984375 C9.72142333 39.16668702 12.89262051 38.6329239 17.2578125 38.2734375 C18.25167969 38.18964844 19.24554688 38.10585938 20.26953125 38.01953125 C21.02878906 37.95894531 21.78804688 37.89835937 22.5703125 37.8359375 C22.3434375 36.5984375 22.1165625 35.3609375 21.8828125 34.0859375 C21.75519531 33.38984375 21.62757812 32.69375 21.49609375 31.9765625 C19.72756402 27.88730389 16.33282384 26.186051 12.4140625 24.38671875 C10.75890625 23.77376953 10.75890625 23.77376953 9.0703125 23.1484375 C7.966875 22.73207031 6.8634375 22.31570312 5.7265625 21.88671875 C-8.34045248 17.20351698 -28.91490132 18.0564011 -39.4296875 29.8359375 Z M-46.4296875 35.8359375 C-45.4296875 37.8359375 -45.4296875 37.8359375 -45.4296875 37.8359375 Z M-47.4296875 37.8359375 C-46.4296875 39.8359375 -46.4296875 39.8359375 -46.4296875 39.8359375 Z M-13.4296875 41.8359375 C-13.0996875 42.4959375 -12.7696875 43.1559375 -12.4296875 43.8359375 C-11.3571875 43.6709375 -10.2846875 43.5059375 -9.1796875 43.3359375 C-5.4296875 42.8359375 -5.4296875 42.8359375 -1.4296875 42.8359375 C-1.4296875 42.1759375 -1.4296875 41.5159375 -1.4296875 40.8359375 C-6.22163209 38.09768345 -9.22965613 38.23591061 -13.4296875 41.8359375 Z M-48.4296875 39.8359375 C-47.4296875 41.8359375 -47.4296875 41.8359375 -47.4296875 41.8359375 Z M4.0703125 45.6484375 C3.65910156 46.174375 3.24789062 46.7003125 2.82421875 47.2421875 C-2.20224317 53.63096153 -2.20224317 53.63096153 -5.41796875 54.16796875 C-7.64838203 54.67601531 -7.64838203 54.67601531 -8.84375 57.015625 C-9.44316406 58.34980469 -9.44316406 58.34980469 -10.0546875 59.7109375 C-11.38946204 62.6270373 -12.64309789 65.15605308 -14.4296875 67.8359375 C-13.6459375 68.3309375 -12.8621875 68.8259375 -12.0546875 69.3359375 C-7.84659965 73.34364021 -7.50641766 77.68749303 -7.3046875 83.3359375 C-7.3459375 84.1609375 -7.3871875 84.9859375 -7.4296875 85.8359375 C-2.8367167 82.31465989 -2.31026833 78.25846153 -1.4296875 72.8359375 C-0.7696875 72.8359375 -0.1096875 72.8359375 0.5703125 72.8359375 C0.2403125 75.8059375 -0.0896875 78.7759375 -0.4296875 81.8359375 C3.61291044 79.76000883 5.67942561 77.99588866 7.5703125 73.8359375 C7.9199543 71.50499216 8.25585737 69.17188988 8.5703125 66.8359375 C9.2303125 66.5059375 9.8903125 66.1759375 10.5703125 65.8359375 C10.2403125 69.4659375 9.9103125 73.0959375 9.5703125 76.8359375 C15.373807 75.6752386 16.22832064 74.47759286 19.5703125 69.8359375 C20.48724211 67.08514866 20.67917333 65.47644837 20.6328125 62.6484375 C20.6121875 61.3903125 20.5915625 60.1321875 20.5703125 58.8359375 C21.2303125 58.8359375 21.8903125 58.8359375 22.5703125 58.8359375 C23.0653125 63.7859375 23.0653125 63.7859375 23.5703125 68.8359375 C28.05854491 65.91969602 28.05854491 65.91969602 30.4140625 61.27734375 C30.89212671 58.79914324 31.28789905 56.34357417 31.5703125 53.8359375 C32.8903125 55.1559375 34.2103125 56.4759375 35.5703125 57.8359375 C38.23306262 54.06370816 39.35804396 51.46385982 38.5703125 46.8359375 C34.36952995 42.38805009 29.66325769 40.97811559 23.66015625 40.5703125 C22.27604182 40.56506467 20.89185001 40.57043008 19.5078125 40.5859375 C18.81365234 40.57820313 18.11949219 40.57046875 17.40429688 40.5625 C11.51552955 40.58486949 8.02272871 41.20196926 4.0703125 45.6484375 Z M-53.4296875 48.8359375 C-55.52296728 53.02249706 -54.99880401 58.28905988 -54.4296875 62.8359375 C-52.99440056 65.27994008 -51.79253716 66.18194274 -49.4296875 67.8359375 C-49.58824219 67.27648437 -49.74679688 66.71703125 -49.91015625 66.140625 C-51.16365916 60.57997301 -51.23038132 55.49663579 -48.7421875 50.3359375 C-44.29557597 45.5287899 -39.1833872 45.4442811 -32.9921875 45.1484375 C-32.25419922 45.10138672 -31.51621094 45.05433594 -30.75585938 45.00585938 C-26.48564725 44.77431898 -22.64523761 44.94739841 -18.4296875 45.8359375 C-18.4296875 45.1759375 -18.4296875 44.5159375 -18.4296875 43.8359375 C-27.85796999 39.12179625 -45.32494957 42.82274484 -53.4296875 48.8359375 Z M-12.4296875 45.8359375 C-12.4296875 47.1559375 -12.4296875 48.4759375 -12.4296875 49.8359375 C-9.61370563 52.13854509 -9.61370563 52.13854509 -6.4296875 51.7109375 C-3.03643342 50.72123839 -2.17011189 49.83333506 -0.4296875 46.8359375 C-1.48947683 45.54981074 -1.48947683 45.54981074 -3.93359375 45.73828125 C-4.94292969 45.74988281 -5.95226563 45.76148438 -6.9921875 45.7734375 C-8.00410156 45.78246094 -9.01601563 45.79148438 -10.05859375 45.80078125 C-10.84105469 45.81238281 -11.62351563 45.82398438 -12.4296875 45.8359375 Z M-47.1796875 52.0234375 C-48.83999255 55.75912386 -49.25793905 58.81648143 -48.4296875 62.8359375 C-46.63604839 65.6459721 -45.41087815 67.34534218 -42.4296875 68.8359375 C-39.53988359 69.01471847 -36.69643212 69.11373656 -33.8046875 69.1484375 C-32.63099609 69.19194336 -32.63099609 69.19194336 -31.43359375 69.23632812 C-25.60527499 69.29915411 -21.30539466 68.07588187 -16.4296875 64.8359375 C-13.26537973 61.67162973 -11.9380123 59.28377953 -11.4296875 54.8359375 C-16.96673114 49.33350038 -21.33540992 47.03748463 -29.29296875 46.72265625 C-35.61411259 46.95094164 -42.16355462 48.0333318 -47.1796875 52.0234375 Z M-24.9921875 71.5234375 C-26.12785156 71.85730469 -27.26351562 72.19117187 -28.43359375 72.53515625 C-31.5768543 73.8998313 -32.71106264 74.93078872 -34.4296875 77.8359375 C-33.7696875 79.1559375 -33.1096875 80.4759375 -32.4296875 81.8359375 C-26.4896875 81.3409375 -26.4896875 81.3409375 -20.4296875 80.8359375 C-24.96448202 84.23703339 -24.96448202 84.23703339 -28.9921875 84.1484375 C-29.75660156 84.14457031 -30.52101563 84.14070313 -31.30859375 84.13671875 C-33.4296875 83.8359375 -33.4296875 83.8359375 -36.4296875 81.8359375 C-37.1171875 79.7109375 -37.1171875 79.7109375 -37.4296875 77.8359375 C-39.63005542 77.12867638 -41.01207702 76.7226872 -43.2734375 77.3359375 C-45.76332999 77.91330387 -47.65371641 77.7327572 -50.1796875 77.3984375 C-51.37851562 77.24568359 -51.37851562 77.24568359 -52.6015625 77.08984375 C-53.20484375 77.00605469 -53.808125 76.92226562 -54.4296875 76.8359375 C-55.53496714 80.13673859 -55.33702765 82.11391704 -54.2421875 85.3984375 C-54.00113281 86.16285156 -53.76007812 86.92726563 -53.51171875 87.71484375 C-52.10929131 90.46400657 -51.19062104 91.4004282 -48.4296875 92.8359375 C-45.43750714 93.39369796 -42.46775223 93.53778442 -39.4296875 93.6484375 C-38.5833374 93.68557861 -37.7369873 93.72271973 -36.86499023 93.76098633 C-28.97865281 94.01552964 -20.38604216 94.02487281 -13.4296875 89.8359375 C-10.08648006 85.2246169 -10.26358921 81.51972514 -10.8125 76.10546875 C-11.53342844 73.45445973 -12.2373063 72.46759448 -14.4296875 70.8359375 C-18.18542984 69.16029861 -21.18943142 70.35968166 -24.9921875 71.5234375 Z M-46.4296875 71.8359375 C-46.0996875 72.8259375 -45.7696875 73.8159375 -45.4296875 74.8359375 C-44.7696875 74.8359375 -44.1096875 74.8359375 -43.4296875 74.8359375 C-43.4296875 73.8459375 -43.4296875 72.8559375 -43.4296875 71.8359375 C-44.4196875 71.8359375 -45.4096875 71.8359375 -46.4296875 71.8359375 Z M26.5703125 70.8359375 C24.53886609 71.77040285 22.53497663 72.76818526 20.5703125 73.8359375 C20.8796875 74.3515625 21.1890625 74.8671875 21.5078125 75.3984375 C22.5703125 77.8359375 22.5703125 77.8359375 22.8828125 81.2734375 C23.71476108 85.58444376 25.27541772 87.04794961 28.5703125 89.8359375 C25.8203125 89.5234375 25.8203125 89.5234375 22.5703125 87.8359375 C20.80258263 84.29512101 19.65079223 80.63668384 18.5703125 76.8359375 C16.56533801 77.60353582 16.56533801 77.60353582 14.5703125 78.8359375 C13.3718474 82.80585315 13.06459671 84.86848121 15.0078125 88.5859375 C21.15468571 93.98319203 27.65795629 94.27371131 35.5703125 93.8359375 C35.0581668 90.81914581 35.0581668 90.81914581 33.10546875 88.5625 C30.72341252 85.88344439 30.55309875 82.64398228 30.0078125 79.2109375 C29.60250611 76.71888222 29.13236488 74.30190552 28.5703125 71.8359375 C27.9103125 71.5059375 27.2503125 71.1759375 26.5703125 70.8359375 Z M-50.4296875 72.8359375 C-50.4296875 73.8259375 -50.4296875 74.8159375 -50.4296875 75.8359375 C-49.7696875 74.8459375 -49.1096875 73.8559375 -48.4296875 72.8359375 C-49.0896875 72.8359375 -49.7496875 72.8359375 -50.4296875 72.8359375 Z M-38.4296875 72.8359375 C-38.0996875 73.4959375 -37.7696875 74.1559375 -37.4296875 74.8359375 C-36.7696875 74.1759375 -36.1096875 73.5159375 -35.4296875 72.8359375 C-36.4196875 72.8359375 -37.4096875 72.8359375 -38.4296875 72.8359375 Z " fill="#000000" transform="translate(63.4296875,6.1640625)"/>
<path d="M0 0 C2 1 2 1 2 1 Z " fill="#000000" transform="translate(59,3)"/>
<path d="" fill="#000000" transform="translate(0,0)"/>
</svg>
