<?xml version="1.0" encoding="UTF-8"?>
<!DOCTYPE svg PUBLIC "-//W3C//DTD SVG 1.1//EN" "http://www.w3.org/Graphics/SVG/1.1/DTD/svg11.dtd">
<svg xmlns="http://www.w3.org/2000/svg" version="1.1" width="110px" height="110px" style="shape-rendering:geometricPrecision; text-rendering:geometricPrecision; image-rendering:optimizeQuality; fill-rule:evenodd; clip-rule:evenodd" xmlns:xlink="http://www.w3.org/1999/xlink">
<g><path style="opacity:0.771" fill="#000000" d="M 58.5,3.5 C 60.4346,4.80996 62.4346,6.1433 64.5,7.5C 71.8486,4.19663 79.5152,3.02997 87.5,4C 89.3031,4.63681 90.6364,5.80348 91.5,7.5C 96.2955,7.76589 100.462,9.43256 104,12.5C 105.14,15.5282 104.306,17.6949 101.5,19C 93.6257,19.931 85.9591,21.5977 78.5,24C 82.9289,26.7545 87.0956,29.9212 91,33.5C 92.0629,36.7688 92.8963,40.1022 93.5,43.5C 104.641,47.1172 107.474,54.1172 102,64.5C 98.2635,67.114 95.0968,70.2807 92.5,74C 93.7014,74.9025 94.5348,76.0692 95,77.5C 95.2077,81.9177 95.8744,86.251 97,90.5C 101.222,93.4332 103.055,97.2666 102.5,102C 94.4715,103.356 86.8048,102.356 79.5,99C 74.8902,96.1599 73.2236,92.1599 74.5,87C 73.6667,86.8333 72.8333,86.6667 72,86.5C 68.9722,88.2657 65.8056,89.9324 62.5,91.5C 61.914,91.2907 61.414,90.9574 61,90.5C 57.6704,93.4318 54.1704,96.2651 50.5,99C 36.7863,103.635 23.1196,103.635 9.5,99C 4.90716,93.4653 3.7405,87.2986 6,80.5C 7.35131,78.981 8.85131,77.6477 10.5,76.5C 8.83333,74.5 7.16667,72.5 5.5,70.5C 4.36189,64.4445 4.86189,58.4445 7,52.5C 10.8079,50.7774 12.4746,47.7774 12,43.5C 14,39.5 16,35.5 18,31.5C 20.8333,29.3333 23.6667,27.1667 26.5,25C 20.4482,22.3253 14.1149,20.6586 7.5,20C 4.80033,19.0508 3.967,17.2175 5,14.5C 8.63127,10.5623 13.1313,8.22896 18.5,7.5C 19.3636,5.80348 20.6969,4.63681 22.5,4C 29.5931,2.90355 36.4265,3.73688 43,6.5C 46.5431,5.3131 50.0431,3.97976 53.5,2.5C 55.0709,3.30937 56.7376,3.64271 58.5,3.5 Z M 28.5,5.5 C 34.6482,6.88271 40.6482,8.88271 46.5,11.5C 47.521,12.0016 47.6877,12.6683 47,13.5C 40.4531,19.0315 32.9531,21.5315 24.5,21C 26.1667,19.8333 27.8333,18.6667 29.5,17.5C 28.6667,17.1667 27.8333,16.8333 27,16.5C 20.3553,17.9554 13.8553,17.7888 7.5,16C 8.55054,14.6152 9.88387,13.6152 11.5,13C 16.4562,11.6421 21.4562,10.4755 26.5,9.5C 25.5,8.83333 24.5,8.16667 23.5,7.5C 25.2914,6.83015 26.9581,6.16348 28.5,5.5 Z M 62.5,19.5 C 61.448,19.6495 60.448,19.4828 59.5,19C 57.7596,16.9647 55.9262,15.1314 54,13.5C 52.3593,15.1394 50.526,16.4727 48.5,17.5C 49.7401,16.027 50.7401,14.3604 51.5,12.5C 50.3523,10.8513 49.019,9.35131 47.5,8C 51.8108,5.85214 55.9775,6.01881 60,8.5C 58.7933,10.9141 58.46,13.5807 59,16.5C 60.1451,17.6364 61.3117,18.6364 62.5,19.5 Z M 76.5,6.5 C 80.0479,6.09491 83.3812,6.59491 86.5,8C 84.8659,8.49351 83.1992,8.66018 81.5,8.5C 81.5,9.5 81.5,10.5 81.5,11.5C 88.6773,10.0366 95.3439,11.2032 101.5,15C 94.6233,18.0798 87.79,17.9131 81,14.5C 77.7495,16.2051 77.9162,17.7051 81.5,19C 75.6267,19.9513 69.96,19.2847 64.5,17C 62.3843,15.8293 61.7176,14.3293 62.5,12.5C 66.9987,9.89651 71.6654,7.89651 76.5,6.5 Z M 48.5,17.5 C 47.6857,19.2726 46.3524,19.7726 44.5,19C 45.745,18.2086 47.0783,17.7086 48.5,17.5 Z M 44.5,25.5 C 55.594,24.4168 66.2607,26.2502 76.5,31C 81.9222,32.9238 84.9222,36.7571 85.5,42.5C 79.6916,43.0418 74.0249,44.2084 68.5,46C 67.6667,46.8333 66.8333,47.6667 66,48.5C 64.6779,43.6794 61.5112,41.3461 56.5,41.5C 51.8863,42.2295 47.7196,43.8962 44,46.5C 39.9312,45.9763 35.9312,45.3096 32,44.5C 27.5862,45.6974 23.0862,46.1974 18.5,46C 20.1506,41.0303 22.8173,36.697 26.5,33C 32.2074,29.5855 38.2074,27.0855 44.5,25.5 Z M 53.5,44.5 C 56.5879,44.3773 59.2546,45.3773 61.5,47.5C 59.5599,48.5284 57.5599,48.5284 55.5,47.5C 48.4922,50.4819 47.8255,49.4819 53.5,44.5 Z M 74.5,46.5 C 79.8437,46.334 85.1771,46.5006 90.5,47C 101.93,48.709 104.43,54.209 98,63.5C 97,61.8333 96,60.1667 95,58.5C 94.9916,65.0995 92.3249,70.4329 87,74.5C 86.9741,70.8917 86.1407,67.5583 84.5,64.5C 84.3914,71.0058 82.0581,76.5058 77.5,81C 75.9556,82.1871 74.2889,82.5205 72.5,82C 73.7914,78.5447 73.7914,75.0447 72.5,71.5C 71.914,71.7093 71.414,72.0426 71,72.5C 71.5251,79.294 68.8584,84.294 63,87.5C 63.0655,84.422 62.8988,81.422 62.5,78.5C 60.7768,83.0759 58.6102,87.4093 56,91.5C 56.42,87.3856 56.0866,83.3856 55,79.5C 53.5,76.6667 51.3333,74.5 48.5,73C 52.2706,69.6243 54.6039,65.4576 55.5,60.5C 57.6547,60.628 59.6547,60.128 61.5,59C 64.0216,54.9659 67.0216,51.2992 70.5,48C 72.0581,47.79 73.3915,47.29 74.5,46.5 Z M 24.5,48.5 C 30.5092,48.3338 36.5092,48.5005 42.5,49C 43.9561,49.4226 44.4561,50.2559 44,51.5C 35.2072,49.2778 26.3738,49.4445 17.5,52C 14.8941,53.9384 13.0608,56.4384 12,59.5C 11.2886,64.3557 11.6219,69.0223 13,73.5C 11.2866,72.1218 9.9533,70.4552 9,68.5C 7.98956,63.4423 8.48956,58.6089 10.5,54C 15.0456,51.5453 19.7123,49.712 24.5,48.5 Z M 50.5,51.5 C 54.7032,51.0761 58.7032,51.5761 62.5,53C 58.7757,58.1489 54.609,58.6489 50,54.5C 49.5304,53.4232 49.6971,52.4232 50.5,51.5 Z M 30.5,52.5 C 39.5916,51.3839 46.5916,54.5506 51.5,62C 49.4143,68.4185 45.0809,72.4185 38.5,74C 31.724,74.9196 25.0573,74.5863 18.5,73C 14.2856,68.7998 13.4522,63.9664 16,58.5C 17.214,56.9512 18.714,55.7845 20.5,55C 23.9913,54.262 27.3246,53.4287 30.5,52.5 Z M 44.5,75.5 C 50.634,77.2581 53.3007,81.4248 52.5,88C 51.9242,91.0702 50.5909,93.7369 48.5,96C 36.5846,100.212 24.5846,100.545 12.5,97C 8.63895,92.6723 7.47228,87.8389 9,82.5C 10.3333,83.1667 11.6667,83.8333 13,84.5C 14.7959,83.233 16.6293,83.233 18.5,84.5C 19.7481,83.9598 20.9148,83.2931 22,82.5C 23.0113,83.3366 24.1779,83.67 25.5,83.5C 25.178,85.7224 25.8446,87.5557 27.5,89C 32.6569,91.1681 37.6569,90.8348 42.5,88C 43.8333,87.3333 43.8333,86.6667 42.5,86C 39.5104,86.1522 36.5104,86.6522 33.5,87.5C 27.7325,86.4525 27.0659,83.9525 31.5,80C 35.9267,78.43 40.2601,76.93 44.5,75.5 Z M 89.5,76.5 C 90.9663,77.347 91.7996,78.6803 92,80.5C 91.2896,86.9402 93.2896,92.2735 98,96.5C 98.4828,97.448 98.6495,98.448 98.5,99.5C 92.1351,100.099 86.1351,98.9321 80.5,96C 74.9982,91.2108 75.1649,86.7108 81,82.5C 82.7064,86.0349 84.0397,89.7015 85,93.5C 86.9928,95.3782 89.1595,95.7115 91.5,94.5C 90.1349,93.059 88.6349,91.7256 87,90.5C 87.1072,86.5114 85.9405,83.0114 83.5,80C 85.6181,78.9179 87.6181,77.7512 89.5,76.5 Z M 16.5,78.5 C 17.209,77.596 18.209,77.2627 19.5,77.5C 19.3059,81.0048 18.3059,81.3382 16.5,78.5 Z M 12.5,78.5 C 14.6569,79.0533 14.4903,80.0533 12,81.5C 11.5304,80.4232 11.6971,79.4232 12.5,78.5 Z M 24.5,78.5 C 28.2434,78.4592 28.4101,79.1259 25,80.5C 24.5357,79.9056 24.369,79.2389 24.5,78.5 Z"/></g>
<g><path style="opacity:0.075" fill="#000000" d="M 58.5,3.5 C 58.8966,2.47498 59.5632,2.30831 60.5,3C 59.9056,3.46434 59.2389,3.63101 58.5,3.5 Z"/></g>
<g><path style="opacity:0.075" fill="#000000" d="M 53.5,101.5 C 54.8333,102.167 54.8333,102.167 53.5,101.5 Z"/></g>
</svg>
