<?xml version="1.0" encoding="UTF-8"?>
<!DOCTYPE svg PUBLIC "-//W3C//DTD SVG 1.1//EN" "http://www.w3.org/Graphics/SVG/1.1/DTD/svg11.dtd">
<svg xmlns="http://www.w3.org/2000/svg" version="1.1" width="110px" height="110px" style="shape-rendering:geometricPrecision; text-rendering:geometricPrecision; image-rendering:optimizeQuality; fill-rule:evenodd; clip-rule:evenodd" xmlns:xlink="http://www.w3.org/1999/xlink">
<g><path style="opacity:0.809" fill="#000000" d="M 34.5,6.5 C 35.6009,5.40168 36.9343,5.23502 38.5,6C 36.4049,6.55563 36.2382,7.05563 38,7.5C 39.5553,6.15247 41.3887,5.4858 43.5,5.5C 46.5,6.83333 49.5,6.83333 52.5,5.5C 55.1113,5.55592 57.278,6.55592 59,8.5C 62.7315,4.95024 66.7315,4.61691 71,7.5C 75.4091,4.54059 79.2425,5.20726 82.5,9.5C 84.0777,10.2978 85.7444,10.7978 87.5,11C 89.6062,14.3943 92.2728,17.2277 95.5,19.5C 95.7718,22.5437 97.1051,24.8771 99.5,26.5C 100.777,29.0341 100.777,31.5341 99.5,34C 101.536,36.2989 101.869,38.7989 100.5,41.5C 104.011,44.8927 104.344,48.5593 101.5,52.5C 104.464,55.7592 104.131,58.5925 100.5,61C 101.005,65.9757 101.339,70.9757 101.5,76C 99.3853,79.4829 97.8853,83.3163 97,87.5C 96.0754,88.0465 95.2421,88.7132 94.5,89.5C 96.1935,96.1478 93.5268,99.1478 86.5,98.5C 87.0352,101.238 86.0352,103.072 83.5,104C 80.9528,104.66 78.4528,104.493 76,103.5C 72.3525,106.161 68.6858,106.161 65,103.5C 64.5,104 64,104.5 63.5,105C 58.2565,105 53.0898,105.166 48,105.5C 45.3914,105.625 43.0581,104.958 41,103.5C 35.9119,105.723 32.2452,104.39 30,99.5C 25.7679,101.303 22.6013,100.136 20.5,96C 14.4773,95.6456 11.644,92.479 12,86.5C 9.10017,83.9429 7.93351,80.9429 8.5,77.5C 3.19894,73.4226 3.19894,69.2559 8.5,65C 7.16667,62.6667 5.83333,60.3333 4.5,58C 5.55054,56.6152 6.88387,55.6152 8.5,55C 4.5,51 4.5,47 8.5,43C 3.23306,39.2113 3.23306,35.3779 8.5,31.5C 7.42309,26.9852 9.08976,23.6518 13.5,21.5C 12.581,17.2114 14.4144,14.5447 19,13.5C 20.1618,14.1868 21.3284,14.3534 22.5,14C 21.1667,12.6667 21.1667,11.3333 22.5,10C 25.562,9.2585 28.562,9.42517 31.5,10.5C 32.3636,8.80348 33.6969,7.63681 35.5,7C 35.2716,6.60123 34.9382,6.43456 34.5,6.5 Z M 41.5,8.5 C 47.4316,9.1287 47.9316,11.1287 43,14.5C 40.4077,12.9917 39.9077,10.9917 41.5,8.5 Z M 51.5,8.5 C 53.3032,9.04641 54.9698,9.87974 56.5,11C 54.2117,13.0256 52.2117,12.6923 50.5,10C 51.056,9.61742 51.3893,9.11742 51.5,8.5 Z M 65.5,8.5 C 67.5323,9.04782 68.5323,10.3812 68.5,12.5C 66.2495,12.8186 64.2495,12.3186 62.5,11C 63.5707,10.1482 64.5707,9.31491 65.5,8.5 Z M 76.5,9.5 C 79.8606,10.2032 80.1939,11.5365 77.5,13.5C 74.4374,12.2597 74.1041,10.9264 76.5,9.5 Z M 35.5,10.5 C 37.332,11.1405 37.6653,12.1405 36.5,13.5C 35.6143,12.675 35.281,11.675 35.5,10.5 Z M 27.5,12.5 C 30.0838,13.0483 31.0838,14.715 30.5,17.5C 28.54,18.1383 26.7067,18.1383 25,17.5C 24.2938,15.0448 25.1271,13.3781 27.5,12.5 Z M 71.5,12.5 C 74.1368,14.1538 73.8034,14.6538 70.5,14C 71.056,13.6174 71.3893,13.1174 71.5,12.5 Z M 83.5,14.5 C 84.8333,14.5 86.1667,14.5 87.5,14.5C 87.5,15.5 87.5,16.5 87.5,17.5C 85.0274,17.9118 83.6941,16.9118 83.5,14.5 Z M 54.5,16.5 C 62.3031,16.1896 69.9697,17.0229 77.5,19C 93.6465,40.6747 95.4798,63.508 83,87.5C 80.8995,90.4668 78.0662,92.3002 74.5,93C 64.6461,92.4797 54.8127,92.6464 45,93.5C 25.443,91.8655 16.943,81.3655 19.5,62C 16.0775,50.1497 16.9108,38.6497 22,27.5C 23.3333,26.1667 24.6667,24.8333 26,23.5C 26.3333,23.8333 26.6667,24.1667 27,24.5C 28.214,22.9512 29.714,21.7845 31.5,21C 39.1118,18.4648 46.7784,16.9648 54.5,16.5 Z M 17.5,17.5 C 21.2459,17.6269 22.5793,19.2936 21.5,22.5C 20.1667,23.8333 18.8333,23.8333 17.5,22.5C 16.3336,20.8327 16.3336,19.166 17.5,17.5 Z M 88.5,21.5 C 90.1667,21.5 91.8333,21.5 93.5,21.5C 92.9102,25.9195 90.9102,26.5862 87.5,23.5C 87.8627,22.8165 88.1961,22.1499 88.5,21.5 Z M 14.5,25.5 C 18.3655,28.6192 18.0322,30.9525 13.5,32.5C 9.40179,29.4731 9.73513,27.1397 14.5,25.5 Z M 69.5,38.5 C 60.2927,30.1733 50.6261,29.84 40.5,37.5C 37.8563,41.1212 36.023,45.1212 35,49.5C 33.8465,36.1492 40.0131,29.1492 53.5,28.5C 58.418,29.1823 62.918,30.849 67,33.5C 68.0945,35.0779 68.9278,36.7446 69.5,38.5 Z M 92.5,29.5 C 94.288,29.2148 95.9547,29.5481 97.5,30.5C 95.7369,32.9361 93.7369,33.1027 91.5,31C 92.056,30.6174 92.3893,30.1174 92.5,29.5 Z M 8.5,35.5 C 11.5242,35.3642 13.0242,36.6975 13,39.5C 10.5068,40.9455 8.67345,40.2789 7.5,37.5C 7.86273,36.8165 8.19607,36.1499 8.5,35.5 Z M 65.5,40.5 C 61.4929,37.9641 57.4929,37.9641 53.5,40.5C 49.1039,38.2598 45.1039,38.9265 41.5,42.5C 43.972,37.0946 48.3053,34.7613 54.5,35.5C 57.2586,35.542 59.9253,36.042 62.5,37C 64.4257,37.4224 65.4257,38.5891 65.5,40.5 Z M 94.5,37.5 C 95.9778,37.238 97.3112,37.5713 98.5,38.5C 96.5365,41.1939 95.2032,40.8606 94.5,37.5 Z M 57.5,41.5 C 62.5127,41.8815 65.0127,44.5482 65,49.5C 61.8366,48.9712 58.6699,48.6379 55.5,48.5C 54.1387,45.5842 54.8053,43.2509 57.5,41.5 Z M 46.5,42.5 C 50.8922,42.5255 52.8922,44.8588 52.5,49.5C 49.1401,49.6159 45.8067,49.9492 42.5,50.5C 42.7759,47.2814 44.1093,44.6148 46.5,42.5 Z M 97.5,45.5 C 100.861,46.2032 101.194,47.5365 98.5,49.5C 96.3576,48.5629 96.0243,47.2296 97.5,45.5 Z M 8.5,46.5 C 12.0289,45.8894 13.8622,47.2227 14,50.5C 9.5112,53.5427 7.67786,52.2093 8.5,46.5 Z M 39.5,46.5 C 39.7852,48.288 39.4519,49.9547 38.5,51.5C 37.3664,49.5615 37.6997,47.8948 39.5,46.5 Z M 53.5,52.5 C 58.5111,52.3341 63.5111,52.5007 68.5,53C 71.0932,53.6063 72.7598,55.1063 73.5,57.5C 74.5331,72.1215 67.8664,79.7882 53.5,80.5C 42.8455,80.3449 36.6788,75.0116 35,64.5C 34.502,61.5184 34.3354,58.5184 34.5,55.5C 40.9195,54.2244 47.2528,53.2244 53.5,52.5 Z M 96.5,54.5 C 98.1958,54.6854 99.5291,55.5187 100.5,57C 97.691,59.0564 96.3577,58.2231 96.5,54.5 Z M 10.5,57.5 C 11.7079,58.2341 13.0413,58.5674 14.5,58.5C 14.5,60.1667 14.5,61.8333 14.5,63.5C 11.1668,64.1667 9.16682,62.8333 8.5,59.5C 9.24269,58.8182 9.90935,58.1515 10.5,57.5 Z M 50.5,67.5 C 53.1873,67.6641 55.854,67.4974 58.5,67C 62.5084,66.5096 63.1751,65.0096 60.5,62.5C 59.914,62.7093 59.414,63.0426 59,63.5C 56.9307,62.7362 54.764,62.2362 52.5,62C 55.8333,61.3333 59.1667,61.3333 62.5,62C 65.3264,64.5219 64.9931,66.5219 61.5,68C 57.6425,68.8099 53.9758,68.6433 50.5,67.5 Z M 49.5,63.5 C 49.4326,64.9587 49.7659,66.2921 50.5,67.5C 48.7483,67.5824 47.7483,66.7491 47.5,65C 47.8361,63.9701 48.5028,63.4701 49.5,63.5 Z M 95.5,64.5 C 98.5688,64.963 99.0688,66.2963 97,68.5C 94.6275,67.6828 94.1275,66.3495 95.5,64.5 Z M 8.5,68.5 C 13.1225,67.4082 14.9558,69.0748 14,73.5C 10.5944,75.288 8.0944,74.4547 6.5,71C 7.38053,70.2917 8.0472,69.4584 8.5,68.5 Z M 94.5,73.5 C 95.8333,73.5 97.1667,73.5 98.5,73.5C 98.5,74.5 98.5,75.5 98.5,76.5C 97.1266,76.6567 95.7932,76.49 94.5,76C 93.4019,75.2303 93.4019,74.397 94.5,73.5 Z M 12.5,78.5 C 15.4872,78.9478 16.4872,80.4478 15.5,83C 12.0414,83.1454 11.0414,81.6454 12.5,78.5 Z M 92.5,82.5 C 93.5862,82.62 94.2528,83.2867 94.5,84.5C 93.6964,86.9573 92.6964,86.9573 91.5,84.5C 91.8627,83.8165 92.1961,83.1499 92.5,82.5 Z M 16.5,87.5 C 20.4909,87.6478 21.3243,89.3145 19,92.5C 17.9887,91.6634 16.8221,91.33 15.5,91.5C 15.4326,90.0413 15.7659,88.7079 16.5,87.5 Z M 88.5,90.5 C 92.1612,90.3501 93.1612,91.8501 91.5,95C 86.503,95.7871 85.503,94.2871 88.5,90.5 Z M 23.5,94.5 C 25.1667,94.5 26.8333,94.5 28.5,94.5C 28.5,95.5 28.5,96.5 28.5,97.5C 25.9664,97.7409 24.2998,96.7409 23.5,94.5 Z M 53.5,96.5 C 55.9752,96.7467 55.9752,97.4134 53.5,98.5C 52.537,98.0302 52.537,97.3635 53.5,96.5 Z M 34.5,97.5 C 37.9496,96.7564 39.6162,98.0897 39.5,101.5C 37.8008,101.66 36.1341,101.494 34.5,101C 33.3157,99.8545 33.3157,98.6879 34.5,97.5 Z M 79.5,97.5 C 82.694,97.1756 83.694,98.3422 82.5,101C 81.2068,101.49 79.8734,101.657 78.5,101.5C 78.4326,100.041 78.7659,98.7079 79.5,97.5 Z M 46.5,98.5 C 49.3721,98.6354 50.8721,99.9688 51,102.5C 48.482,104.028 46.3153,103.694 44.5,101.5C 45.1925,100.482 45.8592,99.4822 46.5,98.5 Z M 58.5,98.5 C 62.9612,99.0483 63.4612,100.715 60,103.5C 54.7899,102.732 54.2899,101.065 58.5,98.5 Z M 68.5,98.5 C 70.4835,98.3832 72.1502,99.0499 73.5,100.5C 72.1311,102.124 70.4645,102.624 68.5,102C 67.3157,100.855 67.3157,99.6879 68.5,98.5 Z"/></g>
<g><path style="opacity:0.522" fill="#000000" d="M 45.5,19.5 C 48.5688,19.963 49.0688,21.2963 47,23.5C 45.8118,22.4366 45.3118,21.1033 45.5,19.5 Z"/></g>
<g><path style="opacity:0.686" fill="#000000" d="M 53.5,19.5 C 56.5476,19.494 57.0476,20.494 55,22.5C 53.9614,21.7562 53.4614,20.7562 53.5,19.5 Z"/></g>
<g><path style="opacity:0.69" fill="#000000" d="M 62.5,20.5 C 63.675,20.281 64.675,20.6143 65.5,21.5C 63.9483,22.7979 62.9483,22.4646 62.5,20.5 Z"/></g>
<g><path style="opacity:0.592" fill="#000000" d="M 36.5,21.5 C 37.5,21.5 38.5,21.5 39.5,21.5C 39.5,22.5 39.5,23.5 39.5,24.5C 38.5,24.5 37.5,24.5 36.5,24.5C 36.5,23.5 36.5,22.5 36.5,21.5 Z"/></g>
<g><path style="opacity:0.603" fill="#000000" d="M 71.5,23.5 C 72.5,23.5 73.5,23.5 74.5,23.5C 74.5,24.5 74.5,25.5 74.5,26.5C 73.5,26.5 72.5,26.5 71.5,26.5C 71.5,25.5 71.5,24.5 71.5,23.5 Z"/></g>
<g><path style="opacity:0.616" fill="#000000" d="M 31.5,25.5 C 33.9732,25.9473 34.1399,26.9473 32,28.5C 30.2716,27.6477 30.105,26.6477 31.5,25.5 Z"/></g>
<g><path style="opacity:0.765" fill="#000000" d="M 48.5,25.5 C 60.9362,23.6797 69.7695,28.3463 75,39.5C 77.246,51.2569 76.9127,62.9236 74,74.5C 69.7435,81.6633 63.4102,84.6633 55,83.5C 38.9388,83.4391 30.7721,75.2724 30.5,59C 30.8741,50.7014 32.0407,42.5347 34,34.5C 37.8338,29.7401 42.6671,26.7401 48.5,25.5 Z M 69.5,38.5 C 68.9278,36.7446 68.0945,35.0779 67,33.5C 62.918,30.849 58.418,29.1823 53.5,28.5C 40.0131,29.1492 33.8465,36.1492 35,49.5C 36.023,45.1212 37.8563,41.1212 40.5,37.5C 50.6261,29.84 60.2927,30.1733 69.5,38.5 Z M 65.5,40.5 C 61.4929,37.9641 57.4929,37.9641 53.5,40.5C 49.1039,38.2598 45.1039,38.9265 41.5,42.5C 43.972,37.0946 48.3053,34.7613 54.5,35.5C 57.2586,35.542 59.9253,36.042 62.5,37C 64.4257,37.4224 65.4257,38.5891 65.5,40.5 Z M 57.5,41.5 C 54.8053,43.2509 54.1387,45.5842 55.5,48.5C 58.6699,48.6379 61.8366,48.9712 65,49.5C 65.0127,44.5482 62.5127,41.8815 57.5,41.5 Z M 46.5,42.5 C 44.1093,44.6148 42.7759,47.2814 42.5,50.5C 45.8067,49.9492 49.1401,49.6159 52.5,49.5C 52.8922,44.8588 50.8922,42.5255 46.5,42.5 Z M 39.5,46.5 C 37.6997,47.8948 37.3664,49.5615 38.5,51.5C 39.4519,49.9547 39.7852,48.288 39.5,46.5 Z M 53.5,52.5 C 47.2528,53.2244 40.9195,54.2244 34.5,55.5C 34.3354,58.5184 34.502,61.5184 35,64.5C 36.6788,75.0116 42.8455,80.3449 53.5,80.5C 67.8664,79.7882 74.5331,72.1215 73.5,57.5C 72.7598,55.1063 71.0932,53.6063 68.5,53C 63.5111,52.5007 58.5111,52.3341 53.5,52.5 Z M 50.5,67.5 C 53.9758,68.6433 57.6425,68.8099 61.5,68C 64.9931,66.5219 65.3264,64.5219 62.5,62C 59.1667,61.3333 55.8333,61.3333 52.5,62C 54.764,62.2362 56.9307,62.7362 59,63.5C 59.414,63.0426 59.914,62.7093 60.5,62.5C 63.1751,65.0096 62.5084,66.5096 58.5,67C 55.854,67.4974 53.1873,67.6641 50.5,67.5 Z M 49.5,63.5 C 49.4326,64.9587 49.7659,66.2921 50.5,67.5C 48.7483,67.5824 47.7483,66.7491 47.5,65C 47.8361,63.9701 48.5028,63.4701 49.5,63.5 Z"/></g>
<g><path style="opacity:0.639" fill="#000000" d="M 78.5,29.5 C 82.31,30.7542 82.31,31.7542 78.5,32.5C 78.5,31.5 78.5,30.5 78.5,29.5 Z"/></g>
<g><path style="opacity:0.722" fill="#000000" d="M 26.5,30.5 C 27.9778,30.238 29.3112,30.5713 30.5,31.5C 29.6798,33.1112 28.3464,33.7778 26.5,33.5C 26.5,32.5 26.5,31.5 26.5,30.5 Z"/></g>
<g><path style="opacity:0.561" fill="#000000" d="M 81.5,36.5 C 83.4646,36.9483 83.7979,37.9483 82.5,39.5C 81.6143,38.675 81.281,37.675 81.5,36.5 Z"/></g>
<g><path style="opacity:0.796" fill="#000000" d="M 23.5,37.5 C 24.5,37.5 25.5,37.5 26.5,37.5C 26.5,38.5 26.5,39.5 26.5,40.5C 25.5,40.5 24.5,40.5 23.5,40.5C 23.5,39.5 23.5,38.5 23.5,37.5 Z"/></g>
<g><path style="opacity:0.539" fill="#000000" d="M 82.5,43.5 C 83.675,43.281 84.675,43.6143 85.5,44.5C 83.9483,45.7979 82.9483,45.4646 82.5,43.5 Z"/></g>
<g><path style="opacity:0.778" fill="#000000" d="M 23.5,46.5 C 24.5,46.5 25.5,46.5 26.5,46.5C 26.5,47.5 26.5,48.5 26.5,49.5C 25.1266,49.6567 23.7932,49.49 22.5,49C 23.2524,48.3292 23.5858,47.4959 23.5,46.5 Z"/></g>
<g><path style="opacity:0.568" fill="#000000" d="M 83.5,51.5 C 84.9953,51.4148 85.9953,52.0815 86.5,53.5C 85.6798,55.1112 84.3464,55.7778 82.5,55.5C 82.4326,54.0413 82.7659,52.7079 83.5,51.5 Z"/></g>
<g><path style="opacity:0.691" fill="#000000" d="M 22.5,56.5 C 23.9778,56.238 25.3112,56.5713 26.5,57.5C 24.5365,60.1939 23.2032,59.8606 22.5,56.5 Z"/></g>
<g><path style="opacity:0.748" fill="#000000" d="M 54.5,57.5 C 59.7311,57.3704 64.2311,59.037 68,62.5C 68.6829,66.8396 66.8495,69.673 62.5,71C 56.4376,72.9549 50.7709,72.1215 45.5,68.5C 42.6991,65.0361 43.3657,62.2028 47.5,60C 50.0037,59.3024 52.337,58.4691 54.5,57.5 Z M 50.5,67.5 C 53.9758,68.6433 57.6425,68.8099 61.5,68C 64.9931,66.5219 65.3264,64.5219 62.5,62C 59.1667,61.3333 55.8333,61.3333 52.5,62C 54.764,62.2362 56.9307,62.7362 59,63.5C 59.414,63.0426 59.914,62.7093 60.5,62.5C 63.1751,65.0096 62.5084,66.5096 58.5,67C 55.854,67.4974 53.1873,67.6641 50.5,67.5 Z M 49.5,63.5 C 49.4326,64.9587 49.7659,66.2921 50.5,67.5C 48.7483,67.5824 47.7483,66.7491 47.5,65C 47.8361,63.9701 48.5028,63.4701 49.5,63.5 Z"/></g>
<g><path style="opacity:0.687" fill="#000000" d="M 80.5,61.5 C 81.8333,61.5 83.1667,61.5 84.5,61.5C 84.7778,63.3464 84.1112,64.6798 82.5,65.5C 80.8888,64.6798 80.2222,63.3464 80.5,61.5 Z"/></g>
<g><path style="opacity:0.627" fill="#000000" d="M 24.5,65.5 C 25.9953,65.4148 26.9953,66.0815 27.5,67.5C 26.6798,69.1112 25.3464,69.7778 23.5,69.5C 23.4326,68.0413 23.7659,66.7079 24.5,65.5 Z"/></g>
<g><path style="opacity:0.648" fill="#000000" d="M 81.5,70.5 C 82.5,70.5 83.5,70.5 84.5,70.5C 84.5,71.5 84.5,72.5 84.5,73.5C 83.5,73.5 82.5,73.5 81.5,73.5C 81.5,72.5 81.5,71.5 81.5,70.5 Z"/></g>
<g><path style="opacity:0.611" fill="#000000" d="M 25.5,74.5 C 26.9778,74.238 28.3112,74.5713 29.5,75.5C 27.5365,78.1939 26.2032,77.8606 25.5,74.5 Z"/></g>
<g><path style="opacity:0.433" fill="#000000" d="M 31.5,80.5 C 33.3547,80.272 34.1881,80.9387 34,82.5C 31.3655,83.6922 30.5322,83.0256 31.5,80.5 Z"/></g>
<g><path style="opacity:0.8" fill="#000000" d="M 75.5,80.5 C 79.0749,81.2068 79.2416,82.2068 76,83.5C 74.3167,82.8235 74.1501,81.8235 75.5,80.5 Z"/></g>
<g><path style="opacity:0.639" fill="#000000" d="M 37.5,83.5 C 39.4759,84.4271 39.8092,85.7605 38.5,87.5C 36.3576,86.5629 36.0243,85.2296 37.5,83.5 Z"/></g>
<g><path style="opacity:0.586" fill="#000000" d="M 45.5,85.5 C 46.5,85.5 47.5,85.5 48.5,85.5C 48.5,86.5 48.5,87.5 48.5,88.5C 47.5,88.5 46.5,88.5 45.5,88.5C 45.5,87.5 45.5,86.5 45.5,85.5 Z"/></g>
<g><path style="opacity:0.525" fill="#000000" d="M 56.5,85.5 C 57.5,85.5 58.5,85.5 59.5,85.5C 59.5,86.5 59.5,87.5 59.5,88.5C 58.5,88.5 57.5,88.5 56.5,88.5C 56.5,87.5 56.5,86.5 56.5,85.5 Z"/></g>
<g><path style="opacity:0.63" fill="#000000" d="M 65.5,85.5 C 66.5,85.5 67.5,85.5 68.5,85.5C 68.5,86.5 68.5,87.5 68.5,88.5C 67.5,88.5 66.5,88.5 65.5,88.5C 65.5,87.5 65.5,86.5 65.5,85.5 Z"/></g>
<g><path style="opacity:0.075" fill="#000000" d="M 103.5,101.5 C 104.833,102.167 104.833,102.167 103.5,101.5 Z"/></g>
</svg>
