<?xml version="1.0" encoding="UTF-8"?>
<svg version="1.1" xmlns="http://www.w3.org/2000/svg" width="110" height="110">
<path d="M0 0 C0.804375 0.185625 1.60875 0.37125 2.4375 0.5625 C3.283125 0.706875 4.12875 0.85125 5 1 C5.33 0.67 5.66 0.34 6 0 C8.45088882 -0.12712692 10.86110545 -0.18520683 13.3125 -0.1875 C13.98990234 -0.19974609 14.66730469 -0.21199219 15.36523438 -0.22460938 C19.08441947 -0.23551608 21.84344986 -0.05297477 25 2 C25.66 1.34 26.32 0.68 27 0 C29.70269766 -0.08579993 32.30753896 -0.09596891 35 0 C36.98015326 0 38.96136826 -0.06136393 40.9375 -0.1875 C44.35469864 0.02171624 45.60651011 0.60651011 48 3 C48 3.66 48 4.32 48 5 C49.11375 4.8453125 49.11375 4.8453125 50.25 4.6875 C53 5 53 5 55.3125 7.375 C57 10 57 10 57 12 C58.32 12.33 59.64 12.66 61 13 C61.495 16.465 61.495 16.465 62 20 C63.98 20.495 63.98 20.495 66 21 C65.979375 22.19625 65.95875 23.3925 65.9375 24.625 C65.94513018 28.94367998 65.99755539 33.11304544 68.0625 37 C69.81157384 40.73135752 69.26875592 44.19373223 68 48 C68.2784375 49.2375 68.2784375 49.2375 68.5625 50.5 C69 53 69 53 67 56 C66.72598982 58.02921669 66.72598982 58.02921669 66.8046875 60.23046875 C66.81113281 61.03291016 66.81757812 61.83535156 66.82421875 62.66210938 C66.84097656 63.49548828 66.85773438 64.32886719 66.875 65.1875 C66.88402344 66.03248047 66.89304687 66.87746094 66.90234375 67.74804688 C66.92589297 69.83215243 66.96176353 71.91611217 67 74 C66.01 74.495 66.01 74.495 65 75 C64.5359375 76.7325 64.5359375 76.7325 64.0625 78.5 C63.711875 79.655 63.36125 80.81 63 82 C61.515 82.495 61.515 82.495 60 83 C60.226875 84.093125 60.45375 85.18625 60.6875 86.3125 C61 90 61 90 59.9375 91.9375 C57.23787512 93.41793945 55.02429981 93.20161999 52 93 C51.87625 93.804375 51.7525 94.60875 51.625 95.4375 C51.41875 96.283125 51.2125 97.12875 51 98 C48.59511789 99.20244106 47.10949969 99.06862279 44.4375 99 C42.95881779 98.96214574 41.47844212 98.95370827 40 99 C39.67 99.33 39.34 99.66 39 100 C35.63370749 100.14636054 33.21580438 100.07193479 30 99 C29.67 99.33 29.34 99.66 29 100 C27.55869931 100.09888535 26.11265623 100.13079377 24.66796875 100.1328125 C23.78689453 100.13410156 22.90582031 100.13539062 21.99804688 100.13671875 C21.07056641 100.13285156 20.14308594 100.12898438 19.1875 100.125 C18.27162109 100.12886719 17.35574219 100.13273437 16.41210938 100.13671875 C15.52716797 100.13542969 14.64222656 100.13414063 13.73046875 100.1328125 C12.91989014 100.13168457 12.10931152 100.13055664 11.27416992 100.12939453 C9.05276801 100.00300237 7.14852171 99.54510178 5 99 C4.01 99.061875 3.02 99.12375 2 99.1875 C-1.83831943 98.94760504 -2.35626476 97.64373524 -5 95 C-7.32914823 94.63858045 -9.66253478 94.30300475 -12 94 C-12.66 93.01 -13.32 92.02 -14 91 C-15.134375 90.608125 -16.26875 90.21625 -17.4375 89.8125 C-21.48836921 87.75153146 -21.48836921 87.75153146 -22.75 84.25 C-23.16808114 82.83375012 -23.58473868 81.41707925 -24 80 C-24.5662152 78.70073833 -25.14859624 77.40835267 -25.75 76.125 C-26.1625 75.09375 -26.575 74.0625 -27 73 C-26.505 72.01 -26.505 72.01 -26 71 C-27.32 70.34 -28.64 69.68 -30 69 C-30.36923077 63.58461538 -30.36923077 63.58461538 -28.5 60.625 C-28.005 60.08875 -27.51 59.5525 -27 59 C-28.485 55.535 -28.485 55.535 -30 52 C-29.01 51.01 -28.02 50.02 -27 49 C-27.66 48.34 -28.32 47.68 -29 47 C-29.31537716 42.66356399 -29.44897847 40.67346771 -27 37 C-27.515625 36.608125 -28.03125 36.21625 -28.5625 35.8125 C-30 34 -30 34 -29.8125 31.5625 C-29.06394908 29.20168556 -28.10358943 27.20717887 -27 25 C-26.7834375 23.7315625 -26.7834375 23.7315625 -26.5625 22.4375 C-25.92829714 19.68928762 -25.22310614 18.68956067 -23 17 C-22.34 17 -21.68 17 -21 17 C-21.268125 16.443125 -21.53625 15.88625 -21.8125 15.3125 C-22 13 -22 13 -19.8125 10.25 C-17 8 -17 8 -13 8 C-12.67 6.68 -12.34 5.36 -12 4 C-4.25 3.875 -4.25 3.875 -2 5 C-1.34 3.35 -0.68 1.7 0 0 Z M7 3 C6.67 4.65 6.34 6.3 6 8 C6.99 8.33 7.98 8.66 9 9 C9.99 8.34 10.98 7.68 12 7 C11.67 5.68 11.34 4.36 11 3 C9.68 3 8.36 3 7 3 Z M17 3 C17 3.99 17 4.98 17 6 C18.98 6.495 18.98 6.495 21 7 C21 6.01 21 5.02 21 4 C19.68 3.67 18.36 3.34 17 3 Z M31 3 C30.01 3.99 29.02 4.98 28 6 C29.06645115 7.29633621 29.06645115 7.29633621 31.5625 7.0625 C32.366875 7.041875 33.17125 7.02125 34 7 C34 6.01 34 5.02 34 4 C33.01 3.67 32.02 3.34 31 3 Z M42 4 C41.34 4.66 40.68 5.32 40 6 C41.98 6.99 41.98 6.99 44 8 C44 6.68 44 5.36 44 4 C43.34 4 42.68 4 42 4 Z M1 5 C1 5.99 1 6.98 1 8 C1.66 8 2.32 8 3 8 C2.67 7.01 2.34 6.02 2 5 C1.67 5 1.34 5 1 5 Z M-10 9 C-9.67 10.32 -9.34 11.64 -9 13 C-7.35 12.67 -5.7 12.34 -4 12 C-4.33 10.35 -4.66 8.7 -5 7 C-7.32357511 6.81509993 -7.32357511 6.81509993 -10 9 Z M37 7 C36.67 7.66 36.34 8.32 36 9 C36.99 8.67 37.98 8.34 39 8 C38.34 7.67 37.68 7.34 37 7 Z M49 9 C49.33 9.99 49.66 10.98 50 12 C50.99 12 51.98 12 53 12 C53 11.01 53 10.02 53 9 C51.68 9 50.36 9 49 9 Z M-12.75 21.9375 C-20.63622414 34.94976983 -17.45268672 57.05511839 -14.79296875 71.43359375 C-13.49874488 75.62228874 -11.31009093 79.1096096 -8 82 C-5.89406626 82.73884991 -5.89406626 82.73884991 -4 83 C-4 83.66 -4 84.32 -4 85 C5.00357066 87.53559341 13.57275674 88.47871642 22.89575195 88.39111328 C24.96044994 88.37481888 27.02324612 88.39117213 29.08789062 88.41015625 C30.42187925 88.40817676 31.75586671 88.40433918 33.08984375 88.3984375 C34.27441162 88.39505371 35.45897949 88.39166992 36.67944336 88.38818359 C41.50618365 87.82392236 44.80994135 86.21112164 48.20703125 82.75390625 C50.27571269 79.57651972 51.47078291 76.52623968 52.6875 72.9375 C53.10386719 71.72964844 53.52023438 70.52179688 53.94921875 69.27734375 C59.70347456 51.33005519 56.22548179 35.26698892 48.03051758 18.81933594 C46.20356994 15.59393584 44.34644637 13.5256844 40.87890625 12.171875 C24.9611947 9.27286514 -0.90819172 8.82692654 -12.75 21.9375 Z M-17 12 C-17.33 13.65 -17.66 15.3 -18 17 C-14.95086772 18.01111093 -14.95086772 18.01111093 -12 17 C-12.33 15.68 -12.66 14.36 -13 13 C-14.32 12.67 -15.64 12.34 -17 12 Z M54 16 C53.67 16.99 53.34 17.98 53 19 C55.475 19.495 55.475 19.495 58 20 C58.33 18.68 58.66 17.36 59 16 C57.35 16 55.7 16 54 16 Z M-24 22 C-23.73323796 23.98491642 -23.73323796 23.98491642 -23 26 C-22.01 26.33 -21.02 26.66 -20 27 C-19.01 26.01 -18.02 25.02 -17 24 C-17.66 22.68 -18.32 21.36 -19 20 C-20.84046388 20 -22.39629594 21.17228177 -24 22 Z M58 24 C58 24.99 58 25.98 58 27 C59.65 26.67 61.3 26.34 63 26 C63 25.34 63 24.68 63 24 C61.35 24 59.7 24 58 24 Z M-26 30 C-26 31.32 -26 32.64 -26 34 C-24.02 34.495 -24.02 34.495 -22 35 C-22 33.68 -22 32.36 -22 31 C-23.32 30.67 -24.64 30.34 -26 30 Z M60 32 C60.33 32.99 60.66 33.98 61 35 C61.99 34.67 62.98 34.34 64 34 C64 33.34 64 32.68 64 32 C62.68 32 61.36 32 60 32 Z M59 37 C60 39 60 39 60 39 Z M63 40 C63 41.32 63 42.64 63 44 C63.99 43.67 64.98 43.34 66 43 C65.67 42.01 65.34 41.02 65 40 C64.34 40 63.68 40 63 40 Z M-26 41 C-26 42.65 -26 44.3 -26 46 C-24.68 46.33 -23.36 46.66 -22 47 C-21.34 45.68 -20.68 44.36 -20 43 C-20.66 42.34 -21.32 41.68 -22 41 C-23.32 41 -24.64 41 -26 41 Z M62 49 C62.33 50.32 62.66 51.64 63 53 C63.99 52.67 64.98 52.34 66 52 C65.34 51.01 64.68 50.02 64 49 C63.34 49 62.68 49 62 49 Z M-26 53 C-25.34 54.65 -24.68 56.3 -24 58 C-22.68 58 -21.36 58 -20 58 C-20 56.35 -20 54.7 -20 53 C-23.04913228 51.98888907 -23.04913228 51.98888907 -26 53 Z M61 59 C60.67 59.99 60.34 60.98 60 62 C60.99 62.33 61.98 62.66 63 63 C63 61.68 63 60.36 63 59 C62.34 59 61.68 59 61 59 Z M-26 63 C-26.99 64.485 -26.99 64.485 -28 66 C-27.01 67.485 -27.01 67.485 -26 69 C-23.41619823 69.25030977 -23.41619823 69.25030977 -21 69 C-20.61781233 67.34385343 -20.28604898 65.67542976 -20 64 C-21.05429686 62.73527935 -21.05429686 62.73527935 -23.4375 62.75 C-24.283125 62.8325 -25.12875 62.915 -26 63 Z M60 68 C60 68.99 60 69.98 60 71 C61.32 71 62.64 71 64 71 C64 70.01 64 69.02 64 68 C62.68 68 61.36 68 60 68 Z M-22 73 C-22.33 74.32 -22.66 75.64 -23 77 C-21.68 77.33 -20.36 77.66 -19 78 C-19 76.68 -19 75.36 -19 74 C-19.99 73.67 -20.98 73.34 -22 73 Z M58 77 C58 78.32 58 79.64 58 81 C58.66 81 59.32 81 60 81 C60 79.68 60 78.36 60 77 C59.34 77 58.68 77 58 77 Z M-18 82 C-18.33 83.32 -18.66 84.64 -19 86 C-17.68 86.33 -16.36 86.66 -15 87 C-14.67 85.68 -14.34 84.36 -14 83 C-15.32 82.67 -16.64 82.34 -18 82 Z M52 86 C52.33 87.32 52.66 88.64 53 90 C54.65 89.67 56.3 89.34 58 89 C57.67 87.68 57.34 86.36 57 85 C54.0745356 84.7763932 54.0745356 84.7763932 52 86 Z M-11 89 C-11 89.66 -11 90.32 -11 91 C-8.525 91.495 -8.525 91.495 -6 92 C-6 91.01 -6 90.02 -6 89 C-7.65 89 -9.3 89 -11 89 Z M19 91 C18.67 91.66 18.34 92.32 18 93 C18.99 92.67 19.98 92.34 21 92 C20.34 91.67 19.68 91.34 19 91 Z M0 92 C0 93.32 0 94.64 0 96 C1.65 96 3.3 96 5 96 C4.67 94.68 4.34 93.36 4 92 C2.68 92 1.36 92 0 92 Z M45 92 C44.67 93.32 44.34 94.64 44 96 C45.65 95.67 47.3 95.34 49 95 C48.67 94.01 48.34 93.02 48 92 C47.01 92 46.02 92 45 92 Z M12 93 C11.34 94.32 10.68 95.64 10 97 C11.06645115 98.29633621 11.06645115 98.29633621 13.5625 98.0625 C14.366875 98.041875 15.17125 98.02125 16 98 C16 96.68 16 95.36 16 94 C14.68 93.67 13.36 93.34 12 93 Z M21 95 C21 95.66 21 96.32 21 97 C24.58327753 98.00217064 24.58327753 98.00217064 28 97 C27.67 95.68 27.34 94.36 27 93 C23.81509993 92.7226499 23.81509993 92.7226499 21 95 Z M34 93 C34 94.32 34 95.64 34 97 C35.65 96.67 37.3 96.34 39 96 C39 95.34 39 94.68 39 94 C37.35 93.67 35.7 93.34 34 93 Z " fill="#000000" transform="translate(35,6)"/>
<path d="M0 0 C5.38040763 3.74744344 8.45922585 9.11962252 10.0078125 15.3984375 C10.31765887 19.3598587 10.33240738 23.30148 10.3203125 27.2734375 C10.33642578 28.32402344 10.35253906 29.37460937 10.36914062 30.45703125 C10.37398143 38.19264271 9.44323354 44.42138659 4.6953125 50.7734375 C-0.01816536 55.37729959 -4.96427815 55.69113469 -11.3671875 55.7109375 C-23.58928102 55.49546474 -23.58928102 55.49546474 -28.73046875 50.81640625 C-35.76627838 43.10892028 -36.08764023 34.64740971 -35.93359375 24.5625 C-35.52382729 16.18319396 -35.04043271 9.43287969 -29.8671875 2.5859375 C-21.32783781 -3.91139379 -9.57898011 -4.84098995 0 0 Z M-27.9921875 5.3984375 C-30.90684474 10.60318258 -31.60397828 15.49497999 -31.9921875 21.3984375 C-31.70601562 20.81320313 -31.41984375 20.22796875 -31.125 19.625 C-30.10635967 17.62284487 -29.01490331 15.70330038 -27.8671875 13.7734375 C-25.83030652 10.75052863 -25.83030652 10.75052863 -25.9921875 8.3984375 C-11.84478641 3.08062007 -11.84478641 3.08062007 -5.75390625 5.1640625 C-2.6501559 6.68472995 0.131481 8.48088316 3.0078125 10.3984375 C1.71884232 6.42411279 0.5379897 4.62091428 -2.9921875 2.3984375 C-11.29901501 -0.28329422 -21.0094968 -0.55738692 -27.9921875 5.3984375 Z M-24.9921875 12.3984375 C-24.6621875 13.0584375 -24.3321875 13.7184375 -23.9921875 14.3984375 C-23.3321875 13.7384375 -22.6721875 13.0784375 -21.9921875 12.3984375 C-16.86665859 11.17276754 -16.86665859 11.17276754 -14.0546875 11.8984375 C-11.76967121 12.58728784 -11.76967121 12.58728784 -8.4921875 11.8984375 C-5.42813748 11.46071607 -3.83135938 11.37633562 -0.9921875 12.3984375 C-1.6625962 9.31454483 -1.6625962 9.31454483 -3.9296875 8.2109375 C-11.39968738 6.2291008 -19.63072848 6.19043232 -24.9921875 12.3984375 Z M3.0078125 10.3984375 C4.0078125 12.3984375 4.0078125 12.3984375 4.0078125 12.3984375 Z M4.0078125 12.3984375 C5.0078125 14.3984375 5.0078125 14.3984375 5.0078125 14.3984375 Z M-10.7421875 14.5859375 C-12.29058173 16.40515197 -12.29058173 16.40515197 -11.6796875 19.0859375 C-11.4528125 19.8490625 -11.2259375 20.6121875 -10.9921875 21.3984375 C-7.6921875 21.3984375 -4.3921875 21.3984375 -0.9921875 21.3984375 C-2.26165264 16.57401566 -2.26165264 16.57401566 -5.9921875 13.3984375 C-8.9309272 13.11768679 -8.9309272 13.11768679 -10.7421875 14.5859375 Z M-25.9921875 14.3984375 C-24.9921875 16.3984375 -24.9921875 16.3984375 -24.9921875 16.3984375 Z M-19.9921875 14.3984375 C-23.23934812 17.88627264 -23.23934812 17.88627264 -23.9921875 22.3984375 C-20.6921875 22.0684375 -17.3921875 21.7384375 -13.9921875 21.3984375 C-14.3221875 19.4184375 -14.6521875 17.4384375 -14.9921875 15.3984375 C-16.6421875 15.0684375 -18.2921875 14.7384375 -19.9921875 14.3984375 Z M5.0078125 14.3984375 C6.0078125 17.3984375 6.0078125 17.3984375 6.0078125 17.3984375 Z M-26.9921875 16.3984375 C-25.9921875 18.3984375 -25.9921875 18.3984375 -25.9921875 18.3984375 Z M1.0078125 16.3984375 C2.0078125 18.3984375 2.0078125 18.3984375 2.0078125 18.3984375 Z M-27.9921875 18.3984375 C-28.3221875 20.0484375 -28.6521875 21.6984375 -28.9921875 23.3984375 C-28.3321875 23.3984375 -27.6721875 23.3984375 -26.9921875 23.3984375 C-26.9921875 21.7484375 -26.9921875 20.0984375 -26.9921875 18.3984375 C-27.3221875 18.3984375 -27.6521875 18.3984375 -27.9921875 18.3984375 Z M6.0078125 18.3984375 C7.0078125 21.3984375 7.0078125 21.3984375 7.0078125 21.3984375 Z M2.0078125 19.3984375 C3.0078125 21.3984375 3.0078125 21.3984375 3.0078125 21.3984375 Z M-31.9921875 27.3984375 C-32.45598231 34.58725709 -31.4886109 40.03609329 -27.9921875 46.3984375 C-24.43296688 50.35312708 -20.21206289 51.82652072 -14.9921875 52.3984375 C-9.57316665 52.32305699 -3.87474386 51.83971568 1.0078125 49.3984375 C5.73136019 44.4124705 6.5476379 38.1025498 7.0078125 31.3984375 C6.92317015 28.68821612 6.92317015 28.68821612 6.0078125 26.3984375 C-1.57854317 20.40160397 -23.3312684 24.51146447 -31.9921875 27.3984375 Z " fill="#000000" transform="translate(66.9921875,28.6015625)"/>
<path d="M0 0 C0.639375 0.639375 1.27875 1.27875 1.9375 1.9375 C1.57483906 7.37741416 1.57483906 7.37741416 -1.125 9.75 C-7.51131337 12.33170115 -12.66525718 12.52100191 -19.0625 9.9375 C-21.5625 8.0625 -21.5625 8.0625 -23.0625 5.9375 C-22.98804419 3.48045837 -22.32288198 2.31360731 -20.9375 0.3125 C-14.68179861 -4.27501435 -6.28048632 -4.22971528 0 0 Z M-14.0625 0.9375 C-14.0625 1.2675 -14.0625 1.5975 -14.0625 1.9375 C-11.0925 2.2675 -8.1225 2.5975 -5.0625 2.9375 C-5.0625 3.5975 -5.0625 4.2575 -5.0625 4.9375 C-8.6925 5.5975 -12.3225 6.2575 -16.0625 6.9375 C-16.0625 7.2675 -16.0625 7.5975 -16.0625 7.9375 C-14.29200311 7.99160687 -12.52103151 8.03034119 -10.75 8.0625 C-9.27080078 8.09730469 -9.27080078 8.09730469 -7.76171875 8.1328125 C-4.83843473 8.14432639 -4.83843473 8.14432639 -2.0625 5.9375 C-2.56006092 3.18108584 -2.56006092 3.18108584 -4.0625 0.9375 C-5.74858966 0.86544489 -7.43750659 0.85363932 -9.125 0.875 C-10.04410156 0.88402344 -10.96320312 0.89304688 -11.91015625 0.90234375 C-12.62042969 0.91394531 -13.33070312 0.92554688 -14.0625 0.9375 Z M-19.0625 2.9375 C-18.7325 4.2575 -18.4025 5.5775 -18.0625 6.9375 C-17.4025 6.6075 -16.7425 6.2775 -16.0625 5.9375 C-16.3925 4.9475 -16.7225 3.9575 -17.0625 2.9375 C-17.7225 2.9375 -18.3825 2.9375 -19.0625 2.9375 Z " fill="#000000" transform="translate(67.0625,61.0625)"/>
<path d="M0 0 C1.32 0 2.64 0 4 0 C3.67 1.32 3.34 2.64 3 4 C2.01 3.67 1.02 3.34 0 3 C0 2.01 0 1.02 0 0 Z " fill="#000000" transform="translate(81,62)"/>
<path d="M0 0 C0.99 0.33 1.98 0.66 3 1 C2.67 1.99 2.34 2.98 2 4 C1.01 4 0.02 4 -1 4 C-0.67 2.68 -0.34 1.36 0 0 Z " fill="#000000" transform="translate(25,66)"/>
<path d="M0 0 C0.99 0.33 1.98 0.66 3 1 C2.67 1.99 2.34 2.98 2 4 C1.01 4 0.02 4 -1 4 C-0.67 2.68 -0.34 1.36 0 0 Z " fill="#000000" transform="translate(84,52)"/>
<path d="M0 0 C1.32 0 2.64 0 4 0 C3.67 0.99 3.34 1.98 3 3 C2.01 3 1.02 3 0 3 C0 2.01 0 1.02 0 0 Z " fill="#000000" transform="translate(27,31)"/>
<path d="M0 0 C1.32 0 2.64 0 4 0 C3.67 0.99 3.34 1.98 3 3 C2.01 2.67 1.02 2.34 0 2 C0 1.34 0 0.68 0 0 Z " fill="#000000" transform="translate(26,75)"/>
<path d="M0 0 C1.32 0 2.64 0 4 0 C3.67 0.99 3.34 1.98 3 3 C2.01 2.67 1.02 2.34 0 2 C0 1.34 0 0.68 0 0 Z " fill="#000000" transform="translate(23,57)"/>
<path d="M0 0 C0.99 0 1.98 0 3 0 C3 0.99 3 1.98 3 3 C1.68 2.67 0.36 2.34 -1 2 C-0.67 1.34 -0.34 0.68 0 0 Z " fill="#000000" transform="translate(24,47)"/>
<path d="M0 0 C0.99 0 1.98 0 3 0 C3 0.99 3 1.98 3 3 C2.01 3 1.02 3 0 3 C0 2.01 0 1.02 0 0 Z " fill="#000000" transform="translate(66,86)"/>
<path d="M0 0 C0.99 0 1.98 0 3 0 C3 0.99 3 1.98 3 3 C2.01 3 1.02 3 0 3 C0 2.01 0 1.02 0 0 Z " fill="#000000" transform="translate(57,86)"/>
<path d="M0 0 C0.99 0 1.98 0 3 0 C3 0.99 3 1.98 3 3 C2.01 3 1.02 3 0 3 C0 2.01 0 1.02 0 0 Z " fill="#000000" transform="translate(46,86)"/>
<path d="M0 0 C0.66 0.33 1.32 0.66 2 1 C2 1.99 2 2.98 2 4 C1.01 3.67 0.02 3.34 -1 3 C-0.67 2.01 -0.34 1.02 0 0 Z " fill="#000000" transform="translate(38,84)"/>
<path d="M0 0 C0.99 0.33 1.98 0.66 3 1 C2.67 1.66 2.34 2.32 2 3 C1.01 3 0.02 3 -1 3 C-0.67 2.01 -0.34 1.02 0 0 Z " fill="#000000" transform="translate(76,81)"/>
<path d="M0 0 C0.99 0 1.98 0 3 0 C2.67 0.99 2.34 1.98 2 3 C1.01 2.67 0.02 2.34 -1 2 C-0.67 1.34 -0.34 0.68 0 0 Z " fill="#000000" transform="translate(32,81)"/>
<path d="M0 0 C0.99 0 1.98 0 3 0 C3 0.99 3 1.98 3 3 C2.01 3 1.02 3 0 3 C0 2.01 0 1.02 0 0 Z " fill="#000000" transform="translate(82,71)"/>
<path d="M0 0 C0.99 0 1.98 0 3 0 C3 0.99 3 1.98 3 3 C2.01 3 1.02 3 0 3 C0 2.01 0 1.02 0 0 Z " fill="#000000" transform="translate(24,38)"/>
<path d="M0 0 C0.99 0 1.98 0 3 0 C3 0.99 3 1.98 3 3 C2.01 3 1.02 3 0 3 C0 2.01 0 1.02 0 0 Z " fill="#000000" transform="translate(72,24)"/>
<path d="M0 0 C0.99 0 1.98 0 3 0 C3 0.99 3 1.98 3 3 C2.01 3 1.02 3 0 3 C0 2.01 0 1.02 0 0 Z " fill="#000000" transform="translate(37,22)"/>
<path d="M0 0 C0.99 0.33 1.98 0.66 3 1 C2.67 1.99 2.34 2.98 2 4 C1.34 3.67 0.68 3.34 0 3 C0 2.01 0 1.02 0 0 Z " fill="#000000" transform="translate(46,20)"/>
<path d="M0 0 C0.99 0.33 1.98 0.66 3 1 C3 1.66 3 2.32 3 3 C2.01 3 1.02 3 0 3 C0 2.01 0 1.02 0 0 Z " fill="#000000" transform="translate(79,30)"/>
<path d="M0 0 C0.99 0 1.98 0 3 0 C2.67 0.99 2.34 1.98 2 3 C1.34 2.67 0.68 2.34 0 2 C0 1.34 0 0.68 0 0 Z " fill="#000000" transform="translate(54,20)"/>
<path d="M0 0 C0.99 0 1.98 0 3 0 C3 0.66 3 1.32 3 2 C2.01 2 1.02 2 0 2 C0 1.34 0 0.68 0 0 Z " fill="#000000" transform="translate(83,44)"/>
<path d="M0 0 C0.66 0 1.32 0 2 0 C2 0.99 2 1.98 2 3 C1.34 3 0.68 3 0 3 C0 2.01 0 1.02 0 0 Z " fill="#000000" transform="translate(82,37)"/>
<path d="M0 0 C0.66 0 1.32 0 2 0 C1.67 0.99 1.34 1.98 1 3 C0.34 2.34 -0.32 1.68 -1 1 C-0.67 0.67 -0.34 0.34 0 0 Z " fill="#000000" transform="translate(32,26)"/>
<path d="M0 0 C0.99 0 1.98 0 3 0 C3 0.66 3 1.32 3 2 C2.01 2 1.02 2 0 2 C0 1.34 0 0.68 0 0 Z " fill="#000000" transform="translate(63,21)"/>
<path d="" fill="#000000" transform="translate(0,0)"/>
<path d="" fill="#000000" transform="translate(0,0)"/>
<path d="" fill="#000000" transform="translate(0,0)"/>
</svg>
