<?xml version="1.0" encoding="UTF-8"?>
<svg version="1.1" xmlns="http://www.w3.org/2000/svg" width="110" height="109">
<path d="M0 0 C7.34523366 -0.63871597 13.49092937 1.79663007 19.6875 5.6875 C22.90261676 7.512296 25.3043954 8 29 8 C30.11375 6.88625 30.11375 6.88625 31.25 5.75 C36.98492629 0.01507371 45.85225101 -0.39068364 53.65429688 -0.45898438 C54.61400391 -0.45189453 55.57371094 -0.44480469 56.5625 -0.4375 C57.52607422 -0.45748047 58.48964844 -0.47746094 59.48242188 -0.49804688 C67.6255614 -0.49255588 74.21228749 1.47485832 81 6 C81.4640625 5.071875 81.4640625 5.071875 81.9375 4.125 C82.625 2.75 83.3125 1.375 84 0 C89.65775947 -0.58934994 92.63902155 0.55365671 97.3984375 3.61328125 C99.94825265 5.82104802 99.99843972 7.97971639 100.25 11.25 C99.92503674 16.12444885 98.29232907 19.7025261 95.91015625 23.9375 C93.3833648 28.54147588 91.59384455 32.71322076 93 38 C94.66854973 41.09571029 96.50845645 44.05177874 98.36328125 47.0390625 C100.91809739 51.66090172 101.87580175 55.85813779 100.44140625 61.00390625 C99.27253469 63.904888 97.73265453 66.4010182 96 69 C96.99 69.7734375 96.99 69.7734375 98 70.5625 C100.68675779 73.83698606 100.37584533 75.86570136 100 80 C99.505 81.485 99.505 81.485 99 83 C99.99 84.485 99.99 84.485 101 86 C101.6323674 90.06521898 101.2083093 91.66800706 99 95.1875 C95.48659072 98.95541528 90.8637618 100.77450942 85.77685547 101.17504883 C83.48212625 101.14391782 81.22419917 101.00451291 78.9375 100.8125 C78.17373047 100.76802734 77.40996094 100.72355469 76.62304688 100.67773438 C71.82986146 100.3456146 67.57123423 99.47517917 63 98 C62.34 98.66 61.68 99.32 61 100 C58.35546875 100.30078125 58.35546875 100.30078125 55.1875 100.3125 C54.14980469 100.32925781 53.11210938 100.34601563 52.04296875 100.36328125 C48.63086751 99.95593155 46.80306413 98.93230424 44 97 C43.01 96.505 43.01 96.505 42 96 C41.690625 96.680625 41.38125 97.36125 41.0625 98.0625 C39 100 39 100 36.97265625 100.11328125 C32.70646131 99.68027311 28.88899022 98.88176946 25 97 C24.67 97.66 24.34 98.32 24 99 C19.24547607 100.21140169 14.97699725 100.2605326 10.25 99 C5.79026674 96.25554876 2.35663069 92.71326137 0 88 C-0.6674386 80.27521881 -0.73099727 73.42402973 4 67 C4.97758941 65.97808076 5.9724199 64.97163735 7 64 C6.21625 63.4225 5.4325 62.845 4.625 62.25 C1.01506815 59.1557727 0.15017112 57.53174546 -0.3125 52.8125 C0.32535092 45.03071872 3.06273621 39.36348867 7.6953125 33.140625 C10.53974115 28.47371812 10.80848195 22.32393965 10 17 C8.8720035 14.4639799 7.58051313 12.18930819 6.09375 9.84765625 C5 8 5 8 5 6 C4.34 6 3.68 6 3 6 C1.375 4.6875 1.375 4.6875 0 3 C0 2.01 0 1.02 0 0 Z M30.875 10 C27.12324932 14.73905349 26.50080182 19.03284036 27 25 C27.88214887 27.88214887 27.88214887 27.88214887 29 30 C30.04994141 29.75830078 30.04994141 29.75830078 31.12109375 29.51171875 C34.152661 28.97286487 36.98485528 28.83195414 40.0625 28.8125 C41.08472656 28.79832031 42.10695313 28.78414062 43.16015625 28.76953125 C46 29 46 29 47.92578125 30.046875 C53.42904474 32.57568158 62.51487133 29.8550636 68.03125 27.95703125 C73.24137429 25.53244028 77.13450258 23.03932306 80 18 C80.43447859 13.84026981 79.72130605 10.94515965 77.1875 7.625 C71.44450871 3.3587779 65.98614355 3.34197906 59 3 C57.91460937 2.94585937 56.82921875 2.89171875 55.7109375 2.8359375 C46.4183057 2.59197819 37.45705563 2.72227996 30.875 10 Z M7 4 C8.06205055 7.00914321 9.03770977 9.04436444 11.125 11.5 C14.06003461 16.97873127 14.00798315 21.92574863 13 28 C10.86613846 34.07770877 7.560607 39.65908951 4 45 C3.20901403 49.45892088 2.72865244 54.08921727 5.3203125 57.984375 C10.00738594 62.23006485 15.02151748 63.83140665 21.3125 64.1875 C23.9701716 64.1748636 23.9701716 64.1748636 26 63 C26.65772428 59.97065509 26.65772428 59.97065509 27 57 C25.02 56.34 23.04 55.68 21 55 C21 54.67 21 54.34 21 54 C26.56440281 53.7470726 26.56440281 53.7470726 28.9375 55.125 C30.98056349 56.2583977 30.98056349 56.2583977 33.078125 55.3203125 C34.15320312 54.72863281 34.15320312 54.72863281 35.25 54.125 C39.96801406 51.86251535 42.77615031 51.25373576 48 52 C54.12043491 54.40652261 57.3365307 58.32707938 60.578125 63.9140625 C64.17084609 69.18470278 69.71077493 70.73109558 75.609375 72.45703125 C81.9040662 73.46505208 86.10726831 71.04659445 91.13671875 67.48828125 C94.13940411 65.0702973 95.75888536 63.72334393 97 60 C97.47947382 52.6880242 95.94228454 48.88567988 91.8125 42.75 C89.26711906 38.32495313 89.32894712 33.96898684 90 29 C90.95610322 25.60195747 92.33815566 22.7891221 94.625 20.0625 C96.71763813 16.9235428 97.14112145 13.74343216 97 10 C95.66048669 7.00204165 94.9444025 5.47220125 92 4 C87.94857881 3.74139865 86.45662331 3.69558446 83 6 C82.58333333 8.5 82.58333333 8.5 83 11 C83.99 11.99 83.99 11.99 85 13 C87.60280568 12.67958603 87.60280568 12.67958603 90 12 C90 11.34 90 10.68 90 10 C89.01 9.01 89.01 9.01 88 8 C88.99 8 89.98 8 91 8 C91.495 11.465 91.495 11.465 92 15 C90.783125 15 89.56625 15 88.3125 15 C85.6103799 15.32538619 84.41939586 15.46910312 82.70703125 17.63671875 C82.34996094 18.31347656 81.99289063 18.99023438 81.625 19.6875 C78.25191855 25.94058786 72.73934668 28.79896827 66.10546875 30.9296875 C63.08210164 31.69840732 60.05510416 32.36964307 57 33 C48.45599311 34.71899843 48.45599311 34.71899843 40.8125 38.6875 C36.70047537 41.53758805 32.88899096 41.8730341 28 41 C26.66366601 40.33936872 25.33007347 39.67314694 24 39 C23.01 39 22.02 39 21 39 C22.73559438 35.942048 24.38472619 33.36620011 27 31 C26.49339844 29.72769531 26.49339844 29.72769531 25.9765625 28.4296875 C24.9059196 24.66958963 24.98002661 21.99573927 25.375 18.125 C25.48585938 16.97257812 25.59671875 15.82015625 25.7109375 14.6328125 C25.85402344 13.32957031 25.85402344 13.32957031 26 12 C23.39939496 10.65929682 20.79495084 9.32726646 18.1875 8 C17.44951172 7.6184375 16.71152344 7.236875 15.95117188 6.84375 C14.88286133 6.30234375 14.88286133 6.30234375 13.79296875 5.75 C13.1383667 5.41484375 12.48376465 5.0796875 11.80932617 4.734375 C9.86215451 3.81195737 9.86215451 3.81195737 7 4 Z M45 31 C44.67 31.66 44.34 32.32 44 33 C44.66 33 45.32 33 46 33 C45.67 32.34 45.34 31.68 45 31 Z M40 34 C39.67 34.66 39.34 35.32 39 36 C39.99 35.67 40.98 35.34 42 35 C41.34 34.67 40.68 34.34 40 34 Z M26 35 C25.67 35.66 25.34 36.32 25 37 C27.475 37.495 27.475 37.495 30 38 C28.68 37.01 27.36 36.02 26 35 Z M30 38 C30 38.33 30 38.66 30 39 C34.25731568 39.40749675 34.25731568 39.40749675 37.875 37.5 C38.24625 37.005 38.6175 36.51 39 36 C35.84667043 36 33.00542969 37.10950231 30 38 Z M40 54 C40 54.66 40 55.32 40 56 C38.68 56 37.36 56 36 56 C36 56.66 36 57.32 36 58 C35.1646875 58.061875 35.1646875 58.061875 34.3125 58.125 C30.75969726 59.46930374 29.29041047 62.00974189 27 65 C30.23828756 65.33165376 30.23828756 65.33165376 32.75 62.5625 C37.02663884 58.79650461 41.48305353 59 47 59 C47 58.34 47 57.68 47 57 C49 59 49 59 50.6875 61.6875 C55.38610143 68.77874718 61.57642468 74.56442824 70.0625 76.4609375 C71.69998926 76.70524033 73.35010572 76.86250881 75 77 C75 76.34 75 75.68 75 75 C74.26394531 74.75765625 73.52789062 74.5153125 72.76953125 74.265625 C65.54419204 71.78400255 60.58464152 69.82688759 56.625 63.0625 C54.15293136 58.92951025 51.44232246 56.00045388 47 54 C43.20595397 53.58008019 43.20595397 53.58008019 40 54 Z M29.6875 67.875 C25.7271063 70.79572336 21.74394532 73.47332071 17.4609375 75.89453125 C15.67627272 77.02835069 15.67627272 77.02835069 15 80 C16.65 80.33 18.3 80.66 20 81 C20.103125 81.639375 20.20625 82.27875 20.3125 82.9375 C20.6528125 83.9584375 20.6528125 83.9584375 21 85 C21.99 85.33 22.98 85.66 24 86 C24.66 86.66 25.32 87.32 26 88 C27.32 88 28.64 88 30 88 C30 88.66 30 89.32 30 90 C31.98 90.66 33.96 91.32 36 92 C36.66 91.34 37.32 90.68 38 90 C37.50628906 89.69707031 37.01257813 89.39414063 36.50390625 89.08203125 C31.35874439 85.71748879 31.35874439 85.71748879 29.75 82.5 C30.12743051 78.72569495 32.17563196 77.36458719 35 75 C38.19492733 73.40253634 41.52393735 73.6302061 45 74 C48.15844583 75.42882073 50.25179159 77.21894921 52.875 79.5 C56.7384613 82.78741823 60.81589798 84.86058923 65.9375 85.1875 C66.618125 85.125625 67.29875 85.06375 68 85 C68.99 83.02 69.98 81.04 71 79 C69.71416016 78.5978125 69.71416016 78.5978125 68.40234375 78.1875 C60.37850026 75.43750178 56.05796962 72.69725617 51 66 C42.77672037 58.17785596 37.64732918 61.9540851 29.6875 67.875 Z M8.375 67 C4.08499683 72.41895137 2.5813529 76.02254837 3 83 C3.639375 83.268125 4.27875 83.53625 4.9375 83.8125 C7 85 7 85 8 88 C8.99 88.33 9.98 88.66 11 89 C11.474375 89.53625 11.94875 90.0725 12.4375 90.625 C12.953125 91.07875 13.46875 91.5325 14 92 C16.16299211 91.77242269 16.16299211 91.77242269 18 91 C17.030625 90.29875 16.06125 89.5975 15.0625 88.875 C12.61335554 86.83115131 12.03289175 86.10073099 11 82.9375 C11 78.61269182 12.16938418 76.9344428 15 73.75 C17 72 17 72 19 72 C21.04291182 70.73339467 23.04690112 69.40113616 25 68 C25 67.67 25 67.34 25 67 C16.36168534 64.4855802 16.36168534 64.4855802 8.375 67 Z M87.4375 73.25 C84.43374398 75.20134515 81.51279288 76.67422963 78.1875 78 C75.32553382 79.24067964 74.03031512 79.96701001 71.875 82.3125 C70.66821193 86.01906337 70.93063526 88.2572234 72 92 C74.06487313 95.06400529 75.66431545 96.60139257 79.23828125 97.66796875 C84.81817574 98.5444374 89.17172627 97.87916873 94.20703125 95.3125 C96.29151906 93.98012357 96.29151906 93.98012357 97.6875 90.9375 C98.33667389 87.81210321 98.33667389 87.81210321 96 85 C92.41642759 84.74984127 92.41642759 84.74984127 89 85 C88.34 86.65 87.68 88.3 87 90 C86.34 89.67 85.68 89.34 85 89 C85.33 87.35 85.66 85.7 86 84 C86.62648438 83.89042969 87.25296875 83.78085938 87.8984375 83.66796875 C88.71570313 83.50941406 89.53296875 83.35085937 90.375 83.1875 C91.18710938 83.03667969 91.99921875 82.88585937 92.8359375 82.73046875 C95.35820641 82.12455058 95.35820641 82.12455058 97 79 C96.78241359 76.0988479 96.37826195 74.47693899 94.5625 72.1875 C91.6539127 69.97697365 90.15132954 71.42981534 87.4375 73.25 Z M35 78 C35 78.66 35 79.32 35 80 C38.45662331 82.30441554 39.94857881 82.25860135 44 82 C44.66 81.67 45.32 81.34 46 81 C46.37511719 81.91652344 46.37511719 81.91652344 46.7578125 82.8515625 C48.21515785 85.37212835 49.31092567 86.05069787 51.875 87.375 C52.66777344 87.7875 53.46054687 88.2 54.27734375 88.625 C55.17582031 89.07875 56.07429688 89.5325 57 90 C58.05316406 90.556875 59.10632813 91.11375 60.19140625 91.6875 C64.53571479 93.97182452 64.53571479 93.97182452 69 96 C69.66 95.67 70.32 95.34 71 95 C70.13320693 91.1534398 70.13320693 91.1534398 68 88 C65.03654077 86.91957216 62.11683977 86.34888383 59.0234375 85.7421875 C53.61225128 84.41386013 50.10279391 81.65419086 47 77 C44.91297873 76.34397479 44.91297873 76.34397479 42.5625 76.1875 C41.38880859 76.05408203 41.38880859 76.05408203 40.19140625 75.91796875 C37.70360157 75.81974131 37.70360157 75.81974131 35 78 Z M16 83 C16 83.66 16 84.32 16 85 C16.99 84.67 17.98 84.34 19 84 C18.01 83.67 17.02 83.34 16 83 Z M7 90 C7 90.66 7 91.32 7 92 C7.66 92 8.32 92 9 92 C9 91.34 9 90.68 9 90 C8.34 90 7.68 90 7 90 Z M26 90 C26 90.66 26 91.32 26 92 C26.66 92 27.32 92 28 92 C28 91.34 28 90.68 28 90 C27.34 90 26.68 90 26 90 Z M52 91 C53 93 53 93 53 93 Z M18 94 C18.66 94.66 19.32 95.32 20 96 C20 95.34 20 94.68 20 94 C19.34 94 18.68 94 18 94 Z M54 95 C53.67 95.66 53.34 96.32 53 97 C54.32 97 55.64 97 57 97 C57 96.34 57 95.68 57 95 C56.01 95 55.02 95 54 95 Z " fill="#000000" transform="translate(4,5)"/>
<path d="M0 0 C4.77779951 4.11025766 7.07737829 7.27676973 8.125 13.5625 C7.20112444 19.51636472 3.72613817 23.26426608 -0.6875 27.1875 C-6.00040055 29.11946384 -11.29716622 28.90094459 -16.625 27.125 C-21.503207 23.7644574 -25.32030349 19.89615348 -28.5625 14.9375 C-30.69023787 11.81681779 -31.93436374 10.5887545 -35.4375 9.1875 C-41.41142635 8.46650889 -46.71378019 9.52241787 -52.4375 11.1875 C-51.95776714 6.96585079 -49.74144338 5.31710756 -46.5625 2.6875 C-32.9409907 -8.08217185 -14.30176407 -10.88766028 0 0 Z M-32.4375 -1.8125 C-32.7675 -1.1525 -33.0975 -0.4925 -33.4375 0.1875 C-32.7775 0.1875 -32.1175 0.1875 -31.4375 0.1875 C-31.7675 -0.4725 -32.0975 -1.1325 -32.4375 -1.8125 Z M-7.4375 -0.8125 C-7.7675 -0.1525 -8.0975 0.5075 -8.4375 1.1875 C-7.7775 1.1875 -7.1175 1.1875 -6.4375 1.1875 C-6.7675 0.5275 -7.0975 -0.1325 -7.4375 -0.8125 Z M-35.4375 1.1875 C-34.4375 3.1875 -34.4375 3.1875 -34.4375 3.1875 Z M-13.4375 4.1875 C-13.7675 4.8475 -14.0975 5.5075 -14.4375 6.1875 C-13.7775 6.1875 -13.1175 6.1875 -12.4375 6.1875 C-12.7675 5.5275 -13.0975 4.8675 -13.4375 4.1875 Z M-16.4375 7.1875 C-16.1075 7.8475 -15.7775 8.5075 -15.4375 9.1875 C-15.1075 8.5275 -14.7775 7.8675 -14.4375 7.1875 C-15.0975 7.1875 -15.7575 7.1875 -16.4375 7.1875 Z M-1.4375 9.1875 C-1.7675 9.8475 -2.0975 10.5075 -2.4375 11.1875 C-1.7775 11.1875 -1.1175 11.1875 -0.4375 11.1875 C-0.7675 10.5275 -1.0975 9.8675 -1.4375 9.1875 Z M-13.4375 10.1875 C-13.1075 10.8475 -12.7775 11.5075 -12.4375 12.1875 C-12.1075 11.5275 -11.7775 10.8675 -11.4375 10.1875 C-12.0975 10.1875 -12.7575 10.1875 -13.4375 10.1875 Z M-10.4375 12.1875 C-10.4375 13.1775 -10.4375 14.1675 -10.4375 15.1875 C-9.7775 14.8575 -9.1175 14.5275 -8.4375 14.1875 C-8.4375 13.5275 -8.4375 12.8675 -8.4375 12.1875 C-9.0975 12.1875 -9.7575 12.1875 -10.4375 12.1875 Z M-4.4375 12.1875 C-3.4375 14.1875 -3.4375 14.1875 -3.4375 14.1875 Z M3.5625 13.1875 C4.5625 15.1875 4.5625 15.1875 4.5625 15.1875 Z M-18.4375 15.1875 C-17.4375 17.1875 -17.4375 17.1875 -17.4375 17.1875 Z M-13.4375 15.1875 C-13.4375 15.8475 -13.4375 16.5075 -13.4375 17.1875 C-12.7775 16.8575 -12.1175 16.5275 -11.4375 16.1875 C-12.0975 15.8575 -12.7575 15.5275 -13.4375 15.1875 Z M-7.4375 15.1875 C-7.7675 15.8475 -8.0975 16.5075 -8.4375 17.1875 C-7.4475 16.8575 -6.4575 16.5275 -5.4375 16.1875 C-6.0975 15.8575 -6.7575 15.5275 -7.4375 15.1875 Z M-21.4375 17.1875 C-21.4375 17.8475 -21.4375 18.5075 -21.4375 19.1875 C-20.7775 18.8575 -20.1175 18.5275 -19.4375 18.1875 C-20.0975 17.8575 -20.7575 17.5275 -21.4375 17.1875 Z M-13.4375 20.1875 C-12.7775 20.8475 -12.1175 21.5075 -11.4375 22.1875 C-11.4375 21.5275 -11.4375 20.8675 -11.4375 20.1875 C-12.0975 20.1875 -12.7575 20.1875 -13.4375 20.1875 Z M-10.4375 22.1875 C-10.7675 22.8475 -11.0975 23.5075 -11.4375 24.1875 C-10.7775 24.1875 -10.1175 24.1875 -9.4375 24.1875 C-9.7675 23.5275 -10.0975 22.8675 -10.4375 22.1875 Z M-5.4375 22.1875 C-4.4375 24.1875 -4.4375 24.1875 -4.4375 24.1875 Z " fill="#000000" transform="translate(90.4375,45.8125)"/>
<path d="M0 0 C1.67542976 0.28604898 3.34385343 0.61781233 5 1 C5 2.32 5 3.64 5 5 C3.35 5.33 1.7 5.66 0 6 C-0.38218767 4.34385343 -0.71395102 2.67542976 -1 1 C-0.67 0.67 -0.34 0.34 0 0 Z " fill="#000000" transform="translate(59,23)"/>
<path d="M0 0 C1.65 0.33 3.3 0.66 5 1 C5.33 2.32 5.66 3.64 6 5 C5.01 5.33 4.02 5.66 3 6 C1.68 4.68 0.36 3.36 -1 2 C-0.67 1.34 -0.34 0.68 0 0 Z " fill="#000000" transform="translate(66,13)"/>
<path d="M0 0 C1.65 0.33 3.3 0.66 5 1 C4.67 2.32 4.34 3.64 4 5 C2.35 4.67 0.7 4.34 -1 4 C-0.67 2.68 -0.34 1.36 0 0 Z " fill="#000000" transform="translate(72,23)"/>
<path d="" fill="#000000" transform="translate(0,0)"/>
<path d="" fill="#000000" transform="translate(0,0)"/>
<path d="" fill="#000000" transform="translate(0,0)"/>
<path d="" fill="#000000" transform="translate(0,0)"/>
</svg>
