<?xml version="1.0" encoding="UTF-8"?>
<!DOCTYPE svg PUBLIC "-//W3C//DTD SVG 1.1//EN" "http://www.w3.org/Graphics/SVG/1.1/DTD/svg11.dtd">
<svg xmlns="http://www.w3.org/2000/svg" version="1.1" width="110px" height="109px" style="shape-rendering:geometricPrecision; text-rendering:geometricPrecision; image-rendering:optimizeQuality; fill-rule:evenodd; clip-rule:evenodd" xmlns:xlink="http://www.w3.org/1999/xlink">
<g><path style="opacity:0.763" fill="#000000" d="M 3.5,4.5 C 7.247,4.39241 10.9137,4.89241 14.5,6C 19.8189,9.00803 25.3189,11.508 31,13.5C 33.5137,10.9953 36.347,8.82864 39.5,7C 42.4715,6.2057 45.4715,5.53904 48.5,5C 55.7102,4.94335 62.8769,4.77668 70,4.5C 74.933,5.55033 79.433,7.55033 83.5,10.5C 84.6933,8.47329 86.36,6.97329 88.5,6C 88.1667,5.66667 87.8333,5.33333 87.5,5C 92.2795,3.97017 96.6129,4.97017 100.5,8C 103.177,11.386 104.011,15.2194 103,19.5C 100.945,24.6101 98.6121,29.6101 96,34.5C 95.3333,37.1667 95.3333,39.8333 96,42.5C 100.318,47.9703 103.151,54.137 104.5,61C 104.356,65.954 102.356,69.954 98.5,73C 103.839,76.6947 104.839,81.3614 101.5,87C 106.425,94.857 104.425,100.524 95.5,104C 88.2162,105.347 80.8828,105.347 73.5,104C 71.3853,103.443 69.3853,102.609 67.5,101.5C 66.354,102.145 65.354,102.978 64.5,104C 60.5,104.667 56.5,104.667 52.5,104C 49.804,103.31 47.6374,101.81 46,99.5C 44.818,102.523 42.6513,104.189 39.5,104.5C 35.6547,104.052 32.1547,102.719 29,100.5C 18.1198,106.851 9.78645,104.184 4,92.5C 2.71894,85.457 3.71894,78.7903 7,72.5C 8.21398,70.9512 9.71398,69.7845 11.5,69C 3.59582,64.0914 1.42915,57.258 5,48.5C 7.41588,43.9994 10.0825,39.6661 13,35.5C 15.7195,27.6377 14.7195,20.3044 10,13.5C 7.30498,10.7345 5.13831,7.73445 3.5,4.5 Z M 49.5,7.5 C 57.8532,7.61686 66.1866,8.11686 74.5,9C 84.9605,14.2966 85.9605,20.9632 77.5,29C 66.5265,35.1249 55.1932,36.2915 43.5,32.5C 39.8241,32.4278 36.3241,33.0944 33,34.5C 28.2382,19.3706 33.7382,10.3706 49.5,7.5 Z M 10.5,8.5 C 17.0679,10.7834 23.4012,13.6168 29.5,17C 26.5301,23.5114 26.8634,29.8447 30.5,36C 27.1434,37.5125 25.1434,40.0125 24.5,43.5C 26.9013,44.0488 29.2346,44.8822 31.5,46C 34.5,46.6667 37.5,46.6667 40.5,46C 43.8333,44 47.1667,42 50.5,40C 61.7301,39.2793 72.0634,35.9459 81.5,30C 84.5045,27.6543 86.5045,24.6543 87.5,21C 91.698,21.7305 94.698,20.0638 96.5,16C 95.8918,11.6993 93.8918,10.6993 90.5,13C 94.5456,16.2464 93.879,17.5797 88.5,17C 85.014,11.9554 86.3473,9.1221 92.5,8.5C 97.4853,8.81866 100.152,11.4853 100.5,16.5C 99.4653,21.3768 97.2986,25.7101 94,29.5C 92.0637,35.1817 92.0637,40.8484 94,46.5C 101.848,54.3879 102.348,62.5546 95.5,71C 91.3099,73.8453 86.8099,76.012 82,77.5C 77.0388,76.0675 72.2054,74.2342 67.5,72C 64.3865,68.9402 61.8865,65.4402 60,61.5C 51.5348,53.9008 42.7015,53.5675 33.5,60.5C 31.0669,57.758 28.0669,56.9246 24.5,58C 23.1667,58.6667 23.1667,59.3333 24.5,60C 31.2259,60.5108 32.2259,63.1775 27.5,68C 19.5646,69.2139 13.0646,66.7139 8,60.5C 7.33333,56.8333 7.33333,53.1667 8,49.5C 13.5352,42.6001 16.7019,34.7668 17.5,26C 17.3333,23.8333 17.1667,21.6667 17,19.5C 14.3063,16.1076 12.1396,12.4409 10.5,8.5 Z M 47.5,37.5 C 47.7828,36.7109 48.2828,36.0442 49,35.5C 49.5281,36.816 49.0281,37.4827 47.5,37.5 Z M 45.5,38.5 C 45.0269,39.9063 44.0269,40.573 42.5,40.5C 42.9731,39.0937 43.9731,38.427 45.5,38.5 Z M 33.5,42.5 C 31.6916,42.5086 30.0249,42.0086 28.5,41C 29,40.5 29.5,40 30,39.5C 31.1451,40.6364 32.3117,41.6364 33.5,42.5 Z M 42.5,40.5 C 39.9436,43.4238 36.9436,44.0905 33.5,42.5C 36.6916,42.5955 39.6916,41.9288 42.5,40.5 Z M 57.5,43.5 C 58.7733,44.0768 58.7733,44.7435 57.5,45.5C 56.537,45.0302 56.537,44.3635 57.5,43.5 Z M 82.5,44.5 C 83.7733,45.0768 83.7733,45.7435 82.5,46.5C 81.537,46.0302 81.537,45.3635 82.5,44.5 Z M 76.5,49.5 C 77.7733,50.0768 77.7733,50.7435 76.5,51.5C 75.537,51.0302 75.537,50.3635 76.5,49.5 Z M 73.5,52.5 C 76.0009,52.5109 76.1676,53.1776 74,54.5C 73.5357,53.9056 73.369,53.2389 73.5,52.5 Z M 88.5,54.5 C 89.7733,55.0768 89.7733,55.7435 88.5,56.5C 87.537,56.0302 87.537,55.3635 88.5,54.5 Z M 76.5,55.5 C 79.0009,55.5109 79.1676,56.1776 77,57.5C 76.5357,56.9056 76.369,56.2389 76.5,55.5 Z M 79.5,57.5 C 81.9732,57.9473 82.1399,58.9473 80,60.5C 78.2716,59.6477 78.105,58.6477 79.5,57.5 Z M 56.5,63.5 C 59.3707,67.3938 62.3707,71.2271 65.5,75C 69.635,77.3221 73.9683,79.1555 78.5,80.5C 74.441,80.9207 70.441,80.0873 66.5,78C 60.0956,73.6354 55.429,68.3021 52.5,62C 51.184,61.4719 50.5173,61.9719 50.5,63.5C 48.5992,63.5668 46.7659,63.2335 45,62.5C 43.1886,63.0779 41.3553,63.5779 39.5,64C 36.6032,66.41 33.6032,68.5767 30.5,70.5C 35.4957,61.8334 42.829,58.3334 52.5,60C 54.0931,60.9487 55.4264,62.1154 56.5,63.5 Z M 76.5,60.5 C 77.2891,60.7828 77.9558,61.2828 78.5,62C 77.184,62.5281 76.5173,62.0281 76.5,60.5 Z M 82.5,60.5 C 84.9752,60.7467 84.9752,61.4134 82.5,62.5C 81.537,62.0302 81.537,61.3635 82.5,60.5 Z M 68.5,62.5 C 69.2891,62.7828 69.9558,63.2828 70.5,64C 69.184,64.5281 68.5173,64.0281 68.5,62.5 Z M 43.5,65.5 C 51.2953,67.4439 57.2953,71.9439 61.5,79C 65.6878,81.0623 70.0211,82.729 74.5,84C 73.1279,85.2419 72.1279,86.7419 71.5,88.5C 63.3186,88.913 56.6519,85.7464 51.5,79C 42.8858,75.4836 36.5525,77.817 32.5,86C 32.8623,87.2247 33.3623,88.3914 34,89.5C 36.5888,91.2112 39.0888,93.0445 41.5,95C 40.5838,95.3742 39.7504,95.8742 39,96.5C 34.2216,93.0186 29.3882,90.6853 24.5,89.5C 24.8011,85.3811 22.8011,83.3811 18.5,83.5C 18.6667,83.1667 18.8333,82.8333 19,82.5C 27.3668,76.9406 35.5334,71.274 43.5,65.5 Z M 76.5,66.5 C 77.0768,65.2267 77.7435,65.2267 78.5,66.5C 78.0302,67.463 77.3635,67.463 76.5,66.5 Z M 79.5,67.5 C 80.7733,68.0768 80.7733,68.7435 79.5,69.5C 78.537,69.0302 78.537,68.3635 79.5,67.5 Z M 28.5,71.5 C 25.5483,75.1495 21.8817,76.8162 17.5,76.5C 18.2624,76.9106 19.2624,77.0773 20.5,77C 11.1568,83.6951 11.4901,90.0284 21.5,96C 18.3528,96.9269 16.0194,95.9269 14.5,93C 13.552,92.5172 12.552,92.3505 11.5,92.5C 11.6841,89.6787 10.3507,88.0121 7.5,87.5C 6.24567,79.6712 9.07901,73.6712 16,69.5C 20.0087,70.9542 24.1753,71.6208 28.5,71.5 Z M 94.5,75.5 C 100.275,77.2268 101.608,80.5601 98.5,85.5C 95.4436,86.1962 92.4436,87.0296 89.5,88C 87.0674,90.3483 87.0674,92.515 89.5,94.5C 91.2856,89.8195 94.6189,88.3195 99.5,90C 101.823,94.0846 100.823,97.4179 96.5,100C 90.4878,103.33 84.4878,103.33 78.5,100C 74.5072,95.7074 73.6738,91.2074 76,86.5C 82.8122,83.8407 88.9789,80.174 94.5,75.5 Z M 74.5,100.5 C 68.8853,98.0292 63.2186,95.5292 57.5,93C 53.745,91.4121 50.745,88.9121 48.5,85.5C 44.6636,87.1948 41.3303,86.5281 38.5,83.5C 40.9331,80.758 43.9331,79.9246 47.5,81C 51.1477,84.2933 55.1477,87.2933 59.5,90C 63.313,91.772 67.313,92.6053 71.5,92.5C 71.9402,95.3798 72.9402,98.0465 74.5,100.5 Z M 19.5,87.5 C 22.7973,87.3287 23.1306,87.9954 20.5,89.5C 19.7025,89.0431 19.3691,88.3764 19.5,87.5 Z M 10.5,94.5 C 12.337,94.6395 12.6704,95.3061 11.5,96.5C 10.7025,96.0431 10.3691,95.3764 10.5,94.5 Z M 29.5,94.5 C 31.337,94.6395 31.6704,95.3061 30.5,96.5C 29.7025,96.0431 29.3691,95.3764 29.5,94.5 Z M 21.5,99.5 C 22.0768,98.2267 22.7435,98.2267 23.5,99.5C 23.0302,100.463 22.3635,100.463 21.5,99.5 Z M 57.5,99.5 C 58.675,99.281 59.675,99.6143 60.5,100.5C 59.277,101.614 57.9437,101.781 56.5,101C 57.056,100.617 57.3893,100.117 57.5,99.5 Z"/></g>
<g><path style="opacity:0.627" fill="#000000" d="M 65.5,12.5 C 71.1252,12.5523 72.2918,14.5523 69,18.5C 65.6565,17.4046 64.4898,15.4046 65.5,12.5 Z"/></g>
<g><path style="opacity:0.654" fill="#000000" d="M 58.5,22.5 C 62.0289,21.8894 63.8622,23.2227 64,26.5C 58.6479,29.877 56.8145,28.5437 58.5,22.5 Z"/></g>
<g><path style="opacity:0.71" fill="#000000" d="M 71.5,22.5 C 75.1378,21.7366 76.6378,23.0699 76,26.5C 71.4155,28.4126 69.9155,27.0793 71.5,22.5 Z"/></g>
<g><path style="opacity:0.73" fill="#000000" d="M 66.5,38.5 C 80.4938,37.5745 90.6605,43.2412 97,55.5C 96.1774,70.6283 88.3441,76.1283 73.5,72C 67.4564,67.6237 62.4564,62.2904 58.5,56C 51.628,52.7601 44.7946,52.9268 38,56.5C 37.3333,55.5 37.3333,54.5 38,53.5C 45.7049,44.8994 55.2049,39.8994 66.5,38.5 Z M 57.5,43.5 C 56.537,44.3635 56.537,45.0302 57.5,45.5C 58.7733,44.7435 58.7733,44.0768 57.5,43.5 Z M 82.5,44.5 C 81.537,45.3635 81.537,46.0302 82.5,46.5C 83.7733,45.7435 83.7733,45.0768 82.5,44.5 Z M 76.5,49.5 C 75.537,50.3635 75.537,51.0302 76.5,51.5C 77.7733,50.7435 77.7733,50.0768 76.5,49.5 Z M 73.5,52.5 C 73.369,53.2389 73.5357,53.9056 74,54.5C 76.1676,53.1776 76.0009,52.5109 73.5,52.5 Z M 88.5,54.5 C 87.537,55.3635 87.537,56.0302 88.5,56.5C 89.7733,55.7435 89.7733,55.0768 88.5,54.5 Z M 76.5,55.5 C 76.369,56.2389 76.5357,56.9056 77,57.5C 79.1676,56.1776 79.0009,55.5109 76.5,55.5 Z M 79.5,57.5 C 78.105,58.6477 78.2716,59.6477 80,60.5C 82.1399,58.9473 81.9732,57.9473 79.5,57.5 Z M 76.5,60.5 C 76.5173,62.0281 77.184,62.5281 78.5,62C 77.9558,61.2828 77.2891,60.7828 76.5,60.5 Z M 82.5,60.5 C 81.537,61.3635 81.537,62.0302 82.5,62.5C 84.9752,61.4134 84.9752,60.7467 82.5,60.5 Z M 68.5,62.5 C 68.5173,64.0281 69.184,64.5281 70.5,64C 69.9558,63.2828 69.2891,62.7828 68.5,62.5 Z M 76.5,66.5 C 77.3635,67.463 78.0302,67.463 78.5,66.5C 77.7435,65.2267 77.0768,65.2267 76.5,66.5 Z M 79.5,67.5 C 78.537,68.3635 78.537,69.0302 79.5,69.5C 80.7733,68.7435 80.7733,68.0768 79.5,67.5 Z"/></g>
</svg>
