<?xml version="1.0" encoding="UTF-8"?>
<!DOCTYPE svg PUBLIC "-//W3C//DTD SVG 1.1//EN" "http://www.w3.org/Graphics/SVG/1.1/DTD/svg11.dtd">
<svg xmlns="http://www.w3.org/2000/svg" version="1.1" width="110px" height="110px" style="shape-rendering:geometricPrecision; text-rendering:geometricPrecision; image-rendering:optimizeQuality; fill-rule:evenodd; clip-rule:evenodd" xmlns:xlink="http://www.w3.org/1999/xlink">
<g><path style="opacity:0.764" fill="#000000" d="M 92.5,4.5 C 93.9953,4.41483 94.9953,5.08149 95.5,6.5C 93.1633,13.4301 88.33,17.4301 81,18.5C 76.9128,17.1325 72.7461,16.6325 68.5,17C 66.0771,18.5707 64.7438,20.7374 64.5,23.5C 73.4911,22.6437 82.1577,23.8104 90.5,27C 98.1301,32.0861 102.297,39.2527 103,48.5C 103.667,56.1667 103.667,63.8333 103,71.5C 101.884,77.8996 99.0504,83.3996 94.5,88C 103.461,89.9073 105.461,94.5739 100.5,102C 94.7487,106.668 89.2487,106.501 84,101.5C 82.872,99.6547 82.372,97.6547 82.5,95.5C 76.4944,96.2229 70.4944,97.0562 64.5,98C 60.608,105.295 54.9413,106.961 47.5,103C 46.3278,100.304 44.3278,98.6374 41.5,98C 36.166,97.4332 30.8326,96.9332 25.5,96.5C 24.9025,101.662 21.9025,104.329 16.5,104.5C 4.65941,103.487 1.99274,98.1537 8.5,88.5C 5.73564,81.7753 4.06897,74.7753 3.5,67.5C 4.10108,58.478 4.93441,49.478 6,40.5C 6.86458,35.2577 9.36458,31.0911 13.5,28C 22.5667,23.3214 32.2333,20.988 42.5,21C 41.1667,19.6667 41.1667,18.3333 42.5,17C 41.0559,15.9363 39.3893,15.4363 37.5,15.5C 32.5578,16.8225 27.5578,17.3225 22.5,17C 17.7565,14.4351 14.7565,10.6018 13.5,5.5C 17.0014,6.87848 20.6681,7.54515 24.5,7.5C 31.7594,5.89503 39.0927,5.39503 46.5,6C 49.3333,7.5 51.5,9.66667 53,12.5C 55.412,8.7044 58.912,6.53774 63.5,6C 70.3852,5.56265 77.2185,6.06265 84,7.5C 87.408,7.75547 90.2414,6.75547 92.5,4.5 Z M 35.5,8.5 C 42.7441,6.69473 47.9108,9.02806 51,15.5C 52.1168,25.5988 52.2835,35.9322 51.5,46.5C 43.0763,48.899 39.5763,45.899 41,37.5C 44.6818,30.4383 46.0152,23.105 45,15.5C 44.1667,14.6667 43.3333,13.8333 42.5,13C 37.3247,12.5334 32.1581,12.7001 27,13.5C 24.0221,13.8517 21.5221,13.0184 19.5,11C 25.081,10.8501 30.4144,10.0168 35.5,8.5 Z M 63.5,8.5 C 72.1687,9.22196 80.8354,10.0553 89.5,11C 88.4495,12.3848 87.1161,13.3848 85.5,14C 79.1569,14.1801 72.8236,14.1801 66.5,14C 64.714,14.7845 63.214,15.9512 62,17.5C 60.8268,24.6527 62.1602,31.3194 66,37.5C 66.6667,40.1667 66.6667,42.8333 66,45.5C 62.2164,45.4565 58.3831,45.7899 54.5,46.5C 55.0802,37.1438 55.7469,27.8105 56.5,18.5C 55.3668,12.7718 57.7002,9.43847 63.5,8.5 Z M 38.5,24.5 C 43.5997,24.4657 43.7664,25.1323 39,26.5C 38.1667,26.3333 37.3333,26.1667 36.5,26C 37.4158,25.7216 38.0825,25.2216 38.5,24.5 Z M 28.5,25.5 C 37.441,25.4513 37.6076,26.118 29,27.5C 27.8333,27.3333 26.6667,27.1667 25.5,27C 26.7375,26.7679 27.7375,26.2679 28.5,25.5 Z M 65.5,27.5 C 87.3852,23.2178 98.8852,32.2178 100,54.5C 97.9077,51.6266 96.9077,48.2932 97,44.5C 91.0143,30.9176 80.5143,25.2509 65.5,27.5 Z M 17.5,29.5 C 18.2389,29.369 18.9056,29.5357 19.5,30C 12.2583,36.872 8.59165,45.372 8.5,55.5C 7.20527,45.3451 10.2053,36.6784 17.5,29.5 Z M 37.5,29.5 C 39.7602,30.2376 39.9269,31.2376 38,32.5C 36.2716,31.6477 36.105,30.6477 37.5,29.5 Z M 81.5,32.5 C 82.7733,33.0768 82.7733,33.7435 81.5,34.5C 80.537,34.0302 80.537,33.3635 81.5,32.5 Z M 33.5,33.5 C 36.0009,33.5109 36.1676,34.1776 34,35.5C 33.5357,34.9056 33.369,34.2389 33.5,33.5 Z M 68.5,33.5 C 70.0847,34.0024 70.5847,35.0024 70,36.5C 68.9614,35.7562 68.4614,34.7562 68.5,33.5 Z M 84.5,34.5 C 86.7602,35.2376 86.9269,36.2376 85,37.5C 83.2716,36.6477 83.105,35.6477 84.5,34.5 Z M 30.5,35.5 C 32.8918,36.7421 32.7251,38.0755 30,39.5C 28.4132,38.154 28.5798,36.8206 30.5,35.5 Z M 78.5,35.5 C 80.6569,36.0533 80.4903,37.0533 78,38.5C 77.5304,37.4232 77.6971,36.4232 78.5,35.5 Z M 81.5,37.5 C 82.2891,37.7828 82.9558,38.2828 83.5,39C 79.674,41.1442 79.0074,40.6442 81.5,37.5 Z M 87.5,37.5 C 88.2891,37.7828 88.9558,38.2828 89.5,39C 88.184,39.5281 87.5173,39.0281 87.5,37.5 Z M 26.5,39.5 C 29.1338,40.6584 28.9671,41.6584 26,42.5C 25.5304,41.4232 25.6971,40.4232 26.5,39.5 Z M 84.5,40.5 C 85.7125,41.4971 85.5458,42.4971 84,43.5C 83.5304,42.4232 83.6971,41.4232 84.5,40.5 Z M 71.5,41.5 C 72.7733,42.0768 72.7733,42.7435 71.5,43.5C 70.537,43.0302 70.537,42.3635 71.5,41.5 Z M 77.5,41.5 C 78.7733,42.0768 78.7733,42.7435 77.5,43.5C 76.537,43.0302 76.537,42.3635 77.5,41.5 Z M 29.5,42.5 C 31.6569,43.0533 31.4903,44.0533 29,45.5C 28.5304,44.4232 28.6971,43.4232 29.5,42.5 Z M 16.5,43.5 C 17.7733,44.0768 17.7733,44.7435 16.5,45.5C 15.537,45.0302 15.537,44.3635 16.5,43.5 Z M 22.5,43.5 C 24.9752,43.7467 24.9752,44.4134 22.5,45.5C 21.537,45.0302 21.537,44.3635 22.5,43.5 Z M 73.5,44.5 C 76.0009,44.5109 76.1676,45.1776 74,46.5C 73.5357,45.9056 73.369,45.2389 73.5,44.5 Z M 32.5,45.5 C 33.3764,45.3691 34.0431,45.7025 34.5,46.5C 32.1916,47.8734 31.5249,47.5401 32.5,45.5 Z M 19.5,46.5 C 20.7733,47.0768 20.7733,47.7435 19.5,48.5C 18.537,48.0302 18.537,47.3635 19.5,46.5 Z M 82.5,46.5 C 83.7733,47.0768 83.7733,47.7435 82.5,48.5C 81.537,48.0302 81.537,47.3635 82.5,46.5 Z M 88.5,46.5 C 91.0009,46.5109 91.1676,47.1776 89,48.5C 88.5357,47.9056 88.369,47.2389 88.5,46.5 Z M 85.5,89.5 C 85.1667,88.1667 84.8333,88.1667 84.5,89.5C 65.7898,94.4156 46.7898,95.5823 27.5,93C 20.0194,92.6359 14.186,89.4693 10,83.5C 9.50649,81.8659 9.33982,80.1992 9.5,78.5C 25.3251,75.8647 32.6584,66.6981 31.5,51C 46.5262,48.9944 61.5262,49.1611 76.5,51.5C 76.5991,56.7688 77.7658,61.7688 80,66.5C 82.5402,68.7047 84.7068,71.2047 86.5,74C 89.8013,75.5992 93.1346,77.0992 96.5,78.5C 94.456,83.8774 90.7893,87.5441 85.5,89.5 Z M 26.5,51.5 C 28.9781,58.9338 26.9781,65.4338 20.5,71C 17.0508,73.0588 13.3842,74.5588 9.5,75.5C 8.80762,74.9747 8.30762,74.3081 8,73.5C 7.17105,68.467 7.33772,63.467 8.5,58.5C 14.5984,56.1057 20.5984,53.7724 26.5,51.5 Z M 80.5,52.5 C 87.2088,53.8025 93.7088,55.8025 100,58.5C 100.784,63.8219 100.284,68.9885 98.5,74C 90.4638,72.6608 84.6305,68.1608 81,60.5C 80.5026,57.854 80.3359,55.1873 80.5,52.5 Z M 47.5,70.5 C 52.1785,70.3342 56.8452,70.5008 61.5,71C 64.8753,72.0295 66.0419,74.1961 65,77.5C 58.5835,79.9083 52.0835,80.075 45.5,78C 42.7586,74.711 43.4253,72.211 47.5,70.5 Z M 92.5,90.5 C 99.8398,91.4723 101.173,94.6389 96.5,100C 89.5381,102.849 86.5381,100.682 87.5,93.5C 89.1446,92.3037 90.8113,91.3037 92.5,90.5 Z M 10.5,91.5 C 13.8121,92.8204 17.1454,94.1538 20.5,95.5C 21.8333,96.8333 21.8333,98.1667 20.5,99.5C 16.7611,100.908 13.0944,100.741 9.5,99C 8.64332,98.3109 7.97665,97.4776 7.5,96.5C 8.25987,94.6396 9.25987,92.973 10.5,91.5 Z M 52.5,97.5 C 53.675,97.281 54.675,97.6143 55.5,98.5C 53.9483,99.7979 52.9483,99.4646 52.5,97.5 Z M 58.5,98.5 C 61.0009,98.5109 61.1676,99.1776 59,100.5C 58.5357,99.9056 58.369,99.2389 58.5,98.5 Z"/></g>
<g><path style="opacity:0.755" fill="#000000" d="M 51.5,66.5 C 56.3825,66.193 61.0492,67.0264 65.5,69C 71.1723,73.9312 70.839,78.2646 64.5,82C 58.5,82.6667 52.5,82.6667 46.5,82C 40.7473,80.3251 38.914,76.8251 41,71.5C 44.2624,69.145 47.7624,67.4783 51.5,66.5 Z M 47.5,70.5 C 43.4253,72.211 42.7586,74.711 45.5,78C 52.0835,80.075 58.5835,79.9083 65,77.5C 66.0419,74.1961 64.8753,72.0295 61.5,71C 56.8452,70.5008 52.1785,70.3342 47.5,70.5 Z"/></g>
</svg>
