<?xml version="1.0" encoding="UTF-8"?>
<svg version="1.1" xmlns="http://www.w3.org/2000/svg" width="110" height="110">
<path d="M0 0 C-0.54236391 3.87402791 -1.01831604 6.06496631 -3.890625 8.80078125 C-9.58583286 12.85910114 -13.36964234 13.69921508 -20.328125 12.6484375 C-21.12734375 12.53757812 -21.9265625 12.42671875 -22.75 12.3125 C-23.48734375 12.18488281 -24.2246875 12.05726562 -24.984375 11.92578125 C-27.08839648 11.80984611 -27.08839648 11.80984611 -28.703125 13.29296875 C-30.20584612 15.08070669 -30.20584612 15.08070669 -31 18 C-29.22496094 17.93039063 -29.22496094 17.93039063 -27.4140625 17.859375 C-18.51983341 17.61863461 -10.9902409 17.50298 -3 22 C-3 22.66 -3 23.32 -3 24 C-1.515 24.495 -1.515 24.495 0 25 C1.53515625 26.75 1.53515625 26.75 3.0625 29 C3.56910156 29.721875 4.07570313 30.44375 4.59765625 31.1875 C8.27125945 38.55517216 8.33906794 46.41271758 8.3125 54.5 C8.32861328 55.48097656 8.34472656 56.46195313 8.36132812 57.47265625 C8.36789216 67.33184398 6.07322467 74.28536326 0 82 C1.134375 82.515625 2.26875 83.03125 3.4375 83.5625 C6.5873716 85.37159122 6.92773269 85.80126488 8.25 89.4375 C8 93 8 93 5.875 95.8125 C2.10105981 98.68397623 -0.21537 100.03717979 -5 99.9375 C-8.82173262 98.74320856 -10.53184564 97.12148933 -13 94 C-13 92.68 -13 91.36 -13 90 C-15.96273295 90.39503106 -18.91814489 90.81477246 -21.875 91.25 C-22.71675781 91.35957031 -23.55851562 91.46914062 -24.42578125 91.58203125 C-25.23144531 91.70449219 -26.03710938 91.82695313 -26.8671875 91.953125 C-27.61081543 92.05786133 -28.35444336 92.16259766 -29.12060547 92.27050781 C-31.67172504 93.26073193 -31.9167102 94.56128963 -33 97 C-36.39770909 99.29147823 -38.44666853 100 -42.5625 100 C-46 99 -46 99 -48.125 96.5625 C-52.69487515 92.48935041 -58.08058701 92.6537647 -64 92 C-66.00200768 91.67894493 -68.00275174 91.34944313 -70 91 C-70.04125 91.763125 -70.0825 92.52625 -70.125 93.3125 C-71 96 -71 96 -73.5 97.875 C-77.99611304 99.32017919 -81.47330571 99.35385536 -86 98 C-89.125 95.8125 -89.125 95.8125 -91 93 C-90.93138456 89.70645874 -90.34554977 87.62198959 -88.75 84.75 C-87.87926539 81.55730642 -88.29391732 80.52277217 -89.3125 77.4375 C-94.27002881 62.38864587 -93.61524694 41.52182633 -87 27 C-83.1513666 21.2270499 -76.4558458 18.94171432 -70 17 C-64.71148876 15.97279666 -59.36341613 15.4560265 -54 15 C-54 13.68 -54 12.36 -54 11 C-58.27829737 10.92869504 -61.86726266 10.93348714 -66 12 C-69.66797188 12.56430337 -72.00765237 12.62683881 -75.1953125 10.61328125 C-79.19642384 7.3077036 -81.35821122 5.30851008 -82 0 C-81.30003906 0.16242187 -80.60007812 0.32484375 -79.87890625 0.4921875 C-76.84001007 1.02822075 -74.02147718 1.13279767 -70.9375 1.125 C-69.91527344 1.12757812 -68.89304687 1.13015625 -67.83984375 1.1328125 C-65.34788546 1.01626975 -63.39133968 0.62362388 -61 0 C-50.95468627 -1.11929448 -50.95468627 -1.11929448 -46.66015625 1.33984375 C-44.96740187 2.81105155 -43.44671136 4.28839783 -42 6 C-41.46375 5.38125 -40.9275 4.7625 -40.375 4.125 C-35.57315883 -0.1713842 -30.54203168 -0.25612356 -24.37890625 -0.13671875 C-21.53862153 0.026516 -18.80322501 0.52285532 -16 1 C-10.27921003 1.49030864 -10.27921003 1.49030864 -4.9140625 -0.07421875 C-3 -1 -3 -1 0 0 Z M-76 5 C-75.01 6.485 -75.01 6.485 -74 8 C-71.82039147 8.35028287 -71.82039147 8.35028287 -69.31640625 8.15234375 C-68.38892578 8.12462891 -67.46144531 8.09691406 -66.50585938 8.06835938 C-64.54734078 7.98128522 -62.58899823 7.89015448 -60.63085938 7.79492188 C-59.70208984 7.76849609 -58.77332031 7.74207031 -57.81640625 7.71484375 C-56.96506104 7.67480225 -56.11371582 7.63476074 -55.23657227 7.59350586 C-53 8 -53 8 -51.1965332 9.83105469 C-48.68392087 14.38564517 -50.86643171 20.17052677 -52 25 C-52.8125 27.1953125 -52.8125 27.1953125 -53.625 28.9375 C-55.12592079 32.28045994 -55.41148481 34.37893369 -55 38 C-54.34 38.99 -53.68 39.98 -53 41 C-50.79274927 41.36362818 -50.79274927 41.36362818 -48.375 41.1875 C-47.14910156 41.14689453 -47.14910156 41.14689453 -45.8984375 41.10546875 C-44.95871094 41.05326172 -44.95871094 41.05326172 -44 41 C-41.66645668 22.99560256 -41.66645668 22.99560256 -45.9375 6.1875 C-47.96894695 4.03293505 -48.89425607 3.10203216 -51.8203125 2.83203125 C-59.97635235 2.76291227 -67.93900185 3.8798613 -76 5 Z M-38 5 C-40.45999576 8.50520274 -40.3438326 12.26047031 -40.4140625 16.390625 C-40.43342865 17.09523865 -40.4527948 17.79985229 -40.4727478 18.52581787 C-40.53232735 20.76709039 -40.57884123 23.00841489 -40.625 25.25 C-40.66319979 26.77345938 -40.70225269 28.29689762 -40.7421875 29.8203125 C-40.83801018 33.54668106 -40.92212107 37.27320835 -41 41 C-39.18757948 41.02687279 -37.37504767 41.04633715 -35.5625 41.0625 C-34.55316406 41.07410156 -33.54382812 41.08570313 -32.50390625 41.09765625 C-30.05978933 41.28612676 -30.05978933 41.28612676 -29 40 C-28.54430486 34.98735344 -28.94252995 31.72704432 -31 27.125 C-33.11363063 22.2410035 -34.31672617 17.27658648 -33 12 C-31.5625 10.2109375 -31.5625 10.2109375 -29 9 C-24.96801686 8.67411025 -20.94233393 8.98309549 -16.91015625 9.20507812 C-11.77434937 9.46486791 -11.77434937 9.46486791 -7.40625 6.99609375 C-6.9421875 6.33738281 -6.478125 5.67867187 -6 5 C-22.28924947 2.04623875 -22.28924947 2.04623875 -38 5 Z M-57 19 C-57.66 19.66 -58.32 20.32 -59 21 C-57.35 21 -55.7 21 -54 21 C-53.67 20.34 -53.34 19.68 -53 19 C-54.32 19 -55.64 19 -57 19 Z M-70 22 C-64.67829506 22.29562367 -64.67829506 22.29562367 -60 20 C-65.32170494 19.70437633 -65.32170494 19.70437633 -70 22 Z M-30 21 C-30 21.33 -30 21.66 -30 22 C-28.69804688 22.17015625 -27.39609375 22.3403125 -26.0546875 22.515625 C-24.32801109 22.75961188 -22.60145461 23.00444854 -20.875 23.25 C-20.0190625 23.35957031 -19.163125 23.46914063 -18.28125 23.58203125 C-11.88277109 24.51719355 -7.3948815 26.09300548 -3.13671875 31.26171875 C0.29154192 37.00012812 1.78389921 41.30087562 2 48 C2.99 48.33 3.98 48.66 5 49 C3.52705839 36.08052183 3.52705839 36.08052183 -3.78515625 25.640625 C-11.66151951 19.80628184 -20.61167045 20.6660278 -30 21 Z M-79.62109375 25.43359375 C-86.58572832 33.11715834 -88.48883297 39.73450756 -88 50 C-87.34 50 -86.68 50 -86 50 C-85.89042969 49.13117187 -85.78085938 48.26234375 -85.66796875 47.3671875 C-84.34296543 37.73667555 -81.72240034 31.73297343 -76 24 C-78.11097594 23.77918099 -78.11097594 23.77918099 -79.62109375 25.43359375 Z M-58 24 C-58 24.99 -58 25.98 -58 27 C-57.34 26.34 -56.68 25.68 -56 25 C-56.66 24.67 -57.32 24.34 -58 24 Z M-14 27 C-14.33 27.66 -14.66 28.32 -15 29 C-14.34 29 -13.68 29 -13 29 C-13.33 28.34 -13.66 27.68 -14 27 Z M-62 28 C-61.67 28.66 -61.34 29.32 -61 30 C-60.67 29.34 -60.34 28.68 -60 28 C-60.66 28 -61.32 28 -62 28 Z M-27 28 C-26.67 28.99 -26.34 29.98 -26 31 C-26 30.01 -26 29.02 -26 28 C-26.33 28 -26.66 28 -27 28 Z M-11 29 C-11 29.99 -11 30.98 -11 32 C-10.34 31.34 -9.68 30.68 -9 30 C-9.66 29.67 -10.32 29.34 -11 29 Z M-65 30 C-65.99 31.485 -65.99 31.485 -67 33 C-66.01 33 -65.02 33 -64 33 C-64 32.01 -64 31.02 -64 30 C-64.33 30 -64.66 30 -65 30 Z M-17 30 C-17 30.99 -17 31.98 -17 33 C-16.34 32.01 -15.68 31.02 -15 30 C-15.66 30 -16.32 30 -17 30 Z M-59 31 C-58 33 -58 33 -58 33 Z M-14 32 C-14.99 33.485 -14.99 33.485 -16 35 C-14.68 34.67 -13.36 34.34 -12 34 C-12.66 33.34 -13.32 32.68 -14 32 Z M-8 32 C-8 32.66 -8 33.32 -8 34 C-7.34 33.67 -6.68 33.34 -6 33 C-6.66 32.67 -7.32 32.34 -8 32 Z M-69 34 C-69 34.99 -69 35.98 -69 37 C-68.34 36.34 -67.68 35.68 -67 35 C-67.66 34.67 -68.32 34.34 -69 34 Z M-11 35 C-11 38 -11 38 -11 38 Z M-5 35 C-4 37 -4 37 -4 37 Z M-24 36 C-24.33 36.66 -24.66 37.32 -25 38 C-24.34 38 -23.68 38 -23 38 C-23.33 37.34 -23.66 36.68 -24 36 Z M-18 36 C-18.33 36.66 -18.66 37.32 -19 38 C-18.34 38 -17.68 38 -17 38 C-17.33 37.34 -17.66 36.68 -18 36 Z M-66 37 C-66 37.99 -66 38.98 -66 40 C-65.34 39.01 -64.68 38.02 -64 37 C-64.66 37 -65.32 37 -66 37 Z M-60 37 C-59 39 -59 39 -59 39 Z M-79 38 C-79.33 38.66 -79.66 39.32 -80 40 C-79.34 40 -78.68 40 -78 40 C-78.33 39.34 -78.66 38.68 -79 38 Z M-73 38 C-73.33 38.66 -73.66 39.32 -74 40 C-73.01 39.67 -72.02 39.34 -71 39 C-71.66 38.67 -72.32 38.34 -73 38 Z M-22 39 C-21.67 39.66 -21.34 40.32 -21 41 C-20.67 40.34 -20.34 39.68 -20 39 C-20.66 39 -21.32 39 -22 39 Z M-63 40 C-63.33 40.66 -63.66 41.32 -64 42 C-63.01 42 -62.02 42 -61 42 C-61 41.34 -61 40.68 -61 40 C-61.66 40 -62.32 40 -63 40 Z M-76 41 C-76.33 41.66 -76.66 42.32 -77 43 C-76.34 43 -75.68 43 -75 43 C-75.33 42.34 -75.66 41.68 -76 41 Z M-13 41 C-13.33 41.66 -13.66 42.32 -14 43 C-13.34 43 -12.68 43 -12 43 C-12.33 42.34 -12.66 41.68 -13 41 Z M-7 41 C-6.67 41.66 -6.34 42.32 -6 43 C-5.67 42.34 -5.34 41.68 -5 41 C-5.66 41 -6.32 41 -7 41 Z M-64 45 C-65.24924434 47.49848869 -65.21507386 49.46271578 -65.375 52.25 C-65.91338172 58.40522981 -67.1763441 62.0851613 -71.5 66.625 C-75.7352055 69.94651904 -80.93346204 71.38628061 -86 73 C-86.12305105 76.20467742 -86.16522776 77.70546355 -84.5625 80.5625 C-74.07351341 90.53982871 -56.9372262 89.41678458 -43.40234375 89.19140625 C-21.3082032 89.03955253 -21.3082032 89.03955253 -2.3046875 79.62890625 C-0.42283619 77.27940926 0.37489102 74.91717523 1 72 C0.03900391 71.72349609 0.03900391 71.72349609 -0.94140625 71.44140625 C-8.14708852 69.02519387 -12.48098862 65.82297207 -16 59 C-17.34933863 54.7110308 -18.28017194 50.43551195 -19 46 C-27.63416971 44.0774811 -36.06099239 43.80737818 -44.875 43.8125 C-45.95644287 43.81185547 -47.03788574 43.81121094 -48.15209961 43.81054688 C-56.13064225 43.85028367 -56.13064225 43.85028367 -64 45 Z M-72.84375 47.27734375 C-73.59527344 47.54353516 -74.34679687 47.80972656 -75.12109375 48.08398438 C-75.90613281 48.36564453 -76.69117188 48.64730469 -77.5 48.9375 C-78.28503906 49.21529297 -79.07007813 49.49308594 -79.87890625 49.77929688 C-84.00850919 51.2248384 -84.00850919 51.2248384 -88 53 C-88.02691685 55.45840605 -88.04679802 57.91651882 -88.0625 60.375 C-88.07087891 61.07367188 -88.07925781 61.77234375 -88.08789062 62.4921875 C-88.1835442 66.37295376 -88.1835442 66.37295376 -87 70 C-79.19472353 68.38511521 -73.58351041 65.87526562 -69 59 C-67.06688973 54.55384638 -66.8070926 50.82268489 -67 46 C-69.25255532 46 -70.72346179 46.52339187 -72.84375 47.27734375 Z M-15 47 C-15.42216258 53.12135734 -15.12743454 56.15026442 -11 61 C-5.07778499 67.09876685 -5.07778499 67.09876685 3 69 C5.27141454 63.60539047 5.20413361 58.73842251 5 53 C0.58906668 50.5773797 -3.44595776 49.28900837 -8.375 48.3125 C-9.62023437 48.06113281 -10.86546875 47.80976562 -12.1484375 47.55078125 C-13.08945313 47.36902344 -14.03046875 47.18726563 -15 47 Z M-85 86 C-86.63676257 87.9600281 -86.63676257 87.9600281 -88 90 C-86.6910428 93.12197478 -86.6910428 93.12197478 -84 95 C-82.08499697 95.15898854 -82.08499697 95.15898854 -80 95.125 C-79.29875 95.12757812 -78.5975 95.13015625 -77.875 95.1328125 C-75.90846225 95.11377236 -75.90846225 95.11377236 -74 94 C-74 92.68 -74 91.36 -74 90 C-75.4562545 89.32880451 -76.91507867 88.66318193 -78.375 88 C-79.18710938 87.62875 -79.99921875 87.2575 -80.8359375 86.875 C-82.91998433 85.87504987 -82.91998433 85.87504987 -85 86 Z M-9 88 C-9.2502157 90.91634129 -9.2502157 90.91634129 -9 94 C-6.11279881 96.36721366 -6.11279881 96.36721366 -2.5 95.75 C1.09120499 95.20500944 1.09120499 95.20500944 4 93 C4.66685938 90.54327108 4.66685938 90.54327108 4 88 C-1.3030917 83.95290371 -3.3548856 85.05472292 -9 88 Z M-43 92 C-43 92.66 -43 93.32 -43 94 C-42.01 94 -41.02 94 -40 94 C-40 93.34 -40 92.68 -40 92 C-40.99 92 -41.98 92 -43 92 Z M-47 93 C-46 95 -46 95 -46 95 Z M-37 93 C-36.67 93.66 -36.34 94.32 -36 95 C-35.67 94.34 -35.34 93.68 -35 93 C-35.66 93 -36.32 93 -37 93 Z " fill="#000000" transform="translate(96,6)"/>
<path d="M0 0 C2.25979495 2.18689834 2.88578251 3.42891253 3.5 6.5 C3 9 3 9 1.02734375 11.125 C-3.06321835 13.65850943 -6.22238807 13.5923777 -10.9375 13.5 C-12.11602539 13.52320313 -12.11602539 13.52320313 -13.31835938 13.546875 C-18.65404171 13.51115495 -21.79473542 12.5567892 -26 9 C-27.1875 6.5625 -27.1875 6.5625 -27 4 C-20.4226269 -4.8383451 -8.95601272 -4.91702659 0 0 Z M-23 4 C-22.80528889 5.94999129 -22.80528889 5.94999129 -22 8 C-18.73692329 10.17538447 -15.92163976 10.26946603 -12.0625 10.25 C-11.04285156 10.25515625 -10.02320313 10.2603125 -8.97265625 10.265625 C-5.94667796 9.99523535 -3.74174353 9.27241136 -1 8 C-1.27034634 5.56282742 -1.27034634 5.56282742 -2 3 C-5.65577427 0.56281715 -7.58669902 0.70119612 -11.9375 0.6875 C-13.16339844 0.67074219 -14.38929687 0.65398437 -15.65234375 0.63671875 C-19.14446505 1.01567707 -20.49451713 1.62010525 -23 4 Z " fill="#000000" transform="translate(67,70)"/>
<path d="" fill="#000000" transform="translate(0,0)"/>
<path d="" fill="#000000" transform="translate(0,0)"/>
</svg>
