<?xml version="1.0" encoding="UTF-8"?>
<!DOCTYPE svg PUBLIC "-//W3C//DTD SVG 1.1//EN" "http://www.w3.org/Graphics/SVG/1.1/DTD/svg11.dtd">
<svg xmlns="http://www.w3.org/2000/svg" version="1.1" width="110px" height="110px" style="shape-rendering:geometricPrecision; text-rendering:geometricPrecision; image-rendering:optimizeQuality; fill-rule:evenodd; clip-rule:evenodd" xmlns:xlink="http://www.w3.org/1999/xlink">
<g><path style="opacity:0.77" fill="#000000" d="M 32.5,3.5 C 43.8556,3.99443 55.189,3.99443 66.5,3.5C 73.139,5.29947 79.8057,5.63281 86.5,4.5C 93.7252,6.22794 98.5585,10.5613 101,17.5C 102.848,34.1879 102.515,50.8546 100,67.5C 98.3493,72.8026 95.516,77.3026 91.5,81C 101.271,83.7042 104.105,89.5375 100,98.5C 97.0304,100.401 93.8637,101.901 90.5,103C 82.8333,103.667 75.1667,103.667 67.5,103C 60.8874,101.221 56.8874,97.0546 55.5,90.5C 55.4858,88.4075 56.1524,86.5741 57.5,85C 55.5273,84.5045 53.5273,84.3379 51.5,84.5C 50.8261,93.6755 46.1594,99.8422 37.5,103C 29.8333,103.667 22.1667,103.667 14.5,103C 11.0879,101.545 7.9212,99.7121 5,97.5C -0.0239281,83.7462 4.47607,79.4128 18.5,84.5C 19.7946,83.9017 21.1279,83.4017 22.5,83C 13.7956,80.9205 7.29563,76.0871 3,68.5C 2.33333,55.5 2.33333,42.5 3,29.5C 6.17618,13.1512 16.0095,4.48457 32.5,3.5 Z M 18.5,54.5 C 18.7709,52.6203 18.1042,51.287 16.5,50.5C 20.2889,45.2519 19.9556,40.0852 15.5,35C 25.1667,26.6667 34.1667,17.6667 42.5,8C 45.5,7.33333 48.5,7.33333 51.5,8C 39.3646,18.1196 28.8646,29.2862 20,41.5C 21.3088,43.9757 23.1421,45.9757 25.5,47.5C 23.4789,50.1878 21.1456,52.5211 18.5,54.5 Z M 55.5,11.5 C 54.8333,11.5 54.5,11.8333 54.5,12.5C 53.8333,12.5 53.5,12.8333 53.5,13.5C 52.8333,13.5 52.5,13.8333 52.5,14.5C 51.8333,14.5 51.5,14.8333 51.5,15.5C 49.5,15.5 48.5,16.5 48.5,18.5C 47.8333,18.5 47.5,18.8333 47.5,19.5C 45.7376,20.2623 44.7376,21.5956 44.5,23.5C 43.8333,23.5 43.5,23.8333 43.5,24.5C 42.8333,24.5 42.5,24.8333 42.5,25.5C 38.7644,27.81 38.7644,28.4767 42.5,27.5C 41.9202,29.7488 40.5869,31.4154 38.5,32.5C 37.9222,31.453 37.2555,31.6197 36.5,33C 36.7284,33.3988 37.0618,33.5654 37.5,33.5C 37.1667,34.5 36.5,35.1667 35.5,35.5C 34.6726,34.5613 34.0059,34.8946 33.5,36.5C 32.2999,39.3782 30.2999,41.7115 27.5,43.5C 25.4559,42.6443 24.2892,41.311 24,39.5C 33.4754,30.3569 42.642,20.8569 51.5,11C 53.8595,9.64249 56.1928,8.64249 58.5,8C 57.2899,9.0391 56.2899,10.2058 55.5,11.5 Z M 66.5,7.5 C 68.9752,7.7467 68.9752,8.41336 66.5,9.5C 65.537,9.03017 65.537,8.3635 66.5,7.5 Z M 21.5,8.5 C 24.5576,11.0514 27.5576,13.8847 30.5,17C 28.2406,18.7146 26.0739,20.5479 24,22.5C 21.2567,19.3456 18.7567,16.0122 16.5,12.5C 18.0147,10.9178 19.6814,9.5845 21.5,8.5 Z M 77.5,8.5 C 78.552,8.35055 79.552,8.51722 80.5,9C 76.5289,12.4738 75.5289,12.3071 77.5,8.5 Z M 84.5,9.5 C 85.0768,8.22671 85.7435,8.22671 86.5,9.5C 86.0302,10.463 85.3635,10.463 84.5,9.5 Z M 70.5,9.5 C 72.8918,10.7421 72.7251,12.0755 70,13.5C 68.4132,12.154 68.5798,10.8206 70.5,9.5 Z M 81.5,10.5 C 83.8918,11.7421 83.7251,13.0755 81,14.5C 79.4132,13.154 79.5798,11.8206 81.5,10.5 Z M 55.5,11.5 C 56.609,11.5569 57.609,11.8902 58.5,12.5C 56.4523,15.2206 54.4523,17.2206 52.5,18.5C 50.1667,20.1667 48.1667,22.1667 46.5,24.5C 45.1667,25.5 43.8333,26.5 42.5,27.5C 42.5,26.8333 42.5,26.1667 42.5,25.5C 43.1667,25.5 43.5,25.1667 43.5,24.5C 44.1667,24.5 44.5,24.1667 44.5,23.5C 46.2624,22.7377 47.2624,21.4044 47.5,19.5C 48.1667,19.5 48.5,19.1667 48.5,18.5C 49.8333,17.8333 50.8333,16.8333 51.5,15.5C 52.1667,15.5 52.5,15.1667 52.5,14.5C 53.1667,14.5 53.5,14.1667 53.5,13.5C 54.1667,13.5 54.5,13.1667 54.5,12.5C 55.1667,12.5 55.5,12.1667 55.5,11.5 Z M 63.5,11.5 C 65.6569,12.0533 65.4903,13.0533 63,14.5C 62.5304,13.4232 62.6971,12.4232 63.5,11.5 Z M 73.5,12.5 C 76.1247,13.4657 76.1247,14.4657 73.5,15.5C 72.4376,14.5754 72.4376,13.5754 73.5,12.5 Z M 66.5,13.5 C 69.1247,14.4657 69.1247,15.4657 66.5,16.5C 65.4376,15.5754 65.4376,14.5754 66.5,13.5 Z M 90.5,13.5 C 93.9067,13.1253 94.4067,14.1253 92,16.5C 90.9614,15.7562 90.4614,14.7562 90.5,13.5 Z M 84.5,14.5 C 86.6569,15.0533 86.4903,16.0533 84,17.5C 83.5304,16.4232 83.6971,15.4232 84.5,14.5 Z M 59.5,15.5 C 61.9752,15.7467 61.9752,16.4134 59.5,17.5C 58.537,17.0302 58.537,16.3635 59.5,15.5 Z M 69.5,16.5 C 71.9732,16.9473 72.1399,17.9473 70,19.5C 68.2716,18.6477 68.105,17.6477 69.5,16.5 Z M 94.5,16.5 C 97.0118,17.2162 97.0118,18.2162 94.5,19.5C 93.4376,18.5754 93.4376,17.5754 94.5,16.5 Z M 62.5,17.5 C 64.9732,17.9473 65.1399,18.9473 63,20.5C 61.2716,19.6477 61.105,18.6477 62.5,17.5 Z M 87.5,17.5 C 90.0118,18.2162 90.0118,19.2162 87.5,20.5C 86.4376,19.5754 86.4376,18.5754 87.5,17.5 Z M 73.5,18.5 C 75.8519,19.5426 76.0185,20.8759 74,22.5C 72.2317,21.3181 72.0651,19.9848 73.5,18.5 Z M 80.5,18.5 C 81.7125,19.4971 81.5458,20.4971 80,21.5C 79.5304,20.4232 79.6971,19.4232 80.5,18.5 Z M 65.5,20.5 C 67.337,20.6395 67.6704,21.3061 66.5,22.5C 65.7025,22.0431 65.3691,21.3764 65.5,20.5 Z M 90.5,20.5 C 93.0118,21.2162 93.0118,22.2162 90.5,23.5C 89.4376,22.5754 89.4376,21.5754 90.5,20.5 Z M 54.5,21.5 C 55.7733,22.0768 55.7733,22.7435 54.5,23.5C 53.537,23.0302 53.537,22.3635 54.5,21.5 Z M 83.5,21.5 C 86.1368,23.1538 85.8034,23.6538 82.5,23C 83.056,22.6174 83.3893,22.1174 83.5,21.5 Z M 76.5,22.5 C 77.3764,22.3691 78.0431,22.7025 78.5,23.5C 76.1916,24.8734 75.5249,24.5401 76.5,22.5 Z M 7.5,23.5 C 9.79978,30.5392 12.7998,37.3726 16.5,44C 12.728,47.566 9.56133,47.066 7,42.5C 6.3466,36.1383 6.51327,29.805 7.5,23.5 Z M 62.5,23.5 C 63.2891,23.7828 63.9558,24.2828 64.5,25C 63.184,25.5281 62.5173,25.0281 62.5,23.5 Z M 56.5,24.5 C 59.0009,24.5109 59.1676,25.1776 57,26.5C 56.5357,25.9056 56.369,25.2389 56.5,24.5 Z M 86.5,25.5 C 87.4971,24.2875 88.4971,24.4542 89.5,26C 88.4232,26.4696 87.4232,26.3029 86.5,25.5 Z M 59.5,26.5 C 61.337,26.6395 61.6704,27.3061 60.5,28.5C 59.7025,28.0431 59.3691,27.3764 59.5,26.5 Z M 53.5,27.5 C 55.9752,27.7467 55.9752,28.4134 53.5,29.5C 52.537,29.0302 52.537,28.3635 53.5,27.5 Z M 60.5,76.5 C 58.5742,75.7577 56.7409,74.7577 55,73.5C 46.7405,56.5902 49.9072,42.0902 64.5,30C 75.7316,27.051 86.3983,28.3844 96.5,34C 98.0074,34.8373 98.5074,36.0039 98,37.5C 89.626,30.9079 80.126,28.7412 69.5,31C 56.2334,37.7544 50.7334,48.5877 53,63.5C 54.9927,68.1555 57.4927,72.4888 60.5,76.5 Z M 56.5,29.5 C 58.9752,29.7467 58.9752,30.4134 56.5,31.5C 55.537,31.0302 55.537,30.3635 56.5,29.5 Z M 42.5,32.5 C 46.17,34.3016 48.8367,37.1349 50.5,41C 48.608,44.6754 47.108,48.5088 46,52.5C 38.8333,61 31.6667,69.5 24.5,78C 22.1009,78.711 19.7676,78.5443 17.5,77.5C 21.0727,70.0516 26.5727,63.7182 34,58.5C 36.9542,53.6101 40.6208,49.2768 45,45.5C 45.6667,44.8333 45.6667,44.1667 45,43.5C 42.9824,41.6499 41.1491,39.6499 39.5,37.5C 40.9524,36.0603 41.9524,34.3936 42.5,32.5 Z M 73.5,33.5 C 76.1667,33.5 78.8333,33.5 81.5,33.5C 82.2356,42.5894 86.9022,48.9227 95.5,52.5C 97.6177,56.9816 96.2843,59.815 91.5,61C 88.315,63.884 85.4816,67.0507 83,70.5C 82.502,73.4816 82.3354,76.4816 82.5,79.5C 79.8333,79.5 77.1667,79.5 74.5,79.5C 73.7728,67.4393 67.4395,61.106 55.5,60.5C 55.5,58.1667 55.5,55.8333 55.5,53.5C 67.4963,52.1483 73.4963,45.4816 73.5,33.5 Z M 70.5,34.5 C 69.8817,42.9625 65.3817,48.2959 57,50.5C 58.4447,42.6221 62.9447,37.2887 70.5,34.5 Z M 84.5,34.5 C 91.2908,35.1986 95.6241,38.6986 97.5,45C 97.8679,46.473 97.3679,47.973 96,49.5C 90.0436,46.0537 86.2103,41.0537 84.5,34.5 Z M 36.5,39.5 C 39.0735,40.8793 40.5735,42.8793 41,45.5C 31.8058,55.0266 22.6391,64.5266 13.5,74C 10.5303,74.0217 9.36368,72.5217 10,69.5C 18.7274,59.2808 27.5608,49.2808 36.5,39.5 Z M 77.5,54.5 C 79.4646,54.9483 79.7979,55.9483 78.5,57.5C 76.4807,56.8671 76.1474,55.8671 77.5,54.5 Z M 5.5,56.5 C 8.00092,56.5109 8.16758,57.1776 6,58.5C 5.53566,57.9056 5.36899,57.2389 5.5,56.5 Z M 43.5,60.5 C 46.8262,65.1447 49.6595,70.1447 52,75.5C 53.5429,77.3783 55.3762,78.8783 57.5,80C 56.1667,80.6667 54.8333,80.6667 53.5,80C 49.3333,75.1667 45.1667,70.3333 41,65.5C 41.0579,63.5646 41.8912,61.8979 43.5,60.5 Z M 94.5,62.5 C 95.5862,62.62 96.2528,63.2867 96.5,64.5C 95.5558,68.3892 94.0558,72.0559 92,75.5C 90.1295,77.2189 87.9628,78.2189 85.5,78.5C 85.259,75.2065 86.0924,72.2065 88,69.5C 90.3722,67.2968 92.5389,64.9635 94.5,62.5 Z M 56.5,64.5 C 56.7352,63.9033 57.2352,63.5699 58,63.5C 60.1113,64.4721 62.2779,65.3054 64.5,66C 67.3878,69.6471 69.7211,73.6471 71.5,78C 69.7111,78.5205 68.0444,78.1871 66.5,77C 62.3058,73.4019 58.9724,69.2352 56.5,64.5 Z M 6.5,65.5 C 8.76023,66.2376 8.9269,67.2376 7,68.5C 6.51722,67.552 6.35055,66.552 6.5,65.5 Z M 37.5,67.5 C 41.5904,71.4539 45.5904,75.6206 49.5,80C 46.0717,80.7011 42.7383,80.3677 39.5,79C 39.8333,78.6667 40.1667,78.3333 40.5,78C 37.5363,77.1597 37.203,76.1597 39.5,75C 37.8333,74 36.5,72.6667 35.5,71C 36.8228,70.1841 37.4894,69.0174 37.5,67.5 Z M 26.5,83.5 C 31.8333,83.5 37.1667,83.5 42.5,83.5C 42.5,84.8333 42.5,86.1667 42.5,87.5C 43.5,87.5 44.5,87.5 45.5,87.5C 45.281,86.325 45.6143,85.325 46.5,84.5C 47.8675,88.4575 46.8675,91.7908 43.5,94.5C 35.9677,93.4006 28.4677,93.4006 21,94.5C 17.7125,93.3448 14.3792,92.3448 11,91.5C 9.52719,91.9031 8.19386,92.5697 7,93.5C 6.50335,91.1902 6.33669,88.8568 6.5,86.5C 11.1595,87.1667 15.8262,87.3334 20.5,87C 23.0254,86.5762 25.0254,85.4095 26.5,83.5 Z M 60.5,84.5 C 63.1667,84.5 65.8333,84.5 68.5,84.5C 68.3367,86.8568 68.5034,89.1902 69,91.5C 74.8352,95.9998 81.0018,96.4998 87.5,93C 88.7596,91.1862 88.7596,89.3529 87.5,87.5C 84.0164,91.2941 79.6831,92.4607 74.5,91C 71.527,89.7758 70.8603,87.7758 72.5,85C 79.5,84.3333 86.5,84.3333 93.5,85C 99.0912,88.2789 99.7579,92.2789 95.5,97C 90.2018,99.8528 84.5351,101.02 78.5,100.5C 72.1774,101.335 66.5107,99.8347 61.5,96C 57.9534,92.4374 57.6201,88.604 60.5,84.5 Z M 8.5,94.5 C 10.337,94.6395 10.6704,95.3061 9.5,96.5C 8.70245,96.0431 8.36912,95.3764 8.5,94.5 Z M 14.5,96.5 C 17.9318,96.2479 18.9318,97.5812 17.5,100.5C 14.6494,100.037 13.6494,98.7036 14.5,96.5 Z M 22.5,96.5 C 28.057,98.9887 27.7237,100.322 21.5,100.5C 21.4326,99.0413 21.7659,97.7079 22.5,96.5 Z M 30.5,96.5 C 34.7723,99.0345 34.439,100.368 29.5,100.5C 29.4326,99.0413 29.7659,97.7079 30.5,96.5 Z M 37.5,96.5 C 41.3389,97.05 41.3389,98.05 37.5,99.5C 36.4376,98.5754 36.4376,97.5754 37.5,96.5 Z"/></g>
<g><path style="opacity:0.111" fill="#000000" d="M 51.5,15.5 C 50.8333,16.8333 49.8333,17.8333 48.5,18.5C 48.5,16.5 49.5,15.5 51.5,15.5 Z"/></g>
<g><path style="opacity:0.075" fill="#000000" d="M 47.5,19.5 C 47.2624,21.4044 46.2624,22.7377 44.5,23.5C 44.7376,21.5956 45.7376,20.2623 47.5,19.5 Z"/></g>
<g><path style="opacity:0.131" fill="#000000" d="M 42.5,25.5 C 42.5,26.1667 42.5,26.8333 42.5,27.5C 38.7644,28.4767 38.7644,27.81 42.5,25.5 Z"/></g>
<g><path style="opacity:0.769" fill="#000000" d="M 76.5,48.5 C 79.7727,50.4342 82.7727,52.7675 85.5,55.5C 82.6366,57.5369 80.4699,60.2036 79,63.5C 77.1351,60.6423 74.9685,58.1423 72.5,56C 74.4982,53.836 75.8316,51.336 76.5,48.5 Z M 77.5,54.5 C 76.1474,55.8671 76.4807,56.8671 78.5,57.5C 79.7979,55.9483 79.4646,54.9483 77.5,54.5 Z"/></g>
<g><path style="opacity:0.78" fill="#000000" d="M 36.5,86.5 C 37.5,86.5 38.5,86.5 39.5,86.5C 39.5,87.5 39.5,88.5 39.5,89.5C 38.5,89.5 37.5,89.5 36.5,89.5C 36.5,88.5 36.5,87.5 36.5,86.5 Z"/></g>
<g><path style="opacity:0.559" fill="#000000" d="M 11.5,88.5 C 15.5878,88.2184 16.0878,88.8851 13,90.5C 11.9701,90.1639 11.4701,89.4972 11.5,88.5 Z"/></g>
<g><path style="opacity:0.792" fill="#000000" d="M 24.5,88.5 C 28.31,89.7542 28.31,90.7542 24.5,91.5C 24.5,90.5 24.5,89.5 24.5,88.5 Z"/></g>
<g><path style="opacity:0.742" fill="#000000" d="M 30.5,88.5 C 31.5,88.5 32.5,88.5 33.5,88.5C 33.5,89.5 33.5,90.5 33.5,91.5C 32.5,91.5 31.5,91.5 30.5,91.5C 30.5,90.5 30.5,89.5 30.5,88.5 Z"/></g>
<g><path style="opacity:0.681" fill="#000000" d="M 17.5,89.5 C 18.5,89.5 19.5,89.5 20.5,89.5C 20.5,90.5 20.5,91.5 20.5,92.5C 19.5,92.5 18.5,92.5 17.5,92.5C 17.5,91.5 17.5,90.5 17.5,89.5 Z"/></g>
</svg>
