<?xml version="1.0" encoding="UTF-8"?>
<svg version="1.1" xmlns="http://www.w3.org/2000/svg" width="110" height="110">
<path d="M0 0 C1.15458206 -0.00143509 1.15458206 -0.00143509 2.33248901 -0.00289917 C3.94415367 -0.00357382 5.55582117 -0.00176996 7.16748047 0.00244141 C9.61822655 0.00781478 12.06879064 0.0024644 14.51953125 -0.00390625 C16.09635457 -0.00324563 17.67317777 -0.0019648 19.25 0 C20.33464035 -0.00303635 20.33464035 -0.00303635 21.44119263 -0.00613403 C25.87966739 0.01410817 30.11008983 0.45768431 34.4921875 1.1328125 C36.47214134 1.10470993 38.45197181 1.04353462 40.4296875 0.9453125 C47.34311367 0.88474431 51.58450376 2.76075471 56.8671875 7.0703125 C66.45358942 19.23766878 61.92181344 44.86903307 60.328125 59.21484375 C59.42707181 65.52100826 57.30562606 70.96187271 53.4921875 76.1328125 C52.5021875 76.6278125 52.5021875 76.6278125 51.4921875 77.1328125 C52.04648438 77.45894531 52.60078125 77.78507812 53.171875 78.12109375 C53.89632812 78.55808594 54.62078125 78.99507813 55.3671875 79.4453125 C56.08648437 79.87457031 56.80578125 80.30382812 57.546875 80.74609375 C59.4921875 82.1328125 59.4921875 82.1328125 61.4921875 85.1328125 C61.8473761 88.40054761 61.66125868 90.65941318 60.5546875 93.7578125 C56.96893192 97.88686438 52.11817617 99.74896566 46.74633789 100.53417969 C43.81799384 100.70388055 40.92501412 100.72807075 37.9921875 100.6953125 C37.01121094 100.71916016 36.03023438 100.74300781 35.01953125 100.76757812 C28.07679699 100.75371115 23.0998575 99.29921905 17.4921875 95.1328125 C15.01307829 92.20295616 14.54160113 90.76283622 14.2421875 86.9453125 C14.4921875 84.1328125 14.4921875 84.1328125 15.4921875 82.1328125 C13.8421875 81.8028125 12.1921875 81.4728125 10.4921875 81.1328125 C10.4096875 82.1640625 10.3271875 83.1953125 10.2421875 84.2578125 C8.89246658 91.23137061 4.97777249 95.0478024 -0.5078125 99.1328125 C-9.09828066 101.99630189 -21.57062469 101.60346419 -30.1796875 99.0390625 C-34.33187404 96.72956229 -36.12068711 94.93573923 -38.1953125 90.6328125 C-38.51320482 87.0724185 -38.68866665 84.51792773 -37.5078125 81.1328125 C-33.72367487 79.0791435 -30.91360191 78.99958486 -26.6953125 79.5078125 C-25.71949219 79.61867188 -24.74367188 79.72953125 -23.73828125 79.84375 C-23.00222656 79.93914062 -22.26617188 80.03453125 -21.5078125 80.1328125 C-22.48363281 79.55273438 -23.45945312 78.97265625 -24.46484375 78.375 C-25.75048306 77.5867248 -27.03561277 76.79761805 -28.3203125 76.0078125 C-29.28420898 75.43933594 -29.28420898 75.43933594 -30.26757812 74.859375 C-30.88955078 74.47265625 -31.51152344 74.0859375 -32.15234375 73.6875 C-33.00856323 73.16905518 -33.00856323 73.16905518 -33.88208008 72.64013672 C-37.34176635 69.4324324 -38.64559206 65.68739881 -38.91186523 61.07788086 C-38.93823141 59.54300085 -38.94717398 58.00775187 -38.94140625 56.47265625 C-38.9466481 55.64633194 -38.95188995 54.82000763 -38.95729065 53.96864319 C-38.96369359 52.22300331 -38.96239627 50.47732019 -38.95385742 48.73168945 C-38.94541492 46.1022128 -38.97402098 43.47496182 -39.00585938 40.84570312 C-39.0525578 29.82970178 -39.07392286 17.88627804 -31.3828125 9.1328125 C-21.91747587 1.00233103 -11.99087595 -0.0337563 0 0 Z M-5.4453125 11.0703125 C-6.64488589 12.45360874 -7.84802383 13.83382182 -9.0546875 15.2109375 C-9.63669922 15.88447266 -10.21871094 16.55800781 -10.81835938 17.25195312 C-13.79718391 20.56826298 -17.12860629 23.41137125 -20.51953125 26.30078125 C-22.47795869 28.10530477 -23.98610783 29.95411788 -25.5078125 32.1328125 C-25.0128125 33.1640625 -24.5178125 34.1953125 -24.0078125 35.2578125 C-22.53307348 38.65732828 -22.23490144 41.40302799 -22.5078125 45.1328125 C-23.1678125 45.1328125 -23.8278125 45.1328125 -24.5078125 45.1328125 C-23.8478125 47.1128125 -23.1878125 49.0928125 -22.5078125 51.1328125 C-21.3352994 50.18164116 -20.16994235 49.22164241 -19.0078125 48.2578125 C-18.358125 47.72414062 -17.7084375 47.19046875 -17.0390625 46.640625 C-16.53375 46.14304688 -16.0284375 45.64546875 -15.5078125 45.1328125 C-15.5078125 44.4728125 -15.5078125 43.8128125 -15.5078125 43.1328125 C-16.3328125 42.3284375 -17.1578125 41.5240625 -18.0078125 40.6953125 C-20.5078125 38.1328125 -20.5078125 38.1328125 -20.5078125 35.1328125 C-19.25 33.8359375 -19.25 33.8359375 -17.3828125 32.3828125 C-13.07517497 28.79438976 -9.34760544 24.82197971 -5.5703125 20.6953125 C-0.93613016 15.64333469 3.75698154 10.8703855 9.015625 6.453125 C9.50289062 6.01742188 9.99015625 5.58171875 10.4921875 5.1328125 C10.4921875 4.8028125 10.4921875 4.4728125 10.4921875 4.1328125 C2.55762148 3.01085476 -0.52314105 5.01749796 -5.4453125 11.0703125 Z M9.4921875 8.1328125 C7.74612364 9.98560398 6.11418095 11.91017428 4.4765625 13.859375 C2.25452633 16.40509361 -0.10044311 18.76191841 -2.5078125 21.1328125 C-6.21570404 24.78991101 -9.70005815 28.54022252 -13.03515625 32.5390625 C-14.5078125 34.1328125 -14.5078125 34.1328125 -17.5078125 36.1328125 C-17.5078125 36.7928125 -17.5078125 37.4528125 -17.5078125 38.1328125 C-15.8578125 38.7928125 -14.2078125 39.4528125 -12.5078125 40.1328125 C-11.8271875 39.2665625 -11.1465625 38.4003125 -10.4453125 37.5078125 C-7.96099232 34.50973772 -5.20359343 32.11848875 -2.20703125 29.6484375 C-0.54090506 28.16232954 0.7991338 26.63292981 2.1796875 24.8828125 C4.39435854 22.24914964 5.53445907 21.56397142 8.4921875 20.1328125 C9.8849164 18.51544991 11.21156265 16.8403123 12.4921875 15.1328125 C13.40292399 14.02374944 14.31964144 12.9195716 15.2421875 11.8203125 C15.9846875 10.9334375 16.7271875 10.0465625 17.4921875 9.1328125 C16.8321875 8.4728125 16.1721875 7.8128125 15.4921875 7.1328125 C16.1521875 6.1428125 16.8121875 5.1528125 17.4921875 4.1328125 C14.20010509 4.1328125 11.95071885 6.12283537 9.4921875 8.1328125 Z M25.4921875 4.1328125 C25.1621875 4.7928125 24.8321875 5.4528125 24.4921875 6.1328125 C25.4821875 5.8028125 26.4721875 5.4728125 27.4921875 5.1328125 C26.8321875 4.8028125 26.1721875 4.4728125 25.4921875 4.1328125 Z M-19.5078125 5.1328125 C-22.18457797 6.50531213 -22.18457797 6.50531213 -24.5078125 8.1328125 C-23.0218209 12.72587746 -20.65766568 15.56850495 -17.5078125 19.1328125 C-15.1978125 17.4828125 -12.8878125 15.8328125 -10.5078125 14.1328125 C-11.43619537 12.81384785 -12.37586982 11.50282561 -13.3203125 10.1953125 C-13.84238281 9.46441406 -14.36445313 8.73351562 -14.90234375 7.98046875 C-16.46648377 5.86398024 -16.46648377 5.86398024 -19.5078125 5.1328125 Z M36.4921875 5.1328125 C35.5021875 6.6178125 35.5021875 6.6178125 34.4921875 8.1328125 C36.1421875 7.4728125 37.7921875 6.8128125 39.4921875 6.1328125 C38.5021875 5.8028125 37.5121875 5.4728125 36.4921875 5.1328125 Z M43.4921875 5.1328125 C44.1521875 5.7928125 44.8121875 6.4528125 45.4921875 7.1328125 C45.4921875 6.4728125 45.4921875 5.8128125 45.4921875 5.1328125 C44.8321875 5.1328125 44.1721875 5.1328125 43.4921875 5.1328125 Z M29.4921875 6.1328125 C28.5021875 7.6178125 28.5021875 7.6178125 27.4921875 9.1328125 C28.4821875 9.1328125 29.4721875 9.1328125 30.4921875 9.1328125 C30.4921875 8.1428125 30.4921875 7.1528125 30.4921875 6.1328125 C30.1621875 6.1328125 29.8321875 6.1328125 29.4921875 6.1328125 Z M40.4921875 7.1328125 C39.5021875 8.6178125 39.5021875 8.6178125 38.4921875 10.1328125 C39.4821875 10.1328125 40.4721875 10.1328125 41.4921875 10.1328125 C41.4921875 9.1428125 41.4921875 8.1528125 41.4921875 7.1328125 C41.1621875 7.1328125 40.8321875 7.1328125 40.4921875 7.1328125 Z M22.4921875 8.1328125 C22.4921875 9.1228125 22.4921875 10.1128125 22.4921875 11.1328125 C23.1521875 10.1428125 23.8121875 9.1528125 24.4921875 8.1328125 C23.8321875 8.1328125 23.1721875 8.1328125 22.4921875 8.1328125 Z M32.4921875 9.1328125 C32.1621875 10.1228125 31.8321875 11.1128125 31.4921875 12.1328125 C32.4821875 11.8028125 33.4721875 11.4728125 34.4921875 11.1328125 C33.8321875 10.4728125 33.1721875 9.8128125 32.4921875 9.1328125 Z M25.4921875 10.1328125 C25.1621875 11.1228125 24.8321875 12.1128125 24.4921875 13.1328125 C25.4821875 12.8028125 26.4721875 12.4728125 27.4921875 12.1328125 C26.8321875 11.4728125 26.1721875 10.8128125 25.4921875 10.1328125 Z M49.4921875 10.1328125 C49.8221875 11.1228125 50.1521875 12.1128125 50.4921875 13.1328125 C51.1521875 12.1428125 51.8121875 11.1528125 52.4921875 10.1328125 C51.5021875 10.1328125 50.5121875 10.1328125 49.4921875 10.1328125 Z M43.4921875 11.1328125 C43.4921875 12.1228125 43.4921875 13.1128125 43.4921875 14.1328125 C44.1521875 13.1428125 44.8121875 12.1528125 45.4921875 11.1328125 C44.8321875 11.1328125 44.1721875 11.1328125 43.4921875 11.1328125 Z M18.4921875 12.1328125 C18.1621875 12.7928125 17.8321875 13.4528125 17.4921875 14.1328125 C18.4821875 13.8028125 19.4721875 13.4728125 20.4921875 13.1328125 C19.8321875 12.8028125 19.1721875 12.4728125 18.4921875 12.1328125 Z M28.4921875 13.1328125 C28.4921875 14.1228125 28.4921875 15.1128125 28.4921875 16.1328125 C29.1521875 15.8028125 29.8121875 15.4728125 30.4921875 15.1328125 C30.4921875 14.4728125 30.4921875 13.8128125 30.4921875 13.1328125 C29.8321875 13.1328125 29.1721875 13.1328125 28.4921875 13.1328125 Z M53.4921875 13.1328125 C53.1621875 14.1228125 52.8321875 15.1128125 52.4921875 16.1328125 C53.4821875 15.8028125 54.4721875 15.4728125 55.4921875 15.1328125 C55.4921875 14.4728125 55.4921875 13.8128125 55.4921875 13.1328125 C54.8321875 13.1328125 54.1721875 13.1328125 53.4921875 13.1328125 Z M21.4921875 14.1328125 C21.4921875 15.1228125 21.4921875 16.1128125 21.4921875 17.1328125 C22.1521875 16.8028125 22.8121875 16.4728125 23.4921875 16.1328125 C23.4921875 15.4728125 23.4921875 14.8128125 23.4921875 14.1328125 C22.8321875 14.1328125 22.1721875 14.1328125 21.4921875 14.1328125 Z M46.4921875 14.1328125 C46.1621875 15.1228125 45.8321875 16.1128125 45.4921875 17.1328125 C46.4821875 16.8028125 47.4721875 16.4728125 48.4921875 16.1328125 C48.4921875 15.4728125 48.4921875 14.8128125 48.4921875 14.1328125 C47.8321875 14.1328125 47.1721875 14.1328125 46.4921875 14.1328125 Z M32.4921875 15.1328125 C32.4921875 16.4528125 32.4921875 17.7728125 32.4921875 19.1328125 C33.1521875 18.8028125 33.8121875 18.4728125 34.4921875 18.1328125 C34.1621875 17.1428125 33.8321875 16.1528125 33.4921875 15.1328125 C33.1621875 15.1328125 32.8321875 15.1328125 32.4921875 15.1328125 Z M39.4921875 15.1328125 C39.4921875 18.1328125 39.4921875 18.1328125 39.4921875 18.1328125 Z M24.4921875 17.1328125 C24.4921875 17.7928125 24.4921875 18.4528125 24.4921875 19.1328125 C25.1521875 19.1328125 25.8121875 19.1328125 26.4921875 19.1328125 C26.4921875 18.4728125 26.4921875 17.8128125 26.4921875 17.1328125 C25.8321875 17.1328125 25.1721875 17.1328125 24.4921875 17.1328125 Z M49.4921875 17.1328125 C49.1621875 18.1228125 48.8321875 19.1128125 48.4921875 20.1328125 C49.4821875 19.8028125 50.4721875 19.4728125 51.4921875 19.1328125 C51.4921875 18.4728125 51.4921875 17.8128125 51.4921875 17.1328125 C50.8321875 17.1328125 50.1721875 17.1328125 49.4921875 17.1328125 Z M55.4921875 17.1328125 C56.4921875 19.1328125 56.4921875 19.1328125 56.4921875 19.1328125 Z M13.4921875 18.1328125 C13.1621875 18.7928125 12.8321875 19.4528125 12.4921875 20.1328125 C13.1521875 20.1328125 13.8121875 20.1328125 14.4921875 20.1328125 C14.1621875 19.4728125 13.8321875 18.8128125 13.4921875 18.1328125 Z M42.4921875 18.1328125 C42.1621875 18.7928125 41.8321875 19.4528125 41.4921875 20.1328125 C42.4821875 19.8028125 43.4721875 19.4728125 44.4921875 19.1328125 C43.8321875 18.8028125 43.1721875 18.4728125 42.4921875 18.1328125 Z M35.4921875 19.1328125 C35.1621875 19.7928125 34.8321875 20.4528125 34.4921875 21.1328125 C35.4821875 21.1328125 36.4721875 21.1328125 37.4921875 21.1328125 C37.4921875 20.4728125 37.4921875 19.8128125 37.4921875 19.1328125 C36.8321875 19.1328125 36.1721875 19.1328125 35.4921875 19.1328125 Z M-33.5078125 20.1328125 C-34.71373474 23.94508279 -34.71083711 27.65556299 -34.7578125 31.6328125 C-34.78359375 32.9425 -34.809375 34.2521875 -34.8359375 35.6015625 C-34.4985309 39.23270018 -34.1690589 40.68767659 -31.5078125 43.1328125 C-28.38194375 43.46679037 -28.38194375 43.46679037 -25.5078125 43.1328125 C-24.23781326 39.32281477 -25.01331221 38.52689068 -26.7578125 35.0078125 C-29.09377504 30.12116107 -30.8980998 25.30083749 -32.5078125 20.1328125 C-32.8378125 20.1328125 -33.1678125 20.1328125 -33.5078125 20.1328125 Z M21.4921875 20.1328125 C21.4921875 20.7928125 21.4921875 21.4528125 21.4921875 22.1328125 C22.1521875 21.8028125 22.8121875 21.4728125 23.4921875 21.1328125 C22.8321875 20.8028125 22.1721875 20.4728125 21.4921875 20.1328125 Z M52.4921875 20.1328125 C53.4921875 22.1328125 53.4921875 22.1328125 53.4921875 22.1328125 Z M15.4921875 21.1328125 C15.8221875 21.7928125 16.1521875 22.4528125 16.4921875 23.1328125 C16.8221875 22.4728125 17.1521875 21.8128125 17.4921875 21.1328125 C16.8321875 21.1328125 16.1721875 21.1328125 15.4921875 21.1328125 Z M45.4921875 21.1328125 C45.8221875 21.7928125 46.1521875 22.4528125 46.4921875 23.1328125 C47.1521875 22.8028125 47.8121875 22.4728125 48.4921875 22.1328125 C47.5021875 21.8028125 46.5121875 21.4728125 45.4921875 21.1328125 Z M18.4921875 23.1328125 C18.4921875 23.7928125 18.4921875 24.4528125 18.4921875 25.1328125 C19.1521875 25.1328125 19.8121875 25.1328125 20.4921875 25.1328125 C20.4921875 24.4728125 20.4921875 23.8128125 20.4921875 23.1328125 C19.8321875 23.1328125 19.1721875 23.1328125 18.4921875 23.1328125 Z M12.4921875 24.1328125 C12.1621875 24.7928125 11.8321875 25.4528125 11.4921875 26.1328125 C12.4821875 25.8028125 13.4721875 25.4728125 14.4921875 25.1328125 C13.8321875 24.8028125 13.1721875 24.4728125 12.4921875 24.1328125 Z M15.2421875 34.0703125 C10.5523859 40.94503142 7.87672661 48.01412788 8.88671875 56.4140625 C10.06946833 61.52455267 11.51230762 66.77760344 14.4921875 71.1328125 C17.03516344 72.2939743 17.03516344 72.2939743 19.4921875 73.1328125 C19.07066406 72.36195312 18.64914063 71.59109375 18.21484375 70.796875 C17.66699219 69.79398438 17.11914062 68.79109375 16.5546875 67.7578125 C15.73677734 66.26121094 15.73677734 66.26121094 14.90234375 64.734375 C11.31721151 58.12025291 11.23850182 50.48556232 13.328125 43.23046875 C16.08087025 37.23539604 20.0534023 32.85348773 25.4921875 29.1328125 C29.11456255 27.92535415 32.469247 27.91035221 36.2421875 27.8828125 C36.933125 27.8621875 37.6240625 27.8415625 38.3359375 27.8203125 C43.47084381 27.78170418 46.89346723 28.84748997 51.4921875 31.1328125 C53.19375 31.968125 53.19375 31.968125 54.9296875 32.8203125 C56.198125 33.47 56.198125 33.47 57.4921875 34.1328125 C56.11940659 30.75746975 54.9144938 29.469539 51.6171875 27.9453125 C50.93914062 27.62175781 50.26109375 27.29820313 49.5625 26.96484375 C44.8305258 25.06312582 40.23661739 24.88587339 35.1796875 24.8203125 C34.44556641 24.79130859 33.71144531 24.76230469 32.95507812 24.73242188 C25.06275301 24.64138352 19.99822079 27.64193418 15.2421875 34.0703125 Z M15.4921875 26.1328125 C15.1621875 26.7928125 14.8321875 27.4528125 14.4921875 28.1328125 C15.4821875 27.8028125 16.4721875 27.4728125 17.4921875 27.1328125 C16.8321875 26.8028125 16.1721875 26.4728125 15.4921875 26.1328125 Z M9.4921875 27.1328125 C10.4921875 29.1328125 10.4921875 29.1328125 10.4921875 29.1328125 Z M1.4921875 29.1328125 C-0.14457507 31.0928406 -0.14457507 31.0928406 -1.5078125 33.1328125 C-0.21481556 36.01719029 1.15160113 38.00500671 3.4921875 40.1328125 C0.36116699 47.21373581 -6.03880525 52.80053043 -11.5078125 58.1328125 C-18.35169525 64.82251713 -18.35169525 64.82251713 -24.5078125 72.1328125 C-24.5078125 72.7928125 -24.5078125 73.4528125 -24.5078125 74.1328125 C-21.50808704 75.63267523 -19.85266371 75.6376957 -16.5078125 75.1328125 C-11.82267589 71.67949833 -8.41526362 66.84738358 -5.046875 62.1640625 C-3.44007242 60.04340935 -1.69669788 58.14041512 0.1171875 56.1953125 C3.67974631 52.20807781 5.53996454 48.05500498 7.4921875 43.1328125 C7.85828125 42.42382812 8.224375 41.71484375 8.6015625 40.984375 C9.63913119 39.19328941 9.63913119 39.19328941 9.4296875 37.2578125 C7.98564096 33.98464034 5.93364199 31.75291 3.4921875 29.1328125 C2.8321875 29.1328125 2.1721875 29.1328125 1.4921875 29.1328125 Z M32.4921875 30.1328125 C32.39421875 30.71289062 32.29625 31.29296875 32.1953125 31.890625 C31.19715967 37.10511304 30.25062089 41.19540609 26.4921875 45.1328125 C22.59283518 47.09808607 18.60423598 48.67161288 14.4921875 50.1328125 C14.4921875 52.4428125 14.4921875 54.7528125 14.4921875 57.1328125 C15.08386719 57.31457031 15.67554688 57.49632813 16.28515625 57.68359375 C17.07535156 57.93496094 17.86554687 58.18632813 18.6796875 58.4453125 C19.45699219 58.68894531 20.23429687 58.93257812 21.03515625 59.18359375 C25.43129143 60.88194168 27.88606985 61.9310533 30.07421875 66.26953125 C30.48027344 67.44128906 30.88632813 68.61304688 31.3046875 69.8203125 C31.72363281 70.99980469 32.14257812 72.17929688 32.57421875 73.39453125 C32.87714844 74.29816406 33.18007812 75.20179687 33.4921875 76.1328125 C36.1321875 76.1328125 38.7721875 76.1328125 41.4921875 76.1328125 C41.4921875 74.8334375 41.4921875 73.5340625 41.4921875 72.1953125 C42.16403181 65.94123237 45.91679469 62.172787 50.4921875 58.1328125 C51.38808594 57.61203125 52.28398438 57.09125 53.20703125 56.5546875 C55.79297061 55.3014139 55.79297061 55.3014139 56.3046875 52.2578125 C55.82680262 49.13268245 55.82680262 49.13268245 53.8671875 47.84375 C52.45342513 47.01370012 51.02957248 46.20066873 49.59765625 45.40234375 C44.98473224 42.62089606 42.51436946 38.97687921 41.1796875 33.7578125 C40.9528125 32.5615625 40.7259375 31.3653125 40.4921875 30.1328125 C37.8521875 30.1328125 35.2121875 30.1328125 32.4921875 30.1328125 Z M20.4921875 36.1328125 C18.47785632 38.97542098 16.72424757 41.86656991 15.4921875 45.1328125 C15.8221875 45.7928125 16.1521875 46.4528125 16.4921875 47.1328125 C23.29821919 44.18855941 23.29821919 44.18855941 28.4921875 39.1328125 C29.10030339 36.43007523 29.30675203 33.9143446 29.4921875 31.1328125 C25.79655285 31.1328125 23.08019851 33.71659665 20.4921875 36.1328125 Z M43.4921875 31.1328125 C44.66406693 37.51304493 47.39881707 41.11710396 52.4921875 45.1328125 C53.4821875 45.4628125 54.4721875 45.7928125 55.4921875 46.1328125 C56.44374263 42.43232032 56.66480876 39.79367887 55.4921875 36.1328125 C53.55390538 34.45791922 53.55390538 34.45791922 51.1171875 33.3203125 C50.32570313 32.90136719 49.53421875 32.48242188 48.71875 32.05078125 C46.43132751 30.94223367 46.43132751 30.94223367 43.4921875 31.1328125 Z M-4.5078125 36.1328125 C-5.17876953 36.91205078 -5.17876953 36.91205078 -5.86328125 37.70703125 C-6.46785156 38.40441406 -7.07242188 39.10179687 -7.6953125 39.8203125 C-8.28699219 40.50480469 -8.87867187 41.18929687 -9.48828125 41.89453125 C-10.91088446 43.47122688 -12.3869638 45.00047162 -13.8984375 46.4921875 C-16.80178969 49.43031038 -19.4348435 52.51885957 -22.0703125 55.6953125 C-27.06838639 61.71087599 -27.06838639 61.71087599 -29.86328125 64.39453125 C-30.40597656 64.96816406 -30.94867188 65.54179688 -31.5078125 66.1328125 C-31.37139873 68.35139503 -31.37139873 68.35139503 -30.5078125 70.1328125 C-26.47833369 70.58924925 -26.47833369 70.58924925 -24.25390625 68.015625 C-23.49207031 67.10554688 -22.73023438 66.19546875 -21.9453125 65.2578125 C-19.51512721 62.3809321 -17.65250188 60.22927208 -14.5078125 58.1328125 C-14.5078125 57.4728125 -14.5078125 56.8128125 -14.5078125 56.1328125 C-13.96640625 55.92914063 -13.425 55.72546875 -12.8671875 55.515625 C-9.56405724 53.57968442 -7.26658403 50.84581914 -4.7578125 48.0078125 C-4.25121094 47.44449219 -3.74460937 46.88117187 -3.22265625 46.30078125 C-1.97896718 44.91629719 -0.74264945 43.52519762 0.4921875 42.1328125 C-0.87764753 38.97165474 -1.4968763 38.1401033 -4.5078125 36.1328125 Z M-32.5078125 50.1328125 C-31.5078125 52.1328125 -31.5078125 52.1328125 -31.5078125 52.1328125 Z M-35.5078125 53.1328125 C-35.1778125 53.7928125 -34.8478125 54.4528125 -34.5078125 55.1328125 C-34.1778125 54.4728125 -33.8478125 53.8128125 -33.5078125 53.1328125 C-34.1678125 53.1328125 -34.8278125 53.1328125 -35.5078125 53.1328125 Z M0.9296875 58.6328125 C0.4553125 59.1278125 -0.0190625 59.6228125 -0.5078125 60.1328125 C1.2218491 64.34235037 4.17425495 67.48424826 7.1171875 70.8828125 C7.890625 71.78580078 7.890625 71.78580078 8.6796875 72.70703125 C9.94687885 74.18542116 11.21904525 75.65954421 12.4921875 77.1328125 C13.8121875 76.8028125 15.1321875 76.4728125 16.4921875 76.1328125 C15.75613281 75.63265625 15.02007812 75.1325 14.26171875 74.6171875 C10.85658526 71.56265309 9.19636063 68.43146557 7.1796875 64.3828125 C6.64118164 63.33673828 6.64118164 63.33673828 6.09179688 62.26953125 C5.21492807 60.56255998 4.35210735 58.84838461 3.4921875 57.1328125 C2.25142448 57.01739053 2.25142448 57.01739053 0.9296875 58.6328125 Z M51.8359375 60.5234375 C51.2275 61.13703125 50.6190625 61.750625 49.9921875 62.3828125 C49.38375 62.98609375 48.7753125 63.589375 48.1484375 64.2109375 C45.06184539 67.7925491 44.23051512 70.4227096 44.4921875 75.1328125 C48.33326028 74.58408782 50.06047242 73.11362453 52.4921875 70.1328125 C54.50955092 66.09808566 55.4921875 63.67220737 55.4921875 59.1328125 C53.38703027 58.91847162 53.38703027 58.91847162 51.8359375 60.5234375 Z M15.4921875 60.1328125 C18.36125702 66.08249584 21.48990839 71.86142815 27.4921875 75.1328125 C28.4821875 74.8028125 29.4721875 74.4728125 30.4921875 74.1328125 C27.68115478 67.43205297 27.68115478 67.43205297 22.9921875 62.0703125 C20.49573088 61.13414127 18.10675014 60.6252218 15.4921875 60.1328125 Z M-34.5078125 62.1328125 C-34.1778125 63.1228125 -33.8478125 64.1128125 -33.5078125 65.1328125 C-33.5078125 64.1428125 -33.5078125 63.1528125 -33.5078125 62.1328125 C-33.8378125 62.1328125 -34.1678125 62.1328125 -34.5078125 62.1328125 Z M-3.5078125 64.1328125 C-4.1678125 65.4528125 -4.8278125 66.7728125 -5.5078125 68.1328125 C-5.0128125 68.5659375 -4.5178125 68.9990625 -4.0078125 69.4453125 C-2.5078125 71.1328125 -2.5078125 71.1328125 -2.5078125 74.1328125 C-2.1778125 74.7928125 -1.8478125 75.4528125 -1.5078125 76.1328125 C1.96543931 77.2905631 4.85286198 77.20147902 8.4921875 77.1328125 C5.1116132 72.45112369 1.76276664 68.037342 -2.5078125 64.1328125 C-2.8378125 64.1328125 -3.1678125 64.1328125 -3.5078125 64.1328125 Z M-20.5078125 83.1328125 C-24.15625 83.42578125 -24.15625 83.42578125 -27.8828125 83.3203125 C-29.12804687 83.29324219 -30.37328125 83.26617187 -31.65625 83.23828125 C-32.59726562 83.20347656 -33.53828125 83.16867188 -34.5078125 83.1328125 C-34.5078125 85.4428125 -34.5078125 87.7528125 -34.5078125 90.1328125 C-33.7240625 89.9265625 -32.9403125 89.7203125 -32.1328125 89.5078125 C-28.82655917 89.16578629 -27.13135372 89.33701579 -23.99609375 90.08203125 C-18.33089225 91.27306996 -12.84677781 91.535114 -7.0703125 91.5703125 C-6.09126953 91.60318359 -5.11222656 91.63605469 -4.10351562 91.66992188 C-1.47447025 91.68979782 0.91490565 91.65330686 3.4921875 91.1328125 C6.00030747 88.38756119 6.43486235 86.99268982 6.6796875 83.3203125 C6.6178125 82.5984375 6.5559375 81.8765625 6.4921875 81.1328125 C5.8321875 81.1328125 5.1721875 81.1328125 4.4921875 81.1328125 C4.4921875 82.1228125 4.4921875 83.1128125 4.4921875 84.1328125 C3.5021875 84.1328125 2.5121875 84.1328125 1.4921875 84.1328125 C1.4921875 82.8128125 1.4921875 81.4928125 1.4921875 80.1328125 C-1.05013592 80.05128906 -3.58980452 79.99207534 -6.1328125 79.9453125 C-6.84566406 79.92017578 -7.55851562 79.89503906 -8.29296875 79.86914062 C-13.25011199 79.80092306 -16.04280306 80.85280768 -20.5078125 83.1328125 Z M19.4921875 81.1328125 C17.19124148 84.00009884 17.19124148 84.00009884 17.4296875 87.5078125 C18.69489856 91.82441494 20.05288506 92.84202668 23.703125 95.1875 C28.0777145 97.49896432 32.36253093 97.3516587 37.1796875 97.3828125 C37.95763672 97.4034375 38.73558594 97.4240625 39.53710938 97.4453125 C45.63548822 97.48600227 51.2929581 96.69653212 56.22143555 92.74707031 C57.85917663 91.01673452 57.85917663 91.01673452 57.4296875 87.6328125 C56.81981132 84.16152418 56.81981132 84.16152418 54.74511719 82.43237305 C52.08981419 80.90071094 50.55355149 80.78412901 47.5078125 80.83984375 C46.57324219 80.84951172 45.63867188 80.85917969 44.67578125 80.86914062 C43.70769531 80.89427734 42.73960938 80.91941406 41.7421875 80.9453125 C40.26685547 80.96561523 40.26685547 80.96561523 38.76171875 80.98632812 C36.33798335 81.02162524 33.91536605 81.07093196 31.4921875 81.1328125 C31.1621875 82.7828125 30.8321875 84.4328125 30.4921875 86.1328125 C34.50240967 88.80629394 37.77660356 88.84304055 42.4921875 88.1328125 C45.51909193 86.31690271 45.51909193 86.31690271 47.4921875 84.1328125 C47.3046875 86.5078125 47.3046875 86.5078125 46.4921875 89.1328125 C42.70572692 91.73600415 39.0207703 91.1292486 34.67578125 90.6171875 C32.28867332 90.08766803 30.53105275 89.492056 28.4921875 88.1328125 C27.7421875 84.5078125 27.7421875 84.5078125 27.4921875 81.1328125 C26.2134375 81.0709375 24.9346875 81.0090625 23.6171875 80.9453125 C22.89789063 80.91050781 22.17859375 80.87570313 21.4375 80.83984375 C20.47457031 80.98486328 20.47457031 80.98486328 19.4921875 81.1328125 Z M-32.5078125 91.1328125 C-32.5078125 91.7928125 -32.5078125 92.4528125 -32.5078125 93.1328125 C-31.8478125 93.1328125 -31.1878125 93.1328125 -30.5078125 93.1328125 C-30.5078125 92.4728125 -30.5078125 91.8128125 -30.5078125 91.1328125 C-31.1678125 91.1328125 -31.8278125 91.1328125 -32.5078125 91.1328125 Z M-26.5078125 93.1328125 C-26.5078125 94.1228125 -26.5078125 95.1128125 -26.5078125 96.1328125 C-24.5278125 96.6278125 -24.5278125 96.6278125 -22.5078125 97.1328125 C-22.8378125 95.8128125 -23.1678125 94.4928125 -23.5078125 93.1328125 C-24.4978125 93.1328125 -25.4878125 93.1328125 -26.5078125 93.1328125 Z M-18.5078125 93.1328125 C-18.8378125 94.4528125 -19.1678125 95.7728125 -19.5078125 97.1328125 C-17.8578125 97.1328125 -16.2078125 97.1328125 -14.5078125 97.1328125 C-14.8378125 95.8128125 -15.1678125 94.4928125 -15.5078125 93.1328125 C-16.4978125 93.1328125 -17.4878125 93.1328125 -18.5078125 93.1328125 Z M-10.5078125 93.1328125 C-10.8378125 94.4528125 -11.1678125 95.7728125 -11.5078125 97.1328125 C-10.1878125 97.1328125 -8.8678125 97.1328125 -7.5078125 97.1328125 C-8.1678125 95.8128125 -8.8278125 94.4928125 -9.5078125 93.1328125 C-9.8378125 93.1328125 -10.1678125 93.1328125 -10.5078125 93.1328125 Z M-3.5078125 93.1328125 C-3.8378125 94.1228125 -4.1678125 95.1128125 -4.5078125 96.1328125 C-3.1878125 95.8028125 -1.8678125 95.4728125 -0.5078125 95.1328125 C-0.5078125 94.4728125 -0.5078125 93.8128125 -0.5078125 93.1328125 C-1.4978125 93.1328125 -2.4878125 93.1328125 -3.5078125 93.1328125 Z " fill="#000000" transform="translate(41.5078125,3.8671875)"/>
<path d="M0 0 C3.43595166 1.52708963 6.11912454 3.59927045 9 6 C7.97208168 9.08375495 7.29893164 9.87790925 5 12 C4.443125 12.556875 3.88625 13.11375 3.3125 13.6875 C2.6628125 14.3371875 2.6628125 14.3371875 2 15 C-3.57142857 9.85714286 -3.57142857 9.85714286 -4 6 C-3.34 6 -2.68 6 -2 6 C-1.34 4.02 -0.68 2.04 0 0 Z M1 6 C1 6.99 1 7.98 1 9 C1.66 9 2.32 9 3 9 C3 8.01 3 7.02 3 6 C2.34 6 1.68 6 1 6 Z " fill="#000000" transform="translate(77,49)"/>
<path d="M0 0 C0.99 0 1.98 0 3 0 C3 0.99 3 1.98 3 3 C2.01 3 1.02 3 0 3 C0 2.01 0 1.02 0 0 Z " fill="#000000" transform="translate(18,90)"/>
<path d="M0 0 C0.99 0 1.98 0 3 0 C3 0.99 3 1.98 3 3 C2.01 3 1.02 3 0 3 C0 2.01 0 1.02 0 0 Z " fill="#000000" transform="translate(31,89)"/>
<path d="M0 0 C0.99 0 1.98 0 3 0 C3 0.99 3 1.98 3 3 C2.01 3 1.02 3 0 3 C0 2.01 0 1.02 0 0 Z " fill="#000000" transform="translate(37,87)"/>
<path d="M0 0 C0.99 0.33 1.98 0.66 3 1 C3 1.66 3 2.32 3 3 C2.01 3 1.02 3 0 3 C0 2.01 0 1.02 0 0 Z " fill="#000000" transform="translate(25,89)"/>
<path d="M0 0 C1.32 0.33 2.64 0.66 4 1 C2.68 1.33 1.36 1.66 0 2 C0 1.34 0 0.68 0 0 Z " fill="#000000" transform="translate(12,89)"/>
<path d="M0 0 C0 0.99 0 1.98 0 3 C-0.99 3.495 -0.99 3.495 -2 4 C-1.34 2.68 -0.68 1.36 0 0 Z " fill="#000000" transform="translate(47,20)"/>
<path d="M0 0 C0 0.99 0 1.98 0 3 C-0.66 2.67 -1.32 2.34 -2 2 C-1.34 1.34 -0.68 0.68 0 0 Z " fill="#000000" transform="translate(42,26)"/>
<path d="M0 0 C0.66 0.33 1.32 0.66 2 1 C1.01 1.66 0.02 2.32 -1 3 C-0.67 2.01 -0.34 1.02 0 0 Z " fill="#000000" transform="translate(50,16)"/>
<path d="" fill="#000000" transform="translate(0,0)"/>
<path d="" fill="#000000" transform="translate(0,0)"/>
<path d="" fill="#000000" transform="translate(0,0)"/>
<path d="" fill="#000000" transform="translate(0,0)"/>
<path d="" fill="#000000" transform="translate(0,0)"/>
<path d="" fill="#000000" transform="translate(0,0)"/>
<path d="" fill="#000000" transform="translate(0,0)"/>
<path d="" fill="#000000" transform="translate(0,0)"/>
<path d="" fill="#000000" transform="translate(0,0)"/>
<path d="" fill="#000000" transform="translate(0,0)"/>
<path d="" fill="#000000" transform="translate(0,0)"/>
<path d="" fill="#000000" transform="translate(0,0)"/>
<path d="" fill="#000000" transform="translate(0,0)"/>
<path d="" fill="#000000" transform="translate(0,0)"/>
<path d="" fill="#000000" transform="translate(0,0)"/>
<path d="" fill="#000000" transform="translate(0,0)"/>
<path d="" fill="#000000" transform="translate(0,0)"/>
<path d="" fill="#000000" transform="translate(0,0)"/>
</svg>
