<?xml version="1.0" encoding="UTF-8"?>
<svg version="1.1" xmlns="http://www.w3.org/2000/svg" width="110" height="110">
<path d="M0 0 C2.1875 1.625 2.1875 1.625 4.1875 3.625 C4.97125 2.985625 5.755 2.34625 6.5625 1.6875 C10.00362328 -1.01623972 11.52818424 -1.49870451 15.8125 -1.4375 C17.03839844 -1.42396484 17.03839844 -1.42396484 18.2890625 -1.41015625 C18.91554687 -1.39855469 19.54203125 -1.38695312 20.1875 -1.375 C20.1875 -0.715 20.1875 -0.055 20.1875 0.625 C20.80625 0.934375 21.425 1.24375 22.0625 1.5625 C23.4375 2.25 24.8125 2.9375 26.1875 3.625 C26.5175 2.635 26.8475 1.645 27.1875 0.625 C31.79638589 -2.19980103 36.98551353 -1.52725326 42.1875 -1.375 C43.5075 -1.375 44.8275 -1.375 46.1875 -1.375 C48.85416667 -1.375 51.52083333 -1.375 54.1875 -1.375 C54.6825 -0.385 54.6825 -0.385 55.1875 0.625 C57.35624252 0.11896008 59.18717627 -0.37483813 61.1875 -1.375 C66.30723533 -1.87790476 70.72266555 -2.1660106 75.3125 0.3125 C77.44270083 2.93974769 78.1875 4.24032682 78.1875 7.625 C76.76840437 11.01506178 75.82372979 12.31428313 72.5 13.9375 C71.3553125 14.2778125 71.3553125 14.2778125 70.1875 14.625 C70.868125 15.264375 71.54875 15.90375 72.25 16.5625 C80.43091469 24.7668557 83.38680038 30.45652084 83.375 41.875 C83.32352213 71.66713823 83.32352213 71.66713823 73.1875 82.625 C74.1775 83.676875 74.1775 83.676875 75.1875 84.75 C77.53716143 88.12763831 77.87293938 89.59804363 77.1875 93.625 C75.00464657 96.85562308 73.52603825 97.53267139 69.75 98.5625 C66.1875 98.625 66.1875 98.625 63.25 97.6875 C60.84303298 95.28053298 60.8865864 94.70486379 60.875 91.4375 C60.978125 90.179375 61.08125 88.92125 61.1875 87.625 C59.7025 88.12 59.7025 88.12 58.1875 88.625 C58.39375 89.3675 58.6 90.11 58.8125 90.875 C59.2348774 93.97243429 58.91696672 95.07631221 57.1875 97.625 C54.06872044 99.18438978 51.61494229 98.9857834 48.1875 98.625 C46.1875 96.375 46.1875 96.375 45.1875 93.625 C45.5 91.3125 45.5 91.3125 46.1875 89.625 C44.5375 89.625 42.8875 89.625 41.1875 89.625 C41.084375 90.388125 40.98125 91.15125 40.875 91.9375 C40.10738882 94.9381619 39.74738914 95.91840724 37.1875 97.625 C32.89974803 98.83851471 30.86535848 98.92079279 26.75 97.125 C24.1875 94.625 24.1875 94.625 23.75 91.0625 C24.1875 87.625 24.1875 87.625 25.1875 84.625 C24.5275 84.625 23.8675 84.625 23.1875 84.625 C22.85878906 85.42164062 22.85878906 85.42164062 22.5234375 86.234375 C19.74075831 92.43318881 16.68245041 95.03638618 10.4375 97.875 C3.88211014 99.38778227 -3.02656242 99.74390819 -9.0546875 96.3515625 C-15.35047899 90.16769619 -16.59049998 79.40058185 -16.98046875 71.01171875 C-17.02455073 62.66259198 -16.44983446 55.10540446 -14.05859375 47.1015625 C-13.51812529 44.55921615 -13.51812529 44.55921615 -15.27001953 42.75927734 C-17.92891696 39.08025213 -17.28455891 35.02340637 -17.25 30.625 C-17.26998047 29.72265625 -17.28996094 28.8203125 -17.31054688 27.890625 C-17.30564517 21.26352323 -17.30564517 21.26352323 -14.78515625 18 C-14.13417969 17.54625 -13.48320312 17.0925 -12.8125 16.625 C-13.4725 15.944375 -14.1325 15.26375 -14.8125 14.5625 C-17.32228123 10.87625882 -17.43858836 9.00761849 -16.8125 4.625 C-12.83762426 -1.67997532 -6.86098032 -3.35425704 0 0 Z M-11.625 3.8125 C-14.07376205 6.38497876 -14.07376205 6.38497876 -13.875 9.3125 C-13.000721 11.72838427 -13.000721 11.72838427 -10.9375 12.9375 C-8.70901875 13.77891014 -8.70901875 13.77891014 -5.8125 13.625 C-5.4825 12.305 -5.1525 10.985 -4.8125 9.625 C-6.4625 9.955 -8.1125 10.285 -9.8125 10.625 C-9.8125 9.305 -9.8125 7.985 -9.8125 6.625 C-3.0625 7.375 -3.0625 7.375 -0.8125 9.625 C-0.84537583 12.35369407 -1.37647771 14.9216618 -1.8125 17.625 C-1.1525 17.625 -0.4925 17.625 0.1875 17.625 C0.5175 18.615 0.8475 19.605 1.1875 20.625 C1.5175 20.625 1.8475 20.625 2.1875 20.625 C2.74566346 11.65438543 2.74566346 11.65438543 -0.8125 3.625 C-4.70635192 0.86162121 -7.7886812 0.82869649 -11.625 3.8125 Z M29.1875 3.625 C27.83131501 4.75034105 27.83131501 4.75034105 28.125 7.6875 C28.145625 8.656875 28.16625 9.62625 28.1875 10.625 C31.1575 11.12 31.1575 11.12 34.1875 11.625 C34.8475 10.635 35.5075 9.645 36.1875 8.625 C35.1975 7.635 34.2075 6.645 33.1875 5.625 C36.0625 5.9375 36.0625 5.9375 39.1875 6.625 C40.1775 8.11 40.1775 8.11 41.1875 9.625 C42.1775 9.625 43.1675 9.625 44.1875 9.625 C43.8575 7.315 43.5275 5.005 43.1875 2.625 C35.98725773 1.38152743 35.98725773 1.38152743 29.1875 3.625 Z M49.1875 1.625 C50.1875 4.625 50.1875 4.625 50.1875 4.625 Z M57.1875 4.625 C55.82769119 7.70061246 55.82769119 7.70061246 55.1875 10.625 C59.37785325 10.15940519 61.35631704 9.71356323 64.1875 6.625 C66.375 5.9375 66.375 5.9375 68.1875 5.625 C67.5275 7.275 66.8675 8.925 66.1875 10.625 C69.10402174 10.79181109 69.10402174 10.79181109 72.1875 10.625 C72.8475 9.965 73.5075 9.305 74.1875 8.625 C74.02307723 5.55508319 74.02307723 5.55508319 73.1875 2.625 C68.14638901 0.10444451 61.32055803 0.86767452 57.1875 4.625 Z M6.1875 7.625 C5.22679566 10.50711302 5.08168117 12.32350044 5.125 15.3125 C5.13402344 16.12074219 5.14304687 16.92898437 5.15234375 17.76171875 C5.16394531 18.37660156 5.17554687 18.99148437 5.1875 19.625 C6.8375 18.635 8.4875 17.645 10.1875 16.625 C9.919375 15.903125 9.65125 15.18125 9.375 14.4375 C9.1875 11.625 9.1875 11.625 11.4375 8.875 C14.1875 6.625 14.1875 6.625 17.1875 5.625 C17.5175 6.945 17.8475 8.265 18.1875 9.625 C17.383125 9.74875 16.57875 9.8725 15.75 10 C14.4815625 10.309375 14.4815625 10.309375 13.1875 10.625 C12.8575 11.285 12.5275 11.945 12.1875 12.625 C13.1775 13.615 14.1675 14.605 15.1875 15.625 C19.03030285 14.37868556 21.26069896 13.26451308 23.1875 9.625 C23.10414454 6.87426996 22.42987383 5.88601797 20.5625 3.875 C14.3735529 0.61765942 10.29943644 2.4246098 6.1875 7.625 Z M24.1875 13.625 C22.41559091 14.97944301 22.41559091 14.97944301 21.1875 16.625 C21.5175 17.615 21.8475 18.605 22.1875 19.625 C22.80625 19.315625 23.425 19.00625 24.0625 18.6875 C25.4375 18 26.8125 17.3125 28.1875 16.625 C28.1875 15.965 28.1875 15.305 28.1875 14.625 C26.35049211 13.85257731 26.35049211 13.85257731 24.1875 13.625 Z M28.1875 19.625 C27.218125 20.305625 26.24875 20.98625 25.25 21.6875 C21.13708285 27.54529109 19.53955644 35.51696243 20.1875 42.625 C21.56676773 44.96761608 21.56676773 44.96761608 23.1875 46.625 C23.57421875 45.46742187 23.9609375 44.30984375 24.359375 43.1171875 C24.88496162 41.57796954 25.41102886 40.03891564 25.9375 38.5 C26.31648438 37.35917969 26.31648438 37.35917969 26.703125 36.1953125 C28.72253207 30.339032 30.7069409 25.093086 36.25 21.8125 C44.10727669 18.99193914 53.35850729 18.61585305 61.1875 21.625 C64.40954626 23.54903832 66.7460661 25.78793928 69.1875 28.625 C70.10982422 29.66333984 70.10982422 29.66333984 71.05078125 30.72265625 C77.56936403 39.93858363 75.68793016 52.00550814 74.1875 62.625 C73.14513785 67.9573643 71.40004227 72.70840093 68.4921875 77.3046875 C68.06164062 78.07039063 67.63109375 78.83609375 67.1875 79.625 C67.5175 80.285 67.8475 80.945 68.1875 81.625 C74.83764553 77.39308921 76.30592931 72.08049937 78.1875 64.625 C78.94278856 59.90461314 79.32389808 55.2062339 79.625 50.4375 C79.72748047 49.23158203 79.82996094 48.02566406 79.93554688 46.78320312 C80.53348906 38.16247756 80.09228965 31.03183649 74.625 24.0625 C73.820625 23.258125 73.01625 22.45375 72.1875 21.625 C71.5275 21.625 70.8675 21.625 70.1875 21.625 C70.1875 20.965 70.1875 20.305 70.1875 19.625 C68.96243102 18.97142722 67.73220484 18.32751767 66.5 17.6875 C65.47326172 17.14802734 65.47326172 17.14802734 64.42578125 16.59765625 C53.75584119 11.96098073 37.4901385 12.70120669 28.1875 19.625 Z M-9.8125 18.625 C-8.8225 19.12 -8.8225 19.12 -7.8125 19.625 C-7.4825 20.285 -7.1525 20.945 -6.8125 21.625 C-6.8125 20.635 -6.8125 19.645 -6.8125 18.625 C-7.8025 18.625 -8.7925 18.625 -9.8125 18.625 Z M-11.8125 19.625 C-12.1425 20.285 -12.4725 20.945 -12.8125 21.625 C-12.1525 21.625 -11.4925 21.625 -10.8125 21.625 C-11.1425 20.965 -11.4725 20.305 -11.8125 19.625 Z M-3.8125 19.625 C-3.8125 20.285 -3.8125 20.945 -3.8125 21.625 C-3.1525 21.295 -2.4925 20.965 -1.8125 20.625 C-2.4725 20.295 -3.1325 19.965 -3.8125 19.625 Z M10.1875 19.625 C11.1775 19.955 12.1675 20.285 13.1875 20.625 C13.1875 21.285 13.1875 21.945 13.1875 22.625 C13.8475 22.295 14.5075 21.965 15.1875 21.625 C14.8575 20.965 14.5275 20.305 14.1875 19.625 C12.8675 19.625 11.5475 19.625 10.1875 19.625 Z M-10.8125 22.625 C-10.8125 23.285 -10.8125 23.945 -10.8125 24.625 C-11.8025 24.625 -12.7925 24.625 -13.8125 24.625 C-14.1425 25.615 -14.4725 26.605 -14.8125 27.625 C-13.8225 27.625 -12.8325 27.625 -11.8125 27.625 C-11.8125 26.965 -11.8125 26.305 -11.8125 25.625 C-10.8225 25.295 -9.8325 24.965 -8.8125 24.625 C-8.8125 23.965 -8.8125 23.305 -8.8125 22.625 C-9.4725 22.625 -10.1325 22.625 -10.8125 22.625 Z M9.1875 22.625 C9.1875 23.285 9.1875 23.945 9.1875 24.625 C7.8675 24.955 6.5475 25.285 5.1875 25.625 C5.5175 26.285 5.8475 26.945 6.1875 27.625 C7.1775 27.295 8.1675 26.965 9.1875 26.625 C10.1775 26.625 11.1675 26.625 12.1875 26.625 C12.1875 25.635 12.1875 24.645 12.1875 23.625 C11.1975 23.295 10.2075 22.965 9.1875 22.625 Z M15.1875 22.625 C14.8575 25.265 14.5275 27.905 14.1875 30.625 C14.8475 30.625 15.5075 30.625 16.1875 30.625 C16.1875 31.285 16.1875 31.945 16.1875 32.625 C16.8475 32.625 17.5075 32.625 18.1875 32.625 C17.878125 31.449375 17.878125 31.449375 17.5625 30.25 C17.43875 29.38375 17.315 28.5175 17.1875 27.625 C17.8475 26.965 18.5075 26.305 19.1875 25.625 C18.5275 25.625 17.8675 25.625 17.1875 25.625 C17.1875 24.635 17.1875 23.645 17.1875 22.625 C16.5275 22.625 15.8675 22.625 15.1875 22.625 Z M41.1875 23.625 C41.1875 24.945 41.1875 26.265 41.1875 27.625 C42.8375 27.295 44.4875 26.965 46.1875 26.625 C45.8575 25.965 45.5275 25.305 45.1875 24.625 C43.16286745 23.97286708 43.16286745 23.97286708 41.1875 23.625 Z M33.8125 26.9375 C29.61225155 32.18159718 27.29997119 39.03383567 26.6875 45.6875 C26.5225 46.656875 26.3575 47.62625 26.1875 48.625 C24.125 50.0625 24.125 50.0625 22.1875 50.625 C21.1975 49.635 20.2075 48.645 19.1875 47.625 C17.7971996 53.99721019 18.46685022 59.1180415 19.9375 65.375 C20.19128418 66.4741272 20.19128418 66.4741272 20.45019531 67.59545898 C21.76209524 72.848455 23.09953104 77.0649454 27.59765625 80.42578125 C28.47292969 80.92464844 29.34820312 81.42351562 30.25 81.9375 C31.56677734 82.70513672 31.56677734 82.70513672 32.91015625 83.48828125 C35.06153217 84.77386654 35.06153217 84.77386654 37.1875 84.625 C37.8689823 82.73320797 37.8689823 82.73320797 38.1875 80.625 C37.5275 79.965 36.8675 79.305 36.1875 78.625 C36.07572634 72.92454338 36.78884709 66.82208131 39.1875 61.625 C40.1775 60.965 41.1675 60.305 42.1875 59.625 C42.5175 58.635 42.8475 57.645 43.1875 56.625 C44.52083333 56.29166667 45.85416667 55.95833333 47.1875 55.625 C47.5175 54.635 47.8475 53.645 48.1875 52.625 C49.734375 52.6559375 49.734375 52.6559375 51.3125 52.6875 C55.0612928 52.73583118 55.0612928 52.73583118 58.1875 52.0625 C63.37851922 51.30547636 67.61260756 52.17773221 72.1875 54.625 C72.6551733 42.13639065 71.41046789 35.60618516 62.83203125 26.34765625 C62.28933594 25.77917969 61.74664062 25.21070312 61.1875 24.625 C59.2075 25.945 57.2275 27.265 55.1875 28.625 C55.8475 31.265 56.5075 33.905 57.1875 36.625 C55.8675 36.955 54.5475 37.285 53.1875 37.625 C51.90313266 39.6087767 51.90313266 39.6087767 51.1875 41.625 C49.8675 41.295 48.5475 40.965 47.1875 40.625 C46.8575 38.975 46.5275 37.325 46.1875 35.625 C45.5275 35.625 44.8675 35.625 44.1875 35.625 C43.919375 34.84125 43.65125 34.0575 43.375 33.25 C42.33935568 30.34385077 42.33935568 30.34385077 39.1875 28.625 C38.5 26.5 38.5 26.5 38.1875 24.625 C35.87384745 24.39246111 35.87384745 24.39246111 33.8125 26.9375 Z M-4.8125 25.625 C-4.4825 26.945 -4.1525 28.265 -3.8125 29.625 C-3.4825 28.305 -3.1525 26.985 -2.8125 25.625 C-3.4725 25.625 -4.1325 25.625 -4.8125 25.625 Z M50.1875 26.625 C49.8575 27.285 49.5275 27.945 49.1875 28.625 C50.5075 28.625 51.8275 28.625 53.1875 28.625 C53.1875 27.965 53.1875 27.305 53.1875 26.625 C52.1975 26.625 51.2075 26.625 50.1875 26.625 Z M-11.8125 27.625 C-11.8125 29.275 -11.8125 30.925 -11.8125 32.625 C-10.8225 31.965 -9.8325 31.305 -8.8125 30.625 C-8.8125 29.965 -8.8125 29.305 -8.8125 28.625 C-9.8025 28.295 -10.7925 27.965 -11.8125 27.625 Z M9.1875 27.625 C7.5375 28.285 5.8875 28.945 4.1875 29.625 C7.41541555 31.7769437 8.47150809 31.82586443 12.1875 31.625 C12.1875 32.615 12.1875 33.605 12.1875 34.625 C12.8475 34.625 13.5075 34.625 14.1875 34.625 C14.5175 35.615 14.8475 36.605 15.1875 37.625 C15.5175 36.965 15.8475 36.305 16.1875 35.625 C15.8575 34.965 15.5275 34.305 15.1875 33.625 C14.5275 33.625 13.8675 33.625 13.1875 33.625 C12.8575 32.305 12.5275 30.985 12.1875 29.625 C11.5275 29.625 10.8675 29.625 10.1875 29.625 C9.8575 28.965 9.5275 28.305 9.1875 27.625 Z M-7.8125 30.625 C-7.8125 31.615 -7.8125 32.605 -7.8125 33.625 C-9.4625 33.625 -11.1125 33.625 -12.8125 33.625 C-13.1425 34.285 -13.4725 34.945 -13.8125 35.625 C-11.5025 35.625 -9.1925 35.625 -6.8125 35.625 C-6.4825 34.635 -6.1525 33.645 -5.8125 32.625 C-4.8225 31.965 -3.8325 31.305 -2.8125 30.625 C-4.4625 30.625 -6.1125 30.625 -7.8125 30.625 Z M-2.8125 31.625 C-1.8225 31.955 -0.8325 32.285 0.1875 32.625 C0.5175 33.615 0.8475 34.605 1.1875 35.625 C1.1875 34.305 1.1875 32.985 1.1875 31.625 C-0.1325 31.625 -1.4525 31.625 -2.8125 31.625 Z M45.1875 31.625 C45.5175 32.285 45.8475 32.945 46.1875 33.625 C46.8475 33.625 47.5075 33.625 48.1875 33.625 C48.1875 32.965 48.1875 32.305 48.1875 31.625 C47.1975 31.625 46.2075 31.625 45.1875 31.625 Z M7.1875 32.625 C7.8475 33.285 8.5075 33.945 9.1875 34.625 C9.1875 33.965 9.1875 33.305 9.1875 32.625 C8.5275 32.625 7.8675 32.625 7.1875 32.625 Z M52.1875 32.625 C52.1875 33.285 52.1875 33.945 52.1875 34.625 C52.8475 34.625 53.5075 34.625 54.1875 34.625 C54.1875 33.965 54.1875 33.305 54.1875 32.625 C53.5275 32.625 52.8675 32.625 52.1875 32.625 Z M4.1875 33.625 C4.5175 34.615 4.8475 35.605 5.1875 36.625 C5.5175 35.635 5.8475 34.645 6.1875 33.625 C5.5275 33.625 4.8675 33.625 4.1875 33.625 Z M-3.8125 34.625 C-3.8125 35.945 -3.8125 37.265 -3.8125 38.625 C-1.3375 39.12 -1.3375 39.12 1.1875 39.625 C0.8575 38.305 0.5275 36.985 0.1875 35.625 C-1.1325 35.295 -2.4525 34.965 -3.8125 34.625 Z M9.1875 34.625 C8.5275 35.285 7.8675 35.945 7.1875 36.625 C8.1775 36.625 9.1675 36.625 10.1875 36.625 C10.5175 35.965 10.8475 35.305 11.1875 34.625 C10.5275 34.625 9.8675 34.625 9.1875 34.625 Z M-10.8125 37.625 C-11.1425 38.285 -11.4725 38.945 -11.8125 39.625 C-11.1525 39.625 -10.4925 39.625 -9.8125 39.625 C-10.1425 38.965 -10.4725 38.305 -10.8125 37.625 Z M-6.8125 37.625 C-7.1425 38.285 -7.4725 38.945 -7.8125 39.625 C-7.1525 39.625 -6.4925 39.625 -5.8125 39.625 C-5.8125 40.285 -5.8125 40.945 -5.8125 41.625 C-5.1525 41.295 -4.4925 40.965 -3.8125 40.625 C-3.8125 39.965 -3.8125 39.305 -3.8125 38.625 C-4.8025 38.295 -5.7925 37.965 -6.8125 37.625 Z M11.1875 37.625 C11.5175 38.285 11.8475 38.945 12.1875 39.625 C12.8475 39.625 13.5075 39.625 14.1875 39.625 C14.1875 38.965 14.1875 38.305 14.1875 37.625 C13.1975 37.625 12.2075 37.625 11.1875 37.625 Z M49.1875 37.625 C48.8575 38.285 48.5275 38.945 48.1875 39.625 C48.8475 39.625 49.5075 39.625 50.1875 39.625 C49.8575 38.965 49.5275 38.305 49.1875 37.625 Z M-12.8125 39.625 C-11.8125 41.625 -11.8125 41.625 -11.8125 41.625 Z M-9.8125 39.625 C-8.8225 41.11 -8.8225 41.11 -7.8125 42.625 C-7.8125 41.635 -7.8125 40.645 -7.8125 39.625 C-8.4725 39.625 -9.1325 39.625 -9.8125 39.625 Z M-2.8125 44.625 C0.4875 44.295 3.7875 43.965 7.1875 43.625 C7.1875 43.295 7.1875 42.965 7.1875 42.625 C1.60085154 42.02078469 1.60085154 42.02078469 -2.8125 44.625 Z M7.1875 43.625 C7.8475 44.285 8.5075 44.945 9.1875 45.625 C10.1775 45.295 11.1675 44.965 12.1875 44.625 C10.5375 44.295 8.8875 43.965 7.1875 43.625 Z M-8.8125 51.625 C-12.29685067 62.07805202 -9.65505721 75.59471456 -5.8125 85.625 C-3.69383871 88.85189096 -1.94818329 91.34107918 1.9375 92.3125 C7.69825765 91.09387819 12.52743989 88.68749893 16.25 84.0625 C18.72205413 74.99830151 16.98729575 65.67652751 15.1875 56.625 C15.043125 55.73167969 14.89875 54.83835937 14.75 53.91796875 C14.33219125 51.42100067 14.33219125 51.42100067 12.125 49.375 C4.43674919 44.79476548 -1.79923566 46.64872667 -8.8125 51.625 Z M-12.8125 52.625 C-11.8125 55.625 -11.8125 55.625 -11.8125 55.625 Z M58.1875 53.625 C58.1875 54.285 58.1875 54.945 58.1875 55.625 C59.1775 55.625 60.1675 55.625 61.1875 55.625 C61.1875 54.965 61.1875 54.305 61.1875 53.625 C60.1975 53.625 59.2075 53.625 58.1875 53.625 Z M51.1875 54.625 C50.8575 55.285 50.5275 55.945 50.1875 56.625 C51.5075 56.295 52.8275 55.965 54.1875 55.625 C53.1975 55.295 52.2075 54.965 51.1875 54.625 Z M69.1875 56.625 C68.8575 57.285 68.5275 57.945 68.1875 58.625 C69.1775 58.625 70.1675 58.625 71.1875 58.625 C71.1875 57.965 71.1875 57.305 71.1875 56.625 C70.5275 56.625 69.8675 56.625 69.1875 56.625 Z M45.1875 58.625 C45.8475 59.285 46.5075 59.945 47.1875 60.625 C47.1875 59.965 47.1875 59.305 47.1875 58.625 C46.5275 58.625 45.8675 58.625 45.1875 58.625 Z M46.8125 65.125 C44.55077992 69.9963971 44.84904531 74.34134623 45.1875 79.625 C45.5175 79.625 45.8475 79.625 46.1875 79.625 C46.20167969 79.04492188 46.21585938 78.46484375 46.23046875 77.8671875 C46.60287089 71.76784441 47.68801188 68.81770484 52.1875 64.625 C56.03563934 62.65209607 58.73817763 62.48652743 63 63 C64.46373047 63.16628906 64.46373047 63.16628906 65.95703125 63.3359375 C66.69308594 63.43132812 67.42914063 63.52671875 68.1875 63.625 C65.19334734 60.49474949 63.93160484 59.67460699 59.4375 59.375 C53.95902258 59.47424778 50.60633363 61.13149091 46.8125 65.125 Z M-13.8125 61.625 C-14.0619783 68.91531024 -13.53580907 75.53173679 -11.8125 82.625 C-11.4825 82.625 -11.1525 82.625 -10.8125 82.625 C-10.71099211 77.69552311 -11.07007428 73.05966881 -11.8125 68.1875 C-11.998125 66.95128906 -12.18375 65.71507813 -12.375 64.44140625 C-12.519375 63.51199219 -12.66375 62.58257812 -12.8125 61.625 C-13.1425 61.625 -13.4725 61.625 -13.8125 61.625 Z M40.1875 63.625 C41.1775 64.615 42.1675 65.605 43.1875 66.625 C43.1875 65.635 43.1875 64.645 43.1875 63.625 C42.1975 63.625 41.2075 63.625 40.1875 63.625 Z M52.1875 67.625 C49.53803691 70.70179585 49.16904401 72.09900429 49.3125 76.1875 C50.34244203 80.48352418 50.34244203 80.48352418 53.1875 83.625 C56.51094023 84.79431348 56.51094023 84.79431348 60.1875 83.625 C63.73326077 79.7919345 66.53396188 75.58561436 68.1875 70.625 C67.65554363 68.47646564 67.65554363 68.47646564 66.1875 66.625 C60.67672174 63.79895987 57.41728244 64.46533978 52.1875 67.625 Z M69.1875 64.625 C70.1875 66.625 70.1875 66.625 70.1875 66.625 Z M38.1875 69.625 C38.8475 70.285 39.5075 70.945 40.1875 71.625 C40.1875 70.965 40.1875 70.305 40.1875 69.625 C39.5275 69.625 38.8675 69.625 38.1875 69.625 Z M38.1875 75.625 C38.1875 76.615 38.1875 77.605 38.1875 78.625 C38.8475 78.625 39.5075 78.625 40.1875 78.625 C39.8575 77.635 39.5275 76.645 39.1875 75.625 C38.8575 75.625 38.5275 75.625 38.1875 75.625 Z M46.1875 79.625 C47.1875 81.625 47.1875 81.625 47.1875 81.625 Z M47.1875 81.625 C47.5175 82.615 47.8475 83.605 48.1875 84.625 C48.1875 83.635 48.1875 82.645 48.1875 81.625 C47.8575 81.625 47.5275 81.625 47.1875 81.625 Z M-10.8125 82.625 C-10.30214169 87.0140815 -9.29035723 89.96208062 -6.8125 93.625 C-5.8225 93.295 -4.8325 92.965 -3.8125 92.625 C-4.43125 91.903125 -5.05 91.18125 -5.6875 90.4375 C-7.64916353 87.84118062 -8.76566 85.67828334 -9.8125 82.625 C-10.1425 82.625 -10.4725 82.625 -10.8125 82.625 Z M40.1875 82.625 C40.1875 83.285 40.1875 83.945 40.1875 84.625 C40.8475 84.625 41.5075 84.625 42.1875 84.625 C42.1875 83.965 42.1875 83.305 42.1875 82.625 C41.5275 82.625 40.8675 82.625 40.1875 82.625 Z M18.1875 84.625 C19.1875 86.625 19.1875 86.625 19.1875 86.625 Z M68.1875 84.625 C66.00037195 86.22704619 66.00037195 86.22704619 64.1875 88.625 C64.33099347 91.82454954 64.33099347 91.82454954 65.1875 94.625 C69.35688808 94.95967338 69.35688808 94.95967338 73.125 93.4375 C74.40348437 91.60671725 74.40348437 91.60671725 74.1875 89.0625 C73.39619776 86.38124123 73.39619776 86.38124123 70.625 85.3125 C69.4184375 84.9721875 69.4184375 84.9721875 68.1875 84.625 Z M28.1875 86.625 C26.83131501 87.75034105 26.83131501 87.75034105 27.125 90.6875 C27.145625 91.656875 27.16625 92.62625 27.1875 93.625 C29.70546153 95.21038318 30.86615586 95.6623656 33.875 95.3125 C36.12910952 94.84215153 36.12910952 94.84215153 37.1875 93.625 C37.22813832 91.95882885 37.230221 90.29111905 37.1875 88.625 C35.7100254 88.26383954 34.23045325 87.91124952 32.75 87.5625 C31.92628906 87.36527344 31.10257813 87.16804688 30.25390625 86.96484375 C29.57199219 86.85269531 28.89007813 86.74054688 28.1875 86.625 Z M50.1875 88.625 C49.5275 89.945 48.8675 91.265 48.1875 92.625 C49.1775 94.11 49.1775 94.11 50.1875 95.625 C51.8375 95.295 53.4875 94.965 55.1875 94.625 C55.1875 92.975 55.1875 91.325 55.1875 89.625 C53.5375 89.295 51.8875 88.965 50.1875 88.625 Z M0.1875 94.625 C4.1875 95.625 4.1875 95.625 4.1875 95.625 Z " fill="#000000" transform="translate(23.8125,7.375)"/>
<path d="M0 0 C2.5625 0.1875 2.5625 0.1875 4.5625 2.1875 C5.6146043 5.25724736 5.69703547 8.14724505 5.6875 11.375 C5.69007812 12.25542969 5.69265625 13.13585937 5.6953125 14.04296875 C5.5625 16.1875 5.5625 16.1875 4.5625 17.1875 C2.22305264 16.90019945 -0.1114143 16.56813221 -2.4375 16.1875 C-4.71279157 10.96771347 -4.57703601 6.65497074 -3.4375 1.1875 C-2.4375 0.1875 -2.4375 0.1875 0 0 Z M-0.4375 3.1875 C-1.70014601 7.48049643 -1.06700412 10.06581311 0.5625 14.1875 C1.2225 14.1875 1.8825 14.1875 2.5625 14.1875 C2.80678343 8.3900577 2.80678343 8.3900577 0.5625 3.1875 C0.2325 3.1875 -0.0975 3.1875 -0.4375 3.1875 Z " fill="#000000" transform="translate(26.4375,65.8125)"/>
<path d="" fill="#000000" transform="translate(0,0)"/>
<path d="" fill="#000000" transform="translate(0,0)"/>
</svg>
