<?xml version="1.0" encoding="UTF-8"?>
<!DOCTYPE svg PUBLIC "-//W3C//DTD SVG 1.1//EN" "http://www.w3.org/Graphics/SVG/1.1/DTD/svg11.dtd">
<svg xmlns="http://www.w3.org/2000/svg" version="1.1" width="110px" height="110px" style="shape-rendering:geometricPrecision; text-rendering:geometricPrecision; image-rendering:optimizeQuality; fill-rule:evenodd; clip-rule:evenodd" xmlns:xlink="http://www.w3.org/1999/xlink">
<g><path style="opacity:0.771" fill="#000000" d="M 13.5,5.5 C 19.8157,4.57277 24.3157,6.90611 27,12.5C 28.2899,10.208 29.9565,8.20799 32,6.5C 32.3333,6.83333 32.6667,7.16667 33,7.5C 36.2298,5.30884 39.7298,4.9755 43.5,6.5C 45.1667,7.83333 46.8333,9.16667 48.5,10.5C 51.1589,7.2172 54.6589,5.55054 59,5.5C 61.141,6.11151 63.141,6.11151 65,5.5C 65.6891,6.35668 66.5224,7.02335 67.5,7.5C 71.9419,4.65489 76.1086,4.98822 80,8.5C 84.7627,5.63781 89.9294,4.80448 95.5,6C 100.565,8.53711 102.065,12.3704 100,17.5C 97.7068,19.3723 95.2068,20.8723 92.5,22C 105.603,31.1705 110.103,43.6705 106,59.5C 105.637,67.3422 104.304,75.0089 102,82.5C 100.207,85.2953 98.0402,87.7953 95.5,90C 100.774,93.2977 101.774,97.631 98.5,103C 88.8732,107.766 84.2066,104.932 84.5,94.5C 83.1266,94.3433 81.7932,94.51 80.5,95C 82.9554,97.6644 83.122,100.498 81,103.5C 74.9982,107.211 70.8315,105.878 68.5,99.5C 68.8333,98.8333 69.1667,98.1667 69.5,97.5C 67.9547,96.5481 66.288,96.2148 64.5,96.5C 61.6104,106.252 56.1104,107.919 48,101.5C 47.1067,98.0838 47.6067,94.9172 49.5,92C 48.6667,91.1667 47.8333,90.3333 47,89.5C 42.6218,101.949 33.7885,107.115 20.5,105C 17.8041,104.235 15.3041,103.068 13,101.5C 5.47523,85.6372 4.6419,69.4705 10.5,53C 9.34881,51.1769 8.18215,49.3436 7,47.5C 6.33333,40.8333 6.33333,34.1667 7,27.5C 8.5,26 10,24.5 11.5,23C 6.39101,19.6338 5.22434,15.1338 8,9.5C 9.49981,7.5313 11.3331,6.19796 13.5,5.5 Z M 14.5,8.5 C 20.1797,8.41281 23.6797,11.0795 25,16.5C 25.6667,20.1667 25.6667,23.8333 25,27.5C 24.0197,26.0186 22.853,24.6853 21.5,23.5C 24.9399,18.1553 23.6066,14.4887 17.5,12.5C 16.2638,13.2458 14.9305,13.5792 13.5,13.5C 13.5,14.8333 13.5,16.1667 13.5,17.5C 15.3307,16.9478 16.9974,16.9478 18.5,17.5C 16.0127,20.9085 13.1793,20.9085 10,17.5C 9.37717,13.4123 10.8772,10.4123 14.5,8.5 Z M 67.5,16.5 C 64.7474,14.2948 61.5808,12.6282 58,11.5C 56.9412,11.6301 56.1079,12.1301 55.5,13C 56.8333,14 58.1667,15 59.5,16C 57.3079,18.7862 54.6412,19.2862 51.5,17.5C 50.7458,10.9204 53.7458,7.92036 60.5,8.5C 62.5122,8.83956 64.5122,9.1729 66.5,9.5C 66.448,11.9029 66.7814,14.2362 67.5,16.5 Z M 85.5,8.5 C 88.5184,8.33537 91.5184,8.50204 94.5,9C 97.9166,11.321 98.2499,13.9876 95.5,17C 93.5,17.6667 91.5,17.6667 89.5,17C 91.0368,15.8904 91.7035,14.3904 91.5,12.5C 90.1266,12.3433 88.7932,12.51 87.5,13C 85.2892,16.2751 82.2892,17.6084 78.5,17C 80.0037,15.5093 80.8371,13.676 81,11.5C 82.6516,10.6006 84.1516,9.60064 85.5,8.5 Z M 34.5,9.5 C 39.9533,8.39594 43.9533,10.2293 46.5,15C 45.3798,18.6206 43.0464,21.1206 39.5,22.5C 34.3186,19.2189 34.9853,16.8855 41.5,15.5C 40.2712,12.0773 38.2712,11.5773 35.5,14C 31.6782,16.5517 31.0116,19.5517 33.5,23C 31.9095,24.0458 30.4095,25.2125 29,26.5C 27.3763,19.5401 29.2096,13.8734 34.5,9.5 Z M 47.5,20.5 C 49.0898,20.6282 50.4231,21.2949 51.5,22.5C 49.8333,23.8333 48.1667,25.1667 46.5,26.5C 45.5,26.1667 44.8333,25.5 44.5,24.5C 45.5244,23.1482 46.5244,21.8149 47.5,20.5 Z M 61.5,21.5 C 70.6518,20.9544 79.6518,21.7877 88.5,24C 96.8277,28.8304 101.828,35.997 103.5,45.5C 102.689,54.1605 101.856,62.8272 101,71.5C 100.44,78.8986 97.1064,84.5653 91,88.5C 94.0767,82.6201 96.41,76.2868 98,69.5C 103.29,53.2054 99.457,39.7054 86.5,29C 76.3249,24.029 66.3249,24.3623 56.5,30C 54.0439,32.4075 52.2106,35.2409 51,38.5C 49.3297,43.5109 47.663,48.5109 46,53.5C 43.1283,45.3365 43.7949,37.3365 48,29.5C 52.1834,26.1637 56.6834,23.497 61.5,21.5 Z M 13.5,26.5 C 14.209,25.596 15.209,25.2627 16.5,25.5C 16.6495,26.552 16.4828,27.552 16,28.5C 15.5831,27.244 14.7498,26.5774 13.5,26.5 Z M 10.5,28.5 C 10.7828,27.7109 11.2828,27.0442 12,26.5C 12.5281,27.816 12.0281,28.4827 10.5,28.5 Z M 21.5,28.5 C 19.9719,28.4827 19.4719,27.816 20,26.5C 20.7172,27.0442 21.2172,27.7109 21.5,28.5 Z M 38.5,29.5 C 36.9157,28.6182 35.249,27.7848 33.5,27C 35.9808,26.2404 37.6475,27.0737 38.5,29.5 Z M 11.5,34.5 C 10.448,34.6495 9.44802,34.4828 8.5,34C 10.1102,31.8145 12.1102,30.4812 14.5,30C 13.1667,30.6667 13.1667,31.3333 14.5,32C 12.8807,32.2355 11.8807,33.0689 11.5,34.5 Z M 32.5,29.5 C 34.5323,30.0478 35.5323,31.3812 35.5,33.5C 32.9746,32.1084 30.8079,32.4418 29,34.5C 28.3333,33.8333 28.3333,33.1667 29,32.5C 30.7286,32.0257 31.8953,31.0257 32.5,29.5 Z M 38.5,29.5 C 39.1667,29.5 39.8333,29.5 40.5,29.5C 40.3601,31.1238 41.0267,32.2904 42.5,33C 38.9561,34.2535 38.6228,36.0868 41.5,38.5C 41.1667,38.8333 40.8333,39.1667 40.5,39.5C 37.5581,37.5387 37.2248,34.872 39.5,31.5C 39.1373,30.8165 38.8039,30.1499 38.5,29.5 Z M 64.5,30.5 C 71.0535,32.5019 71.0535,33.6685 64.5,34C 63.3157,32.8545 63.3157,31.6879 64.5,30.5 Z M 65.5,66.5 C 64.2794,67.0283 63.1127,67.695 62,68.5C 61.7266,71.3931 60.8932,74.0597 59.5,76.5C 60.6344,79.1148 60.3011,81.6148 58.5,84C 59.2887,85.6255 60.2887,87.1255 61.5,88.5C 61.0814,89.6721 60.4147,90.6721 59.5,91.5C 52.5044,89.0033 47.6711,84.3367 45,77.5C 43.6413,71.8733 42.4747,66.2067 41.5,60.5C 41.6922,58.4233 42.1922,56.4233 43,54.5C 44.8065,59.25 47.1399,59.5833 50,55.5C 50.6384,46.5722 53.805,38.7389 59.5,32C 59.8333,31.8333 60.1667,31.6667 60.5,31.5C 61.2811,32.7287 61.7811,34.062 62,35.5C 66.1564,38.4718 68.823,42.4718 70,47.5C 70.7387,48.5742 71.7387,49.2409 73,49.5C 75.2485,47.6105 77.4151,45.6105 79.5,43.5C 80.8535,40.9327 80.5202,38.5994 78.5,36.5C 80.3868,34.9596 82.2201,33.2929 84,31.5C 94.0686,39.0845 97.7353,49.0845 95,61.5C 89.4707,57.8759 83.6374,57.2092 77.5,59.5C 73.6207,57.491 71.1207,58.491 70,62.5C 67.0495,61.7677 65.5495,63.101 65.5,66.5 Z M 18.5,32.5 C 20.3442,33.2039 20.8442,34.5372 20,36.5C 18.8118,35.4366 18.3118,34.1033 18.5,32.5 Z M 73.5,33.5 C 74.675,33.281 75.675,33.6143 76.5,34.5C 75.277,35.6139 73.9437,35.7805 72.5,35C 73.056,34.6174 73.3893,34.1174 73.5,33.5 Z M 11.5,34.5 C 12.391,35.1098 13.391,35.4431 14.5,35.5C 12.1224,41.0905 11.1224,40.7572 11.5,34.5 Z M 37.5,44.5 C 36.8333,42.5 36.1667,40.5 35.5,38.5C 33.54,37.8617 31.7067,37.8617 30,38.5C 29.2496,37.8742 28.4162,37.3742 27.5,37C 29.2194,35.9431 31.0528,35.1097 33,34.5C 35.3407,37.1386 37.5074,39.9719 39.5,43C 38.9558,43.7172 38.2891,44.2172 37.5,44.5 Z M 20.5,38.5 C 17.6711,38.3249 16.0045,39.6582 15.5,42.5C 13.5741,41.9394 11.5741,41.7727 9.5,42C 11.2495,40.6814 13.2495,40.1814 15.5,40.5C 15.5,39.5 15.5,38.5 15.5,37.5C 17.4147,37.2155 19.0813,37.5489 20.5,38.5 Z M 20.5,38.5 C 21.8333,38.5 23.1667,38.5 24.5,38.5C 24.7678,40.099 24.4345,41.4324 23.5,42.5C 23.5,41.5 23.5,40.5 23.5,39.5C 22.209,39.7373 21.209,39.404 20.5,38.5 Z M 68.5,39.5 C 69.3864,38.2241 70.3864,38.2241 71.5,39.5C 70.5754,40.5624 69.5754,40.5624 68.5,39.5 Z M 32.5,41.5 C 31.7109,41.2172 31.0442,40.7172 30.5,40C 31.816,39.4719 32.4827,39.9719 32.5,41.5 Z M 75.5,39.5 C 77.337,39.6395 77.6704,40.3061 76.5,41.5C 75.7025,41.0431 75.3691,40.3764 75.5,39.5 Z M 27.5,40.5 C 29.9732,40.9473 30.1399,41.9473 28,43.5C 27.5172,42.552 27.3505,41.552 27.5,40.5 Z M 23.5,42.5 C 22.2935,43.8804 22.6269,45.0471 24.5,46C 22.8034,46.3845 21.1368,46.2178 19.5,45.5C 20.6843,44.3121 20.6843,43.1455 19.5,42C 20.8193,41.805 22.1526,41.9717 23.5,42.5 Z M 32.5,41.5 C 34.6569,42.0533 34.4903,43.0533 32,44.5C 30.2053,43.2805 30.3719,42.2805 32.5,41.5 Z M 13.5,46.5 C 12.8333,46.5 12.1667,46.5 11.5,46.5C 12.5477,44.0673 13.2144,44.0673 13.5,46.5 Z M 19.5,45.5 C 18.8506,46.6063 18.5173,47.6063 18.5,48.5C 17.7348,47.3881 16.7348,46.7214 15.5,46.5C 16.2919,44.2552 17.6253,43.9219 19.5,45.5 Z M 37.5,44.5 C 37.631,45.2389 37.4643,45.9056 37,46.5C 36.3333,45.1667 35.6667,45.1667 35,46.5C 34.8119,44.9387 35.6453,44.272 37.5,44.5 Z M 72.5,44.5 C 73.7733,45.0768 73.7733,45.7435 72.5,46.5C 71.537,46.0302 71.537,45.3635 72.5,44.5 Z M 13.5,46.5 C 14.1667,46.5 14.8333,46.5 15.5,46.5C 15.362,50.2861 14.6953,50.2861 13.5,46.5 Z M 30.5,50.5 C 27.1105,50.6321 23.7772,50.7988 20.5,51C 23.8944,49.3159 27.2277,49.1492 30.5,50.5 Z M 30.5,50.5 C 32.5529,50.4021 34.2196,51.0687 35.5,52.5C 33.4471,52.5979 31.7804,51.9313 30.5,50.5 Z M 24.5,53.5 C 30.0049,53.278 34.5049,55.278 38,59.5C 38.7203,61.1124 38.5536,62.6124 37.5,64C 40.0113,71.6277 40.8446,79.461 40,87.5C 36.5951,94.9558 30.7618,98.4558 22.5,98C 20.6217,96.4571 19.1217,94.6238 18,92.5C 13.5957,81.4209 12.5957,70.0876 15,58.5C 18.1806,56.6618 21.3473,54.9952 24.5,53.5 Z M 81.5,60.5 C 82.675,60.281 83.675,60.6143 84.5,61.5C 82.9483,62.7979 81.9483,62.4646 81.5,60.5 Z M 74.5,61.5 C 75.7562,61.4614 76.7562,61.9614 77.5,63C 76.1667,63.6667 74.8333,63.6667 73.5,63C 74.056,62.6174 74.3893,62.1174 74.5,61.5 Z M 92.5,63.5 C 93.3764,63.3691 94.0431,63.7025 94.5,64.5C 92.1916,65.8734 91.5249,65.5401 92.5,63.5 Z M 68.5,66.5 C 69.0768,65.2267 69.7435,65.2267 70.5,66.5C 70.0302,67.463 69.3635,67.463 68.5,66.5 Z M 91.5,70.5 C 77.1077,66.2329 69.7744,71.5662 69.5,86.5C 66.3411,72.4851 72.0078,65.9851 86.5,67C 88.5844,67.6972 90.2511,68.8639 91.5,70.5 Z M 12.5,89.5 C 9.96606,82.8338 9.13273,75.8338 10,68.5C 10.6774,75.5346 11.5107,82.5346 12.5,89.5 Z M 25.5,68.5 C 26.9663,69.347 27.7996,70.6803 28,72.5C 28.2242,81.5314 27.0576,81.6981 24.5,73C 25.3802,71.6439 25.7135,70.1439 25.5,68.5 Z M 63.5,71.5 C 64.209,70.596 65.209,70.2627 66.5,70.5C 66.6495,71.552 66.4828,72.552 66,73.5C 65.2917,72.6195 64.4584,71.9528 63.5,71.5 Z M 81.5,71.5 C 86.4225,71.4482 89.7558,73.6149 91.5,78C 88.8333,82 86.1667,86 83.5,90C 75.4963,91.2173 71.9963,87.7173 73,79.5C 74.773,75.5596 77.6063,72.893 81.5,71.5 Z M 61.5,77.5 C 62.0768,76.2267 62.7435,76.2267 63.5,77.5C 63.0302,78.463 62.3635,78.463 61.5,77.5 Z M 61.5,82.5 C 63.332,83.1405 63.6653,84.1405 62.5,85.5C 61.6143,84.675 61.281,83.675 61.5,82.5 Z M 70.5,88.5 C 72.0847,89.0024 72.5847,90.0024 72,91.5C 70.9614,90.7562 70.4614,89.7562 70.5,88.5 Z M 12.5,89.5 C 14.0576,93.6047 16.3909,97.2713 19.5,100.5C 18.1779,100.67 17.0113,100.337 16,99.5C 13.9653,96.4388 12.7986,93.1055 12.5,89.5 Z M 63.5,89.5 C 65.337,89.6395 65.6704,90.3061 64.5,91.5C 63.7025,91.0431 63.3691,90.3764 63.5,89.5 Z M 91.5,91.5 C 97.0165,92.8538 98.3499,95.8538 95.5,100.5C 91.5538,102.412 88.8872,101.412 87.5,97.5C 87.8662,94.7441 89.1995,92.7441 91.5,91.5 Z M 51.5,93.5 C 54.2377,93.8511 56.9044,94.5178 59.5,95.5C 61.4249,99.3686 60.2583,101.702 56,102.5C 50.9771,101.266 49.4771,98.2657 51.5,93.5 Z M 73.5,95.5 C 78.3276,95.3852 79.6609,97.5519 77.5,102C 72.1766,102.18 70.8433,100.014 73.5,95.5 Z"/></g>
<g><path style="opacity:0.075" fill="#000000" d="M 105.5,16.5 C 106.525,16.8966 106.692,17.5632 106,18.5C 105.536,17.9056 105.369,17.2389 105.5,16.5 Z"/></g>
<g><path style="opacity:0.762" fill="#000000" d="M 23.5,65.5 C 26.0444,65.1043 28.2111,65.771 30,67.5C 31.6048,72.3435 31.7715,77.1768 30.5,82C 27.3201,83.0361 24.8201,82.2028 23,79.5C 21.1862,74.7585 21.3528,70.0918 23.5,65.5 Z M 25.5,68.5 C 25.7135,70.1439 25.3802,71.6439 24.5,73C 27.0576,81.6981 28.2242,81.5314 28,72.5C 27.7996,70.6803 26.9663,69.347 25.5,68.5 Z"/></g>
<g><path style="opacity:0.075" fill="#000000" d="M 105.5,78.5 C 106.833,79.1667 106.833,79.1667 105.5,78.5 Z"/></g>
</svg>
