<?xml version="1.0" encoding="UTF-8"?>
<!DOCTYPE svg PUBLIC "-//W3C//DTD SVG 1.1//EN" "http://www.w3.org/Graphics/SVG/1.1/DTD/svg11.dtd">
<svg xmlns="http://www.w3.org/2000/svg" version="1.1" width="110px" height="110px" style="shape-rendering:geometricPrecision; text-rendering:geometricPrecision; image-rendering:optimizeQuality; fill-rule:evenodd; clip-rule:evenodd" xmlns:xlink="http://www.w3.org/1999/xlink">
<g><path style="opacity:0.767" fill="#000000" d="M 35.5,5.5 C 53.1698,5.33339 70.8365,5.50006 88.5,6C 96.5318,6.00345 101.532,9.83678 103.5,17.5C 102.312,22.0452 99.9785,25.8785 96.5,29C 104.248,34.5707 107.082,42.0707 105,51.5C 104.436,58.579 103.436,65.579 102,72.5C 100.104,77.5563 96.9377,81.5563 92.5,84.5C 96.581,86.1179 99.7477,88.7846 102,92.5C 103.004,95.9926 102.504,99.1592 100.5,102C 95.8339,104.751 90.8339,105.751 85.5,105C 84.0186,104.02 82.6853,102.853 81.5,101.5C 77.8219,103.337 73.9886,104.67 70,105.5C 67.8546,105.604 66.0212,104.937 64.5,103.5C 59.4939,106.165 54.4939,106.165 49.5,103.5C 41.9353,106.318 34.4353,105.985 27,102.5C 19.5675,106.586 12.2342,106.253 5,101.5C 2.29488,95.4056 4.12822,91.239 10.5,89C 7.1929,86.2217 5.02624,82.7217 4,78.5C 3.33333,68.5 3.33333,58.5 4,48.5C 4.72596,41.304 7.55929,35.1373 12.5,30C 1.39501,23.4174 0.728348,16.084 10.5,8C 18.9613,7.00075 27.2947,6.16741 35.5,5.5 Z M 43.5,8.5 C 45.7105,9.58281 47.8771,9.58281 50,8.5C 51.4469,8.94522 52.7803,9.61188 54,10.5C 55.6803,9.45346 57.5136,8.78679 59.5,8.5C 67.782,8.19087 76.1153,8.69087 84.5,10C 85.5,10.3333 86.5,10.6667 87.5,11C 84.8059,13.5525 85.4726,14.7192 89.5,14.5C 89.3505,13.448 89.5172,12.448 90,11.5C 91.4095,12.7875 92.9095,13.9542 94.5,15C 92.5614,15.9078 91.5614,17.4078 91.5,19.5C 92.8734,19.3433 94.2068,19.51 95.5,20C 94.0734,21.7971 92.24,22.9638 90,23.5C 89.8076,21.1977 88.4743,19.1977 86,17.5C 84.6439,18.3802 83.1439,18.7135 81.5,18.5C 81.5,19.5 81.5,20.5 81.5,21.5C 76.2509,21.7925 71.5842,20.4592 67.5,17.5C 65.5016,18.976 63.335,20.3094 61,21.5C 56.2539,21.0706 51.9206,19.7373 48,17.5C 45.7036,17.9093 43.8702,19.0759 42.5,21C 39.318,21.4069 36.1514,21.9069 33,22.5C 30.7187,20.9719 28.2187,20.4719 25.5,21C 23.8753,21.8525 23.5419,22.8525 24.5,24C 21.2239,27.6989 19.5573,27.1989 19.5,22.5C 13.7665,23.9397 11.2665,21.6064 12,15.5C 12.8333,14 14,12.8333 15.5,12C 19.7543,10.7355 24.0876,9.90216 28.5,9.5C 29.5583,13.9338 31.225,14.2671 33.5,10.5C 36.9773,9.8328 40.3107,9.16613 43.5,8.5 Z M 8.5,14.5 C 8.5,16.8333 8.5,19.1667 8.5,21.5C 6.10925,19.2358 6.10925,16.9024 8.5,14.5 Z M 98.5,15.5 C 100.765,16.9402 100.932,18.6068 99,20.5C 98.5065,18.8659 98.3398,17.1992 98.5,15.5 Z M 46.5,23.5 C 48.5,23.5 50.5,23.5 52.5,23.5C 52.6646,26.5184 52.498,29.5184 52,32.5C 50.6883,34.6576 49.0217,34.9909 47,33.5C 46.7744,30.905 46.2744,28.405 45.5,26C 46.2524,25.3292 46.5858,24.4959 46.5,23.5 Z M 55.5,23.5 C 57.7925,23.2436 59.9592,23.5769 62,24.5C 63.0037,27.9926 62.5037,31.1592 60.5,34C 59.2161,34.6838 58.0495,34.5171 57,33.5C 56.5448,30.1464 56.0448,26.8131 55.5,23.5 Z M 36.5,24.5 C 37.5,24.5 38.5,24.5 39.5,24.5C 38.4763,30.8827 40.143,36.3827 44.5,41C 47.8936,41.7517 51.227,41.5851 54.5,40.5C 63.488,44.2526 68.988,41.2526 71,31.5C 71.4966,29.1902 71.6633,26.8568 71.5,24.5C 81.9565,23.7711 90.6232,27.2711 97.5,35C 90.5586,36.1414 83.5586,37.1414 76.5,38C 68.5183,41.2869 64.8516,47.2869 65.5,56C 66.8174,66.841 66.8174,77.6743 65.5,88.5C 57.4003,86.6257 54.0669,81.6257 55.5,73.5C 54.8179,69.8621 54.3179,66.1954 54,62.5C 52.9887,61.6634 51.8221,61.33 50.5,61.5C 52.727,71.0669 51.727,80.2336 47.5,89C 45.3225,90.2022 42.9892,90.7022 40.5,90.5C 39.7533,78.8584 39.2533,67.1918 39,55.5C 38.4132,47.5799 34.2466,42.7466 26.5,41C 21.1557,40.5293 15.8223,40.0293 10.5,39.5C 11.0913,36.3864 12.758,33.8864 15.5,32C 22.2948,28.571 29.2948,26.071 36.5,24.5 Z M 55.5,37.5 C 58.6021,37.846 61.4355,37.1793 64,35.5C 65.9706,31.7838 66.8039,28.1171 66.5,24.5C 67.6964,25.5594 68.363,26.8927 68.5,28.5C 67.8251,31.6913 66.6585,34.6913 65,37.5C 61.7583,40.0506 58.5916,40.0506 55.5,37.5 Z M 44.5,35.5 C 46.6365,36.7874 48.9699,37.6207 51.5,38C 49.5,38.6667 47.5,38.6667 45.5,38C 44.7476,37.3292 44.4142,36.4959 44.5,35.5 Z M 93.5,38.5 C 95.924,38.1924 98.2573,38.5258 100.5,39.5C 92.777,40.2826 85.1103,41.4493 77.5,43C 73.8345,44.668 71.6678,47.5013 71,51.5C 70.6667,60.1667 70.3333,68.8333 70,77.5C 69.6172,69.9917 69.1172,62.4917 68.5,55C 68.6673,48.5016 71.6673,43.835 77.5,41C 82.9561,40.0553 88.2894,39.222 93.5,38.5 Z M 8.5,42.5 C 11.1873,42.3359 13.854,42.5026 16.5,43C 14.1093,43.2868 11.7759,43.7868 9.5,44.5C 8.70245,44.0431 8.36912,43.3764 8.5,42.5 Z M 20.5,44.5 C 25.8814,43.0814 30.3814,44.7481 34,49.5C 35.1505,51.7538 35.4838,54.0871 35,56.5C 33.0025,48.9973 28.1692,44.9973 20.5,44.5 Z M 91.5,46.5 C 89.772,47.379 87.9386,48.0457 86,48.5C 85.1667,48.1667 84.3333,47.8333 83.5,47.5C 84.5821,47.2514 85.9154,47.0848 87.5,47C 88.6466,42.7003 89.9799,42.5336 91.5,46.5 Z M 80.5,47.5 C 80.5173,45.9719 81.184,45.4719 82.5,46C 81.9558,46.7172 81.2891,47.2172 80.5,47.5 Z M 98.5,49.5 C 97.8166,47.8235 96.4832,47.1568 94.5,47.5C 94.5,48.5 94.5,49.5 94.5,50.5C 95.5,50.5 96.5,50.5 97.5,50.5C 96.469,51.2485 95.3024,51.9152 94,52.5C 91.9095,51.848 89.7429,51.6813 87.5,52C 88.1258,51.2496 88.6258,50.4162 89,49.5C 90.0113,50.3366 91.1779,50.67 92.5,50.5C 92.5674,49.0413 92.2341,47.7079 91.5,46.5C 93.5914,46.6816 95.5914,46.3482 97.5,45.5C 99.5339,46.5739 99.8672,47.9073 98.5,49.5 Z M 12.5,46.5 C 15.7973,46.3287 16.1306,46.9954 13.5,48.5C 12.7025,48.0431 12.3691,47.3764 12.5,46.5 Z M 75.5,47.5 C 78.1247,48.4657 78.1247,49.4657 75.5,50.5C 74.913,49.7666 74.913,48.7666 75.5,47.5 Z M 21.5,49.5 C 22.2891,49.7828 22.9558,50.2828 23.5,51C 22.184,51.5281 21.5173,51.0281 21.5,49.5 Z M 10.5,54.5 C 11.1047,52.9743 12.2714,51.9743 14,51.5C 14.5,52 15,52.5 15.5,53C 13.7525,53.3519 12.0858,53.8519 10.5,54.5 Z M 73.5,51.5 C 78.3873,52.6932 78.554,53.6932 74,54.5C 73.5172,53.552 73.3505,52.552 73.5,51.5 Z M 19.5,52.5 C 21.337,52.6395 21.6704,53.3061 20.5,54.5C 19.7025,54.0431 19.3691,53.3764 19.5,52.5 Z M 24.5,54.5 C 25.9464,53.3871 27.6131,53.2204 29.5,54C 29,54.5 28.5,55 28,55.5C 26.9887,54.6634 25.8221,54.33 24.5,54.5 Z M 96.5,53.5 C 97.3764,53.3691 98.0431,53.7025 98.5,54.5C 96.1916,55.8734 95.5249,55.5401 96.5,53.5 Z M 98.5,70.5 C 96.8415,74.6725 94.1748,78.1725 90.5,81C 85.3293,83.7825 79.9959,86.2825 74.5,88.5C 73.4476,86.4583 72.7809,84.2916 72.5,82C 73.8125,75.563 74.6458,69.063 75,62.5C 76.9339,55.2133 81.4339,53.0466 88.5,56C 93.6081,59.5453 93.6081,62.712 88.5,65.5C 86.8927,65.363 85.5594,64.6964 84.5,63.5C 85.467,59.3981 84.3003,58.7314 81,61.5C 78.3552,70.854 81.8552,75.0207 91.5,74C 94.1392,73.3471 96.4726,72.1804 98.5,70.5 Z M 10.5,58.5 C 10.62,57.4138 11.2867,56.7472 12.5,56.5C 13.1667,56.8333 13.8333,57.1667 14.5,57.5C 13.3112,58.4287 11.9778,58.762 10.5,58.5 Z M 20.5,57.5 C 26.3262,56.4887 29.8262,58.822 31,64.5C 31.7089,68.8679 31.5423,73.2012 30.5,77.5C 31.0948,81.5269 31.7614,85.5269 32.5,89.5C 26.4327,89.9263 20.4327,89.093 14.5,87C 5.85729,79.783 6.52396,78.283 16.5,82.5C 22.9909,81.3396 27.3243,77.6729 29.5,71.5C 27.994,65.0922 24.3273,62.9256 18.5,65C 22.9935,69.6821 21.9935,71.6821 15.5,71C 13.0446,68.3356 12.878,65.5023 15,62.5C 16.1065,59.887 17.9399,58.2203 20.5,57.5 Z M 10.5,58.5 C 12.4968,61.0485 12.1635,63.7152 9.5,66.5C 9.16667,66.1667 8.83333,65.8333 8.5,65.5C 9.16667,64.5 9.83333,63.5 10.5,62.5C 9.29473,61.0052 9.29473,59.6719 10.5,58.5 Z M 35.5,58.5 C 36.8032,61.3553 36.8032,64.3553 35.5,67.5C 35.3462,64.7808 35.3462,61.7808 35.5,58.5 Z M 83.5,67.5 C 85.0847,68.0024 85.5847,69.0024 85,70.5C 83.9614,69.7562 83.4614,68.7562 83.5,67.5 Z M 10.5,69.5 C 10.8333,70.1667 11.1667,70.8333 11.5,71.5C 8.14692,71.6547 7.81359,70.9881 10.5,69.5 Z M 11.5,71.5 C 12.8672,73.0927 12.5339,74.4261 10.5,75.5C 10.1667,75.3333 9.83333,75.1667 9.5,75C 10.8228,74.1841 11.4894,73.0174 11.5,71.5 Z M 34.5,73.5 C 35.2979,76.1711 35.9646,79.0044 36.5,82C 36.1667,82.5 35.8333,83 35.5,83.5C 34.513,80.2317 34.1796,76.8984 34.5,73.5 Z M 19.5,74.5 C 22.1759,77.0597 21.5093,78.2263 17.5,78C 18.8228,77.1841 19.4894,76.0174 19.5,74.5 Z M 15.5,75.5 C 15.4142,76.4959 15.7476,77.3292 16.5,78C 15.552,78.4828 14.552,78.6495 13.5,78.5C 13.2852,76.8212 13.9519,75.8212 15.5,75.5 Z M 53.5,85.5 C 61.5548,91.2956 60.2215,93.1289 49.5,91C 51.4388,89.5679 52.7721,87.7346 53.5,85.5 Z M 81.5,89.5 C 84.1695,93.0363 83.5028,96.203 79.5,99C 75.6926,101.33 71.6926,101.83 67.5,100.5C 67.6667,100.167 67.8333,99.8333 68,99.5C 70.4728,98.8803 72.9728,98.2136 75.5,97.5C 75.2907,96.914 74.9574,96.414 74.5,96C 71.8333,95.3333 69.1667,95.3333 66.5,96C 64.1153,99.3967 60.9486,101.563 57,102.5C 51.2619,99.9285 45.4285,97.5952 39.5,95.5C 37.7697,96.0256 36.4363,97.0256 35.5,98.5C 39.2348,99.1527 42.9015,99.9861 46.5,101C 44.5212,102.208 42.3546,103.041 40,103.5C 35.2261,102.364 30.7261,100.531 26.5,98C 25.6198,96.6439 25.2865,95.1439 25.5,93.5C 44.667,97.1563 63.3337,95.8229 81.5,89.5 Z M 86.5,89.5 C 94.2888,92.5484 94.2888,95.215 86.5,97.5C 86.5,94.8333 86.5,92.1667 86.5,89.5 Z M 93.5,89.5 C 98.0194,90.8537 99.8527,93.8537 99,98.5C 94.8036,101.682 90.3036,102.515 85.5,101C 93.8184,100.574 96.4851,96.7403 93.5,89.5 Z M 11.5,92.5 C 9.82991,95.3063 10.1632,97.8063 12.5,100C 15.3508,101.289 18.3508,101.789 21.5,101.5C 20.2275,102.434 18.7275,103.101 17,103.5C 12.5991,102.61 9.09913,100.443 6.5,97C 7.41133,94.5852 9.078,93.0852 11.5,92.5 Z M 16.5,92.5 C 18.5,92.5 20.5,92.5 22.5,92.5C 22.496,97.9885 19.8293,99.8219 14.5,98C 13.0804,95.4264 13.747,93.593 16.5,92.5 Z"/></g>
<g><path style="opacity:0.657" fill="#000000" d="M 43.5,10.5 C 47.734,10.0616 49.4006,11.7283 48.5,15.5C 43.4802,17.1152 41.8135,15.4486 43.5,10.5 Z"/></g>
<g><path style="opacity:0.713" fill="#000000" d="M 71.5,10.5 C 76.3855,9.40485 78.0522,11.0715 76.5,15.5C 71.8353,16.6826 70.1687,15.016 71.5,10.5 Z"/></g>
<g><path style="opacity:0.577" fill="#000000" d="M 60.5,11.5 C 65.2183,12.3189 65.5516,13.9855 61.5,16.5C 57.8622,15.4585 57.5288,13.7918 60.5,11.5 Z"/></g>
<g><path style="opacity:0.681" fill="#000000" d="M 17.5,13.5 C 22.4857,13.3049 24.1524,15.4716 22.5,20C 16.1934,20.8889 14.5267,18.7223 17.5,13.5 Z"/></g>
<g><path style="opacity:0.726" fill="#000000" d="M 33.5,15.5 C 35.1667,15.5 36.8333,15.5 38.5,15.5C 38.5,16.8333 38.5,18.1667 38.5,19.5C 35.0504,20.2436 33.3838,18.9103 33.5,15.5 Z"/></g>
<g><path style="opacity:0.708" fill="#000000" d="M 51.5,46.5 C 52.5,46.5 53.5,46.5 54.5,46.5C 53.7542,50.31 52.7542,50.31 51.5,46.5 Z"/></g>
<g><path style="opacity:0.75" fill="#000000" d="M 98.5,49.5 C 97.8333,49.5 97.5,49.8333 97.5,50.5C 96.5,50.5 95.5,50.5 94.5,50.5C 94.5,49.5 94.5,48.5 94.5,47.5C 96.4832,47.1568 97.8166,47.8235 98.5,49.5 Z"/></g>
<g><path style="opacity:0.74" fill="#000000" d="M 51.5,52.5 C 53.3464,52.2222 54.6798,52.8888 55.5,54.5C 54.6798,56.1112 53.3464,56.7778 51.5,56.5C 51.5,55.1667 51.5,53.8333 51.5,52.5 Z"/></g>
</svg>
