<?xml version="1.0" encoding="UTF-8"?>
<svg version="1.1" xmlns="http://www.w3.org/2000/svg" width="110" height="110">
<path d="M0 0 C3.55165822 -0.0098493 7.10276987 -0.04106912 10.65429688 -0.07226562 C12.94596019 -0.07878563 15.23762752 -0.08404002 17.52929688 -0.08789062 C19.09673141 -0.10641083 19.09673141 -0.10641083 20.6958313 -0.12530518 C27.56749273 -0.10459547 35.85206977 0.00643661 41.19998169 4.88568115 C43.56429326 7.733532 44.3828599 9.57263489 44.45898438 13.30273438 C43.23258832 16.69335876 41.46681056 19.30170689 39.39648438 22.24023438 C39.39648438 25.0205117 40.62452621 26.0177837 42.33398438 28.17773438 C48.92312254 36.51151433 46.53709347 47.66406009 45.453125 57.6628418 C44.4688339 65.2645606 42.43528205 71.47769104 36.64648438 76.74023438 C35.53273437 77.48273438 35.53273437 77.48273438 34.39648438 78.24023438 C34.06648438 78.90023437 33.73648438 79.56023437 33.39648438 80.24023438 C34.30398437 80.46710938 35.21148437 80.69398437 36.14648438 80.92773438 C40.01144306 82.48858308 41.3498101 83.61919527 43.39648438 87.24023438 C44.10784563 90.32484396 43.91605979 91.96690929 43.39648438 95.24023438 C38.05053701 99.97868772 33.35643104 100.61986783 26.39648438 100.24023438 C24.91148438 99.25023438 24.91148438 99.25023438 23.39648438 98.24023438 C23.39648438 97.58023438 23.39648438 96.92023438 23.39648438 96.24023438 C22.82800781 96.52898437 22.25953125 96.81773438 21.67382812 97.11523438 C15.66678165 100.00343034 10.97384218 101.43268698 4.39648438 99.24023438 C3.40648437 99.57023437 2.41648438 99.90023437 1.39648438 100.24023438 C-2.18548923 100.37540319 -5.4394752 100.26757445 -8.97851562 99.67773438 C-9.84476563 99.53335938 -10.71101563 99.38898438 -11.60351562 99.24023438 C-11.93351562 99.57023437 -12.26351562 99.90023437 -12.60351562 100.24023438 C-14.68395275 100.36658861 -16.76927775 100.41605143 -18.85351562 100.42773438 C-20.5628125 100.44900391 -20.5628125 100.44900391 -22.30664062 100.47070312 C-25.5365877 100.24491299 -27.668739 99.52161572 -30.60351562 98.24023438 C-33.40731761 98.61597988 -33.40731761 98.61597988 -35.60351562 100.24023438 C-42.27105843 100.84008252 -47.75605577 100.59941344 -53.60351562 97.24023438 C-55.60351562 94.24023438 -55.60351562 94.24023438 -55.54101562 90.80273438 C-54.44332393 86.63150592 -53.16744826 85.52480658 -49.60351562 83.24023438 C-50.22226562 82.51835938 -50.84101562 81.79648438 -51.47851562 81.05273438 C-56.31716095 74.64864497 -55.97600901 68.53796974 -55.97412109 60.75976562 C-55.97844232 58.77392034 -56.01530933 56.78823167 -56.05273438 54.80273438 C-56.0854241 43.90615998 -54.97898421 33.70141219 -47.60351562 25.24023438 C-48.09722656 24.758125 -48.5909375 24.27601562 -49.09960938 23.77929688 C-49.74027344 23.14765625 -50.3809375 22.51601563 -51.04101562 21.86523438 C-51.99814453 20.92550781 -51.99814453 20.92550781 -52.97460938 19.96679688 C-55.06090814 17.75542024 -55.55578576 16.58229844 -55.97851562 13.55273438 C-55.4879988 9.2198358 -53.94862534 6.0927675 -50.60351562 3.24023438 C-45.3145094 1.41670064 -40.42976668 0.8411818 -34.86132812 0.63085938 C-34.0046756 0.5937384 -33.14802307 0.55661743 -32.26541138 0.51837158 C-21.51479063 0.09604065 -10.75779476 0.0180399 0 0 Z M-20.97851562 3.55273438 C-22.19667969 3.63974609 -22.19667969 3.63974609 -23.43945312 3.72851562 C-26.00719578 4.33568943 -26.85348805 5.33157857 -28.60351562 7.24023438 C-29.26351563 7.24023438 -29.92351563 7.24023438 -30.60351562 7.24023438 C-30.60351562 6.25023437 -30.60351562 5.26023437 -30.60351562 4.24023438 C-38.38297548 4.63615948 -38.38297548 4.63615948 -45.60351562 7.24023438 C-47.91138675 10.06485505 -47.91138675 10.06485505 -47.47851562 13.30273438 C-46.89651012 16.30680769 -46.89651012 16.30680769 -44.72851562 17.67773438 C-42.4415813 18.49095629 -42.4415813 18.49095629 -39.60351562 17.24023438 C-39.60351562 18.56023438 -39.60351562 19.88023438 -39.60351562 21.24023438 C-37.10799078 20.45893366 -37.10799078 20.45893366 -34.60351562 19.24023438 C-34.27351563 18.25023437 -33.94351563 17.26023437 -33.60351562 16.24023438 C-32.98605469 16.335625 -32.36859375 16.43101563 -31.73242188 16.52929688 C-25.77241877 17.30944949 -20.29443536 17.45697076 -14.60351562 15.24023438 C-14.27351563 14.58023437 -13.94351563 13.92023437 -13.60351562 13.24023438 C-11.95351563 13.24023438 -10.30351563 13.24023438 -8.60351562 13.24023438 C-8.10851563 14.23023438 -8.10851563 14.23023438 -7.60351562 15.24023438 C-5.12492923 15.82523417 -5.12492923 15.82523417 -2.22851562 16.05273438 C-1.25140625 16.16230469 -0.27429687 16.271875 0.73242188 16.38476562 C3.93482662 16.21102812 4.3064058 15.49962099 6.39648438 13.24023438 C7.71648437 13.24023438 9.03648438 13.24023438 10.39648438 13.24023438 C10.89148438 14.23023438 10.89148438 14.23023438 11.39648438 15.24023438 C13.98253769 15.70856087 13.98253769 15.70856087 16.95898438 15.86523438 C17.97089844 15.94 18.9828125 16.01476563 20.02539062 16.09179688 C20.80785156 16.14078125 21.5903125 16.18976562 22.39648438 16.24023438 C22.39648438 15.25023437 22.39648438 14.26023437 22.39648438 13.24023438 C24.70648438 13.24023438 27.01648438 13.24023438 29.39648438 13.24023438 C29.39648438 14.89023437 29.39648438 16.54023438 29.39648438 18.24023438 C31.83365696 17.96988804 31.83365696 17.96988804 34.39648438 17.24023438 C35.05648437 16.25023437 35.71648437 15.26023437 36.39648438 14.24023438 C35.07648438 14.24023438 33.75648437 14.24023438 32.39648438 14.24023438 C32.39648438 13.25023437 32.39648438 12.26023437 32.39648438 11.24023438 C33.38648437 10.91023438 34.37648438 10.58023437 35.39648438 10.24023438 C34.07648438 8.92023437 32.75648437 7.60023437 31.39648438 6.24023438 C31.06648438 7.23023438 30.73648438 8.22023438 30.39648438 9.24023438 C29.07648438 9.24023438 27.75648437 9.24023438 26.39648438 9.24023438 C27.05648437 7.92023437 27.71648437 6.60023437 28.39648438 5.24023438 C17.7424355 2.81492244 7.26073289 3.04699675 -3.60351562 3.24023438 C-3.60351562 3.90023438 -3.60351562 4.56023438 -3.60351562 5.24023438 C-4.59351563 5.24023438 -5.58351562 5.24023438 -6.60351562 5.24023438 C-6.60351562 4.58023437 -6.60351562 3.92023437 -6.60351562 3.24023438 C-11.41405122 3.16264509 -16.17879112 3.19981346 -20.97851562 3.55273438 Z M-51.60351562 9.24023438 C-52.28310165 11.63742869 -52.28310165 11.63742869 -52.60351562 14.24023438 C-51.94351563 14.90023438 -51.28351562 15.56023438 -50.60351562 16.24023438 C-50.60351562 13.93023437 -50.60351562 11.62023437 -50.60351562 9.24023438 C-50.93351562 9.24023438 -51.26351562 9.24023438 -51.60351562 9.24023438 Z M39.39648438 10.24023438 C39.39648438 11.89023437 39.39648438 13.54023438 39.39648438 15.24023438 C40.05648437 14.25023437 40.71648437 13.26023437 41.39648438 12.24023438 C40.73648438 11.58023437 40.07648438 10.92023437 39.39648438 10.24023438 Z M-16.60351562 18.24023438 C-16.60351562 21.21023437 -16.60351562 24.18023438 -16.60351562 27.24023438 C-16.27351563 27.24023438 -15.94351563 27.24023438 -15.60351562 27.24023438 C-15.60351562 24.27023438 -15.60351562 21.30023437 -15.60351562 18.24023438 C-15.93351562 18.24023438 -16.26351562 18.24023438 -16.60351562 18.24023438 Z M-12.60351562 18.24023438 C-13.83490963 21.93441639 -13.24784327 24.44586047 -12.60351562 28.24023438 C-10.95351563 28.57023437 -9.30351563 28.90023437 -7.60351562 29.24023438 C-6.40078743 26.83477799 -6.5028009 25.29026485 -6.54101562 22.61523438 C-6.55003906 21.79796875 -6.5590625 20.98070312 -6.56835938 20.13867188 C-6.57996094 19.5121875 -6.5915625 18.88570312 -6.60351562 18.24023438 C-8.58351563 18.24023438 -10.56351563 18.24023438 -12.60351562 18.24023438 Z M-3.60351562 18.24023438 C-3.27351563 21.54023438 -2.94351563 24.84023438 -2.60351562 28.24023438 C-0.62351562 28.73523438 -0.62351562 28.73523438 1.39648438 29.24023438 C3.56676357 27.48149798 3.56676357 27.48149798 3.62695312 25.33007812 C3.9340247 21.47337486 3.9340247 21.47337486 2.39648438 18.24023438 C0.39690074 18.19942655 -1.60396816 18.19769081 -3.60351562 18.24023438 Z M6.39648438 19.24023438 C6.35910156 19.85511719 6.32171875 20.47 6.28320312 21.10351562 C6.21746094 21.91175781 6.15171875 22.72 6.08398438 23.55273438 C6.02597656 24.35324219 5.96796875 25.15375 5.90820312 25.97851562 C5.30116358 28.66153774 4.57499592 29.59607472 2.39648438 31.24023438 C-0.79101562 31.92773438 -0.79101562 31.92773438 -3.60351562 32.24023438 C-0.7961709 34.48650395 -0.7961709 34.48650395 2.33398438 34.36523438 C5.74478969 33.11228548 6.15352869 32.60439522 7.83398438 29.55273438 C9.47682467 25.80056827 9.59406649 23.23217475 8.39648438 19.24023438 C7.73648438 19.24023438 7.07648438 19.24023438 6.39648438 19.24023438 Z M-47.22851562 29.36523438 C-48.89919746 31.25591447 -48.89919746 31.25591447 -48.60351562 34.24023438 C-47.01023437 34.3871875 -47.01023437 34.3871875 -45.38476562 34.53710938 C-30.74264474 36.02710655 -30.74264474 36.02710655 -24.60351562 40.24023438 C-20.51185131 45.38781206 -20.47710797 50.99466008 -20.32226562 57.36914062 C-20.3038562 58.04065659 -20.28544678 58.71217255 -20.26647949 59.40403748 C-20.18831762 62.25870914 -20.12014006 65.11359729 -20.05126953 67.96850586 C-19.99935676 70.06049522 -19.94219477 72.1522966 -19.88476562 74.24414062 C-19.85447266 75.4901001 -19.82417969 76.73605957 -19.79296875 78.01977539 C-19.640468 80.61209168 -19.36456899 82.77489904 -18.60351562 85.24023438 C-15.19736617 85.21896976 -15.19736617 85.21896976 -11.60351562 84.24023438 C-7.30227295 77.93174511 -7.50950693 71.71612377 -8.04101562 64.42773438 C-8.11932617 63.2453418 -8.11932617 63.2453418 -8.19921875 62.0390625 C-8.32810831 60.10571908 -8.46501056 58.17291273 -8.60351562 56.24023438 C-7.61351562 56.57023437 -6.62351563 56.90023437 -5.60351562 57.24023438 C-5.54744141 58.74263672 -5.54744141 58.74263672 -5.49023438 60.27539062 C-5.20840166 72.03804388 -5.20840166 72.03804388 0.89648438 81.67773438 C3.32913034 83.50523385 3.32913034 83.50523385 6.39648438 83.24023438 C7.30934652 78.6340656 7.47559756 74.33701745 7.38867188 69.64648438 C7.37116095 68.18946002 7.35425216 66.73242834 7.33789062 65.27539062 C7.30693972 63.00418387 7.27134422 60.733352 7.22509766 58.46240234 C7.18256095 56.25288328 7.15927251 54.04380256 7.13867188 51.83398438 C7.11659668 50.52107422 7.09452148 49.20816406 7.07177734 47.85546875 C7.42271446 43.94819294 8.4700359 41.61988317 10.39648438 38.24023438 C10.89148438 36.75523438 10.89148438 36.75523438 11.39648438 35.24023438 C18.31563717 32.09638631 26.0487484 31.81906821 33.52539062 31.54882812 C36.52487878 31.53016708 36.52487878 31.53016708 38.39648438 29.24023438 C32.37728477 23.10334093 26.680203 19.68761887 17.98242188 19.06835938 C16.11960802 19.05519461 14.2564766 19.13690147 12.39648438 19.24023438 C12.29851562 19.8925 12.20054688 20.54476563 12.09960938 21.21679688 C11.16810109 26.66130218 10.31863109 31.10607972 6.39648438 35.24023438 C1.97818627 36.44522477 -1.21506172 36.18061736 -5.60351562 35.24023438 C-7.91371707 35.31396421 -10.21232636 35.42654643 -12.51757812 35.59570312 C-14.60351562 35.24023438 -14.60351562 35.24023438 -16.30273438 33.61914062 C-17.88352206 30.72815053 -18.33079971 28.24714699 -18.79101562 24.99023438 C-18.94957031 23.91257812 -19.108125 22.83492187 -19.27148438 21.72460938 C-19.38105469 20.90476562 -19.490625 20.08492187 -19.60351562 19.24023438 C-29.34817876 19.24023438 -39.69436275 23.26615824 -47.22851562 29.36523438 Z M-15.60351562 28.24023438 C-14.60351562 30.24023438 -14.60351562 30.24023438 -14.60351562 30.24023438 Z M-14.60351562 30.24023438 C-14.27351563 31.23023437 -13.94351563 32.22023438 -13.60351562 33.24023438 C-11.62351563 33.24023438 -9.64351562 33.24023438 -7.60351562 33.24023438 C-9.9356571 32.0339543 -12.09993701 31.07476058 -14.60351562 30.24023438 Z M26.33398438 33.99023438 C25.65271484 34.05210938 24.97144531 34.11398438 24.26953125 34.17773438 C18.41966549 34.85207049 14.46859305 36.96091483 10.52148438 41.30273438 C7.05270562 50.36010113 9.76789303 62.66544119 10.39648438 72.24023438 C10.72648437 72.24023438 11.05648437 72.24023438 11.39648438 72.24023438 C11.41106689 71.48403809 11.42564941 70.7278418 11.44067383 69.94873047 C11.51540437 66.5037316 11.61198365 63.05967517 11.70898438 59.61523438 C11.73154297 58.42542969 11.75410156 57.235625 11.77734375 56.00976562 C12.12182999 44.79830437 12.12182999 44.79830437 15.39648438 40.24023438 C22.59865 35.43879062 32.97135567 35.79896891 41.39648438 35.24023438 C41.39648438 34.58023438 41.39648438 33.92023437 41.39648438 33.24023438 C36.32736158 33.16092607 31.37436032 33.4147395 26.33398438 33.99023438 Z M-50.60351562 37.24023438 C-50.60351562 37.90023437 -50.60351562 38.56023438 -50.60351562 39.24023438 C-47.96351562 38.91023438 -45.32351562 38.58023438 -42.60351562 38.24023438 C-42.60351562 37.91023438 -42.60351562 37.58023438 -42.60351562 37.24023438 C-45.24351563 37.24023438 -47.88351563 37.24023438 -50.60351562 37.24023438 Z M-38.60351562 38.24023438 C-36.22124318 39.52299646 -34.10309546 40.38035202 -31.47851562 41.11523438 C-28.60351562 42.24023438 -28.60351562 42.24023438 -27.35351562 44.05273438 C-27.10601562 44.77460937 -26.85851563 45.49648438 -26.60351562 46.24023438 C-26.23226562 47.14773437 -25.86101563 48.05523437 -25.47851562 48.99023438 C-25.18976562 49.73273437 -24.90101562 50.47523437 -24.60351562 51.24023438 C-23.80994761 49.49351849 -23.80994761 49.49351849 -23.60351562 47.24023438 C-25.52574043 42.71735248 -28.30699827 40.51486121 -32.60351562 38.24023438 C-35.85529415 37.90429305 -35.85529415 37.90429305 -38.60351562 38.24023438 Z M29.39648438 38.24023438 C29.06648438 39.23023438 28.73648438 40.22023437 28.39648438 41.24023438 C27.07648438 41.24023438 25.75648437 41.24023438 24.39648438 41.24023438 C24.39648438 41.90023437 24.39648438 42.56023438 24.39648438 43.24023438 C28.11385079 43.58923995 28.11385079 43.58923995 31.20898438 41.74023438 C31.60085937 41.24523438 31.99273437 40.75023437 32.39648438 40.24023438 C32.06648438 39.58023438 31.73648438 38.92023437 31.39648438 38.24023438 C30.73648438 38.24023438 30.07648438 38.24023438 29.39648438 38.24023438 Z M21.39648438 40.24023438 C21.72648437 40.90023437 22.05648437 41.56023438 22.39648438 42.24023438 C22.72648437 41.58023438 23.05648437 40.92023437 23.39648438 40.24023438 C22.73648438 40.24023438 22.07648438 40.24023438 21.39648438 40.24023438 Z M-46.60351562 41.24023438 C-46.60351562 41.90023437 -46.60351562 42.56023438 -46.60351562 43.24023438 C-45.61351562 42.91023438 -44.62351562 42.58023438 -43.60351562 42.24023438 C-44.59351563 41.91023438 -45.58351563 41.58023438 -46.60351562 41.24023438 Z M32.39648438 41.24023438 C32.72648437 42.56023438 33.05648437 43.88023438 33.39648438 45.24023438 C32.07648438 44.91023438 30.75648437 44.58023438 29.39648438 44.24023438 C29.06648438 45.23023438 28.73648438 46.22023438 28.39648438 47.24023438 C33.41903068 47.53567828 36.29190824 47.22538066 40.39648438 44.24023438 C40.06648438 42.92023437 39.73648438 41.60023437 39.39648438 40.24023438 C36.96851127 40.24023438 34.76741433 40.74109123 32.39648438 41.24023438 Z M16.39648438 42.24023438 C16.06648438 43.23023438 15.73648438 44.22023437 15.39648438 45.24023438 C16.38648437 44.91023438 17.37648438 44.58023438 18.39648438 44.24023438 C17.73648438 43.58023438 17.07648438 42.92023437 16.39648438 42.24023438 Z M-37.60351562 44.24023438 C-37.60351562 44.90023437 -37.60351562 45.56023438 -37.60351562 46.24023438 C-36.94351563 45.91023438 -36.28351562 45.58023438 -35.60351562 45.24023438 C-36.26351562 44.91023438 -36.92351563 44.58023438 -37.60351562 44.24023438 Z M23.39648438 44.24023438 C24.39648438 46.24023438 24.39648438 46.24023438 24.39648438 46.24023438 Z M14.39648438 46.24023438 C14.72648437 47.23023438 15.05648437 48.22023437 15.39648438 49.24023438 C16.38648437 48.91023438 17.37648438 48.58023438 18.39648438 48.24023438 C17.07648438 47.58023438 15.75648437 46.92023437 14.39648438 46.24023438 Z M41.39648438 46.24023438 C42.39648438 48.24023438 42.39648438 48.24023438 42.39648438 48.24023438 Z M-45.60351562 46.24023438 C-46.59351563 46.57023437 -47.58351563 46.90023437 -48.60351562 47.24023438 C-48.27351563 47.90023437 -47.94351563 48.56023438 -47.60351562 49.24023438 C-46.28351562 48.58023438 -44.96351562 47.92023437 -43.60351562 47.24023438 C-44.26351562 46.91023438 -44.92351563 46.58023438 -45.60351562 46.24023438 Z M-39.60351562 47.24023438 C-39.60351562 47.90023437 -39.60351562 48.56023438 -39.60351562 49.24023438 C-38.94351563 49.24023438 -38.28351562 49.24023438 -37.60351562 49.24023438 C-37.60351562 48.58023438 -37.60351562 47.92023437 -37.60351562 47.24023438 C-38.26351562 47.24023438 -38.92351563 47.24023438 -39.60351562 47.24023438 Z M-34.60351562 48.24023438 C-32.62351562 49.23023438 -32.62351562 49.23023438 -30.60351562 50.24023438 C-30.27351563 49.58023438 -29.94351562 48.92023437 -29.60351562 48.24023438 C-31.25351562 48.24023438 -32.90351562 48.24023438 -34.60351562 48.24023438 Z M37.39648438 48.24023438 C37.06648438 48.90023437 36.73648438 49.56023438 36.39648438 50.24023438 C37.38648437 50.24023438 38.37648438 50.24023438 39.39648438 50.24023438 C39.39648438 49.58023438 39.39648438 48.92023437 39.39648438 48.24023438 C38.73648438 48.24023438 38.07648438 48.24023438 37.39648438 48.24023438 Z M40.39648438 48.24023438 C41.39648438 50.24023438 41.39648438 50.24023438 41.39648438 50.24023438 Z M18.39648438 50.24023438 C15.82506673 55.34371123 14.73069655 59.95957685 14.14648438 65.61523438 C14.02200928 66.73079712 14.02200928 66.73079712 13.89501953 67.86889648 C13.36160383 73.16429121 13.44053754 77.98252681 14.39648438 83.24023438 C23.76974282 80.37618318 32.2756993 77.33031552 38.39648438 69.24023438 C39.11141096 67.11547554 39.11141096 67.11547554 39.39648438 65.24023438 C38.38585937 65.73523438 37.37523437 66.23023437 36.33398438 66.74023438 C31.57533542 68.78654995 27.32498878 68.88306918 22.39648438 67.24023438 C20.96791295 58.6688058 20.96791295 58.6688058 23.39648438 55.24023438 C24.05648437 55.24023438 24.71648437 55.24023438 25.39648438 55.24023438 C25.39648438 56.56023438 25.39648438 57.88023438 25.39648438 59.24023438 C28.36648437 59.73523438 28.36648437 59.73523438 31.39648438 60.24023438 C32.05648437 58.59023437 32.71648437 56.94023438 33.39648438 55.24023438 C31.1306258 51.705495 30.04773556 50.40304717 25.89648438 49.36523438 C21.93717834 49.01772998 21.93717834 49.01772998 18.39648438 50.24023438 Z M-48.60351562 51.24023438 C-48.60351562 51.90023437 -48.60351562 52.56023438 -48.60351562 53.24023438 C-47.28351562 53.24023438 -45.96351562 53.24023438 -44.60351562 53.24023438 C-44.60351562 52.58023438 -44.60351562 51.92023437 -44.60351562 51.24023438 C-45.92351563 51.24023438 -47.24351563 51.24023438 -48.60351562 51.24023438 Z M-42.60351562 54.24023438 C-44.64213096 57.403603 -45.69015885 59.26549808 -45.35351562 63.05273438 C-44.79960239 65.19066523 -44.79960239 65.19066523 -43.60351562 66.24023438 C-41.93734447 66.2808727 -40.26963468 66.28295538 -38.60351562 66.24023438 C-37.9239296 63.84304006 -37.9239296 63.84304006 -37.60351562 61.24023438 C-38.26351562 60.58023438 -38.92351563 59.92023438 -39.60351562 59.24023438 C-36.55964838 59.15796769 -34.53176214 59.2641522 -31.60351562 60.24023438 C-30.62429462 64.3203219 -30.323332 66.57798217 -31.97851562 70.49023438 C-35.43076278 74.10687425 -38.66272026 75.55217059 -43.60351562 76.24023438 C-46.22730043 75.90986731 -48.12391937 75.24262435 -50.60351562 74.24023438 C-49.31223152 78.2216937 -48.16120289 80.03984964 -44.60351562 82.24023438 C-41.5158356 83.24637371 -41.5158356 83.24637371 -38.16601562 83.92773438 C-36.49732422 84.30478516 -36.49732422 84.30478516 -34.79492188 84.68945312 C-31.97552599 85.17603185 -29.45352509 85.35210391 -26.60351562 85.24023438 C-26.67570312 84.28503906 -26.74789062 83.32984375 -26.82226562 82.34570312 C-26.91507813 81.05277344 -27.00789063 79.75984375 -27.10351562 78.42773438 C-27.15266113 77.74718994 -27.20180664 77.06664551 -27.25244141 76.36547852 C-27.52782134 72.28131583 -27.60296657 68.27330168 -27.47851562 64.17773438 C-27.42661399 59.82448437 -28.0861362 56.91948122 -30.60351562 53.24023438 C-34.53653996 51.27372221 -39.10176457 51.58373357 -42.60351562 54.24023438 Z M-49.60351562 53.24023438 C-49.57257812 54.38492188 -49.57257812 54.38492188 -49.54101562 55.55273438 C-49.60351562 58.24023438 -49.60351562 58.24023438 -50.60351562 61.24023438 C-49.94351563 61.24023438 -49.28351562 61.24023438 -48.60351562 61.24023438 C-47.94351563 59.26023437 -47.28351562 57.28023437 -46.60351562 55.24023438 C-47.26351562 55.24023438 -47.92351563 55.24023438 -48.60351562 55.24023438 C-48.93351562 54.58023438 -49.26351562 53.92023437 -49.60351562 53.24023438 Z M-23.60351562 53.24023438 C-23.93351562 56.21023437 -24.26351562 59.18023437 -24.60351562 62.24023438 C-23.94351563 62.24023438 -23.28351562 62.24023438 -22.60351562 62.24023438 C-22.60351562 59.27023438 -22.60351562 56.30023438 -22.60351562 53.24023438 C-22.93351562 53.24023438 -23.26351562 53.24023438 -23.60351562 53.24023438 Z M24.39648438 62.24023438 C24.72648437 63.23023438 25.05648437 64.22023437 25.39648438 65.24023438 C25.39648438 64.25023438 25.39648438 63.26023438 25.39648438 62.24023438 C25.06648438 62.24023438 24.73648438 62.24023438 24.39648438 62.24023438 Z M-24.60351562 63.24023438 C-23.60351562 65.24023438 -23.60351562 65.24023438 -23.60351562 65.24023438 Z M31.39648438 63.24023438 C32.39648438 65.24023438 32.39648438 65.24023438 32.39648438 65.24023438 Z M-49.60351562 64.24023438 C-49.93351562 64.90023437 -50.26351562 65.56023437 -50.60351562 66.24023438 C-49.61351562 65.91023438 -48.62351562 65.58023438 -47.60351562 65.24023438 C-48.26351562 64.91023438 -48.92351563 64.58023438 -49.60351562 64.24023438 Z M-47.60351562 66.24023438 C-48.26351562 67.56023437 -48.92351563 68.88023438 -49.60351562 70.24023438 C-48.61351562 69.91023438 -47.62351562 69.58023438 -46.60351562 69.24023438 C-46.93351562 68.25023438 -47.26351562 67.26023437 -47.60351562 66.24023438 Z M-24.60351562 68.24023438 C-24.60351562 71.54023437 -24.60351562 74.84023437 -24.60351562 78.24023438 C-23.94351563 78.24023438 -23.28351562 78.24023438 -22.60351562 78.24023438 C-22.93351562 74.94023438 -23.26351562 71.64023438 -23.60351562 68.24023438 C-23.93351562 68.24023438 -24.26351562 68.24023438 -24.60351562 68.24023438 Z M-39.60351562 69.24023438 C-40.26351562 70.56023437 -40.92351563 71.88023438 -41.60351562 73.24023438 C-40.28351562 72.58023438 -38.96351562 71.92023438 -37.60351562 71.24023438 C-38.26351562 70.58023438 -38.92351563 69.92023438 -39.60351562 69.24023438 Z M-45.60351562 70.24023438 C-45.60351562 71.23023437 -45.60351562 72.22023438 -45.60351562 73.24023438 C-44.61351562 72.91023438 -43.62351562 72.58023438 -42.60351562 72.24023438 C-42.93351562 71.58023438 -43.26351562 70.92023438 -43.60351562 70.24023438 C-44.26351562 70.24023438 -44.92351563 70.24023438 -45.60351562 70.24023438 Z M-23.60351562 79.24023438 C-23.60351562 81.22023438 -23.60351562 83.20023437 -23.60351562 85.24023438 C-23.27351563 85.24023438 -22.94351563 85.24023438 -22.60351562 85.24023438 C-22.60351562 83.26023437 -22.60351562 81.28023438 -22.60351562 79.24023438 C-22.93351562 79.24023438 -23.26351562 79.24023438 -23.60351562 79.24023438 Z M-5.60351562 80.24023438 C-6.96528144 82.22098465 -8.29944678 84.22103101 -9.60351562 86.24023438 C-6.30351563 86.24023438 -3.00351562 86.24023438 0.39648438 86.24023438 C-1.24521091 84.21968634 -2.91263341 82.2198038 -4.60351562 80.24023438 C-4.93351562 80.24023438 -5.26351562 80.24023438 -5.60351562 80.24023438 Z M10.39648438 82.24023438 C11.39648438 84.24023438 11.39648438 84.24023438 11.39648438 84.24023438 Z M27.39648438 84.24023438 C27.39648438 86.88023438 27.39648438 89.52023438 27.39648438 92.24023438 C29.04648438 91.91023438 30.69648437 91.58023438 32.39648438 91.24023438 C32.72648437 90.25023438 33.05648437 89.26023437 33.39648438 88.24023438 C32.10683261 86.86460583 30.76959145 85.53257045 29.39648438 84.24023438 C28.73648438 84.24023438 28.07648438 84.24023438 27.39648438 84.24023438 Z M34.39648438 84.24023438 C34.73679687 85.87992187 34.73679687 85.87992187 35.08398438 87.55273438 C35.39648438 91.24023438 35.39648438 91.24023438 34.33398438 93.11523438 C31.7500881 94.61556125 29.34268185 94.9128791 26.39648438 95.24023438 C27.05648437 95.90023437 27.71648437 96.56023437 28.39648438 97.24023438 C30.52713275 97.11571497 30.52713275 97.11571497 32.83398438 96.49023438 C33.61644531 96.30976562 34.39890625 96.12929687 35.20507812 95.94335938 C37.64952486 95.26941152 37.64952486 95.26941152 40.39648438 93.24023438 C40.9805057 90.82605565 40.9805057 90.82605565 40.39648438 88.24023438 C38.62522258 85.88501213 38.62522258 85.88501213 36.39648438 84.24023438 C35.73648438 84.24023438 35.07648438 84.24023438 34.39648438 84.24023438 Z M17.64648438 85.61523438 C0.57249216 90.25777607 -16.16232192 89.43571399 -33.60351562 88.24023438 C-33.25353548 91.87997322 -33.25353548 91.87997322 -31.00195312 94.56835938 C-25.58663563 97.03556966 -20.61197902 99.20038227 -14.66601562 97.30273438 C-13.98539063 96.95210937 -13.30476563 96.60148437 -12.60351562 96.24023438 C-14.39009319 94.02653387 -14.39009319 94.02653387 -16.76757812 94.04492188 C-17.5796875 94.068125 -18.39179687 94.09132813 -19.22851562 94.11523438 C-20.45441406 94.14230469 -20.45441406 94.14230469 -21.70507812 94.16992188 C-22.64480469 94.20472656 -22.64480469 94.20472656 -23.60351562 94.24023438 C-22.38085938 92.70117188 -22.38085938 92.70117188 -20.60351562 91.24023438 C-16.61948052 91.31360519 -12.71636237 92.39716866 -9.54101562 94.80273438 C-6.49101265 97.06563981 -3.3100361 97.74281342 0.39648438 97.24023438 C2.33488005 95.85506274 3.90493967 94.29427908 5.58789062 92.61132812 C8.74559494 90.21747453 11.57988329 90.83848689 15.39648438 91.24023438 C15.89148438 92.23023437 15.89148438 92.23023437 16.39648438 93.24023438 C14.08648437 93.24023438 11.77648437 93.24023438 9.39648438 93.24023438 C9.06648438 94.23023437 8.73648438 95.22023438 8.39648438 96.24023438 C13.64063156 96.55488321 16.93587857 96.07880171 21.39648438 93.24023438 C23.41756614 91.49179488 23.41756614 91.49179488 24.39648438 89.24023438 C24.17450625 86.54177548 24.17450625 86.54177548 23.39648438 84.24023438 C21.44568049 84.24023438 19.50070706 85.07397284 17.64648438 85.61523438 Z M-49.60351562 87.24023438 C-51.24818302 89.70350149 -51.24818302 89.70350149 -52.60351562 92.24023438 C-49.84128614 95.30937825 -47.63351952 97.18475716 -43.60351562 98.24023438 C-40.37523326 97.93935722 -40.37523326 97.93935722 -37.60351562 97.24023438 C-37.60351562 96.91023438 -37.60351562 96.58023438 -37.60351562 96.24023438 C-42.05851562 95.25023438 -42.05851562 95.25023438 -46.60351562 94.24023438 C-47.60351562 89.49023438 -47.60351562 89.49023438 -47.60351562 87.24023438 C-48.26351562 87.24023438 -48.92351563 87.24023438 -49.60351562 87.24023438 Z M-45.60351562 89.24023438 C-45.27351563 90.56023437 -44.94351563 91.88023438 -44.60351562 93.24023438 C-41.68699388 93.40704547 -41.68699388 93.40704547 -38.60351562 93.24023438 C-37.94351563 92.58023438 -37.28351562 91.92023438 -36.60351562 91.24023438 C-36.60351562 89.92023438 -36.60351562 88.60023437 -36.60351562 87.24023438 C-41.39324773 87.00595124 -41.39324773 87.00595124 -45.60351562 89.24023438 Z " fill="#000000" transform="translate(59.603515625,5.759765625)"/>
<path d="M0 0 C0.38218767 1.65614657 0.71395102 3.32457024 1 5 C0 6 0 6 -2.4375 6.1875 C-5 6 -5 6 -7 4 C-7 2.68 -7 1.36 -7 0 C-4.3333581 -1.33332095 -2.83319697 -0.67102033 0 0 Z " fill="#000000" transform="translate(23,15)"/>
<path d="M0 0 C1.65 0 3.3 0 5 0 C5.33 1.65 5.66 3.3 6 5 C4.1875 5.625 4.1875 5.625 2 6 C1.01 5.34 0.02 4.68 -1 4 C-0.67 2.68 -0.34 1.36 0 0 Z " fill="#000000" transform="translate(72,11)"/>
<path d="M0 0 C1.65 0.33 3.3 0.66 5 1 C5.33 2.32 5.66 3.64 6 5 C1.25 6.125 1.25 6.125 -1 5 C-0.67 3.35 -0.34 1.7 0 0 Z " fill="#000000" transform="translate(44,11)"/>
<path d="M0 0 C1.32 0.33 2.64 0.66 4 1 C4 1.99 4 2.98 4 4 C0.25 5.125 0.25 5.125 -2 4 C-1.34 2.68 -0.68 1.36 0 0 Z " fill="#000000" transform="translate(61,12)"/>
<path d="M0 0 C1.65 0 3.3 0 5 0 C5 1.32 5 2.64 5 4 C3.35 3.67 1.7 3.34 0 3 C0 2.01 0 1.02 0 0 Z " fill="#000000" transform="translate(34,16)"/>
<path d="M0 0 C1.32 0.33 2.64 0.66 4 1 C3.67 1.99 3.34 2.98 3 4 C2.01 4 1.02 4 0 4 C0 2.68 0 1.36 0 0 Z " fill="#000000" transform="translate(52,53)"/>
<path d="M0 0 C1.32 0 2.64 0 4 0 C3.67 0.99 3.34 1.98 3 3 C2.01 3 1.02 3 0 3 C0 2.01 0 1.02 0 0 Z " fill="#000000" transform="translate(95,48)"/>
<path d="M0 0 C0.99 0 1.98 0 3 0 C3 0.99 3 1.98 3 3 C2.01 2.67 1.02 2.34 0 2 C0 1.34 0 0.68 0 0 Z " fill="#000000" transform="translate(52,47)"/>
</svg>
