<?xml version="1.0" encoding="UTF-8"?>
<!DOCTYPE svg PUBLIC "-//W3C//DTD SVG 1.1//EN" "http://www.w3.org/Graphics/SVG/1.1/DTD/svg11.dtd">
<svg xmlns="http://www.w3.org/2000/svg" version="1.1" width="110px" height="110px" style="shape-rendering:geometricPrecision; text-rendering:geometricPrecision; image-rendering:optimizeQuality; fill-rule:evenodd; clip-rule:evenodd" xmlns:xlink="http://www.w3.org/1999/xlink">
<g><path style="opacity:0.762" fill="#000000" d="M 31.5,4.5 C 49.1698,4.33339 66.8365,4.50006 84.5,5C 91.4762,7.20168 97.6428,10.7017 103,15.5C 108.307,28.056 104.474,36.556 91.5,41C 102.837,49.5052 107.004,60.6718 104,74.5C 102.111,77.1116 100.611,79.9449 99.5,83C 105.771,87.9122 106.104,93.2455 100.5,99C 97.326,100.725 93.9927,102.058 90.5,103C 67.8553,104.523 45.1886,104.857 22.5,104C 17.4007,103.25 12.5673,101.75 8,99.5C 5.58118,94.097 6.41451,89.2636 10.5,85C 8.88006,82.2616 7.38006,79.4282 6,76.5C 5.33333,69.1667 5.33333,61.8333 6,54.5C 8.47423,48.0257 12.9742,43.5257 19.5,41C 6.7264,35.9594 2.89307,27.126 8,14.5C 15.1188,9.29977 22.9521,5.96644 31.5,4.5 Z M 44.5,7.5 C 45.209,6.59603 46.209,6.26269 47.5,6.5C 47.75,9.21398 47.9167,11.8806 48,14.5C 46.7874,12.0748 45.6207,9.74145 44.5,7.5 Z M 49.5,7.5 C 52.9447,7.19431 56.6113,7.19431 60.5,7.5C 60.0074,9.80562 59.6741,12.139 59.5,14.5C 56.8333,14.5 54.1667,14.5 51.5,14.5C 51.2785,11.9327 50.6118,9.59937 49.5,7.5 Z M 80.5,8.5 C 81.552,8.35055 82.552,8.51722 83.5,9C 80.9426,11.8922 78.776,15.0589 77,18.5C 77.2909,14.9063 78.4575,11.5729 80.5,8.5 Z M 23.5,9.5 C 24.675,9.28099 25.675,9.61432 26.5,10.5C 28.5766,13.6245 29.7433,16.9578 30,20.5C 29.2825,21.4506 28.4491,21.6172 27.5,21C 22.8709,14.4713 17.7042,13.9713 12,19.5C 9.59347,31.4416 13.5935,34.4416 24,28.5C 24.7625,31.4695 26.2625,33.9695 28.5,36C 27.0001,37.1145 25.3334,37.9479 23.5,38.5C 11.8535,35.841 7.35351,28.841 10,17.5C 13.9648,13.8035 18.4648,11.1369 23.5,9.5 Z M 95.5,14.5 C 90.569,14.2027 85.9023,14.7027 81.5,16C 85.1238,8.5346 89.7905,8.0346 95.5,14.5 Z M 31.5,13.5 C 33.3769,14.6591 33.8769,16.3258 33,18.5C 32.3923,16.8455 31.8923,15.1789 31.5,13.5 Z M 90.5,16.5 C 97.68,17.8741 99.3467,21.7074 95.5,28C 94.1667,28.6667 92.8333,28.6667 91.5,28C 95.7704,26.3652 96.4371,23.8652 93.5,20.5C 90.4887,19.459 87.4887,19.2923 84.5,20C 86.2573,18.2505 88.2573,17.0838 90.5,16.5 Z M 44.5,17.5 C 51.5438,17.8456 58.8771,18.0123 66.5,18C 71.4733,19.237 75.9733,21.4037 80,24.5C 80.7826,29.5596 78.6159,32.5596 73.5,33.5C 66.7107,32.2044 59.8773,31.2044 53,30.5C 45.8426,32.086 38.6759,33.2527 31.5,34C 27.6634,30.7713 27.4968,27.2713 31,23.5C 31.8333,22.6667 32.6667,21.8333 33.5,21C 37.2541,19.6912 40.9207,18.5246 44.5,17.5 Z M 80.5,17.5 C 81.5983,18.6009 81.765,19.9343 81,21.5C 79.4894,20.436 79.3228,19.1026 80.5,17.5 Z M 99.5,17.5 C 101.445,19.3069 102.445,21.6402 102.5,24.5C 101.859,27.9491 100.526,31.1158 98.5,34C 95.2852,35.7743 91.9518,37.2743 88.5,38.5C 85.4902,37.1644 82.4902,35.8311 79.5,34.5C 82.4135,31.6784 84.5802,28.3451 86,24.5C 91.1861,21.676 91.6861,22.3427 87.5,26.5C 89.6579,32.3859 93.3246,33.5526 98.5,30C 100.84,26.0865 101.173,21.9198 99.5,17.5 Z M 16.5,19.5 C 19.4822,19.1044 22.1489,19.7711 24.5,21.5C 19.955,21.7128 17.2884,24.0462 16.5,28.5C 15.1667,27.8333 14.1667,26.8333 13.5,25.5C 14.1286,23.2592 15.1286,21.2592 16.5,19.5 Z M 21.5,26.5 C 22.0768,25.2267 22.7435,25.2267 23.5,26.5C 23.0302,27.463 22.3635,27.463 21.5,26.5 Z M 87.5,86.5 C 89.3055,80.2766 90.6388,73.9432 91.5,67.5C 91.5452,61.7979 89.5452,56.9645 85.5,53C 66.9646,41.0816 47.6313,39.7483 27.5,49C 18.5812,56.4826 15.4146,65.9826 18,77.5C 18.5362,81.4508 20.0362,84.9508 22.5,88C 22.1667,88.1667 21.8333,88.3333 21.5,88.5C 9.29134,80.7326 5.12467,69.7326 9,55.5C 11.1145,51.052 14.2811,47.552 18.5,45C 38.4116,34.4258 59.0783,32.4258 80.5,39C 95.1096,45.074 101.943,55.9073 101,71.5C 98.8677,75.9105 96.3677,80.0771 93.5,84C 91.5932,85.122 89.5932,85.9553 87.5,86.5 Z M 44.5,47.5 C 45.2506,46.4265 46.2506,46.2599 47.5,47C 46.6634,48.0113 46.33,49.1779 46.5,50.5C 43.001,50.741 42.6677,49.9076 45.5,48C 45.2716,47.6012 44.9382,47.4346 44.5,47.5 Z M 67.5,47.5 C 71.2996,49.2336 74.9663,51.2336 78.5,53.5C 69.1914,65.976 59.6914,78.3093 50,90.5C 48.1781,92.0454 46.0114,92.712 43.5,92.5C 39.4182,92.2979 35.4182,91.6313 31.5,90.5C 42.794,75.5807 54.794,61.2474 67.5,47.5 Z M 40.5,51.5 C 38.3141,51.4894 37.4808,50.4894 38,48.5C 39.045,49.3734 39.8783,50.3734 40.5,51.5 Z M 33.5,49.5 C 37.6567,53.4064 41.9901,57.0731 46.5,60.5C 44.1377,63.192 41.8044,65.8587 39.5,68.5C 34.2844,65.0657 29.2844,61.399 24.5,57.5C 26.5103,53.6704 29.5103,51.0037 33.5,49.5 Z M 51.5,54.5 C 51.5,53.5 51.5,52.5 51.5,51.5C 50.448,51.6495 49.448,51.4828 48.5,51C 50.7055,50.2681 52.3722,50.9348 53.5,53C 52.9558,53.7172 52.2891,54.2172 51.5,54.5 Z M 40.5,51.5 C 42.0269,51.427 43.0269,52.0937 43.5,53.5C 41.9731,53.573 40.9731,52.9063 40.5,51.5 Z M 57.5,53.5 C 56.5265,56.135 54.8598,58.135 52.5,59.5C 53.4431,56.8908 55.1097,54.8908 57.5,53.5 Z M 44.5,54.5 C 46.0269,54.427 47.0269,55.0937 47.5,56.5C 45.9731,56.573 44.9731,55.9063 44.5,54.5 Z M 84.5,62.5 C 84.8212,64.0481 85.8212,64.7148 87.5,64.5C 87.7989,66.604 87.4656,68.604 86.5,70.5C 84.1614,71.4177 82.6614,73.0844 82,75.5C 80.8595,73.9222 80.3595,72.2555 80.5,70.5C 81.1667,69.8333 81.8333,69.1667 82.5,68.5C 82.1667,68.1667 81.8333,67.8333 81.5,67.5C 80.1482,68.5244 78.8149,69.5244 77.5,70.5C 77.7593,66.9319 79.7593,65.5985 83.5,66.5C 83.5,65.5 83.5,64.5 83.5,63.5C 80.6592,63.5597 77.9925,64.2264 75.5,65.5C 75.5482,62.3648 77.2148,60.6981 80.5,60.5C 79.8333,59.8333 79.1667,59.1667 78.5,58.5C 78.8333,58.1667 79.1667,57.8333 79.5,57.5C 81.1349,58.3302 82.8016,58.4969 84.5,58C 86.6885,59.8482 86.6885,61.3482 84.5,62.5 Z M 22.5,62.5 C 22.9473,60.0268 23.9473,59.8601 25.5,62C 24.552,62.4828 23.552,62.6495 22.5,62.5 Z M 50.5,61.5 C 46.9713,66.5481 42.9713,71.2148 38.5,75.5C 41.5549,70.0797 45.5549,65.413 50.5,61.5 Z M 22.5,62.5 C 22.5,63.5 22.5,64.5 22.5,65.5C 30.8735,66.0535 33.0401,70.0535 29,77.5C 28.5172,76.552 28.3505,75.552 28.5,74.5C 26.7839,74.3713 25.1172,74.038 23.5,73.5C 23.5,72.5 23.5,71.5 23.5,70.5C 20.5192,70.456 20.1858,70.1227 22.5,69.5C 24.4552,70.4533 26.1218,71.7866 27.5,73.5C 27.8333,72.1667 28.1667,70.8333 28.5,69.5C 26.9706,68.7161 25.3039,67.7161 23.5,66.5C 22.5224,66.9767 21.6891,67.6433 21,68.5C 20.8794,66.3157 21.3794,64.3157 22.5,62.5 Z M 75.5,65.5 C 75.4142,66.4959 75.7476,67.3292 76.5,68C 73.9534,70.3612 73.1201,69.8612 74,66.5C 74.3826,65.944 74.8826,65.6107 75.5,65.5 Z M 31.5,67.5 C 33.337,67.6395 33.6704,68.3061 32.5,69.5C 31.7025,69.0431 31.3691,68.3764 31.5,67.5 Z M 74.5,74.5 C 72.2433,74.0383 70.2433,73.0383 68.5,71.5C 68.8333,71.1667 69.1667,70.8333 69.5,70.5C 71.4192,71.6125 73.0858,72.9458 74.5,74.5 Z M 23.5,73.5 C 22.0886,77.2965 21.0886,77.2965 20.5,73.5C 21.5,73.5 22.5,73.5 23.5,73.5 Z M 32.5,74.5 C 35.0009,74.5109 35.1676,75.1776 33,76.5C 32.5357,75.9056 32.369,75.2389 32.5,74.5 Z M 65.5,74.5 C 70.5897,76.2115 75.2564,78.7115 79.5,82C 80.9247,83.3619 81.758,84.8619 82,86.5C 79.9302,88.7868 77.4302,90.4534 74.5,91.5C 69.0909,89.1358 64.4243,85.8025 60.5,81.5C 62.6049,79.4084 64.2716,77.0751 65.5,74.5 Z M 74.5,74.5 C 78.2877,75.8985 81.6211,78.0651 84.5,81C 80.5715,79.9331 77.2381,77.7664 74.5,74.5 Z M 23.5,78.5 C 24.7944,75.2857 26.1277,75.119 27.5,78C 26.2068,78.49 24.8734,78.6567 23.5,78.5 Z M 37.5,76.5 C 37.2624,78.4044 36.2624,79.7377 34.5,80.5C 34.7376,78.5956 35.7376,77.2623 37.5,76.5 Z M 23.5,78.5 C 23.5408,82.2434 22.8741,82.4101 21.5,79C 22.0944,78.5357 22.7611,78.369 23.5,78.5 Z M 25.5,84.5 C 26.0768,83.2267 26.7435,83.2267 27.5,84.5C 27.0302,85.463 26.3635,85.463 25.5,84.5 Z M 99.5,94.5 C 98.8744,89.3521 96.541,88.3521 92.5,91.5C 91.4317,94.7875 92.7651,96.4542 96.5,96.5C 94.2388,98.255 91.5722,99.4216 88.5,100C 82.7708,100.874 77.1041,101.041 71.5,100.5C 71.0338,98.7988 71.0338,97.2988 71.5,96C 80.4909,94.5022 88.8242,91.3355 96.5,86.5C 101.542,87.9675 102.542,90.6341 99.5,94.5 Z M 12.5,87.5 C 21.9819,92.9568 32.3152,95.7901 43.5,96C 42.5939,97.6995 42.2606,99.5328 42.5,101.5C 31.9932,101.759 21.6599,100.592 11.5,98C 8.63975,94.1508 8.97309,90.6508 12.5,87.5 Z M 64.5,90.5 C 62.1667,91.8333 59.8333,91.8333 57.5,90.5C 57.9114,88.228 59.078,87.8947 61,89.5C 62.7232,86.8282 63.8899,87.1615 64.5,90.5 Z M 57.5,90.5 C 58.8856,92.7605 58.2189,93.5938 55.5,93C 56.0659,92.0053 56.7326,91.172 57.5,90.5 Z M 64.5,90.5 C 66.6456,90.6964 66.8122,91.6964 65,93.5C 64.5172,92.552 64.3505,91.552 64.5,90.5 Z M 45.5,96.5 C 46.6491,96.7911 47.3158,97.6244 47.5,99C 47.1667,99.8333 46.8333,100.667 46.5,101.5C 45.5481,99.9547 45.2148,98.288 45.5,96.5 Z M 50.5,96.5 C 54.5138,96.3345 58.5138,96.5012 62.5,97C 63.3802,98.3561 63.7135,99.8561 63.5,101.5C 59.1667,101.5 54.8333,101.5 50.5,101.5C 50.5,99.8333 50.5,98.1667 50.5,96.5 Z M 66.5,96.5 C 67.914,98.0439 68.2474,99.7106 67.5,101.5C 66.5481,99.9547 66.2148,98.288 66.5,96.5 Z"/></g>
<g><path style="opacity:0.692" fill="#000000" d="M 66.5,22.5 C 71.3276,22.3852 72.6609,24.5519 70.5,29C 64.3389,29.878 63.0055,27.7113 66.5,22.5 Z"/></g>
<g><path style="opacity:0.667" fill="#000000" d="M 40.5,23.5 C 42.8444,23.5062 44.1777,24.6729 44.5,27C 42.3447,31.4547 40.0114,31.4547 37.5,27C 38.0707,25.4009 39.0707,24.2342 40.5,23.5 Z"/></g>
<g><path style="opacity:0.455" fill="#000000" d="M 84.5,62.5 C 81.0429,62.3328 80.7096,61.3328 83.5,59.5C 84.3857,60.325 84.719,61.325 84.5,62.5 Z"/></g>
<g><path style="opacity:0.689" fill="#000000" d="M 84.5,66.5 C 86.4646,66.9483 86.7979,67.9483 85.5,69.5C 83.4807,68.8671 83.1474,67.8671 84.5,66.5 Z"/></g>
<g><path style="opacity:0.735" fill="#000000" d="M 99.5,94.5 C 98.8333,94.5 98.5,94.8333 98.5,95.5C 97.5084,95.3284 96.8417,95.6618 96.5,96.5C 92.7651,96.4542 91.4317,94.7875 92.5,91.5C 96.541,88.3521 98.8744,89.3521 99.5,94.5 Z"/></g>
<g><path style="opacity:0.812" fill="#000000" d="M 14.5,92.5 C 19.1225,91.4082 20.9558,93.0748 20,97.5C 15.0792,99.077 13.2459,97.4103 14.5,92.5 Z"/></g>
</svg>
