<?xml version="1.0" encoding="UTF-8"?>
<svg version="1.1" xmlns="http://www.w3.org/2000/svg" width="110" height="110">
<path d="M0 0 C2.43406411 -0.02152177 4.86805206 -0.05555443 7.30175781 -0.10253906 C36.68215782 -0.66347753 36.68215782 -0.66347753 46.78881836 8.27734375 C51.20007412 13.16102995 52.0320808 16.51403431 51.94970703 22.8659668 C51.53859884 26.62963332 50.18949968 28.62293117 47.67236328 31.4050293 C44.60986328 33.6550293 44.60986328 33.6550293 41.67236328 35.4050293 C40.68236328 36.0650293 39.69236328 36.7250293 38.67236328 37.4050293 C39.42001953 37.93999023 40.16767578 38.47495117 40.93798828 39.02612305 C43.92268103 41.62280574 45.49578205 44.02781458 47.42236328 47.4675293 C48.31181641 49.03180664 48.31181641 49.03180664 49.21923828 50.62768555 C52.61058368 57.10953119 52.26841753 63.48900507 50.38330078 70.3737793 C49.14800217 73.90320389 47.4366437 77.11170584 45.67236328 80.4050293 C46.63142578 80.8690918 46.63142578 80.8690918 47.60986328 81.3425293 C49.67236328 82.4050293 49.67236328 82.4050293 50.67236328 83.4050293 C51.0369579 87.1968133 51.04799547 89.67083911 49.29736328 93.0925293 C39.20002612 101.98780251 24.282011 100.5605341 11.67236328 100.6081543 C9.87605469 100.61670441 9.87605469 100.61670441 8.04345703 100.62542725 C5.52914292 100.6348084 3.0148169 100.64138354 0.50048828 100.64526367 C-3.31743888 100.65500328 -7.13483459 100.68610706 -10.95263672 100.7175293 C-13.4109669 100.72405803 -15.86930088 100.72930901 -18.32763672 100.7331543 C-19.45298828 100.7455011 -20.57833984 100.7578479 -21.73779297 100.77056885 C-39.26785494 100.72192502 -39.26785494 100.72192502 -45.64013672 95.51568604 C-47.32763672 93.4050293 -47.32763672 93.4050293 -47.76513672 89.9050293 C-47.30430493 86.21837495 -46.54840771 85.20513185 -44.32763672 82.4050293 C-44.50602016 79.72927763 -45.43212896 78.23816159 -46.85888672 75.9597168 C-48.88775438 71.04942537 -48.76540257 66.66341256 -48.70263672 61.4050293 C-48.71423828 60.43307617 -48.72583984 59.46112305 -48.73779297 58.4597168 C-48.71572339 53.0600259 -48.50966219 48.97444549 -45.32763672 44.4050293 C-42.84716797 42.0690918 -42.84716797 42.0690918 -40.14013672 40.0300293 C-39.23908203 39.34166992 -38.33802734 38.65331055 -37.40966797 37.9440918 C-36.72259766 37.43620117 -36.03552734 36.92831055 -35.32763672 36.4050293 C-35.85873047 36.10209961 -36.38982422 35.79916992 -36.93701172 35.48706055 C-41.77438574 32.61817997 -45.90066136 29.9724677 -48.07763672 24.5300293 C-48.76740618 18.66698886 -48.78012397 14.36797973 -45.32763672 9.4050293 C-32.53686913 -1.19389315 -15.57788064 0.10332374 0 0 Z M-9.32763672 2.4050293 C-8.33763672 5.0450293 -7.34763672 7.6850293 -6.32763672 10.4050293 C-5.23104736 7.11526122 -5.52810534 5.69199163 -6.32763672 2.4050293 C-7.31763672 2.4050293 -8.30763672 2.4050293 -9.32763672 2.4050293 Z M-4.32763672 2.4050293 C-3.66763672 5.0450293 -3.00763672 7.6850293 -2.32763672 10.4050293 C0.31236328 10.4050293 2.95236328 10.4050293 5.67236328 10.4050293 C6.00236328 8.0950293 6.33236328 5.7850293 6.67236328 3.4050293 C3.04236328 3.0750293 -0.58763672 2.7450293 -4.32763672 2.4050293 Z M26.67236328 4.4050293 C25.99173828 5.4981543 25.31111328 6.5912793 24.60986328 7.7175293 C24.03558594 8.63985352 24.03558594 8.63985352 23.44970703 9.58081055 C22.36124254 11.57636005 22.36124254 11.57636005 23.67236328 14.4050293 C25.65236328 11.1050293 27.63236328 7.8050293 29.67236328 4.4050293 C28.68236328 4.4050293 27.69236328 4.4050293 26.67236328 4.4050293 Z M-42.89013672 11.3425293 C-45.02352713 14.40348075 -45.53204305 16.60917369 -45.10888672 20.3269043 C-44.12554184 25.35709156 -42.54598504 28.26370608 -38.32763672 31.4050293 C-35.3981007 32.7965589 -32.55372379 33.98373349 -29.32763672 34.4050293 C-28.00763672 33.7450293 -26.68763672 33.0850293 -25.32763672 32.4050293 C-26.64763672 29.7650293 -27.96763672 27.1250293 -29.32763672 24.4050293 C-31.30763672 25.3950293 -31.30763672 25.3950293 -33.32763672 26.4050293 C-37.01513672 26.5925293 -37.01513672 26.5925293 -40.32763672 26.4050293 C-41.32763672 25.4050293 -41.32763672 25.4050293 -41.46044922 23.2253418 C-41.45787109 22.33588867 -41.45529297 21.44643555 -41.45263672 20.5300293 C-41.45650391 19.20358398 -41.45650391 19.20358398 -41.46044922 17.8503418 C-41.32763672 15.4050293 -41.32763672 15.4050293 -40.32763672 12.4050293 C-31.46857632 12.10972728 -31.46857632 12.10972728 -28.32763672 14.4050293 C-27.33763672 15.8900293 -27.33763672 15.8900293 -26.32763672 17.4050293 C-25.33763672 17.0750293 -24.34763672 16.7450293 -23.32763672 16.4050293 C-23.93462414 12.27751481 -25.36574463 9.0729145 -27.32763672 5.4050293 C-32.93438354 5.4050293 -38.45904293 7.99219009 -42.89013672 11.3425293 Z M32.67236328 5.4050293 C31.02236328 7.3850293 29.37236328 9.3650293 27.67236328 11.4050293 C30.60829461 11.4050293 33.43792744 11.18003502 36.35986328 10.9050293 C37.35373047 10.8122168 38.34759766 10.7194043 39.37158203 10.6237793 C40.13083984 10.5515918 40.89009766 10.4794043 41.67236328 10.4050293 C37.6488874 6.93531552 37.6488874 6.93531552 32.67236328 5.4050293 Z M8.67236328 6.4050293 C9.67236328 8.4050293 9.67236328 8.4050293 9.67236328 8.4050293 Z M-22.32763672 9.4050293 C-21.99763672 11.0550293 -21.66763672 12.7050293 -21.32763672 14.4050293 C-20.99763672 13.0850293 -20.66763672 11.7650293 -20.32763672 10.4050293 C-20.98763672 10.0750293 -21.64763672 9.7450293 -22.32763672 9.4050293 Z M26.67236328 13.4050293 C26.34236328 14.3950293 26.01236328 15.3850293 25.67236328 16.4050293 C26.66236328 16.9000293 26.66236328 16.9000293 27.67236328 17.4050293 C27.34236328 16.0850293 27.01236328 14.7650293 26.67236328 13.4050293 Z M31.67236328 14.4050293 C31.34236328 15.0650293 31.01236328 15.7250293 30.67236328 16.4050293 C33.97236328 16.4050293 37.27236328 16.4050293 40.67236328 16.4050293 C40.67236328 21.4050293 40.67236328 21.4050293 39.17236328 23.2175293 C38.67736328 23.6094043 38.18236328 24.0012793 37.67236328 24.4050293 C40.96312325 24.02598722 40.96312325 24.02598722 43.67236328 22.4050293 C44.17267534 18.98931077 44.17267534 18.98931077 43.67236328 15.4050293 C39.18486461 11.74417511 36.7346359 12.06859578 31.67236328 14.4050293 Z M-23.57763672 19.1550293 C-25.71347191 23.12158037 -25.44353004 25.11313192 -24.32763672 29.4050293 C-19.28026253 30.37371727 -15.76286254 30.26809167 -10.82763672 28.9050293 C-2.17675727 26.88035538 5.94211837 27.49237932 14.66455078 28.8815918 C20.05515063 29.75559322 20.05515063 29.75559322 24.85986328 27.2800293 C26.91390415 24.61740761 26.91390415 24.61740761 26.59033203 21.8972168 C25.87937409 19.24319736 25.87937409 19.24319736 23.49267578 17.8581543 C22.60322266 17.46112305 21.71376953 17.0640918 20.79736328 16.6550293 C19.91306641 16.24768555 19.02876953 15.8403418 18.11767578 15.4206543 C7.32808982 10.93935661 -14.80229979 10.35616599 -23.57763672 19.1550293 Z M-39.32763672 17.6550293 C-40.62890788 20.32882648 -40.62890788 20.32882648 -39.51513672 22.7175293 C-39.12326172 23.2744043 -38.73138672 23.8312793 -38.32763672 24.4050293 C-37.66763672 24.4050293 -37.00763672 24.4050293 -36.32763672 24.4050293 C-36.10076172 23.6006543 -35.87388672 22.7962793 -35.64013672 21.9675293 C-35.20701172 21.1219043 -34.77388672 20.2762793 -34.32763672 19.4050293 C-31.70263672 18.5925293 -31.70263672 18.5925293 -29.32763672 18.4050293 C-29.32763672 17.7450293 -29.32763672 17.0850293 -29.32763672 16.4050293 C-33.23732741 14.45018395 -36.36796313 14.32539651 -39.32763672 17.6550293 Z M45.67236328 13.4050293 C45.67236328 17.0350293 45.67236328 20.6650293 45.67236328 24.4050293 C39.04736328 27.5300293 39.04736328 27.5300293 35.67236328 26.4050293 C35.04736328 24.0925293 35.04736328 24.0925293 34.67236328 21.4050293 C35.33236328 20.4150293 35.99236328 19.4250293 36.67236328 18.4050293 C32.63419255 19.32803975 31.05296077 20.9571776 28.92236328 24.3425293 C27.51301919 26.72860235 26.55504476 28.75698486 25.67236328 31.4050293 C29.98281959 33.35849141 33.74578394 34.89140276 38.45751953 33.7019043 C42.43494327 31.85084995 45.11616407 30.10425116 47.85986328 26.6550293 C48.91144768 22.4486917 48.84629943 18.59765839 47.67236328 14.4050293 C47.01236328 14.0750293 46.35236328 13.7450293 45.67236328 13.4050293 Z M-32.32763672 21.4050293 C-31.66763672 22.0650293 -31.00763672 22.7250293 -30.32763672 23.4050293 C-30.32763672 22.7450293 -30.32763672 22.0850293 -30.32763672 21.4050293 C-30.98763672 21.4050293 -31.64763672 21.4050293 -32.32763672 21.4050293 Z M-30.32763672 38.4050293 C-31.10880859 38.72342773 -31.88998047 39.04182617 -32.69482422 39.36987305 C-38.83796751 42.07053793 -42.7105664 46.17088866 -45.70263672 52.1550293 C-47.23476737 60.12210867 -47.04948629 68.06512675 -43.32763672 75.4050293 C-40.37535747 78.90114946 -36.94543018 81.61416006 -33.32763672 84.4050293 C-32.33763672 83.9100293 -32.33763672 83.9100293 -31.32763672 83.4050293 C-31.80201172 82.4975293 -32.27638672 81.5900293 -32.76513672 80.6550293 C-36.21956701 73.4698143 -36.47900841 64.96674 -34.86669922 57.1784668 C-32.76064944 51.75229148 -29.1087683 46.87551266 -23.94873047 44.1472168 C-10.98157121 39.05095333 4.79392389 37.10022916 18.04736328 42.1550293 C19.60041327 42.88116415 21.14263043 43.63097923 22.67236328 44.4050293 C23.47544922 44.75436523 24.27853516 45.10370117 25.10595703 45.46362305 C30.35674601 47.95537676 33.35244598 50.68419118 35.86376953 55.9675293 C38.74906708 64.66523784 35.75330162 73.8087721 33.67236328 82.4050293 C38.66004971 80.89649198 40.78399757 79.83385672 43.67236328 75.4050293 C44.23310547 74.55424805 44.23310547 74.55424805 44.80517578 73.6862793 C48.08782098 68.08512245 48.68639705 62.791663 47.67236328 56.4050293 C44.52855619 46.86232282 38.09450299 40.02276275 29.23876953 35.4675293 C9.5386758 27.31163052 -11.35680166 29.9764828 -30.32763672 38.4050293 Z M-9.32763672 42.4050293 C-9.65763672 43.7250293 -9.98763672 45.0450293 -10.32763672 46.4050293 C-9.33763672 46.4050293 -8.34763672 46.4050293 -7.32763672 46.4050293 C-6.99763672 45.0850293 -6.66763672 43.7650293 -6.32763672 42.4050293 C-7.31763672 42.4050293 -8.30763672 42.4050293 -9.32763672 42.4050293 Z M13.67236328 43.4050293 C9.08015505 47.83888552 4.96303942 52.17034636 1.23095703 57.33862305 C-1.70864109 61.23598496 -5.05448857 64.78800956 -8.32763672 68.4050293 C-17.39240794 77.05272213 -17.39240794 77.05272213 -22.32763672 87.4050293 C-20.72801423 87.68322451 -19.12391923 87.94339069 -17.51123047 88.1315918 C-15.32763672 88.4050293 -15.32763672 88.4050293 -12.98779297 88.9284668 C-10.02748479 89.34936369 -8.18783663 89.33405664 -5.32763672 88.4050293 C-1.91486393 85.04140043 0.63044893 81.24462239 3.31884766 77.2956543 C5.60040425 74.1087181 8.20384009 71.21392696 10.79736328 68.2800293 C19.86416228 59.16480231 19.86416228 59.16480231 24.67236328 48.4050293 C21.04236328 46.7550293 17.41236328 45.1050293 13.67236328 43.4050293 Z M-16.32763672 44.4050293 C-15.99763672 45.3950293 -15.66763672 46.3850293 -15.32763672 47.4050293 C-14.66763672 47.0750293 -14.00763672 46.7450293 -13.32763672 46.4050293 C-14.31763672 45.7450293 -15.30763672 45.0850293 -16.32763672 44.4050293 Z M-0.32763672 44.4050293 C3.67236328 45.4050293 3.67236328 45.4050293 3.67236328 45.4050293 Z M-20.32763672 45.4050293 C-21.44138672 45.9619043 -22.55513672 46.5187793 -23.70263672 47.0925293 C-24.32912109 47.40577148 -24.95560547 47.71901367 -25.60107422 48.04174805 C-27.87838201 49.83989379 -28.43627148 51.69041698 -29.32763672 54.4050293 C-27.60350652 55.70341106 -25.8731044 56.99346676 -24.14013672 58.2800293 C-23.17720703 58.99932617 -22.21427734 59.71862305 -21.22216797 60.4597168 C-18.61634997 62.21099529 -16.27971528 63.37962724 -13.32763672 64.4050293 C-10.35763672 60.9400293 -10.35763672 60.9400293 -7.32763672 57.4050293 C-9.23651979 53.58726316 -9.9873212 52.61173419 -13.26513672 50.2800293 C-13.95478516 49.78245117 -14.64443359 49.28487305 -15.35498047 48.7722168 C-17.00026801 47.6319185 -18.66202845 46.51543481 -20.32763672 45.4050293 Z M-5.32763672 46.4050293 C-4.33763672 46.7350293 -3.34763672 47.0650293 -2.32763672 47.4050293 C-1.99763672 48.3950293 -1.66763672 49.3850293 -1.32763672 50.4050293 C-0.99763672 49.7450293 -0.66763672 49.0850293 -0.32763672 48.4050293 C-0.65763672 47.7450293 -0.98763672 47.0850293 -1.32763672 46.4050293 C-2.64763672 46.4050293 -3.96763672 46.4050293 -5.32763672 46.4050293 Z M-13.32763672 47.4050293 C-12.99763672 48.0650293 -12.66763672 48.7250293 -12.32763672 49.4050293 C-11.66763672 49.0750293 -11.00763672 48.7450293 -10.32763672 48.4050293 C-11.31763672 48.0750293 -12.30763672 47.7450293 -13.32763672 47.4050293 Z M2.67236328 49.4050293 C1.35236328 51.0550293 0.03236328 52.7050293 -1.32763672 54.4050293 C-0.33763672 54.9000293 -0.33763672 54.9000293 0.67236328 55.4050293 C1.66236328 54.0850293 2.65236328 52.7650293 3.67236328 51.4050293 C3.34236328 50.7450293 3.01236328 50.0850293 2.67236328 49.4050293 Z M-9.32763672 50.4050293 C-8.99763672 51.0650293 -8.66763672 51.7250293 -8.32763672 52.4050293 C-7.66763672 52.0750293 -7.00763672 51.7450293 -6.32763672 51.4050293 C-7.31763672 51.0750293 -8.30763672 50.7450293 -9.32763672 50.4050293 Z M24.67236328 53.4050293 C24.67236328 54.0650293 24.67236328 54.7250293 24.67236328 55.4050293 C25.33236328 55.4050293 25.99236328 55.4050293 26.67236328 55.4050293 C26.67236328 56.0650293 26.67236328 56.7250293 26.67236328 57.4050293 C25.02236328 57.7350293 23.37236328 58.0650293 21.67236328 58.4050293 C22.00236328 59.3950293 22.33236328 60.3850293 22.67236328 61.4050293 C24.98236328 60.7450293 27.29236328 60.0850293 29.67236328 59.4050293 C29.67236328 60.3950293 29.67236328 61.3850293 29.67236328 62.4050293 C28.02236328 62.4050293 26.37236328 62.4050293 24.67236328 62.4050293 C24.34236328 63.7250293 24.01236328 65.0450293 23.67236328 66.4050293 C25.32236328 65.4150293 26.97236328 64.4250293 28.67236328 63.4050293 C28.67236328 64.0650293 28.67236328 64.7250293 28.67236328 65.4050293 C28.01236328 65.4050293 27.35236328 65.4050293 26.67236328 65.4050293 C26.67236328 67.0550293 26.67236328 68.7050293 26.67236328 70.4050293 C27.33236328 70.7350293 27.99236328 71.0650293 28.67236328 71.4050293 C28.67236328 70.4150293 28.67236328 69.4250293 28.67236328 68.4050293 C30.32236328 67.7450293 31.97236328 67.0850293 33.67236328 66.4050293 C33.67236328 64.4250293 33.67236328 62.4450293 33.67236328 60.4050293 C32.68236328 60.4050293 31.69236328 60.4050293 30.67236328 60.4050293 C31.33236328 59.0850293 31.99236328 57.7650293 32.67236328 56.4050293 C32.01236328 55.4150293 31.35236328 54.4250293 30.67236328 53.4050293 C27.58870457 53.1548136 27.58870457 53.1548136 24.67236328 53.4050293 Z M-31.32763672 56.4050293 C-31.32763672 57.0650293 -31.32763672 57.7250293 -31.32763672 58.4050293 C-30.33763672 58.0750293 -29.34763672 57.7450293 -28.32763672 57.4050293 C-29.31763672 57.0750293 -30.30763672 56.7450293 -31.32763672 56.4050293 Z M-4.32763672 57.4050293 C-7.95763672 61.3650293 -11.58763672 65.3250293 -15.32763672 69.4050293 C-14.99763672 70.0650293 -14.66763672 70.7250293 -14.32763672 71.4050293 C-10.69763672 67.4450293 -7.06763672 63.4850293 -3.32763672 59.4050293 C-3.65763672 58.7450293 -3.98763672 58.0850293 -4.32763672 57.4050293 Z M-32.32763672 58.4050293 C-32.65763672 60.3850293 -32.98763672 62.3650293 -33.32763672 64.4050293 C-32.72951172 64.2194043 -32.13138672 64.0337793 -31.51513672 63.8425293 C-29.32763672 63.4050293 -29.32763672 63.4050293 -26.32763672 64.4050293 C-25.99763672 66.0550293 -25.66763672 67.7050293 -25.32763672 69.4050293 C-25.98763672 69.4050293 -26.64763672 69.4050293 -27.32763672 69.4050293 C-27.32763672 68.7450293 -27.32763672 68.0850293 -27.32763672 67.4050293 C-27.98763672 67.4050293 -28.64763672 67.4050293 -29.32763672 67.4050293 C-29.32763672 66.7450293 -29.32763672 66.0850293 -29.32763672 65.4050293 C-30.64763672 65.7350293 -31.96763672 66.0650293 -33.32763672 66.4050293 C-32.33763672 66.4050293 -31.34763672 66.4050293 -30.32763672 66.4050293 C-30.32763672 67.3950293 -30.32763672 68.3850293 -30.32763672 69.4050293 C-28.67763672 69.7350293 -27.02763672 70.0650293 -25.32763672 70.4050293 C-24.99763672 71.3950293 -24.66763672 72.3850293 -24.32763672 73.4050293 C-23.99763672 70.4350293 -23.66763672 67.4650293 -23.32763672 64.4050293 C-27.01327756 61.94923233 -27.01327756 61.94923233 -31.32763672 61.4050293 C-31.65763672 60.4150293 -31.98763672 59.4250293 -32.32763672 58.4050293 Z M20.67236328 61.4050293 C20.34236328 62.7250293 20.01236328 64.0450293 19.67236328 65.4050293 C20.66236328 64.7450293 21.65236328 64.0850293 22.67236328 63.4050293 C22.01236328 62.7450293 21.35236328 62.0850293 20.67236328 61.4050293 Z M-22.32763672 63.4050293 C-22.32763672 64.0650293 -22.32763672 64.7250293 -22.32763672 65.4050293 C-21.66763672 65.4050293 -21.00763672 65.4050293 -20.32763672 65.4050293 C-20.32763672 64.7450293 -20.32763672 64.0850293 -20.32763672 63.4050293 C-20.98763672 63.4050293 -21.64763672 63.4050293 -22.32763672 63.4050293 Z M14.67236328 66.4050293 C14.67236328 67.0650293 14.67236328 67.7250293 14.67236328 68.4050293 C16.65236328 69.0650293 18.63236328 69.7250293 20.67236328 70.4050293 C19.38271152 69.02940075 18.04547036 67.69736537 16.67236328 66.4050293 C16.01236328 66.4050293 15.35236328 66.4050293 14.67236328 66.4050293 Z M-33.32763672 69.4050293 C-33.32763672 70.3950293 -33.32763672 71.3850293 -33.32763672 72.4050293 C-32.66763672 72.4050293 -32.00763672 72.4050293 -31.32763672 72.4050293 C-30.99763672 71.4150293 -30.66763672 70.4250293 -30.32763672 69.4050293 C-31.31763672 69.4050293 -32.30763672 69.4050293 -33.32763672 69.4050293 Z M-21.32763672 70.4050293 C-20.99763672 71.0650293 -20.66763672 71.7250293 -20.32763672 72.4050293 C-19.99763672 71.7450293 -19.66763672 71.0850293 -19.32763672 70.4050293 C-19.98763672 70.4050293 -20.64763672 70.4050293 -21.32763672 70.4050293 Z M11.67236328 70.4050293 C8.91215896 73.16726419 8.91215896 73.16726419 6.67236328 76.4050293 C7.91495825 80.1328142 9.28892281 80.83077304 12.48486328 83.0300293 C13.79390625 83.94655273 13.79390625 83.94655273 15.12939453 84.8815918 C17.44076967 86.26628658 19.0060618 87.14950874 21.67236328 87.4050293 C26.34081036 84.92423562 26.34081036 84.92423562 28.67236328 80.4050293 C28.01236328 80.4050293 27.35236328 80.4050293 26.67236328 80.4050293 C26.34236328 79.4150293 26.01236328 78.4250293 25.67236328 77.4050293 C22.9680626 75.48879685 22.9680626 75.48879685 19.73486328 73.7175293 C18.65333984 73.09491211 17.57181641 72.47229492 16.45751953 71.83081055 C13.89713075 70.253135 13.89713075 70.253135 11.67236328 70.4050293 Z M20.67236328 70.4050293 C23.79857954 73.79920695 26.23777355 76.0113011 30.67236328 77.4050293 C27.54614702 74.01085164 25.10695301 71.7987575 20.67236328 70.4050293 Z M-28.32763672 71.4050293 C-29.31763672 71.9000293 -29.31763672 71.9000293 -30.32763672 72.4050293 C-30.32763672 73.0650293 -30.32763672 73.7250293 -30.32763672 74.4050293 C-29.00763672 74.0750293 -27.68763672 73.7450293 -26.32763672 73.4050293 C-26.98763672 72.7450293 -27.64763672 72.0850293 -28.32763672 71.4050293 Z M-17.32763672 72.4050293 C-17.98763672 73.7250293 -18.64763672 75.0450293 -19.32763672 76.4050293 C-18.33763672 75.7450293 -17.34763672 75.0850293 -16.32763672 74.4050293 C-16.65763672 73.7450293 -16.98763672 73.0850293 -17.32763672 72.4050293 Z M-32.32763672 74.4050293 C-31.33763672 75.8900293 -31.33763672 75.8900293 -30.32763672 77.4050293 C-30.32763672 76.4150293 -30.32763672 75.4250293 -30.32763672 74.4050293 C-30.98763672 74.4050293 -31.64763672 74.4050293 -32.32763672 74.4050293 Z M-28.32763672 79.4050293 C-27.66763672 80.0650293 -27.00763672 80.7250293 -26.32763672 81.4050293 C-26.32763672 80.7450293 -26.32763672 80.0850293 -26.32763672 79.4050293 C-26.98763672 79.4050293 -27.64763672 79.4050293 -28.32763672 79.4050293 Z M-24.32763672 81.4050293 C-23.32763672 83.4050293 -23.32763672 83.4050293 -23.32763672 83.4050293 Z M36.10986328 85.0925293 C30.79784928 87.98579747 25.88480932 89.56826979 19.97314453 90.7644043 C18.83425781 91.08151367 18.83425781 91.08151367 17.67236328 91.4050293 C17.34236328 92.0650293 17.01236328 92.7250293 16.67236328 93.4050293 C17.00236328 94.3950293 17.33236328 95.3850293 17.67236328 96.4050293 C25.80847969 98.38408464 35.27660154 97.46184668 42.67236328 93.4050293 C45.76035002 91.15445362 45.76035002 91.15445362 47.67236328 88.4050293 C48.01022828 86.17283566 48.01022828 86.17283566 46.67236328 84.4050293 C42.24142864 81.85081741 40.40030935 82.58830976 36.10986328 85.0925293 Z M-41.32763672 83.4050293 C-43.03498973 84.44071524 -43.03498973 84.44071524 -44.32763672 86.4050293 C-44.09286473 90.05044775 -44.09286473 90.05044775 -43.32763672 93.4050293 C-32.58857132 97.44169927 -22.7439865 97.55118456 -11.32763672 97.4050293 C-10.99763672 95.4250293 -10.66763672 93.4450293 -10.32763672 91.4050293 C-11.28283203 91.29545898 -12.23802734 91.18588867 -13.22216797 91.07299805 C-34.30968976 88.48699089 -34.30968976 88.48699089 -41.32763672 83.4050293 Z M-25.32763672 83.4050293 C-24.32763672 85.4050293 -24.32763672 85.4050293 -24.32763672 85.4050293 Z M8.67236328 83.4050293 C8.67236328 84.0650293 8.67236328 84.7250293 8.67236328 85.4050293 C7.02236328 85.0750293 5.37236328 84.7450293 3.67236328 84.4050293 C3.67236328 85.0650293 3.67236328 85.7250293 3.67236328 86.4050293 C5.5196138 87.09662331 5.5196138 87.09662331 7.67236328 87.4050293 C8.66236328 86.7450293 9.65236328 86.0850293 10.67236328 85.4050293 C10.01236328 84.7450293 9.35236328 84.0850293 8.67236328 83.4050293 Z M2.67236328 86.4050293 C2.34236328 87.3950293 2.01236328 88.3850293 1.67236328 89.4050293 C2.66236328 89.4050293 3.65236328 89.4050293 4.67236328 89.4050293 C4.34236328 88.4150293 4.01236328 87.4250293 3.67236328 86.4050293 C3.34236328 86.4050293 3.01236328 86.4050293 2.67236328 86.4050293 Z M10.67236328 86.4050293 C11.00236328 87.3950293 11.33236328 88.3850293 11.67236328 89.4050293 C12.00236328 88.4150293 12.33236328 87.4250293 12.67236328 86.4050293 C12.01236328 86.4050293 11.35236328 86.4050293 10.67236328 86.4050293 Z M-8.32763672 92.4050293 C-8.32763672 94.0550293 -8.32763672 95.7050293 -8.32763672 97.4050293 C-7.66763672 97.4050293 -7.00763672 97.4050293 -6.32763672 97.4050293 C-6.32763672 95.7550293 -6.32763672 94.1050293 -6.32763672 92.4050293 C-6.98763672 92.4050293 -7.64763672 92.4050293 -8.32763672 92.4050293 Z M-3.32763672 92.4050293 C-3.32763672 94.0550293 -3.32763672 95.7050293 -3.32763672 97.4050293 C0.96236328 97.4050293 5.25236328 97.4050293 9.67236328 97.4050293 C9.34236328 95.7550293 9.01236328 94.1050293 8.67236328 92.4050293 C4.71236328 92.4050293 0.75236328 92.4050293 -3.32763672 92.4050293 Z M12.67236328 92.4050293 C12.67236328 94.0550293 12.67236328 95.7050293 12.67236328 97.4050293 C13.33236328 97.4050293 13.99236328 97.4050293 14.67236328 97.4050293 C14.34236328 95.7550293 14.01236328 94.1050293 13.67236328 92.4050293 C13.34236328 92.4050293 13.01236328 92.4050293 12.67236328 92.4050293 Z " fill="#000000" transform="translate(54.32763671875,4.594970703125)"/>
<path d="M0 0 C2.625 0.375 2.625 0.375 5 1 C5.042721 2.66611905 5.04063832 4.33382885 5 6 C4 7 4 7 1.4375 7.0625 C0.2309375 7.0315625 0.2309375 7.0315625 -1 7 C-1.625 4.625 -1.625 4.625 -2 2 C-1.34 1.34 -0.68 0.68 0 0 Z " fill="#000000" transform="translate(67,23)"/>
<path d="M0 0 C0.6875 2.0625 0.6875 2.0625 1 4 C-2 6 -2 6 -4.1875 5.625 C-4.785625 5.41875 -5.38375 5.2125 -6 5 C-6.33 3.68 -6.66 2.36 -7 1 C-3.375 -1.125 -3.375 -1.125 0 0 Z " fill="#000000" transform="translate(99,91)"/>
<path d="M0 0 C0 1.65 0 3.3 0 5 C-1.8125 5.625 -1.8125 5.625 -4 6 C-4.99 5.34 -5.98 4.68 -7 4 C-6.625 2.0625 -6.625 2.0625 -6 0 C-3.50907189 -1.24546405 -2.58919267 -0.7767578 0 0 Z " fill="#000000" transform="translate(45,25)"/>
<path d="M0 0 C1.65 0 3.3 0 5 0 C5.33 1.65 5.66 3.3 6 5 C3.625 5.625 3.625 5.625 1 6 C0.34 5.34 -0.32 4.68 -1 4 C-0.625 1.875 -0.625 1.875 0 0 Z " fill="#000000" transform="translate(15,93)"/>
<path d="M0 0 C0.66 0 1.32 0 2 0 C2 0.99 2 1.98 2 3 C1.01 3 0.02 3 -1 3 C-0.67 2.01 -0.34 1.02 0 0 Z " fill="#000000" transform="translate(83,60)"/>
<path d="M0 0 C0.66 0 1.32 0 2 0 C2 0.99 2 1.98 2 3 C1.01 2.67 0.02 2.34 -1 2 C-0.67 1.34 -0.34 0.68 0 0 Z " fill="#000000" transform="translate(85,67)"/>
</svg>
