<?xml version="1.0" encoding="UTF-8"?>
<!DOCTYPE svg PUBLIC "-//W3C//DTD SVG 1.1//EN" "http://www.w3.org/Graphics/SVG/1.1/DTD/svg11.dtd">
<svg xmlns="http://www.w3.org/2000/svg" version="1.1" width="110px" height="110px" style="shape-rendering:geometricPrecision; text-rendering:geometricPrecision; image-rendering:optimizeQuality; fill-rule:evenodd; clip-rule:evenodd" xmlns:xlink="http://www.w3.org/1999/xlink">
<g><path style="opacity:0.768" fill="#000000" d="M 60.5,4.5 C 65.6334,4.48855 70.1334,6.15521 74,9.5C 78.3547,7.3684 82.8547,7.03507 87.5,8.5C 91.7305,4.77086 96.3971,3.93753 101.5,6C 107.119,12.6931 106.786,19.0264 100.5,25C 102.552,25.9299 104.052,27.4299 105,29.5C 107.315,39.2156 104.815,47.3823 97.5,54C 106.755,59.7813 108.088,67.2813 101.5,76.5C 107.524,86.4258 106.524,95.5924 98.5,104C 92.7257,105.538 87.7257,104.371 83.5,100.5C 78.9486,104.86 73.9486,105.527 68.5,102.5C 64.5642,105.051 60.7308,105.051 57,102.5C 55.5267,104.007 53.6934,104.674 51.5,104.5C 48.4102,104.248 45.4102,103.581 42.5,102.5C 40.913,103.362 39.2464,104.029 37.5,104.5C 31.8383,103.585 26.1716,103.419 20.5,104C 14.4791,100.309 9.47913,95.642 5.5,90C 6.77726,85.5206 9.77726,83.1873 14.5,83C 13.0001,81.8855 11.3334,81.0521 9.5,80.5C 8.35901,78.5787 8.19234,76.5787 9,74.5C 12.4107,71.5853 16.244,69.4187 20.5,68C 16.0991,66.6919 11.9324,64.8586 8,62.5C 5.60709,55.8182 6.27375,49.4849 10,43.5C 13.3333,40.1667 16.6667,36.8333 20,33.5C 21.9309,30.386 22.5976,27.0527 22,23.5C 17.9232,20.212 13.7565,17.0453 9.5,14C 7.16334,12.2019 6.49667,10.0353 7.5,7.5C 11.041,6.80003 14.541,6.13337 18,5.5C 22.9853,7.241 27.8187,9.40767 32.5,12C 34.0412,13.5793 35.2078,15.4127 36,17.5C 40.1823,9.91024 46.5157,6.5769 55,7.5C 56.8761,6.39127 58.7095,5.39127 60.5,4.5 Z M 60.5,7.5 C 61.2389,7.36899 61.9056,7.53566 62.5,8C 58.19,10.4168 56.5233,13.9168 57.5,18.5C 59.369,15.948 61.369,13.448 63.5,11C 65.9102,9.1326 68.2436,9.1326 70.5,11C 66.8333,14 63.1667,17 59.5,20C 57.3496,21.4114 55.0163,22.2447 52.5,22.5C 51.8326,15.4899 54.4992,10.4899 60.5,7.5 Z M 93.5,7.5 C 98.9728,7.3029 101.973,9.96957 102.5,15.5C 101.429,20.0718 98.5956,22.7385 94,23.5C 92.0126,22.782 90.1792,21.782 88.5,20.5C 94.0729,17.7355 94.7396,14.2355 90.5,10C 91.5707,9.14825 92.5707,8.31491 93.5,7.5 Z M 47.5,43.5 C 54.0361,38.7331 59.5361,39.7331 64,46.5C 65.0365,49.7527 65.7031,53.086 66,56.5C 67.4705,58.8718 68.6372,58.8718 69.5,56.5C 69.6853,47.3681 66.352,39.8681 59.5,34C 53.1718,29.9256 46.5051,29.4256 39.5,32.5C 38.7518,29.5027 38.0851,26.5027 37.5,23.5C 38.3613,14.9693 43.028,10.636 51.5,10.5C 48.0106,15.4206 47.6772,20.5873 50.5,26C 55.8991,26.1374 60.5658,24.304 64.5,20.5C 64.8935,24.7342 67.0602,27.7342 71,29.5C 71.3333,34.5 71.6667,39.5 72,44.5C 74.5635,50.628 77.8968,56.2947 82,61.5C 83.1989,64.7256 83.6989,68.059 83.5,71.5C 84.8221,71.67 85.9887,71.3366 87,70.5C 88.8007,64.873 91.9674,60.2063 96.5,56.5C 103.596,61.0871 104.43,66.7538 99,73.5C 97.8455,74.7433 96.5122,75.7433 95,76.5C 90.6862,73.543 85.8529,72.043 80.5,72C 83.7243,65.2896 81.5577,61.4562 74,60.5C 68.5021,60.6646 65.6688,63.4979 65.5,69C 66.3207,71.6431 67.654,73.9764 69.5,76C 68.5838,76.3742 67.7504,76.8742 67,77.5C 65.5239,69.3427 60.6906,66.0093 52.5,67.5C 40.9062,67.4209 29.9062,69.9209 19.5,75C 17.5,75.6667 15.5,75.6667 13.5,75C 16.0496,73.5584 18.7163,72.3917 21.5,71.5C 24.1003,68.959 24.1003,66.459 21.5,64C 9.27096,62.3414 6.43762,56.1747 13,45.5C 16.0155,42.3172 19.1822,39.3172 22.5,36.5C 28.5098,24.0182 24.8432,15.8515 11.5,12C 9.99256,11.1627 9.49256,9.99608 10,8.5C 18.9477,7.93211 26.6144,10.9321 33,17.5C 34.8456,23.0519 35.5123,28.7186 35,34.5C 32.0181,38.7967 29.8514,43.4633 28.5,48.5C 29.77,54.5883 33.4367,56.755 39.5,55C 41.0529,52.3451 42.2196,49.5117 43,46.5C 44.129,44.8588 45.629,43.8588 47.5,43.5 Z M 78.5,11.5 C 75.039,13.4153 73.3723,16.4153 73.5,20.5C 74.5,20.5 75.5,20.5 76.5,20.5C 77.9157,15.2616 81.4157,12.2616 87,11.5C 88.5,11.6667 89.3333,12.5 89.5,14C 83.4228,17.4557 77.5894,21.2891 72,25.5C 68.0063,24.171 66.673,21.5043 68,17.5C 70.9186,14.4002 74.4186,12.4002 78.5,11.5 Z M 92.5,37.5 C 93.2625,38.2679 94.2625,38.7679 95.5,39C 93.2357,41.9335 90.4024,44.1001 87,45.5C 86.5172,46.448 86.3505,47.448 86.5,48.5C 83.9158,48.4312 81.9158,47.2645 80.5,45C 82.1261,45.1953 83.7928,45.1953 85.5,45C 84.2695,43.5952 82.9361,42.4286 81.5,41.5C 82.8734,41.6567 84.2068,41.49 85.5,41C 83.6266,39.2962 81.9599,37.4628 80.5,35.5C 81.3764,35.6309 82.0431,35.2975 82.5,34.5C 81.5435,32.9246 80.8769,31.258 80.5,29.5C 81.4584,29.9528 82.2917,30.6195 83,31.5C 81.9768,28.5736 81.1435,25.7402 80.5,23C 81.7659,22.6905 82.9326,22.1905 84,21.5C 86.5944,25.0473 90.0944,26.8807 94.5,27C 92.9644,28.5994 92.4644,30.4328 93,32.5C 93.8333,31.5 94.6667,30.5 95.5,29.5C 95.8333,29.8333 96.1667,30.1667 96.5,30.5C 94.8726,32.7654 93.5392,35.0987 92.5,37.5 Z M 75.5,26.5 C 76.1471,27.2739 76.4805,28.2739 76.5,29.5C 76,32.5 75.5,35.5 75,38.5C 74.3933,34.4631 74.56,30.4631 75.5,26.5 Z M 100.5,29.5 C 101.972,31.1175 102.639,33.1175 102.5,35.5C 102.408,39.2244 101.408,42.5577 99.5,45.5C 100.342,40.213 100.676,34.8797 100.5,29.5 Z M 80.5,35.5 C 78.7274,34.6857 78.2274,33.3524 79,31.5C 79.7914,32.745 80.2914,34.0783 80.5,35.5 Z M 48.5,35.5 C 49.4971,34.2875 50.4971,34.4542 51.5,36C 50.4232,36.4696 49.4232,36.3029 48.5,35.5 Z M 42.5,35.5 C 45.0009,35.5109 45.1676,36.1776 43,37.5C 42.5357,36.9056 42.369,36.2389 42.5,35.5 Z M 45.5,37.5 C 47.337,37.6395 47.6704,38.3061 46.5,39.5C 45.7025,39.0431 45.3691,38.3764 45.5,37.5 Z M 36.5,40.5 C 37.7125,41.4971 37.5458,42.4971 36,43.5C 35.5304,42.4232 35.6971,41.4232 36.5,40.5 Z M 41.5,40.5 C 43.337,40.6395 43.6704,41.3061 42.5,42.5C 41.7025,42.0431 41.3691,41.3764 41.5,40.5 Z M 39.5,43.5 C 40.7733,44.0768 40.7733,44.7435 39.5,45.5C 38.537,45.0302 38.537,44.3635 39.5,43.5 Z M 95.5,43.5 C 94.7377,45.2624 93.4044,46.2624 91.5,46.5C 92.0347,44.5544 93.368,43.5544 95.5,43.5 Z M 76.5,44.5 C 80.5821,48.0068 83.0821,52.3401 84,57.5C 82.056,53.8901 79.7226,50.5568 77,47.5C 76.5172,46.552 76.3505,45.552 76.5,44.5 Z M 52.5,45.5 C 53.9733,46.072 55.3066,46.9054 56.5,48C 53.6048,49.3129 50.6048,50.4796 47.5,51.5C 46.5923,50.21 46.759,48.8767 48,47.5C 49.6225,46.9011 51.1225,46.2344 52.5,45.5 Z M 98.5,46.5 C 95.64,52.0354 91.64,56.7021 86.5,60.5C 89.0921,55.1935 93.0921,50.5268 98.5,46.5 Z M 54.5,52.5 C 55.2389,52.369 55.9056,52.5357 56.5,53C 54.1454,56.6724 51.1454,57.3391 47.5,55C 50.0037,54.3024 52.337,53.4691 54.5,52.5 Z M 58.5,55.5 C 59.2724,57.5295 58.6057,59.3629 56.5,61C 54.1667,61.6667 51.8333,61.6667 49.5,61C 46.8953,60.9736 45.7287,59.807 46,57.5C 50.643,61.0309 54.8096,60.3643 58.5,55.5 Z M 76.5,65.5 C 72.2699,64.8313 70.4366,66.498 71,70.5C 73.4141,71.8557 75.5807,71.5224 77.5,69.5C 76.1431,73.1815 73.8098,74.0148 70.5,72C 68.2281,68.7843 68.8948,66.1176 72.5,64C 74.3524,63.2274 75.6857,63.7274 76.5,65.5 Z M 76.5,65.5 C 79.8845,66.244 80.2178,67.5774 77.5,69.5C 77.5674,68.0413 77.2341,66.7079 76.5,65.5 Z M 44.5,70.5 C 49.7175,70.2418 54.8841,70.5751 60,71.5C 62.2005,72.9625 62.8672,74.9625 62,77.5C 61.6019,74.7683 60.1019,72.935 57.5,72C 52.8092,71.3504 48.1425,71.5171 43.5,72.5C 42.5,72.3333 41.5,72.1667 40.5,72C 42.0581,71.79 43.3915,71.29 44.5,70.5 Z M 31.5,74.5 C 33.914,73.0674 36.5806,72.5674 39.5,73C 36.9373,74.0793 34.2706,74.5793 31.5,74.5 Z M 46.5,75.5 C 48.288,75.2148 49.9547,75.5481 51.5,76.5C 50.7542,77.7362 50.4208,79.0695 50.5,80.5C 46.1728,80.7482 44.8394,79.0816 46.5,75.5 Z M 53.5,75.5 C 57.1378,74.7366 58.6378,76.0699 58,79.5C 54.6806,80.6441 53.1806,79.3107 53.5,75.5 Z M 38.5,76.5 C 44.0127,76.2245 44.6793,77.5578 40.5,80.5C 36.944,79.7557 36.2773,78.4224 38.5,76.5 Z M 79.5,76.5 C 81.9752,76.7467 81.9752,77.4134 79.5,78.5C 78.537,78.0302 78.537,77.3635 79.5,76.5 Z M 74.5,77.5 C 74.2172,78.2891 73.7172,78.9558 73,79.5C 72.4719,78.184 72.9719,77.5173 74.5,77.5 Z M 89.5,77.5 C 92.2933,77.74 92.7933,78.74 91,80.5C 88.8424,79.9498 88.3424,78.9498 89.5,77.5 Z M 30.5,78.5 C 31.675,78.281 32.675,78.6143 33.5,79.5C 31.9255,80.6309 30.2588,80.7975 28.5,80C 29.4158,79.7216 30.0825,79.2216 30.5,78.5 Z M 82.5,78.5 C 84.9732,78.9473 85.1399,79.9473 83,81.5C 81.2716,80.6477 81.105,79.6477 82.5,78.5 Z M 100.5,81.5 C 99.3734,80.8783 98.3734,80.045 97.5,79C 99.4894,78.4808 100.489,79.3141 100.5,81.5 Z M 75.5,79.5 C 77.337,79.6395 77.6704,80.3061 76.5,81.5C 75.7025,81.0431 75.3691,80.3764 75.5,79.5 Z M 22.5,80.5 C 25.3948,81.7789 28.3948,82.7789 31.5,83.5C 38.5006,83.2782 45.5006,82.9449 52.5,82.5C 58.9007,84.3541 58.5673,85.8541 51.5,87C 40.049,88.1304 28.7157,86.797 17.5,83C 19.1749,82.0147 20.8415,81.1814 22.5,80.5 Z M 61.5,86.5 C 61.2011,84.396 61.5344,82.396 62.5,80.5C 62.8333,80.8333 63.1667,81.1667 63.5,81.5C 62.9724,83.3361 62.3058,85.0028 61.5,86.5 Z M 69.5,80.5 C 71.337,80.6395 71.6704,81.3061 70.5,82.5C 69.7025,82.0431 69.3691,81.3764 69.5,80.5 Z M 86.5,81.5 C 89.2933,81.74 89.7933,82.74 88,84.5C 85.8424,83.9498 85.3424,82.9498 86.5,81.5 Z M 93.5,81.5 C 94.9953,81.4148 95.9953,82.0815 96.5,83.5C 94.6043,84.6394 93.6043,83.9728 93.5,81.5 Z M 100.5,81.5 C 103.915,90.0957 101.748,97.0957 94,102.5C 91.7039,102.141 89.8705,101.141 88.5,99.5C 92.4006,100.143 95.734,99.1429 98.5,96.5C 100.243,91.6674 100.91,86.6674 100.5,81.5 Z M 65.5,84.5 C 67.337,84.6395 67.6704,85.3061 66.5,86.5C 65.7025,86.0431 65.3691,85.3764 65.5,84.5 Z M 90.5,85.5 C 93.2933,85.74 93.7933,86.74 92,88.5C 90.9614,87.7562 90.4614,86.7562 90.5,85.5 Z M 61.5,86.5 C 61.5,87.8333 60.8333,88.5 59.5,88.5C 59.8333,87.5 60.5,86.8333 61.5,86.5 Z M 70.5,86.5 C 71.7375,87.7434 71.4041,88.7434 69.5,89.5C 69.1667,89.1667 68.8333,88.8333 68.5,88.5C 69.2427,87.8182 69.9094,87.1515 70.5,86.5 Z M 30.5,90.5 C 28.0108,90.7022 25.6775,90.2022 23.5,89C 26.0583,88.7247 28.3916,89.2247 30.5,90.5 Z M 95.5,88.5 C 97.7602,89.2376 97.9269,90.2376 96,91.5C 94.2716,90.6477 94.105,89.6477 95.5,88.5 Z M 73.5,89.5 C 76.1402,90.7936 76.1402,92.127 73.5,93.5C 71.2064,92.3746 71.2064,91.0412 73.5,89.5 Z M 79.5,89.5 C 83.1611,89.4257 83.8277,90.4257 81.5,92.5C 80.0815,91.9953 79.4148,90.9953 79.5,89.5 Z M 87.5,89.5 C 90.2933,89.74 90.7933,90.74 89,92.5C 87.9614,91.7562 87.4614,90.7562 87.5,89.5 Z M 66.5,90.5 C 67.8672,92.0927 67.5339,93.4261 65.5,94.5C 65.1667,94.1667 64.8333,93.8333 64.5,93.5C 65.1925,92.4822 65.8592,91.4822 66.5,90.5 Z M 92.5,92.5 C 93.522,93.8917 93.1887,95.225 91.5,96.5C 91.1667,96.1667 90.8333,95.8333 90.5,95.5C 91.1925,94.4822 91.8592,93.4822 92.5,92.5 Z M 57.5,93.5 C 61.1021,93.678 61.1021,94.678 57.5,96.5C 56.4376,95.5754 56.4376,94.5754 57.5,93.5 Z M 76.5,93.5 C 80.8638,93.6648 81.3638,94.9981 78,97.5C 75.988,96.4335 75.488,95.1002 76.5,93.5 Z M 68.5,94.5 C 70.337,94.6395 70.6704,95.3061 69.5,96.5C 68.7025,96.0431 68.3691,95.3764 68.5,94.5 Z M 34.5,95.5 C 35.7733,96.0768 35.7733,96.7435 34.5,97.5C 33.537,97.0302 33.537,96.3635 34.5,95.5 Z M 61.5,95.5 C 65.2939,96.2393 65.4605,97.5727 62,99.5C 60.2317,98.3181 60.0651,96.9848 61.5,95.5 Z M 22.5,96.5 C 23.2891,96.7828 23.9558,97.2828 24.5,98C 23.184,98.5281 22.5173,98.0281 22.5,96.5 Z M 43.5,96.5 C 44.7733,97.0768 44.7733,97.7435 43.5,98.5C 42.537,98.0302 42.537,97.3635 43.5,96.5 Z M 53.5,97.5 C 55.7602,98.2376 55.9269,99.2376 54,100.5C 53.5172,99.552 53.3505,98.552 53.5,97.5 Z M 72.5,98.5 C 73.5,98.5 74.5,98.5 75.5,98.5C 75.5,99.5 75.5,100.5 75.5,101.5C 72.4331,101.879 71.4331,100.879 72.5,98.5 Z"/></g>
<g><path style="opacity:0.737" fill="#000000" d="M 15.5,10.5 C 27.2657,11.4305 32.7657,17.7638 32,29.5C 29.5126,37.1417 26.0126,44.1417 21.5,50.5C 21.6667,51.5 21.8333,52.5 22,53.5C 26.3898,55.3939 29.5565,58.3939 31.5,62.5C 27.5264,61.3791 23.8597,59.5457 20.5,57C 16.5587,54.1866 15.7253,50.6866 18,46.5C 26.902,38.8031 29.902,29.4698 27,18.5C 23.8629,16.0144 20.3629,14.1811 16.5,13C 15.7476,12.3292 15.4142,11.4959 15.5,10.5 Z"/></g>
<g><path style="opacity:0.664" fill="#000000" d="M 86.5,27.5 C 90.8212,28.3103 91.4879,30.3103 88.5,33.5C 86.3756,31.7987 85.7089,29.7987 86.5,27.5 Z"/></g>
<g><path style="opacity:0.69" fill="#000000" d="M 92.5,37.5 C 89.6708,44.3794 87.6708,44.0461 86.5,36.5C 88.7354,36.2053 90.7354,36.5386 92.5,37.5 Z"/></g>
<g><path style="opacity:0.777" fill="#000000" d="M 47.5,43.5 C 56.5628,41.2032 61.8962,44.7032 63.5,54C 62.7711,62.0697 58.4378,65.7364 50.5,65C 42.8777,63.0009 40.3777,58.1676 43,50.5C 44.0121,47.7982 45.5121,45.4649 47.5,43.5 Z M 52.5,45.5 C 51.1225,46.2344 49.6225,46.9011 48,47.5C 46.759,48.8767 46.5923,50.21 47.5,51.5C 50.6048,50.4796 53.6048,49.3129 56.5,48C 55.3066,46.9054 53.9733,46.072 52.5,45.5 Z M 54.5,52.5 C 52.337,53.4691 50.0037,54.3024 47.5,55C 51.1454,57.3391 54.1454,56.6724 56.5,53C 55.9056,52.5357 55.2389,52.369 54.5,52.5 Z M 58.5,55.5 C 54.8096,60.3643 50.643,61.0309 46,57.5C 45.7287,59.807 46.8953,60.9736 49.5,61C 51.8333,61.6667 54.1667,61.6667 56.5,61C 58.6057,59.3629 59.2724,57.5295 58.5,55.5 Z"/></g>
<g><path style="opacity:0.72" fill="#000000" d="M 76.5,65.5 C 77.2341,66.7079 77.5674,68.0413 77.5,69.5C 75.5807,71.5224 73.4141,71.8557 71,70.5C 70.4366,66.498 72.2699,64.8313 76.5,65.5 Z"/></g>
</svg>
