<?xml version="1.0" encoding="UTF-8"?>
<svg version="1.1" xmlns="http://www.w3.org/2000/svg" width="110" height="110">
<path d="M0 0 C2.00751815 0.98482022 4.00934459 1.98152514 6 3 C6.99 2.67 7.98 2.34 9 2 C11.84042412 1.97045621 14.66508848 2.06590599 17.50390625 2.16015625 C20.17566478 2.26458783 20.17566478 2.26458783 22 0 C26.43932579 -1.52205456 29.71109702 -0.74733084 34 1 C37.07208641 4.3693851 37.51308636 7.65237643 37.37109375 12.0625 C36.79141066 15.08905594 35.13191452 16.86808548 33 19 C33.97453125 20.04220703 33.97453125 20.04220703 34.96875 21.10546875 C38.41879537 26.0217834 37.70479804 31.21507354 37 37 C35.5573162 41.53917586 33.44576973 44.74182231 30 48 C30.969375 48.78375 31.93875 49.5675 32.9375 50.375 C34.83962346 51.91288705 35.89629957 52.79259913 37 55 C37.33752291 59.8097015 37.08245066 63.13555434 35.3125 67.625 C33.92192673 71.25340714 33.92192673 71.25340714 35.3125 74.9375 C35.869375 75.948125 36.42625 76.95875 37 78 C38.0342568 84.79161965 36.90498553 90.34495407 33 96 C31.18550521 98.38460796 30.41576601 98.93613233 27.40625 99.3984375 C26.4471875 99.39070313 25.488125 99.38296875 24.5 99.375 C23.06140625 99.38660156 23.06140625 99.38660156 21.59375 99.3984375 C18.66918495 98.94918203 17.792665 98.28928166 16 96 C15.071875 96.4640625 15.071875 96.4640625 14.125 96.9375 C9.98614968 99.00692516 6.61955401 99.31101948 2 99 C0.515 98.505 0.515 98.505 -1 98 C-1.99 98.495 -1.99 98.495 -3 99 C-5.33294775 99.04241723 -7.66702567 99.04092937 -10 99 C-12.25038577 99 -14.5008634 99.05002878 -16.75 99.125 C-20.83265915 99.14012096 -24.13863637 98.28712121 -28 97 C-28 97.66 -28 98.32 -28 99 C-31.16594536 99.17638838 -34.33060873 99.28152076 -37.5 99.375 C-38.386875 99.42527344 -39.27375 99.47554688 -40.1875 99.52734375 C-47.29633073 99.68415619 -50.80570788 97.68897341 -56 93 C-56.58773193 92.56276611 -57.17546387 92.12553223 -57.78100586 91.67504883 C-60.24895436 89.83127124 -61.85823755 88.29844726 -63.1875 85.5 C-63 83 -63 83 -60.75 80.25 C-58 78 -58 78 -55 77 C-56.65 76.34 -58.3 75.68 -60 75 C-60.3125 72.25 -60.3125 72.25 -60 69 C-56.78175791 65.59244956 -53.46619746 64.24638069 -49 63 C-51.50971856 61.69494635 -53.98714292 60.60854677 -56.625 59.5625 C-60 58 -60 58 -62 55 C-62.78081234 49.29825406 -62.76723956 43.68608902 -59.48046875 38.75 C-56.88296049 35.67959446 -53.98028213 32.93202043 -51.0234375 30.2109375 C-48.26995942 27.20231087 -47.24184646 24.41652926 -46.5625 20.4375 C-46.78278991 17.84472979 -46.78278991 17.84472979 -48.9375 16.125 C-49.948125 15.42375 -50.95875 14.7225 -52 14 C-53.5936079 12.84740753 -55.17630904 11.67964075 -56.75 10.5 C-57.52859375 9.9328125 -58.3071875 9.365625 -59.109375 8.78125 C-61.18821892 6.82266978 -61.74601909 5.81687914 -62 3 C-61.67 2.34 -61.34 1.68 -61 1 C-52.30745702 -1.24018349 -45.71318762 0.80629263 -38.11328125 5.0546875 C-35.32060632 6.79926409 -33.85136594 8.22295109 -32 11 C-31.46375 10.071875 -30.9275 9.14375 -30.375 8.1875 C-27.38408089 4.17337172 -24.7950522 2.4148134 -19.7890625 1.671875 C-18.22551611 1.51603981 -16.66024433 1.37661497 -15.09375 1.25390625 C-12.85882536 1.08515359 -12.85882536 1.08515359 -10.4375 -0.125 C-6.85891666 -1.40961966 -3.60858175 -0.89860761 0 0 Z M23.25 3.5 C22.8375 3.995 22.425 4.49 22 5 C22.66 5.66 23.32 6.32 24 7 C23.8125 9.5 23.8125 9.5 23 12 C22.01 12.66 21.02 13.32 20 14 C20 14.66 20 15.32 20 16 C23.2315291 17.35273311 25.22237212 18.18084369 28.6875 17.375 C31.33883097 15.79853294 32.61590219 14.76819562 34 12 C33.92401958 8.35294002 33.40618915 6.53224786 31.1875 3.625 C28.28182221 1.4664965 26.11785961 1.04183462 23.25 3.5 Z M-59 3 C-57.97365835 5.7427096 -57.30189902 6.82652458 -54.72265625 8.30859375 C-53.84480469 8.68113281 -52.96695313 9.05367187 -52.0625 9.4375 C-49.01873116 10.88691373 -47.1730095 11.81172495 -44.875 14.3125 C-42.91584646 20.32990015 -43.67723353 26.19308382 -46 32 C-47.32351553 32.68595106 -48.65860778 33.34970073 -50 34 C-54.43555619 37.89242686 -58.31722088 41.78906065 -59.125 47.8125 C-59.32741043 51.08083312 -58.91531858 53.30373307 -57 56 C-54.60540353 57.12891757 -54.60540353 57.12891757 -51.875 57.75 C-50.96492188 57.99234375 -50.05484375 58.2346875 -49.1171875 58.484375 C-48.41851562 58.65453125 -47.71984375 58.8246875 -47 59 C-46 63.75 -46 63.75 -46 66 C-48.97 66.99 -51.94 67.98 -55 69 C-55 69.33 -55 69.66 -55 70 C-49.16211203 69.69804028 -44.42734762 68.55056741 -38.9375 66.5 C-33.91770629 64.64497506 -29.37149591 63.14371895 -24 63 C-22.71351562 62.938125 -21.42703125 62.87625 -20.1015625 62.8125 C-18.65114341 62.76743048 -17.20061336 62.72581016 -15.75 62.6875 C-14.70223389 62.6424231 -14.70223389 62.6424231 -13.63330078 62.59643555 C-10.1909104 62.55864815 -8.36021844 62.7234037 -5.59375 64.84765625 C-3.89073969 67.14755498 -2.90270085 69.29189746 -2 72 C-1.01 71.34 -0.02 70.68 1 70 C0.484375 69.319375 -0.03125 68.63875 -0.5625 67.9375 C-2.42951635 64.12229269 -2.14487832 62.04523674 -1 58 C0.96838204 56.11035324 2.29083454 55.99578714 4.97265625 56.01171875 C7.125 56.1875 7.125 56.1875 11 57 C13.56687367 60.8503105 12.83288724 62.58569763 12 67 C13.12148437 67.18175781 13.12148437 67.18175781 14.265625 67.3671875 C15.25046875 67.53476563 16.2353125 67.70234375 17.25 67.875 C18.22453125 68.03742188 19.1990625 68.19984375 20.203125 68.3671875 C22.77264117 68.94855848 24.72071056 69.70840265 27 71 C31.0757575 67.13875605 33.60469505 64.65419037 34.4375 59.0625 C33.85627521 54.99392648 32.0651381 53.60536738 29 51 C25.39588346 52.44633744 23.88597432 54.19136668 21.8125 57.4375 C21.30332031 58.21996094 20.79414062 59.00242188 20.26953125 59.80859375 C18.86928132 62.05560912 18.86928132 62.05560912 18 65 C16.515 65.495 16.515 65.495 15 66 C15.0825 65.01 15.165 64.02 15.25 63 C15.22065695 55.69358003 10.29633933 49.74033347 6.26953125 43.98046875 C3.10100616 39.03756961 3.78266256 33.23318986 3.671875 27.56640625 C3.33812175 23.86047738 3.33812175 23.86047738 0.53515625 21.69921875 C-0.71974609 20.85810547 -0.71974609 20.85810547 -2 20 C-3.3125 17.25 -3.3125 17.25 -4 15 C-4.59167969 15.3609375 -5.18335938 15.721875 -5.79296875 16.09375 C-6.58316406 16.5578125 -7.37335937 17.021875 -8.1875 17.5 C-8.96480469 17.9640625 -9.74210937 18.428125 -10.54296875 18.90625 C-13.24103386 20.10729647 -15.0806982 20.20741043 -18 20 C-19.51708428 9.44191344 -19.51708428 9.44191344 -17 5 C-21.08298367 5.24017551 -23.47914426 5.61803912 -26.8125 8.0625 C-30.45895709 12.95917095 -31.35074026 17.46995229 -30.625 23.5 C-30.315625 25.2325 -30.315625 25.2325 -30 27 C-29.28457031 26.84402344 -28.56914063 26.68804687 -27.83203125 26.52734375 C-22.40590902 25.51696237 -16.7654022 24.6724232 -11.6484375 27.12890625 C-4.82149753 32.02538192 -1.59371366 37.71786767 -0.25 45.875 C-0.12496094 46.56335937 0.00007813 47.25171875 0.12890625 47.9609375 C0.43178392 49.63841382 0.71768473 51.31894088 1 53 C-2 51 -2 51 -2.58984375 48.79296875 C-2.70457031 47.93316406 -2.81929687 47.07335938 -2.9375 46.1875 C-3.71724547 41.80063928 -4.50568689 39.00899185 -8 36 C-12.74428734 34.23468378 -16.34897663 35.45837551 -20.94921875 37.015625 C-23.97794351 38.46941288 -25.53225478 39.99328909 -26.94921875 43.04296875 C-27.19285156 43.75066406 -27.43648437 44.45835938 -27.6875 45.1875 C-27.93886719 45.90292969 -28.19023438 46.61835937 -28.44921875 47.35546875 C-28.63097656 47.89816406 -28.81273438 48.44085938 -29 49 C-35.3782235 49.36103152 -35.3782235 49.36103152 -37.9375 47.875 C-39.49163189 45.13241432 -39.24616805 43.12065347 -39 40 C-37.6875 37.2890625 -37.6875 37.2890625 -36 34.625 C-33.07283658 29.51627138 -32.24817738 26.82662532 -33 21 C-33.08507812 20.23558594 -33.17015625 19.47117187 -33.2578125 18.68359375 C-33.91028359 14.4702964 -34.6347866 12.40084398 -37.5625 9.1875 C-44.51447408 4.32786764 -50.54200189 2.46298425 -59 3 Z M-13 5 C-15.19780377 9.0924622 -16.42360767 12.34031562 -16 17 C-8.59963806 16.53747738 -2.82147622 10.12281848 2 5 C-0.24875747 4.13149826 -0.24875747 4.13149826 -3 4 C-6.52855805 6.21560622 -8.31593065 8.2432299 -10 12 C-10.99 12.495 -10.99 12.495 -12 13 C-10.74194623 8.49197399 -9.09592835 5.5087188 -6 2 C-9.0957641 2 -10.54514092 3.14388704 -13 5 Z M2.8125 8.6875 C2.09707031 9.18636719 1.38164063 9.68523438 0.64453125 10.19921875 C-1.24394862 11.91764876 -1.24394862 11.91764876 -1.31640625 14.58984375 C-1.17584432 17.03528667 -1.17584432 17.03528667 0.25 18.875 C1.91647097 20.18063205 1.91647097 20.18063205 3.875 19.9375 C6.12095443 19.06089088 6.12095443 19.06089088 8.125 17.25 C12.0881423 14.14841037 16.46706146 12.14764467 21 10 C20.67 8.68 20.34 7.36 20 6 C14.38241014 6.40125642 11.87417866 8.12582134 8 12 C8 12.99 8 13.98 8 15 C7.01 15 6.02 15 5 15 C6.09068668 11.22454612 6.9083091 8.52956528 10 6 C6.50494259 6 5.58927813 6.67952019 2.8125 8.6875 Z M15 16 C14.01 16.66 13.02 17.32 12 18 C12.165 18.61875 12.33 19.2375 12.5 19.875 C13.12177899 22.51756073 13.22506735 23.5498653 12 26 C12.89163577 28.11683841 12.89163577 28.11683841 14 30 C13.01 30.495 13.01 30.495 12 31 C13.32 32.32 14.64 33.64 16 35 C15.01 35.66 14.02 36.32 13 37 C14.485 37.99 14.485 37.99 16 39 C14.68 39.33 13.36 39.66 12 40 C13.31201173 41.56249809 13.31201173 41.56249809 15 43 C15.99 43 16.98 43 18 43 C18.33 42.01 18.66 41.02 19 40 C20.98689731 38.64721885 22.98745218 37.31431695 25 36 C25.66 35.01 26.32 34.02 27 33 C26.34 32.67 25.68 32.34 25 32 C25.495 31.05125 25.99 30.1025 26.5 29.125 C28.14424369 26.27721834 28.14424369 26.27721834 28 24 C27.34 24 26.68 24 26 24 C26 23.01 26 22.02 26 21 C24.39125 20.5978125 24.39125 20.5978125 22.75 20.1875 C19.43491072 19.13772173 17.56122354 18.25387672 15 16 Z M7 21 C6.03929566 23.88211302 5.89418117 25.69850044 5.9375 28.6875 C5.94652344 29.49574219 5.95554687 30.30398437 5.96484375 31.13671875 C5.97644531 31.75160156 5.98804687 32.36648437 6 33 C6.33 33 6.66 33 7 33 C7.33 29.04 7.66 25.08 8 21 C7.67 21 7.34 21 7 21 Z M32 24 C31.67 29.28 31.34 34.56 31 40 C34.06916707 36.93083293 34.07337066 34.07495971 34.1875 29.875 C34.43442418 25.98635379 34.43442418 25.98635379 32 24 Z M10 26 C10.33 27.32 10.66 28.64 11 30 C11.33 29.34 11.66 28.68 12 28 C11.34 27.34 10.68 26.68 10 26 Z M-20 29 C-19.67 29.66 -19.34 30.32 -19 31 C-18.34 30.67 -17.68 30.34 -17 30 C-17.99 29.67 -18.98 29.34 -20 29 Z M28 29 C29 31 29 31 29 31 Z M-26 30 C-25.67 30.66 -25.34 31.32 -25 32 C-24.67 31.34 -24.34 30.68 -24 30 C-24.66 30 -25.32 30 -26 30 Z M-23 32 C-23 32.66 -23 33.32 -23 34 C-22.34 34 -21.68 34 -21 34 C-21 33.34 -21 32.68 -21 32 C-21.66 32 -22.32 32 -23 32 Z M-32 35 C-32 38 -32 38 -32 38 Z M-27 35 C-27 35.66 -27 36.32 -27 37 C-26.34 37 -25.68 37 -25 37 C-25 36.34 -25 35.68 -25 35 C-25.66 35 -26.32 35 -27 35 Z M7 36 C8 39 8 39 8 39 Z M27 36 C28 38 28 38 28 38 Z M-29 38 C-29.33 38.66 -29.66 39.32 -30 40 C-29.34 40 -28.68 40 -28 40 C-28.33 39.34 -28.66 38.68 -29 38 Z M25 38 C24.01 38.495 24.01 38.495 23 39 C23 39.66 23 40.32 23 41 C24.32 40.34 25.64 39.68 27 39 C26.34 38.67 25.68 38.34 25 38 Z M8 39 C8.63389235 42.49844386 10.05177694 44.84086876 12.0625 47.75 C12.61035156 48.54921875 13.15820312 49.3484375 13.72265625 50.171875 C14.14417969 50.77515625 14.56570312 51.3784375 15 52 C15.33 51.01 15.66 50.02 16 49 C14.60707141 46.41618897 14.60707141 46.41618897 12.625 43.8125 C11.65433594 42.46091797 11.65433594 42.46091797 10.6640625 41.08203125 C10.11492187 40.39496094 9.56578125 39.70789062 9 39 C8.67 39 8.34 39 8 39 Z M27.0390625 42.86328125 C25.84410156 44.07564453 25.84410156 44.07564453 24.625 45.3125 C23.83351563 46.11300781 23.04203125 46.91351563 22.2265625 47.73828125 C21.49179688 48.48464844 20.75703125 49.23101562 20 50 C19.40960938 50.55042969 18.81921875 51.10085937 18.2109375 51.66796875 C16.77577574 52.94661536 16.77577574 52.94661536 17 55 C22.46727972 52.55537933 26.8047298 48.44250866 29.4375 43.0625 C29.623125 42.381875 29.80875 41.70125 30 41 C28.6699858 40.88519577 28.6699858 40.88519577 27.0390625 42.86328125 Z M1 60 C0.08571661 61.90708843 0.08571661 61.90708843 0 64 C1.66522058 66.99677258 1.66522058 66.99677258 3.8125 68 C6.3396262 68.24183086 6.3396262 68.24183086 8.75 65.5625 C9.4925 64.716875 10.235 63.87125 11 63 C10.24849977 59.72226496 10.24849977 59.72226496 7 58 C3.81509993 57.7226499 3.81509993 57.7226499 1 60 Z M-28 67 C-26.80761719 66.97679688 -25.61523438 66.95359375 -24.38671875 66.9296875 C-22.82031876 66.91092822 -21.253912 66.89272819 -19.6875 66.875 C-18.90181641 66.85824219 -18.11613281 66.84148437 -17.30664062 66.82421875 C-16.54931641 66.81777344 -15.79199219 66.81132813 -15.01171875 66.8046875 C-14.31522217 66.79421387 -13.61872559 66.78374023 -12.90112305 66.77294922 C-11 67 -11 67 -8 69 C-7.01 70.485 -7.01 70.485 -6 72 C-6.33 70.02 -6.66 68.04 -7 66 C-10.47386432 64.84204523 -13.27769304 64.83170151 -16.9375 64.8125 C-18.77634766 64.79123047 -18.77634766 64.79123047 -20.65234375 64.76953125 C-23.75643812 64.98323203 -25.41362551 65.36001818 -28 67 Z M-37 69 C-34.36 68.67 -31.72 68.34 -29 68 C-32.40254489 66.7848054 -33.93251126 67.13759612 -37 69 Z M-22 70 C-22.33 71.32 -22.66 72.64 -23 74 C-20.525 74.495 -20.525 74.495 -18 75 C-17.67 73.35 -17.34 71.7 -17 70 C-18.65 70 -20.3 70 -22 70 Z M-15 70 C-15 71.32 -15 72.64 -15 74 C-13.68 74.33 -12.36 74.66 -11 75 C-10.67 73.68 -10.34 72.36 -10 71 C-11.65 70.67 -13.3 70.34 -15 70 Z M-32 73 C-31.34 73.66 -30.68 74.32 -30 75 C-28.68 75 -27.36 75 -26 75 C-25.67 73.68 -25.34 72.36 -25 71 C-28.95457848 70.65176193 -28.95457848 70.65176193 -32 73 Z M11 71 C10.67 71.66 10.34 72.32 10 73 C10.99 72.67 11.98 72.34 13 72 C12.34 71.67 11.68 71.34 11 71 Z M4 72 C4.33 72.66 4.66 73.32 5 74 C5.33 73.34 5.66 72.68 6 72 C5.34 72 4.68 72 4 72 Z M21 72 C20.67 72.66 20.34 73.32 20 74 C20.99 74.33 21.98 74.66 23 75 C23 74.01 23 73.02 23 72 C22.34 72 21.68 72 21 72 Z M-38 73 C-38.66 73.66 -39.32 74.32 -40 75 C-38.35 75 -36.7 75 -35 75 C-35 74.34 -35 73.68 -35 73 C-35.99 73 -36.98 73 -38 73 Z M14 73 C14 73.99 14 74.98 14 76 C14.66 75.67 15.32 75.34 16 75 C16 74.34 16 73.68 16 73 C15.34 73 14.68 73 14 73 Z M29 73 C29.99 73.99 30.98 74.98 32 76 C31.67 75.01 31.34 74.02 31 73 C30.34 73 29.68 73 29 73 Z M7 74 C7 74.66 7 75.32 7 76 C7.66 76 8.32 76 9 76 C9 75.34 9 74.68 9 74 C8.34 74 7.68 74 7 74 Z M-7 75 C-7 76.98 -7 78.96 -7 81 C-5.42726432 78.1575146 -5.42726432 78.1575146 -5 75 C-5.66 75 -6.32 75 -7 75 Z M1 75 C1 75.66 1 76.32 1 77 C1.66 77 2.32 77 3 77 C3 76.34 3 75.68 3 75 C2.34 75 1.68 75 1 75 Z M-48.875 75.875 C-49.57625 76.24625 -50.2775 76.6175 -51 77 C-51 77.33 -51 77.66 -51 78 C-42.67682119 80.70078659 -34.72527169 81.66996608 -26 82 C-25.11570312 82.04125 -24.23140625 82.0825 -23.3203125 82.125 C-18.79229972 82.24696667 -15.26053547 81.74791199 -11 80 C-11 79.34 -11 78.68 -11 78 C-17.79242064 76.49961941 -24.68067748 76.98283019 -31.58984375 77.12695312 C-37.14215412 77.18832457 -43.99615366 74.39013372 -48.875 75.875 Z M18 76 C17.67 76.66 17.34 77.32 17 78 C17.99 78.33 18.98 78.66 20 79 C20 78.01 20 77.02 20 76 C19.34 76 18.68 76 18 76 Z M25 76 C25.33 76.99 25.66 77.98 26 79 C26.66 79 27.32 79 28 79 C27.67 78.01 27.34 77.02 27 76 C26.34 76 25.68 76 25 76 Z M32 76 C31.93941406 76.73605469 31.87882812 77.47210938 31.81640625 78.23046875 C31.73261719 79.20628906 31.64882812 80.18210937 31.5625 81.1875 C31.48128906 82.15042969 31.40007812 83.11335938 31.31640625 84.10546875 C31.02650639 86.75751558 30.52320735 89.38396323 30 92 C26.7 92.66 23.4 93.32 20 94 C20.86786388 96.30884829 20.86786388 96.30884829 23.75 97 C27.24180351 97.3740077 27.24180351 97.3740077 29.75 94.375 C33.36077283 89.32456212 34.46483714 85.27530138 34 79 C33.34 78.01 32.68 77.02 32 76 Z M-3 79 C-3 79.66 -3 80.32 -3 81 C-2.34 81 -1.68 81 -1 81 C-1 80.34 -1 79.68 -1 79 C-1.66 79 -2.32 79 -3 79 Z M22 80 C22.33 80.99 22.66 81.98 23 83 C23.66 82.34 24.32 81.68 25 81 C24.01 80.67 23.02 80.34 22 80 Z M-8 81 C-8.33 81.66 -8.66 82.32 -9 83 C-8.34 83 -7.68 83 -7 83 C-7.33 82.34 -7.66 81.68 -8 81 Z M16 81 C17 83 17 83 17 83 Z M2 81 C1.01 81.495 1.01 81.495 0 82 C0 82.66 0 83.32 0 84 C0.99 83.67 1.98 83.34 3 83 C2.67 82.34 2.34 81.68 2 81 Z M-45 83 C-43.16116119 85.28728734 -43.16116119 85.28728734 -40.375 85.125 C-39.59125 85.08375 -38.8075 85.0425 -38 85 C-40.64738916 83.5393715 -41.89448334 83 -45 83 Z M27 83 C27 83.99 27 84.98 27 86 C27.66 85.34 28.32 84.68 29 84 C28.34 83.67 27.68 83.34 27 83 Z M5 84 C4.01 85.485 4.01 85.485 3 87 C4.32 87 5.64 87 7 87 C6.67 86.01 6.34 85.02 6 84 C5.67 84 5.34 84 5 84 Z M11 84 C11.33 84.99 11.66 85.98 12 87 C12.99 86.67 13.98 86.34 15 86 C14.67 85.34 14.34 84.68 14 84 C13.01 84 12.02 84 11 84 Z M19 84 C19.33 84.99 19.66 85.98 20 87 C20.66 86.34 21.32 85.68 22 85 C21.01 84.67 20.02 84.34 19 84 Z M-38 85 C-38 85.33 -38 85.66 -38 86 C-30.08 86 -22.16 86 -14 86 C-14 85.67 -14 85.34 -14 85 C-21.92 85 -29.84 85 -38 85 Z M-2 85 C-2.66 86.32 -3.32 87.64 -4 89 C-3.01 88.67 -2.02 88.34 -1 88 C-1.33 87.01 -1.66 86.02 -2 85 Z M24 87 C23.34 88.32 22.68 89.64 22 91 C22.66 91 23.32 91 24 91 C24.33 89.68 24.66 88.36 25 87 C24.67 87 24.34 87 24 87 Z M-43 88 C-42 90 -42 90 -42 90 Z M-11 88 C-11.33 88.99 -11.66 89.98 -12 91 C-10.68 90.34 -9.36 89.68 -8 89 C-8.99 88.67 -9.98 88.34 -11 88 Z M8 88 C8 88.99 8 89.98 8 91 C8.99 91 9.98 91 11 91 C11 90.01 11 89.02 11 88 C10.01 88 9.02 88 8 88 Z M0 89 C0 89.66 0 90.32 0 91 C0.66 91 1.32 91 2 91 C2 90.34 2 89.68 2 89 C1.34 89 0.68 89 0 89 Z M-34 90 C-34.33 90.66 -34.66 91.32 -35 92 C-34.34 92 -33.68 92 -33 92 C-33.33 91.34 -33.66 90.68 -34 90 Z M-7 90 C-7 91.32 -7 92.64 -7 94 C-6.01 93.01 -5.02 92.02 -4 91 C-4.99 90.67 -5.98 90.34 -7 90 Z M-46 91 C-46 91.66 -46 92.32 -46 93 C-45.34 92.67 -44.68 92.34 -44 92 C-44.66 91.67 -45.32 91.34 -46 91 Z M-25 91 C-25.33 91.66 -25.66 92.32 -26 93 C-25.34 93 -24.68 93 -24 93 C-24.33 92.34 -24.66 91.68 -25 91 Z M-15 92 C-14.67 92.99 -14.34 93.98 -14 95 C-14 94.01 -14 93.02 -14 92 C-14.33 92 -14.66 92 -15 92 Z M4 93 C3.67 93.99 3.34 94.98 3 96 C4.32 96 5.64 96 7 96 C7 95.01 7 94.02 7 93 C6.01 93 5.02 93 4 93 Z " fill="#000000" transform="translate(69,6)"/>
<path d="M0 0 C3.22688295 2.64017696 5.42830923 5.14935762 7 9 C7.32785039 12.818091 6.98121569 16.4475766 4.90625 19.73046875 C2.79231168 21.82679092 0.74082576 22.92839118 -2.22265625 23.21484375 C-5.92214924 22.97397526 -8.70189772 22.13992556 -12.0625 20.5625 C-14.64880789 17.14189924 -14.64304298 14.68523258 -14.42578125 10.4765625 C-13.67105713 6.08669926 -11.68013017 3.23209546 -8.125 0.625 C-5.15938245 -0.24724046 -3.08074453 -0.44010636 0 0 Z M-6.625 3.6875 C-7.800625 4.3371875 -7.800625 4.3371875 -9 5 C-9.33 6.32 -9.66 7.64 -10 9 C-7.03 8.34 -4.06 7.68 -1 7 C-1 6.01 -1 5.02 -1 4 C-3.91919789 2.72345194 -3.91919789 2.72345194 -6.625 3.6875 Z M-9 12 C-8.34 12.66 -7.68 13.32 -7 14 C-4.46048456 13.90888062 -4.46048456 13.90888062 -2 13 C-1.34 12.01 -0.68 11.02 0 10 C-3.15332957 10 -5.99457031 11.10950231 -9 12 Z M2 13 C0.96875 13.70125 -0.0625 14.4025 -1.125 15.125 C-4.24233484 16.94079993 -4.69188761 17.06722452 -8.4375 16.25 C-9.283125 15.8375 -10.12875 15.425 -11 15 C-10.67 15.99 -10.34 16.98 -10 18 C-6.41996227 19.19334591 -3.75684104 19.33543224 0 19 C1.98239527 17.13875077 1.98239527 17.13875077 3 15 C2.67 14.34 2.34 13.68 2 13 Z " fill="#000000" transform="translate(57,43)"/>
<path d="M0 0 C10.24861265 1.69693804 10.24861265 1.69693804 14 6 C16.6925157 11.42710195 17.6638403 16.07256893 16 22 C14.0296697 26.65115146 11.94790789 30.87275818 8.6875 34.75 C6.82018258 36.95458638 6.82018258 36.95458638 6.1875 39.9375 C7.19541316 43.73655729 8.26062896 44.12654583 11.5 46.1875 C12.3353125 46.65542969 13.170625 47.12335937 14.03125 47.60546875 C14.6809375 48.06566406 15.330625 48.52585938 16 49 C16 49.99 16 50.98 16 52 C11.93095079 51.4516884 9.49057036 50.25111135 6.25 47.75 C5.08210938 46.87601563 5.08210938 46.87601563 3.890625 45.984375 C1.65038825 43.63305213 1.22367375 42.20945825 1 39 C2.17075249 36.45189164 3.65614013 34.41787876 5.43359375 32.2578125 C9.98397562 26.60671482 12.72623341 21.14681181 13.1171875 13.796875 C12.82657293 11.34071315 12.42766508 10.03703432 11 8 C7.52251538 5.5490018 3.88612434 3.71561342 0 2 C0 1.34 0 0.68 0 0 Z " fill="#000000" transform="translate(16,11)"/>
<path d="M0 0 C-0.33 1.32 -0.66 2.64 -1 4 C-2.65 4.33 -4.3 4.66 -6 5 C-6.33 3.35 -6.66 1.7 -7 0 C-4.3333581 -1.33332095 -2.83319697 -0.67102033 0 0 Z " fill="#000000" transform="translate(78,67)"/>
<path d="M0 0 C1.98 0 3.96 0 6 0 C5.34 1.65 4.68 3.3 4 5 C3.01 5 2.02 5 1 5 C0.67 3.35 0.34 1.7 0 0 Z " fill="#000000" transform="translate(87,37)"/>
<path d="M0 0 C2.0625 0.4375 2.0625 0.4375 4 1 C3.67 2.65 3.34 4.3 3 6 C2.01 5.67 1.02 5.34 0 5 C-0.75 3 -0.75 3 -1 1 C-0.67 0.67 -0.34 0.34 0 0 Z " fill="#000000" transform="translate(87,28)"/>
</svg>
