<?xml version="1.0" encoding="UTF-8"?>
<!DOCTYPE svg PUBLIC "-//W3C//DTD SVG 1.1//EN" "http://www.w3.org/Graphics/SVG/1.1/DTD/svg11.dtd">
<svg xmlns="http://www.w3.org/2000/svg" version="1.1" width="110px" height="110px" style="shape-rendering:geometricPrecision; text-rendering:geometricPrecision; image-rendering:optimizeQuality; fill-rule:evenodd; clip-rule:evenodd" xmlns:xlink="http://www.w3.org/1999/xlink">
<g><path style="opacity:0.722" fill="#000000" d="M 66.5,4.5 C 73.2842,4.35652 79.9509,5.18985 86.5,7C 104.59,18.5951 104.923,30.5951 87.5,43C 105.933,51.8853 110.267,65.3853 100.5,83.5C 98.9716,84.8613 97.3049,86.028 95.5,87C 101.261,88.7529 103.761,92.5862 103,98.5C 102.167,100.667 100.667,102.167 98.5,103C 91.7144,106.81 85.381,106.31 79.5,101.5C 78.6721,98.3939 78.3388,95.3939 78.5,92.5C 75.1667,93.1667 71.8333,93.8333 68.5,94.5C 68.5545,101.611 65.0545,105.278 58,105.5C 54.7309,105.077 51.5642,104.244 48.5,103C 45.6532,100.429 44.9865,97.4285 46.5,94C 40.8934,94.3506 35.2268,94.5172 29.5,94.5C 30.3524,101.981 27.0191,105.647 19.5,105.5C 15.4373,104.647 11.4373,103.48 7.5,102C 3.14593,98.2103 2.47926,93.877 5.5,89C 6.5,88.6667 7.5,88.3333 8.5,88C 6.23894,85.2284 4.73894,82.0618 4,78.5C 2.72576,69.8448 3.72576,61.5115 7,53.5C 9.59201,50.2379 12.7587,47.7379 16.5,46C 6.06327,40.9589 2.22994,32.7922 5,21.5C 8.90446,13.2725 15.4045,8.43921 24.5,7C 30.1294,5.80318 35.796,5.46985 41.5,6C 44.1667,7.66667 44.1667,9.33333 41.5,11C 37.5534,12.0853 34.0534,13.9186 31,16.5C 30.6913,18.3914 31.5247,19.7248 33.5,20.5C 39.0665,19.1341 44.7332,18.4674 50.5,18.5C 58.5032,19.3364 66.5032,19.8364 74.5,20C 75.8333,18.6667 75.8333,17.3333 74.5,16C 70.4077,14.2504 66.241,12.7504 62,11.5C 61.2783,7.72417 62.7783,5.39083 66.5,4.5 Z M 66.5,7.5 C 71.029,7.04206 71.529,8.04206 68,10.5C 66.7753,10.1377 65.6086,9.63771 64.5,9C 65.4158,8.72158 66.0825,8.22158 66.5,7.5 Z M 29.5,12.5 C 29.33,11.1779 29.6634,10.0113 30.5,9C 33.5,8.33333 36.5,8.33333 39.5,9C 35.9609,9.67916 32.6276,10.8458 29.5,12.5 Z M 92.5,16.5 C 89.3191,14.1627 85.9858,11.996 82.5,10C 84.2889,9.47954 85.9556,9.81288 87.5,11C 89.7658,12.4264 91.4324,14.2598 92.5,16.5 Z M 25.5,10.5 C 21.2098,12.4906 16.8765,14.4906 12.5,16.5C 13.343,14.8267 14.6763,13.66 16.5,13C 19.3527,11.5699 22.3527,10.7366 25.5,10.5 Z M 53.5,10.5 C 54.6431,10.9081 55.6431,11.5748 56.5,12.5C 55.1667,13.8333 53.8333,13.8333 52.5,12.5C 52.8627,11.8165 53.1961,11.1499 53.5,10.5 Z M 29.5,12.5 C 26.0105,18.5206 27.6772,22.1873 34.5,23.5C 37.6811,22.8866 40.8477,22.22 44,21.5C 54.5709,21.9369 65.4042,22.4369 76.5,23C 79.5683,18.2758 78.5683,14.6091 73.5,12C 80.1467,11.8195 85.8134,14.1528 90.5,19C 80.1408,20.6993 73.6408,26.5326 71,36.5C 61.5244,35.3849 52.0244,35.7182 42.5,37.5C 41.1667,37.3333 39.8333,37.1667 38.5,37C 34.3071,32.144 29.4738,27.9774 24,24.5C 21.0963,25.2746 18.4297,24.608 16,22.5C 14.8469,24.497 13.3469,24.8304 11.5,23.5C 15.9697,17.3702 21.9697,13.7035 29.5,12.5 Z M 14.5,40.5 C 12.9826,40.4894 11.8159,39.8228 11,38.5C 7.77543,33.6012 6.77543,28.2678 8,22.5C 7.90565,29.3888 10.0723,35.3888 14.5,40.5 Z M 83.5,27.5 C 84.7082,26.218 86.0416,26.218 87.5,27.5C 86.4425,27.9059 85.1092,27.9059 83.5,27.5 Z M 81.5,28.5 C 80.0998,29.1001 79.0998,30.1001 78.5,31.5C 76.9153,30.9976 76.4153,29.9976 77,28.5C 78.2988,28.0338 79.7988,28.0338 81.5,28.5 Z M 82.5,34.5 C 83.3984,33.8423 84.3984,33.1757 85.5,32.5C 84.9747,31.8076 84.3081,31.3076 83.5,31C 85.7619,30.3581 87.9285,29.5248 90,28.5C 91.2295,29.2752 91.5628,30.2752 91,31.5C 89.9887,30.6634 88.8221,30.33 87.5,30.5C 87.7482,34.8272 86.0816,36.1606 82.5,34.5 Z M 19.5,30.5 C 20.6129,31.9464 20.7796,33.6131 20,35.5C 18.0624,34.1398 16.3957,34.4732 15,36.5C 13.0858,35.324 13.2524,34.324 15.5,33.5C 14.624,32.7492 13.624,32.2492 12.5,32C 14.8087,31.2438 16.8087,31.7438 18.5,33.5C 19.3857,32.675 19.719,31.675 19.5,30.5 Z M 23.5,30.5 C 24.4734,30.9867 25.4734,31.4867 26.5,32C 25.0692,32.4652 23.9025,33.2986 23,34.5C 22.805,33.1807 22.9717,31.8474 23.5,30.5 Z M 78.5,31.5 C 82.0993,31.2619 82.4327,32.2619 79.5,34.5C 78.6143,33.675 78.281,32.675 78.5,31.5 Z M 31.5,35.5 C 31.5,35.8333 31.5,36.1667 31.5,36.5C 28.8239,37.0081 26.1572,37.1747 23.5,37C 25.0762,36.5604 26.4096,35.727 27.5,34.5C 28.7362,35.2458 30.0695,35.5792 31.5,35.5 Z M 54.5,39.5 C 56.8097,38.8362 59.3097,38.5029 62,38.5C 69.1683,38.9763 76.335,39.4763 83.5,40C 73.8263,40.4257 64.1597,40.259 54.5,39.5 Z M 42.5,43.5 C 49.2569,43.1226 55.9236,43.6226 62.5,45C 47.7521,44.2614 33.4188,46.2614 19.5,51C 16.8976,51.8834 14.7309,53.3834 13,55.5C 11.2523,60.251 9.41894,64.9177 7.5,69.5C 5.58181,61.082 8.24847,54.582 15.5,50C 17.4899,48.2494 19.8232,47.2494 22.5,47C 29.3597,46.1357 36.0264,44.969 42.5,43.5 Z M 63.5,44.5 C 77.7684,41.782 89.9351,45.782 100,56.5C 101.156,60.4183 101.656,64.4183 101.5,68.5C 100.5,68.5 99.5,68.5 98.5,68.5C 97.2506,56.4137 90.584,49.247 78.5,47C 73.4586,46.1276 68.4586,45.2943 63.5,44.5 Z M 39.5,48.5 C 43.1667,48.5 46.8333,48.5 50.5,48.5C 50.2354,52.8533 49.7354,57.1866 49,61.5C 45.6064,62.4558 42.1064,62.7892 38.5,62.5C 38.7662,58.4295 38.4328,54.4295 37.5,50.5C 38.2427,49.8182 38.9094,49.1515 39.5,48.5 Z M 53.5,48.5 C 54.8048,50.3972 55.4714,52.7305 55.5,55.5C 55.3333,57.8333 55.1667,60.1667 55,62.5C 54.0754,61.9535 53.2421,61.2868 52.5,60.5C 53.4328,56.5705 53.7662,52.5705 53.5,48.5 Z M 57.5,48.5 C 61.5546,48.1758 65.5546,48.5091 69.5,49.5C 69.2974,53.5295 69.2974,57.5295 69.5,61.5C 65.7901,61.1723 62.2901,61.5057 59,62.5C 58.6489,57.8024 58.1489,53.1358 57.5,48.5 Z M 70.5,49.5 C 71.5417,48.2089 72.7083,48.2089 74,49.5C 74.5772,53.888 74.2439,58.2214 73,62.5C 72.3855,57.9852 71.5522,53.6519 70.5,49.5 Z M 34.5,49.5 C 35.6484,53.9811 35.8151,58.6478 35,63.5C 33.2979,58.8413 33.1312,54.1747 34.5,49.5 Z M 77.5,49.5 C 79.4734,50.4867 81.4734,51.4867 83.5,52.5C 84.4909,56.4454 84.8242,60.4454 84.5,64.5C 81.7938,64.4249 79.1272,64.0916 76.5,63.5C 77.1097,58.6337 77.4431,53.967 77.5,49.5 Z M 30.5,50.5 C 31.8111,54.6829 31.8111,59.0162 30.5,63.5C 28.1667,64.1667 25.8333,64.8333 23.5,65.5C 22.3401,61.5411 22.1735,57.5411 23,53.5C 25.5667,52.4131 28.0667,51.4131 30.5,50.5 Z M 14.5,58.5 C 15.4767,61.2869 15.81,64.2869 15.5,67.5C 13.8908,67.9059 12.5575,67.9059 11.5,67.5C 12.7054,64.5504 13.7054,61.5504 14.5,58.5 Z M 91.5,58.5 C 94.2056,61.026 94.8722,64.026 93.5,67.5C 91.6162,66.8853 90.6162,65.552 90.5,63.5C 90.7284,61.7927 91.0617,60.126 91.5,58.5 Z M 54.5,64.5 C 60.8399,64.849 67.1732,65.349 73.5,66C 82.4829,67.9964 91.4829,69.8298 100.5,71.5C 100.524,76.6201 98.5235,80.7868 94.5,84C 84.1892,88.9278 73.3559,91.4278 62,91.5C 47.8742,91.554 33.7076,91.054 19.5,90C 10.0178,87.7165 6.01781,81.8832 7.5,72.5C 22.9215,67.6197 38.5881,64.953 54.5,64.5 Z M 49.5,77.5 C 53.0479,77.0949 56.3812,77.5949 59.5,79C 58.5,79.5 57.5,80 56.5,80.5C 53.557,79.7565 50.557,79.2565 47.5,79C 48.4158,78.7216 49.0825,78.2216 49.5,77.5 Z M 90.5,89.5 C 97.3996,88.895 100.233,91.895 99,98.5C 94.2191,101.363 89.0524,102.196 83.5,101C 81.0155,98.7162 80.8489,96.2162 83,93.5C 85.4172,91.8724 87.9172,90.539 90.5,89.5 Z M 8.5,90.5 C 14.1033,92.0874 19.77,93.5874 25.5,95C 26.7355,100.114 24.5689,102.614 19,102.5C 15.3724,101.772 11.8724,100.606 8.5,99C 5.88516,96.0931 5.88516,93.2598 8.5,90.5 Z M 49.5,94.5 C 54.2137,94.1734 58.8804,94.5067 63.5,95.5C 64.575,100.112 62.575,102.445 57.5,102.5C 54.8029,101.768 52.1362,100.934 49.5,100C 48.2475,98.1722 48.2475,96.3388 49.5,94.5 Z"/></g>
<g><path style="opacity:0.708" fill="#000000" d="M 51.5,7.5 C 53.9892,7.29777 56.3225,7.79777 58.5,9C 61.2341,13.001 60.0675,15.501 55,16.5C 48.648,15.1628 47.4813,12.1628 51.5,7.5 Z M 53.5,10.5 C 53.1961,11.1499 52.8627,11.8165 52.5,12.5C 53.8333,13.8333 55.1667,13.8333 56.5,12.5C 55.6431,11.5748 54.6431,10.9081 53.5,10.5 Z"/></g>
<g><path style="opacity:0.743" fill="#000000" d="M 48.5,73.5 C 53.7654,72.5706 58.2654,73.9039 62,77.5C 63.1647,80.8139 61.9981,82.8139 58.5,83.5C 54.2207,82.726 49.8874,82.226 45.5,82C 43.7888,80.8668 43.2888,79.3668 44,77.5C 45.3968,75.9297 46.8968,74.5964 48.5,73.5 Z M 49.5,77.5 C 49.0825,78.2216 48.4158,78.7216 47.5,79C 50.557,79.2565 53.557,79.7565 56.5,80.5C 57.5,80 58.5,79.5 59.5,79C 56.3812,77.5949 53.0479,77.0949 49.5,77.5 Z"/></g>
</svg>
