<?xml version="1.0" encoding="UTF-8"?>
<svg version="1.1" xmlns="http://www.w3.org/2000/svg" width="110" height="110">
<path d="M0 0 C5.90841596 3.85784807 10.13076033 8.14612121 12 15 C12.50504843 19.11253722 12.35665283 21.28669434 10.5 25 C7.34561565 28.78526122 3.80171185 31.88111989 0 35 C0.56847656 35.4125 1.13695313 35.825 1.72265625 36.25 C14.3444421 45.6900001 14.3444421 45.6900001 16.69921875 51.8203125 C17.87029396 60.30680556 16.74926854 69.75198738 12 77 C9.75 79.0625 9.75 79.0625 8 80 C8.78375 80.4125 9.5675 80.825 10.375 81.25 C13.14078428 83.09385619 14.09845711 83.8445999 15 87 C14.86486743 90.31074793 14.6711281 92.24833653 12.4375 94.75 C6.17862312 97.95968045 0.75555061 98.57629514 -6 97 C-8.5 95.3125 -8.5 95.3125 -10 93 C-10.31452272 89.85477278 -10.42041821 87.84083641 -9 85 C-10.04800781 85.2165625 -10.04800781 85.2165625 -11.1171875 85.4375 C-12.02726562 85.623125 -12.93734375 85.80875 -13.875 86 C-14.77992187 86.185625 -15.68484375 86.37125 -16.6171875 86.5625 C-19 87 -19 87 -21 87 C-20.9175 87.9075 -20.835 88.815 -20.75 89.75 C-21 93 -21 93 -22.875 95.3125 C-26.66831953 98.32484198 -29.16588717 98.31699101 -34 98 C-38.06371081 96.81679103 -40.58375902 95.62436147 -43 92 C-43 90.35 -43 88.7 -43 87 C-48.28 87 -53.56 87 -59 87 C-59.061875 88.258125 -59.12375 89.51625 -59.1875 90.8125 C-59.59733687 93.94165992 -59.72127933 94.72972541 -62.0625 97 C-67.86166792 98.97418482 -72.26260196 98.53312879 -77.8125 96.25 C-81.06085841 94.64822327 -83.48576118 93.43227466 -85 90 C-85.4375 87 -85.4375 87 -85 84 C-83 81.625 -83 81.625 -81 80 C-81.433125 79.30390625 -81.433125 79.30390625 -81.875 78.59375 C-86.45391305 70.07188405 -86.43386313 59.21163207 -84 49.9375 C-82.06778837 45.03628026 -78.14200358 42.05976986 -74 39 C-74.721875 38.505 -75.44375 38.01 -76.1875 37.5 C-81.09494819 33.13782383 -84.06312247 28.56156967 -85.0625 22 C-85.41696127 15.40702045 -82.80364205 11.26743572 -78.8125 6.25 C-69.65120145 -1.07903884 -58.38925264 -2.43618414 -47 -2 C-46.34 -0.68 -45.68 0.64 -45 2 C-48.41016497 4.86453858 -51.90694544 6.34703566 -56 8 C-56 9.32 -56 10.64 -56 12 C-54.88625 11.835 -53.7725 11.67 -52.625 11.5 C-47.68545148 10.94853525 -42.77672821 10.88707107 -37.8125 10.875 C-37.0405127 10.87048828 -36.26852539 10.86597656 -35.47314453 10.86132812 C-31.19223294 10.87239706 -27.22455821 11.23898029 -23 12 C-21.37605252 12.0620775 -19.74994703 12.08712041 -18.125 12.0625 C-17.34382813 12.05347656 -16.56265625 12.04445313 -15.7578125 12.03515625 C-15.17773438 12.02355469 -14.59765625 12.01195312 -14 12 C-14 11.01 -14 10.02 -14 9 C-14.60328125 8.80664062 -15.2065625 8.61328125 -15.828125 8.4140625 C-16.62734375 8.15367188 -17.4265625 7.89328125 -18.25 7.625 C-19.03890625 7.36976562 -19.8278125 7.11453125 -20.640625 6.8515625 C-22.86627958 6.04826333 -24.90931672 5.10288338 -27 4 C-26.75 1.625 -26.75 1.625 -26 -1 C-18.72297729 -5.71718507 -7.48882303 -3.01968671 0 0 Z M-22 0 C-22.66 0.66 -23.32 1.32 -24 2 C-21.525 2.495 -21.525 2.495 -19 3 C-18.67 2.01 -18.34 1.02 -18 0 C-19.32 0 -20.64 0 -22 0 Z M-58 1 C-58.33 2.32 -58.66 3.64 -59 5 C-54.05 3.515 -54.05 3.515 -49 2 C-49 1.67 -49 1.34 -49 1 C-51.97 1 -54.94 1 -58 1 Z M-6 2 C-2.80331012 4.6486859 0.39486597 6.93992341 4 9 C2.65289578 4.95868733 0.61571666 4.09711566 -3 2 C-3.99 2 -4.98 2 -6 2 Z M-71.1875 4.8125 C-71.88230469 5.16957031 -72.57710937 5.52664063 -73.29296875 5.89453125 C-75.16122795 6.89940743 -75.16122795 6.89940743 -76 9 C-75.34 8.731875 -74.68 8.46375 -74 8.1875 C-70.35060933 6.74294953 -66.67754567 5.37128822 -63 4 C-66.41718524 2.79438633 -68.01536349 3.1282324 -71.1875 4.8125 Z M-15 4 C-13.9790625 5.051875 -13.9790625 5.051875 -12.9375 6.125 C-11 9 -11 9 -11.25 12.3125 C-11.62125 13.6428125 -11.62125 13.6428125 -12 15 C-18.07321517 15.11154885 -24.06707266 14.96751396 -30.125 14.5 C-38.20878018 13.88358975 -45.79020481 13.8444549 -53.8359375 14.87890625 C-56 15 -56 15 -59 14 C-60.125 8.375 -60.125 8.375 -59 5 C-66.44876881 6.6027064 -71.94625163 9.14160455 -77 15 C-77 15.66 -77 16.32 -77 17 C-76.319375 16.79375 -75.63875 16.5875 -74.9375 16.375 C-67.95584581 15.483725 -61.73998948 19.22074177 -56.296875 23.265625 C-53.70700543 25.35260728 -51.8558813 27.21617806 -50 30 C-47.3661322 30.05832574 -44.981514 29.94697328 -42.375 29.6875 C-40.84277495 29.56359551 -39.31020355 29.44391252 -37.77734375 29.328125 C-36.99085449 29.26818359 -36.20436523 29.20824219 -35.39404297 29.14648438 C-31.57454953 28.91278092 -27.76283572 28.91185869 -23.9375 28.9375 C-23.24124512 28.94160889 -22.54499023 28.94571777 -21.82763672 28.94995117 C-20.21838615 28.96239909 -18.60918066 28.98050791 -17 29 C-16.82726562 28.34773438 -16.65453125 27.69546875 -16.4765625 27.0234375 C-14.31184029 20.29095283 -11.71707982 17.43142068 -5.53515625 14.05859375 C-3.01627921 13.00679764 -0.68963948 12.42822525 2 12 C-2.23630347 7.2502052 -6.43170266 4.22776366 -12.9375 3.8125 C-13.618125 3.874375 -14.29875 3.93625 -15 4 Z M7 12 C8 15 8 15 8 15 Z M-81 15 C-81.69328371 22.51827663 -80.67241975 27.02597761 -76 33 C-75.34 32.67 -74.68 32.34 -74 32 C-74.61875 31.236875 -75.2375 30.47375 -75.875 29.6875 C-78.872733 25.27594257 -79.29908821 20.1830582 -80 15 C-80.33 15 -80.66 15 -81 15 Z M8 15 C8 16.65 8 18.3 8 20 C8.33 20 8.66 20 9 20 C9 18.35 9 16.7 9 15 C8.67 15 8.34 15 8 15 Z M-5 19 C-3.02 19.99 -3.02 19.99 -1 21 C-1 20.34 -1 19.68 -1 19 C-2.32 19 -3.64 19 -5 19 Z M1 19 C5 20 5 20 5 20 Z M-11 20 C-11 21.32 -11 22.64 -11 24 C-10.67 23.34 -10.34 22.68 -10 22 C-9.01 21.67 -8.02 21.34 -7 21 C-8.32 20.67 -9.64 20.34 -11 20 Z M-5 23 C-4.34 23.33 -3.68 23.66 -3 24 C-3 24.66 -3 25.32 -3 26 C-3.99 26.33 -4.98 26.66 -6 27 C-4.68 27.33 -3.36 27.66 -2 28 C-1.67 26.35 -1.34 24.7 -1 23 C0.32 23.33 1.64 23.66 3 24 C2.67 23.01 2.34 22.02 2 21 C-0.35287614 21 -2.79373224 22.24893012 -5 23 Z M-65 23 C-65.33 24.32 -65.66 25.64 -66 27 C-64.68 26.01 -63.36 25.02 -62 24 C-62.99 23.67 -63.98 23.34 -65 23 Z M-69 23 C-69 23.99 -69 24.98 -69 26 C-69.99 25.34 -70.98 24.68 -72 24 C-74.15274948 24.30840599 -74.15274948 24.30840599 -76 25 C-75.01 25 -74.02 25 -73 25 C-73 25.66 -73 26.32 -73 27 C-73.99 27.495 -73.99 27.495 -75 28 C-74.01 28 -73.02 28 -72 28 C-70.68 28 -69.36 28 -68 28 C-68 26.35 -68 24.7 -68 23 C-68.33 23 -68.66 23 -69 23 Z M-10 24 C-10 24.99 -10 25.98 -10 27 C-9.34 27 -8.68 27 -8 27 C-7.67 26.01 -7.34 25.02 -7 24 C-7.99 24 -8.98 24 -10 24 Z M-62 27 C-62 27.66 -62 28.32 -62 29 C-62.99 29.33 -63.98 29.66 -65 30 C-62.36 29.67 -59.72 29.34 -57 29 C-59.67642489 26.81509993 -59.67642489 26.81509993 -62 27 Z M-14 27 C-13 29 -13 29 -13 29 Z M-7 27 C-6 29 -6 29 -6 29 Z M-57 29 C-56 31 -56 31 -56 31 Z M-34 31 C-34 31.33 -34 31.66 -34 32 C-24.33456945 33.1922117 -14.71824449 33.09622024 -5 33 C-5 32.67 -5 32.34 -5 32 C-14.70943816 31.16220564 -24.26055028 30.87723383 -34 31 Z M-43 32 C-39 33 -39 33 -39 33 Z M-60 34 C-60 34.33 -60 34.66 -60 35 C-58.02 35 -56.04 35 -54 35 C-54 34.67 -54 34.34 -54 34 C-55.98 34 -57.96 34 -60 34 Z M-78.484375 45.78125 C-81.86936746 50.73659979 -82.38048583 56.10246966 -82 62 C-81.34 62 -80.68 62 -80 62 C-79.70867187 61.03578125 -79.41734375 60.0715625 -79.1171875 59.078125 C-78.70423421 57.80172394 -78.29010923 56.52570154 -77.875 55.25 C-77.48054688 53.99703125 -77.08609375 52.7440625 -76.6796875 51.453125 C-74.1486604 46.24980416 -70.88849705 44.6759961 -65.5625 42.76953125 C-64.386875 42.45371094 -63.21125 42.13789062 -62 41.8125 C-60.824375 41.48894531 -59.64875 41.16539063 -58.4375 40.83203125 C-51.31711496 39.10857442 -44.4241926 38.71166918 -37.125 38.4375 C-35.52011719 38.37272461 -35.52011719 38.37272461 -33.8828125 38.30664062 C-31.25532246 38.20107183 -28.62774578 38.09896209 -26 38 C-37.65483233 30.23011178 -69.00049736 36.36762331 -78.484375 45.78125 Z M-25 36 C-24.67 36.66 -24.34 37.32 -24 38 C-21.90742143 38.34926062 -19.79861012 38.6025426 -17.6875 38.8125 C-9.71628461 39.86177223 -0.72848643 41.60351723 5.0625 47.6875 C7.55378003 51.94678522 8.83941593 56.22556472 10 61 C10.99 61 11.98 61 13 61 C13.04125 59.783125 13.0825 58.56625 13.125 57.3125 C13.14820313 56.62800781 13.17140625 55.94351563 13.1953125 55.23828125 C12.84651126 51.24101902 11.72057748 48.73129239 8.8984375 45.8671875 C-2.02950651 37.23986328 -11.28150177 35.80021605 -25 36 Z M-51 42 C-50.67 46.29 -50.34 50.58 -50 55 C-44.99796919 55.09242673 -44.99796919 55.09242673 -40 55 C-38.12175109 53.12175109 -38.60897603 49.96064724 -38.4375 47.4375 C-38.35371094 46.23996094 -38.26992188 45.04242188 -38.18359375 43.80859375 C-38.12300781 42.88175781 -38.06242187 41.95492187 -38 41 C-39.79158489 40.97303635 -41.58328473 40.95362083 -43.375 40.9375 C-44.87160156 40.92009766 -44.87160156 40.92009766 -46.3984375 40.90234375 C-48.98432453 40.81993398 -48.98432453 40.81993398 -51 42 Z M-35 41 C-35.33 45.29 -35.66 49.58 -36 54 C-35.01 54.33 -34.02 54.66 -33 55 C-33 50.38 -33 45.76 -33 41 C-33.66 41 -34.32 41 -35 41 Z M-31 41 C-30.67 45.62 -30.34 50.24 -30 55 C-26.37 55 -22.74 55 -19 55 C-19 50.38 -19 45.76 -19 41 C-22.96 41 -26.92 41 -31 41 Z M-18 41 C-17.34 45.62 -16.68 50.24 -16 55 C-15.67 55 -15.34 55 -15 55 C-13.89771304 50.59085217 -13.92345464 46.51617599 -14 42 C-15.32 41.67 -16.64 41.34 -18 41 Z M-54 42 C-55.65653686 43.65653686 -55.17106165 45.60650796 -55.1875 47.875 C-55.20167969 48.75929688 -55.21585938 49.64359375 -55.23046875 50.5546875 C-55.17068424 53.25766726 -55.17068424 53.25766726 -53 56 C-53 51.38 -53 46.76 -53 42 C-53.33 42 -53.66 42 -54 42 Z M-11 42 C-12.38226016 44.76452033 -12.09525387 47.0461363 -12.0625 50.125 C-12.05347656 51.22070312 -12.04445313 52.31640625 -12.03515625 53.4453125 C-12.02355469 54.28835937 -12.01195313 55.13140625 -12 56 C-9.36 56.33 -6.72 56.66 -4 57 C-4 53.04 -4 49.08 -4 45 C-6.31 44.01 -8.62 43.02 -11 42 Z M-62.0625 44.5 C-63.361875 44.995 -64.66125 45.49 -66 46 C-66 49.96 -66 53.92 -66 58 C-63.03 57.34 -60.06 56.68 -57 56 C-57 51.71 -57 47.42 -57 43 C-58.78881237 43 -60.4083068 43.86983116 -62.0625 44.5 Z M-1 47 C-1 49.64 -1 52.28 -1 55 C-0.67 55 -0.34 55 0 55 C0 52.36 0 49.72 0 47 C-0.33 47 -0.66 47 -1 47 Z M-70 48 C-70 51.63 -70 55.26 -70 59 C-69.67 59 -69.34 59 -69 59 C-69 55.37 -69 51.74 -69 48 C-69.33 48 -69.66 48 -70 48 Z M-74 51 C-74.99 54.3 -75.98 57.6 -77 61 C-75.68 60.67 -74.36 60.34 -73 60 C-73 57.03 -73 54.06 -73 51 C-73.33 51 -73.66 51 -74 51 Z M3 51 C1.64560332 53.70879335 1.93498549 56.00933268 2 59 C3.32 59.33 4.64 59.66 6 60 C5.67039784 54.98464948 5.67039784 54.98464948 3 51 Z M-82 65 C-81.52481605 71.92689942 -81.52481605 71.92689942 -78.47265625 77.99609375 C-69.48383031 85.36729866 -56.97097921 84.29599868 -45.9855957 84.20581055 C-43.70187054 84.1876145 -41.41855571 84.18530133 -39.13476562 84.18554688 C-21.61734641 84.33814708 -21.61734641 84.33814708 -4.5 81.1875 C-3.3965625 80.87167969 -2.293125 80.55585937 -1.15625 80.23046875 C4.94669255 77.85122753 8.91320205 74.81742691 12 69 C12.13581457 66.37218311 12.13581457 66.37218311 12 64 C-18.15362096 56.5909405 -52.39443199 52.14797048 -82 65 Z M-5 85 C-7.31543207 87.76988076 -7.31543207 87.76988076 -6.6875 90.625 C-6.2258486 92.93501965 -6.2258486 92.93501965 -5 94 C-0.08628477 94.42871341 4.51305679 94.52480349 9.1875 92.875 C11.26632606 91.05828969 11.26632606 91.05828969 11.625 88 C11.29279948 84.84908477 11.29279948 84.84908477 8.75 83.125 C3.42924828 80.94832884 -0.09513973 82.54756986 -5 85 Z M-80 83 C-82.31866559 84.86818251 -82.31866559 84.86818251 -82.125 87.875 C-80.88078761 91.33114552 -80.45313606 91.70469361 -77.375 93.375 C-73.4593951 95.04509672 -70.27313752 95.65740577 -66 95 C-63.41290128 93.41473019 -63.41290128 93.41473019 -62 91 C-61.866226 88.92704239 -61.866226 88.92704239 -63 87 C-65.86146544 85.62232824 -65.86146544 85.62232824 -69.3125 84.75 C-70.46363281 84.41484375 -71.61476563 84.0796875 -72.80078125 83.734375 C-76.10269686 82.85084702 -76.10269686 82.85084702 -80 83 Z M-39 87 C-39.33 88.65 -39.66 90.3 -40 92 C-34.77729131 94.66464729 -31.9180497 95.32854177 -26 94 C-24.89363605 91.60931266 -24.89363605 91.60931266 -24 89 C-24.33 88.34 -24.66 87.68 -25 87 C-29.62 87 -34.24 87 -39 87 Z " fill="#000000" transform="translate(89,8)"/>
<path d="M0 0 C3.0625 2 3.0625 2 5 4 C4.67 5.65 4.34 7.3 4 9 C0.50788957 10.12186156 -2.48845597 9.98682242 -6.125 9.6875 C-7.17945313 9.60886719 -8.23390625 9.53023437 -9.3203125 9.44921875 C-12 9 -12 9 -14 7 C-13.83286119 4.4093485 -13.18799218 3.21932421 -11.5 1.25 C-7.71358577 -0.64320712 -4.14929638 -0.70139352 0 0 Z M-10 6 C-8.37675914 6.22162329 -6.751279 6.42689803 -5.125 6.625 C-3.76761719 6.79902344 -3.76761719 6.79902344 -2.3828125 6.9765625 C-1.59648438 6.98429687 -0.81015625 6.99203125 0 7 C0.66 6.34 1.32 5.68 2 5 C0.41105928 3.41105928 -1.24801424 3.83001589 -3.4375 3.8125 C-4.24058594 3.79832031 -5.04367188 3.78414063 -5.87109375 3.76953125 C-8.21630633 3.79837644 -8.21630633 3.79837644 -10 6 Z " fill="#000000" transform="translate(58,74)"/>
<path d="M0 0 C6.75 0.75 6.75 0.75 9 3 C8.63318342 5.93453261 8.13562754 6.86437246 6 9 C2.5 8.875 2.5 8.875 -1 8 C-2.4375 5.9375 -2.4375 5.9375 -3 4 C-2.01 2.68 -1.02 1.36 0 0 Z M2 3 C1.67 3.99 1.34 4.98 1 6 C2.32 6 3.64 6 5 6 C5 5.34 5 4.68 5 4 C4.01 3.67 3.02 3.34 2 3 Z " fill="#000000" transform="translate(52,8)"/>
</svg>
