<?xml version="1.0" encoding="UTF-8"?>
<!DOCTYPE svg PUBLIC "-//W3C//DTD SVG 1.1//EN" "http://www.w3.org/Graphics/SVG/1.1/DTD/svg11.dtd">
<svg xmlns="http://www.w3.org/2000/svg" version="1.1" width="110px" height="110px" style="shape-rendering:geometricPrecision; text-rendering:geometricPrecision; image-rendering:optimizeQuality; fill-rule:evenodd; clip-rule:evenodd" xmlns:xlink="http://www.w3.org/1999/xlink">
<g><path style="opacity:0.749" fill="#000000" d="M 16.5,4.5 C 40.8356,4.33336 65.1689,4.50003 89.5,5C 102.008,4.50648 106.842,10.3398 104,22.5C 101.933,25.07 99.4327,27.07 96.5,28.5C 101.071,37.1385 103.571,46.1385 104,55.5C 104.376,65.759 104.542,75.9257 104.5,86C 104.302,89.401 102.635,91.7343 99.5,93C 103.763,99.6289 101.763,103.462 93.5,104.5C 92.1055,104.379 90.7722,104.046 89.5,103.5C 88.6816,100.893 88.1816,98.2263 88,95.5C 85.9307,96.2638 83.764,96.7638 81.5,97C 80.6919,97.3076 80.0253,97.8076 79.5,98.5C 81.503,100.133 82.8363,102.133 83.5,104.5C 79.1539,104.666 74.8206,104.499 70.5,104C 68.5676,102.648 67.2343,100.815 66.5,98.5C 63.8333,97.1667 61.1667,97.1667 58.5,98.5C 59.2294,100.595 58.5628,102.428 56.5,104C 51.6189,105.68 48.2856,104.18 46.5,99.5C 46.7093,98.914 47.0426,98.414 47.5,98C 46.2068,97.51 44.8734,97.3433 43.5,97.5C 43.5718,100.522 42.2385,102.688 39.5,104C 34.8452,104.499 30.1785,104.666 25.5,104.5C 27.3614,102.255 28.3614,99.5879 28.5,96.5C 26.1432,96.3367 23.8098,96.5034 21.5,97C 22.653,102.358 20.3197,104.858 14.5,104.5C 6.62378,104.153 4.62378,100.653 8.5,94C 5.97267,91.4264 4.806,88.2597 5,84.5C 4.69734,74.582 4.53067,64.7487 4.5,55C 3.82672,45.023 6.82672,36.3563 13.5,29C 4.03316,24.6644 1.86649,17.8311 7,8.5C 10.0047,6.48831 13.1714,5.15497 16.5,4.5 Z M 22.5,6.5 C 39.4002,6.92561 56.2335,6.92561 73,6.5C 80.4605,7.22915 87.9605,8.06248 95.5,9C 100.74,10.9743 102.74,14.8076 101.5,20.5C 100.5,20.5 99.5,20.5 98.5,20.5C 98.7937,11.2949 94.4604,7.79494 85.5,10C 80.8936,14.0852 75.8936,14.5852 70.5,11.5C 71.5,10.8333 72.5,10.1667 73.5,9.5C 61.5139,8.3341 49.5139,8.16744 37.5,9C 36.6919,9.30762 36.0253,9.80762 35.5,10.5C 39.7956,11.3275 44.1289,11.8275 48.5,12C 43.8261,12.4341 39.1594,12.9341 34.5,13.5C 30.3294,11.2184 25.8294,9.55173 21,8.5C 18.5,9.33333 16,10.1667 13.5,11C 11.6217,14.535 9.78836,18.035 8,21.5C 6.34511,16.0633 7.84511,11.8966 12.5,9C 15.9913,8.26201 19.3246,7.42868 22.5,6.5 Z M 50.5,10.5 C 53.1873,10.3359 55.854,10.5026 58.5,11C 55.4284,13.0597 52.7617,12.893 50.5,10.5 Z M 43.5,14.5 C 45.3911,15.5361 47.2245,15.5361 49,14.5C 49.7429,16.4406 49.5762,18.2739 48.5,20C 37.3515,20.6297 26.5182,22.7964 16,26.5C 13.6101,25.7221 11.4434,24.5555 9.5,23C 20.6537,18.9418 31.987,16.1085 43.5,14.5 Z M 57.5,14.5 C 63.8979,14.2427 70.2312,14.7427 76.5,16C 81.7515,17.5845 87.0848,18.9179 92.5,20C 98.6869,21.7806 98.8536,23.6139 93,25.5C 81.5992,21.1433 69.7659,19.31 57.5,20C 58.5361,18.2245 58.5361,16.3911 57.5,14.5 Z M 41.5,23.5 C 53.1714,23.3335 64.8381,23.5001 76.5,24C 82.541,25.2898 88.2077,27.4565 93.5,30.5C 96.3894,35.1154 98.2227,40.1154 99,45.5C 101.278,59.8138 101.611,74.1472 100,88.5C 97.6667,89.5 95.3333,90.5 93,91.5C 91.8412,86.098 91.6745,80.598 92.5,75C 92.2481,64.387 91.0814,53.887 89,43.5C 86.3413,37.5082 81.8413,33.6748 75.5,32C 58.0689,27.9127 41.0689,29.246 24.5,36C 20.7569,39.7722 18.2569,44.2722 17,49.5C 16.1735,53.4592 15.6735,57.4592 15.5,61.5C 16.1338,71.8444 16.8004,82.1777 17.5,92.5C 10.8875,93.053 7.72087,90.053 8,83.5C 7.33333,72.5 7.33333,61.5 8,50.5C 8.37427,42.2576 11.5409,35.4242 17.5,30C 25.2956,26.6157 33.2956,24.449 41.5,23.5 Z M 49.5,32.5 C 57.988,31.9887 66.3214,32.822 74.5,35C 82.3295,37.4614 86.1629,42.6281 86,50.5C 82.7669,41.9497 76.6002,36.7831 67.5,35C 58.1303,34.2685 48.7969,34.6018 39.5,36C 30.5699,37.2008 24.7366,42.0342 22,50.5C 21.1942,63.8833 21.6942,77.2166 23.5,90.5C 23.1667,91.5 22.8333,92.5 22.5,93.5C 21.914,93.2907 21.414,92.9574 21,92.5C 20.1193,82.5037 19.286,72.5037 18.5,62.5C 19.0688,55.6263 20.5688,48.9596 23,42.5C 23.9476,40.4299 25.4476,38.9299 27.5,38C 34.7923,35.3905 42.1257,33.5572 49.5,32.5 Z M 48.5,38.5 C 51.6399,37.3592 54.9733,37.1925 58.5,38C 56.6667,39.8333 54.8333,41.6667 53,43.5C 51.264,41.9368 49.764,40.2701 48.5,38.5 Z M 51.5,50.5 C 52.0722,48.7446 52.9055,47.0779 54,45.5C 57.1667,43.6667 59.6667,41.1667 61.5,38C 63.2588,37.2025 64.9255,37.3691 66.5,38.5C 61.4621,42.5471 56.4621,46.5471 51.5,50.5 Z M 42.5,39.5 C 43.2506,38.4265 44.2506,38.2599 45.5,39C 47.5299,40.8962 49.1966,43.0629 50.5,45.5C 49.635,46.5827 48.635,46.7494 47.5,46C 45.9697,43.648 44.3031,41.4813 42.5,39.5 Z M 69.5,43.5 C 70.4971,42.2875 71.4971,42.4542 72.5,44C 71.4232,44.4696 70.4232,44.3029 69.5,43.5 Z M 76.5,42.5 C 79.199,45.2721 78.8656,45.7721 75.5,44C 76.056,43.6174 76.3893,43.1174 76.5,42.5 Z M 43.5,46.5 C 44.7733,47.0768 44.7733,47.7435 43.5,48.5C 42.537,48.0302 42.537,47.3635 43.5,46.5 Z M 47.5,83.5 C 58.1873,71.1488 68.8539,58.8155 79.5,46.5C 80.2868,47.2421 80.9535,48.0754 81.5,49C 70.6398,61.0264 59.3065,72.5264 47.5,83.5 Z M 65.5,47.5 C 66.4734,47.9867 67.4734,48.4867 68.5,49C 66.8425,49.7252 65.8425,49.2252 65.5,47.5 Z M 25.5,50.5 C 25.56,49.9569 25.8933,49.6236 26.5,49.5C 30.0199,53.1855 33.3532,57.0188 36.5,61C 36,61.5 35.5,62 35,62.5C 31.5887,58.6006 28.4221,54.6006 25.5,50.5 Z M 40.5,49.5 C 41.7733,50.0768 41.7733,50.7435 40.5,51.5C 39.537,51.0302 39.537,50.3635 40.5,49.5 Z M 56.5,50.5 C 59.0009,50.5109 59.1676,51.1776 57,52.5C 56.5357,51.9056 56.369,51.2389 56.5,50.5 Z M 61.5,51.5 C 62.209,50.596 63.209,50.2627 64.5,50.5C 64.6495,51.552 64.4828,52.552 64,53.5C 63.2917,52.6195 62.4584,51.9528 61.5,51.5 Z M 69.5,50.5 C 70.2891,50.7828 70.9558,51.2828 71.5,52C 70.184,52.5281 69.5173,52.0281 69.5,50.5 Z M 50.5,51.5 C 49.588,53.5952 48.4213,55.5952 47,57.5C 40,64.5 33,71.5 26,78.5C 25.3333,77.5 25.3333,76.5 26,75.5C 34.1094,67.2217 42.276,59.2217 50.5,51.5 Z M 81.5,51.5 C 82.29,52.6085 82.79,53.9419 83,55.5C 83.6667,62.8333 83.6667,70.1667 83,77.5C 79.1667,73 75.3333,68.5 71.5,64C 75.2022,60.0766 78.5356,55.91 81.5,51.5 Z M 86.5,51.5 C 88.8555,54.6202 89.0222,57.9535 87,61.5C 86.5017,58.1832 86.335,54.8499 86.5,51.5 Z M 59.5,52.5 C 60.3094,53.4687 61.3094,54.3021 62.5,55C 61.0096,56.6343 59.6763,56.301 58.5,54C 59.056,53.6174 59.3893,53.1174 59.5,52.5 Z M 24.5,53.5 C 27.3036,57.1541 29.9703,60.9875 32.5,65C 30.027,67.473 27.527,69.973 25,72.5C 24.9043,66.2759 24.7377,59.9426 24.5,53.5 Z M 65.5,54.5 C 66.3864,53.2241 67.3864,53.2241 68.5,54.5C 67.5754,55.5624 66.5754,55.5624 65.5,54.5 Z M 51.5,55.5 C 54.0009,55.5109 54.1676,56.1776 52,57.5C 51.5357,56.9056 51.369,56.2389 51.5,55.5 Z M 56.5,57.5 C 57.0768,56.2267 57.7435,56.2267 58.5,57.5C 58.0302,58.463 57.3635,58.463 56.5,57.5 Z M 63.5,56.5 C 65.7602,57.2376 65.9269,58.2376 64,59.5C 62.2716,58.6477 62.105,57.6477 63.5,56.5 Z M 49.5,57.5 C 50.7759,58.3864 50.7759,59.3864 49.5,60.5C 48.913,59.7666 48.913,58.7666 49.5,57.5 Z M 52.5,62.5 C 53.4971,61.2875 54.4971,61.4542 55.5,63C 54.4232,63.4696 53.4232,63.3029 52.5,62.5 Z M 44.5,63.5 C 45.7965,64.8488 45.6298,66.1821 44,67.5C 42.4132,66.154 42.5798,64.8206 44.5,63.5 Z M 87.5,63.5 C 88.2997,68.1702 88.9664,73.0036 89.5,78C 88.9707,82.8498 88.3041,87.6831 87.5,92.5C 86.9098,82.9374 86.9098,73.2708 87.5,63.5 Z M 49.5,65.5 C 50.3864,64.2241 51.3864,64.2241 52.5,65.5C 51.5754,66.5624 50.5754,66.5624 49.5,65.5 Z M 74.5,73.5 C 71.9984,71.8304 69.9984,69.6637 68.5,67C 69.9961,66.4926 71.1627,66.9926 72,68.5C 73.0945,70.0779 73.9278,71.7446 74.5,73.5 Z M 40.5,67.5 C 41.2891,67.7828 41.9558,68.2828 42.5,69C 41.184,69.5281 40.5173,69.0281 40.5,67.5 Z M 46.5,67.5 C 50.0749,68.2068 50.2416,69.2068 47,70.5C 45.3167,69.8235 45.1501,68.8235 46.5,67.5 Z M 54.5,67.5 C 57.0009,67.5109 57.1676,68.1776 55,69.5C 54.5357,68.9056 54.369,68.2389 54.5,67.5 Z M 65.5,69.5 C 67.337,69.6395 67.6704,70.3061 66.5,71.5C 65.7025,71.0431 65.3691,70.3764 65.5,69.5 Z M 51.5,70.5 C 52.7125,71.4971 52.5458,72.4971 51,73.5C 50.5304,72.4232 50.6971,71.4232 51.5,70.5 Z M 62.5,72.5 C 64.337,72.6395 64.6704,73.3061 63.5,74.5C 62.7025,74.0431 62.3691,73.3764 62.5,72.5 Z M 74.5,73.5 C 78.3731,76.1859 81.2064,79.5193 83,83.5C 79.558,80.568 76.7246,77.2347 74.5,73.5 Z M 47.5,74.5 C 49.337,74.6395 49.6704,75.3061 48.5,76.5C 47.7025,76.0431 47.3691,75.3764 47.5,74.5 Z M 65.5,75.5 C 68.0009,75.5109 68.1676,76.1776 66,77.5C 65.5357,76.9056 65.369,76.2389 65.5,75.5 Z M 37.5,78.5 C 38.2506,77.4265 39.2506,77.2599 40.5,78C 39.6477,79.7284 38.6477,79.895 37.5,78.5 Z M 44.5,78.5 C 45.0768,77.2267 45.7435,77.2267 46.5,78.5C 46.0302,79.463 45.3635,79.463 44.5,78.5 Z M 29.5,78.5 C 30.2891,78.7828 30.9558,79.2828 31.5,80C 30.184,80.5281 29.5173,80.0281 29.5,78.5 Z M 68.5,78.5 C 71.0009,78.5109 71.1676,79.1776 69,80.5C 68.5357,79.9056 68.369,79.2389 68.5,78.5 Z M 35.5,79.5 C 36.2891,79.7828 36.9558,80.2828 37.5,81C 36.184,81.5281 35.5173,81.0281 35.5,79.5 Z M 41.5,81.5 C 42.2506,80.4265 43.2506,80.2599 44.5,81C 43.6477,82.7284 42.6477,82.895 41.5,81.5 Z M 71.5,80.5 C 73.337,80.6395 73.6704,81.3061 72.5,82.5C 71.7025,82.0431 71.3691,81.3764 71.5,80.5 Z M 26.5,81.5 C 27.2891,81.7828 27.9558,82.2828 28.5,83C 27.184,83.5281 26.5173,83.0281 26.5,81.5 Z M 54.5,81.5 C 58.2726,85.4477 61.9392,89.6144 65.5,94C 64.8333,94.6667 64.1667,94.6667 63.5,94C 60.3333,90.8333 57.1667,87.6667 54,84.5C 53.5304,83.4232 53.6971,82.4232 54.5,81.5 Z M 64.5,82.5 C 65.2506,81.4265 66.2506,81.2599 67.5,82C 66.6477,83.7284 65.6477,83.895 64.5,82.5 Z M 32.5,83.5 C 33.0768,82.2267 33.7435,82.2267 34.5,83.5C 34.0302,84.463 33.3635,84.463 32.5,83.5 Z M 62.5,83.5 C 63.7733,84.0768 63.7733,84.7435 62.5,85.5C 61.537,85.0302 61.537,84.3635 62.5,83.5 Z M 68.5,83.5 C 69.7733,84.0768 69.7733,84.7435 68.5,85.5C 67.537,85.0302 67.537,84.3635 68.5,83.5 Z M 74.5,83.5 C 77.0009,83.5109 77.1676,84.1776 75,85.5C 74.5357,84.9056 74.369,84.2389 74.5,83.5 Z M 46.5,84.5 C 45.0795,89.765 41.7462,92.5984 36.5,93C 39.432,89.558 42.7653,86.7246 46.5,84.5 Z M 29.5,86.5 C 30.2506,85.4265 31.2506,85.2599 32.5,86C 31.6477,87.7284 30.6477,87.895 29.5,86.5 Z M 50.5,86.5 C 53.9242,88.4183 56.9242,90.9183 59.5,94C 54.1016,93.974 48.7683,93.974 43.5,94C 46.0386,91.6303 48.3719,89.1303 50.5,86.5 Z M 64.5,86.5 C 66.9732,86.9473 67.1399,87.9473 65,89.5C 63.2716,88.6477 63.105,87.6477 64.5,86.5 Z M 33.5,88.5 C 36.0009,88.5109 36.1676,89.1776 34,90.5C 33.5357,89.9056 33.369,89.2389 33.5,88.5 Z M 74.5,88.5 C 76.6569,89.0533 76.4903,90.0533 74,91.5C 73.5304,90.4232 73.6971,89.4232 74.5,88.5 Z M 67.5,89.5 C 68.7733,90.0768 68.7733,90.7435 67.5,91.5C 66.537,91.0302 66.537,90.3635 67.5,89.5 Z M 76.5,93.5 C 76.5106,91.3141 77.5106,90.4808 79.5,91C 78.6266,92.045 77.6266,92.8783 76.5,93.5 Z M 70.5,92.5 C 72.337,92.6395 72.6704,93.3061 71.5,94.5C 70.7025,94.0431 70.3691,93.3764 70.5,92.5 Z M 11.5,94.5 C 14.7364,94.7082 17.0697,96.2082 18.5,99C 16.2958,101.607 13.6291,102.107 10.5,100.5C 9.23023,98.2432 9.56356,96.2432 11.5,94.5 Z M 92.5,94.5 C 94.1789,94.8923 95.8455,95.3923 97.5,96C 98.5171,97.0495 98.6838,98.2161 98,99.5C 92.0586,102.73 90.2253,101.064 92.5,94.5 Z M 32.5,96.5 C 35.203,96.9519 37.8697,97.6185 40.5,98.5C 38.1501,101.557 35.1501,102.224 31.5,100.5C 32.2458,99.2638 32.5792,97.9305 32.5,96.5 Z M 69.5,98.5 C 72.9384,96.689 75.6051,97.5223 77.5,101C 74.0289,102.163 71.3623,101.33 69.5,98.5 Z M 50.5,98.5 C 57.1667,99.5 57.1667,100.5 50.5,101.5C 50.5,100.5 50.5,99.5 50.5,98.5 Z"/></g>
</svg>
