<?xml version="1.0" encoding="UTF-8"?>
<svg version="1.1" xmlns="http://www.w3.org/2000/svg" width="110" height="110">
<path d="M0 0 C1.5998586 0.00051977 3.19971784 -0.00000244 4.79957581 -0.00151062 C8.14065174 -0.0014213 11.48148437 0.00892406 14.82250977 0.02709961 C19.08005959 0.0497667 23.33725413 0.05032973 27.59484768 0.04358196 C30.89536124 0.04022128 34.19579556 0.04691167 37.49629402 0.0567112 C39.06498867 0.06052876 40.63369219 0.0617259 42.20239067 0.06012535 C64.58921556 0.05630583 64.58921556 0.05630583 70.50390625 5.36328125 C71.95322957 9.71125121 72.29049684 13.83136479 71.50390625 18.36328125 C69.71951519 20.84495743 68.19516327 21.74852704 65.50390625 23.36328125 C64.84390625 23.36328125 64.18390625 23.36328125 63.50390625 23.36328125 C64.01050781 24.32814453 64.01050781 24.32814453 64.52734375 25.3125 C67.67657466 31.69287824 69.28676369 37.45619801 70.14453125 44.515625 C70.40532071 47.20009607 70.40532071 47.20009607 71.01147461 49.07666016 C71.70644406 52.30377164 71.70676981 55.51012751 71.7421875 58.796875 C71.75025925 59.51182632 71.75833099 60.22677765 71.76664734 60.96339417 C71.78044256 62.47207241 71.791185 63.98078126 71.79907227 65.48950195 C71.81061553 67.02865779 71.83110455 68.56777288 71.8605957 70.10668945 C71.90330784 72.33702638 71.91944207 74.56617973 71.9296875 76.796875 C71.94719559 77.48035507 71.96470367 78.16383514 71.98274231 78.86802673 C71.96119443 83.63633872 70.80722205 85.97005706 67.50390625 89.36328125 C68.06078125 90.47703125 68.06078125 90.47703125 68.62890625 91.61328125 C69.50390625 94.36328125 69.50390625 94.36328125 68.87890625 96.55078125 C67.20236941 98.76076164 66.13833056 99.48513981 63.50390625 100.36328125 C58.14676339 100.68470982 58.14676339 100.68470982 55.50390625 99.36328125 C55.09661397 97.04171528 54.75951948 94.70640255 54.50390625 92.36328125 C51.86390625 92.69328125 49.22390625 93.02328125 46.50390625 93.36328125 C47.16390625 93.96140625 47.82390625 94.55953125 48.50390625 95.17578125 C50.50390625 97.36328125 50.50390625 97.36328125 50.50390625 100.36328125 C48.4003713 100.44430185 46.29594673 100.50248032 44.19140625 100.55078125 C43.01964844 100.58558594 41.84789063 100.62039062 40.640625 100.65625 C37.50390625 100.36328125 37.50390625 100.36328125 35.62890625 98.98828125 C34.34632896 97.13566961 33.88479729 95.57244925 33.50390625 93.36328125 C30.86390625 93.36328125 28.22390625 93.36328125 25.50390625 93.36328125 C25.83390625 94.35328125 26.16390625 95.34328125 26.50390625 96.36328125 C25.50390625 98.55078125 25.50390625 98.55078125 23.50390625 100.36328125 C20.00390625 100.86328125 20.00390625 100.86328125 16.50390625 100.36328125 C14.56640625 98.48828125 14.56640625 98.48828125 13.50390625 96.36328125 C13.50390625 95.70328125 13.50390625 95.04328125 13.50390625 94.36328125 C12.51390625 94.03328125 11.52390625 93.70328125 10.50390625 93.36328125 C10.40078125 94.14703125 10.29765625 94.93078125 10.19140625 95.73828125 C9.50390625 98.36328125 9.50390625 98.36328125 6.50390625 100.36328125 C3.1484375 100.55859375 3.1484375 100.55859375 -0.68359375 100.48828125 C-1.95589844 100.47023438 -3.22820313 100.4521875 -4.5390625 100.43359375 C-5.51488281 100.41039063 -6.49070312 100.3871875 -7.49609375 100.36328125 C-7.49609375 99.37328125 -7.49609375 98.38328125 -7.49609375 97.36328125 C-6.50609375 96.86828125 -6.50609375 96.86828125 -5.49609375 96.36328125 C-4.84396083 94.3386487 -4.84396083 94.3386487 -4.49609375 92.36328125 C-7.46609375 92.85828125 -7.46609375 92.85828125 -10.49609375 93.36328125 C-10.59921875 94.14703125 -10.70234375 94.93078125 -10.80859375 95.73828125 C-11.49609375 98.36328125 -11.49609375 98.36328125 -14.49609375 100.36328125 C-21.29669345 100.90301138 -21.29669345 100.90301138 -24.99609375 99.23828125 C-27.12341764 96.57912639 -26.77286248 94.684506 -26.49609375 91.36328125 C-26.49609375 90.37328125 -26.49609375 89.38328125 -26.49609375 88.36328125 C-26.82609375 88.03328125 -27.15609375 87.70328125 -27.49609375 87.36328125 C-28.38779178 82.41612486 -28.64384407 77.57182997 -28.62890625 72.55859375 C-28.62986298 71.83517792 -28.6308197 71.11176208 -28.63180542 70.36642456 C-28.63248177 68.84535637 -28.63066578 67.3242852 -28.62646484 65.80322266 C-28.62112456 63.50156007 -28.62642038 61.20009399 -28.6328125 58.8984375 C-28.64797349 38.3700429 -28.64797349 38.3700429 -24.43359375 31.42578125 C-22.22191324 28.10690205 -22.22191324 28.10690205 -21.49609375 24.36328125 C-22.63728455 23.47536494 -23.80955481 22.62712087 -24.99609375 21.80078125 C-27.2027182 19.97383914 -28.33634238 18.97493203 -29.06640625 16.1796875 C-29.1806147 11.34214406 -28.53914576 7.23625654 -25.49609375 3.36328125 C-17.22039799 -0.41208026 -8.90002842 -0.05742546 0 0 Z M-24.26806641 7.33789062 C-25.67945831 9.66570518 -25.81812441 10.92266808 -25.68359375 13.61328125 C-25.62171875 14.85078125 -25.55984375 16.08828125 -25.49609375 17.36328125 C-24.50609375 17.03328125 -23.51609375 16.70328125 -22.49609375 16.36328125 C-22.24859375 15.08453125 -22.00109375 13.80578125 -21.74609375 12.48828125 C-20.93960339 8.80619 -20.75563572 8.53457895 -17.37109375 6.30078125 C-12.7133593 5.17391001 -10.14602162 5.27829808 -5.49609375 6.36328125 C-5.01100342 6.87479736 -4.52591309 7.38631348 -4.02612305 7.91333008 C-2.60174546 9.55001036 -2.60174546 9.55001036 -0.50317383 9.61206055 C0.23521729 9.55445557 0.9736084 9.49685059 1.734375 9.4375 C2.53681641 9.38271484 3.33925781 9.32792969 4.16601562 9.27148438 C4.99939453 9.19865234 5.83277344 9.12582031 6.69140625 9.05078125 C7.53638672 8.98955078 8.38136719 8.92832031 9.25195312 8.86523438 C11.3370272 8.71209334 13.42065901 8.53953968 15.50390625 8.36328125 C15.50390625 8.03328125 15.50390625 7.70328125 15.50390625 7.36328125 C11.21390625 7.36328125 6.92390625 7.36328125 2.50390625 7.36328125 C2.50390625 6.70328125 2.50390625 6.04328125 2.50390625 5.36328125 C15.04390625 5.03328125 27.58390625 4.70328125 40.50390625 4.36328125 C40.50390625 5.02328125 40.50390625 5.68328125 40.50390625 6.36328125 C39.51390625 6.36328125 38.52390625 6.36328125 37.50390625 6.36328125 C37.50390625 7.02328125 37.50390625 7.68328125 37.50390625 8.36328125 C43.71628067 9.36449887 47.09637265 9.82964894 52.50390625 6.36328125 C55.58011925 5.88073803 58.43231084 5.83553609 61.50390625 6.36328125 C64.80141217 9.04250481 65.03864581 12.26898942 65.50390625 16.36328125 C66.49390625 16.36328125 67.48390625 16.36328125 68.50390625 16.36328125 C68.699119 12.97959365 68.85219781 10.22240042 67.56640625 7.05078125 C56.92408248 -1.65657456 30.58544252 2.14622068 17.51831055 2.12304688 C14.17928013 2.11324566 10.84084266 2.08206119 7.50195312 2.05078125 C-9.56229202 0.90411115 -9.56229202 0.90411115 -24.26806641 7.33789062 Z M17.50390625 6.36328125 C17.50390625 7.02328125 17.50390625 7.68328125 17.50390625 8.36328125 C20.42042799 8.53009234 20.42042799 8.53009234 23.50390625 8.36328125 C24.16390625 7.70328125 24.82390625 7.04328125 25.50390625 6.36328125 C22.86390625 6.36328125 20.22390625 6.36328125 17.50390625 6.36328125 Z M24.50390625 10.36328125 C24.50390625 12.34328125 24.50390625 14.32328125 24.50390625 16.36328125 C25.07197998 16.37262695 25.64005371 16.38197266 26.2253418 16.39160156 C36.61358042 16.6058137 46.13577452 16.81118689 55.91015625 20.62109375 C58.85202168 21.46289259 60.59321933 21.19641265 63.50390625 20.36328125 C63.50390625 19.37328125 63.50390625 18.38328125 63.50390625 17.36328125 C50.65051792 12.34557149 38.36235443 9.57262494 24.50390625 10.36328125 Z M-0.12109375 12.11328125 C-1.58409912 12.37963379 -1.58409912 12.37963379 -3.07666016 12.65136719 C-10.13434775 13.98752564 -16.80546341 15.70961352 -23.49609375 18.36328125 C-21.85198084 20.3535232 -20.68859019 21.29512621 -18.234375 22.1640625 C-14.69238042 22.42175397 -12.076827 21.59117671 -8.68359375 20.55078125 C-2.32669145 18.68810189 3.90282135 17.63442837 10.48754883 16.9597168 C13.78231236 16.87624508 13.78231236 16.87624508 16.50390625 15.36328125 C16.54454457 13.6971101 16.54662725 12.0294003 16.50390625 10.36328125 C10.80618908 10.09649851 5.45616903 11.08686075 -0.12109375 12.11328125 Z M-18.49609375 27.36328125 C-25.68992454 37.76917229 -25.6827275 48.40057186 -25.68139648 60.60595703 C-25.68358792 62.85728736 -25.70179955 65.10813073 -25.72070312 67.359375 C-25.72363705 68.8085921 -25.72562185 70.25781149 -25.7265625 71.70703125 C-25.73067139 73.00833984 -25.73478027 74.30964844 -25.73901367 75.65039062 C-25.48608441 79.51626826 -24.82594095 82.72724333 -23.49609375 86.36328125 C-20.57499611 88.08597986 -18.88473586 88.36328125 -15.49609375 88.36328125 C-15.53686035 87.28433594 -15.57762695 86.20539063 -15.61962891 85.09375 C-15.76896879 81.06106194 -15.90326545 77.02798487 -16.03320312 72.99462891 C-16.09132315 71.2545799 -16.15343136 69.51465906 -16.21972656 67.77490234 C-16.31473514 65.26293305 -16.39502134 62.75084051 -16.47265625 60.23828125 C-16.5048526 59.4702417 -16.53704895 58.70220215 -16.57022095 57.91088867 C-16.75772447 51.03082923 -15.37920119 44.91700308 -12.68359375 38.55078125 C-12.38839844 37.82246094 -12.09320313 37.09414063 -11.7890625 36.34375 C-7.81209674 30.25214383 1.95287022 28.37278379 8.65234375 26.88671875 C10.94828878 26.5690979 13.18575106 26.44276086 15.50390625 26.36328125 C16.15166016 26.3375 16.79941406 26.31171875 17.46679688 26.28515625 C30.07647477 25.83919063 42.25064523 25.95358687 52.50390625 34.36328125 C60.89305373 44.15061997 58.63647088 63.41937668 58.46728516 75.47216797 C58.42449859 79.58048577 58.45251335 83.35484581 59.50390625 87.36328125 C62.14390625 86.37328125 64.78390625 85.38328125 67.50390625 84.36328125 C68.33358928 73.39801087 68.7284391 62.64542579 67.75390625 51.67578125 C67.67994629 50.79325684 67.60598633 49.91073242 67.52978516 49.00146484 C66.72340309 40.98454448 65.05909803 32.13899932 60.50390625 25.36328125 C57.51624704 23.6103713 57.51624704 23.6103713 54.06640625 22.55078125 C52.93332031 22.15246094 51.80023438 21.75414062 50.6328125 21.34375 C49.60027344 21.02019531 48.56773438 20.69664063 47.50390625 20.36328125 C46.9330127 20.18224854 46.36211914 20.00121582 45.77392578 19.81469727 C42.54385638 19.17236576 39.33523984 19.18031501 36.0546875 19.16015625 C35.32380417 19.15445618 34.59292084 19.1487561 33.83988953 19.1428833 C32.28739865 19.13344423 30.73488783 19.12690366 29.18237305 19.12304688 C26.86924013 19.11349932 24.55705905 19.08253643 22.24414062 19.05078125 C0.56864764 18.8143293 0.56864764 18.8143293 -18.49609375 27.36328125 Z M4.50390625 30.36328125 C2.88935547 30.74806641 2.88935547 30.74806641 1.2421875 31.140625 C-3.65181517 32.51614083 -6.71007783 33.44306749 -10.05859375 37.36328125 C-10.87871878 39.22155912 -10.87871878 39.22155912 -11.49609375 41.36328125 C-11.93501953 42.73419922 -11.93501953 42.73419922 -12.3828125 44.1328125 C-15.46560544 54.99930887 -14.45463734 65.34845035 -13.49609375 76.48828125 C-13.35300781 78.20917969 -13.35300781 78.20917969 -13.20703125 79.96484375 C-12.97371392 82.76465174 -12.73666435 85.56408878 -12.49609375 88.36328125 C-11.50609375 88.69328125 -10.51609375 89.02328125 -9.49609375 89.36328125 C-9.604375 87.97496094 -9.604375 87.97496094 -9.71484375 86.55859375 C-10.37839523 77.33921419 -10.70867477 68.1041353 -10.87109375 58.86328125 C-10.90912109 57.7664502 -10.94714844 56.66961914 -10.98632812 55.53955078 C-11.06018377 48.40487873 -10.06872338 43.02065023 -5.49609375 37.36328125 C4.69451924 29.47465739 22.25268271 30.00788273 34.50390625 31.36328125 C40.69973775 33.05550509 45.20315391 35.58466754 49.50390625 40.36328125 C50.56402568 42.33207448 51.57861474 44.32763992 52.50390625 46.36328125 C52.83390625 46.36328125 53.16390625 46.36328125 53.50390625 46.36328125 C53.94726556 43.33365932 53.99791831 41.17634277 52.37890625 38.51171875 C47.25327883 32.23816436 41.37408708 29.88015968 33.50390625 28.36328125 C30.74613648 28.10393913 28.02227549 28.07616059 25.25390625 28.11328125 C24.51374268 28.12004883 23.7735791 28.12681641 23.01098633 28.13378906 C16.69870021 28.25143054 10.65539827 28.89062584 4.50390625 30.36328125 Z M15.50390625 33.36328125 C16.78679382 35.91832082 16.78679382 35.91832082 18.50390625 38.36328125 C19.49390625 38.36328125 20.48390625 38.36328125 21.50390625 38.36328125 C23.70532957 35.92421065 23.70532957 35.92421065 25.50390625 33.36328125 C22.20390625 33.36328125 18.90390625 33.36328125 15.50390625 33.36328125 Z M26.50390625 35.55078125 C25.84390625 36.47890625 25.18390625 37.40703125 24.50390625 38.36328125 C23.61703125 39.22953125 22.73015625 40.09578125 21.81640625 40.98828125 C19.31093831 43.21676971 19.31093831 43.21676971 18.50390625 46.36328125 C21.94901953 44.86096016 24.373935 42.83922466 27.12890625 40.30078125 C31.30946181 36.46050347 31.30946181 36.46050347 33.50390625 35.36328125 C33.50390625 34.70328125 33.50390625 34.04328125 33.50390625 33.36328125 C30.00084895 32.87674551 28.95281642 32.87228575 26.50390625 35.55078125 Z M9.50390625 34.36328125 C10.26123899 35.70432895 11.03523361 37.03597906 11.81640625 38.36328125 C12.24566406 39.10578125 12.67492188 39.84828125 13.1171875 40.61328125 C13.57480469 41.19078125 14.03242187 41.76828125 14.50390625 42.36328125 C15.49390625 42.36328125 16.48390625 42.36328125 17.50390625 42.36328125 C16.33632888 39.04017642 15.35441768 36.52966993 12.50390625 34.36328125 C11.51390625 34.36328125 10.52390625 34.36328125 9.50390625 34.36328125 Z M36.50390625 38.36328125 C36.83390625 39.02328125 37.16390625 39.68328125 37.50390625 40.36328125 C38.16390625 40.03328125 38.82390625 39.70328125 39.50390625 39.36328125 C38.51390625 39.03328125 37.52390625 38.70328125 36.50390625 38.36328125 Z M43.50390625 38.36328125 C43.17390625 39.02328125 42.84390625 39.68328125 42.50390625 40.36328125 C43.49390625 40.69328125 44.48390625 41.02328125 45.50390625 41.36328125 C45.17390625 40.37328125 44.84390625 39.38328125 44.50390625 38.36328125 C44.17390625 38.36328125 43.84390625 38.36328125 43.50390625 38.36328125 Z M-1.49609375 41.36328125 C-0.49609375 43.36328125 -0.49609375 43.36328125 -0.49609375 43.36328125 Z M10.50390625 42.36328125 C10.17390625 43.02328125 9.84390625 43.68328125 9.50390625 44.36328125 C10.16390625 44.36328125 10.82390625 44.36328125 11.50390625 44.36328125 C11.17390625 43.70328125 10.84390625 43.04328125 10.50390625 42.36328125 Z M45.50390625 42.36328125 C45.17390625 43.68328125 44.84390625 45.00328125 44.50390625 46.36328125 C43.84390625 46.36328125 43.18390625 46.36328125 42.50390625 46.36328125 C41.13732791 47.67562534 41.13732791 47.67562534 39.69140625 49.48828125 C36.23871052 53.55623722 32.6475635 57.46755035 29.00390625 61.36328125 C23.58993216 67.17132351 23.58993216 67.17132351 18.25390625 73.05078125 C17.733125 73.63214844 17.21234375 74.21351562 16.67578125 74.8125 C15.28860064 76.47643574 15.28860064 76.47643574 14.50390625 79.36328125 C18.6271561 77.78189366 21.09227427 74.7768174 23.94140625 71.55078125 C28.85340152 66.09010157 33.93305439 60.8587592 39.22631836 55.76635742 C42.22074202 52.83836215 44.46874273 50.01516345 46.50390625 46.36328125 C47.16390625 45.70328125 47.82390625 45.04328125 48.50390625 44.36328125 C48.00890625 43.37328125 48.00890625 43.37328125 47.50390625 42.36328125 C46.84390625 42.36328125 46.18390625 42.36328125 45.50390625 42.36328125 Z M26.50390625 43.36328125 C27.50390625 45.36328125 27.50390625 45.36328125 27.50390625 45.36328125 Z M32.50390625 43.36328125 C32.50390625 44.02328125 32.50390625 44.68328125 32.50390625 45.36328125 C33.49390625 45.03328125 34.48390625 44.70328125 35.50390625 44.36328125 C34.51390625 44.03328125 33.52390625 43.70328125 32.50390625 43.36328125 Z M-7.49609375 45.36328125 C-4.88497723 50.19868221 -2.12152292 54.23432026 1.50390625 58.36328125 C2.16390625 57.70328125 2.82390625 57.04328125 3.50390625 56.36328125 C2.05289885 54.5241443 0.59288966 52.69210595 -0.87109375 50.86328125 C-2.08925781 49.331875 -2.08925781 49.331875 -3.33203125 47.76953125 C-4.04617187 46.97546875 -4.7603125 46.18140625 -5.49609375 45.36328125 C-6.15609375 45.36328125 -6.81609375 45.36328125 -7.49609375 45.36328125 Z M7.50390625 45.36328125 C7.17390625 46.02328125 6.84390625 46.68328125 6.50390625 47.36328125 C7.16390625 47.36328125 7.82390625 47.36328125 8.50390625 47.36328125 C8.17390625 46.70328125 7.84390625 46.04328125 7.50390625 45.36328125 Z M23.50390625 46.36328125 C23.83390625 47.02328125 24.16390625 47.68328125 24.50390625 48.36328125 C24.83390625 47.70328125 25.16390625 47.04328125 25.50390625 46.36328125 C24.84390625 46.36328125 24.18390625 46.36328125 23.50390625 46.36328125 Z M28.50390625 46.36328125 C29.49390625 47.35328125 30.48390625 48.34328125 31.50390625 49.36328125 C31.50390625 48.37328125 31.50390625 47.38328125 31.50390625 46.36328125 C30.51390625 46.36328125 29.52390625 46.36328125 28.50390625 46.36328125 Z M36.50390625 46.36328125 C36.50390625 47.02328125 36.50390625 47.68328125 36.50390625 48.36328125 C37.16390625 48.03328125 37.82390625 47.70328125 38.50390625 47.36328125 C37.84390625 47.03328125 37.18390625 46.70328125 36.50390625 46.36328125 Z M13.91918945 48.81274414 C13.30390381 49.48039795 12.68861816 50.14805176 12.0546875 50.8359375 C11.37083984 51.57134766 10.68699219 52.30675781 9.98242188 53.06445312 C9.26763672 53.84369141 8.55285156 54.62292969 7.81640625 55.42578125 C6.41775266 56.93850483 5.01802216 58.45023345 3.6171875 59.9609375 C2.93479004 60.69715332 2.25239258 61.43336914 1.54931641 62.19189453 C-1.39665316 65.31930601 -4.43123962 68.35277922 -7.49609375 71.36328125 C-7.16609375 72.35328125 -6.83609375 73.34328125 -6.49609375 74.36328125 C-3.55705793 71.44905226 -0.62138395 68.531482 2.3112793 65.61083984 C3.30841792 64.61871522 4.30645413 63.62749186 5.30541992 62.63720703 C6.74507478 61.20974656 8.18141995 59.77902532 9.6171875 58.34765625 C10.48126221 57.48881836 11.34533691 56.62998047 12.2355957 55.74511719 C16.07226387 52.11099936 16.07226387 52.11099936 17.50390625 47.36328125 C15.3919345 47.13830924 15.3919345 47.13830924 13.91918945 48.81274414 Z M48.50390625 47.36328125 C46.99506615 49.12658844 45.49707645 50.89918522 44.00390625 52.67578125 C43.16859375 53.66191406 42.33328125 54.64804687 41.47265625 55.6640625 C39.20926451 58.21042413 39.20926451 58.21042413 39.50390625 61.36328125 C41.42590691 64.13306551 41.42590691 64.13306551 43.87890625 66.98828125 C44.69101563 67.97054687 45.503125 68.9528125 46.33984375 69.96484375 C48.27199919 72.39919476 48.27199919 72.39919476 50.50390625 73.36328125 C50.5620471 69.78001624 50.59754982 66.19687287 50.62890625 62.61328125 C50.64566406 61.5975 50.66242188 60.58171875 50.6796875 59.53515625 C50.68613281 58.55546875 50.69257812 57.57578125 50.69921875 56.56640625 C50.70969238 55.66567383 50.72016602 54.76494141 50.73095703 53.83691406 C50.49112301 51.22401269 49.82702689 49.60663459 48.50390625 47.36328125 Z M53.50390625 47.36328125 C53.50390625 50.66328125 53.50390625 53.96328125 53.50390625 57.36328125 C55.681567 53.00795976 55.5343018 51.89702167 54.50390625 47.36328125 C54.17390625 47.36328125 53.84390625 47.36328125 53.50390625 47.36328125 Z M26.50390625 48.36328125 C26.50390625 49.35328125 26.50390625 50.34328125 26.50390625 51.36328125 C27.49390625 51.36328125 28.48390625 51.36328125 29.50390625 51.36328125 C28.84390625 51.03328125 28.18390625 50.70328125 27.50390625 50.36328125 C27.17390625 49.70328125 26.84390625 49.04328125 26.50390625 48.36328125 Z M-8.49609375 49.36328125 C-8.49609375 55.63328125 -8.49609375 61.90328125 -8.49609375 68.36328125 C-5.52609375 65.88828125 -5.52609375 65.88828125 -2.49609375 63.36328125 C-2.49609375 62.70328125 -2.49609375 62.04328125 -2.49609375 61.36328125 C-1.83609375 61.03328125 -1.17609375 60.70328125 -0.49609375 60.36328125 C-1.63763734 58.5272738 -2.78443691 56.6945332 -3.93359375 54.86328125 C-4.89072266 53.331875 -4.89072266 53.331875 -5.8671875 51.76953125 C-6.40472656 50.97546875 -6.94226563 50.18140625 -7.49609375 49.36328125 C-7.82609375 49.36328125 -8.15609375 49.36328125 -8.49609375 49.36328125 Z M32.50390625 49.36328125 C32.83390625 50.02328125 33.16390625 50.68328125 33.50390625 51.36328125 C34.16390625 51.36328125 34.82390625 51.36328125 35.50390625 51.36328125 C35.50390625 50.70328125 35.50390625 50.04328125 35.50390625 49.36328125 C34.51390625 49.36328125 33.52390625 49.36328125 32.50390625 49.36328125 Z M18.50390625 51.36328125 C18.83390625 52.02328125 19.16390625 52.68328125 19.50390625 53.36328125 C19.83390625 52.70328125 20.16390625 52.04328125 20.50390625 51.36328125 C19.84390625 51.36328125 19.18390625 51.36328125 18.50390625 51.36328125 Z M23.50390625 52.36328125 C24.16390625 53.02328125 24.82390625 53.68328125 25.50390625 54.36328125 C25.50390625 53.70328125 25.50390625 53.04328125 25.50390625 52.36328125 C24.84390625 52.36328125 24.18390625 52.36328125 23.50390625 52.36328125 Z M30.50390625 52.36328125 C30.50390625 53.35328125 30.50390625 54.34328125 30.50390625 55.36328125 C31.16390625 54.70328125 31.82390625 54.04328125 32.50390625 53.36328125 C31.84390625 53.03328125 31.18390625 52.70328125 30.50390625 52.36328125 Z M16.50390625 53.36328125 C16.17390625 54.35328125 15.84390625 55.34328125 15.50390625 56.36328125 C16.16390625 56.36328125 16.82390625 56.36328125 17.50390625 56.36328125 C17.17390625 55.37328125 16.84390625 54.38328125 16.50390625 53.36328125 Z M13.50390625 57.36328125 C14.50390625 59.36328125 14.50390625 59.36328125 14.50390625 59.36328125 Z M19.50390625 57.36328125 C19.83390625 58.02328125 20.16390625 58.68328125 20.50390625 59.36328125 C21.16390625 59.03328125 21.82390625 58.70328125 22.50390625 58.36328125 C21.51390625 58.03328125 20.52390625 57.70328125 19.50390625 57.36328125 Z M11.50390625 59.36328125 C10.51390625 60.84828125 10.51390625 60.84828125 9.50390625 62.36328125 C10.49390625 62.36328125 11.48390625 62.36328125 12.50390625 62.36328125 C12.17390625 61.37328125 11.84390625 60.38328125 11.50390625 59.36328125 Z M54.50390625 59.36328125 C53.65547451 65.9302765 53.37829479 72.30878718 53.44140625 78.92578125 C53.44591797 79.83908203 53.45042969 80.75238281 53.45507812 81.69335938 C53.46671885 83.91673863 53.48306774 86.13997246 53.50390625 88.36328125 C54.16390625 88.36328125 54.82390625 88.36328125 55.50390625 88.36328125 C56.25796811 78.57207806 56.72989524 69.1523318 55.50390625 59.36328125 C55.17390625 59.36328125 54.84390625 59.36328125 54.50390625 59.36328125 Z M16.50390625 60.36328125 C16.83390625 61.02328125 17.16390625 61.68328125 17.50390625 62.36328125 C18.16390625 62.36328125 18.82390625 62.36328125 19.50390625 62.36328125 C19.50390625 61.70328125 19.50390625 61.04328125 19.50390625 60.36328125 C18.51390625 60.36328125 17.52390625 60.36328125 16.50390625 60.36328125 Z M35.50390625 62.36328125 C37.30803268 65.62789098 38.33785318 67.2525792 41.50390625 69.36328125 C40.33607965 65.54915123 40.33607965 65.54915123 37.37890625 63.05078125 C36.76015625 62.82390625 36.14140625 62.59703125 35.50390625 62.36328125 Z M7.50390625 63.36328125 C7.50390625 64.02328125 7.50390625 64.68328125 7.50390625 65.36328125 C8.16390625 65.03328125 8.82390625 64.70328125 9.50390625 64.36328125 C8.84390625 64.03328125 8.18390625 63.70328125 7.50390625 63.36328125 Z M13.50390625 63.36328125 C13.17390625 64.35328125 12.84390625 65.34328125 12.50390625 66.36328125 C13.82390625 66.03328125 15.14390625 65.70328125 16.50390625 65.36328125 C16.17390625 64.70328125 15.84390625 64.04328125 15.50390625 63.36328125 C14.84390625 63.36328125 14.18390625 63.36328125 13.50390625 63.36328125 Z M21.50390625 63.36328125 C21.83390625 64.02328125 22.16390625 64.68328125 22.50390625 65.36328125 C22.83390625 64.70328125 23.16390625 64.04328125 23.50390625 63.36328125 C22.84390625 63.36328125 22.18390625 63.36328125 21.50390625 63.36328125 Z M32.50390625 65.36328125 C32.50390625 66.02328125 32.50390625 66.68328125 32.50390625 67.36328125 C33.16390625 67.36328125 33.82390625 67.36328125 34.50390625 67.36328125 C34.50390625 66.70328125 34.50390625 66.04328125 34.50390625 65.36328125 C33.84390625 65.36328125 33.18390625 65.36328125 32.50390625 65.36328125 Z M18.50390625 66.36328125 C18.50390625 69.36328125 18.50390625 69.36328125 18.50390625 69.36328125 Z M29.50390625 68.36328125 C29.50390625 69.02328125 29.50390625 69.68328125 29.50390625 70.36328125 C30.16390625 70.36328125 30.82390625 70.36328125 31.50390625 70.36328125 C31.50390625 69.70328125 31.50390625 69.04328125 31.50390625 68.36328125 C30.84390625 68.36328125 30.18390625 68.36328125 29.50390625 68.36328125 Z M35.50390625 68.36328125 C36.50390625 70.36328125 36.50390625 70.36328125 36.50390625 70.36328125 Z M41.50390625 69.36328125 C42.88579078 72.57372007 44.42812528 74.4126449 47.12890625 76.61328125 C47.76054688 77.1340625 48.3921875 77.65484375 49.04296875 78.19140625 C49.52507812 78.578125 50.0071875 78.96484375 50.50390625 79.36328125 C49.12202172 76.15284243 47.57968722 74.3139176 44.87890625 72.11328125 C44.24726562 71.5925 43.615625 71.07171875 42.96484375 70.53515625 C42.48273438 70.1484375 42.000625 69.76171875 41.50390625 69.36328125 Z M14.50390625 70.36328125 C14.50390625 71.02328125 14.50390625 71.68328125 14.50390625 72.36328125 C15.16390625 72.36328125 15.82390625 72.36328125 16.50390625 72.36328125 C16.50390625 71.70328125 16.50390625 71.04328125 16.50390625 70.36328125 C15.84390625 70.36328125 15.18390625 70.36328125 14.50390625 70.36328125 Z M-0.49609375 71.36328125 C0.50390625 73.36328125 0.50390625 73.36328125 0.50390625 73.36328125 Z M26.50390625 71.36328125 C27.50390625 73.36328125 27.50390625 73.36328125 27.50390625 73.36328125 Z M32.50390625 71.36328125 C32.83390625 72.02328125 33.16390625 72.68328125 33.50390625 73.36328125 C33.83390625 72.70328125 34.16390625 72.04328125 34.50390625 71.36328125 C33.84390625 71.36328125 33.18390625 71.36328125 32.50390625 71.36328125 Z M4.50390625 73.36328125 C5.16390625 74.02328125 5.82390625 74.68328125 6.50390625 75.36328125 C6.83390625 74.70328125 7.16390625 74.04328125 7.50390625 73.36328125 C6.51390625 73.36328125 5.52390625 73.36328125 4.50390625 73.36328125 Z M11.50390625 73.36328125 C12.16390625 74.02328125 12.82390625 74.68328125 13.50390625 75.36328125 C13.50390625 74.70328125 13.50390625 74.04328125 13.50390625 73.36328125 C12.84390625 73.36328125 12.18390625 73.36328125 11.50390625 73.36328125 Z M-3.49609375 74.36328125 C-3.49609375 75.02328125 -3.49609375 75.68328125 -3.49609375 76.36328125 C-2.83609375 76.03328125 -2.17609375 75.70328125 -1.49609375 75.36328125 C-2.15609375 75.03328125 -2.81609375 74.70328125 -3.49609375 74.36328125 Z M29.50390625 74.36328125 C30.50390625 76.36328125 30.50390625 76.36328125 30.50390625 76.36328125 Z M35.50390625 74.36328125 C35.83390625 75.02328125 36.16390625 75.68328125 36.50390625 76.36328125 C36.83390625 75.70328125 37.16390625 75.04328125 37.50390625 74.36328125 C36.84390625 74.36328125 36.18390625 74.36328125 35.50390625 74.36328125 Z M2.50390625 75.36328125 C2.50390625 76.02328125 2.50390625 76.68328125 2.50390625 77.36328125 C3.16390625 77.03328125 3.82390625 76.70328125 4.50390625 76.36328125 C3.84390625 76.03328125 3.18390625 75.70328125 2.50390625 75.36328125 Z M8.50390625 76.36328125 C9.16390625 77.02328125 9.82390625 77.68328125 10.50390625 78.36328125 C10.83390625 77.70328125 11.16390625 77.04328125 11.50390625 76.36328125 C10.51390625 76.36328125 9.52390625 76.36328125 8.50390625 76.36328125 Z M38.50390625 76.36328125 C38.50390625 77.02328125 38.50390625 77.68328125 38.50390625 78.36328125 C39.16390625 78.36328125 39.82390625 78.36328125 40.50390625 78.36328125 C40.50390625 77.70328125 40.50390625 77.04328125 40.50390625 76.36328125 C39.84390625 76.36328125 39.18390625 76.36328125 38.50390625 76.36328125 Z M-6.49609375 77.36328125 C-6.49609375 78.02328125 -6.49609375 78.68328125 -6.49609375 79.36328125 C-5.83609375 79.03328125 -5.17609375 78.70328125 -4.49609375 78.36328125 C-5.15609375 78.03328125 -5.81609375 77.70328125 -6.49609375 77.36328125 Z M21.50390625 77.36328125 C21.07678331 81.36355932 21.07678331 81.36355932 23.47265625 83.72265625 C24.30796875 84.5115625 25.14328125 85.30046875 26.00390625 86.11328125 C27.256875 87.31210938 27.256875 87.31210938 28.53515625 88.53515625 C29.18484375 89.1384375 29.83453125 89.74171875 30.50390625 90.36328125 C31.16390625 90.03328125 31.82390625 89.70328125 32.50390625 89.36328125 C31.21971584 87.69084723 29.9263344 86.02546678 28.62890625 84.36328125 C27.90960938 83.43515625 27.1903125 82.50703125 26.44921875 81.55078125 C25.80726562 80.82890625 25.1653125 80.10703125 24.50390625 79.36328125 C23.84390625 79.36328125 23.18390625 79.36328125 22.50390625 79.36328125 C22.17390625 78.70328125 21.84390625 78.04328125 21.50390625 77.36328125 Z M31.50390625 77.36328125 C32.16390625 78.02328125 32.82390625 78.68328125 33.50390625 79.36328125 C33.83390625 78.70328125 34.16390625 78.04328125 34.50390625 77.36328125 C33.51390625 77.36328125 32.52390625 77.36328125 31.50390625 77.36328125 Z M-0.49609375 78.36328125 C0.16390625 79.02328125 0.82390625 79.68328125 1.50390625 80.36328125 C1.50390625 79.70328125 1.50390625 79.04328125 1.50390625 78.36328125 C0.84390625 78.36328125 0.18390625 78.36328125 -0.49609375 78.36328125 Z M29.50390625 79.36328125 C29.17390625 80.02328125 28.84390625 80.68328125 28.50390625 81.36328125 C29.16390625 81.36328125 29.82390625 81.36328125 30.50390625 81.36328125 C30.17390625 80.70328125 29.84390625 80.04328125 29.50390625 79.36328125 Z M35.50390625 79.36328125 C35.17390625 80.02328125 34.84390625 80.68328125 34.50390625 81.36328125 C35.16390625 81.36328125 35.82390625 81.36328125 36.50390625 81.36328125 C36.17390625 80.70328125 35.84390625 80.04328125 35.50390625 79.36328125 Z M41.50390625 79.36328125 C41.83390625 80.02328125 42.16390625 80.68328125 42.50390625 81.36328125 C42.83390625 80.70328125 43.16390625 80.04328125 43.50390625 79.36328125 C42.84390625 79.36328125 42.18390625 79.36328125 41.50390625 79.36328125 Z M9.55859375 82.11328125 C8.47964844 83.22703125 8.47964844 83.22703125 7.37890625 84.36328125 C6.65445313 85.10578125 5.93 85.84828125 5.18359375 86.61328125 C4.62929688 87.19078125 4.075 87.76828125 3.50390625 88.36328125 C4.49390625 88.69328125 5.48390625 89.02328125 6.50390625 89.36328125 C9.4679513 86.55523857 11.94889644 84.18012351 13.50390625 80.36328125 C11.31561582 80.140348 11.31561582 80.140348 9.55859375 82.11328125 Z M-3.49609375 81.36328125 C-2.83609375 82.02328125 -2.17609375 82.68328125 -1.49609375 83.36328125 C-1.16609375 82.70328125 -0.83609375 82.04328125 -0.49609375 81.36328125 C-1.48609375 81.36328125 -2.47609375 81.36328125 -3.49609375 81.36328125 Z M44.50390625 81.36328125 C45.50390625 83.36328125 45.50390625 83.36328125 45.50390625 83.36328125 Z M17.50390625 82.36328125 C15.19390625 84.67328125 12.88390625 86.98328125 10.50390625 89.36328125 C13.92623597 90.50405782 16.59063842 90.46143242 20.19140625 90.42578125 C21.37089844 90.41675781 22.55039062 90.40773438 23.765625 90.3984375 C24.66925781 90.38683594 25.57289062 90.37523438 26.50390625 90.36328125 C26.17390625 89.70328125 25.84390625 89.04328125 25.50390625 88.36328125 C24.84390625 88.36328125 24.18390625 88.36328125 23.50390625 88.36328125 C23.25640625 87.74453125 23.00890625 87.12578125 22.75390625 86.48828125 C21.49351371 83.90459239 21.49351371 83.90459239 17.50390625 82.36328125 Z M31.50390625 82.36328125 C31.50390625 83.35328125 31.50390625 84.34328125 31.50390625 85.36328125 C32.16390625 85.03328125 32.82390625 84.70328125 33.50390625 84.36328125 C33.50390625 83.70328125 33.50390625 83.04328125 33.50390625 82.36328125 C32.84390625 82.36328125 32.18390625 82.36328125 31.50390625 82.36328125 Z M0.50390625 84.36328125 C0.83390625 85.02328125 1.16390625 85.68328125 1.50390625 86.36328125 C1.83390625 85.70328125 2.16390625 85.04328125 2.50390625 84.36328125 C1.84390625 84.36328125 1.18390625 84.36328125 0.50390625 84.36328125 Z M41.50390625 84.36328125 C41.50390625 85.35328125 41.50390625 86.34328125 41.50390625 87.36328125 C42.16390625 86.37328125 42.82390625 85.38328125 43.50390625 84.36328125 C42.84390625 84.36328125 42.18390625 84.36328125 41.50390625 84.36328125 Z M34.50390625 85.36328125 C34.17390625 86.02328125 33.84390625 86.68328125 33.50390625 87.36328125 C34.16390625 87.36328125 34.82390625 87.36328125 35.50390625 87.36328125 C35.17390625 86.70328125 34.84390625 86.04328125 34.50390625 85.36328125 Z M44.50390625 86.36328125 C44.50390625 87.35328125 44.50390625 88.34328125 44.50390625 89.36328125 C45.16390625 88.37328125 45.82390625 87.38328125 46.50390625 86.36328125 C45.84390625 86.36328125 45.18390625 86.36328125 44.50390625 86.36328125 Z M37.50390625 88.36328125 C37.50390625 89.02328125 37.50390625 89.68328125 37.50390625 90.36328125 C38.16390625 90.36328125 38.82390625 90.36328125 39.50390625 90.36328125 C39.50390625 89.70328125 39.50390625 89.04328125 39.50390625 88.36328125 C38.84390625 88.36328125 38.18390625 88.36328125 37.50390625 88.36328125 Z M-21.49609375 90.36328125 C-22.15609375 91.02328125 -22.81609375 91.68328125 -23.49609375 92.36328125 C-23.49609375 93.68328125 -23.49609375 95.00328125 -23.49609375 96.36328125 C-18.88101601 97.40542816 -18.88101601 97.40542816 -14.49609375 96.36328125 C-14.52732318 94.39571673 -14.52732318 94.39571673 -15.49609375 92.36328125 C-18.49225321 91.05871565 -18.49225321 91.05871565 -21.49609375 90.36328125 Z M59.50390625 90.36328125 C59.17390625 92.34328125 58.84390625 94.32328125 58.50390625 96.36328125 C60.35115677 97.05487526 60.35115677 97.05487526 62.50390625 97.36328125 C63.49390625 96.70328125 64.48390625 96.04328125 65.50390625 95.36328125 C65.17390625 94.04328125 64.84390625 92.72328125 64.50390625 91.36328125 C62.85390625 91.03328125 61.20390625 90.70328125 59.50390625 90.36328125 Z M-0.49609375 92.36328125 C-0.82609375 94.01328125 -1.15609375 95.66328125 -1.49609375 97.36328125 C0.81390625 97.36328125 3.12390625 97.36328125 5.50390625 97.36328125 C6.16390625 96.04328125 6.82390625 94.72328125 7.50390625 93.36328125 C4.86390625 93.03328125 2.22390625 92.70328125 -0.49609375 92.36328125 Z M36.50390625 93.36328125 C37.16390625 94.68328125 37.82390625 96.00328125 38.50390625 97.36328125 C40.48390625 97.36328125 42.46390625 97.36328125 44.50390625 97.36328125 C43.84390625 96.04328125 43.18390625 94.72328125 42.50390625 93.36328125 C40.52390625 93.36328125 38.54390625 93.36328125 36.50390625 93.36328125 Z M17.50390625 94.36328125 C17.50390625 95.35328125 17.50390625 96.34328125 17.50390625 97.36328125 C19.15390625 97.03328125 20.80390625 96.70328125 22.50390625 96.36328125 C22.17390625 95.70328125 21.84390625 95.04328125 21.50390625 94.36328125 C20.18390625 94.36328125 18.86390625 94.36328125 17.50390625 94.36328125 Z " fill="#000000" transform="translate(33.49609375,4.63671875)"/>
</svg>
