<?xml version="1.0" encoding="UTF-8"?>
<!DOCTYPE svg PUBLIC "-//W3C//DTD SVG 1.1//EN" "http://www.w3.org/Graphics/SVG/1.1/DTD/svg11.dtd">
<svg xmlns="http://www.w3.org/2000/svg" version="1.1" width="110px" height="110px" style="shape-rendering:geometricPrecision; text-rendering:geometricPrecision; image-rendering:optimizeQuality; fill-rule:evenodd; clip-rule:evenodd" xmlns:xlink="http://www.w3.org/1999/xlink">
<g><path style="opacity:0.753" fill="#000000" d="M 49.5,3.5 C 64.6002,2.31417 78.1002,6.31417 90,15.5C 93.0247,10.9623 97.1914,8.29562 102.5,7.5C 100.283,12.5199 99.2828,17.8532 99.5,23.5C 100.116,28.4259 100.116,33.2593 99.5,38C 103.293,48.3617 103.46,58.8617 100,69.5C 98.1667,72 96.3333,74.5 94.5,77C 101.844,81.5364 104.344,88.0364 102,96.5C 100.235,99.473 97.7352,101.64 94.5,103C 89.8333,103.667 85.1667,103.667 80.5,103C 79.6634,101.989 79.33,100.822 79.5,99.5C 76.3093,100.092 73.3093,101.259 70.5,103C 65.5735,104.036 60.9069,103.536 56.5,101.5C 48.4966,105.164 41.83,103.498 36.5,96.5C 35.675,95.6143 34.675,95.281 33.5,95.5C 34.4496,98.0679 34.4496,100.568 33.5,103C 28.9697,103.947 24.6364,103.447 20.5,101.5C 14.6408,104.635 9.47411,103.635 5,98.5C 3.6071,93.9053 3.27376,89.2387 4,84.5C 5.5429,82.6217 7.37623,81.1217 9.5,80C 6.13094,77.6351 3.96428,74.4685 3,70.5C 1.64181,56.0073 3.64181,42.0073 9,28.5C 13.1667,20.3333 19.3333,14.1667 27.5,10C 34.7988,7.28483 42.1321,5.11816 49.5,3.5 Z M 79.5,13.5 C 56.2724,4.84527 35.4391,8.84527 17,25.5C 14.8636,28.2374 13.8636,31.2374 14,34.5C 19.877,25.5524 27.877,19.2191 38,15.5C 45.1294,22.9422 45.296,30.4422 38.5,38C 34.2676,39.9504 29.9342,41.617 25.5,43C 22.9174,46.0681 20.5841,49.2348 18.5,52.5C 18.5599,48.6727 17.3932,48.006 15,50.5C 13.4513,58.6858 15.2847,66.0192 20.5,72.5C 17.4439,78.146 13.6106,78.8126 9,74.5C 4.30143,58.7623 5.63476,43.429 13,28.5C 18.8231,19.3576 26.9898,13.1909 37.5,10C 48.4276,6.24508 59.4276,5.91175 70.5,9C 74.0353,9.66326 77.0353,11.1633 79.5,13.5 Z M 74.5,15.5 C 64.8796,13.5029 55.213,13.1696 45.5,14.5C 47.7797,19.1606 49.7797,23.9939 51.5,29C 58.2551,32.5174 65.2551,33.5174 72.5,32C 76.5924,28.2515 79.4257,23.7515 81,18.5C 81.8699,19.1079 82.3699,19.9412 82.5,21C 80.9129,25.7843 78.5796,30.1177 75.5,34C 73.7216,34.704 71.8882,35.204 70,35.5C 65.1902,34.8074 60.3569,34.3074 55.5,34C 51.5013,33.3322 48.668,31.1655 47,27.5C 46.7435,23.6233 45.7435,19.9567 44,16.5C 43.2496,15.8742 42.4162,15.3742 41.5,15C 43.2852,13.8372 45.2852,13.1705 47.5,13C 54.5,12.3333 61.5,12.3333 68.5,13C 70.8516,13.2401 72.8516,14.0735 74.5,15.5 Z M 95.5,37.5 C 94.3101,40.0771 92.3101,40.9105 89.5,40C 87.9716,38.3523 87.3049,36.3523 87.5,34C 88.2695,26.2964 91.1028,19.463 96,13.5C 95.7487,21.6404 95.5821,29.6404 95.5,37.5 Z M 84.5,16.5 C 87.3321,16.9419 88.3321,18.2752 87.5,20.5C 86.5,19.1667 85.5,17.8333 84.5,16.5 Z M 64.5,18.5 C 65.5735,19.2506 65.7401,20.2506 65,21.5C 63.2716,20.6477 63.105,19.6477 64.5,18.5 Z M 72.5,20.5 C 73.7733,21.0768 73.7733,21.7435 72.5,22.5C 71.537,22.0302 71.537,21.3635 72.5,20.5 Z M 61.5,22.5 C 64.0009,22.5109 64.1676,23.1776 62,24.5C 61.5357,23.9056 61.369,23.2389 61.5,22.5 Z M 60.5,62.5 C 57.4291,57.3089 53.0958,56.1422 47.5,59C 42.4973,64.5026 37.164,69.6693 31.5,74.5C 30.9453,68.3809 28.112,63.7142 23,60.5C 20.9155,55.815 21.5822,51.4817 25,47.5C 30.8158,44.6701 36.6492,41.8368 42.5,39C 44.0685,36.6959 45.2352,34.1959 46,31.5C 48.1005,34.4668 50.9338,36.3002 54.5,37C 61.8734,38.5099 69.2067,38.5099 76.5,37C 80.7844,32.9398 83.9511,28.1065 86,22.5C 84.5695,27.6752 83.9029,33.0085 84,38.5C 86.9776,44.4908 91.3109,45.8241 97,42.5C 98.8401,44.1654 99.5068,46.1654 99,48.5C 85.5372,42.4205 72.0372,42.5871 58.5,49C 55.5774,53.3352 56.5774,56.5018 61.5,58.5C 60.7542,59.7362 60.4208,61.0695 60.5,62.5 Z M 33.5,23.5 C 34.8333,23.5 36.1667,23.5 37.5,23.5C 37.6641,26.1873 37.4974,28.854 37,31.5C 36.2411,33.6349 34.7411,34.9682 32.5,35.5C 32.6775,32.5974 31.6775,29.764 29.5,27C 30.7305,25.5952 32.0639,24.4286 33.5,23.5 Z M 58.5,25.5 C 60.337,25.6395 60.6704,26.3061 59.5,27.5C 58.7025,27.0431 58.3691,26.3764 58.5,25.5 Z M 20.5,38.5 C 21.1283,35.91 22.295,33.5766 24,31.5C 25.6001,34.9709 24.4334,37.3042 20.5,38.5 Z M 74.5,49.5 C 82.0506,49.7991 89.3839,51.2991 96.5,54C 99.5572,56.5718 100.057,59.7385 98,63.5C 94.5403,59.0062 90.0403,55.8395 84.5,54C 79.467,53.0653 74.467,52.0653 69.5,51C 71.3817,50.8019 73.0484,50.3019 74.5,49.5 Z M 98.5,52.5 C 96.7446,51.9278 95.0779,51.0945 93.5,50C 95.9278,49.253 97.5944,50.0863 98.5,52.5 Z M 63.5,50.5 C 62.7659,51.7079 62.4326,53.0413 62.5,54.5C 58.8053,53.1051 59.1387,51.7718 63.5,50.5 Z M 18.5,52.5 C 18.804,55.5219 19.304,58.5219 20,61.5C 22.3333,63.8333 24.6667,66.1667 27,68.5C 27.6667,70.1667 27.6667,71.8333 27,73.5C 25.5619,74.9003 24.7286,76.567 24.5,78.5C 27.941,78.6989 31.2744,78.1989 34.5,77C 39.2105,72.8919 43.2105,68.2252 46.5,63C 49.2171,60.9238 52.2171,60.2571 55.5,61C 56.2931,62.0852 56.9598,63.2519 57.5,64.5C 55.8509,66.6499 54.0176,68.6499 52,70.5C 51.0561,73.3471 51.5561,75.8471 53.5,78C 61.5082,78.533 69.5082,79.1997 77.5,80C 74.9615,81.0474 72.2948,81.5474 69.5,81.5C 62.6787,81.2863 56.012,80.2863 49.5,78.5C 47.5554,73.0415 49.0554,68.7082 54,65.5C 54.4828,64.552 54.6495,63.552 54.5,62.5C 51.4359,62.1437 48.7693,62.9771 46.5,65C 44.0814,69.172 41.4148,73.172 38.5,77C 32.6696,81.0865 26.6696,81.4198 20.5,78C 23.9661,74.7054 24.4661,70.8721 22,66.5C 18.0035,62.3781 16.8368,57.7114 18.5,52.5 Z M 64.5,58.5 C 68.8461,58.3343 73.1794,58.501 77.5,59C 73.8333,59.3333 70.1667,59.6667 66.5,60C 71.7334,65.2311 71.0667,65.7311 64.5,61.5C 63.2086,60.4728 63.2086,59.4728 64.5,58.5 Z M 89.5,59.5 C 91.0269,59.427 92.0269,60.0937 92.5,61.5C 90.9731,61.573 89.9731,60.9063 89.5,59.5 Z M 84.5,62.5 C 85.7211,61.5354 87.0544,61.702 88.5,63C 91.7354,65.3459 93.4021,68.1792 93.5,71.5C 90.8123,68.1456 87.8123,65.1456 84.5,62.5 Z M 60.5,62.5 C 64.4789,65.4935 68.8123,67.9935 73.5,70C 74.8333,72 76.1667,74 77.5,76C 70.2262,75.61 62.8929,75.4434 55.5,75.5C 57.5759,71.3893 59.2425,67.056 60.5,62.5 Z M 74.5,62.5 C 77.2706,62.4207 79.9373,62.9207 82.5,64C 86.5,66.6667 89.8333,70 92.5,74C 90.444,76.4441 87.944,78.2774 85,79.5C 85.3671,71.3813 81.8671,65.7146 74.5,62.5 Z M 74.5,66.5 C 73.2438,66.5386 72.2438,66.0386 71.5,65C 72.9976,64.4153 73.9976,64.9153 74.5,66.5 Z M 74.5,66.5 C 78.8544,67.3562 81.3544,70.0228 82,74.5C 82.6667,76.5 82.6667,78.5 82,80.5C 81.3168,74.7968 78.8168,70.1302 74.5,66.5 Z M 43.5,86.5 C 44.1515,85.9094 44.8182,85.2427 45.5,84.5C 46.2975,84.9569 46.6309,85.6236 46.5,86.5C 47.0967,86.2648 47.4301,85.7648 47.5,85C 46.6604,83.8288 45.8271,82.6621 45,81.5C 41.3227,83.4938 37.156,85.1605 32.5,86.5C 27.2831,84.745 21.9498,84.245 16.5,85C 13.9316,86.1271 12.5982,88.1271 12.5,91C 13.6717,94.3042 15.005,97.4709 16.5,100.5C 7.95971,99.1451 4.79304,94.1451 7,85.5C 12.5265,80.2287 18.3599,79.3954 24.5,83C 33.3442,84.0568 40.1775,80.8901 45,73.5C 44.9682,78.1103 46.9682,81.4437 51,83.5C 50.5532,86.8505 48.7199,89.3505 45.5,91C 40.8049,91.9066 36.1382,92.5733 31.5,93C 28.8333,95.3333 28.8333,97.6667 31.5,100C 24.8835,101.44 20.0502,98.9403 17,92.5C 16.3333,91.5 16.3333,90.5 17,89.5C 18.5741,88.1524 20.4075,87.4858 22.5,87.5C 26.2234,88.2968 29.8901,89.2968 33.5,90.5C 36.9518,89.6083 39.9518,87.9416 42.5,85.5C 43.1067,85.6236 43.44,85.9569 43.5,86.5 Z M 91.5,79.5 C 99.7892,83.8684 101.456,90.0351 96.5,98C 92.4602,100.427 88.1269,101.427 83.5,101C 82.4464,99.6124 82.2797,98.1124 83,96.5C 86.4586,92.4795 87.6253,87.9795 86.5,83C 88.2331,81.8111 89.8998,80.6444 91.5,79.5 Z M 45.5,94.5 C 50.2665,92.3897 53.2665,88.723 54.5,83.5C 57.8599,83.6159 61.1933,83.9492 64.5,84.5C 63.5181,89.9588 60.8514,94.4588 56.5,98C 50.7256,101.228 45.3923,100.561 40.5,96C 42.1601,94.7356 43.8268,94.2356 45.5,94.5 Z M 82.5,83.5 C 84.1601,88.7203 82.4934,92.887 77.5,96C 73.0989,98.5223 68.4322,100.356 63.5,101.5C 62.3279,101.081 61.3279,100.415 60.5,99.5C 62.8635,96.3015 65.0302,92.9681 67,89.5C 67.4935,87.8659 67.6602,86.1992 67.5,84.5C 72.6946,84.8205 77.6946,84.4872 82.5,83.5 Z"/></g>
<g><path style="opacity:0.755" fill="#000000" d="M 36.5,19.5 C 37.8333,19.5 39.1667,19.5 40.5,19.5C 40.8216,24.4579 40.3216,29.4579 39,34.5C 37.2691,36.6166 35.1024,38.1166 32.5,39C 26.4751,39.1761 21.8084,41.6761 18.5,46.5C 17.914,46.2907 17.414,45.9574 17,45.5C 15.8978,40.816 16.5645,36.4826 19,32.5C 23.7781,26.5496 29.6115,22.2162 36.5,19.5 Z M 33.5,23.5 C 32.0639,24.4286 30.7305,25.5952 29.5,27C 31.6775,29.764 32.6775,32.5974 32.5,35.5C 34.7411,34.9682 36.2411,33.6349 37,31.5C 37.4974,28.854 37.6641,26.1873 37.5,23.5C 36.1667,23.5 34.8333,23.5 33.5,23.5 Z M 20.5,38.5 C 24.4334,37.3042 25.6001,34.9709 24,31.5C 22.295,33.5766 21.1283,35.91 20.5,38.5 Z"/></g>
<g><path style="opacity:0.791" fill="#000000" d="M 95.5,37.5 C 90.3826,39.532 88.2159,37.8653 89,32.5C 94.5027,29.1429 96.6694,30.8096 95.5,37.5 Z"/></g>
<g><path style="opacity:0.602" fill="#000000" d="M 59.5,41.5 C 60.5,41.5 61.5,41.5 62.5,41.5C 62.5,42.5 62.5,43.5 62.5,44.5C 61.5,44.5 60.5,44.5 59.5,44.5C 59.5,43.5 59.5,42.5 59.5,41.5 Z"/></g>
<g><path style="opacity:0.523" fill="#000000" d="M 52.5,43.5 C 53.9953,43.4148 54.9953,44.0815 55.5,45.5C 54.1667,46.8333 52.8333,46.8333 51.5,45.5C 51.8627,44.8165 52.1961,44.1499 52.5,43.5 Z"/></g>
<g><path style="opacity:0.555" fill="#000000" d="M 46.5,46.5 C 49.4282,47.637 49.7615,48.9704 47.5,50.5C 45.3576,49.5629 45.0243,48.2296 46.5,46.5 Z"/></g>
<g><path style="opacity:0.619" fill="#000000" d="M 40.5,50.5 C 43.9571,50.6672 44.2904,51.6672 41.5,53.5C 40.6143,52.675 40.281,51.675 40.5,50.5 Z"/></g>
<g><path style="opacity:0.842" fill="#000000" d="M 36.5,53.5 C 38.337,53.6395 38.6704,54.3061 37.5,55.5C 36.7025,55.0431 36.3691,54.3764 36.5,53.5 Z"/></g>
<g><path style="opacity:0.645" fill="#000000" d="M 32.5,57.5 C 34.4646,57.9483 34.7979,58.9483 33.5,60.5C 31.4807,59.8671 31.1474,58.8671 32.5,57.5 Z"/></g>
<g><path style="opacity:0.075" fill="#000000" d="M 56.5,93.5 C 56.73,91.0172 57.3966,90.5172 58.5,92C 58.1639,93.0299 57.4972,93.5299 56.5,93.5 Z"/></g>
</svg>
