<?xml version="1.0" encoding="UTF-8"?>
<svg version="1.1" xmlns="http://www.w3.org/2000/svg" width="110" height="110">
<path d="M0 0 C0.44730469 -0.42152344 0.89460938 -0.84304688 1.35546875 -1.27734375 C7.3602812 -6.71880492 7.3602812 -6.71880492 12 -7 C11.47731534 -4.23723823 10.89130413 -1.6739124 10 1 C9.76809055 4.78772442 9.81483052 8.58091877 9.8125 12.375 C9.80025391 13.4165625 9.78800781 14.458125 9.77539062 15.53125 C9.77345703 16.53929688 9.77152344 17.54734375 9.76953125 18.5859375 C9.76542236 19.5042334 9.76131348 20.4225293 9.75708008 21.36865234 C10.02259391 24.24474091 10.90379619 26.34315794 12 29 C12.38960751 32.09919789 12.32464588 35.19101009 12.3125 38.3125 C12.32861328 39.12912109 12.34472656 39.94574219 12.36132812 40.78710938 C12.36793851 49.08313853 9.85178985 55.30787607 5 62 C5.42152344 62.48210937 5.84304687 62.96421875 6.27734375 63.4609375 C7.09912109 64.40839844 7.09912109 64.40839844 7.9375 65.375 C8.48277344 66.00148438 9.02804688 66.62796875 9.58984375 67.2734375 C12.65257052 71.02336889 12.38618971 74.60271189 12.35546875 79.296875 C12 82 12 82 9.6875 85.0625 C4.90203029 88.51248979 2.73743866 89.23371447 -3.1875 89.125 C-4.45980469 89.10695313 -5.73210937 89.08890625 -7.04296875 89.0703125 C-8.01878906 89.04710938 -8.99460937 89.02390625 -10 89 C-10.33 87.68 -10.66 86.36 -11 85 C-11.51046875 85.28875 -12.0209375 85.5775 -12.546875 85.875 C-19.0482198 89.19483564 -24.76726681 89.66245754 -32 89 C-32.99 88.67 -33.98 88.34 -35 88 C-35.99 88.33 -36.98 88.66 -38 89 C-43.67763391 89.66795693 -46.76089093 88.36799869 -51.3984375 85.38671875 C-53 84 -53 84 -54 81 C-54.99 81 -55.98 81 -57 81 C-56.814375 82.134375 -56.62875 83.26875 -56.4375 84.4375 C-56.293125 85.613125 -56.14875 86.78875 -56 88 C-57 89 -57 89 -59.14453125 89.1328125 C-60.02496094 89.13023438 -60.90539062 89.12765625 -61.8125 89.125 C-62.68519531 89.12757812 -63.55789062 89.13015625 -64.45703125 89.1328125 C-67 89 -67 89 -69.26171875 88.4296875 C-69.83535156 88.28789063 -70.40898438 88.14609375 -71 88 C-71.33 88.33 -71.66 88.66 -72 89 C-76.178463 89.40965323 -78.53958434 89.23455138 -82.3125 87.3125 C-85.90881898 84.21799297 -86.7242395 82.28918993 -87.28515625 77.6328125 C-87.66636076 71.04481653 -87.66636076 71.04481653 -85.87890625 68.2421875 C-84.5 66.875 -84.5 66.875 -82 65 C-82.804375 64.071875 -83.60875 63.14375 -84.4375 62.1875 C-89.97050206 55.80326685 -88.46251966 45.99934181 -88 38 C-86.43691928 23.00419438 -82.14087891 10.42009276 -70.8203125 -0.0078125 C-49.50059585 -16.58981434 -21.7641588 -12.67318237 0 0 Z M-49 0 C-48.30003906 0.81984375 -48.30003906 0.81984375 -47.5859375 1.65625 C-45.79814533 4.29830739 -45.28221004 6.39318891 -44.625 9.5 C-43.67195695 13.26201204 -43.23228777 14.75609785 -40.5 17.625 C-35.99480148 20.10285919 -31.65715086 20.40148955 -26.625 20.75 C-25.86960937 20.81832031 -25.11421875 20.88664062 -24.3359375 20.95703125 C-19.6764459 21.27472386 -16.72024567 21.17035534 -13 18 C-11.31591332 15.69111306 -11.31591332 15.69111306 -10.125 13.0625 C-9.69445312 12.20785156 -9.26390625 11.35320313 -8.8203125 10.47265625 C-7.92873166 7.78517687 -8.01904766 6.60981763 -9 4 C-9.26425781 4.56332031 -9.52851562 5.12664063 -9.80078125 5.70703125 C-12.51835391 10.90317181 -15.60124207 16.05931062 -21.1875 18.25 C-26.96362224 17.87123789 -33.99833363 17.25292108 -38.75390625 13.68359375 C-40.26887171 11.6367282 -40.94716549 9.74502766 -41.6875 7.3125 C-42.06455078 6.10013672 -42.06455078 6.10013672 -42.44921875 4.86328125 C-42.63097656 4.24839844 -42.81273437 3.63351563 -43 3 C-43.66 3 -44.32 3 -45 3 C-45 2.01 -45 1.02 -45 0 C-25.65957447 -0.19148936 -25.65957447 -0.19148936 -16 1 C-20.2920107 -3.2920107 -26.68055276 -2.18359969 -32.375 -2.1875 C-33.30828125 -2.19974609 -34.2415625 -2.21199219 -35.203125 -2.22460938 C-40.20939767 -2.23524593 -44.30955979 -1.98441701 -49 0 Z M5 -1 C-0.31584143 6.18977115 -3.34765801 13.14810034 -3.30078125 22.1171875 C-3.15034069 24.24079692 -3.15034069 24.24079692 -1 26 C1.5 26.41666667 1.5 26.41666667 4 26 C6.26598448 22.60102327 6.23742654 21.43680827 6.1953125 17.45703125 C6.18886719 16.38388672 6.18242188 15.31074219 6.17578125 14.20507812 C6.15902344 13.08552734 6.14226562 11.96597656 6.125 10.8125 C6.11597656 9.68134766 6.10695313 8.55019531 6.09765625 7.38476562 C6.07406862 4.58963172 6.041153 1.79492155 6 -1 C5.67 -1 5.34 -1 5 -1 Z M-73.84375 8.015625 C-80.79543148 17.3938368 -84.65819803 29.3146453 -85 41 C-85.061875 41.88042969 -85.12375 42.76085938 -85.1875 43.66796875 C-85.47925698 50.27808793 -84.43348762 55.2984056 -81 61 C-79.18227196 63.20984251 -79.18227196 63.20984251 -76.625 63.375 C-73.24836718 62.89262388 -72.15613144 61.55541504 -70 59 C-71.1018726 56.2029388 -72.23550244 53.5471107 -73.625 50.875 C-75.72766849 46.10965583 -75.2491182 41.1023098 -75 36 C-74.01 35.505 -74.01 35.505 -73 35 C-72.34 35.99 -71.68 36.98 -71 38 C-70.71769531 37.40832031 -70.43539062 36.81664062 -70.14453125 36.20703125 C-66.35568439 29.3959957 -62.38815584 27.40828517 -55.0234375 25.16796875 C-51.76231127 23.90817968 -50.18742604 22.69577153 -48 20 C-46.64583681 15.93751043 -46.45726909 12.24777396 -47 8 C-49.22438719 3.72596143 -49.22438719 3.72596143 -53 1 C-63.11735453 5.02876692 -69.99445268 9.99167901 -76 19 C-74.488019 12.33872521 -71.56489065 9.13022425 -65.9375 5.4375 C-55.72133588 -0.67057696 -46.93989872 -3.95544021 -35 -5 C-34.25878906 -5.0721875 -33.51757812 -5.144375 -32.75390625 -5.21875 C-26.64522934 -5.52354885 -20.82446007 -3.60588685 -15 -2 C-13.66771114 -1.66251623 -12.3348155 -1.32734761 -11 -1 C-13.70833357 -4.63541698 -17.5639335 -5.20591324 -21.75 -6.1875 C-22.4409375 -6.36474609 -23.131875 -6.54199219 -23.84375 -6.72460938 C-40.74399337 -10.83848441 -61.97088718 -4.96403012 -73.84375 8.015625 Z M-6 2 C-4.68 3.32 -3.36 4.64 -2 6 C-2.66 4.68 -3.32 3.36 -4 2 C-4.66 2 -5.32 2 -6 2 Z M-26 4 C-26 7 -26 7 -26 7 Z M-18 6 C-18.33 6.66 -18.66 7.32 -19 8 C-18.34 8 -17.68 8 -17 8 C-17.33 7.34 -17.66 6.68 -18 6 Z M-29 8 C-28.67 8.66 -28.34 9.32 -28 10 C-27.67 9.34 -27.34 8.68 -27 8 C-27.66 8 -28.32 8 -29 8 Z M-21 10 C-20 12 -20 12 -20 12 Z M-32 11 C-32 11.66 -32 12.32 -32 13 C-31.34 13 -30.68 13 -30 13 C-30 12.34 -30 11.68 -30 11 C-30.66 11 -31.32 11 -32 11 Z M-5 8 C-6.00508801 9.78881736 -7.00392736 11.58114696 -8 13.375 C-8.556875 14.37273438 -9.11375 15.37046875 -9.6875 16.3984375 C-11.15014268 18.81195509 -11.15014268 18.81195509 -11 21 C-16.57805234 22.92372244 -21.2013855 23.19867852 -27.0625 22.8125 C-27.83916016 22.78091797 -28.61582031 22.74933594 -29.41601562 22.71679688 C-35.65195094 22.35246196 -39.78512908 20.47658062 -45 17 C-45.33 18.0725 -45.66 19.145 -46 20.25 C-47.71806115 24.2400766 -49.86209983 25.41338516 -53.7421875 27.1171875 C-55.28360187 27.71988585 -56.8308491 28.30782278 -58.3828125 28.8828125 C-62.33901318 30.43656788 -65.26228571 31.66251378 -67.625 35.3125 C-69.21488026 39.57626979 -69.38720251 41.67519218 -68 46 C-65.61881834 48.22168366 -65.61881834 48.22168366 -63 50 C-60.91366167 53.12950749 -60.50350579 56.30762419 -60 60 C-53.70359279 58.33330397 -50.61141425 53.19738307 -46.9375 48.1875 C-43.949105 44.81350565 -41.32956995 44.16280448 -36.9375 43.625 C-33.33019888 44.08550653 -32.25079624 45.22978924 -30 48 C-29.67 46.35 -29.34 44.7 -29 43 C-29.99 42.67 -30.98 42.34 -32 42 C-32.6875 39.6875 -32.6875 39.6875 -33 37 C-28.89995783 31.79709838 -21.59252775 30.89694677 -15.375 30.125 C-7.11011778 29.57188047 1.17718987 31.39239662 9 34 C8.65555119 31.52733235 8.65555119 31.52733235 8 29 C5.85718065 27.66455456 5.85718065 27.66455456 2.6875 28.75 C-1 29 -1 29 -4 27.25 C-7.67678518 21.27522407 -5.35523776 14.56220387 -4 8 C-4.33 8 -4.66 8 -5 8 Z M-16 32 C-16 32.33 -16 32.66 -16 33 C-14.35 33 -12.7 33 -11 33 C-11 32.67 -11 32.34 -11 32 C-12.65 32 -14.3 32 -16 32 Z M3 35 C3.99 35.99 4.98 36.98 6 38 C6.66 37.67 7.32 37.34 8 37 C7.34 36.34 6.68 35.68 6 35 C5.01 35 4.02 35 3 35 Z M-29 36 C-29.66 37.32 -30.32 38.64 -31 40 C-30.01 40 -29.02 40 -28 40 C-27.67 38.68 -27.34 37.36 -27 36 C-27.66 36 -28.32 36 -29 36 Z M-21 36 C-18.36016623 38.63983377 -16.74328364 38.3823593 -13.0625 38.75 C-5.0061592 39.86769434 2.42114135 42.89242599 8 49 C8.9363921 45.70054409 8.9363921 45.70054409 9 42 C3.4608459 35.59535307 -5.05361495 35.67625629 -12.9140625 35.05078125 C-15.7997968 35.00329448 -18.20854891 35.30992008 -21 36 Z M-28 40 C-28 40.33 -28 40.66 -28 41 C-23.71 41 -19.42 41 -15 41 C-15 40.67 -15 40.34 -15 40 C-19.29 40 -23.58 40 -28 40 Z M-13 41 C-9 42 -9 42 -9 42 Z M-26 44 C-26.33 44.66 -26.66 45.32 -27 46 C-24.82575883 48.50037734 -23.26954202 49.43628586 -20 50 C-20.33 49.34 -20.66 48.68 -21 48 C-21.66 48 -22.32 48 -23 48 C-23 47.34 -23 46.68 -23 46 C-19.7 45.67 -16.4 45.34 -13 45 C-13 44.67 -13 44.34 -13 44 C-17.29 44 -21.58 44 -26 44 Z M-1 45 C-0.67 45.66 -0.34 46.32 0 47 C0.66 46.67 1.32 46.34 2 46 C1.01 45.67 0.02 45.34 -1 45 Z M-73 38 C-73.37271427 44.21190442 -71.93569767 47.66629846 -68.875 52.9375 C-67.62585958 55.88190242 -67.36463061 58.83986807 -67 62 C-67.99 62.33 -68.98 62.66 -70 63 C-65.51258966 65.99160689 -63.55197779 66.18908582 -58.30859375 65.484375 C-53.67809934 64.51283303 -51.0002843 62.51758819 -48.40625 58.58203125 C-47.36946951 56.8210291 -46.36353083 55.04137681 -45.39453125 53.2421875 C-44 51 -44 51 -41 49 C-39.34450469 48.61500109 -37.6777567 48.27206865 -36 48 C-37.44228313 50.47248536 -38.80365407 52.77456578 -40.6875 54.9375 C-42.46697871 57.73382369 -42.28272518 59.7486604 -42 63 C-41.67 63.66 -41.34 64.32 -41 65 C-32.72502084 66.9123347 -23.47531304 67.96698202 -15 67 C-14.34 66.34 -13.68 65.68 -13 65 C-17.46665296 63.51111568 -22.00358967 63.99572821 -26.6640625 64.12695312 C-30.92613651 64.19028814 -34.10539398 63.97833573 -38 62 C-38.3125 59.3125 -38.3125 59.3125 -38 56 C-35.5 53.125 -35.5 53.125 -33 51 C-33.66 49.35 -34.32 47.7 -35 46 C-40.94529308 46.35671758 -43.79699375 47.79699375 -48 52 C-49.3703055 53.97485205 -50.70672372 55.97386717 -52 58 C-55.1973455 62.42709377 -58.81791948 62.8423102 -63.953125 63.703125 C-64.96632813 63.85007812 -64.96632813 63.85007812 -66 64 C-66 63.01 -66 62.02 -66 61 C-65.34 61 -64.68 61 -64 61 C-62.87885396 57.8436445 -62.87885396 57.8436445 -63 54 C-64.60065821 52.07833067 -66.39218046 50.55531928 -68.2734375 48.91015625 C-71.1264298 45.75379147 -71.54173763 42.12436136 -72 38 C-72.33 38 -72.66 38 -73 38 Z M-6 47 C-5.59007813 47.47050781 -5.18015625 47.94101562 -4.7578125 48.42578125 C-4.21898438 49.04839844 -3.68015625 49.67101562 -3.125 50.3125 C-2.59132813 50.92738281 -2.05765625 51.54226562 -1.5078125 52.17578125 C0 54 0 54 2 57 C2.66 56.67 3.32 56.34 4 56 C1.70401984 52.31003189 -0.22792744 49.26324354 -4 47 C-4.66 47 -5.32 47 -6 47 Z M-30 48 C-30.680625 49.670625 -30.680625 49.670625 -31.375 51.375 C-33 55 -33 55 -35 57 C-35 58.32 -35 59.64 -35 61 C-27.74 61.33 -20.48 61.66 -13 62 C-16.72568095 55.07169423 -16.72568095 55.07169423 -22.625 51.625 C-24.06746094 50.90183594 -24.06746094 50.90183594 -25.5390625 50.1640625 C-26.35117188 49.77992187 -27.16328125 49.39578125 -28 49 C-28.66 48.67 -29.32 48.34 -30 48 Z M-16 48 C-15.2575 48.556875 -14.515 49.11375 -13.75 49.6875 C-9.56188659 53.20932264 -6.95052318 55.79587998 -6.25 61.3125 C-6.12625 63.1378125 -6.12625 63.1378125 -6 65 C-1.29157376 62.88673474 -1.29157376 62.88673474 2 59 C-3.44000173 52.15287354 -3.44000173 52.15287354 -11 48 C-13.75146274 47.74715633 -13.75146274 47.74715633 -16 48 Z M-19 50 C-18.67 50.66 -18.34 51.32 -18 52 C-17.34 51.67 -16.68 51.34 -16 51 C-16.99 50.67 -17.98 50.34 -19 50 Z M-16 52 C-15.21625 53.010625 -14.4325 54.02125 -13.625 55.0625 C-11.05758573 58.62633284 -9.95732243 61.73556373 -9 66 C-8.67 66 -8.34 66 -8 66 C-8.11858268 61.05186827 -8.27775526 57.9074357 -11.4375 53.9375 C-13.73046572 51.79896391 -13.73046572 51.79896391 -16 52 Z M-46 59 C-46.680625 59.928125 -47.36125 60.85625 -48.0625 61.8125 C-51.9455189 66.54597837 -56.63323763 67.75086712 -62.5625 68.375 C-66 68 -66 68 -69.375 66.25 C-73.43984079 64.84833076 -74.05845865 65.04773474 -77.8125 66.6875 C-80.34841142 67.95763808 -81.98215362 68.98215362 -84 71 C-84.43332499 76.28656491 -84.50513984 79.74375877 -81 84 C-78.35582586 85.73523928 -77.21534057 86 -74 86 C-74.61277612 83.03824877 -75.25372522 81.61941217 -77 79 C-76.75 75.375 -76.75 75.375 -76 72 C-73.60690372 70.80345186 -72.10574225 70.86664869 -69.4375 70.875 C-68.54160156 70.87757812 -67.64570312 70.88015625 -66.72265625 70.8828125 C-64.20420007 70.9912109 -61.85578676 71.32718765 -59.375 71.75 C-55.01578012 72.33637294 -52.4761455 71.1399334 -48.82421875 68.8125 C-46.50224784 67.77830311 -45.34815509 68.17062955 -43 69 C-44.98 69.66 -46.96 70.32 -49 71 C-49 71.66 -49 72.32 -49 73 C-55.10206783 74.79879551 -58.83881149 75.09247912 -65 73 C-69.17834902 72.67858854 -70.45459599 72.63639733 -74 75 C-73.58443583 79.84824868 -71.62551755 81.88036862 -68 85 C-65.34834381 86.82301363 -64.477977 87.06517868 -61.25 86.625 C-60.5075 86.41875 -59.765 86.2125 -59 86 C-59.33 84.02 -59.66 82.04 -60 80 C-56.21219676 78.81631149 -52.83689036 77.94359177 -48.875 77.6875 C-44.2825252 76.87270608 -42.75749621 75.70538553 -40 72 C-40 70.68 -40 69.36 -40 68 C-40.639375 67.360625 -41.27875 66.72125 -41.9375 66.0625 C-44.308527 63.691473 -44.63641288 62.27228408 -45 59 C-45.33 59 -45.66 59 -46 59 Z M-4 68 C-4.49609379 70.27851926 -4.62948648 72.46164512 -4.75 74.7890625 C-5.07839309 77.69328889 -6.49478011 79.53691291 -8 82 C-7.78670551 84.74239143 -7.78670551 84.74239143 -7 87 C-0.82235592 86.72543804 3.17789247 85.97823872 8 82 C9.53214888 78.93570224 9.22938548 76.3834358 9 73 C7.4847868 69.82526758 5.72247631 67.24900217 3 65 C-0.20908881 65 -1.55477027 65.93095946 -4 68 Z M-36 69 C-36.45375 69.9075 -36.9075 70.815 -37.375 71.75 C-37.91125 72.8225 -38.4475 73.895 -39 75 C-39.2475 75.763125 -39.495 76.52625 -39.75 77.3125 C-41 79 -41 79 -44.5 79.625 C-46.2325 79.810625 -46.2325 79.810625 -48 80 C-48.66 80.66 -49.32 81.32 -50 82 C-46.5623696 85.16261997 -43.63474925 85.84018106 -39 86 C-35.63102048 84.90011062 -35.63102048 84.90011062 -33 83 C-32.67 82.01 -32.34 81.02 -32 80 C-31.01 79.67 -30.02 79.34 -29 79 C-26.53447933 75.62132353 -26 74.29441798 -26 70 C-29.3 69.67 -32.6 69.34 -36 69 Z M-15.5625 69.5 C-16.27341797 69.54769531 -16.98433594 69.59539062 -17.71679688 69.64453125 C-19.47788446 69.76272505 -21.23894479 69.8813248 -23 70 C-23.17015625 70.59167969 -23.3403125 71.18335937 -23.515625 71.79296875 C-25.01616973 76.68570237 -26.57224913 80.09945591 -30 84 C-30 84.66 -30 85.32 -30 86 C-25.40640852 87.6459473 -22.14568689 85.99774048 -17.76953125 84.31640625 C-13.39391652 82.23660066 -9.21093275 79.4218655 -7 75 C-6.960008 73.00039988 -6.95653201 70.99952758 -7 69 C-9.8513372 69 -12.71681109 69.30803922 -15.5625 69.5 Z " fill="#000000" transform="translate(91,15)"/>
<path d="M0 0 C0.10864945 2.06132142 0.18588321 4.12431321 0.25 6.1875 C0.29640625 7.33605469 0.3428125 8.48460937 0.390625 9.66796875 C-0.07949323 13.67807725 -1.14670124 15.19693537 -4 18 C-5.859375 19.07421875 -5.859375 19.07421875 -7.75 19.6875 C-8.77867188 20.0278125 -8.77867188 20.0278125 -9.828125 20.375 C-13.20120668 21.34567099 -16.58052721 22.20619382 -20 23 C-20.33 24.32 -20.66 25.64 -21 27 C-21.99 26.67 -22.98 26.34 -24 26 C-24.82831614 21.19372115 -24.95048854 17.49793545 -22.27734375 13.28515625 C-16.31689292 6.48635727 -9.45584416 0 0 0 Z M-9.25 6 C-9.8275 6.66 -10.405 7.32 -11 8 C-10.67 8.5775 -10.34 9.155 -10 9.75 C-9 12 -9 12 -9 16 C-5.27385847 14.88145414 -5.27385847 14.88145414 -3 12 C-2.9310528 10.62657169 -2.91532292 9.24997898 -2.9375 7.875 C-2.958125 6.59625 -2.97875 5.3175 -3 4 C-7.00346023 3.55709077 -7.00346023 3.55709077 -9.25 6 Z M-17 12 C-19.25885324 15.25397508 -19.25885324 15.25397508 -20 19 C-17.9837767 18.28436734 -17.9837767 18.28436734 -16 17 C-15.19471111 14.94999129 -15.19471111 14.94999129 -15 13 C-15.66 12.67 -16.32 12.34 -17 12 Z " fill="#000000" transform="translate(41,20)"/>
<path d="M0 0 C2.625 0.375 2.625 0.375 5 1 C5 2.98 5 4.96 5 7 C0.25 8.125 0.25 8.125 -2 7 C-2.125 4.625 -2.125 4.625 -2 2 C-1.34 1.34 -0.68 0.68 0 0 Z M1 3 C2 5 2 5 2 5 Z " fill="#000000" transform="translate(91,31)"/>
<path d="M0 0 C0.99 0.99 1.98 1.98 3 3 C1.68 3 0.36 3 -1 3 C-0.67 2.01 -0.34 1.02 0 0 Z " fill="#000000" transform="translate(47,47)"/>
<path d="M0 0 C0.99 0.33 1.98 0.66 3 1 C3 1.66 3 2.32 3 3 C1.68 3 0.36 3 -1 3 C-0.67 2.01 -0.34 1.02 0 0 Z " fill="#000000" transform="translate(53,44)"/>
<path d="M0 0 C0.99 0 1.98 0 3 0 C3 0.99 3 1.98 3 3 C2.01 3 1.02 3 0 3 C0 2.01 0 1.02 0 0 Z " fill="#000000" transform="translate(60,42)"/>
<path d="M0 0 C0.99 0 1.98 0 3 0 C2.67 0.99 2.34 1.98 2 3 C1.34 3 0.68 3 0 3 C0 2.01 0 1.02 0 0 Z " fill="#000000" transform="translate(41,51)"/>
<path d="M0 0 C0.66 0 1.32 0 2 0 C2 0.99 2 1.98 2 3 C1.01 2.67 0.02 2.34 -1 2 C-0.67 1.34 -0.34 0.68 0 0 Z " fill="#000000" transform="translate(33,58)"/>
<path d="M0 0 C0.33 0.99 0.66 1.98 1 3 C0.34 3 -0.32 3 -1 3 C-0.67 2.01 -0.34 1.02 0 0 Z " fill="#000000" transform="translate(58,91)"/>
<path d="M0 0 C0.66 0 1.32 0 2 0 C2 0.66 2 1.32 2 2 C1.34 2 0.68 2 0 2 C0 1.34 0 0.68 0 0 Z " fill="#000000" transform="translate(37,54)"/>
<path d="M0 0 C2 1 2 1 2 1 Z " fill="#000000" transform="translate(42,90)"/>
<path d="" fill="#000000" transform="translate(0,0)"/>
<path d="" fill="#000000" transform="translate(0,0)"/>
<path d="" fill="#000000" transform="translate(0,0)"/>
<path d="" fill="#000000" transform="translate(0,0)"/>
<path d="" fill="#000000" transform="translate(0,0)"/>
<path d="" fill="#000000" transform="translate(0,0)"/>
</svg>
