<?xml version="1.0" encoding="UTF-8"?>
<svg version="1.1" xmlns="http://www.w3.org/2000/svg" width="110" height="110">
<path d="M0 0 C2.0625 2.75 2.0625 2.75 4 6 C7.00290178 8.26749726 9.43499348 9.81166449 13 11 C11.36587557 9.29159719 10.13093906 8.06546953 8 7 C7.8125 4.625 7.8125 4.625 8 2 C14.67195979 -2.4479732 25.18781914 0.12757475 32.8828125 0.7734375 C39.08093223 1.22392741 44.91481056 1.31571663 51 0 C54.6875 -0.1875 54.6875 -0.1875 58 0 C58.99 0.99 58.99 0.99 60 2 C59.625 4.625 59.625 4.625 59 7 C57.68 7.33 56.36 7.66 55 8 C55 8.99 55 9.98 55 11 C61.54062514 8.90699996 64.30478283 5.69848508 68 0 C70.8125 0.1875 70.8125 0.1875 74 1 C76.27982796 3.76836252 77.02327231 6.08843478 77.9375 9.5625 C78.71544597 13.05389689 78.71544597 13.05389689 81.125 15.0625 C83 17 83 17 83.375 20.125 C83 23 83 23 81 25 C78.8359375 25.4140625 78.8359375 25.4140625 76.375 25.625 C75.55773437 25.69976563 74.74046875 25.77453125 73.8984375 25.8515625 C72.95871094 25.92503906 72.95871094 25.92503906 72 26 C72.54269531 26.59425781 73.08539063 27.18851563 73.64453125 27.80078125 C74.35996094 28.62964844 75.07539062 29.45851563 75.8125 30.3125 C76.52019531 31.11300781 77.22789063 31.91351563 77.95703125 32.73828125 C83.16285065 41.04967552 83.53949159 50.55299084 83.8125 60.125 C83.88887695 61.79755859 83.88887695 61.79755859 83.96679688 63.50390625 C84.2614943 71.98519834 84.06357708 79.86495957 79 87 C80.485 87.495 80.485 87.495 82 88 C82.875 91.1875 82.875 91.1875 83 95 C80.25047778 98.69221555 78.61156711 99.71330612 74.1015625 100.515625 C66.37329404 100.93543218 66.37329404 100.93543218 63.11328125 98.71484375 C61.29087921 96.58957833 60 94.86566848 60 92 C58.515 92.495 58.515 92.495 57 93 C56.814375 94.175625 56.814375 94.175625 56.625 95.375 C56 98 56 98 54 100 C51.94140625 100.30078125 51.94140625 100.30078125 49.5625 100.3125 C48.38880859 100.33763672 48.38880859 100.33763672 47.19140625 100.36328125 C45 100 45 100 43.21484375 98.73046875 C42 97 42 97 42 93 C41.505 93.165 41.01 93.33 40.5 93.5 C36.96555911 94.20688818 33.60309299 94.06005155 30 94 C29.9175 94.61875 29.835 95.2375 29.75 95.875 C29 98 29 98 27.375 99.3125 C23.99551837 100.290771 21.40018262 99.75559614 18 99 C17.01 98.01 17.01 98.01 16 97 C16 96.01 16 95.02 16 94 C13.03 93.34 10.06 92.68 7 92 C6.9175 92.763125 6.835 93.52625 6.75 94.3125 C5.82450587 97.62885397 4.90733681 98.25156694 2 100 C-4.24389809 101.06679666 -9.50345257 99.97729652 -15 97 C-15.66 96.34 -16.32 95.68 -17 95 C-16.74601415 91.86750782 -16.08020246 90.11881846 -14.3125 87.5 C-12.68021404 85.10287935 -12.68021404 85.10287935 -13.6875 82.75 C-14.120625 81.8425 -14.55375 80.935 -15 80 C-17.24099431 72.78975864 -17.33415759 65.61852542 -17.3125 58.125 C-17.32861328 57.01769531 -17.34472656 55.91039062 -17.36132812 54.76953125 C-17.36651521 45.94110967 -16.81148591 37.04453339 -11 30 C-11.804375 29.608125 -12.60875 29.21625 -13.4375 28.8125 C-16 27 -16 27 -17.0625 24.625 C-17 22 -17 22 -15.125 19.6875 C-11.8489473 15.54425688 -11.94813969 11.33371382 -12.0625 6.1875 C-12 4 -12 4 -10 1 C-6.3435672 -0.21881093 -3.83710078 -0.4712229 0 0 Z M12 3 C11.77112549 5.27347138 11.77112549 5.27347138 14.125 7.25 C15.07375 7.8275 16.0225 8.405 17 9 C17.81082031 8.70996094 18.62164062 8.41992188 19.45703125 8.12109375 C24.5044952 6.52393592 29.30324129 6.74961396 34.5625 6.8125 C35.59052734 6.81314453 36.61855469 6.81378906 37.67773438 6.81445312 C45.36938987 6.85931696 45.36938987 6.85931696 48.65600586 7.5925293 C51.15031268 8.25627766 51.15031268 8.25627766 53.8125 6.6875 C54.534375 6.130625 55.25625 5.57375 56 5 C56 4.34 56 3.68 56 3 C55.01515625 3.16242187 54.0303125 3.32484375 53.015625 3.4921875 C48.92815706 4.07230456 44.87293586 4.15065953 40.75 4.125 C39.98510254 4.12306641 39.22020508 4.12113281 38.43212891 4.11914062 C29.60721071 4.05473822 20.80609559 3.5467199 12 3 Z M-8 4 C-8.6878236 6.35367713 -8.6878236 6.35367713 -9 9 C-8.01 10.485 -8.01 10.485 -7 12 C-3.41642759 12.25015873 -3.41642759 12.25015873 0 12 C0 12.99 0 13.98 0 15 C-2.64 14.34 -5.28 13.68 -8 13 C-8 13.99 -8 14.98 -8 16 C-5.03 16.495 -5.03 16.495 -2 17 C-2 17.99 -2 18.98 -2 20 C-4.64 19.34 -7.28 18.68 -10 18 C-11.6483633 19.75244247 -11.6483633 19.75244247 -13 22 C-12.78282648 24.20800528 -12.78282648 24.20800528 -12 26 C-8.09633428 25.4724776 -4.4049158 24.57772286 -0.625 23.5 C3.93642147 22.2208052 8.28802418 21.44452602 13 21 C13 18.69 13 16.38 13 14 C11.1746875 13.4121875 11.1746875 13.4121875 9.3125 12.8125 C5.25658882 11.30499319 2.86522868 9.28658584 0 6 C-1.89755144 3.65026182 -1.89755144 3.65026182 -5.125 3.875 C-6.07375 3.91625 -7.0225 3.9575 -8 4 Z M68 4 C67.65066406 4.56589844 67.30132812 5.13179687 66.94140625 5.71484375 C66.48636719 6.44832031 66.03132813 7.18179687 65.5625 7.9375 C65.11003906 8.66839844 64.65757813 9.39929688 64.19140625 10.15234375 C63 12 63 12 62 13 C59.67182036 13.36760731 57.3381615 13.70241581 55 14 C54.67 16.64 54.34 19.28 54 22 C59.76759517 23.20717108 65.06381478 22.80280123 70.9140625 22.25390625 C73.62951958 22.03048257 76.27767511 21.95445925 79 22 C79.33 20.68 79.66 19.36 80 18 C78.68 17.01 77.36 16.02 76 15 C72.04 16.98 72.04 16.98 68 19 C68.99 17.35 69.98 15.7 71 14 C70.01 14 69.02 14 68 14 C69.63412443 12.29159719 70.86906094 11.06546953 73 10 C73 8.35 73 6.7 73 5 C71.35 4.67 69.7 4.34 68 4 Z M17.1875 12.25 C15.45025235 14.81015443 15.79921164 16.98817467 16 20 C23.15042826 20.93690098 30.16713072 21.18309959 37.375 21.1875 C38.45394531 21.19974609 39.53289063 21.21199219 40.64453125 21.22460938 C42.19333984 21.22750977 42.19333984 21.22750977 43.7734375 21.23046875 C44.70591309 21.23457764 45.63838867 21.23868652 46.59912109 21.24291992 C49.26323083 21.16260207 49.26323083 21.16260207 52 19 C51.60379578 14.93411695 51.60379578 14.93411695 49.83203125 11.34375 C45.80671984 8.39128278 39.81968954 9.17213177 35 9 C33.96875 8.95875 32.9375 8.9175 31.875 8.875 C26.24867227 8.75268853 21.9686775 8.9526362 17.1875 12.25 Z M72 12 C71.67 12.66 71.34 13.32 71 14 C71.99 13.67 72.98 13.34 74 13 C73.34 12.67 72.68 12.34 72 12 Z M-9 32 C-13.61215898 37.52231895 -13.51776935 44.11079121 -13 51 C-11.02 51.99 -11.02 51.99 -9 53 C-5.37652928 49.81573785 -3.12293406 46.61572174 -0.6875 42.4375 C3.58740417 35.58291228 7.84845235 33.63246611 15.5 31.8125 C22.60737428 30.58258684 29.80439106 30.27421516 37 30 C37.66821777 29.97131836 38.33643555 29.94263672 39.02490234 29.91308594 C58.15659154 29.17019901 58.15659154 29.17019901 65.4375 35.6875 C71.56620757 42.68184424 72.12412539 51.9940075 72.1328125 60.921875 C72.13410156 62.19417969 72.13539062 63.46648437 72.13671875 64.77734375 C72.13285156 66.08832031 72.12898438 67.39929688 72.125 68.75 C72.128566 70.0898447 72.13246943 71.42968854 72.13671875 72.76953125 C72.13542969 74.03667969 72.13414063 75.30382812 72.1328125 76.609375 C72.13168457 77.76405273 72.13055664 78.91873047 72.12939453 80.10839844 C72 83 72 83 71 86 C74.90559061 84.73332196 77.06060687 83.68484694 79 80 C80.07992883 73.4071478 80.24975607 66.85927155 80.3125 60.1875 C80.34150391 59.17107422 80.37050781 58.15464844 80.40039062 57.10742188 C80.48620238 46.75060362 77.76275281 36.87615168 70.375 29.3125 C53.4532998 15.94902848 7.29470608 20.3195267 -9 32 Z M17.4375 33.25 C16.76654297 33.35916748 16.09558594 33.46833496 15.40429688 33.58081055 C10.08796425 34.61809397 5.9446822 36.839242 2.3125 40.875 C0.89141142 43.06278557 0.89141142 43.06278557 -0.25 45.875 C-2.50447873 49.90085488 -5.44565678 52.15652543 -9 55 C-9.66 55.66 -10.32 56.32 -11 57 C-7.7897932 57 -5.67812122 56.60833693 -3.25390625 54.43359375 C-0.82261642 51.66658015 1.42612636 48.84507764 3.49609375 45.796875 C7.02277363 40.63588006 9.91692206 38.48998468 16 37 C16.54342041 36.83016602 17.08684082 36.66033203 17.64672852 36.48535156 C20.94754784 35.80457256 24.2252522 35.79708626 27.58203125 35.76171875 C28.31443527 35.753647 29.04683929 35.74557526 29.80143738 35.73725891 C31.3488023 35.72345831 32.89619714 35.71271824 34.44360352 35.70483398 C36.01758821 35.69331663 37.59153392 35.67286836 39.1652832 35.64331055 C41.45030001 35.60043205 43.73416105 35.58443883 46.01953125 35.57421875 C46.71456253 35.55671066 47.40959381 35.53920258 48.12568665 35.52116394 C53.59143232 35.54512801 56.58136664 37.03226117 61 40 C65.47365252 44.78076826 67.01838435 50.6707767 68 57 C68.33 57 68.66 57 69 57 C69.37235278 50.17353234 68.93756577 43.73365406 64.55859375 38.16796875 C57.56158047 31.49564286 48.20643541 31.63465644 39 31.6875 C37.4996521 31.69378418 37.4996521 31.69378418 35.96899414 31.70019531 C29.71197304 31.79408309 23.60959246 32.2072485 17.4375 33.25 Z M7.875 44.1875 C7.25625 45.115625 6.6375 46.04375 6 47 C8.88211302 47.96070434 10.69850044 48.10581883 13.6875 48.0625 C14.49574219 48.05347656 15.30398437 48.04445313 16.13671875 48.03515625 C16.75160156 48.02355469 17.36648437 48.01195312 18 48 C18.4125 48.928125 18.825 49.85625 19.25 50.8125 C20.70347419 54.04958556 20.70347419 54.04958556 23.1875 55.4375 C23.785625 55.953125 24.38375 56.46875 25 57 C25.125 60.5625 25.125 60.5625 25 64 C25.66 64.66 26.32 65.32 27 66 C27.3125 69 27.3125 69 27 72 C24 74 24 74 21.0625 73.6875 C19.39107163 73.31228139 17.72118528 72.92804782 16.0625 72.5 C13.76306261 71.88750967 13.76306261 71.88750967 10.375 71.6875 C9.26125 71.460625 8.1475 71.23375 7 71 C5.8125 69.1875 5.8125 69.1875 5 67 C2.50401363 63.76446211 1.42572417 63.07215664 -2.6875 62.375 C-3.780625 62.25125 -4.87375 62.1275 -6 62 C-6.33 61.34 -6.66 60.68 -7 60 C-10.02934491 59.34227572 -10.02934491 59.34227572 -13 59 C-13.11138159 64.45769811 -12.91657981 69.61509359 -12 75 C-9.43386274 75.85537909 -8.06517464 76.01396599 -5.375 75.4375 C-4.59125 75.293125 -3.8075 75.14875 -3 75 C-2.34 75.66 -1.68 76.32 -1 77 C-0.34 77.33 0.32 77.66 1 78 C1.99 77.505 1.99 77.505 3 77 C3.54372951 80.05847848 4 82.88772805 4 86 C4.99 85.34 5.98 84.68 7 84 C6.67 85.32 6.34 86.64 6 88 C7.98 87.505 7.98 87.505 10 87 C10 87.66 10 88.32 10 89 C17.646648 90.03599747 25.16481415 90.14963318 32.875 90.125 C34.67904297 90.13080078 34.67904297 90.13080078 36.51953125 90.13671875 C47.33827581 90.38877392 47.33827581 90.38877392 58 89 C58.66 88.01 59.32 87.02 60 86 C59.34 85.01 58.68 84.02 58 83 C59.32 82.67 60.64 82.34 62 82 C61.09636719 81.56429687 60.19273438 81.12859375 59.26171875 80.6796875 C58.06984242 80.07905691 56.87846182 79.4774419 55.6875 78.875 C54.51574219 78.29492188 53.34398438 77.71484375 52.13671875 77.1171875 C48.54892994 74.69554175 47.46055241 73.0319475 46 69 C44.97692622 63.11963 45.77702406 57.93128756 48.7265625 52.75390625 C51.63036815 48.75449294 55.44155574 45.92857257 60 44 C60 43.34 60 42.68 60 42 C53.12018346 37.53430931 46.6940873 37.41151182 38.70117188 37.53344727 C36.63589481 37.56234754 34.57320454 37.55404106 32.5078125 37.54101562 C18.91060132 37.36135203 18.91060132 37.36135203 7.875 44.1875 Z M60 47 C54.59254913 49.13782941 51.45746222 51.78276869 49 57 C47.6157472 62.0138924 47.23005748 66.32983626 49.75 71 C51.84052369 74.13405255 51.84052369 74.13405255 55 76 C55.99 75.67 56.98 75.34 58 75 C57.030625 74.360625 56.06125 73.72125 55.0625 73.0625 C52.30471535 70.76760592 51.47403183 69.11473854 51 65.5625 C50.83587612 61.60383208 51.13453388 58.56871779 53 55 C55.38097317 52.55270446 57.93052651 50.53473674 61 49 C60.67 48.34 60.34 47.68 60 47 Z M10 51 C10.71563266 53.0162233 10.71563266 53.0162233 12 55 C14.05000871 55.80528889 14.05000871 55.80528889 16 56 C16.66 54.68 17.32 53.36 18 52 C16.62514468 50.45833358 16.62514468 50.45833358 15 49 C12.67642489 48.81509993 12.67642489 48.81509993 10 51 Z M4 50 C2.515 52.475 2.515 52.475 1 55 C3.475 55.495 3.475 55.495 6 56 C6.33 54.35 6.66 52.7 7 51 C6.01 50.67 5.02 50.34 4 50 Z M63 51 C57.46933421 53.37217994 57.46933421 53.37217994 54 58 C53.31196809 62.52741982 53.38713873 65.8921354 55.625 69.9375 C58.31687594 72.27518174 60.5632706 73.14081765 64 74 C65.21697475 70.18356718 65.1679001 66.48269899 65.1875 62.5 C65.20876953 60.53546875 65.20876953 60.53546875 65.23046875 58.53125 C65.02146658 55.32891168 64.70931164 53.64841962 63 51 Z M19 57 C18.34 58.32 17.68 59.64 17 61 C18.32 61.33 19.64 61.66 21 62 C21.66 60.68 22.32 59.36 23 58 C21.68 57.67 20.36 57.34 19 57 Z M-4 58 C-4 58.99 -4 59.98 -4 61 C-2.68 60.67 -1.36 60.34 0 60 C-0.33 59.01 -0.66 58.02 -1 57 C-2.2236068 56.9254644 -2.2236068 56.9254644 -4 58 Z M5 59 C4.67 60.65 4.34 62.3 4 64 C5.65 63.67 7.3 63.34 9 63 C8.67 62.01 8.34 61.02 8 60 C7.01 59.67 6.02 59.34 5 59 Z M12 59 C13 61 13 61 13 61 Z M68 60 C68 61.98 68 63.96 68 66 C68.66 65.67 69.32 65.34 70 65 C69.67 63.35 69.34 61.7 69 60 C68.67 60 68.34 60 68 60 Z M11 64 C10.34 65.65 9.68 67.3 9 69 C10.65 69 12.3 69 14 69 C14.33 68.01 14.66 67.02 15 66 C14.67 65.34 14.34 64.68 14 64 C13.01 64 12.02 64 11 64 Z M20 66 C19.67 67.32 19.34 68.64 19 70 C21.475 70.495 21.475 70.495 24 71 C24.33 69.68 24.66 68.36 25 67 C23.35 66.67 21.7 66.34 20 66 Z M68 68 C67.89042969 68.94101563 67.78085938 69.88203125 67.66796875 70.8515625 C67.50941406 72.09679687 67.35085937 73.34203125 67.1875 74.625 C67.03667969 75.85476562 66.88585937 77.08453125 66.73046875 78.3515625 C65.99596311 82.02016288 64.82366115 84.75238425 63 88 C64.96281158 87.84776911 64.96281158 87.84776911 67 87 C70.37744347 80.85475989 70.18758404 74.6936555 69 68 C68.67 68 68.34 68 68 68 Z M-9 79 C-8 81 -8 81 -8 81 Z M-4 80 C-4.66 80.66 -5.32 81.32 -6 82 C-6 82.99 -6 83.98 -6 85 C-5.34 85 -4.68 85 -4 85 C-3.67 83.35 -3.34 81.7 -3 80 C-3.33 80 -3.66 80 -4 80 Z M-1 83 C0 85 0 85 0 85 Z M-2 85 C-1 87 -1 87 -1 87 Z M-10 87 C-12.1519437 90.22791555 -12.20086443 91.28400809 -12 95 C-7.88357426 96.99584278 -4.55724828 97.42196743 0 97 C2.61593153 95.16884793 2.96989455 94.09031634 4 91 C3.40832031 90.87882812 2.81664062 90.75765625 2.20703125 90.6328125 C-2.03803585 89.73255357 -6.02439661 88.79543379 -10 87 Z M69.3125 89.4375 C68.31863281 89.72496094 67.32476562 90.01242188 66.30078125 90.30859375 C65.16189453 90.65083984 65.16189453 90.65083984 64 91 C64.57344937 93.86724686 64.8614515 94.8614515 67 97 C72.54096927 97.52799624 72.54096927 97.52799624 77.5 95.5 C77.995 95.005 78.49 94.51 79 94 C78.67 92.35 78.34 90.7 78 89 C74.36804504 87.78934835 72.93468371 88.37215185 69.3125 89.4375 Z M20 93 C20.33 94.32 20.66 95.64 21 97 C22.98 96.67 24.96 96.34 27 96 C26.34 95.01 25.68 94.02 25 93 C22.41619823 92.74969023 22.41619823 92.74969023 20 93 Z M46 93 C45.67 93.99 45.34 94.98 45 96 C47.31 96.33 49.62 96.66 52 97 C52.33 95.68 52.66 94.36 53 93 C50.69 93 48.38 93 46 93 Z " fill="#000000" transform="translate(22,4)"/>
<path d="M0 0 C1.2065625 0.0309375 1.2065625 0.0309375 2.4375 0.0625 C2.81968767 1.71864657 3.15145102 3.38707024 3.4375 5.0625 C2.4375 6.0625 2.4375 6.0625 -0.125 6.125 C-1.3315625 6.0940625 -1.3315625 6.0940625 -2.5625 6.0625 C-2.94468767 4.40635343 -3.27645102 2.73792976 -3.5625 1.0625 C-2.5625 0.0625 -2.5625 0.0625 0 0 Z " fill="#000000" transform="translate(46.5625,16.9375)"/>
<path d="M0 0 C0.625 1.875 0.625 1.875 1 4 C0.34 4.66 -0.32 5.32 -1 6 C-3.125 5.625 -3.125 5.625 -5 5 C-5.33 3.35 -5.66 1.7 -6 0 C-3.50907189 -1.24546405 -2.58919267 -0.7767578 0 0 Z " fill="#000000" transform="translate(68,18)"/>
<path d="M0 0 C0.99 0 1.98 0 3 0 C2.67 1.32 2.34 2.64 2 4 C1.01 4 0.02 4 -1 4 C-0.67 2.68 -0.34 1.36 0 0 Z " fill="#000000" transform="translate(65,77)"/>
<path d="M0 0 C1.32 0 2.64 0 4 0 C4 0.99 4 1.98 4 3 C2.68 3 1.36 3 0 3 C0 2.01 0 1.02 0 0 Z " fill="#000000" transform="translate(75,85)"/>
<path d="M0 0 C0.99 0 1.98 0 3 0 C3 0.99 3 1.98 3 3 C1.68 2.67 0.36 2.34 -1 2 C-0.67 1.34 -0.34 0.68 0 0 Z " fill="#000000" transform="translate(71,47)"/>
<path d="M0 0 C0.99 0 1.98 0 3 0 C3 0.99 3 1.98 3 3 C2.01 3 1.02 3 0 3 C0 2.01 0 1.02 0 0 Z " fill="#000000" transform="translate(62,63)"/>
<path d="M0 0 C0.99 0 1.98 0 3 0 C2.67 0.99 2.34 1.98 2 3 C1.34 3 0.68 3 0 3 C0 2.01 0 1.02 0 0 Z " fill="#000000" transform="translate(70,83)"/>
<path d="M0 0 C0.66 0 1.32 0 2 0 C2 0.99 2 1.98 2 3 C1.01 3 0.02 3 -1 3 C-0.67 2.01 -0.34 1.02 0 0 Z " fill="#000000" transform="translate(64,57)"/>
<path d="M0 0 C0.99 0 1.98 0 3 0 C2.67 0.99 2.34 1.98 2 3 C1.34 2.67 0.68 2.34 0 2 C0 1.34 0 0.68 0 0 Z " fill="#000000" transform="translate(62,70)"/>
<path d="M0 0 C0.66 0 1.32 0 2 0 C2 0.99 2 1.98 2 3 C1.01 2.67 0.02 2.34 -1 2 C-0.67 1.34 -0.34 0.68 0 0 Z " fill="#000000" transform="translate(67,52)"/>
<path d="M0 0 C0.99 0 1.98 0 3 0 C2.67 0.99 2.34 1.98 2 3 C1.34 2.67 0.68 2.34 0 2 C0 1.34 0 0.68 0 0 Z " fill="#000000" transform="translate(76,45)"/>
</svg>
