<?xml version="1.0" encoding="UTF-8"?>
<!DOCTYPE svg PUBLIC "-//W3C//DTD SVG 1.1//EN" "http://www.w3.org/Graphics/SVG/1.1/DTD/svg11.dtd">
<svg xmlns="http://www.w3.org/2000/svg" version="1.1" width="110px" height="110px" style="shape-rendering:geometricPrecision; text-rendering:geometricPrecision; image-rendering:optimizeQuality; fill-rule:evenodd; clip-rule:evenodd" xmlns:xlink="http://www.w3.org/1999/xlink">
<g><path style="opacity:0.763" fill="#000000" d="M 14.5,3.5 C 16.8568,3.33669 19.1902,3.50335 21.5,4C 23.4331,8.91189 27.2664,12.4119 33,14.5C 34.2575,14.1501 34.5908,13.4835 34,12.5C 30.3814,11.4482 29.0481,9.11484 30,5.5C 30.7504,4.87424 31.5838,4.37424 32.5,4C 42.5186,3.80869 52.5186,4.30869 62.5,5.5C 68.1426,4.40164 73.8093,3.90164 79.5,4C 82.5147,7.44004 81.8481,9.94004 77.5,11.5C 76.6143,12.325 76.281,13.325 76.5,14.5C 81.8397,14.335 85.3397,11.6683 87,6.5C 89.6258,2.92811 92.6258,2.59478 96,5.5C 97.7064,9.03485 99.0397,12.7015 100,16.5C 104.757,19.5536 105.59,23.3869 102.5,28C 98.8333,28.3333 95.1667,28.6667 91.5,29C 98.6182,34.3971 102.785,41.5638 104,50.5C 104.652,59.7481 105.152,68.9147 105.5,78C 104.506,82.1568 102.839,85.9901 100.5,89.5C 105.765,93.66 105.765,97.8267 100.5,102C 95.9534,103.545 91.2867,103.879 86.5,103C 84.0323,100.512 81.6989,98.012 79.5,95.5C 77.2632,95.4649 76.9298,96.2982 78.5,98C 78.0097,99.982 77.0097,101.649 75.5,103C 71.0906,104.262 67.2572,103.428 64,100.5C 63.51,99.2068 63.3433,97.8734 63.5,96.5C 59.5341,97.1621 55.5341,97.4955 51.5,97.5C 50.9294,101.674 48.4294,103.674 44,103.5C 39.3879,103.25 37.5546,101.083 38.5,97C 35.1464,96.5448 31.8131,96.0448 28.5,95.5C 27.8803,101.446 24.547,104.113 18.5,103.5C 14.6735,103.392 11.0068,102.558 7.5,101C 6.10074,99.9384 5.10074,98.605 4.5,97C 5.40951,93.845 7.07618,91.1784 9.5,89C 7.25309,83.7128 5.58642,78.2128 4.5,72.5C 4.56328,64.5573 4.72995,56.5573 5,48.5C 5.28637,42.4932 7.45303,37.3266 11.5,33C 7.63674,32.8045 5.30341,30.8045 4.5,27C 6.34951,23.8233 8.18284,20.6566 10,17.5C 10,14.1667 10,10.8333 10,7.5C 11.1964,5.71402 12.6964,4.38069 14.5,3.5 Z M 33.5,6.5 C 42.8241,7.22634 52.1574,7.893 61.5,8.5C 66.6209,8.60575 71.6209,7.93908 76.5,6.5C 76.8333,6.83333 77.1667,7.16667 77.5,7.5C 75.5,8.83333 73.5,10.1667 71.5,11.5C 69.2831,10.4277 66.9498,9.76105 64.5,9.5C 60.0423,10.271 55.5423,10.271 51,9.5C 46.3438,9.24797 42.0104,10.248 38,12.5C 36.6122,10.2976 35.1122,8.29764 33.5,6.5 Z M 13.5,7.5 C 15.5273,7.33788 17.5273,7.50454 19.5,8C 23.0991,13.469 28.0991,16.969 34.5,18.5C 33.1667,20.1667 33.1667,21.8333 34.5,23.5C 26.5609,24.4873 18.8943,26.4873 11.5,29.5C 9.73362,29.5658 8.73362,28.7324 8.5,27C 9.53553,25.0986 10.7022,23.2652 12,21.5C 14.3822,22.5541 16.8822,23.2208 19.5,23.5C 19.5,22.5 19.5,21.5 19.5,20.5C 17.5,20.1667 15.5,19.8333 13.5,19.5C 13.3505,18.448 13.5172,17.448 14,16.5C 16.3015,17.8672 18.8015,18.5339 21.5,18.5C 21.5,17.5 21.5,16.5 21.5,15.5C 18.9321,14.5504 16.4321,14.5504 14,15.5C 12.3895,12.872 12.2228,10.2053 13.5,7.5 Z M 92.5,17.5 C 91.5244,18.8149 90.5244,20.1482 89.5,21.5C 89.8333,21.8333 90.1667,22.1667 90.5,22.5C 92.7935,20.7701 95.2935,19.4367 98,18.5C 100.948,20.0429 101.782,22.2095 100.5,25C 96.8289,24.9514 93.3289,24.7848 90,24.5C 85.1505,26.2896 80.3171,26.4562 75.5,25C 76.435,22.6194 76.7683,20.1194 76.5,17.5C 78.8568,17.6633 81.1902,17.4966 83.5,17C 86.3061,13.846 88.9727,10.6794 91.5,7.5C 93.7394,7.57429 94.7394,8.74096 94.5,11C 93.3354,13.2581 91.6687,15.0914 89.5,16.5C 90.325,17.3857 91.325,17.719 92.5,17.5 Z M 45.5,12.5 C 53.5104,12.77 61.5104,13.27 69.5,14C 75.8598,20.2562 74.6931,23.7562 66,24.5C 56.372,23.7231 46.872,23.3897 37.5,23.5C 37.1347,17.5431 39.8013,13.8764 45.5,12.5 Z M 92.5,17.5 C 93.0024,15.9153 94.0024,15.4153 95.5,16C 94.7562,17.0386 93.7562,17.5386 92.5,17.5 Z M 41.5,26.5 C 56.1621,26.3974 70.8287,27.5641 85.5,30C 89.8133,31.3062 93.3133,33.8062 96,37.5C 97.4907,41.8987 99.1574,46.5654 101,51.5C 101.167,55.1667 101.333,58.8333 101.5,62.5C 101.022,67.7604 101.022,72.9271 101.5,78C 101.253,84.2236 98.2531,87.8903 92.5,89C 93.1258,88.2496 93.6258,87.4162 94,86.5C 94.8377,74.4614 94.5044,62.4614 93,50.5C 89.108,37.0422 80.108,31.0422 66,32.5C 55.8584,32.4388 45.6917,33.2721 35.5,35C 32.0073,35.9419 28.674,37.2752 25.5,39C 21.3066,44.36 17.3066,49.86 13.5,55.5C 11.694,56.8587 10.194,56.5254 9,54.5C 7.6112,47.3331 9.1112,40.8331 13.5,35C 22.2275,29.7008 31.5608,26.8675 41.5,26.5 Z M 48.5,35.5 C 56.1739,35.3336 63.8406,35.5003 71.5,36C 85.9221,37.7717 92.0888,45.9384 90,60.5C 87.3302,42.2316 76.8302,34.8983 58.5,38.5C 50.0269,38.1594 41.6935,38.9928 33.5,41C 31.4127,41.7922 29.5793,42.9588 28,44.5C 24.5473,49.6212 20.7139,54.4545 16.5,59C 14.6354,60.3014 12.6354,60.6347 10.5,60C 17.1487,56.6859 21.6487,51.5192 24,44.5C 26.7783,41.1929 30.2783,39.0262 34.5,38C 39.336,37.3196 44.0027,36.4862 48.5,35.5 Z M 78.5,44.5 C 80.3628,44.8459 81.1961,45.8459 81,47.5C 67.002,54.1604 63.3353,64.4937 70,78.5C 74.3905,81.1867 78.8905,83.6867 83.5,86C 79.5172,86.23 78.8506,87.5634 81.5,90C 80.8333,90.6667 80.1667,91.3333 79.5,92C 65.5292,93.3025 51.6959,93.8025 38,93.5C 35.1117,93.0779 32.4451,92.0779 30,90.5C 29.228,90.6448 28.5613,90.9781 28,91.5C 28.9691,87.309 27.8024,86.6424 24.5,89.5C 24.7031,87.9557 25.3698,86.6223 26.5,85.5C 26.1445,84.4777 25.4778,83.811 24.5,83.5C 24.719,82.325 24.3857,81.325 23.5,80.5C 22.5832,81.1272 21.5832,81.4606 20.5,81.5C 20.6107,80.8826 20.944,80.3826 21.5,80C 18.6443,76.8777 15.6443,76.7111 12.5,79.5C 12.6106,77.3523 11.944,77.019 10.5,78.5C 8.69069,73.2289 8.35735,67.8956 9.5,62.5C 13.0237,63.6349 16.1904,65.3016 19,67.5C 19.5613,66.9781 20.228,66.6448 21,66.5C 24.8271,69.1325 27.9937,72.2991 30.5,76C 32.7135,76.6256 34.8801,76.4589 37,75.5C 41.0603,79.3588 45.0603,79.3588 49,75.5C 50.0754,71.9331 49.242,68.9331 46.5,66.5C 48.3736,62.5297 47.3736,59.5297 43.5,57.5C 41.2672,50.6575 36.7672,48.6575 30,51.5C 29.2496,50.8742 28.4162,50.3742 27.5,50C 31.2224,44.9717 36.2224,42.3051 42.5,42C 52.8333,41.3333 63.1667,41.3333 73.5,42C 75.4913,42.3736 77.158,43.207 78.5,44.5 Z M 79.5,79.5 C 73.3942,78.0228 70.0609,74.0228 69.5,67.5C 70.2794,59.2505 74.4461,53.5838 82,50.5C 79.2208,53.2792 76.2208,56.2792 73,59.5C 69.954,68.0161 72.1206,74.6828 79.5,79.5 Z M 34.5,52.5 C 39.7145,53.9465 40.3812,56.2799 36.5,59.5C 31.1527,57.9045 30.4861,55.5712 34.5,52.5 Z M 25.5,53.5 C 29.3302,55.3846 29.3302,57.3846 25.5,59.5C 24.263,59.4435 23.263,58.9435 22.5,58C 23.3862,56.3853 24.3862,54.8853 25.5,53.5 Z M 84.5,54.5 C 85.9844,58.0543 86.6511,61.8877 86.5,66C 86.647,70.0008 85.9804,73.8341 84.5,77.5C 75.6767,74.1825 73.1767,68.1825 77,59.5C 79.1699,57.1769 81.6699,55.5103 84.5,54.5 Z M 19.5,60.5 C 22.2301,63.0507 21.5634,64.384 17.5,64.5C 17.5271,62.8007 18.1938,61.4674 19.5,60.5 Z M 40.5,60.5 C 45.645,61.4824 45.8116,63.149 41,65.5C 37.927,64.2516 37.7603,62.585 40.5,60.5 Z M 26.5,62.5 C 31.9794,65.2174 31.646,66.884 25.5,67.5C 25.366,65.7085 25.6993,64.0418 26.5,62.5 Z M 89.5,63.5 C 91.9238,65.2276 92.0904,67.2276 90,69.5C 89.5045,67.5273 89.3379,65.5273 89.5,63.5 Z M 32.5,67.5 C 35.6853,67.7224 36.6853,69.2224 35.5,72C 33.7412,72.7975 32.0745,72.6309 30.5,71.5C 31.6302,70.3777 32.2969,69.0443 32.5,67.5 Z M 41.5,69.5 C 45.1378,68.7366 46.6378,70.0699 46,73.5C 41.4155,75.4126 39.9155,74.0793 41.5,69.5 Z M 89.5,71.5 C 91.2809,74.1834 91.7809,77.1834 91,80.5C 90.587,83.2321 89.9203,85.8987 89,88.5C 88.0705,90.5453 86.5705,91.3787 84.5,91C 86.0412,89.4207 87.2078,87.5873 88,85.5C 88.6655,80.8439 89.1655,76.1772 89.5,71.5 Z M 18.5,83.5 C 18.2287,85.3117 17.562,86.9783 16.5,88.5C 15.1766,86.146 15.8433,84.4793 18.5,83.5 Z M 11.5,90.5 C 15.7548,93.0843 20.4214,94.5843 25.5,95C 24.6361,97.0713 23.3028,98.738 21.5,100C 17.3387,100.667 13.3387,100.167 9.5,98.5C 9.28262,95.5794 9.94929,92.9128 11.5,90.5 Z M 96.5,91.5 C 101.8,94.1871 101.8,97.0204 96.5,100C 93.8333,100.667 91.1667,100.667 88.5,100C 86.393,98.7365 85.393,96.9032 85.5,94.5C 89.5339,94.4835 93.2006,93.4835 96.5,91.5 Z M 41.5,96.5 C 44.3456,96.0301 46.6789,96.8634 48.5,99C 44.6212,101.63 42.2879,100.797 41.5,96.5 Z M 67.5,96.5 C 69.8333,96.5 72.1667,96.5 74.5,96.5C 74.9228,99.2431 73.7561,100.576 71,100.5C 67.5826,100.61 66.4159,99.277 67.5,96.5 Z"/></g>
<g><path style="opacity:0.775" fill="#000000" d="M 43.5,16.5 C 48.1225,15.4082 49.9558,17.0748 49,21.5C 43.4205,23.7516 41.5871,22.0849 43.5,16.5 Z"/></g>
<g><path style="opacity:0.726" fill="#000000" d="M 63.5,16.5 C 66.3213,16.3159 67.9879,17.6493 68.5,20.5C 65.5593,24.6329 63.226,24.2996 61.5,19.5C 61.9424,18.2613 62.6091,17.2613 63.5,16.5 Z"/></g>
<g><path style="opacity:0.762" fill="#000000" d="M 78.5,44.5 C 78.0478,47.6741 77.0478,48.0075 75.5,45.5C 76.325,44.6143 77.325,44.281 78.5,44.5 Z"/></g>
<g><path style="opacity:0.692" fill="#000000" d="M 70.5,46.5 C 71.5,46.5 72.5,46.5 73.5,46.5C 73.5,47.5 73.5,48.5 73.5,49.5C 70.5065,49.8543 69.5065,48.8543 70.5,46.5 Z"/></g>
<g><path style="opacity:0.609" fill="#000000" d="M 66.5,51.5 C 68.4646,51.9483 68.7979,52.9483 67.5,54.5C 65.4807,53.8671 65.1474,52.8671 66.5,51.5 Z"/></g>
<g><path style="opacity:0.69" fill="#000000" d="M 63.5,56.5 C 65.0481,56.8212 65.7148,57.8212 65.5,59.5C 62.7524,59.5983 62.0857,58.5983 63.5,56.5 Z"/></g>
<g><path style="opacity:0.657" fill="#000000" d="M 61.5,62.5 C 62.5,62.5 63.5,62.5 64.5,62.5C 64.5,63.5 64.5,64.5 64.5,65.5C 63.5,65.5 62.5,65.5 61.5,65.5C 61.5,64.5 61.5,63.5 61.5,62.5 Z"/></g>
<g><path style="opacity:0.535" fill="#000000" d="M 61.5,69.5 C 64.5476,69.494 65.0476,70.494 63,72.5C 61.9614,71.7562 61.4614,70.7562 61.5,69.5 Z"/></g>
<g><path style="opacity:0.585" fill="#000000" d="M 64.5,76.5 C 65.5,76.5 66.5,76.5 67.5,76.5C 67.8333,79.5 66.5,80.8333 63.5,80.5C 63.4326,79.0413 63.7659,77.7079 64.5,76.5 Z"/></g>
<g><path style="opacity:0.597" fill="#000000" d="M 69.5,82.5 C 72.9571,82.6672 73.2904,83.6672 70.5,85.5C 69.6143,84.675 69.281,83.675 69.5,82.5 Z"/></g>
<g><path style="opacity:0.665" fill="#000000" d="M 74.5,84.5 C 75.8333,84.5 77.1667,84.5 78.5,84.5C 78.5,85.5 78.5,86.5 78.5,87.5C 77.1667,87.5 75.8333,87.5 74.5,87.5C 74.5,86.5 74.5,85.5 74.5,84.5 Z"/></g>
</svg>
