<?xml version="1.0" encoding="UTF-8"?>
<svg version="1.1" xmlns="http://www.w3.org/2000/svg" width="110" height="110">
<path d="M0 0 C1.0974202 -0.00524185 2.19484039 -0.0104837 3.32551575 -0.0158844 C5.64449215 -0.02229618 7.96350111 -0.02097857 10.2824707 -0.01245117 C13.80284755 -0.0039765 17.32158159 -0.03265954 20.84179688 -0.06445312 C23.1028641 -0.06606636 25.36393417 -0.06548527 27.625 -0.0625 C29.18494942 -0.07935097 29.18494942 -0.07935097 30.77641296 -0.09654236 C38.60256041 -0.02318884 46.83795232 0.9812047 52.84757996 6.43165588 C54.57618272 8.35744839 56.14090464 10.32851649 57.64453125 12.43359375 C58.09892578 11.61955078 58.09892578 11.61955078 58.5625 10.7890625 C62.9386489 3.31594669 62.9386489 3.31594669 67.64453125 1.43359375 C70.39453125 1.18359375 70.39453125 1.18359375 72.64453125 1.43359375 C74.31980663 3.10886913 73.77458702 5.16146297 73.77734375 7.45703125 C73.77863281 8.47796875 73.77992187 9.49890625 73.78125 10.55078125 C73.77738281 11.62585938 73.77351563 12.7009375 73.76953125 13.80859375 C73.77339844 14.8759375 73.77726562 15.94328125 73.78125 17.04296875 C73.77996094 18.06648438 73.77867188 19.09 73.77734375 20.14453125 C73.77621582 21.08603027 73.77508789 22.0275293 73.77392578 22.99755859 C73.64453125 25.43359375 73.64453125 25.43359375 72.64453125 28.43359375 C72.93752148 30.10782361 73.27143226 31.77537602 73.64453125 33.43359375 C73.64453125 36.43359375 73.64453125 36.43359375 73.08203125 39.37109375 C72.6685178 42.26568793 72.86503243 43.70534789 73.64453125 46.43359375 C73.14953125 47.42359375 73.14953125 47.42359375 72.64453125 48.43359375 C72.95315595 50.77032359 73.28909698 53.10352464 73.64453125 55.43359375 C73.84861288 60.02543048 73.84861288 60.02543048 72.64453125 62.43359375 C72.96033691 63.77118699 73.29672647 65.10396195 73.64453125 66.43359375 C73.73461588 68.06973461 73.77515934 69.70903873 73.77734375 71.34765625 C73.77863281 72.27320312 73.77992187 73.19875 73.78125 74.15234375 C73.77738281 75.11140625 73.77351563 76.07046875 73.76953125 77.05859375 C73.77339844 78.02539062 73.77726562 78.9921875 73.78125 79.98828125 C73.77996094 80.91125 73.77867188 81.83421875 73.77734375 82.78515625 C73.77621582 83.62900879 73.77508789 84.47286133 73.77392578 85.34228516 C73.64453125 87.43359375 73.64453125 87.43359375 72.64453125 89.43359375 C72.75714138 91.12556094 72.9315233 92.81381505 73.14453125 94.49609375 C73.35174429 96.13731521 73.52811859 97.78344429 73.64453125 99.43359375 C71.78260437 101.29552063 68.67358116 100.5711288 66.18798828 100.57885742 C65.51300797 100.58221603 64.83802765 100.58557465 64.14259338 100.58903503 C61.89582506 100.59858336 59.64913115 100.60049104 57.40234375 100.6015625 C55.83828704 100.60477586 54.27423064 100.60814 52.71017456 100.61164856 C49.4197317 100.61765192 46.12931514 100.61948757 42.83886719 100.61889648 C38.64847911 100.61879558 34.45826324 100.63236718 30.26791573 100.64966869 C27.02999114 100.66086948 23.79210685 100.66281312 20.55416489 100.66228676 C19.01140635 100.66345784 17.46864646 100.66782998 15.92590714 100.67561913 C2.41349033 100.73737425 -10.96790427 100.53076369 -21.79296875 91.37109375 C-28.04258083 79.62182304 -28.09534565 64.02275685 -24.35546875 51.43359375 C-21.98757971 46.84029611 -19.0804844 43.00293711 -15.35546875 39.43359375 C-16.26296875 38.87671875 -17.17046875 38.31984375 -18.10546875 37.74609375 C-22.19323922 34.83748784 -24.76048309 32.21855073 -26.35546875 27.43359375 C-27.30862557 13.70446951 -27.30862557 13.70446951 -23.35546875 8.43359375 C-15.90632806 1.31552598 -9.95941801 -0.02784268 0 0 Z M-14.41796875 5.68359375 C-15.27519531 6.10125 -16.13242187 6.51890625 -17.015625 6.94921875 C-20.46895092 9.13997643 -22.05356804 11.2259909 -23.04296875 15.18359375 C-23.14609375 15.92609375 -23.24921875 16.66859375 -23.35546875 17.43359375 C-21.37546875 18.09359375 -19.39546875 18.75359375 -17.35546875 19.43359375 C-17.35546875 21.08359375 -17.35546875 22.73359375 -17.35546875 24.43359375 C-19.00546875 25.09359375 -20.65546875 25.75359375 -22.35546875 26.43359375 C-21.80674407 30.27466653 -20.33628078 32.00187867 -17.35546875 34.43359375 C-15.03683678 35.69642009 -12.869404 36.54906098 -10.35546875 37.43359375 C-9.36546875 36.93859375 -9.36546875 36.93859375 -8.35546875 36.43359375 C-9.43129222 33.38542724 -10.39031629 31.39376799 -12.54296875 28.93359375 C-15.34966494 23.51376663 -14.16175787 18.34053797 -13.35546875 12.43359375 C-12.22109375 12.12421875 -11.08671875 11.81484375 -9.91796875 11.49609375 C-6.56771776 10.80434844 -6.56771776 10.80434844 -5.35546875 9.43359375 C-5.31466092 7.43401011 -5.31292519 5.43314121 -5.35546875 3.43359375 C-9.39621182 3.43359375 -10.91016673 3.92704734 -14.41796875 5.68359375 Z M-2.35546875 3.43359375 C-2.35546875 5.08359375 -2.35546875 6.73359375 -2.35546875 8.43359375 C-2.02546875 8.43359375 -1.69546875 8.43359375 -1.35546875 8.43359375 C-1.35546875 6.78359375 -1.35546875 5.13359375 -1.35546875 3.43359375 C-1.68546875 3.43359375 -2.01546875 3.43359375 -2.35546875 3.43359375 Z M1.64453125 3.43359375 C1.64453125 5.08359375 1.64453125 6.73359375 1.64453125 8.43359375 C10.55453125 8.10359375 19.46453125 7.77359375 28.64453125 7.43359375 C28.97453125 6.11359375 29.30453125 4.79359375 29.64453125 3.43359375 C20.40453125 3.43359375 11.16453125 3.43359375 1.64453125 3.43359375 Z M32.64453125 4.43359375 C33.64453125 8.43359375 33.64453125 8.43359375 33.64453125 8.43359375 Z M36.64453125 4.43359375 C35.97298441 6.71701118 35.97298441 6.71701118 36.64453125 9.43359375 C38.59877613 10.97250695 40.61081492 12.13667856 42.796875 13.3203125 C44.64453125 14.43359375 44.64453125 14.43359375 45.64453125 16.43359375 C46.4245329 20.70587551 46.52269436 24.10098123 44.08203125 27.8046875 C42.34030811 29.77466065 40.56359575 31.63691856 38.64453125 33.43359375 C40.62417579 35.60481679 41.38174398 36.37248043 44.33203125 37.05859375 C49.21785276 36.13674063 52.46692079 33.1999493 55.64453125 29.43359375 C55.64453125 28.44359375 55.64453125 27.45359375 55.64453125 26.43359375 C53.33453125 26.10359375 51.02453125 25.77359375 48.64453125 25.43359375 C48.64453125 23.12359375 48.64453125 20.81359375 48.64453125 18.43359375 C52.10953125 17.93859375 52.10953125 17.93859375 55.64453125 17.43359375 C52.11396583 9.91468053 52.11396583 9.91468053 45.58203125 5.30859375 C42.57523588 4.4833121 39.76949082 4.14062879 36.64453125 4.43359375 Z M64.64453125 6.43359375 C62.22923887 11.08443582 60.45780472 15.22709615 60.08203125 20.49609375 C59.63267984 26.78701347 58.56453444 32.09813813 53.64453125 36.37109375 C50.64453125 38.43359375 50.64453125 38.43359375 47.64453125 39.43359375 C47.97453125 40.42359375 48.30453125 41.41359375 48.64453125 42.43359375 C52.70576054 42.19469791 55.36072913 40.71760086 58.1640625 37.77734375 C60.60124409 33.91900878 61.71320642 29.63898185 62.90820312 25.25952148 C64.01971352 21.19737699 65.44512582 18.00280431 67.64453125 14.43359375 C67.405827 11.82261332 67.405827 11.82261332 66.64453125 9.43359375 C66.64453125 8.44359375 66.64453125 7.45359375 66.64453125 6.43359375 C65.98453125 6.43359375 65.32453125 6.43359375 64.64453125 6.43359375 Z M-9.35546875 15.43359375 C-12.16855725 19.01388821 -11.63620829 23.08213082 -11.35546875 27.43359375 C-10.69546875 28.09359375 -10.03546875 28.75359375 -9.35546875 29.43359375 C-9.35546875 25.47359375 -9.35546875 21.51359375 -9.35546875 17.43359375 C1.76921533 12.98372012 11.6209363 10.96952517 23.64453125 11.43359375 C24.80855469 11.47613281 24.80855469 11.47613281 25.99609375 11.51953125 C31.35117837 11.89564087 34.48672553 13.00340403 38.64453125 16.43359375 C40.19929815 19.54312754 39.93097562 21.99626136 39.64453125 25.43359375 C37.88959044 28.53398918 36.15627458 30.92185042 33.64453125 33.43359375 C37.61831674 33.43359375 38.7710292 32.08605718 41.64453125 29.43359375 C43.71063499 26.71009336 43.64708229 25.48036288 43.45703125 21.99609375 C42.44838142 17.57355219 41.76240151 14.90647625 37.92578125 12.23828125 C26.25667223 6.36263833 0.51513507 6.36330916 -9.35546875 15.43359375 Z M68.64453125 10.43359375 C68.97453125 11.42359375 69.30453125 12.41359375 69.64453125 13.43359375 C69.97453125 12.44359375 70.30453125 11.45359375 70.64453125 10.43359375 C69.98453125 10.43359375 69.32453125 10.43359375 68.64453125 10.43359375 Z M-4.35546875 17.74609375 C-6.46802294 20.58483845 -7.44165377 21.90000799 -7.35546875 25.43359375 C-5.61223586 28.85301212 -4.24271137 30.9103481 -0.91796875 32.87109375 C1.60002086 33.60455005 1.60002086 33.60455005 3.95703125 32.96606445 C6.81115465 32.40058088 9.3023761 32.3824576 12.20703125 32.4765625 C13.25117187 32.49783203 14.2953125 32.51910156 15.37109375 32.54101562 C17.55370334 32.59440882 19.73605771 32.65951861 21.91796875 32.73632812 C28.16775865 32.91202433 28.16775865 32.91202433 33.8125 30.5390625 C36.52140101 27.42584791 37.50426669 25.55571019 38.01953125 21.43359375 C37.88864997 18.35579431 37.88864997 18.35579431 35.89453125 16.12109375 C30.93832128 12.40393627 24.89168539 13.25001619 18.95703125 13.24609375 C18.00119141 13.23384766 17.04535156 13.22160156 16.06054688 13.20898438 C5.18112236 13.18528958 5.18112236 13.18528958 -4.35546875 17.74609375 Z M66.64453125 19.43359375 C66.97453125 20.42359375 67.30453125 21.41359375 67.64453125 22.43359375 C67.64453125 21.44359375 67.64453125 20.45359375 67.64453125 19.43359375 C67.31453125 19.43359375 66.98453125 19.43359375 66.64453125 19.43359375 Z M-23.35546875 20.43359375 C-23.35546875 21.42359375 -23.35546875 22.41359375 -23.35546875 23.43359375 C-22.03546875 23.43359375 -20.71546875 23.43359375 -19.35546875 23.43359375 C-19.68546875 22.44359375 -20.01546875 21.45359375 -20.35546875 20.43359375 C-21.34546875 20.43359375 -22.33546875 20.43359375 -23.35546875 20.43359375 Z M52.64453125 20.43359375 C52.31453125 21.09359375 51.98453125 21.75359375 51.64453125 22.43359375 C54.11953125 22.92859375 54.11953125 22.92859375 56.64453125 23.43359375 C56.64453125 22.44359375 56.64453125 21.45359375 56.64453125 20.43359375 C55.32453125 20.43359375 54.00453125 20.43359375 52.64453125 20.43359375 Z M65.64453125 22.43359375 C65.42539063 23.36300781 65.20625 24.29242187 64.98046875 25.25 C63.10765739 32.55091907 61.35895677 38.23727614 55.64453125 43.43359375 C54.64220838 44.43126547 53.64156831 45.43063956 52.64453125 46.43359375 C54.83967998 47.39290945 54.83967998 47.39290945 57.64453125 47.43359375 C61.82722986 45.25859047 63.19498728 43.82214656 64.65625 39.30859375 C65.40688637 36.02776355 66.03758503 32.74341561 66.64453125 29.43359375 C66.97453125 28.44359375 67.30453125 27.45359375 67.64453125 26.43359375 C66.7696921 24.26643818 66.7696921 24.26643818 65.64453125 22.43359375 Z M-9.35546875 29.43359375 C-8.35546875 31.43359375 -8.35546875 31.43359375 -8.35546875 31.43359375 Z M-16.23046875 46.49609375 C-22.38909877 53.95806175 -23.87356366 62.38743907 -23.609375 72.00390625 C-22.55612078 82.93659992 -22.55612078 82.93659992 -16.35546875 91.43359375 C-2.04949113 100.06797077 18.86565249 97.8329335 34.76953125 97.05859375 C35.48044922 97.02789795 36.19136719 96.99720215 36.92382812 96.96557617 C40.85115963 96.73867412 44.25256546 96.49774375 47.64453125 94.43359375 C50.50531282 90.04749843 51.49188184 85.40764995 52.33203125 80.30859375 C52.45795654 79.56230713 52.58388184 78.81602051 52.71362305 78.04711914 C54.38375369 67.51636307 55.25596535 56.64038808 49.26953125 47.30859375 C43.51721707 40.19867744 34.32174727 36.90834655 25.48046875 35.6796875 C11.03229322 34.4259202 -5.95024005 35.01755618 -16.23046875 46.49609375 Z M68.64453125 37.43359375 C68.64453125 38.09359375 68.64453125 38.75359375 68.64453125 39.43359375 C69.30453125 39.43359375 69.96453125 39.43359375 70.64453125 39.43359375 C70.64453125 38.77359375 70.64453125 38.11359375 70.64453125 37.43359375 C69.98453125 37.43359375 69.32453125 37.43359375 68.64453125 37.43359375 Z M60.01953125 48.43359375 C58.79363281 49.26890625 58.79363281 49.26890625 57.54296875 50.12109375 C56.91648437 50.55421875 56.29 50.98734375 55.64453125 51.43359375 C55.97453125 53.08359375 56.30453125 54.73359375 56.64453125 56.43359375 C62.55095501 53.45629807 62.55095501 53.45629807 66.64453125 48.43359375 C66.64453125 47.44359375 66.64453125 46.45359375 66.64453125 45.43359375 C63.77176048 45.43359375 62.36782565 46.82333473 60.01953125 48.43359375 Z M65.64453125 54.43359375 C63.39128966 55.42776383 63.39128966 55.42776383 61.01953125 56.87109375 C60.20226562 57.34417969 59.385 57.81726562 58.54296875 58.3046875 C57.60324219 58.86349609 57.60324219 58.86349609 56.64453125 59.43359375 C56.64453125 61.08359375 56.64453125 62.73359375 56.64453125 64.43359375 C61.85574246 63.54246556 61.85574246 63.54246556 66.64453125 61.43359375 C67.54283964 58.3808691 67.54283964 58.3808691 67.64453125 55.43359375 C66.98453125 55.10359375 66.32453125 54.77359375 65.64453125 54.43359375 Z M67.64453125 64.43359375 C67.64453125 65.09359375 67.64453125 65.75359375 67.64453125 66.43359375 C68.30453125 66.43359375 68.96453125 66.43359375 69.64453125 66.43359375 C69.64453125 65.77359375 69.64453125 65.11359375 69.64453125 64.43359375 C68.98453125 64.43359375 68.32453125 64.43359375 67.64453125 64.43359375 Z M63.64453125 65.43359375 C60.17953125 66.91859375 60.17953125 66.91859375 56.64453125 68.43359375 C56.64453125 69.75359375 56.64453125 71.07359375 56.64453125 72.43359375 C60.41998513 71.34290707 63.11496597 70.52528465 65.64453125 67.43359375 C64.98453125 66.77359375 64.32453125 66.11359375 63.64453125 65.43359375 Z M64.64453125 72.43359375 C62.00453125 73.42359375 59.36453125 74.41359375 56.64453125 75.43359375 C56.64453125 76.75359375 56.64453125 78.07359375 56.64453125 79.43359375 C61.95321615 78.8518453 61.95321615 78.8518453 66.64453125 76.43359375 C65.98453125 75.11359375 65.32453125 73.79359375 64.64453125 72.43359375 Z M68.64453125 79.43359375 C68.97453125 80.09359375 69.30453125 80.75359375 69.64453125 81.43359375 C69.97453125 80.77359375 70.30453125 80.11359375 70.64453125 79.43359375 C69.98453125 79.43359375 69.32453125 79.43359375 68.64453125 79.43359375 Z M59.01953125 82.43359375 C57.79363281 82.99046875 57.79363281 82.99046875 56.54296875 83.55859375 C55.91648437 83.84734375 55.29 84.13609375 54.64453125 84.43359375 C54.64453125 85.42359375 54.64453125 86.41359375 54.64453125 87.43359375 C58.93453125 86.77359375 63.22453125 86.11359375 67.64453125 85.43359375 C66.98453125 83.78359375 66.32453125 82.13359375 65.64453125 80.43359375 C63.03926237 80.43359375 61.38416396 81.3526188 59.01953125 82.43359375 Z M59.08203125 89.30859375 C58.09074219 89.47101563 57.09945312 89.6334375 56.078125 89.80078125 C55.27503906 90.00960937 54.47195312 90.2184375 53.64453125 90.43359375 C53.31453125 91.09359375 52.98453125 91.75359375 52.64453125 92.43359375 C54.41266237 92.68275314 56.18428107 92.90726007 57.95703125 93.12109375 C58.94316406 93.24871094 59.92929688 93.37632813 60.9453125 93.5078125 C63.66395937 93.68854077 63.66395937 93.68854077 65.5 92.078125 C66.8349432 90.49393267 66.8349432 90.49393267 66.64453125 88.43359375 C64.05466638 88.43359375 61.63568361 88.87577132 59.08203125 89.30859375 Z M50.64453125 95.43359375 C50.31453125 96.09359375 49.98453125 96.75359375 49.64453125 97.43359375 C54.92453125 97.43359375 60.20453125 97.43359375 65.64453125 97.43359375 C65.97453125 96.77359375 66.30453125 96.11359375 66.64453125 95.43359375 C61.36453125 95.43359375 56.08453125 95.43359375 50.64453125 95.43359375 Z " fill="#000000" transform="translate(29.35546875,3.56640625)"/>
<path d="M0 0 C6.3885884 6.11082369 7.05342931 12.51543476 7.3125 21 C7.16707588 28.61052899 5.61868811 35.54184583 0 41 C-12.38289877 48.03291962 -26.21675589 46.16769588 -39.4375 42.6875 C-43.83717514 41.21610947 -47.93951597 39.60635984 -51 36 C-52.20989763 33.04310065 -52.63289845 30.16026548 -53 27 C-53.226875 25.700625 -53.45375 24.40125 -53.6875 23.0625 C-54.64557819 14.13817908 -53.24284255 6.33318197 -47.6015625 -0.7578125 C-36.66534931 -11.80072046 -11.40964379 -9.14804402 0 0 Z M-28 -5 C-28 -4.67 -28 -4.34 -28 -4 C-26.35 -4 -24.7 -4 -23 -4 C-23 -4.33 -23 -4.66 -23 -5 C-24.65 -5 -26.3 -5 -28 -5 Z M-20 -4 C-20 -3.67 -20 -3.34 -20 -3 C-17.36 -3 -14.72 -3 -12 -3 C-12 -3.33 -12 -3.66 -12 -4 C-14.64 -4 -17.28 -4 -20 -4 Z M-9 -2 C-8.4225 -1.5875 -7.845 -1.175 -7.25 -0.75 C-1.03837225 4.08126603 0.68547813 8.33195578 2 16 C2.62100815 23.22551378 2.84265832 29.68706132 -1 36 C-8.06429534 42.31342663 -20.04034703 41.45871731 -29 42 C-29 42.33 -29 42.66 -29 43 C-25.83365364 43.11760715 -22.66787926 43.18771024 -19.5 43.25 C-18.1696875 43.30027344 -18.1696875 43.30027344 -16.8125 43.3515625 C-10.64847399 43.44220994 -6.14867125 42.48622563 -1 39 C3.63945237 34.48263848 5.04490077 29.22757292 5.3125 22.875 C5.09836253 14.56646623 3.741697 6.23035207 -2 0 C-4.68408288 -1.70805274 -5.76169533 -2 -9 -2 Z M-43 -1 C-44.63676257 0.9600281 -44.63676257 0.9600281 -46 3 C-42.87802522 1.6910428 -42.87802522 1.6910428 -41 -1 C-41.66 -1 -42.32 -1 -43 -1 Z M-44.4375 6.375 C-46.23595654 8.86705187 -46.23595654 8.86705187 -45.9375 11.625 C-44.91820139 14.20722313 -44.12666898 15.25172483 -42 17 C-39.73606029 17.78356902 -39.73606029 17.78356902 -37.3125 18.1875 C-36.10013672 18.42533203 -36.10013672 18.42533203 -34.86328125 18.66796875 C-34.24839844 18.77753906 -33.63351563 18.88710937 -33 19 C-33 19.66 -33 20.32 -33 21 C-33.62648438 21.19335938 -34.25296875 21.38671875 -34.8984375 21.5859375 C-36.12433594 21.97652344 -36.12433594 21.97652344 -37.375 22.375 C-38.18710937 22.63023438 -38.99921875 22.88546875 -39.8359375 23.1484375 C-42.16459185 23.89854283 -42.16459185 23.89854283 -44 26 C-44.09906404 27.92290355 -44.09906404 27.92290355 -43.75 30 C-43.66234375 30.70125 -43.5746875 31.4025 -43.484375 32.125 C-43.1103165 34.22819545 -43.1103165 34.22819545 -41 36 C-37.36954269 37.21015244 -33.82875942 37.91172889 -30 38 C-26.66178189 36.16348401 -26.66178189 36.16348401 -25 33 C-24.58013054 30.28836222 -24.58013054 30.28836222 -25 28 C-24.01 28 -23.02 28 -22 28 C-21.87625 28.86625 -21.87625 28.86625 -21.75 29.75 C-20.76789083 32.69632751 -19.37724934 34.03027912 -17 36 C-13.47539184 37.45845855 -9.75617456 37.33537273 -6 37 C-3.3530128 35.60314994 -3.3530128 35.60314994 -2 33 C-2 29.27085222 -2.14316434 26.98865653 -4.625 24.125 C-7.71297854 22.66227332 -10.61725514 22.32526393 -14 22 C-14 21.34 -14 20.68 -14 20 C-12.9275 19.7525 -11.855 19.505 -10.75 19.25 C-6.02929735 17.69068744 -6.02929735 17.69068744 -3 14 C-2.76592044 10.26227793 -3.1867011 7.09618547 -5.4375 4.0625 C-9.04276647 1.6109188 -11.57589692 1.89612859 -15.80078125 2.43359375 C-18.25591713 2.89430791 -18.25591713 2.89430791 -20.5625 5.1875 C-22.20159367 8.3944224 -22.33058394 10.44622262 -22 14 C-22.99 14 -23.98 14 -25 14 C-25.02578125 13.39671875 -25.0515625 12.7934375 -25.078125 12.171875 C-25.34993761 8.34178829 -25.54571334 5.68984271 -27.6875 2.4375 C-33.82510158 -1.37776585 -39.71845927 1.77696032 -44.4375 6.375 Z M-24 1 C-24 1.66 -24 2.32 -24 3 C-23.01 2.67 -22.02 2.34 -21 2 C-21.99 1.67 -22.98 1.34 -24 1 Z M-48 4 C-47 6 -47 6 -47 6 Z M-49 6 C-48 8 -48 8 -48 8 Z M-50 9 C-49 13 -49 13 -49 13 Z M-51 14 C-51 17.96 -51 21.92 -51 26 C-50.67 26 -50.34 26 -50 26 C-50 22.04 -50 18.08 -50 14 C-50.33 14 -50.66 14 -51 14 Z M-47 17 C-47 19.64 -47 22.28 -47 25 C-46.67 24.34 -46.34 23.68 -46 23 C-43.9375 21.875 -43.9375 21.875 -42 21 C-43.31200404 19.64567325 -44.64631404 18.31266518 -46 17 C-46.33 17 -46.66 17 -47 17 Z M-3 17 C-3.66 18.32 -4.32 19.64 -5 21 C-2.525 22.485 -2.525 22.485 0 24 C-0.33 21.69 -0.66 19.38 -1 17 C-1.66 17 -2.32 17 -3 17 Z M-50 27 C-50 28.65 -50 30.3 -50 32 C-49.01 32.495 -49.01 32.495 -48 33 C-48.33 31.02 -48.66 29.04 -49 27 C-49.33 27 -49.66 27 -50 27 Z M-47 34 C-46 36 -46 36 -46 36 Z M-24 36 C-24.99 37.485 -24.99 37.485 -26 39 C-24.02 39 -22.04 39 -20 39 C-20.66 38.01 -21.32 37.02 -22 36 C-22.66 36 -23.32 36 -24 36 Z " fill="#000000" transform="translate(68,51)"/>
<path d="M0 0 C2.33944736 0.28730055 4.6739143 0.61936779 7 1 C7.625 3.375 7.625 3.375 8 6 C6 8 6 8 3 8.25 C0 8 0 8 -2 6 C-1.44444444 1.44444444 -1.44444444 1.44444444 0 0 Z M2 3 C2 3.66 2 4.32 2 5 C2.66 4.67 3.32 4.34 4 4 C3.34 3.67 2.68 3.34 2 3 Z " fill="#000000" transform="translate(31,23)"/>
<path d="M0 0 C3.0625 0.1875 3.0625 0.1875 5.0625 2.1875 C4.9375 4.6875 4.9375 4.6875 4.0625 7.1875 C2 8.5 2 8.5 0.0625 9.1875 C-1.9375 8 -1.9375 8 -3.9375 6.1875 C-4.25 3.5625 -4.25 3.5625 -3.9375 1.1875 C-2.9375 0.1875 -2.9375 0.1875 0 0 Z M-0.9375 3.1875 C-0.9375 3.8475 -0.9375 4.5075 -0.9375 5.1875 C0.0525 4.8575 1.0425 4.5275 2.0625 4.1875 C1.0725 3.8575 0.0825 3.5275 -0.9375 3.1875 Z " fill="#000000" transform="translate(43.9375,66.8125)"/>
<path d="M0 0 C0.66 0.66 1.32 1.32 2 2 C1.44444444 6.55555556 1.44444444 6.55555556 0 8 C-2.4375 8.1875 -2.4375 8.1875 -5 8 C-7 6 -7 6 -7.125 3.375 C-7.08375 2.59125 -7.0425 1.8075 -7 1 C-4.48718205 -0.25640898 -2.78302919 -0.20872719 0 0 Z M-4 3 C-3.34 3.66 -2.68 4.32 -2 5 C-2 4.34 -2 3.68 -2 3 C-2.66 3 -3.32 3 -4 3 Z " fill="#000000" transform="translate(57,23)"/>
<path d="" fill="#000000" transform="translate(0,0)"/>
<path d="" fill="#000000" transform="translate(0,0)"/>
<path d="" fill="#000000" transform="translate(0,0)"/>
<path d="" fill="#000000" transform="translate(0,0)"/>
</svg>
