<?xml version="1.0" encoding="UTF-8"?>
<!DOCTYPE svg PUBLIC "-//W3C//DTD SVG 1.1//EN" "http://www.w3.org/Graphics/SVG/1.1/DTD/svg11.dtd">
<svg xmlns="http://www.w3.org/2000/svg" version="1.1" width="110px" height="110px" style="shape-rendering:geometricPrecision; text-rendering:geometricPrecision; image-rendering:optimizeQuality; fill-rule:evenodd; clip-rule:evenodd" xmlns:xlink="http://www.w3.org/1999/xlink">
<g><path style="opacity:0.762" fill="#000000" d="M 17.5,3.5 C 34.5033,3.3334 51.5033,3.50006 68.5,4C 72.7329,4.89107 76.7329,6.39107 80.5,8.5C 82.4271,11.35 84.5938,14.0167 87,16.5C 88.7746,8.02043 93.7746,4.35377 102,5.5C 102.17,12.8197 102.337,19.9864 102.5,27C 102.097,28.4728 101.43,29.8061 100.5,31C 103.167,33.3333 103.167,35.6667 100.5,38C 103.167,40.3333 103.167,42.6667 100.5,45C 103.167,47 103.167,49 100.5,51C 101.573,52.3129 102.24,53.8129 102.5,55.5C 102.204,58.0262 102.037,60.6929 102,63.5C 100.672,65.0225 100.838,66.6892 102.5,68.5C 101.326,75.3263 101.326,82.1597 102.5,89C 102.241,90.2613 101.574,91.2613 100.5,92C 102.161,95.6084 102.495,99.2751 101.5,103C 77.8333,103.667 54.1667,103.667 30.5,103C 21.5534,102.439 13.72,99.272 7,93.5C 3.17663,84.8908 1.8433,75.8908 3,66.5C 2.93099,56.4726 6.76433,48.306 14.5,42C 9.81513,40.6502 6.31513,37.8168 4,33.5C -0.827975,19.111 3.67202,9.11096 17.5,3.5 Z M 19.5,6.5 C 20.8333,6.5 22.1667,6.5 23.5,6.5C 23.6621,8.5273 23.4955,10.5273 23,12.5C 20.2233,13.6364 17.7233,15.1364 15.5,17C 14.78,20.1523 14.1134,23.3189 13.5,26.5C 14.9978,30.9953 17.3311,34.9953 20.5,38.5C 19.7579,39.2868 18.9246,39.9535 18,40.5C 15.2458,38.8726 12.4125,37.3726 9.5,36C 7.78113,34.1295 6.78113,31.9628 6.5,29.5C 11.9836,29.5191 13.6503,27.0191 11.5,22C 9.5,21.1667 7.5,20.3333 5.5,19.5C 6.23574,17.4595 7.06908,15.4595 8,13.5C 11.5136,10.4999 15.3469,8.16657 19.5,6.5 Z M 30.5,6.5 C 39.946,6.17468 49.2794,6.50801 58.5,7.5C 58.1667,8.16667 57.8333,8.83333 57.5,9.5C 48.4873,10.2499 39.4873,10.9166 30.5,11.5C 30.5,9.83333 30.5,8.16667 30.5,6.5 Z M 72.5,16.5 C 70.7504,14.6023 68.5837,13.269 66,12.5C 65.5065,10.8659 65.3398,9.19919 65.5,7.5C 70.3321,7.72189 74.8321,9.05522 79,11.5C 80.4394,14.6026 82.2728,17.4359 84.5,20C 79.9351,19.6041 77.2684,21.6041 76.5,26C 78.328,28.9424 80.9947,30.1091 84.5,29.5C 82.3788,36.4592 77.7121,39.6259 70.5,39C 69.3279,38.5814 68.3279,37.9147 67.5,37C 70.372,34.4634 72.872,31.6301 75,28.5C 75.6667,25.5 75.6667,22.5 75,19.5C 74.6232,18.0577 73.7899,17.0577 72.5,16.5 Z M 93.5,9.5 C 94.7562,9.46141 95.7562,9.96141 96.5,11C 93.8333,13.3333 93.8333,15.6667 96.5,18C 94.3834,19.7309 92.8834,21.8976 92,24.5C 91.2786,32.2898 88.1119,38.7898 82.5,44C 80.1756,46.0879 78.1756,45.9212 76.5,43.5C 86.3128,38.8696 90.6462,31.203 89.5,20.5C 90.4466,16.6573 91.78,12.9906 93.5,9.5 Z M 19.5,32.5 C 15.594,24.7191 17.594,18.8857 25.5,15C 37.7951,12.3013 50.1285,11.968 62.5,14C 68.7476,15.5803 72.0809,19.5803 72.5,26C 71.587,31.2472 68.7536,35.0805 64,37.5C 63.5,37 63,36.5 62.5,36C 70.4035,30.6708 71.4035,24.3375 65.5,17C 55.083,13.2526 44.4163,12.5859 33.5,15C 28.6991,15.7339 24.3658,17.5672 20.5,20.5C 18.1985,24.3174 17.8651,28.3174 19.5,32.5 Z M 97.5,13.5 C 99.9732,13.9473 100.14,14.9473 98,16.5C 97.5172,15.552 97.3505,14.552 97.5,13.5 Z M 36.5,16.5 C 42.5888,16.8481 48.5888,16.8481 54.5,16.5C 65.8131,16.4698 68.9797,21.4698 64,31.5C 62.5867,33.4136 60.7534,34.7469 58.5,35.5C 48.7703,33.9877 39.1036,34.321 29.5,36.5C 20.6628,31.923 19.6628,26.2564 26.5,19.5C 29.8965,18.2829 33.2298,17.2829 36.5,16.5 Z M 95.5,25.5 C 95.2022,22.6644 95.8689,22.1644 97.5,24C 96.9558,24.7172 96.2891,25.2172 95.5,25.5 Z M 5.5,23.5 C 7.34642,23.2222 8.67975,23.8888 9.5,25.5C 8.31116,26.4287 6.97782,26.762 5.5,26.5C 5.5,25.5 5.5,24.5 5.5,23.5 Z M 81.5,23.5 C 82.8333,23.5 84.1667,23.5 85.5,23.5C 85.6495,24.552 85.4828,25.552 85,26.5C 83.6012,25.7734 82.1012,25.2734 80.5,25C 81.056,24.6174 81.3893,24.1174 81.5,23.5 Z M 32.5,25.5 C 33.2891,25.7828 33.9558,26.2828 34.5,27C 33.184,27.5281 32.5173,27.0281 32.5,25.5 Z M 52.5,26.5 C 53.0768,25.2267 53.7435,25.2267 54.5,26.5C 54.0302,27.463 53.3635,27.463 52.5,26.5 Z M 95.5,25.5 C 95.2865,27.1439 95.6198,28.6439 96.5,30C 94.2071,34.8981 92.7071,40.0647 92,45.5C 89.3046,49.7918 85.8046,50.9585 81.5,49C 89.9107,43.3379 94.5773,35.5045 95.5,25.5 Z M 38.5,38.5 C 51.4524,37.5987 63.4524,40.4321 74.5,47C 80.5667,52.8409 83.2333,60.0075 82.5,68.5C 82.069,76.2816 80.9024,83.9482 79,91.5C 78.1117,97.0985 75.1117,99.4319 70,98.5C 59.9259,99.9708 49.7592,100.471 39.5,100C 28.972,100.033 19.1387,97.5333 10,92.5C 4.91868,80.7609 4.25201,68.7609 8,56.5C 10.4117,52.0841 13.5783,48.2508 17.5,45C 24.2952,41.7537 31.2952,39.587 38.5,38.5 Z M 97.5,40.5 C 99.337,40.6395 99.6704,41.3061 98.5,42.5C 97.7025,42.0431 97.3691,41.3764 97.5,40.5 Z M 58.5,48.5 C 63.2619,48.9628 66.7619,51.2961 69,55.5C 78.9246,84.5647 68.758,97.0647 38.5,93C 46.5973,92.7618 54.5973,91.7618 62.5,90C 66.9338,87.897 69.4338,84.397 70,79.5C 71.2683,69.6582 69.435,60.4915 64.5,52C 62.2726,51.059 60.2726,49.8923 58.5,48.5 Z M 93.5,48.5 C 94.4972,48.4701 95.1639,48.9701 95.5,50C 93.6795,54.4872 90.5128,57.6539 86,59.5C 85.5983,58.1279 85.0983,56.7946 84.5,55.5C 87.8292,53.4939 90.8292,51.1606 93.5,48.5 Z M 26.5,49.5 C 25.4154,51.5869 23.7488,52.9202 21.5,53.5C 22.5846,51.4131 24.2512,50.0798 26.5,49.5 Z M 31.5,51.5 C 34.3198,51.2475 36.9865,51.7475 39.5,53C 41.0029,56.3245 42.0029,59.8245 42.5,63.5C 43.325,64.3857 44.325,64.719 45.5,64.5C 46.0328,53.6452 51.3662,50.3119 61.5,54.5C 65.5651,59.468 65.2318,63.968 60.5,68C 57.5305,68.7378 54.8638,69.9045 52.5,71.5C 52.7093,72.086 53.0426,72.586 53.5,73C 63.8821,72.9632 67.2154,77.2965 63.5,86C 56.5832,88.6459 50.7499,87.1459 46,81.5C 45.5172,80.552 45.3505,79.552 45.5,78.5C 44.5,78.5 43.5,78.5 42.5,78.5C 43.0071,83.1547 41.1737,86.488 37,88.5C 32.8351,87.4815 28.8351,86.1482 25,84.5C 23.7496,81.9234 23.4163,79.2567 24,76.5C 27.6172,73.8416 31.4506,71.8416 35.5,70.5C 35.2907,69.914 34.9574,69.414 34.5,69C 28.3477,69.3634 24.0144,66.8634 21.5,61.5C 23.2132,56.4534 26.5465,53.1201 31.5,51.5 Z M 43.5,51.5 C 46.7973,51.3287 47.1306,51.9954 44.5,53.5C 43.7025,53.0431 43.3691,52.3764 43.5,51.5 Z M 94.5,57.5 C 95.2891,57.7828 95.9558,58.2828 96.5,59C 95.5939,60.6995 95.2606,62.5328 95.5,64.5C 92.1667,65.5 88.8333,66.5 85.5,67.5C 85.2148,65.712 85.5481,64.0453 86.5,62.5C 89.568,61.3087 92.2346,59.642 94.5,57.5 Z M 20.5,67.5 C 22.1376,68.657 23.8043,69.8236 25.5,71C 23.8603,72.3946 22.3603,73.8946 21,75.5C 20.5026,72.854 20.3359,70.1873 20.5,67.5 Z M 64.5,67.5 C 67.2474,68.9728 68.0807,71.3061 67,74.5C 65.6487,72.981 64.1487,71.6477 62.5,70.5C 63.1925,69.4822 63.8592,68.4822 64.5,67.5 Z M 96.5,67.5 C 98.337,67.6395 98.6704,68.3061 97.5,69.5C 96.7025,69.0431 96.3691,68.3764 96.5,67.5 Z M 92.5,68.5 C 93.2674,69.172 93.9341,70.0053 94.5,71C 91.9952,72.7533 89.3286,74.2533 86.5,75.5C 85.1667,74.1667 85.1667,72.8333 86.5,71.5C 88.78,70.8641 90.78,69.8641 92.5,68.5 Z M 42.5,69.5 C 44.9828,69.73 45.4828,70.3966 44,71.5C 42.9701,71.1639 42.4701,70.4972 42.5,69.5 Z M 93.5,75.5 C 95.2199,76.7507 95.5532,78.2507 94.5,80C 91.6883,81.5489 88.6883,82.3822 85.5,82.5C 85.5,81.1667 85.5,79.8333 85.5,78.5C 88.5418,78.2671 91.2084,77.2671 93.5,75.5 Z M 19.5,83.5 C 17.5589,81.9894 17.0589,79.9894 18,77.5C 18.5046,79.5183 19.0046,81.5183 19.5,83.5 Z M 97.5,82.5 C 100.001,82.5109 100.168,83.1776 98,84.5C 97.5357,83.9056 97.369,83.2389 97.5,82.5 Z M 92.5,83.5 C 94.2572,84.292 95.5905,85.6253 96.5,87.5C 92.6441,88.9847 88.6441,89.9847 84.5,90.5C 83.269,89.3493 83.269,88.1827 84.5,87C 87.4757,86.2952 90.1423,85.1286 92.5,83.5 Z M 43.5,86.5 C 45.1958,86.6854 46.5291,87.5187 47.5,89C 45.5,89.6667 43.5,89.6667 41.5,89C 42.3805,88.2917 43.0472,87.4584 43.5,86.5 Z M 93.5,91.5 C 95.7615,92.9763 95.4281,94.4763 92.5,96C 88.8434,96.0514 85.1767,95.718 81.5,95C 85.4345,93.3299 89.4345,92.1632 93.5,91.5 Z M 79.5,98.5 C 84.8719,99.6136 90.2052,99.7803 95.5,99C 92.6911,100.122 89.6911,100.622 86.5,100.5C 83.8333,100.333 81.1667,100.167 78.5,100C 79.056,99.6174 79.3893,99.1174 79.5,98.5 Z"/></g>
<g><path style="opacity:0.075" fill="#000000" d="M 73.5,3.5 C 74.8333,4.16667 74.8333,4.16667 73.5,3.5 Z"/></g>
<g><path style="opacity:0.12" fill="#000000" d="M 2.5,7.5 C 3.52502,7.89657 3.69169,8.56323 3,9.5C 2.53566,8.90558 2.36899,8.23891 2.5,7.5 Z"/></g>
<g><path style="opacity:0.747" fill="#000000" d="M 30.5,22.5 C 32.9892,22.2978 35.3225,22.7978 37.5,24C 38.7993,29.6889 36.466,31.6889 30.5,30C 28.1116,27.5972 28.1116,25.0972 30.5,22.5 Z M 32.5,25.5 C 32.5173,27.0281 33.184,27.5281 34.5,27C 33.9558,26.2828 33.2891,25.7828 32.5,25.5 Z"/></g>
<g><path style="opacity:0.775" fill="#000000" d="M 51.5,22.5 C 58.004,22.1377 59.6707,24.6377 56.5,30C 49.7006,30.7169 48.0339,28.2169 51.5,22.5 Z M 52.5,26.5 C 53.3635,27.463 54.0302,27.463 54.5,26.5C 53.7435,25.2267 53.0768,25.2267 52.5,26.5 Z"/></g>
<g><path style="opacity:0.765" fill="#000000" d="M 37.5,43.5 C 67.9726,41.777 79.4726,55.4437 72,84.5C 70.0982,89.4005 66.5982,92.5671 61.5,94C 49.4697,96.804 37.4697,96.1374 25.5,92C 22.3974,90.5606 19.5641,88.7272 17,86.5C 15.6957,81.2104 14.5291,75.8771 13.5,70.5C 13.2141,53.7995 21.2141,44.7995 37.5,43.5 Z M 58.5,48.5 C 60.2726,49.8923 62.2726,51.059 64.5,52C 69.435,60.4915 71.2683,69.6582 70,79.5C 69.4338,84.397 66.9338,87.897 62.5,90C 54.5973,91.7618 46.5973,92.7618 38.5,93C 68.758,97.0647 78.9246,84.5647 69,55.5C 66.7619,51.2961 63.2619,48.9628 58.5,48.5 Z M 26.5,49.5 C 25.4154,51.5869 23.7488,52.9202 21.5,53.5C 22.5846,51.4131 24.2512,50.0798 26.5,49.5 Z M 31.5,51.5 C 26.5465,53.1201 23.2132,56.4534 21.5,61.5C 24.0144,66.8634 28.3477,69.3634 34.5,69C 34.9574,69.414 35.2907,69.914 35.5,70.5C 31.4506,71.8416 27.6172,73.8416 24,76.5C 23.4163,79.2567 23.7496,81.9234 25,84.5C 28.8351,86.1482 32.8351,87.4815 37,88.5C 41.1737,86.488 43.0071,83.1547 42.5,78.5C 43.5,78.5 44.5,78.5 45.5,78.5C 45.3505,79.552 45.5172,80.552 46,81.5C 50.7499,87.1459 56.5832,88.6459 63.5,86C 67.2154,77.2965 63.8821,72.9632 53.5,73C 53.0426,72.586 52.7093,72.086 52.5,71.5C 54.8638,69.9045 57.5305,68.7378 60.5,68C 65.2318,63.968 65.5651,59.468 61.5,54.5C 51.3662,50.3119 46.0328,53.6452 45.5,64.5C 44.325,64.719 43.325,64.3857 42.5,63.5C 42.0029,59.8245 41.0029,56.3245 39.5,53C 36.9865,51.7475 34.3198,51.2475 31.5,51.5 Z M 43.5,51.5 C 43.3691,52.3764 43.7025,53.0431 44.5,53.5C 47.1306,51.9954 46.7973,51.3287 43.5,51.5 Z M 20.5,67.5 C 20.3359,70.1873 20.5026,72.854 21,75.5C 22.3603,73.8946 23.8603,72.3946 25.5,71C 23.8043,69.8236 22.1376,68.657 20.5,67.5 Z M 64.5,67.5 C 63.8592,68.4822 63.1925,69.4822 62.5,70.5C 64.1487,71.6477 65.6487,72.981 67,74.5C 68.0807,71.3061 67.2474,68.9728 64.5,67.5 Z M 42.5,69.5 C 42.4701,70.4972 42.9701,71.1639 44,71.5C 45.4828,70.3966 44.9828,69.73 42.5,69.5 Z M 19.5,83.5 C 19.0046,81.5183 18.5046,79.5183 18,77.5C 17.0589,79.9894 17.5589,81.9894 19.5,83.5 Z M 43.5,86.5 C 43.0472,87.4584 42.3805,88.2917 41.5,89C 43.5,89.6667 45.5,89.6667 47.5,89C 46.5291,87.5187 45.1958,86.6854 43.5,86.5 Z"/></g>
<g><path style="opacity:0.075" fill="#000000" d="M 2.5,57.5 C 3.83333,58.1667 3.83333,58.1667 2.5,57.5 Z"/></g>
<g><path style="opacity:0.8" fill="#000000" d="M 40.5,66.5 C 45.9933,65.178 48.4933,67.178 48,72.5C 45.3333,76.5 42.6667,76.5 40,72.5C 39.3224,70.4024 39.4891,68.4024 40.5,66.5 Z M 42.5,69.5 C 42.4701,70.4972 42.9701,71.1639 44,71.5C 45.4828,70.3966 44.9828,69.73 42.5,69.5 Z"/></g>
<g><path style="opacity:0.075" fill="#000000" d="M 2.5,89.5 C 3.83333,90.1667 3.83333,90.1667 2.5,89.5 Z"/></g>
</svg>
