<?xml version="1.0" encoding="UTF-8"?>
<svg version="1.1" xmlns="http://www.w3.org/2000/svg" width="110" height="110">
<path d="M0 0 C0.73945358 -0.0033284 1.47890717 -0.0066568 2.24076843 -0.01008606 C3.79453924 -0.01511265 5.34832068 -0.01749572 6.90209961 -0.01733398 C9.24546604 -0.01951612 11.5883574 -0.0377055 13.93164062 -0.05664062 C37.54930567 -0.14749165 37.54930567 -0.14749165 45.94921875 7.16796875 C53.46717547 15.43939552 54.57375846 22.82308025 54.11035156 33.75292969 C53.8171077 38.14803313 53.26103447 42.49644289 52.63671875 46.85546875 C52.51917236 47.70439697 52.40162598 48.5533252 52.28051758 49.42797852 C51.18971548 56.39168698 49.11220062 60.72320094 43.51171875 65.23046875 C35.55440609 70.83868113 26.40167096 71.82080664 16.94921875 73.16796875 C15.85222656 73.35359375 14.75523438 73.53921875 13.625 73.73046875 C2.02667052 75.28338316 -12.44764753 73.16764442 -22.34375 66.66015625 C-27.29183697 62.4364284 -30.15754363 58.41002942 -32.05078125 52.16796875 C-32.23825928 51.56106201 -32.4257373 50.95415527 -32.61889648 50.32885742 C-34.44792389 43.53410969 -33.97568441 37.18304585 -33.36328125 30.23046875 C-33.28400391 29.11478516 -33.20472656 27.99910156 -33.12304688 26.84960938 C-31.71781427 9.59254422 -31.71781427 9.59254422 -26.30078125 4.66796875 C-17.8437925 0.76474317 -9.19935253 0.01484124 0 0 Z M-27.05078125 11.16796875 C-29.02894035 17.25806766 -29.54483291 23.68714648 -29.92578125 30.04296875 C-29.99796875 30.8834375 -30.07015625 31.72390625 -30.14453125 32.58984375 C-30.28198278 34.85417693 -30.37099153 36.92183919 -30.05078125 39.16796875 C-28.23743389 41.30279931 -28.23743389 41.30279931 -26.05078125 42.16796875 C-23.95625799 41.73086476 -23.95625799 41.73086476 -22.05078125 40.16796875 C-21.65842126 37.5370277 -21.49903753 35.24075676 -21.48828125 32.60546875 C-21.05640665 20.03623524 -21.05640665 20.03623524 -18.05078125 15.16796875 C-9.35779367 7.0990931 1.99993867 7.92114261 13.13671875 8.29296875 C14.24104248 8.32672607 15.34536621 8.3604834 16.4831543 8.39526367 C23.17594543 8.71463651 29.78864959 9.33714247 35.94921875 12.16796875 C37.94921875 14.85546875 37.94921875 14.85546875 38.94921875 18.16796875 C39.53703125 19.93140625 39.53703125 19.93140625 40.13671875 21.73046875 C41.28781337 26.55945107 41.00920329 31.38150587 40.82421875 36.3125 C40.71125847 39.37195751 40.71125847 39.37195751 42.94921875 42.16796875 C45.49129846 42.50140426 45.49129846 42.50140426 47.94921875 42.16796875 C50.94888623 39.16830127 50.17621697 31.20444431 50.32421875 27.29296875 C50.26205654 20.80047126 49.28422641 16.1160078 44.94921875 11.16796875 C42.74982999 9.35293919 40.55423907 8.28949433 37.94921875 7.16796875 C36.75151855 6.6476709 35.55381836 6.12737305 34.31982422 5.59130859 C29.63238873 3.85707194 25.28888964 3.7339519 20.33203125 3.76953125 C18.98623489 3.76522598 18.98623489 3.76522598 17.61325073 3.76083374 C15.72572189 3.75880328 13.83817151 3.76426145 11.95068359 3.77685547 C9.08903011 3.79288578 6.22879692 3.77699153 3.3671875 3.7578125 C1.52213235 3.75979585 -0.32292193 3.76364142 -2.16796875 3.76953125 C-3.00995819 3.76345856 -3.85194763 3.75738586 -4.7194519 3.75112915 C-12.38089895 3.84010226 -21.86267807 5.00709622 -27.05078125 11.16796875 Z M-15.55078125 15.85546875 C-19.78854151 22.38868249 -19.40508374 30.34895835 -19.70703125 37.875 C-20.05078125 41.16796875 -20.05078125 41.16796875 -22.05078125 44.16796875 C-25.67578125 44.35546875 -25.67578125 44.35546875 -29.05078125 44.16796875 C-28.20381754 52.46821315 -25.54839058 58.07602327 -20.05078125 64.16796875 C-19.78265625 63.63171875 -19.51453125 63.09546875 -19.23828125 62.54296875 C-18.84640625 61.75921875 -18.45453125 60.97546875 -18.05078125 60.16796875 C-17.67953125 59.19859375 -17.30828125 58.22921875 -16.92578125 57.23046875 C-13.36219202 51.40993968 -6.9363582 48.93916552 -0.8125 46.35546875 C1.71294957 44.65317015 2.6126207 42.9022384 3.94921875 40.16796875 C4.27029279 36.87817193 4.27029279 36.87817193 4.0234375 33.3359375 C3.94125977 31.39750977 3.94125977 31.39750977 3.85742188 29.41992188 C3.78420075 28.06508539 3.71062864 26.71026783 3.63671875 25.35546875 C3.57340493 23.9811865 3.51154077 22.60683664 3.45117188 21.23242188 C3.29810225 17.8766648 3.13026902 14.5223135 2.94921875 11.16796875 C-3.77143216 11.09158457 -9.87941469 12.02729632 -15.55078125 15.85546875 Z M5.94921875 11.16796875 C5.97540283 12.14668945 6.00158691 13.12541016 6.02856445 14.13378906 C6.1191912 17.7714138 6.17651151 21.40893921 6.22387695 25.04736328 C6.24899323 26.62077626 6.28309347 28.19407287 6.32641602 29.76708984 C6.38720274 32.03121647 6.41545457 34.29379897 6.4375 36.55859375 C6.46330643 37.25978333 6.48911285 37.9609729 6.51570129 38.68341064 C6.51782011 42.38846213 6.26184589 43.85058945 3.62036133 46.53222656 C-0.5027104 49.05709454 -4.77397361 51.21396948 -9.08984375 53.38671875 C-11.97462086 55.12215195 -13.40658944 56.27239545 -15.05078125 59.16796875 C-15.77559209 62.82071344 -15.77559209 62.82071344 -16.05078125 66.16796875 C-0.13339871 72.52692308 17.78273421 70.6758961 33.94921875 66.16796875 C35.29951989 65.53637628 36.63918411 64.87932763 37.94921875 64.16796875 C37.62319504 59.24778599 37.62319504 59.24778599 35.26953125 55.05859375 C32.58781304 52.87349002 30.39005077 52.11293869 27.07421875 51.16796875 C18.53526976 48.47091047 18.53526976 48.47091047 14.94921875 45.16796875 C12.69493865 39.09121369 12.31935236 32.90503025 11.82421875 26.48046875 C11.73785156 25.44857422 11.65148437 24.41667969 11.5625 23.35351562 C11.22862417 19.27016127 10.94921875 15.26790079 10.94921875 11.16796875 C9.29921875 11.16796875 7.64921875 11.16796875 5.94921875 11.16796875 Z M12.94921875 11.16796875 C12.80746334 18.05019384 13.30678469 24.65840842 14.19921875 31.48046875 C14.36357422 32.94323242 14.36357422 32.94323242 14.53125 34.43554688 C15.22777294 39.84826554 15.22777294 39.84826554 17.58984375 44.6796875 C20.70299409 46.64344624 23.93643414 47.67893231 27.44921875 48.66796875 C33.69891306 50.42759142 37.16471639 52.36375076 40.69921875 57.91796875 C41.11171875 58.66046875 41.52421875 59.40296875 41.94921875 60.16796875 C44.68199096 57.9957652 46.6781079 56.3096891 47.50390625 52.83203125 C47.73442136 50.61768918 47.84963309 48.3920485 47.94921875 46.16796875 C44.64921875 45.50796875 41.34921875 44.84796875 37.94921875 44.16796875 C38.0678125 43.24757812 38.18640625 42.3271875 38.30859375 41.37890625 C39.2585907 32.04993624 39.22034305 23.81942223 34.94921875 15.16796875 C32.53161644 13.01339261 31.24124405 12.81461658 27.94921875 12.16796875 C27.335625 11.99007813 26.72203125 11.8121875 26.08984375 11.62890625 C23.41777278 11.0535333 20.93000482 11.07295939 18.19921875 11.10546875 C17.214375 11.11449219 16.22953125 11.12351562 15.21484375 11.1328125 C14.09335937 11.15021484 14.09335937 11.15021484 12.94921875 11.16796875 Z " fill="#000000" transform="translate(45.05078125,9.83203125)"/>
<path d="M0 0 C1.25512894 -0.01283524 2.51025787 -0.02567047 3.80342102 -0.03889465 C5.16606243 -0.04706312 6.52870836 -0.05450664 7.89135742 -0.0612793 C8.58287085 -0.06535482 9.27438427 -0.06943035 9.98685265 -0.07362938 C13.64650543 -0.09443319 17.30612133 -0.10875991 20.96582031 -0.11816406 C24.72836217 -0.1292229 28.49031178 -0.16363225 32.25264454 -0.20333576 C35.16189104 -0.22958264 38.07099794 -0.23786292 40.9803524 -0.24144554 C42.36653333 -0.2462899 43.75270892 -0.25784207 45.13877296 -0.27648354 C54.22295885 -0.39107706 61.04985356 -0.19999996 67.93432617 6.30200195 C72.51751505 13.83152654 74.29152266 20.73747853 74.18041992 29.49731445 C74.18187515 30.44081757 74.18333038 31.38432068 74.18482971 32.35641479 C74.18318209 34.33456538 74.17174978 36.31273032 74.15087891 38.29077148 C74.12183021 41.30158348 74.13031353 44.31063994 74.14331055 47.3215332 C74.13707428 49.25513542 74.12868422 51.18873214 74.11791992 53.12231445 C74.12085556 54.01209991 74.1237912 54.90188538 74.1268158 55.81863403 C74.03069771 62.24484715 73.24314398 68.2401147 68.86010742 73.27075195 C67.9377832 73.9668457 67.9377832 73.9668457 66.99682617 74.67700195 C66.37420898 75.16168945 65.7515918 75.64637695 65.11010742 76.14575195 C64.63959961 76.48606445 64.1690918 76.82637695 63.68432617 77.17700195 C64.77745117 77.73387695 65.87057617 78.29075195 66.99682617 78.86450195 C70.38083754 80.8168162 72.18119324 82.46337943 73.68432617 86.17700195 C74.27195754 90.12252684 73.84807498 91.86163388 71.99682617 95.42700195 C69.46017309 98.44356237 68.38698944 99.07028304 64.68432617 100.17700195 C62.07157444 100.3930942 59.60564616 100.51047119 56.99682617 100.48950195 C56.29074219 100.4853125 55.5846582 100.48112305 54.85717773 100.47680664 C47.92245425 100.32791125 41.52668183 99.54563166 36.05932617 94.98950195 C35.60557617 94.39137695 35.15182617 93.79325195 34.68432617 93.17700195 C34.06557617 94.00200195 33.44682617 94.82700195 32.80932617 95.67700195 C32.10807617 96.50200195 31.40682617 97.32700195 30.68432617 98.17700195 C30.02432617 98.17700195 29.36432617 98.17700195 28.68432617 98.17700195 C28.68432617 98.83700195 28.68432617 99.49700195 28.68432617 100.17700195 C17.69141564 99.55798369 17.69141564 99.55798369 13.68432617 96.17700195 C12.37182617 93.98950195 12.37182617 93.98950195 11.68432617 92.17700195 C11.31307617 92.61012695 10.94182617 93.04325195 10.55932617 93.48950195 C4.79467669 98.67768649 -3.65839604 100.71904756 -11.30004883 100.4934082 C-16.2939053 99.70948887 -20.13643064 97.29577114 -23.75317383 93.86450195 C-25.75331527 90.42425868 -26.38574338 88.17096621 -26.31567383 84.17700195 C-24.3534453 80.6690179 -21.64724796 78.39805138 -18.31567383 76.17700195 C-19.18192383 75.21793945 -19.18192383 75.21793945 -20.06567383 74.23950195 C-25.50955587 66.82977362 -26.92814771 60.16673548 -26.88208008 51.0793457 C-26.88827866 50.04564346 -26.89447723 49.01194122 -26.90086365 47.94691467 C-26.90792844 45.77451513 -26.90484666 43.60206107 -26.89208984 41.4296875 C-26.8781962 38.11983223 -26.91238093 34.8127923 -26.95043945 31.50317383 C-26.95139055 29.38273043 -26.94953232 27.26228353 -26.94458008 25.1418457 C-26.95783829 24.16142807 -26.9710965 23.18101044 -26.98475647 22.17088318 C-26.89702826 15.65175043 -25.59103 11.19452517 -21.31567383 6.17700195 C-18.81567383 4.3371582 -18.81567383 4.3371582 -16.31567383 3.23950195 C-15.49067383 2.85922852 -14.66567383 2.47895508 -13.81567383 2.0871582 C-9.20004958 0.4067825 -4.89428622 0.04373194 0 0 Z M-19.69067383 11.23950195 C-24.34336289 19.65013219 -23.6351092 30.51685834 -23.57641602 39.88745117 C-23.56561226 41.93869058 -23.5764224 43.98906871 -23.58911133 46.0402832 C-23.5717033 54.94448704 -23.42415723 63.51427686 -18.31567383 71.17700195 C-15.25205606 72.61668923 -15.25205606 72.61668923 -12.31567383 73.17700195 C-12.31567383 74.16700195 -12.31567383 75.15700195 -12.31567383 76.17700195 C-11.15938477 76.41483398 -11.15938477 76.41483398 -9.97973633 76.6574707 C-8.9768457 76.89079102 -7.97395508 77.12411133 -6.94067383 77.36450195 C-5.44407227 77.69514648 -5.44407227 77.69514648 -3.91723633 78.0324707 C-1.31567383 79.17700195 -1.31567383 79.17700195 0.16088867 81.5402832 C0.68432617 84.17700195 0.68432617 84.17700195 0.08666992 86.43481445 C-1.31567383 88.17700195 -1.31567383 88.17700195 -3.37426758 88.85668945 C-4.15930664 88.92114258 -4.9443457 88.9855957 -5.75317383 89.05200195 C-6.92686523 89.17188477 -6.92686523 89.17188477 -8.12426758 89.29418945 C-10.31567383 89.17700195 -10.31567383 89.17700195 -13.31567383 87.17700195 C-13.64567383 86.18700195 -13.97567383 85.19700195 -14.31567383 84.17700195 C-13.77942383 84.50700195 -13.24317383 84.83700195 -12.69067383 85.17700195 C-9.77656773 86.40399399 -7.44699674 86.31933481 -4.31567383 86.17700195 C-3.65567383 84.85700195 -2.99567383 83.53700195 -2.31567383 82.17700195 C-4.2870002 80.20567559 -7.94360499 80.94709227 -10.62817383 80.92700195 C-11.30557617 80.90637695 -11.98297852 80.88575195 -12.6809082 80.86450195 C-16.86818644 80.83175686 -19.2818384 81.21335809 -22.31567383 84.17700195 C-22.02421145 89.44695597 -22.02421145 89.44695597 -18.94067383 93.55200195 C-13.62614088 96.84195092 -8.39932706 96.76259424 -2.31567383 96.17700195 C3.39445146 94.56555555 8.04434293 91.95447996 11.68432617 87.17700195 C12.56422591 83.99549304 12.56422591 83.99549304 12.68432617 81.17700195 C13.67432617 81.67200195 13.67432617 81.67200195 14.68432617 82.17700195 C14.64307617 83.22887695 14.60182617 84.28075195 14.55932617 85.36450195 C14.67729175 88.96245224 14.98661681 91.04964259 16.68432617 94.17700195 C20.37150055 96.63511821 22.32778321 96.48818359 26.68432617 96.17700195 C30.56429052 93.59035905 30.45060031 92.02652759 31.37182617 87.55200195 C31.62319336 86.36348633 31.87456055 85.1749707 32.13354492 83.95043945 C32.31530273 83.03520508 32.49706055 82.1199707 32.68432617 81.17700195 C34.68432617 83.17700195 34.68432617 83.17700195 35.05932617 85.48950195 C35.86858421 88.96931154 37.19853231 90.62402447 39.68432617 93.17700195 C47.2489436 97.68358255 55.06312169 98.14596418 63.55932617 96.36450195 C67.33367327 95.08499423 67.33367327 95.08499423 69.68432617 92.17700195 C69.68432617 88.06619086 69.34130429 85.93352221 66.62182617 82.80200195 C61.39177215 79.90878058 56.84463947 79.7219647 51.18432617 81.11450195 C50.02932617 81.46512695 48.87432617 81.81575195 47.68432617 82.17700195 C47.68432617 83.49700195 47.68432617 84.81700195 47.68432617 86.17700195 C50.36076574 87.06914848 51.93816995 87.31240406 54.68432617 87.30200195 C55.70526367 87.30586914 55.70526367 87.30586914 56.74682617 87.30981445 C58.90307399 87.24331321 58.90307399 87.24331321 61.68432617 86.17700195 C60.68432617 89.17700195 60.68432617 89.17700195 58.68432617 90.17700195 C54.37034729 90.61772278 50.71255778 90.60543179 46.68432617 88.92700195 C44.68432617 87.17700195 44.68432617 87.17700195 43.80932617 85.17700195 C43.68432617 83.17700195 43.68432617 83.17700195 44.68432617 80.17700195 C47.93944962 78.58560827 51.24247267 77.33985152 54.64135742 76.0871582 C63.10293676 72.89375335 63.10293676 72.89375335 68.68432617 66.17700195 C71.13637121 58.35568789 71.05676182 50.15168928 71.05493164 42.03759766 C71.05929851 39.87818046 71.09571414 37.72082452 71.13354492 35.56176758 C71.20967871 26.27955224 71.06287399 15.55400524 64.93383789 8.02734375 C59.06357554 2.45866506 51.86198649 2.91765796 44.18432617 2.61450195 C42.62742065 2.5529895 42.62742065 2.5529895 41.0390625 2.49023438 C32.48447274 2.1849165 23.93154209 2.03843661 15.37182617 1.98950195 C14.17557617 1.97653076 12.97932617 1.96355957 11.74682617 1.95019531 C-0.5869671 1.9372469 -10.20171941 2.99909417 -19.69067383 11.23950195 Z " fill="#000000" transform="translate(31.315673828125,4.822998046875)"/>
<path d="M0 0 C1.23492187 -0.01417969 2.46984375 -0.02835938 3.7421875 -0.04296875 C6.86586712 0.16984545 8.52561596 0.53512774 11.125 2.1875 C11.3125 4.5625 11.3125 4.5625 11.125 7.1875 C7.52388412 9.58824392 4.84896229 9.51994948 0.6875 9.5 C-1.29056641 9.52513672 -1.29056641 9.52513672 -3.30859375 9.55078125 C-6.93635659 9.1812501 -8.30395294 8.67964025 -10.875 6.1875 C-8.57921149 -0.20791084 -6.61998324 0.0344074 0 0 Z M-5.875 3.1875 C-6.205 4.1775 -6.535 5.1675 -6.875 6.1875 C-2.255 6.1875 2.365 6.1875 7.125 6.1875 C7.455 5.5275 7.785 4.8675 8.125 4.1875 C1.195 3.6925 1.195 3.6925 -5.875 3.1875 Z " fill="#000000" transform="translate(54.875,62.8125)"/>
<path d="M0 0 C6.46153846 0.46153846 6.46153846 0.46153846 9 3 C9.125 6.125 9.125 6.125 9 9 C6.58978936 10.51754003 5.31664378 11.02316906 2.4375 10.8125 C-0.24103469 9.9196551 -1.46977729 9.38034644 -3 7 C-2.75546876 3.65807308 -2.39456443 2.39456443 0 0 Z M1 4 C1.33 4.99 1.66 5.98 2 7 C3.32 7 4.64 7 6 7 C5.67 6.01 5.34 5.02 5 4 C3.68 4 2.36 4 1 4 Z " fill="#000000" transform="translate(68,34)"/>
<path d="M0 0 C3.125 0.25 3.125 0.25 5 1.4375 C6.50832602 3.86758081 6.48523622 5.44015752 6.125 8.25 C4.125 10.25 4.125 10.25 0.625 10.5625 C-1.1075 10.4078125 -1.1075 10.4078125 -2.875 10.25 C-4.875 7.25 -4.875 7.25 -4.5625 4.125 C-3.65202703 0.31756757 -3.65202703 0.31756757 0 0 Z M-0.875 3.25 C-0.875 4.57 -0.875 5.89 -0.875 7.25 C0.445 6.92 1.765 6.59 3.125 6.25 C3.125 5.59 3.125 4.93 3.125 4.25 C1.805 3.92 0.485 3.59 -0.875 3.25 Z " fill="#000000" transform="translate(37.875,33.75)"/>
<path d="M0 0 C2.5 0.125 2.5 0.125 3.5 1.125 C3.625 3.625 3.625 3.625 3.5 6.125 C2.5 7.125 2.5 7.125 0.0625 7.3125 C-2.5 7.125 -2.5 7.125 -4.5 5.125 C-3.7519084 0.18759542 -3.7519084 0.18759542 0 0 Z " fill="#000000" transform="translate(55.5,91.875)"/>
</svg>
