<?xml version="1.0" encoding="UTF-8"?>
<svg version="1.1" xmlns="http://www.w3.org/2000/svg" width="110" height="110">
<path d="M0 0 C1.85276709 -0.01798174 3.7054519 -0.05201209 5.55761719 -0.10253906 C19.27421223 -0.47661694 31.99105165 0.55443042 42.83984375 9.88867188 C51.11134125 18.43624239 51.6058364 26.37097806 51.54223633 37.84790039 C51.5622168 39.11569336 51.58219727 40.38348633 51.6027832 41.68969727 C51.59872154 49.53277368 50.67370406 55.54422177 47.10473633 62.53540039 C46.79576416 63.18033447 46.48679199 63.82526855 46.16845703 64.48974609 C45.33396224 66.19230066 44.43960511 67.86513009 43.54223633 69.53540039 C42.96344727 70.62852539 42.3846582 71.72165039 41.78833008 72.84790039 C40.10473633 75.53540039 40.10473633 75.53540039 37.10473633 77.53540039 C37.7312207 77.87313477 38.35770508 78.21086914 39.00317383 78.55883789 C39.82043945 79.00485352 40.63770508 79.45086914 41.47973633 79.91040039 C42.2918457 80.35125977 43.10395508 80.79211914 43.94067383 81.24633789 C46.10473633 82.53540039 46.10473633 82.53540039 48.10473633 84.53540039 C48.54400151 89.00126305 48.72749211 91.41443998 46.54223633 95.34790039 C40.88445546 100.42539604 35.0979066 101.06182504 27.79223633 100.97290039 C26.95571533 100.96822754 26.11919434 100.96355469 25.25732422 100.95874023 C18.11543854 100.78798468 11.34299814 99.7736622 6.10473633 94.53540039 C5.23848633 95.36040039 4.37223633 96.18540039 3.47973633 97.03540039 C1.11865988 98.98537177 0.16104099 99.52505872 -2.95776367 100.09790039 C-6.59706132 99.40101361 -8.25734194 98.10004652 -10.89526367 95.53540039 C-11.55526367 94.54540039 -12.21526367 93.55540039 -12.89526367 92.53540039 C-13.34256836 92.94532227 -13.78987305 93.35524414 -14.25073242 93.77758789 C-14.85530273 94.31641602 -15.45987305 94.85524414 -16.08276367 95.41040039 C-16.67444336 95.94407227 -17.26612305 96.47774414 -17.87573242 97.02758789 C-24.17906462 101.7337508 -31.3682446 101.0882323 -38.89526367 100.53540039 C-43.89147097 99.48719151 -47.69362759 97.5821035 -50.89526367 93.53540039 C-51.42651367 90.40649414 -51.42651367 90.40649414 -51.39526367 86.97290039 C-51.40557617 85.83723633 -51.41588867 84.70157227 -51.42651367 83.53149414 C-50.89526367 80.53540039 -50.89526367 80.53540039 -49.11401367 78.75805664 C-47.06215189 77.6273652 -45.02039593 76.52206894 -42.89526367 75.53540039 C-43.30518555 75.07391602 -43.71510742 74.61243164 -44.13745117 74.13696289 C-44.6762793 73.48469727 -45.21510742 72.83243164 -45.77026367 72.16040039 C-46.30393555 71.53391602 -46.83760742 70.90743164 -47.38745117 70.26196289 C-52.21319069 61.53562563 -51.26771635 50.6160393 -51.26586914 40.93017578 C-51.27027227 38.34285045 -51.30677278 35.75719427 -51.34448242 33.17016602 C-51.35034692 31.50676031 -51.35431877 29.84334662 -51.35620117 28.17993164 C-51.3705722 27.41622757 -51.38494324 26.6525235 -51.39974976 25.86567688 C-51.346419 19.55619432 -49.41668098 15.58291495 -45.36010742 10.67993164 C-33.04098377 -0.0638565 -15.45563507 0.09908328 0 0 Z M-21.89526367 5.53540039 C-22.84401367 5.6449707 -23.79276367 5.75454102 -24.77026367 5.86743164 C-31.80672971 6.89358294 -37.32017809 10.18954375 -42.89526367 14.53540039 C-45.17261377 17.35050033 -45.17261377 17.35050033 -44.89526367 20.53540039 C-45.55526367 20.86540039 -46.21526367 21.19540039 -46.89526367 21.53540039 C-46.89526367 22.52540039 -46.89526367 23.51540039 -46.89526367 24.53540039 C-47.05639648 25.23020508 -47.2175293 25.92500977 -47.38354492 26.64086914 C-49.51525714 38.6988749 -50.31300462 59.72903911 -43.39526367 70.22290039 C-36.10936934 78.15681898 -26.20417443 79.79044191 -15.89526367 80.53540039 C-12.24077321 80.6099058 -8.60765369 80.6052096 -4.95385742 80.50805664 C-2.09084221 80.53365192 0.31605143 80.94924369 3.10473633 81.53540039 C14.70010341 82.24063488 25.17971775 80.91059481 35.10473633 74.53540039 C37.68233353 71.95094961 37.68233353 71.95094961 39.10473633 69.53540039 C38.77473633 68.87540039 38.44473633 68.21540039 38.10473633 67.53540039 C37.60844727 68.01750977 37.1121582 68.49961914 36.60083008 68.99633789 C24.14440336 80.57821472 4.16628404 78.07594741 -11.91967773 77.68481445 C-20.40402929 77.25878695 -28.97002162 75.6258936 -36.89526367 72.53540039 C-38.02026367 70.41040039 -38.02026367 70.41040039 -38.89526367 67.53540039 C-39.57588867 66.44227539 -40.25651367 65.34915039 -40.95776367 64.22290039 C-43.90601722 58.4140737 -43.70561883 51.90954603 -43.84838867 45.53100586 C-43.89091571 43.72050602 -43.96918707 41.91093365 -44.05151367 40.10180664 C-44.29792866 31.71342983 -43.70935464 22.16358233 -39.89526367 14.53540039 C-38.12182617 13.53930664 -38.12182617 13.53930664 -35.89526367 12.53540039 C-35.16049805 12.19379883 -34.42573242 11.85219727 -33.66870117 11.50024414 C-25.7042335 8.08875392 -18.67475144 7.47370609 -10.08276367 7.59790039 C-3.55310124 7.67432037 2.69273573 6.69369727 9.10473633 5.53540039 C9.10473633 5.20540039 9.10473633 4.87540039 9.10473633 4.53540039 C-1.50369709 3.04649746 -11.36303061 4.0621416 -21.89526367 5.53540039 Z M9.10473633 6.53540039 C12.73473633 6.86540039 16.36473633 7.19540039 20.10473633 7.53540039 C16.57115771 4.00182178 13.1728399 3.82333135 9.10473633 6.53540039 Z M21.10473633 5.53540039 C21.10473633 6.52540039 21.10473633 7.51540039 21.10473633 8.53540039 C22.4427832 8.89891602 22.4427832 8.89891602 23.80786133 9.26977539 C24.97833008 9.60493164 26.14879883 9.94008789 27.35473633 10.28540039 C28.51489258 10.61024414 29.67504883 10.93508789 30.87036133 11.26977539 C34.25569587 12.59447152 35.76088569 13.81819302 38.10473633 16.53540039 C38.63711914 16.9955957 39.16950195 17.45579102 39.71801758 17.92993164 C41.63818245 20.15299575 42.34766758 22.45433683 43.29223633 25.22290039 C43.63641602 26.21676758 43.9805957 27.21063477 44.33520508 28.23461914 C44.58915039 28.99387695 44.8430957 29.75313477 45.10473633 30.53540039 C45.43473633 30.53540039 45.76473633 30.53540039 46.10473633 30.53540039 C46.92222881 24.3224575 44.32433423 19.6559311 41.10473633 14.53540039 C36.31960489 9.18061044 30.84404707 8.10120571 24.10473633 6.53540039 C23.11473633 6.20540039 22.12473633 5.87540039 21.10473633 5.53540039 Z M2.10473633 8.53540039 C2.38062824 17.2259956 5.38041491 22.04776085 10.83911133 28.62524414 C13.78651689 31.11021193 16.92115527 32.15978575 20.54223633 33.28540039 C21.19772461 33.50583008 21.85321289 33.72625977 22.52856445 33.95336914 C26.14958543 35.12284633 29.29911837 35.79937389 33.10473633 35.53540039 C32.77473633 34.87540039 32.44473633 34.21540039 32.10473633 33.53540039 C29.97209567 32.96293913 27.82251759 32.45314067 25.66723633 31.97290039 C18.06727905 29.88678967 13.07353281 26.6609005 8.10473633 20.53540039 C5.9840412 16.74082325 5.14943843 12.72345396 4.10473633 8.53540039 C3.44473633 8.53540039 2.78473633 8.53540039 2.10473633 8.53540039 Z M-5.89526367 10.53540039 C-6.06541992 11.18766602 -6.23557617 11.83993164 -6.41088867 12.51196289 C-8.6588704 20.61904595 -11.22013629 26.19272064 -18.69604492 30.50415039 C-25.29906747 33.60041674 -32.71658967 33.96590224 -39.89526367 34.53540039 C-40.22526367 35.52540039 -40.55526367 36.51540039 -40.89526367 37.53540039 C-29.10708071 37.3383335 -16.95365174 35.85629138 -7.89526367 27.53540039 C-4.80795272 22.02234511 -4.26006259 16.78729905 -3.89526367 10.53540039 C-4.55526367 10.53540039 -5.21526367 10.53540039 -5.89526367 10.53540039 Z M21.10473633 10.53540039 C22.10473633 12.53540039 22.10473633 12.53540039 22.10473633 12.53540039 Z M-26.89526367 14.53540039 C-27.22526367 15.19540039 -27.55526367 15.85540039 -27.89526367 16.53540039 C-26.90526367 16.20540039 -25.91526367 15.87540039 -24.89526367 15.53540039 C-25.55526367 15.20540039 -26.21526367 14.87540039 -26.89526367 14.53540039 Z M-20.89526367 14.53540039 C-20.23526367 15.19540039 -19.57526367 15.85540039 -18.89526367 16.53540039 C-18.89526367 15.87540039 -18.89526367 15.21540039 -18.89526367 14.53540039 C-19.55526367 14.53540039 -20.21526367 14.53540039 -20.89526367 14.53540039 Z M28.10473633 14.53540039 C28.10473633 15.19540039 28.10473633 15.85540039 28.10473633 16.53540039 C29.09473633 16.20540039 30.08473633 15.87540039 31.10473633 15.53540039 C30.11473633 15.20540039 29.12473633 14.87540039 28.10473633 14.53540039 Z M-0.89526367 15.53540039 C-1.09120117 16.32043945 -1.28713867 17.10547852 -1.48901367 17.91430664 C-3.65561465 25.52542646 -6.05710472 30.3291947 -12.89526367 34.53540039 C-15.55554732 35.79315354 -18.06699178 36.67681785 -20.89526367 37.53540039 C-19.97005491 39.92552303 -19.36591481 41.24964792 -17.14526367 42.59790039 C-14.02554451 42.51124153 -12.81504204 40.8210358 -10.57495117 38.82055664 C-5.10868817 34.63822983 1.86227098 35.31643482 8.32739258 35.97680664 C12.10648851 36.73687797 14.11682809 38.16039641 17.10473633 40.53540039 C18.09473633 40.53540039 19.08473633 40.53540039 20.10473633 40.53540039 C20.76473633 39.21540039 21.42473633 37.89540039 22.10473633 36.53540039 C21.53625977 36.38844727 20.9677832 36.24149414 20.38208008 36.09008789 C11.67253398 33.56010288 6.71919567 29.23506167 2.14770508 21.46508789 C1.09006945 19.50826391 0.0852316 17.53188397 -0.89526367 15.53540039 Z M15.10473633 15.53540039 C16.10473633 17.53540039 16.10473633 17.53540039 16.10473633 17.53540039 Z M21.10473633 15.53540039 C21.43473633 16.19540039 21.76473633 16.85540039 22.10473633 17.53540039 C22.43473633 16.87540039 22.76473633 16.21540039 23.10473633 15.53540039 C22.44473633 15.53540039 21.78473633 15.53540039 21.10473633 15.53540039 Z M-22.89526367 16.53540039 C-23.88526367 18.02040039 -23.88526367 18.02040039 -24.89526367 19.53540039 C-23.57526367 18.87540039 -22.25526367 18.21540039 -20.89526367 17.53540039 C-21.55526367 17.20540039 -22.21526367 16.87540039 -22.89526367 16.53540039 Z M-16.89526367 16.53540039 C-17.22526367 17.19540039 -17.55526367 17.85540039 -17.89526367 18.53540039 C-17.23526367 18.53540039 -16.57526367 18.53540039 -15.89526367 18.53540039 C-16.22526367 17.87540039 -16.55526367 17.21540039 -16.89526367 16.53540039 Z M24.10473633 17.53540039 C24.43473633 18.52540039 24.76473633 19.51540039 25.10473633 20.53540039 C25.76473633 19.87540039 26.42473633 19.21540039 27.10473633 18.53540039 C26.11473633 18.20540039 25.12473633 17.87540039 24.10473633 17.53540039 Z M-33.89526367 19.53540039 C-32.89526367 21.53540039 -32.89526367 21.53540039 -32.89526367 21.53540039 Z M34.10473633 19.53540039 C34.76473633 20.19540039 35.42473633 20.85540039 36.10473633 21.53540039 C36.43473633 20.87540039 36.76473633 20.21540039 37.10473633 19.53540039 C36.11473633 19.53540039 35.12473633 19.53540039 34.10473633 19.53540039 Z M21.10473633 20.53540039 C21.43473633 21.52540039 21.76473633 22.51540039 22.10473633 23.53540039 C22.76473633 22.87540039 23.42473633 22.21540039 24.10473633 21.53540039 C23.11473633 21.20540039 22.12473633 20.87540039 21.10473633 20.53540039 Z M31.10473633 22.53540039 C31.43473633 23.19540039 31.76473633 23.85540039 32.10473633 24.53540039 C32.43473633 23.87540039 32.76473633 23.21540039 33.10473633 22.53540039 C32.44473633 22.53540039 31.78473633 22.53540039 31.10473633 22.53540039 Z M17.10473633 23.53540039 C17.76473633 24.19540039 18.42473633 24.85540039 19.10473633 25.53540039 C19.10473633 24.87540039 19.10473633 24.21540039 19.10473633 23.53540039 C18.44473633 23.53540039 17.78473633 23.53540039 17.10473633 23.53540039 Z M-33.89526367 24.53540039 C-34.22526367 25.19540039 -34.55526367 25.85540039 -34.89526367 26.53540039 C-33.90526367 26.20540039 -32.91526367 25.87540039 -31.89526367 25.53540039 C-32.55526367 25.20540039 -33.21526367 24.87540039 -33.89526367 24.53540039 Z M27.10473633 25.53540039 C27.43473633 26.19540039 27.76473633 26.85540039 28.10473633 27.53540039 C28.43473633 26.87540039 28.76473633 26.21540039 29.10473633 25.53540039 C28.44473633 25.53540039 27.78473633 25.53540039 27.10473633 25.53540039 Z M21.10473633 26.53540039 C21.76473633 27.19540039 22.42473633 27.85540039 23.10473633 28.53540039 C23.10473633 27.87540039 23.10473633 27.21540039 23.10473633 26.53540039 C22.44473633 26.53540039 21.78473633 26.53540039 21.10473633 26.53540039 Z M-37.89526367 27.53540039 C-38.22526367 28.19540039 -38.55526367 28.85540039 -38.89526367 29.53540039 C-38.23526367 29.53540039 -37.57526367 29.53540039 -36.89526367 29.53540039 C-37.22526367 28.87540039 -37.55526367 28.21540039 -37.89526367 27.53540039 Z M-24.89526367 27.53540039 C-23.89526367 29.53540039 -23.89526367 29.53540039 -23.89526367 29.53540039 Z M30.10473633 28.53540039 C30.43473633 29.19540039 30.76473633 29.85540039 31.10473633 30.53540039 C31.43473633 29.87540039 31.76473633 29.21540039 32.10473633 28.53540039 C31.44473633 28.53540039 30.78473633 28.53540039 30.10473633 28.53540039 Z M40.10473633 29.53540039 C41.10473633 31.53540039 41.10473633 31.53540039 41.10473633 31.53540039 Z M44.10473633 30.53540039 C44.43473633 34.82540039 44.76473633 39.11540039 45.10473633 43.53540039 C47.30553686 40.2341996 47.31692382 39.64438881 46.85473633 35.91040039 C46.76708008 35.11375977 46.67942383 34.31711914 46.58911133 33.49633789 C46.3493457 32.52567383 46.3493457 32.52567383 46.10473633 31.53540039 C45.44473633 31.20540039 44.78473633 30.87540039 44.10473633 30.53540039 Z M35.10473633 34.53540039 C35.10473633 34.86540039 35.10473633 35.19540039 35.10473633 35.53540039 C37.41473633 35.86540039 39.72473633 36.19540039 42.10473633 36.53540039 C42.10473633 35.87540039 42.10473633 35.21540039 42.10473633 34.53540039 C39.79473633 34.53540039 37.48473633 34.53540039 35.10473633 34.53540039 Z M-12.27026367 44.22290039 C-12.80651367 44.98602539 -13.34276367 45.74915039 -13.89526367 46.53540039 C-16.73696699 46.11440731 -18.00100847 45.4491349 -20.27026367 43.59790039 C-25.53762365 39.45926041 -30.45560466 39.22380399 -36.89526367 39.53540039 C-38.23517988 39.84120008 -39.57103497 40.16755908 -40.89526367 40.53540039 C-41.79297884 56.45166368 -41.79297884 56.45166368 -34.67651367 70.28540039 C-30.68037351 73.08970928 -25.61765139 73.69059744 -20.89526367 74.53540039 C-19.99259766 74.70813477 -19.08993164 74.88086914 -18.15991211 75.05883789 C-12.55718633 75.87670513 -6.91600963 75.7213397 -1.26513672 75.72070312 C0.90067377 75.72288372 3.0659692 75.74105756 5.23168945 75.76000977 C16.41007526 75.80732637 26.4067478 75.42996026 35.10473633 67.53540039 C36.95590835 65.00441943 38.08913542 62.49242623 39.10473633 59.53540039 C39.43924805 58.59374023 39.43924805 58.59374023 39.78051758 57.63305664 C41.4739842 51.99968808 41.29775314 46.36879742 41.10473633 40.53540039 C37.22652887 38.4146377 34.56148916 38.15770947 30.10473633 38.53540039 C24.41184984 40.50988055 24.41184984 40.50988055 20.10473633 44.53540039 C20.10473633 45.19540039 20.10473633 45.85540039 20.10473633 46.53540039 C18.78473633 46.53540039 17.46473633 46.53540039 16.10473633 46.53540039 C16.04286133 45.93727539 15.98098633 45.33915039 15.91723633 44.72290039 C14.76638219 41.62444694 12.9983952 40.98222982 10.10473633 39.53540039 C1.98646185 36.8293089 -6.4661421 37.65507861 -12.27026367 44.22290039 Z M45.10473633 46.53540039 C43.65289155 51.07241533 42.86964437 54.71601515 43.10473633 59.53540039 C46.20375956 56.43637716 46.09459423 54.14392654 46.16723633 49.78540039 C46.14661133 48.71290039 46.12598633 47.64040039 46.10473633 46.53540039 C45.77473633 46.53540039 45.44473633 46.53540039 45.10473633 46.53540039 Z M42.10473633 59.53540039 C43.10473633 61.53540039 43.10473633 61.53540039 43.10473633 61.53540039 Z M41.10473633 61.53540039 C42.10473633 63.53540039 42.10473633 63.53540039 42.10473633 63.53540039 Z M40.10473633 63.53540039 C41.10473633 65.53540039 41.10473633 65.53540039 41.10473633 65.53540039 Z M-46.89526367 81.53540039 C-49.20728253 84.40250347 -49.20728253 84.40250347 -48.89526367 87.91040039 C-47.61564412 92.54902125 -45.8776508 93.93153189 -41.89526367 96.53540039 C-36.09935247 98.62836832 -28.94760692 98.15110337 -23.14526367 96.41040039 C-18.46750989 93.71169628 -14.63325353 90.96022421 -13.02026367 85.66040039 C-12.97901367 84.95915039 -12.93776367 84.25790039 -12.89526367 83.53540039 C-14.49794187 83.42715196 -16.10272116 83.34969394 -17.70776367 83.28540039 C-19.04774414 83.21579102 -19.04774414 83.21579102 -20.41479492 83.14477539 C-23.0424185 83.27685362 -23.0424185 83.27685362 -24.48510742 85.47290039 C-25.18313477 86.49383789 -25.18313477 86.49383789 -25.89526367 87.53540039 C-31.0650709 89.25866947 -35.47870188 89.76109047 -40.89526367 89.53540039 C-41.22526367 88.54540039 -41.55526367 87.55540039 -41.89526367 86.53540039 C-40.94651367 86.45290039 -39.99776367 86.37040039 -39.02026367 86.28540039 C-35.79064576 85.88465116 -35.79064576 85.88465116 -34.52026367 83.47290039 C-34.31401367 82.83352539 -34.10776367 82.19415039 -33.89526367 81.53540039 C-38.54843305 78.43328747 -41.97636272 79.50368043 -46.89526367 81.53540039 Z M-30.89526367 81.53540039 C-31.22526367 83.18540039 -31.55526367 84.83540039 -31.89526367 86.53540039 C-29.91526367 85.87540039 -27.93526367 85.21540039 -25.89526367 84.53540039 C-25.89526367 83.87540039 -25.89526367 83.21540039 -25.89526367 82.53540039 C-27.54526367 82.20540039 -29.19526367 81.87540039 -30.89526367 81.53540039 Z M19.10473633 84.53540039 C20.7275394 86.66038108 20.7275394 86.66038108 23.10473633 88.53540039 C26.27256833 88.86988298 26.27256833 88.86988298 29.10473633 88.53540039 C28.44473633 86.55540039 27.78473633 84.57540039 27.10473633 82.53540039 C24.46896949 82.53540039 21.61960222 83.80380304 19.10473633 84.53540039 Z M-8.89526367 84.53540039 C-9.39456657 90.13167146 -9.39456657 90.13167146 -7.27026367 95.09790039 C-4.8918283 96.85219231 -4.8918283 96.85219231 -1.64526367 96.28540039 C-0.73776367 96.03790039 0.16973633 95.79040039 1.10473633 95.53540039 C1.63466325 94.08034681 2.15341523 92.62121912 2.66723633 91.16040039 C2.95727539 90.34829102 3.24731445 89.53618164 3.54614258 88.69946289 C4.36446661 86.5077229 4.36446661 86.5077229 3.10473633 84.53540039 C-0.85526367 84.53540039 -4.81526367 84.53540039 -8.89526367 84.53540039 Z M31.10473633 82.53540039 C31.29944743 84.48539168 31.29944743 84.48539168 32.10473633 86.53540039 C33.42120752 87.23477571 34.75495784 87.90269172 36.10473633 88.53540039 C36.43473633 89.52540039 36.76473633 90.51540039 37.10473633 91.53540039 C30.5478059 91.90499772 23.95232499 91.91288694 18.10473633 88.53540039 C17.44473633 87.21540039 16.78473633 85.89540039 16.10473633 84.53540039 C13.13473633 84.53540039 10.16473633 84.53540039 7.10473633 84.53540039 C7.29527267 88.63193169 7.82881645 90.23929125 10.66723633 93.28540039 C17.16423339 98.07347168 25.33694564 98.25157967 33.10473633 97.53540039 C37.40129306 96.65024509 40.91357932 95.58642128 44.22973633 92.66040039 C45.40778255 89.799431 45.21109029 88.41192069 44.10473633 85.53540039 C39.97655821 81.54957325 36.52790984 81.17960701 31.10473633 82.53540039 Z " fill="#000000" transform="translate(54.895263671875,3.464599609375)"/>
<path d="M0 0 C1.66343625 3.03332493 2.00207505 5.49327787 2.0625 8.9375 C0.6875 11.3125 0.6875 11.3125 -1.9375 12.9375 C-6.02379297 14.02268769 -9.52202326 14.57446453 -13.4375 12.8125 C-15.34134538 10.43269328 -15.79247656 8.98299218 -15.9375 5.9375 C-15.20701228 3.08195711 -14.61907659 1.48800417 -12.3125 -0.375 C-8.25529028 -1.54945544 -3.82805181 -2.09925422 0 0 Z M-10.9375 3.0625 C-12.32094734 5.65646376 -11.75464464 7.18892257 -10.9375 9.9375 C-8.12985272 10.71176109 -8.12985272 10.71176109 -4.9375 10.9375 C-2.57459315 9.62614588 -2.57459315 9.62614588 -0.9375 7.9375 C-1.2675 6.2875 -1.5975 4.6375 -1.9375 2.9375 C-6.57251837 1.77740601 -6.57251837 1.77740601 -10.9375 3.0625 Z " fill="#000000" transform="translate(63.9375,48.0625)"/>
<path d="M0 0 C3.5625 0.1875 3.5625 0.1875 5.5625 2.1875 C5.5 4.6875 5.5 4.6875 4.5625 7.1875 C2.3125 8.6875 2.3125 8.6875 -0.4375 9.1875 C-3.25 7.8125 -3.25 7.8125 -5.4375 6.1875 C-4.36970339 0.23834746 -4.36970339 0.23834746 0 0 Z M-1.4375 3.1875 C-1.1075 4.1775 -0.7775 5.1675 -0.4375 6.1875 C0.5525 5.8575 1.5425 5.5275 2.5625 5.1875 C2.5625 4.5275 2.5625 3.8675 2.5625 3.1875 C1.2425 3.1875 -0.0775 3.1875 -1.4375 3.1875 Z " fill="#000000" transform="translate(21.4375,47.8125)"/>
<path d="M0 0 C2 2 2 2 2.1875 4.5625 C2 7 2 7 1 8 C-4.28735632 8.45977011 -4.28735632 8.45977011 -6.9375 6.75 C-8 5 -8 5 -7.8125 2.875 C-6.27324821 -0.67711952 -3.47612515 -0.26070939 0 0 Z " fill="#000000" transform="translate(90,47)"/>
<path d="" fill="#000000" transform="translate(0,0)"/>
</svg>
