<?xml version="1.0" encoding="UTF-8"?>
<svg version="1.1" xmlns="http://www.w3.org/2000/svg" width="110" height="110">
<path d="M0 0 C16.22745657 -0.75750008 32.57453331 -0.28062342 45.38964844 11.12646484 C47.35058594 13.88037109 47.35058594 13.88037109 48.76464844 16.68896484 C49.24675781 17.61837891 49.72886719 18.54779297 50.22558594 19.50537109 C53.33655607 26.51027365 52.96708148 34.30738967 53.29003906 41.84814453 C53.37803321 43.8607951 53.48403633 45.87264082 53.59277344 47.88427734 C53.84449337 55.48981531 53.20517946 61.98972841 47.85839844 67.78662109 C44.06269858 71.12646484 44.06269858 71.12646484 41.38964844 71.12646484 C41.38964844 71.78646484 41.38964844 72.44646484 41.38964844 73.12646484 C42.27652344 73.16771484 43.16339844 73.20896484 44.07714844 73.25146484 C47.60848003 74.18426942 49.21629997 75.32045337 51.41699219 78.23583984 C53.17573913 81.65444835 53.49629883 85.31752242 53.38964844 89.12646484 C51.15606969 93.59362233 46.22068185 97.01820778 42.01464844 99.56396484 C34.38859755 101.19811861 28.47641478 100.05891988 21.38964844 97.12646484 C17.46458609 96.79570555 17.46458609 96.79570555 14.76464844 98.62646484 C9.34575043 101.03486396 4.2847644 101.03553945 -1.37207031 99.25927734 C-3.82035992 98.2799615 -6.21247922 97.22200652 -8.61035156 96.12646484 C-9.60035156 95.79646484 -10.59035156 95.46646484 -11.61035156 95.12646484 C-13.24258241 96.13306322 -13.24258241 96.13306322 -14.92285156 97.56396484 C-20.72703821 101.38701767 -26.91358319 101.08314604 -33.61035156 100.12646484 C-39.17531857 98.19801093 -43.50933429 95.21213317 -46.61035156 90.12646484 C-48.9949516 85.13016001 -49.14319827 80.40411427 -47.61035156 75.12646484 C-45.17285156 72.06396484 -45.17285156 72.06396484 -42.61035156 70.12646484 C-41.95035156 70.12646484 -41.29035156 70.12646484 -40.61035156 70.12646484 C-41.25025024 69.58058716 -41.25025024 69.58058716 -41.90307617 69.02368164 C-45.64492605 65.36378204 -47.04214178 62.66457356 -47.30175781 57.39599609 C-47.28987881 55.24325625 -47.24606771 53.09049205 -47.17285156 50.93896484 C-47.17091797 49.87871094 -47.16898438 48.81845703 -47.16699219 47.72607422 C-46.96370599 35.37079109 -44.22491321 23.10101906 -36.61035156 13.12646484 C-32.54885355 9.83434854 -28.28387418 7.44325383 -23.61035156 5.12646484 C-22.81242187 4.68560547 -22.01449219 4.24474609 -21.19238281 3.79052734 C-14.31492113 0.25784211 -7.57913084 0.36718947 0 0 Z M8.24902344 3.14208984 C-7.64663757 3.31955336 -20.94307135 4.59859637 -33.33300781 15.69677734 C-42.88641042 25.88925834 -44.46119514 42.35367714 -44.06347656 55.83349609 C-43.49464374 59.96734156 -42.59553796 62.53894496 -39.76660156 65.61474609 C-35.20894836 68.8100573 -29.9873975 69.9819303 -24.61035156 71.12646484 C-23.47641968 71.39027954 -23.47641968 71.39027954 -22.31958008 71.65942383 C-14.60559493 73.29347795 -6.98071519 73.46559045 0.86694336 73.44213867 C3.05666717 73.43899425 5.24501382 73.46246739 7.43457031 73.48779297 C19.8237802 73.54369931 35.44510202 73.43336519 45.38964844 65.12646484 C52.1616442 56.02659554 50.4328291 37.80197759 48.96386719 26.99365234 C47.37118942 20.7597357 44.32034562 15.29920696 39.38964844 11.12646484 C29.56389531 5.9707045 19.35285006 3.06104001 8.24902344 3.14208984 Z M-43.61035156 75.12646484 C-45.06657487 77.35586208 -45.63333964 78.63222114 -45.50878906 81.31005859 C-44.20373003 86.92960382 -42.83623268 90.85640036 -37.92285156 94.31396484 C-32.66646435 97.36606064 -27.60488174 98.12220056 -21.61035156 97.12646484 C-16.35130395 94.49694104 -13.03187864 90.89844264 -10.36035156 85.68896484 C-9.49587746 82.73534501 -9.46793853 80.18834513 -9.61035156 77.12646484 C-10.86847656 76.77583984 -12.12660156 76.42521484 -13.42285156 76.06396484 C-14.13054688 75.86673828 -14.83824219 75.66951172 -15.56738281 75.46630859 C-17.80279315 74.93082668 -17.80279315 74.93082668 -20.61035156 76.12646484 C-20.36285156 77.19896484 -20.11535156 78.27146484 -19.86035156 79.37646484 C-19.61035156 83.12646484 -19.61035156 83.12646484 -20.86035156 85.62646484 C-25.308623 88.05279472 -29.74105565 86.89883592 -34.61035156 86.12646484 C-34.61035156 85.13646484 -34.61035156 84.14646484 -34.61035156 83.12646484 C-33.92328125 83.30564453 -33.23621094 83.48482422 -32.52832031 83.66943359 C-31.62726562 83.88212891 -30.72621094 84.09482422 -29.79785156 84.31396484 C-28.90453125 84.53439453 -28.01121094 84.75482422 -27.09082031 84.98193359 C-24.54695397 85.40664385 -24.54695397 85.40664385 -22.78613281 83.67724609 C-22.398125 83.16548828 -22.01011719 82.65373047 -21.61035156 82.12646484 C-22.96755715 77.68470109 -24.60421326 75.51310043 -28.61035156 73.12646484 C-34.2982132 71.58381602 -38.64800485 71.61651229 -43.61035156 75.12646484 Z M18.38964844 76.12646484 C16.97341808 77.32773822 16.97341808 77.32773822 17.07714844 80.81396484 C17.14088928 85.26785622 18.49551716 87.68479521 21.38964844 91.12646484 C25.80921315 95.20606304 29.12369172 97.16361168 35.20214844 97.06396484 C39.91225468 96.32214545 43.71480192 94.11119934 47.38964844 91.12646484 C49.73133608 87.61393339 49.88588521 86.26177129 49.38964844 82.12646484 C47.57999051 79.17739266 46.04786765 77.51783843 43.07714844 75.75146484 C39.49296504 74.91793382 36.94329751 75.20514842 33.38964844 76.12646484 C31.27963685 77.79903101 31.27963685 77.79903101 30.38964844 80.12646484 C30.60682196 82.33447013 30.60682196 82.33447013 31.38964844 84.12646484 C34.30447621 84.93613923 35.8507806 85.34492478 38.70214844 84.18896484 C39.25902344 83.83833984 39.81589844 83.48771484 40.38964844 83.12646484 C39.72964844 84.44646484 39.06964844 85.76646484 38.38964844 87.12646484 C30.98324034 87.61213095 30.98324034 87.61213095 28.32714844 85.43896484 C26.77839902 81.61871629 28.13317054 78.89589854 29.38964844 75.12646484 C25.59145 75.12646484 22.12808983 75.49163517 18.38964844 76.12646484 Z M-6.61035156 76.12646484 C-6.6709375 76.77873047 -6.73152344 77.43099609 -6.79394531 78.10302734 C-7.24555148 82.81362702 -7.75230195 87.46848122 -8.61035156 92.12646484 C-2.45825807 96.56169504 2.87931372 97.97611887 10.38964844 97.12646484 C14.04081631 95.61182062 14.04081631 95.61182062 16.10839844 92.43896484 C16.50408347 89.18555455 15.74423668 86.54481781 14.95214844 83.37646484 C14.6646875 82.20599609 14.37722656 81.03552734 14.08105469 79.82958984 C13.73880859 78.49154297 13.73880859 78.49154297 13.38964844 77.12646484 C6.7014936 76.50223706 0.10849799 75.9972562 -6.61035156 76.12646484 Z " fill="#000000" transform="translate(51.6103515625,5.87353515625)"/>
<path d="M0 0 C5.6797359 4.84855503 9.24545777 9.48252976 9.8984375 17.11328125 C10.23361539 33.17996078 10.23361539 33.17996078 5.5625 38.1875 C-0.78249414 43.23030218 -6.219032 44.34995168 -14.234375 44.390625 C-15.10137024 44.39632507 -15.96836548 44.40202515 -16.8616333 44.40789795 C-18.69745668 44.41734373 -20.53329699 44.42388026 -22.36914062 44.42773438 C-25.16306605 44.43741534 -27.95624796 44.46843218 -30.75 44.5 C-32.53645398 44.50653292 -34.32291321 44.51178226 -36.109375 44.515625 C-37.35349152 44.5341452 -37.35349152 44.5341452 -38.6227417 44.55303955 C-46.81044938 44.52195993 -52.57284935 41.91576342 -58.4375 36.1875 C-61.74660505 30.67232491 -61.92189 23.80839588 -60.78125 17.63671875 C-58.85081571 10.26526201 -57.25414154 4.50180811 -50.796875 0.05859375 C-36.1239261 -8.29512296 -14.82309077 -7.8158115 0 0 Z M-30.4375 -1.8125 C-31.69699049 -0.77843327 -31.69699049 -0.77843327 -31.53515625 1.47265625 C-31.52355469 2.38917969 -31.51195313 3.30570313 -31.5 4.25 C-31.49097656 5.16910156 -31.48195313 6.08820312 -31.47265625 7.03515625 C-31.46105469 7.74542969 -31.44945313 8.45570312 -31.4375 9.1875 C-30.4475 9.1875 -29.4575 9.1875 -28.4375 9.1875 C-28.4375 5.5575 -28.4375 1.9275 -28.4375 -1.8125 C-29.0975 -1.8125 -29.7575 -1.8125 -30.4375 -1.8125 Z M-20.4375 -1.8125 C-20.4375 1.8175 -20.4375 5.4475 -20.4375 9.1875 C-19.1175 9.5175 -17.7975 9.8475 -16.4375 10.1875 C-16.4375 6.5575 -16.4375 2.9275 -16.4375 -0.8125 C-17.7575 -1.1425 -19.0775 -1.4725 -20.4375 -1.8125 Z M-25.4375 -1.8125 C-25.41429688 -1.22082031 -25.39109375 -0.62914062 -25.3671875 -0.01953125 C-25.26338536 4.52551959 -25.30041643 8.04690059 -27.4375 12.1875 C-30.4075 11.6925 -30.4075 11.6925 -33.4375 11.1875 C-34.21153558 7.12381321 -34.5359702 3.32324827 -34.4375 -0.8125 C-40.80049716 -0.1496878 -46.85361222 0.88295144 -51.75 5.25 C-54.10470584 9.34893239 -55.26862356 13.62711088 -56.4375 18.1875 C-39.94703081 26.78173923 -22.11265418 26.88645645 -4.4375 22.1875 C-1.0219727 21.01249122 2.28590901 19.7062963 5.5625 18.1875 C6.13907376 14.97516049 5.89568497 12.81181748 4.35546875 9.92578125 C0.10028154 3.89676892 -4.31552944 1.04936799 -11.4375 -0.8125 C-12.0975 -0.8125 -12.7575 -0.8125 -13.4375 -0.8125 C-13.39109375 -0.13703125 -13.3446875 0.5384375 -13.296875 1.234375 C-13.00212585 8.5188897 -13.00212585 8.5188897 -15.1875 11.875 C-17.4375 13.1875 -17.4375 13.1875 -19.625 13.0625 C-21.4375 12.1875 -21.4375 12.1875 -22.4375 10.1875 C-22.66608114 8.1500237 -22.84774278 6.10709697 -23 4.0625 C-23.08378906 2.96679688 -23.16757812 1.87109375 -23.25390625 0.7421875 C-23.31449219 -0.10085937 -23.37507813 -0.94390625 -23.4375 -1.8125 C-24.0975 -1.8125 -24.7575 -1.8125 -25.4375 -1.8125 Z M-57.4375 21.1875 C-57.44135259 28.95326683 -57.44135259 28.95326683 -54.1875 35.75 C-50.61475049 38.91675525 -48.20651503 40.1875 -43.4375 40.1875 C-43.7675 35.2375 -44.0975 30.2875 -44.4375 25.1875 C-45.84 24.713125 -47.2425 24.23875 -48.6875 23.75 C-49.47640625 23.48316406 -50.2653125 23.21632813 -51.078125 22.94140625 C-53.18571988 22.26795292 -55.28503973 21.69599405 -57.4375 21.1875 Z M-0.5625 23.1875 C-2.17125 23.8475 -3.78 24.5075 -5.4375 25.1875 C-5.4375 30.1375 -5.4375 35.0875 -5.4375 40.1875 C1.00072728 38.16024241 1.00072728 38.16024241 4.5625 33.1875 C5.99537581 29.09240606 6.5625 25.53946524 6.5625 21.1875 C3.86066945 21.1875 1.93260212 22.16386836 -0.5625 23.1875 Z M-41.4375 26.1875 C-41.54001672 31.31333611 -41.47340199 36.13747778 -40.4375 41.1875 C-39.4475 40.8575 -38.4575 40.5275 -37.4375 40.1875 C-38.0975 35.5675 -38.7575 30.9475 -39.4375 26.1875 C-40.0975 26.1875 -40.7575 26.1875 -41.4375 26.1875 Z M-9.4375 26.1875 C-10.87957941 29.07165883 -10.53144887 31.60471528 -10.5 34.8125 C-10.49097656 36.00101563 -10.48195312 37.18953125 -10.47265625 38.4140625 C-10.46105469 39.32929687 -10.44945312 40.24453125 -10.4375 41.1875 C-9.7775 40.8575 -9.1175 40.5275 -8.4375 40.1875 C-7.96748967 36.91194392 -7.96748967 36.91194392 -7.8125 33.125 C-7.73773438 31.83464844 -7.66296875 30.54429688 -7.5859375 29.21484375 C-7.53695312 28.21582031 -7.48796875 27.21679688 -7.4375 26.1875 C-8.0975 26.1875 -8.7575 26.1875 -9.4375 26.1875 Z M-35.4375 27.1875 C-36.18285599 36.44214401 -36.18285599 36.44214401 -33.4375 41.1875 C-30.29168577 41.21638514 -27.14590531 41.23425923 -24 41.25 C-23.10216797 41.25837891 -22.20433594 41.26675781 -21.27929688 41.27539062 C-19.99829102 41.28022461 -19.99829102 41.28022461 -18.69140625 41.28515625 C-17.90064697 41.29039307 -17.1098877 41.29562988 -16.29516602 41.30102539 C-14.42157311 41.39245909 -14.42157311 41.39245909 -13.4375 40.1875 C-13.36491054 38.00110547 -13.35376217 35.81249611 -13.375 33.625 C-13.395625 31.500625 -13.41625 29.37625 -13.4375 27.1875 C-20.6975 27.1875 -27.9575 27.1875 -35.4375 27.1875 Z " fill="#000000" transform="translate(80.4375,23.8125)"/>
<path d="M0 0 C1.42771729 0.00314209 1.42771729 0.00314209 2.88427734 0.00634766 C11.97369041 0.20543027 20.05576305 2.23700446 28.5 5.5 C29.23734375 5.78359375 29.9746875 6.0671875 30.734375 6.359375 C33.21020772 7.95880676 34.48503351 9.94033609 36.125 12.375 C37.01058594 13.67050781 37.01058594 13.67050781 37.9140625 14.9921875 C44.04100069 24.68059715 42.88224389 35.66634939 41.16015625 46.671875 C39.89286274 52.12727181 36.60832902 55.76372904 32.375 59.25 C23.20006975 63.23910011 12.87872951 62.84308521 3.05834961 62.81567383 C0.70183753 62.81251919 -1.65340818 62.8360332 -4.00976562 62.86132812 C-30.8666437 62.97432079 -30.8666437 62.97432079 -39.5 54.5 C-44.36137914 46.88269817 -44.50610418 37.15193816 -42.96875 28.515625 C-40.54146495 18.96478601 -37.05796922 12.71975428 -28.5 7.5 C-25.5646732 5.95947388 -22.60525256 4.65797089 -19.5 3.5 C-18.86626465 3.24847168 -18.2325293 2.99694336 -17.57958984 2.73779297 C-11.65453735 0.53833174 -6.29619204 -0.04140023 0 0 Z M-8.8125 4.8125 C-9.53373047 4.93044922 -10.25496094 5.04839844 -10.99804688 5.16992188 C-20.34692333 6.80492717 -28.94228684 9.84798442 -35.078125 17.45703125 C-40.80027682 26.05670194 -40.8625282 37.38348582 -38.95703125 47.3359375 C-37.7412854 50.77198916 -36.52117031 52.81791311 -33.46484375 54.859375 C-30.83582627 56.03922675 -28.29623682 56.80573544 -25.5 57.5 C-24.19869141 57.83451172 -24.19869141 57.83451172 -22.87109375 58.17578125 C-7.09816871 61.33036626 16.29235528 62.71735185 31.125 55.8125 C36.89192664 50.19733459 38.59908711 44.14865905 38.84375 36.25488281 C38.95103184 28.08470011 38.90468268 21.13480416 33.5 14.5 C25.01857435 6.05474248 13.72381082 4.01580521 2.125 3.3671875 C-1.5719603 3.55423609 -5.17368515 4.16922666 -8.8125 4.8125 Z " fill="#000000" transform="translate(55.5,12.5)"/>
<path d="M0 0 C2.9375 1.125 2.9375 1.125 3.9375 2.125 C3.97813832 3.79117115 3.980221 5.45888095 3.9375 7.125 C1.14886993 8.51931504 -0.98328868 8.38160094 -4.0625 8.125 C-6.0625 5.125 -6.0625 5.125 -5.8125 2.5 C-5.565 1.71625 -5.3175 0.9325 -5.0625 0.125 C-3.0625 -0.875 -3.0625 -0.875 0 0 Z M-3.0625 3.125 C-2.7325 3.785 -2.4025 4.445 -2.0625 5.125 C-1.0725 4.795 -0.0825 4.465 0.9375 4.125 C-0.3825 3.795 -1.7025 3.465 -3.0625 3.125 Z " fill="#000000" transform="translate(56.0625,87.875)"/>
</svg>
