<?xml version="1.0" encoding="UTF-8"?>
<svg version="1.1" xmlns="http://www.w3.org/2000/svg" width="110" height="110">
<path d="M0 0 C6.0839872 6.85379782 6.0643981 12.35528852 6.18652344 21.24975586 C6.21293147 22.71330852 6.25363449 24.17668253 6.30957031 25.6394043 C6.73060337 36.79551218 4.89746129 44.21901572 -2.81445312 52.73242188 C-10.73320619 60.12113792 -24.11541688 59.21311876 -34.34375 58.97265625 C-48.71151469 58.28379082 -61.55425159 56.19463618 -73.8359375 48.40625 C-76.34481779 44.26114343 -76.14230255 39.78631748 -76.2734375 35.03125 C-76.31339844 33.83242188 -76.35335937 32.63359375 -76.39453125 31.3984375 C-76.76509969 10.16704583 -76.76509969 10.16704583 -71.2734375 2.03125 C-64.38548139 -4.85670611 -55.0928219 -6.99743795 -45.7109375 -7.53125 C-44.99711914 -7.5722583 -44.28330078 -7.6132666 -43.54785156 -7.65551758 C-10.89057007 -9.43100913 -10.89057007 -9.43100913 0 0 Z M-49.2734375 -3.96875 C-49.2734375 -3.63875 -49.2734375 -3.30875 -49.2734375 -2.96875 C-48.40654297 -2.91340088 -47.53964844 -2.85805176 -46.64648438 -2.80102539 C-43.39602929 -2.59233436 -40.14572957 -2.38147192 -36.89550781 -2.16918945 C-35.49517255 -2.07816444 -34.09478253 -1.98797738 -32.69433594 -1.89868164 C-18.3750825 -0.98457809 -18.3750825 -0.98457809 -11.2734375 0.03125 C-15.89756804 -4.59288054 -24.6161003 -4.09248874 -30.81640625 -4.1640625 C-33.03133546 -4.15099507 -35.24622663 -4.12748315 -37.4609375 -4.09375 C-38.60369141 -4.08472656 -39.74644531 -4.07570313 -40.92382812 -4.06640625 C-43.7072606 -4.04311393 -46.49022979 -4.01040999 -49.2734375 -3.96875 Z M-53.2734375 -2.96875 C-49.2734375 -1.96875 -49.2734375 -1.96875 -49.2734375 -1.96875 Z M-60.0234375 0.15625 C-62.64862186 2.859225 -62.64862186 2.859225 -62.0859375 6.34375 C-61.8178125 7.230625 -61.5496875 8.1175 -61.2734375 9.03125 C-60.6134375 9.03125 -59.9534375 9.03125 -59.2734375 9.03125 C-59.0053125 7.773125 -58.7371875 6.515 -58.4609375 5.21875 C-57.67811213 2.03676199 -57.02007822 0.02880689 -54.2734375 -1.96875 C-57.45702161 -2.27447375 -57.45702161 -2.27447375 -60.0234375 0.15625 Z M-35.2734375 0.03125 C-35.6034375 1.35125 -35.9334375 2.67125 -36.2734375 4.03125 C-35.6134375 3.70125 -34.9534375 3.37125 -34.2734375 3.03125 C-34.6034375 2.04125 -34.9334375 1.05125 -35.2734375 0.03125 Z M-25.2734375 1.03125 C-24.9434375 1.69125 -24.6134375 2.35125 -24.2734375 3.03125 C-23.6134375 2.37125 -22.9534375 1.71125 -22.2734375 1.03125 C-23.2634375 1.03125 -24.2534375 1.03125 -25.2734375 1.03125 Z M-9.2734375 1.03125 C-8.5309375 1.5675 -7.7884375 2.10375 -7.0234375 2.65625 C-3.37673953 5.80567098 -0.64552154 8.49280999 0.078125 13.4296875 C0.25234402 18.70377237 -0.33281305 22.50721238 -3.2734375 27.03125 C-5.69474081 29.45255331 -7.07455127 29.55965504 -10.3984375 30.15625 C-11.30851562 30.32382812 -12.21859375 30.49140625 -13.15625 30.6640625 C-13.85492188 30.78523438 -14.55359375 30.90640625 -15.2734375 31.03125 C-15.4796875 31.93875 -15.6859375 32.84625 -15.8984375 33.78125 C-17.68098806 37.99455132 -19.19323748 38.99114999 -23.2734375 41.03125 C-26.5813397 41.90019147 -29.89249531 42.5234405 -33.2734375 43.03125 C-32.7784375 45.50625 -32.7784375 45.50625 -32.2734375 48.03125 C-35.57904468 47.64687707 -37.88347716 47.28122458 -40.7109375 45.46875 C-44.0246822 43.60982005 -46.53610421 43.81140687 -50.2734375 44.03125 C-49.9434375 45.35125 -49.6134375 46.67125 -49.2734375 48.03125 C-53.11401923 49.31144391 -54.6132783 48.63256965 -58.2734375 47.03125 C-59.2995109 45.71787604 -60.30071075 44.38460895 -61.2734375 43.03125 C-62.91706884 42.30965576 -64.58394136 41.63773579 -66.2734375 41.03125 C-68.411986 38.8927015 -68.69998813 37.89849686 -69.2734375 35.03125 C-70.7584375 35.52625 -70.7584375 35.52625 -72.2734375 36.03125 C-72.20283323 42.24536403 -72.20283323 42.24536403 -69.1484375 47.40625 C-62.63895476 51.08552286 -56.82294197 52.72772401 -49.4609375 53.71875 C-48.0853064 53.90655029 -48.0853064 53.90655029 -46.68188477 54.09814453 C-25.05622026 56.93459029 -25.05622026 56.93459029 -5.3359375 49.78125 C-4.6553125 48.87375 -3.9746875 47.96625 -3.2734375 47.03125 C-2.4278125 46.11859375 -1.5821875 45.2059375 -0.7109375 44.265625 C3.22238177 38.72957409 2.66841451 32.07232733 2.7890625 25.53125 C2.84771484 24.23832031 2.90636719 22.94539063 2.96679688 21.61328125 C3.166558 14.54536962 3.20364176 9.66815233 -1.2734375 4.03125 C-4.25862157 1.77415961 -5.52262578 1.03125 -9.2734375 1.03125 Z M-66.2734375 2.03125 C-69.61993789 5.58690666 -70.82167795 8.17483485 -71.2734375 13.03125 C-68.9634375 12.04125 -66.6534375 11.05125 -64.2734375 10.03125 C-64.6034375 7.39125 -64.9334375 4.75125 -65.2734375 2.03125 C-65.6034375 2.03125 -65.9334375 2.03125 -66.2734375 2.03125 Z M-47.2734375 2.03125 C-47.6034375 2.69125 -47.9334375 3.35125 -48.2734375 4.03125 C-47.6134375 4.03125 -46.9534375 4.03125 -46.2734375 4.03125 C-46.6034375 3.37125 -46.9334375 2.71125 -47.2734375 2.03125 Z M-41.2734375 2.03125 C-41.6034375 2.69125 -41.9334375 3.35125 -42.2734375 4.03125 C-41.6134375 4.03125 -40.9534375 4.03125 -40.2734375 4.03125 C-40.6034375 3.37125 -40.9334375 2.71125 -41.2734375 2.03125 Z M-27.2734375 3.03125 C-27.6034375 3.69125 -27.9334375 4.35125 -28.2734375 5.03125 C-27.6134375 5.03125 -26.9534375 5.03125 -26.2734375 5.03125 C-26.6034375 4.37125 -26.9334375 3.71125 -27.2734375 3.03125 Z M-22.2734375 3.03125 C-22.2734375 4.02125 -22.2734375 5.01125 -22.2734375 6.03125 C-21.6134375 5.04125 -20.9534375 4.05125 -20.2734375 3.03125 C-20.9334375 3.03125 -21.5934375 3.03125 -22.2734375 3.03125 Z M-16.2734375 3.03125 C-15.9434375 3.69125 -15.6134375 4.35125 -15.2734375 5.03125 C-14.6134375 4.37125 -13.9534375 3.71125 -13.2734375 3.03125 C-14.2634375 3.03125 -15.2534375 3.03125 -16.2734375 3.03125 Z M-33.2734375 4.03125 C-33.6034375 4.69125 -33.9334375 5.35125 -34.2734375 6.03125 C-33.6134375 6.03125 -32.9534375 6.03125 -32.2734375 6.03125 C-32.6034375 5.37125 -32.9334375 4.71125 -33.2734375 4.03125 Z M-45.2734375 5.03125 C-45.2734375 5.69125 -45.2734375 6.35125 -45.2734375 7.03125 C-44.6134375 7.03125 -43.9534375 7.03125 -43.2734375 7.03125 C-43.2734375 6.37125 -43.2734375 5.71125 -43.2734375 5.03125 C-43.9334375 5.03125 -44.5934375 5.03125 -45.2734375 5.03125 Z M-13.2734375 5.03125 C-13.2734375 6.02125 -13.2734375 7.01125 -13.2734375 8.03125 C-12.6134375 7.37125 -11.9534375 6.71125 -11.2734375 6.03125 C-11.9334375 5.70125 -12.5934375 5.37125 -13.2734375 5.03125 Z M-55.2734375 6.03125 C-55.6034375 6.69125 -55.9334375 7.35125 -56.2734375 8.03125 C-55.6134375 8.03125 -54.9534375 8.03125 -54.2734375 8.03125 C-54.6034375 7.37125 -54.9334375 6.71125 -55.2734375 6.03125 Z M-19.2734375 6.03125 C-18.9434375 6.69125 -18.6134375 7.35125 -18.2734375 8.03125 C-17.9434375 7.37125 -17.6134375 6.71125 -17.2734375 6.03125 C-17.9334375 6.03125 -18.5934375 6.03125 -19.2734375 6.03125 Z M-47.2734375 8.03125 C-47.6034375 8.69125 -47.9334375 9.35125 -48.2734375 10.03125 C-47.2834375 9.70125 -46.2934375 9.37125 -45.2734375 9.03125 C-45.9334375 8.70125 -46.5934375 8.37125 -47.2734375 8.03125 Z M-16.2734375 8.03125 C-16.2734375 11.03125 -16.2734375 11.03125 -16.2734375 11.03125 Z M-11.2734375 8.03125 C-11.2734375 8.69125 -11.2734375 9.35125 -11.2734375 10.03125 C-10.6134375 10.03125 -9.9534375 10.03125 -9.2734375 10.03125 C-9.2734375 9.37125 -9.2734375 8.71125 -9.2734375 8.03125 C-9.9334375 8.03125 -10.5934375 8.03125 -11.2734375 8.03125 Z M-45.2734375 12.03125 C-45.6034375 13.02125 -45.9334375 14.01125 -46.2734375 15.03125 C-40.9247108 15.51554115 -36.6607266 15.81813728 -32.1484375 12.59375 C-30.7253125 11.3253125 -30.7253125 11.3253125 -29.2734375 10.03125 C-29.2734375 9.70125 -29.2734375 9.37125 -29.2734375 9.03125 C-35.29022408 8.71019617 -40.11260598 8.45836664 -45.2734375 12.03125 Z M-22.2734375 9.03125 C-22.6034375 10.02125 -22.9334375 11.01125 -23.2734375 12.03125 C-22.2834375 11.70125 -21.2934375 11.37125 -20.2734375 11.03125 C-20.9334375 10.37125 -21.5934375 9.71125 -22.2734375 9.03125 Z M-13.2734375 11.03125 C-13.6034375 11.69125 -13.9334375 12.35125 -14.2734375 13.03125 C-13.6134375 13.03125 -12.9534375 13.03125 -12.2734375 13.03125 C-12.6034375 12.37125 -12.9334375 11.71125 -13.2734375 11.03125 Z M-8.2734375 11.03125 C-7.9434375 11.69125 -7.6134375 12.35125 -7.2734375 13.03125 C-6.9434375 12.37125 -6.6134375 11.71125 -6.2734375 11.03125 C-6.9334375 11.03125 -7.5934375 11.03125 -8.2734375 11.03125 Z M-69.2734375 15.03125 C-71.39851994 18.21887365 -71.7754538 20.29637223 -72.2734375 24.03125 C-71.7784375 23.86625 -71.2834375 23.70125 -70.7734375 23.53125 C-65.22137077 22.42083665 -59.78109696 22.92971811 -54.2734375 24.03125 C-53.9434375 22.38125 -53.6134375 20.73125 -53.2734375 19.03125 C-55.73622551 17.799856 -57.552943 17.95965804 -60.2734375 18.03125 C-59.9434375 16.05125 -59.6134375 14.07125 -59.2734375 12.03125 C-63.20342057 12.03125 -65.76685821 13.30983835 -69.2734375 15.03125 Z M-26.2734375 13.03125 C-26.6034375 13.69125 -26.9334375 14.35125 -27.2734375 15.03125 C-26.6134375 15.69125 -25.9534375 16.35125 -25.2734375 17.03125 C-24.9434375 15.71125 -24.6134375 14.39125 -24.2734375 13.03125 C-24.9334375 13.03125 -25.5934375 13.03125 -26.2734375 13.03125 Z M-11.2734375 14.03125 C-11.2734375 15.02125 -11.2734375 16.01125 -11.2734375 17.03125 C-10.6134375 16.70125 -9.9534375 16.37125 -9.2734375 16.03125 C-9.2734375 15.37125 -9.2734375 14.71125 -9.2734375 14.03125 C-9.9334375 14.03125 -10.5934375 14.03125 -11.2734375 14.03125 Z M-17.2734375 15.03125 C-17.2734375 16.02125 -17.2734375 17.01125 -17.2734375 18.03125 C-16.6134375 17.04125 -15.9534375 16.05125 -15.2734375 15.03125 C-15.9334375 15.03125 -16.5934375 15.03125 -17.2734375 15.03125 Z M-29.2734375 16.03125 C-29.6034375 16.69125 -29.9334375 17.35125 -30.2734375 18.03125 C-29.6134375 18.69125 -28.9534375 19.35125 -28.2734375 20.03125 C-27.9434375 19.37125 -27.6134375 18.71125 -27.2734375 18.03125 C-27.9334375 17.37125 -28.5934375 16.71125 -29.2734375 16.03125 Z M-7.2734375 16.03125 C-8.2634375 17.51625 -8.2634375 17.51625 -9.2734375 19.03125 C-8.2834375 18.70125 -7.2934375 18.37125 -6.2734375 18.03125 C-6.6034375 17.37125 -6.9334375 16.71125 -7.2734375 16.03125 Z M-48.2734375 17.03125 C-47.9434375 18.02125 -47.6134375 19.01125 -47.2734375 20.03125 C-47.2734375 19.04125 -47.2734375 18.05125 -47.2734375 17.03125 C-47.6034375 17.03125 -47.9334375 17.03125 -48.2734375 17.03125 Z M-15.2734375 18.03125 C-15.2734375 19.02125 -15.2734375 20.01125 -15.2734375 21.03125 C-14.6134375 20.70125 -13.9534375 20.37125 -13.2734375 20.03125 C-13.2734375 19.37125 -13.2734375 18.71125 -13.2734375 18.03125 C-13.9334375 18.03125 -14.5934375 18.03125 -15.2734375 18.03125 Z M-4.2734375 18.03125 C-4.6034375 18.69125 -4.9334375 19.35125 -5.2734375 20.03125 C-4.6134375 20.03125 -3.9534375 20.03125 -3.2734375 20.03125 C-3.6034375 19.37125 -3.9334375 18.71125 -4.2734375 18.03125 Z M-50.2734375 20.03125 C-49.2734375 22.03125 -49.2734375 22.03125 -49.2734375 22.03125 Z M-40.2734375 20.03125 C-40.2734375 20.69125 -40.2734375 21.35125 -40.2734375 22.03125 C-39.6134375 21.70125 -38.9534375 21.37125 -38.2734375 21.03125 C-38.9334375 20.70125 -39.5934375 20.37125 -40.2734375 20.03125 Z M-32.2734375 20.03125 C-32.6034375 20.69125 -32.9334375 21.35125 -33.2734375 22.03125 C-32.6134375 22.03125 -31.9534375 22.03125 -31.2734375 22.03125 C-31.6034375 21.37125 -31.9334375 20.71125 -32.2734375 20.03125 Z M-35.2734375 23.03125 C-35.6034375 23.69125 -35.9334375 24.35125 -36.2734375 25.03125 C-35.2834375 24.70125 -34.2934375 24.37125 -33.2734375 24.03125 C-33.9334375 23.70125 -34.5934375 23.37125 -35.2734375 23.03125 Z M-71.2734375 28.03125 C-71.6034375 28.69125 -71.9334375 29.35125 -72.2734375 30.03125 C-70.79143848 29.58215939 -69.31288514 29.12168436 -67.8359375 28.65625 C-66.60037109 28.27339844 -66.60037109 28.27339844 -65.33984375 27.8828125 C-63.09545734 27.22242773 -63.09545734 27.22242773 -62.2734375 25.03125 C-66.56730761 25.03125 -67.86210234 25.63409556 -71.2734375 28.03125 Z M-52.2734375 27.03125 C-48.6434375 27.69125 -45.0134375 28.35125 -41.2734375 29.03125 C-42.97602797 25.76879498 -42.97602797 25.76879498 -46.2109375 25.21875 C-49.44775204 24.71086905 -49.44775204 24.71086905 -52.2734375 27.03125 Z M-37.2734375 28.03125 C-33.2734375 29.03125 -33.2734375 29.03125 -33.2734375 29.03125 Z M-67.2734375 30.03125 C-67.6034375 30.69125 -67.9334375 31.35125 -68.2734375 32.03125 C-67.2834375 32.03125 -66.2934375 32.03125 -65.2734375 32.03125 C-65.2734375 31.37125 -65.2734375 30.71125 -65.2734375 30.03125 C-65.9334375 30.03125 -66.5934375 30.03125 -67.2734375 30.03125 Z M-62.2734375 30.03125 C-62.18597466 31.46986294 -62.07778402 32.90722508 -61.9609375 34.34375 C-61.90292969 35.14425781 -61.84492187 35.94476563 -61.78515625 36.76953125 C-61.1827572 39.43204309 -60.29009599 40.26152928 -58.2734375 42.03125 C-57.0859375 44.21875 -57.0859375 44.21875 -56.2734375 46.03125 C-55.2834375 46.03125 -54.2934375 46.03125 -53.2734375 46.03125 C-53.6034375 45.04125 -53.9334375 44.05125 -54.2734375 43.03125 C-54.21857413 41.36340341 -54.13246735 39.69643309 -54.0234375 38.03125 C-53.92868814 35.40528563 -53.92868814 35.40528563 -54.2734375 33.03125 C-57.10370409 30.43046448 -58.45088893 30.03125 -62.2734375 30.03125 Z M-51.2734375 30.03125 C-51.2734375 31.68125 -51.2734375 33.33125 -51.2734375 35.03125 C-48.7984375 35.52625 -48.7984375 35.52625 -46.2734375 36.03125 C-46.2734375 34.05125 -46.2734375 32.07125 -46.2734375 30.03125 C-47.9234375 30.03125 -49.5734375 30.03125 -51.2734375 30.03125 Z M-21.2734375 30.03125 C-20.9434375 31.68125 -20.6134375 33.33125 -20.2734375 35.03125 C-21.10488281 35.22460938 -21.93632813 35.41796875 -22.79296875 35.6171875 C-23.87964844 35.87757812 -24.96632813 36.13796875 -26.0859375 36.40625 C-27.70435547 36.78910156 -27.70435547 36.78910156 -29.35546875 37.1796875 C-32.42877093 37.91857881 -32.42877093 37.91857881 -35.2734375 40.03125 C-29.00732912 40.41488929 -24.41136148 39.28663286 -19.2734375 35.59375 C-18.03118704 34.0271306 -18.03118704 34.0271306 -18.5859375 31.84375 C-18.8128125 31.245625 -19.0396875 30.6475 -19.2734375 30.03125 C-19.9334375 30.03125 -20.5934375 30.03125 -21.2734375 30.03125 Z M-35.2734375 32.03125 C-35.2734375 33.02125 -35.2734375 34.01125 -35.2734375 35.03125 C-30.19040064 35.14445856 -30.19040064 35.14445856 -25.2734375 34.03125 C-25.2734375 33.37125 -25.2734375 32.71125 -25.2734375 32.03125 C-26.5521875 31.845625 -27.8309375 31.66 -29.1484375 31.46875 C-29.86773437 31.36433594 -30.58703125 31.25992188 -31.328125 31.15234375 C-33.35484417 30.8628203 -33.35484417 30.8628203 -35.2734375 32.03125 Z M-43.2734375 33.03125 C-43.60724564 36.40561186 -43.60724564 36.40561186 -43.2734375 40.03125 C-41.524998 42.05233177 -41.524998 42.05233177 -39.2734375 43.03125 C-38.6134375 43.03125 -37.9534375 43.03125 -37.2734375 43.03125 C-37.6034375 40.39125 -37.9334375 37.75125 -38.2734375 35.03125 C-40.7484375 34.04125 -40.7484375 34.04125 -43.2734375 33.03125 Z M-52.2734375 38.03125 C-51.04534659 39.67680699 -51.04534659 39.67680699 -49.2734375 41.03125 C-47.11044539 40.80367269 -47.11044539 40.80367269 -45.2734375 40.03125 C-47.5834375 39.37125 -49.8934375 38.71125 -52.2734375 38.03125 Z " fill="#000000" transform="translate(89.2734375,19.96875)"/>
<path d="M0 0 C0.99348953 -0.00524185 1.98697906 -0.0104837 3.01057434 -0.0158844 C5.10054599 -0.02226767 7.19055374 -0.02101594 9.28051758 -0.01245117 C12.43182447 -0.00397406 15.5812948 -0.03270311 18.73242188 -0.06445312 C48.18288442 -0.17052908 48.18288442 -0.17052908 58.93383789 10.00952148 C63.32487932 16.2069868 62.9244462 23.00936111 62.7565918 30.31225586 C62.70768609 32.46723896 62.6951274 34.61990507 62.68945312 36.77539062 C62.57792817 50.6126069 62.14343842 63.62273299 54.26953125 75.43359375 C55.03265625 75.70171875 55.79578125 75.96984375 56.58203125 76.24609375 C59.29241932 77.44370708 60.50596697 78.10080988 62.26953125 80.43359375 C62.66796875 83.17578125 62.66796875 83.17578125 62.64453125 86.30859375 C62.65613281 87.85160156 62.65613281 87.85160156 62.66796875 89.42578125 C62.21693892 92.83061426 61.31010764 94.69201936 59.26953125 97.43359375 C53.31240201 101.10926924 47.13277978 101.26101584 40.26953125 100.43359375 C37.49874442 99.56865894 34.95019978 98.54858971 32.328125 97.30859375 C30.18217957 96.23800494 30.18217957 96.23800494 27.26953125 96.43359375 C24.92128423 97.39805235 22.58761489 98.39873498 20.26953125 99.43359375 C15.22909375 101.11373958 9.85429733 101.57858104 4.90625 99.38671875 C2.05561274 97.61484184 -0.35538178 95.80868072 -2.73046875 93.43359375 C-3.55546875 94.21734375 -4.38046875 95.00109375 -5.23046875 95.80859375 C-11.32365702 100.81067621 -18.34860345 100.66824087 -25.8984375 100.796875 C-30.07522976 100.26109337 -32.73013851 98.57682831 -35.48046875 95.43359375 C-37.9604433 91.46563447 -38.12610729 88.02300077 -37.73046875 83.43359375 C-35.18936726 79.13326816 -32.26144187 77.39015033 -27.73046875 75.43359375 C-28.20097656 75.10488281 -28.67148437 74.77617188 -29.15625 74.4375 C-34.36814439 70.45574217 -36.70081855 66.93267024 -37.73046875 60.43359375 C-38.01820164 56.26418127 -37.96070443 52.14089172 -37.81298828 47.96582031 C-37.71446184 44.94239956 -37.65997475 41.91898772 -37.6015625 38.89453125 C-37.54215547 36.55333929 -37.48094776 34.21219235 -37.41796875 31.87109375 C-37.39573242 30.7406665 -37.37349609 29.61023926 -37.35058594 28.44555664 C-37.08367347 20.40391683 -35.67010498 15.01303772 -30.23046875 8.8125 C-22.328035 1.54802314 -10.24454619 -0.03235885 0 0 Z M7.22607422 3.64111328 C5.76232536 3.66929344 4.29842517 3.69052281 2.83447266 3.70458984 C-7.51167021 3.80933145 -18.03070105 4.06897711 -26.58203125 10.6171875 C-27.16726562 11.36097656 -27.7525 12.10476562 -28.35546875 12.87109375 C-29.27199219 13.98291016 -29.27199219 13.98291016 -30.20703125 15.1171875 C-33.7189651 20.45712794 -34.03828786 24.9884413 -34.03125 31.20703125 C-34.03553513 32.04900055 -34.03982025 32.89096985 -34.04423523 33.75845337 C-34.04996391 35.53524885 -34.05048959 37.31206779 -34.04614258 39.08886719 C-34.04298726 41.7927295 -34.06644328 44.49549189 -34.09179688 47.19921875 C-34.09407064 48.93098821 -34.094773 50.6627606 -34.09375 52.39453125 C-34.10295975 53.19579437 -34.11216949 53.9970575 -34.12165833 54.82260132 C-34.0786753 60.09571808 -33.23058289 63.76264699 -30.73046875 68.43359375 C-18.10775759 79.98203162 1.83551296 79.77878801 18.00390625 80.35009766 C20.06195805 80.42594396 22.11900543 80.52791693 24.17578125 80.6328125 C33.28713406 80.92510147 42.28044833 79.77535136 49.76953125 74.12109375 C59.33359436 63.83972591 58.64292458 50.18564847 58.64013672 36.90429688 C58.64456428 34.54096144 58.68117213 32.17941992 58.71875 29.81640625 C58.72461064 28.29557919 58.72858507 26.77474343 58.73046875 25.25390625 C58.74483978 24.55693634 58.75921082 23.85996643 58.77401733 23.14187622 C58.7272595 18.11491195 57.39043878 15.31807425 54.26953125 11.43359375 C42.26205134 0.92704883 22.05157512 3.32132818 7.22607422 3.64111328 Z M-31.73046875 81.43359375 C-33.92934798 83.03029209 -33.92934798 83.03029209 -34.73046875 85.43359375 C-34.65853054 89.46213342 -34.36114822 91.66050278 -31.79296875 94.80859375 C-27.90488324 97.87193385 -24.52571952 97.84417257 -19.73046875 97.43359375 C-12.91053076 96.38214645 -7.89277503 94.90460739 -3.6796875 89.21875 C-2.42206157 86.85358518 -2.25344587 85.05721961 -2.73046875 82.43359375 C-5.4392621 81.07919707 -7.73980143 81.36857924 -10.73046875 81.43359375 C-10.79492188 82.0575 -10.859375 82.68140625 -10.92578125 83.32421875 C-11.73046875 85.43359375 -11.73046875 85.43359375 -13.91015625 86.48046875 C-14.79960937 86.7125 -15.6890625 86.94453125 -16.60546875 87.18359375 C-17.48976563 87.4259375 -18.3740625 87.66828125 -19.28515625 87.91796875 C-21.73046875 88.43359375 -21.73046875 88.43359375 -24.73046875 88.43359375 C-25.06046875 87.44359375 -25.39046875 86.45359375 -25.73046875 85.43359375 C-24.92609375 85.18609375 -24.12171875 84.93859375 -23.29296875 84.68359375 C-20.55938775 83.71120516 -20.55938775 83.71120516 -19.91796875 81.30859375 C-19.85609375 80.68984375 -19.79421875 80.07109375 -19.73046875 79.43359375 C-24.3676049 77.90862951 -27.51552677 79.28147295 -31.73046875 81.43359375 Z M-16.73046875 79.43359375 C-17.06046875 81.08359375 -17.39046875 82.73359375 -17.73046875 84.43359375 C-16.41046875 83.77359375 -15.09046875 83.11359375 -13.73046875 82.43359375 C-14.06046875 81.44359375 -14.39046875 80.45359375 -14.73046875 79.43359375 C-15.39046875 79.43359375 -16.05046875 79.43359375 -16.73046875 79.43359375 Z M46.26953125 80.43359375 C47.4212648 82.90159422 48.3173669 84.4814294 50.26953125 86.43359375 C49.93953125 87.42359375 49.60953125 88.41359375 49.26953125 89.43359375 C46.20727835 88.94568763 43.21944755 88.40095369 40.26953125 87.43359375 C39.77453125 86.73234375 39.27953125 86.03109375 38.76953125 85.30859375 C37.43961614 83.19671366 37.43961614 83.19671366 35.1015625 83.17578125 C32.81178314 83.18288134 30.55245986 83.26129725 28.26953125 83.43359375 C28.72308604 88.30930775 29.64025011 91.07650869 33.26953125 94.43359375 C39.85121375 97.61622552 45.99996924 98.52344775 53.01953125 96.18359375 C57.00432466 94.09024425 57.00432466 94.09024425 59.26953125 90.43359375 C59.8090866 86.134556 59.74196004 83.14223694 57.26953125 79.43359375 C55.13239824 79.03188202 55.13239824 79.03188202 52.76953125 79.18359375 C51.97546875 79.1990625 51.18140625 79.21453125 50.36328125 79.23046875 C48.21217797 79.31278853 48.21217797 79.31278853 46.26953125 80.43359375 Z M1.26953125 82.43359375 C-0.4599208 89.80996995 -0.4599208 89.80996995 1.89453125 93.30859375 C5.37977697 96.4269715 7.89676231 97.27519733 12.51953125 97.80859375 C17.21012582 97.33953429 21.2836091 95.99108457 25.26953125 93.43359375 C26.79801748 89.78927492 26.79801748 89.78927492 24.26953125 83.43359375 C12.88453125 82.93859375 12.88453125 82.93859375 1.26953125 82.43359375 Z M40.26953125 82.43359375 C41.58953125 83.75359375 42.90953125 85.07359375 44.26953125 86.43359375 C43.93953125 85.11359375 43.60953125 83.79359375 43.26953125 82.43359375 C42.27953125 82.43359375 41.28953125 82.43359375 40.26953125 82.43359375 Z " fill="#000000" transform="translate(42.73046875,5.56640625)"/>
<path d="M0 0 C2.5625 0.1875 2.5625 0.1875 4.5625 2.1875 C4.1875 4.8125 4.1875 4.8125 3.5625 7.1875 C1.75 7.8125 1.75 7.8125 -0.4375 8.1875 C-1.4275 7.5275 -2.4175 6.8675 -3.4375 6.1875 C-3.6875 3.625 -3.6875 3.625 -3.4375 1.1875 C-2.4375 0.1875 -2.4375 0.1875 0 0 Z " fill="#000000" transform="translate(81.4375,53.8125)"/>
<path d="M0 0 C2.625 0.375 2.625 0.375 5 1 C5.625 2.875 5.625 2.875 6 5 C4 7 4 7 1.375 7.125 C0.59125 7.08375 -0.1925 7.0425 -1 7 C-1.625 4.625 -1.625 4.625 -2 2 C-1.34 1.34 -0.68 0.68 0 0 Z " fill="#000000" transform="translate(54,91)"/>
<path d="M0 0 C1.65 0.33 3.3 0.66 5 1 C4.67 2.32 4.34 3.64 4 5 C2.35 4.67 0.7 4.34 -1 4 C-0.67 2.68 -0.34 1.36 0 0 Z " fill="#000000" transform="translate(75,62)"/>
<path d="M0 0 C1.32 0 2.64 0 4 0 C3.67 1.32 3.34 2.64 3 4 C2.01 4 1.02 4 0 4 C0 2.68 0 1.36 0 0 Z " fill="#000000" transform="translate(68,66)"/>
</svg>
