<?xml version="1.0" encoding="UTF-8"?>
<svg version="1.1" xmlns="http://www.w3.org/2000/svg" width="110" height="110">
<path d="M0 0 C4.1120723 3.40419138 6.60654412 7.18944747 7.35791016 12.55664062 C8.13344473 24.07774662 8.62081569 37.33250818 1.25 46.9375 C-5.92774219 54.35973949 -15.08469576 53.77847911 -24.8046875 54.08984375 C-31.26928729 54.17225366 -37.72973975 53.89899075 -44.1875 53.625 C-45.01902588 53.59422363 -45.85055176 53.56344727 -46.70727539 53.53173828 C-55.97268768 53.08864584 -64.42690774 52.10724874 -71 45 C-76.60340212 36.55543625 -76.03162424 26.12142598 -74.41015625 16.5 C-72.26864325 8.13132246 -68.18081359 2.89624575 -62 -3 C-61.57074219 -3.55042969 -61.14148437 -4.10085937 -60.69921875 -4.66796875 C-57.95841632 -6.81650583 -54.72817793 -7.12690797 -51.375 -7.6875 C-50.64933838 -7.81342529 -49.92367676 -7.93935059 -49.17602539 -8.0690918 C-33.72144093 -10.62552827 -13.21699696 -9.06875751 0 0 Z M-47.3125 -2.8125 C-49.2064689 -0.18015937 -49.2064689 -0.18015937 -49.0625 2.5625 C-47.80458561 5.4483036 -46.42352016 7.00415987 -44 9 C-38.1323804 10.9558732 -30.85301824 12.12973715 -24.9375 9.875 C-21.72335956 7.82342099 -20.35512373 6.5571998 -19 3 C-18.82221688 0.30371421 -18.82221688 0.30371421 -20 -2 C-22.68490027 -3.59642719 -24.21434929 -4.12740282 -27.3125 -3.625 C-27.869375 -3.41875 -28.42625 -3.2125 -29 -3 C-28.175 -2.649375 -27.35 -2.29875 -26.5 -1.9375 C-25.2625 -0.9784375 -25.2625 -0.9784375 -24 0 C-23.6875 3.6875 -23.6875 3.6875 -24 7 C-27.36142444 8.00196305 -30.49907205 8.19748608 -34 8.25 C-35.546875 8.28867187 -35.546875 8.28867187 -37.125 8.328125 C-40.32882325 7.96247126 -41.65087721 7.14583332 -44 5 C-43.74438677 2.6568787 -43.40729228 0.32156597 -43 -2 C-40.70370006 -3.14814997 -38.92301914 -3.30769809 -36.375 -3.5625 C-35.55773438 -3.64628906 -34.74046875 -3.73007812 -33.8984375 -3.81640625 C-32.95871094 -3.90728516 -32.95871094 -3.90728516 -32 -4 C-32 -4.33 -32 -4.66 -32 -5 C-40.06403252 -5.73963435 -40.06403252 -5.73963435 -47.3125 -2.8125 Z M-63.59375 2.5625 C-65.67065068 4.97750079 -66.9877526 6.9632578 -68 10 C-66.98292969 9.91298828 -66.98292969 9.91298828 -65.9453125 9.82421875 C-58.45451851 9.46109162 -53.21855128 10.75290972 -47 15 C-39.06477228 22.41771287 -37.11812009 32.90873579 -36.4375 43.3125 C-36.31181641 45.19388672 -36.31181641 45.19388672 -36.18359375 47.11328125 C-36.12300781 48.06589844 -36.06242187 49.01851562 -36 50 C-33.36 50 -30.72 50 -28 50 C-27.96132812 48.74509766 -27.96132812 48.74509766 -27.921875 47.46484375 C-27.33424637 35.40510159 -26.28250379 22.6683589 -17.28515625 13.73828125 C-12.09330772 9.78892638 -6.3303209 8.16936656 0 7 C-3.64908589 1.86847296 -6.82959463 -0.52839705 -13 -2 C-13.99 -2 -14.98 -2 -16 -2 C-16.08636719 -1.40832031 -16.17273438 -0.81664062 -16.26171875 -0.20703125 C-16.98504629 3.86085667 -17.70513325 6.58371753 -20.125 10 C-26.46657753 14.4115322 -34.69431509 13.25112647 -42 12 C-45.61978095 10.70722109 -47.40885854 9.66741778 -49.9375 6.8125 C-51.43978615 2.83586018 -50.77465684 0.15497757 -50 -4 C-55.70224155 -4 -59.55107613 -1.40090575 -63.59375 2.5625 Z M-38 0 C-38.33 0.66 -38.66 1.32 -39 2 C-38.34 2.66 -37.68 3.32 -37 4 C-37.33 2.68 -37.66 1.36 -38 0 Z M-35 0 C-34.34 0.66 -33.68 1.32 -33 2 C-33 1.34 -33 0.68 -33 0 C-33.66 0 -34.32 0 -35 0 Z M-42 2 C-41 4 -41 4 -41 4 Z M-31 3 C-30.34 3.66 -29.68 4.32 -29 5 C-29 4.34 -29 3.68 -29 3 C-29.66 3 -30.32 3 -31 3 Z M-34 4 C-34.66 4.66 -35.32 5.32 -36 6 C-35.01 6 -34.02 6 -33 6 C-33.33 5.34 -33.66 4.68 -34 4 Z M2 10 C-4.806476 12.86797144 -9.47686406 15.38690056 -13 22 C-13.556875 22.99 -14.11375 23.98 -14.6875 25 C-17.72232981 32.56983118 -18.1610977 41.95750698 -18 50 C-12.51038453 50.33609891 -8.82702374 49.68167985 -4 47 C4.95984184 38.04015816 4.04052201 26.09452861 4.23046875 14.1796875 C4.20874304 11.78951928 4.20874304 11.78951928 2 10 Z M-16.2578125 16.17578125 C-23.17296001 23.41652988 -25.17702385 34.5494461 -25.1875 44.1875 C-25.14012339 46.12542878 -25.08313443 48.06327566 -25 50 C-24.01 50 -23.02 50 -22 50 C-20.74796649 47.49593297 -20.69620944 45.14530806 -20.45581055 42.38818359 C-19.39975009 30.77527681 -16.34846331 21.23806816 -9 12 C-12.23019074 12 -13.91915638 14.09428027 -16.2578125 16.17578125 Z M-70 13 C-72.80275004 22.72719131 -72.95547925 33.00907208 -68.2109375 42.1953125 C-65.62144677 46.054489 -62.71978431 47.57374973 -58.2734375 48.67578125 C-54.47873741 49.41169275 -50.86968367 50 -47 50 C-43.92839107 39.96927709 -47.48286503 30.83096439 -52.015625 21.99609375 C-54.73660389 17.88784413 -58.30480268 14.65712847 -63 13 C-65.33203812 12.9222654 -67.66839059 12.91032272 -70 13 Z M-52 16 C-51.50628906 17.02480469 -51.01257813 18.04960938 -50.50390625 19.10546875 C-49.85647794 20.4660065 -49.20935879 21.82669139 -48.5625 23.1875 C-48.23701172 23.86103516 -47.91152344 24.53457031 -47.57617188 25.22851562 C-44.69683168 31.31371914 -43.87859547 36.57004064 -43.4375 43.3125 C-43.35371094 44.56675781 -43.26992188 45.82101563 -43.18359375 47.11328125 C-43.12300781 48.06589844 -43.06242187 49.01851562 -43 50 C-41.02 49.505 -41.02 49.505 -39 49 C-39.3439575 38.4920984 -40.189079 27.1157463 -47.125 18.6875 C-49.58758975 15.77237204 -49.58758975 15.77237204 -52 16 Z " fill="#000000" transform="translate(88,20)"/>
<path d="M0 0 C8.87368047 8.15741926 11.73551651 18.73768183 12.26586914 30.50097656 C12.46099176 42.31632626 9.14470486 49.5212346 1.09765625 58.203125 C0.65035156 58.66460937 0.20304687 59.12609375 -0.2578125 59.6015625 C0.6496875 59.9934375 1.5571875 60.3853125 2.4921875 60.7890625 C5.88337144 62.6802997 7.53251587 64.4570298 9.7421875 67.6015625 C10.4021875 67.2715625 11.0621875 66.9415625 11.7421875 66.6015625 C12.31623442 77.55097599 12.31623442 77.55097599 8.7421875 81.6015625 C0.9523898 87.69792592 -7.76550853 87.19611286 -17.2578125 86.6015625 C-21.11586052 85.64635447 -23.951328 83.8058855 -27.2578125 81.6015625 C-27.7115625 82.4059375 -28.1653125 83.2103125 -28.6328125 84.0390625 C-30.2578125 86.6015625 -30.2578125 86.6015625 -32.2578125 87.6015625 C-34.39800671 87.80104798 -36.54674385 87.91428515 -38.6953125 87.9765625 C-39.84902344 88.02554688 -41.00273438 88.07453125 -42.19140625 88.125 C-45.2578125 87.6015625 -45.2578125 87.6015625 -47.16796875 85.203125 C-48.2578125 82.6015625 -48.2578125 82.6015625 -48.2578125 80.6015625 C-48.80050781 80.95089844 -49.34320313 81.30023438 -49.90234375 81.66015625 C-50.61777344 82.11519531 -51.33320312 82.57023437 -52.0703125 83.0390625 C-52.77800781 83.49152344 -53.48570313 83.94398437 -54.21484375 84.41015625 C-60.25860759 87.93472216 -68.20908988 87.36107177 -74.90234375 86.10546875 C-79.99388134 84.57020103 -83.45930009 82.3051121 -87.2578125 78.6015625 C-89.35730196 74.40258358 -88.80477669 69.16157917 -88.2578125 64.6015625 C-86.63825207 61.36848478 -84.5341496 59.23973105 -81.2578125 57.6015625 C-82.4334375 56.27125 -82.4334375 56.27125 -83.6328125 54.9140625 C-91.23111087 46.31598802 -89.0063056 32.57689238 -88.55664062 21.91015625 C-87.77304559 13.23427393 -84.02331352 6.06784265 -78.2578125 -0.3984375 C-56.5445828 -17.15352814 -21.35068508 -17.27545058 0 0 Z M-73.2578125 0.6015625 C-73.5878125 1.5915625 -73.9178125 2.5815625 -74.2578125 3.6015625 C-74.87269531 3.87226563 -75.48757812 4.14296875 -76.12109375 4.421875 C-79.20615237 6.12514319 -79.94961952 8.33137777 -81.4453125 11.4765625 C-82.20908203 13.05050781 -82.20908203 13.05050781 -82.98828125 14.65625 C-85.46630301 20.40526049 -85.47340033 25.59917339 -85.5078125 31.7890625 C-85.5284375 32.69720703 -85.5490625 33.60535156 -85.5703125 34.54101562 C-85.60729966 40.99989856 -85.18707093 47.94896116 -80.98242188 53.19189453 C-77.45240983 56.41682938 -73.79465145 57.44673077 -69.2578125 58.6015625 C-66.3828125 59.7890625 -66.3828125 59.7890625 -64.2578125 61.6015625 C-63.14563562 65.89138761 -63.09388875 69.3338421 -64.2578125 73.6015625 C-70.04923233 74.61760107 -73.7162623 74.56419486 -79.2578125 72.6015625 C-78.7628125 71.6115625 -78.7628125 71.6115625 -78.2578125 70.6015625 C-77.7421875 70.7665625 -77.2265625 70.9315625 -76.6953125 71.1015625 C-73.50586131 71.7558089 -70.50395345 71.72405838 -67.2578125 71.6015625 C-66.9278125 71.2715625 -66.5978125 70.9415625 -66.2578125 70.6015625 C-66.27374012 67.15264141 -66.27374012 67.15264141 -67.2578125 63.6015625 C-70.04156176 61.06343817 -71.97471025 60.64274101 -75.6953125 60.1015625 C-80.40629911 60.7627536 -82.20734401 61.95588065 -85.2578125 65.6015625 C-86.28589571 69.94148628 -85.81956738 73.39780204 -83.9453125 77.4140625 C-78.94250697 81.48611351 -72.98307981 83.27265093 -66.6328125 84.0390625 C-57.87880131 82.90428327 -52.5045159 79.81422392 -46.2578125 73.6015625 C-46.20173828 74.52388672 -46.20173828 74.52388672 -46.14453125 75.46484375 C-46.04591797 76.67720703 -46.04591797 76.67720703 -45.9453125 77.9140625 C-45.88730469 78.71457031 -45.82929687 79.51507813 -45.76953125 80.33984375 C-45.15605115 83.05133213 -44.54621467 84.03149285 -42.2578125 85.6015625 C-40.03072427 85.82311541 -40.03072427 85.82311541 -37.6953125 85.4140625 C-36.91027344 85.31738281 -36.12523437 85.22070312 -35.31640625 85.12109375 C-33.05095355 84.73642441 -33.05095355 84.73642441 -31.2578125 82.6015625 C-31.02001722 79.5102239 -31.26816231 77.57051306 -32.2578125 74.6015625 C-28.9003394 75.20725364 -26.95614469 76.4042994 -24.3203125 78.5390625 C-17.53684465 83.73888988 -12.20847483 84.28743429 -3.8515625 83.32421875 C1.41165295 82.40315605 4.39106969 80.99990463 7.7421875 76.6015625 C8.98120461 74.73063569 8.98120461 74.73063569 8.7421875 72.6015625 C6.44069961 68.26414302 4.22945057 65.63151484 -0.2578125 63.6015625 C-3.57098181 62.7225584 -5.42130651 62.27136277 -8.6328125 63.5390625 C-9.1690625 63.8896875 -9.7053125 64.2403125 -10.2578125 64.6015625 C-10.5878125 64.2715625 -10.9178125 63.9415625 -11.2578125 63.6015625 C-12.7428125 64.0965625 -12.7428125 64.0965625 -14.2578125 64.6015625 C-14.49209563 69.3912946 -14.49209563 69.3912946 -12.2578125 73.6015625 C-10.28034128 73.96454186 -10.28034128 73.96454186 -8.1328125 73.7890625 C-6.8540625 73.7271875 -5.5753125 73.6653125 -4.2578125 73.6015625 C-3.7628125 72.1165625 -3.7628125 72.1165625 -3.2578125 70.6015625 C-2.2678125 70.6015625 -1.2778125 70.6015625 -0.2578125 70.6015625 C-1.2578125 73.0390625 -1.2578125 73.0390625 -3.2578125 75.6015625 C-7.70745096 76.76868079 -10.18719308 76.85930421 -14.6328125 75.7890625 C-18.5956275 72.48671667 -18.71813765 68.56098827 -19.2578125 63.6015625 C-18.72027344 63.49328125 -18.18273437 63.385 -17.62890625 63.2734375 C-7.46459456 60.3932701 0.34998538 54.78553095 5.73828125 45.765625 C7.441119 42.0949164 7.63498002 38.60174161 7.7421875 34.6015625 C7.835 33.46267578 7.835 33.46267578 7.9296875 32.30078125 C8.40026007 23.3157862 6.42393906 13.27533546 0.6796875 6.1640625 C-10.04854511 -4.56417011 -22.85706105 -8.59331288 -37.6953125 -8.6484375 C-50.0076311 -8.63063043 -63.53257072 -7.86667524 -73.2578125 0.6015625 Z " fill="#000000" transform="translate(93.2578125,16.3984375)"/>
<path d="M0 0 C0 0.66 0 1.32 0 2 C0.99 2.33 1.98 2.66 3 3 C4.47852938 6.49470582 4.26135151 10.27574103 4 14 C2.75 16.9375 2.75 16.9375 1 19 C-0.32 19 -1.64 19 -3 19 C-4.44207941 16.11584117 -4.09394887 13.58278472 -4.0625 10.375 C-4.05347656 9.18648437 -4.04445312 7.99796875 -4.03515625 6.7734375 C-4.02355469 5.85820313 -4.01195312 4.94296875 -4 4 C-4.66 3.67 -5.32 3.34 -6 3 C-2.25 0 -2.25 0 0 0 Z M-1 9 C0 12 0 12 0 12 Z " fill="#000000" transform="translate(55,78)"/>
<path d="" fill="#000000" transform="translate(0,0)"/>
<path d="" fill="#000000" transform="translate(0,0)"/>
<path d="" fill="#000000" transform="translate(0,0)"/>
<path d="" fill="#000000" transform="translate(0,0)"/>
<path d="" fill="#000000" transform="translate(0,0)"/>
</svg>
