<?xml version="1.0" encoding="UTF-8"?>
<svg version="1.1" xmlns="http://www.w3.org/2000/svg" width="110" height="110">
<path d="M0 0 C0.80308594 0.38285156 1.60617188 0.76570312 2.43359375 1.16015625 C10.34932072 5.33499146 15.09990337 13.78305955 18 22 C20.63198258 32.0052671 20.76904663 45.8864986 16.15625 55.2109375 C14.69031798 57.47917015 13.12638322 59.32927033 11 61 C11.94875 61.763125 12.8975 62.52625 13.875 63.3125 C16.99108239 65.8189141 18.86053874 67.78538969 19.3359375 71.92578125 C19.39316986 76.88782709 19.43452647 80.92313006 17.5625 85.5625 C14.07448587 88.8803671 10.49479321 90.39911475 6 92 C4.906875 92.4125 3.81375 92.825 2.6875 93.25 C-4.11306982 94.63316674 -11.02848758 95.1188381 -17.5 92.3125 C-18.655 91.879375 -19.81 91.44625 -21 91 C-22.35084356 91.97621691 -23.68294244 92.97865914 -25 94 C-31.23505865 95.11574734 -36.81081546 93.71471786 -42.578125 91.36328125 C-45.14231032 90.73867427 -45.14231032 90.73867427 -47.734375 92.39453125 C-51.96869177 94.47623483 -55.3545595 94.44399169 -60 94.375 C-61.17175781 94.39240234 -61.17175781 94.39240234 -62.3671875 94.41015625 C-68.40269938 94.37967387 -72.57716702 93.0863284 -77.25 89.0625 C-81.66493769 83.85918058 -81.47355997 78.95631292 -81.390625 72.30078125 C-81 69 -81 69 -78.6875 65.75 C-77.800625 65.1725 -76.91375 64.595 -76 64 C-74.515 63.01 -74.515 63.01 -73 62 C-74.423125 60.6696875 -74.423125 60.6696875 -75.875 59.3125 C-79.95599555 55.49765633 -81.0787046 51.87302998 -81.30078125 46.375 C-81.32046692 44.58343722 -81.32362127 42.79163641 -81.3125 41 C-81.30686035 40.06244873 -81.3012207 39.12489746 -81.29541016 38.15893555 C-81.08283887 25.94029607 -79.15742287 14.2695078 -70.25390625 5.2265625 C-52.21952613 -9.54588192 -20.00705078 -10.99201604 0 0 Z M-66 7 C-66 7.66 -66 8.32 -66 9 C-66.5775 9.226875 -67.155 9.45375 -67.75 9.6875 C-71.71756397 12.00191232 -73.66283239 14.91038886 -75.01171875 19.26953125 C-75.23472656 20.43871094 -75.45773438 21.60789062 -75.6875 22.8125 C-75.9246875 24.05128906 -76.161875 25.29007813 -76.40625 26.56640625 C-76.6021875 27.69949219 -76.798125 28.83257812 -77 30 C-77.1340625 30.77214844 -77.268125 31.54429688 -77.40625 32.33984375 C-78.68005712 40.99111712 -79.1279532 48.57390055 -74 56 C-67.31090931 63.86951846 -55.95690284 64.6568325 -46.38305664 65.54321289 C-35.93984337 66.37355694 -25.84727145 65.86883416 -15.4375 64.75 C-13.68663086 64.58564453 -13.68663086 64.58564453 -11.90039062 64.41796875 C-3.6101943 63.53056745 3.05829585 61.82774428 9.875 56.9375 C16.11099183 48.31715835 15.76763373 37.20313169 15 27 C13.46798267 18.15259992 8.30307549 10.1569506 1 5 C-1.27855596 3.88603931 -3.5947394 2.84669875 -5.9375 1.875 C-7.71447266 1.12863281 -7.71447266 1.12863281 -9.52734375 0.3671875 C-15.4714976 -1.97303055 -20.39334545 -3.36316185 -26.8125 -3.3125 C-27.91368164 -3.30621582 -27.91368164 -3.30621582 -29.03710938 -3.29980469 C-41.16451453 -3.05725658 -56.797828 -1.80207757 -66 7 Z M-9 67 C-9.33 67.99 -9.66 68.98 -10 70 C-8.76486718 72.23024131 -8.76486718 72.23024131 -7 74 C-6.34 74 -5.68 74 -5 74 C-4.01 71.36 -3.02 68.72 -2 66 C-4.42797311 66 -6.62907005 66.50085685 -9 67 Z M-56 68 C-57.485 71.465 -57.485 71.465 -59 75 C-56.02982306 74.37189827 -56.02982306 74.37189827 -53 73 C-51.56076801 70.49004504 -51.56076801 70.49004504 -51 68 C-52.65 68 -54.3 68 -56 68 Z M-76 68 C-78.57232706 70.57232706 -78.29786466 71.67897692 -78.3125 75.25 C-78.22132535 79.89382876 -77.72502896 83.10710148 -75 87 C-70.23402394 91.12164883 -64.66485653 92.21261763 -58.44140625 91.8515625 C-51.44587165 90.69473463 -44.52162103 88.15202629 -40 82.5 C-38.99755591 79.99388977 -38.38138486 77.66969402 -38 75 C-37.34 75 -36.68 75 -36 75 C-36.53725895 78.37705625 -37.11064623 81.696686 -38 85 C-34.98675805 86.50662097 -32.31713623 86.17770373 -29 86 C-28.34 85.34 -27.68 84.68 -27 84 C-27.350625 83.236875 -27.70125 82.47375 -28.0625 81.6875 C-29 79 -29 79 -28 76 C-27.505 77.2684375 -27.505 77.2684375 -27 78.5625 C-23.79775598 84.06635692 -19.30861349 88.65115041 -13.0625 90.5 C-4.7204666 91.96066733 3.49267376 89.64326127 11 86 C14.75957916 82.60720905 16.40289712 79.03272429 17 74 C15.53736939 70.66448873 13.58562497 67.58562497 11 65 C9.00041636 64.95919217 6.99954746 64.95745644 5 65 C5 65.66 5 66.32 5 67 C3.35 67.33 1.7 67.66 0 68 C-0.66 69.98 -1.32 71.96 -2 74 C0.67247634 76.34287418 0.67247634 76.34287418 4 77 C3.67 77.66 3.34 78.32 3 79 C-1.78964168 78.88521556 -5.04890518 78.72849816 -8.9375 75.75 C-10.8742132 73.16771574 -11.88035747 70.99240784 -13 68 C-17.91224857 67.99466888 -22.82212451 68.02824568 -27.73388672 68.09765625 C-29.40405227 68.1158067 -31.07436793 68.12338644 -32.74462891 68.12011719 C-35.14863978 68.11725697 -37.54954474 68.15259432 -39.953125 68.1953125 C-40.69806213 68.18621857 -41.44299927 68.17712463 -42.21051025 68.16775513 C-44.61108071 68.17150259 -44.61108071 68.17150259 -48 69 C-50.44335103 71.85841663 -50.44335103 71.85841663 -52 75 C-56.59247605 78.01114925 -61.65580417 78.33401224 -67 78 C-67.33 77.01 -67.66 76.02 -68 75 C-67.05125 74.896875 -66.1025 74.79375 -65.125 74.6875 C-61.70892499 74.31460705 -61.70892499 74.31460705 -60 71 C-60 69.68 -60 68.36 -60 67 C-66.26489529 64.21560209 -69.89741709 65.06171934 -76 68 Z M-25 87 C-29.455 88.485 -29.455 88.485 -34 90 C-34 90.33 -34 90.66 -34 91 C-29.545 90.505 -29.545 90.505 -25 90 C-25 89.01 -25 88.02 -25 87 Z " fill="#000000" transform="translate(86,10)"/>
<path d="M0 0 C1.52734375 1.8203125 1.52734375 1.8203125 2.83203125 3.64453125 C4.07510641 5.49529801 4.07510641 5.49529801 6.65234375 7.1328125 C11.94517962 11.86850776 13.67763397 18.86076753 14.12890625 25.76953125 C13.87040749 32.10275083 11.58530733 37.82303713 7.02734375 42.2578125 C-7.32497956 53.15253065 -27.2884224 52.82983124 -44.47265625 50.796875 C-52.40569051 49.63239291 -59.88375904 47.72383714 -65.97265625 42.2578125 C-67.81311536 39.77882676 -68.28189474 38.36623931 -68.97265625 35.2578125 C-68.34765625 32.8828125 -68.34765625 32.8828125 -66.97265625 31.2578125 C-65.48765625 30.7628125 -65.48765625 30.7628125 -63.97265625 30.2578125 C-64.79894531 29.73058594 -65.62523437 29.20335937 -66.4765625 28.66015625 C-68.97265625 26.2578125 -68.97265625 26.2578125 -69.3125 23.19921875 C-69.11333984 21.52666016 -69.11333984 21.52666016 -68.91015625 19.8203125 C-68.79542969 18.70785156 -68.68070313 17.59539063 -68.5625 16.44921875 C-67.54752188 10.95758214 -67.54752188 10.95758214 -65.97265625 8.2578125 C-63.2578125 6.81640625 -63.2578125 6.81640625 -60.03515625 5.6953125 C-55.76902102 4.19724071 -53.28526821 3.2342839 -50.97265625 -0.7421875 C-50.64265625 -1.7321875 -50.31265625 -2.7221875 -49.97265625 -3.7421875 C-49.31265625 -3.7421875 -48.65265625 -3.7421875 -47.97265625 -3.7421875 C-47.97265625 -4.4021875 -47.97265625 -5.0621875 -47.97265625 -5.7421875 C-35.07481387 -12.19110869 -10.63523918 -9.39270629 0 0 Z M-45.97265625 -2.7421875 C-47.7345573 -0.77117951 -47.7345573 -0.77117951 -48.84765625 1.6328125 C-51.5809645 6.23975947 -54.01274298 7.47324562 -58.9140625 9.31640625 C-62.3158589 10.87206646 -63.49001065 12.90574419 -64.97265625 16.2578125 C-65.56003202 19.85719661 -65.78593688 23.05725538 -63.66015625 26.1953125 C-60.50675721 28.18078597 -57.7273579 28.41773118 -54.09765625 28.4453125 C-53.25460938 28.45949219 -52.4115625 28.47367188 -51.54296875 28.48828125 C-48.92851928 28.37778434 -48.92851928 28.37778434 -46.4921875 27.265625 C-42.11396579 25.51433632 -37.6129735 25.78964993 -32.97265625 26.2578125 C-30.94848491 27.20793374 -28.94681893 28.20772597 -26.97265625 29.2578125 C-24.36071425 29.6599622 -21.78126908 29.87908259 -19.14453125 30.046875 C-16.97265625 30.2578125 -16.97265625 30.2578125 -14.97265625 31.2578125 C-14.97265625 32.5778125 -14.97265625 33.8978125 -14.97265625 35.2578125 C-20.73292996 38.05067248 -25.63462241 37.84100835 -31.59765625 35.8203125 C-33.05737667 35.30337947 -34.51589298 34.78302127 -35.97265625 34.2578125 C-40.06937516 32.95885285 -42.67810555 33.6233021 -46.7890625 34.7734375 C-52.10889461 35.95350759 -57.71584362 35.61440931 -62.97265625 34.2578125 C-63.46765625 36.7328125 -63.46765625 36.7328125 -63.97265625 39.2578125 C-61.00265625 41.2378125 -61.00265625 41.2378125 -57.97265625 43.2578125 C-56.98265625 42.7628125 -56.98265625 42.7628125 -55.97265625 42.2578125 C-57.62265625 40.6078125 -59.27265625 38.9578125 -60.97265625 37.2578125 C-60.47636719 37.52335937 -59.98007812 37.78890625 -59.46875 38.0625 C-58.44974609 38.59230469 -58.44974609 38.59230469 -57.41015625 39.1328125 C-56.41822266 39.65488281 -56.41822266 39.65488281 -55.40625 40.1875 C-49.22847537 42.9045309 -43.36969787 43.62976944 -36.72265625 43.8828125 C-35.8836377 43.91858398 -35.04461914 43.95435547 -34.18017578 43.99121094 C-32.52232125 44.0584602 -30.86427283 44.12112013 -29.20605469 44.17871094 C-27.33860484 44.24485149 -25.47187537 44.33093639 -23.60546875 44.421875 C-17.80642256 44.60258182 -12.13034243 44.17250492 -6.97265625 41.2578125 C-6.64265625 40.2678125 -6.31265625 39.2778125 -5.97265625 38.2578125 C-4.98265625 38.2578125 -3.99265625 38.2578125 -2.97265625 38.2578125 C-2.97265625 39.2478125 -2.97265625 40.2378125 -2.97265625 41.2578125 C-3.96265625 41.7528125 -3.96265625 41.7528125 -4.97265625 42.2578125 C-3.98265625 42.2578125 -2.99265625 42.2578125 -1.97265625 42.2578125 C-1.97265625 39.9478125 -1.97265625 37.6378125 -1.97265625 35.2578125 C-3.29265625 35.2578125 -4.61265625 35.2578125 -5.97265625 35.2578125 C-6.30265625 34.5978125 -6.63265625 33.9378125 -6.97265625 33.2578125 C-5.65265625 33.2578125 -4.33265625 33.2578125 -2.97265625 33.2578125 C-2.84881662 29.05869653 -2.75821018 24.86055434 -2.69799805 20.66015625 C-2.67289278 19.23223349 -2.63880038 17.80443875 -2.59545898 16.37695312 C-2.53461947 14.32129332 -2.50641074 12.26733497 -2.484375 10.2109375 C-2.45819092 8.97504883 -2.43200684 7.73916016 -2.4050293 6.46582031 C-2.68605668 3.09122776 -2.68605668 3.09122776 -5.34472656 0.88647461 C-7.93149473 -0.71667761 -10.10537733 -1.64629994 -13.03515625 -2.4296875 C-13.87175781 -2.66042969 -14.70835938 -2.89117187 -15.5703125 -3.12890625 C-16.36308594 -3.33128906 -17.15585938 -3.53367187 -17.97265625 -3.7421875 C-18.60252441 -3.91637207 -19.23239258 -4.09055664 -19.88134766 -4.27001953 C-23.31288157 -5.04477865 -26.78476008 -4.92666209 -30.28515625 -4.9296875 C-31.01927734 -4.94193359 -31.75339844 -4.95417969 -32.50976562 -4.96679688 C-37.30102906 -4.9795509 -41.46575319 -4.55505137 -45.97265625 -2.7421875 Z M-0.97265625 6.2578125 C-1.35443908 17.69008737 -0.18352377 28.90431931 1.02734375 40.2578125 C2.34734375 39.5978125 3.66734375 38.9378125 5.02734375 38.2578125 C4.36734375 38.2578125 3.70734375 38.2578125 3.02734375 38.2578125 C2.97318187 36.65401909 2.93447737 35.04969844 2.90234375 33.4453125 C2.87914063 32.55199219 2.8559375 31.65867187 2.83203125 30.73828125 C3.02734375 28.2578125 3.02734375 28.2578125 5.02734375 25.2578125 C7.65234375 24.5703125 7.65234375 24.5703125 10.02734375 24.2578125 C10.02734375 23.9278125 10.02734375 23.5978125 10.02734375 23.2578125 C7.38734375 22.9278125 4.74734375 22.5978125 2.02734375 22.2578125 C2.06214844 21.27039062 2.09695312 20.28296875 2.1328125 19.265625 C2.15988281 17.98429687 2.18695313 16.70296875 2.21484375 15.3828125 C2.24964844 14.10664062 2.28445312 12.83046875 2.3203125 11.515625 C2.22363281 10.44054687 2.12695312 9.36546875 2.02734375 8.2578125 C1.03734375 7.5978125 0.04734375 6.9378125 -0.97265625 6.2578125 Z M4.02734375 10.2578125 C4.02734375 13.5578125 4.02734375 16.8578125 4.02734375 20.2578125 C5.67734375 20.2578125 7.32734375 20.2578125 9.02734375 20.2578125 C7.9220466 15.75160104 7.37639828 13.60686703 4.02734375 10.2578125 Z M6.02734375 27.2578125 C6.02734375 29.8978125 6.02734375 32.5378125 6.02734375 35.2578125 C6.68734375 35.2578125 7.34734375 35.2578125 8.02734375 35.2578125 C9.28399353 32.35180989 10.02734375 30.46176666 10.02734375 27.2578125 C8.70734375 27.2578125 7.38734375 27.2578125 6.02734375 27.2578125 Z M-42.97265625 28.2578125 C-41.97265625 30.2578125 -41.97265625 30.2578125 -41.97265625 30.2578125 Z M-38.97265625 28.2578125 C-38.64265625 28.9178125 -38.31265625 29.5778125 -37.97265625 30.2578125 C-37.64265625 29.5978125 -37.31265625 28.9378125 -36.97265625 28.2578125 C-37.63265625 28.2578125 -38.29265625 28.2578125 -38.97265625 28.2578125 Z M-47.97265625 30.2578125 C-47.64265625 30.9178125 -47.31265625 31.5778125 -46.97265625 32.2578125 C-46.64265625 31.5978125 -46.31265625 30.9378125 -45.97265625 30.2578125 C-46.63265625 30.2578125 -47.29265625 30.2578125 -47.97265625 30.2578125 Z M-6.97265625 43.2578125 C-7.30265625 43.9178125 -7.63265625 44.5778125 -7.97265625 45.2578125 C-7.31265625 45.2578125 -6.65265625 45.2578125 -5.97265625 45.2578125 C-6.30265625 44.5978125 -6.63265625 43.9378125 -6.97265625 43.2578125 Z M-43.97265625 46.2578125 C-43.97265625 46.5878125 -43.97265625 46.9178125 -43.97265625 47.2578125 C-39.45450344 48.14059005 -35.19752931 48.36370753 -30.59765625 48.3203125 C-29.35242187 48.31128906 -28.1071875 48.30226562 -26.82421875 48.29296875 C-25.88320313 48.28136719 -24.9421875 48.26976562 -23.97265625 48.2578125 C-27.81425385 45.69000779 -31.78657375 46.03092368 -36.22265625 46.1328125 C-36.96773437 46.14183594 -37.7128125 46.15085938 -38.48046875 46.16015625 C-40.31133684 46.18362892 -42.14203863 46.21949725 -43.97265625 46.2578125 Z " fill="#000000" transform="translate(82.97265625,19.7421875)"/>
<path d="M0 0 C1.30167114 0.01232666 1.30167114 0.01232666 2.62963867 0.02490234 C3.58547852 0.02876953 4.54131836 0.03263672 5.52612305 0.03662109 C6.52321289 0.06111328 7.52030273 0.08560547 8.54760742 0.11083984 C9.5330957 0.11212891 10.51858398 0.11341797 11.53393555 0.11474609 C16.56697962 0.1755888 21.1135042 0.26806567 25.73510742 2.48583984 C28.18579588 6.16187253 28.44142991 9.21345018 27.73510742 13.48583984 C25.40134597 16.73643615 23.56375855 17.72945322 19.73510742 18.48583984 C16.95063903 18.63224263 14.20737853 18.71658473 11.42260742 18.73583984 C10.68848633 18.75646484 9.95436523 18.77708984 9.19799805 18.79833984 C3.97641943 18.83540518 0.36049863 17.9511195 -4.26489258 15.48583984 C-5.42128148 13.17306203 -5.46358186 11.68492763 -5.51489258 9.11083984 C-5.54067383 8.33998047 -5.56645508 7.56912109 -5.59301758 6.77490234 C-5.07391199 3.15352288 -3.69403769 0.79240433 0 0 Z M1.73510742 3.48583984 C1.07510742 4.14583984 0.41510742 4.80583984 -0.26489258 5.48583984 C2.21010742 5.98083984 2.21010742 5.98083984 4.73510742 6.48583984 C5.06510742 5.49583984 5.39510742 4.50583984 5.73510742 3.48583984 C4.41510742 3.48583984 3.09510742 3.48583984 1.73510742 3.48583984 Z M7.73510742 3.48583984 C7.40510742 5.13583984 7.07510742 6.78583984 6.73510742 8.48583984 C7.39510742 8.48583984 8.05510742 8.48583984 8.73510742 8.48583984 C8.73510742 6.83583984 8.73510742 5.18583984 8.73510742 3.48583984 C8.40510742 3.48583984 8.07510742 3.48583984 7.73510742 3.48583984 Z M11.73510742 3.48583984 C11.61135742 4.43458984 11.48760742 5.38333984 11.36010742 6.36083984 C10.73510742 9.48583984 10.73510742 9.48583984 8.73510742 11.48583984 C10.54752794 11.51271264 12.36005976 11.532177 14.17260742 11.54833984 C15.68661133 11.56574219 15.68661133 11.56574219 17.23120117 11.58349609 C19.67531809 11.7719666 19.67531809 11.7719666 20.73510742 10.48583984 C20.44780687 8.14639248 20.11573963 5.81192554 19.73510742 3.48583984 C17.09510742 3.48583984 14.45510742 3.48583984 11.73510742 3.48583984 Z M23.73510742 6.48583984 C23.27104492 7.90896484 23.27104492 7.90896484 22.79760742 9.36083984 C21.73510742 12.48583984 21.73510742 12.48583984 20.73510742 14.48583984 C21.72510742 14.48583984 22.71510742 14.48583984 23.73510742 14.48583984 C25.0895041 11.77704649 24.80012193 9.47650717 24.73510742 6.48583984 C24.40510742 6.48583984 24.07510742 6.48583984 23.73510742 6.48583984 Z M2.73510742 14.48583984 C2.73510742 14.81583984 2.73510742 15.14583984 2.73510742 15.48583984 C8.01510742 15.48583984 13.29510742 15.48583984 18.73510742 15.48583984 C18.73510742 15.15583984 18.73510742 14.82583984 18.73510742 14.48583984 C13.45510742 14.48583984 8.17510742 14.48583984 2.73510742 14.48583984 Z " fill="#000000" transform="translate(40.264892578125,21.51416015625)"/>
<path d="M0 0 C1.32 0.66 2.64 1.32 4 2 C3.9278125 2.67546875 3.855625 3.3509375 3.78125 4.046875 C3.6884375 4.93890625 3.595625 5.8309375 3.5 6.75 C3.4071875 7.63171875 3.314375 8.5134375 3.21875 9.421875 C2.94363687 12.23304835 2.94363687 12.23304835 3 16 C-0.3125 16.3125 -0.3125 16.3125 -4 16 C-6.54591711 13.29496307 -6.98548065 11.6969287 -7.0625 8 C-5.59801742 3.86499036 -3.52320691 2.54870287 0 0 Z M-1 4 C-3.41121859 5.95633975 -3.41121859 5.95633975 -3.125 9.625 C-3.08375 10.73875 -3.0425 11.8525 -3 13 C-2.34 13 -1.68 13 -1 13 C-0.67 10.03 -0.34 7.06 0 4 C-0.33 4 -0.66 4 -1 4 Z " fill="#000000" transform="translate(26,30)"/>
<path d="M0 0 C0.99 0.33 1.98 0.66 3 1 C3 1.66 3 2.32 3 3 C1.68 2.67 0.36 2.34 -1 2 C-0.67 1.34 -0.34 0.68 0 0 Z " fill="#000000" transform="translate(76,43)"/>
<path d="M0 0 C0.99 0 1.98 0 3 0 C3 0.99 3 1.98 3 3 C2.01 3 1.02 3 0 3 C0 2.01 0 1.02 0 0 Z " fill="#000000" transform="translate(75,28)"/>
<path d="M0 0 C0.66 0 1.32 0 2 0 C2 0.99 2 1.98 2 3 C1.01 3 0.02 3 -1 3 C-0.67 2.01 -0.34 1.02 0 0 Z " fill="#000000" transform="translate(77,48)"/>
<path d="M0 0 C0.66 0 1.32 0 2 0 C2 0.99 2 1.98 2 3 C1.01 2.67 0.02 2.34 -1 2 C-0.67 1.34 -0.34 0.68 0 0 Z " fill="#000000" transform="translate(76,39)"/>
<path d="M0 0 C0.66 0 1.32 0 2 0 C2 0.99 2 1.98 2 3 C1.34 3 0.68 3 0 3 C0 2.01 0 1.02 0 0 Z " fill="#000000" transform="translate(76,23)"/>
<path d="M0 0 C0.33 0.99 0.66 1.98 1 3 C0.34 3 -0.32 3 -1 3 C-0.67 2.01 -0.34 1.02 0 0 Z " fill="#000000" transform="translate(77,33)"/>
<path d="M0 0 C2 1 2 1 2 1 Z " fill="#000000" transform="translate(32,14)"/>
<path d="" fill="#000000" transform="translate(0,0)"/>
<path d="" fill="#000000" transform="translate(0,0)"/>
<path d="" fill="#000000" transform="translate(0,0)"/>
<path d="" fill="#000000" transform="translate(0,0)"/>
<path d="" fill="#000000" transform="translate(0,0)"/>
<path d="" fill="#000000" transform="translate(0,0)"/>
</svg>
