<?xml version="1.0" encoding="UTF-8"?>
<svg version="1.1" xmlns="http://www.w3.org/2000/svg" width="110" height="110">
<path d="M0 0 C1.23258545 0.00241699 2.4651709 0.00483398 3.73510742 0.00732422 C11.48645056 0.16129442 18.63026991 0.95655004 26.0625 3.1875 C26.84850586 3.42267334 27.63451172 3.65784668 28.44433594 3.90014648 C35.14541711 6.1942037 40.04345342 9.67902475 43.67578125 15.81640625 C44.13339844 16.90824219 44.59101562 18.00007813 45.0625 19.125 C45.53300781 20.21941406 46.00351563 21.31382813 46.48828125 22.44140625 C46.90464844 23.47136719 47.32101563 24.50132813 47.75 25.5625 C48.12898438 26.39136719 48.50796875 27.22023438 48.8984375 28.07421875 C51.32865862 35.17536946 50.28585333 43.50953207 47.796875 50.46484375 C43.79544093 58.48264262 38.86267474 61.1740779 30.66894531 63.97119141 C17.77427544 67.94458714 3.99991359 66.56104421 -9.25 65.5625 C-10.42949219 65.47742188 -10.42949219 65.47742188 -11.6328125 65.390625 C-19.45900579 64.77350582 -25.56802914 64.24447086 -31.25 58.5625 C-38.02974567 49.20099359 -37.01971522 37.63823074 -35.82421875 26.6484375 C-34.15343551 17.23875028 -30.5485487 11.75082951 -23.8125 5.1875 C-16.13115392 0.31640248 -8.89981508 -0.01808538 0 0 Z M-24.3125 9.55078125 C-30.06194683 16.48605149 -32.73681182 23.58903815 -33.25 32.5625 C-33.32605469 33.64015625 -33.40210938 34.7178125 -33.48046875 35.828125 C-33.80132934 43.84096775 -33.14483999 50.01469048 -28.25 56.5625 C-16.99423521 66.17679909 6.68984536 63.31528894 20.75 62.5625 C28.57513368 61.54739073 37.9301874 59.22054925 43.15625 52.84765625 C46.79408369 46.49443956 47.53200031 39.30649029 46.05078125 32.21484375 C43.35923863 22.94870294 40.16490186 14.91462508 31.75 9.5625 C23.10437225 5.61667571 15.16025741 4.37429485 5.75 4.5625 C8.75012463 6.56258309 11.06520629 7.15018652 14.55175781 7.85449219 C23.98029836 9.76463712 32.68152692 11.9201675 38.4765625 20.1796875 C41.1929318 24.75308088 41.52652657 28.69953807 41.375 33.9375 C41.35288452 35.18768921 41.35288452 35.18768921 41.33032227 36.46313477 C41.07131262 42.95230805 40.08673014 48.484821 35.75 53.5625 C27.01563099 61.07811984 10.28102444 59.93666774 -0.64355469 59.45751953 C-20.60448449 57.91026257 -20.60448449 57.91026257 -26.25 51.5625 C-29.99412305 44.55535814 -29.40611491 37.48676491 -28.6875 29.8125 C-28.57438477 28.14767578 -28.57438477 28.14767578 -28.45898438 26.44921875 C-27.59914678 16.31411184 -27.59914678 16.31411184 -23.25 12.5625 C-15.09298326 6.85511368 -7.03662797 5.59145452 2.75 5.5625 C2.255 4.5725 2.255 4.5725 1.75 3.5625 C-12.40412107 2.7986738 -12.40412107 2.7986738 -24.3125 9.55078125 Z M-20.25 14.5625 C-19.1775 14.706875 -18.105 14.85125 -17 15 C-15.02734375 15.52734375 -15.02734375 15.52734375 -13.25 16.5625 C-12.31640625 18.62890625 -12.31640625 18.62890625 -11.5625 21.0625 C-10.79121471 23.54878808 -10.79121471 23.54878808 -9.25 25.5625 C-6.08810219 26.55847606 -3.23519421 26.86893797 0.0703125 27.05078125 C0.95460938 27.21964844 1.83890625 27.38851562 2.75 27.5625 C4.1171875 29.60546875 4.1171875 29.60546875 4.75 31.5625 C7.39 31.5625 10.03 31.5625 12.75 31.5625 C12.9665625 30.92570312 13.183125 30.28890625 13.40625 29.6328125 C14.75 27.5625 14.75 27.5625 17.28125 26.8046875 C18.2609375 26.68351562 19.240625 26.56234375 20.25 26.4375 C24.48637668 26.04051536 24.48637668 26.04051536 27.75 23.5625 C28.42292501 21.59559626 28.42292501 21.59559626 28.875 19.4375 C29.16375 18.15875 29.4525 16.88 29.75 15.5625 C17.52715949 8.99838195 -10.00997385 1.91305593 -20.25 14.5625 Z M-25.25 18.5625 C-26.19502156 24.44263415 -26.40726458 30.30470046 -26.5 36.25 C-26.5213501 36.97445312 -26.5427002 37.69890625 -26.56469727 38.4453125 C-26.59485898 43.22731522 -25.82612418 46.39193002 -23.25 50.5625 C-21.47033317 52.75916303 -21.47033317 52.75916303 -19.15625 52.79296875 C-18.3621875 52.77878906 -17.568125 52.76460937 -16.75 52.75 C-15.9559375 52.74355469 -15.161875 52.73710938 -14.34375 52.73046875 C-12.19163609 52.68925836 -12.19163609 52.68925836 -10.25 51.5625 C-9.82654372 49.78166334 -9.46034196 47.9870111 -9.125 46.1875 C-7.82666026 40.96709228 -7.82666026 40.96709228 -5.3125 39.203125 C-3.125 38.4375 -3.125 38.4375 0.75 37.5625 C2.02003323 36.50939723 2.02003323 36.50939723 1.9375 34.125 C2.01839983 31.39515325 2.01839983 31.39515325 -0.25 29.5625 C-3.8419305 28.23215537 -7.46470013 28.48970577 -11.25 28.5625 C-11.70572917 26.57682292 -12.16145833 24.59114583 -12.6171875 22.60546875 C-13.23007723 20.28507026 -13.23007723 20.28507026 -15.25 17.5625 C-17.4211557 17.16103921 -17.4211557 17.16103921 -19.8125 17.3125 C-20.61816406 17.32796875 -21.42382812 17.3434375 -22.25390625 17.359375 C-24.24803449 17.34990535 -24.24803449 17.34990535 -25.25 18.5625 Z M31.75 18.5625 C31.55664062 19.12839844 31.36328125 19.69429687 31.1640625 20.27734375 C30.90367188 21.01082031 30.64328125 21.74429688 30.375 22.5 C30.11976562 23.23089844 29.86453125 23.96179688 29.6015625 24.71484375 C28.75 26.5625 28.75 26.5625 26.75 27.5625 C24.87943209 27.7900015 23.00314042 27.97212811 21.125 28.125 C20.12210938 28.20878906 19.11921875 28.29257812 18.0859375 28.37890625 C17.31507812 28.43949219 16.54421875 28.50007813 15.75 28.5625 C15.729375 29.861875 15.70875 31.16125 15.6875 32.5 C15.67589844 33.23089844 15.66429687 33.96179688 15.65234375 34.71484375 C15.54438816 36.57982141 15.54438816 36.57982141 16.75 37.5625 C19.00415378 37.84539181 21.25840656 38.0102119 23.5234375 38.18359375 C25.75 38.5625 25.75 38.5625 28.75 40.5625 C29.69921875 42.7265625 29.69921875 42.7265625 30.4375 45.1875 C30.68886719 46.00476563 30.94023438 46.82203125 31.19921875 47.6640625 C31.38097656 48.29054688 31.56273438 48.91703125 31.75 49.5625 C33.07 49.5625 34.39 49.5625 35.75 49.5625 C38.94885034 40.78470234 40.84162122 31.39178791 36.75 22.5625 C35.37073227 20.21988392 35.37073227 20.21988392 33.75 18.5625 C33.09 18.5625 32.43 18.5625 31.75 18.5625 Z M4.75 34.5625 C4.42 36.2125 4.09 37.8625 3.75 39.5625 C3.13511719 39.65144531 2.52023438 39.74039063 1.88671875 39.83203125 C-0.86005971 40.44096619 -2.86484934 41.04892846 -5.25 42.5625 C-6.52823034 45.40301187 -7.10395284 47.99921813 -7.6171875 51.06640625 C-8.25 53.5625 -8.25 53.5625 -11.25 55.5625 C-5.87279774 57.16114925 -0.30987882 56.74689045 5.25 56.75 C6.37148438 56.76224609 7.49296875 56.77449219 8.6484375 56.78710938 C16.20954075 56.80020597 23.3374768 56.04786597 30.75 54.5625 C30.75 50.9216615 29.64347937 49.62119744 27.75 46.5625 C27.07033324 44.90109237 26.40061095 43.23549959 25.75 41.5625 C24.08657163 39.89907163 21.9674291 40.20201903 19.6875 40 C18.76839844 39.91621094 17.84929687 39.83242188 16.90234375 39.74609375 C15.83693359 39.65521484 15.83693359 39.65521484 14.75 39.5625 C14.09 37.9125 13.43 36.2625 12.75 34.5625 C10.11 34.5625 7.47 34.5625 4.75 34.5625 Z " fill="#000000" transform="translate(48.25,12.4375)"/>
<path d="M0 0 C14.16867864 -0.62190765 30.02709794 3.54590453 40.609375 13.16015625 C43.07511238 15.72674179 45.37108326 18.39426717 47.609375 21.16015625 C48.29225586 21.86479004 48.97513672 22.56942383 49.67871094 23.29541016 C52.10702535 26.89857673 52.18819826 29.82435803 52.140625 34.0234375 C52.14636536 35.14965767 52.14636536 35.14965767 52.15222168 36.29862976 C52.15493543 37.88293808 52.1476117 39.4672916 52.13085938 41.05151367 C52.10952899 43.45530235 52.130629 45.85607204 52.15625 48.25976562 C52.17552682 58.98312359 50.90018456 65.82780246 43.609375 74.16015625 C44.558125 74.75828125 45.506875 75.35640625 46.484375 75.97265625 C49.73820711 78.25033872 51.31955693 79.66830586 52.0859375 83.61328125 C52.4765789 90.97378771 52.4765789 90.97378771 49.99609375 94.3671875 C43.6020748 100.0868843 38.14805125 101.53770762 29.68359375 101.43359375 C25.98778243 101.10486847 22.94411183 100.08275375 19.5 98.76953125 C15.87289316 97.60046375 13.29113369 98.87476889 9.921875 100.28515625 C2.81191905 102.16325782 -3.01788281 100.4982593 -9.390625 97.16015625 C-12.51701271 97.42813234 -13.69308384 98.36179548 -16.390625 100.16015625 C-24.66739499 102.34195786 -33.86243242 102.39455546 -41.51171875 98.3515625 C-47.90388972 94.29831479 -47.90388972 94.29831479 -48.828125 90.23828125 C-49.05139972 86.52633898 -48.60977087 84.53351589 -46.703125 81.28515625 C-44.32504022 79.09988915 -42.45930135 78.09780736 -39.390625 77.16015625 C-40.15375 76.43828125 -40.916875 75.71640625 -41.703125 74.97265625 C-50.98318601 65.2609645 -48.9699475 52.49818014 -48.68722534 39.92692566 C-48.3095378 28.95909326 -45.47062388 18.04823116 -37.390625 10.16015625 C-36.81699219 9.59941406 -36.24335937 9.03867188 -35.65234375 8.4609375 C-25.71278875 -0.03810229 -12.32432398 0.82564916 0 0 Z M-37.578125 15.66015625 C-41.83585338 21.23980791 -43.35432005 26.28496895 -44.390625 33.16015625 C-44.49600586 33.8577002 -44.60138672 34.55524414 -44.70996094 35.27392578 C-47.46848849 52.76191877 -47.46848849 52.76191877 -42.390625 69.16015625 C-37.92368986 72.95134678 -33.10895394 75.7877573 -27.390625 77.16015625 C-26.71773437 77.33160156 -26.04484375 77.50304687 -25.3515625 77.6796875 C-15.22305072 79.91439089 -4.71767821 79.85804552 5.609375 80.16015625 C6.91648438 80.20269531 8.22359375 80.24523437 9.5703125 80.2890625 C19.91727202 80.47339076 31.44010339 79.53693249 39.5859375 72.4375 C46.80037848 64.71651316 49.12259411 57.65814926 48.87133789 47.17700195 C48.79587124 45.17090569 48.70297045 43.16548847 48.609375 41.16015625 C48.60035156 40.14050781 48.59132813 39.12085938 48.58203125 38.0703125 C48.28069273 29.66899444 45.21913325 22.9849362 39.4453125 16.8671875 C21.01521293 0.86842029 -20.26640676 -3.8702118 -37.578125 15.66015625 Z M35.609375 79.34765625 C34.42651387 81.10824652 34.42651387 81.10824652 34.734375 83.16015625 C35.7062853 85.3816655 36.87369573 86.49679695 38.609375 88.16015625 C38.939375 89.15015625 39.269375 90.14015625 39.609375 91.16015625 C34.83934098 91.54175897 31.51471508 91.62105665 27.171875 89.41015625 C24.609375 87.16015625 24.609375 87.16015625 22.609375 83.16015625 C19.309375 83.16015625 16.009375 83.16015625 12.609375 83.16015625 C13.38487108 89.56776444 13.38487108 89.56776444 17.24609375 94.42578125 C24.33694753 97.82939106 31.8656132 98.31873887 39.609375 97.16015625 C43.35370105 95.00990585 46.60407182 93.05935687 48.609375 89.16015625 C49.19279853 85.61784816 49.19279853 85.61784816 48.609375 82.16015625 C46.34030927 79.43727737 44.50486379 79.13448683 41.046875 78.28515625 C37.71491938 77.85337926 37.71491938 77.85337926 35.609375 79.34765625 Z M-43.390625 82.16015625 C-45.1044294 84.49716225 -45.40241006 85.70053908 -45.328125 88.59765625 C-44.00213037 92.22204156 -42.45437497 93.79851565 -39.390625 96.16015625 C-31.88795066 98.88584693 -23.8207489 99.18724377 -16.390625 96.16015625 C-12.76356755 92.84178454 -11.47661474 91.22642906 -11.078125 86.28515625 C-11.2328125 84.73828125 -11.2328125 84.73828125 -11.390625 83.16015625 C-14.41578745 82.49448869 -17.28730697 82.02270094 -20.390625 82.16015625 C-22.07936379 83.80445454 -23.74368015 85.47399843 -25.390625 87.16015625 C-29.01469116 88.19118503 -32.65254465 88.72153737 -36.390625 89.16015625 C-35.159231 85.46597424 -33.18271146 83.80905879 -30.390625 81.16015625 C-32.25559977 78.87871812 -32.25559977 78.87871812 -35.203125 78.84765625 C-38.8010689 79.20039585 -40.55125198 79.95175502 -43.390625 82.16015625 Z M-27.390625 81.16015625 C-27.720625 82.48015625 -28.050625 83.80015625 -28.390625 85.16015625 C-26.740625 84.50015625 -25.090625 83.84015625 -23.390625 83.16015625 C-23.390625 82.50015625 -23.390625 81.84015625 -23.390625 81.16015625 C-24.710625 81.16015625 -26.030625 81.16015625 -27.390625 81.16015625 Z M29.609375 81.16015625 C28.289375 81.49015625 26.969375 81.82015625 25.609375 82.16015625 C26.17014301 84.65020129 26.17014301 84.65020129 27.609375 87.16015625 C30.63919806 88.53205452 30.63919806 88.53205452 33.609375 89.16015625 C32.48485773 86.18821775 31.38643709 83.82574938 29.609375 81.16015625 Z M-7.390625 83.16015625 C-9.51189281 90.27085896 -9.51189281 90.27085896 -9.390625 94.16015625 C-3.46281586 97.32165446 1.92308925 97.94858504 8.609375 97.16015625 C9.929375 96.50015625 11.249375 95.84015625 12.609375 95.16015625 C11.619375 91.20015625 10.629375 87.24015625 9.609375 83.16015625 C3.999375 83.16015625 -1.610625 83.16015625 -7.390625 83.16015625 Z " fill="#000000" transform="translate(52.390625,3.83984375)"/>
<path d="M0 0 C1.22589844 0.15275391 1.22589844 0.15275391 2.4765625 0.30859375 C3.41628906 0.43427734 3.41628906 0.43427734 4.375 0.5625 C5.375 3.5625 5.375 3.5625 4.375 6.5625 C1.36175805 8.06912097 -1.30786377 7.74020373 -4.625 7.5625 C-6.625 5.5625 -6.625 5.5625 -6.75 2.9375 C-6.70875 2.15375 -6.6675 1.37 -6.625 0.5625 C-4.10446405 -0.69776798 -2.7707902 -0.35624445 0 0 Z M-2.625 2.5625 C-2.625 3.2225 -2.625 3.8825 -2.625 4.5625 C-1.305 4.5625 0.015 4.5625 1.375 4.5625 C1.375 3.9025 1.375 3.2425 1.375 2.5625 C0.055 2.5625 -1.265 2.5625 -2.625 2.5625 Z " fill="#000000" transform="translate(54.625,91.4375)"/>
</svg>
