<?xml version="1.0" encoding="UTF-8"?>
<svg version="1.1" xmlns="http://www.w3.org/2000/svg" width="110" height="110">
<path d="M0 0 C2.38945855 0.0031684 4.77768495 -0.02040823 7.16699219 -0.0456543 C19.65852256 -0.09771214 32.68167001 0.95132044 42.21386719 10.05395508 C47.40000114 15.90401439 48.70313087 20.15377877 48.69433594 28.03442383 C48.69862106 28.88814575 48.70290619 29.74186768 48.70732117 30.62145996 C48.7130607 32.43032955 48.7135675 34.23922221 48.70922852 36.0480957 C48.70609751 38.77833057 48.72943023 41.50745017 48.75488281 44.23754883 C48.84195617 67.51036715 48.84195617 67.51036715 42.39355469 75.31567383 C42.82667969 75.71657227 43.25980469 76.1174707 43.70605469 76.53051758 C46.91912927 79.81053122 48.83647409 82.17467046 48.95605469 86.87817383 C48.63694282 90.9503188 47.86017084 93.97380678 45.39355469 97.31567383 C40.0634985 100.1529661 35.75083765 100.78579847 29.76855469 100.69067383 C29.03121094 100.70227539 28.29386719 100.71387695 27.53417969 100.72583008 C22.96809431 100.70128123 20.0234699 100.11783268 16.39355469 97.31567383 C14.58105469 95.12817383 14.58105469 95.12817383 13.39355469 93.31567383 C12.75417969 93.91379883 12.11480469 94.51192383 11.45605469 95.12817383 C4.94195426 99.78110271 -1.17450404 100.90565164 -9.08300781 99.89770508 C-14.0289014 98.75693396 -16.76930086 96.57139051 -19.60644531 92.31567383 C-20.14269531 93.07879883 -20.67894531 93.84192383 -21.23144531 94.62817383 C-24.42103227 98.23744328 -27.12259666 99.93642848 -31.93457031 100.67114258 C-37.61862756 100.99370411 -41.28777181 99.9370882 -46.01269531 96.80004883 C-47.80684954 95.12902283 -48.64888205 93.55637187 -49.60644531 91.31567383 C-50.26644531 91.31567383 -50.92644531 91.31567383 -51.60644531 91.31567383 C-52.09265803 84.14403624 -52.09265803 84.14403624 -49.91894531 80.44067383 C-47.54086053 78.25540673 -45.67512166 77.25332493 -42.60644531 76.31567383 C-43.53457031 75.84129883 -44.46269531 75.36692383 -45.41894531 74.87817383 C-49.65234926 72.03545893 -50.49371781 68.1106994 -51.60644531 63.31567383 C-51.99722463 60.04519753 -52.05144494 56.82196482 -52.04003906 53.53051758 C-52.04528091 52.62999161 -52.05052277 51.72946564 -52.05592346 50.801651 C-52.06230334 48.91172307 -52.06105946 47.02175521 -52.05249023 45.13183594 C-52.04395621 42.25684538 -52.0728363 39.38382944 -52.10449219 36.5090332 C-52.10610405 34.66202858 -52.10552695 32.81502048 -52.10253906 30.96801758 C-52.11377304 30.11884262 -52.12500702 29.26966766 -52.13658142 28.39476013 C-52.05155271 21.04189931 -49.88667999 15.43485182 -44.73144531 10.12817383 C-32.44099934 0.44878827 -14.90573058 -0.04128588 0 0 Z M-45.60644531 16.31567383 C-51.10304406 25.17927245 -48.68676275 39.8260737 -48.35644531 49.81567383 C-48.329375 51.1330957 -48.30230469 52.45051758 -48.27441406 53.80786133 C-48.23445313 55.07887695 -48.19449219 56.34989258 -48.15332031 57.65942383 C-48.12077148 58.79573242 -48.08822266 59.93204102 -48.0546875 61.1027832 C-47.46173917 65.35289216 -46.09840655 68.86685364 -42.98535156 71.88989258 C-33.04691493 77.98119245 -22.01167411 78.75224367 -10.64086914 79.66992188 C-9.76068115 79.74122314 -8.88049316 79.81252441 -7.97363281 79.88598633 C-7.18069824 79.94544434 -6.38776367 80.00490234 -5.57080078 80.06616211 C-3.60644531 80.31567383 -3.60644531 80.31567383 -1.60644531 81.31567383 C11.95731004 81.3906117 29.1042083 80.92359035 40.04589844 71.97583008 C44.43599352 66.56774193 44.55979009 58.95679012 45.39355469 52.31567383 C45.53148438 51.21739258 45.66941406 50.11911133 45.81152344 48.98754883 C46.48294153 42.19437759 46.36903896 35.65434463 45.70605469 28.87817383 C45.64063477 28.132854 45.57521484 27.38753418 45.5078125 26.61962891 C44.79560833 20.44742371 43.00902854 15.62234397 38.20996094 11.38989258 C37.46617188 10.93227539 36.72238281 10.4746582 35.95605469 10.00317383 C35.21484375 9.53266602 34.47363281 9.0621582 33.70996094 8.57739258 C28.71862155 5.85866977 24.27320874 4.91879495 18.62792969 4.57739258 C17.50043304 4.50437675 17.50043304 4.50437675 16.35015869 4.42988586 C14.75683219 4.33048045 13.16320538 4.2357906 11.56933594 4.14550781 C9.19118828 4.00596875 6.81647977 3.83645195 4.44042969 3.6652832 C-12.16147607 2.61139802 -33.14647256 3.82447308 -45.60644531 16.31567383 Z M-46.60644531 81.31567383 C-48.17580125 84.4543857 -47.95845634 86.85423205 -47.60644531 90.31567383 C-45.07333237 93.482065 -42.50468655 96.05447813 -38.60644531 97.31567383 C-32.58823789 97.87291526 -28.60571585 96.67224354 -23.85644531 92.94067383 C-22.20410571 90.79263234 -21.35222256 88.92589419 -20.60644531 86.31567383 C-20.90164299 83.58203063 -20.90164299 83.58203063 -21.60644531 81.31567383 C-23.25644531 81.31567383 -24.90644531 81.31567383 -26.60644531 81.31567383 C-27.01894531 82.26442383 -27.43144531 83.21317383 -27.85644531 84.19067383 C-30.15119239 88.28843647 -30.15119239 88.28843647 -33.60644531 89.31567383 C-36.27392853 89.75086783 -38.91358203 90.0463875 -41.60644531 90.31567383 C-39.60644531 87.31567383 -39.60644531 87.31567383 -37.54394531 86.44067383 C-35.31554269 85.44623674 -35.31554269 85.44623674 -34.85644531 82.69067383 C-34.77394531 81.90692383 -34.69144531 81.12317383 -34.60644531 80.31567383 C-36.04384044 80.28855317 -37.48138394 80.26922316 -38.91894531 80.25317383 C-39.71945313 80.24157227 -40.51996094 80.2299707 -41.34472656 80.21801758 C-43.77505865 80.21909528 -43.77505865 80.21909528 -46.60644531 81.31567383 Z M-31.60644531 80.31567383 C-31.27644531 81.63567383 -30.94644531 82.95567383 -30.60644531 84.31567383 C-30.27644531 82.99567383 -29.94644531 81.67567383 -29.60644531 80.31567383 C-30.26644531 80.31567383 -30.92644531 80.31567383 -31.60644531 80.31567383 Z M29.39355469 81.31567383 C29.39355469 82.30567383 29.39355469 83.29567383 29.39355469 84.31567383 C30.38355469 84.31567383 31.37355469 84.31567383 32.39355469 84.31567383 C31.40355469 83.32567383 30.41355469 82.33567383 29.39355469 81.31567383 Z M-16.60644531 83.31567383 C-16.27644531 83.97567383 -15.94644531 84.63567383 -15.60644531 85.31567383 C-15.27644531 84.65567383 -14.94644531 83.99567383 -14.60644531 83.31567383 C-15.26644531 83.31567383 -15.92644531 83.31567383 -16.60644531 83.31567383 Z M35.39355469 79.31567383 C35.39355469 80.63567383 35.39355469 81.95567383 35.39355469 83.31567383 C37.04355469 83.97567383 38.69355469 84.63567383 40.39355469 85.31567383 C40.39355469 86.30567383 40.39355469 87.29567383 40.39355469 88.31567383 C30.62980723 88.89001191 30.62980723 88.89001191 26.39355469 85.31567383 C26.06355469 84.32567383 25.73355469 83.33567383 25.39355469 82.31567383 C22.09355469 82.64567383 18.79355469 82.97567383 15.39355469 83.31567383 C15.85775724 88.05053981 16.45454419 91.50584541 19.39355469 95.31567383 C24.99029025 98.91716061 33.14049104 97.98120009 39.45605469 96.75317383 C42.67916784 95.50031817 42.67916784 95.50031817 44.39355469 92.06567383 C45.43028387 88.1779394 45.60485488 86.12261729 44.39355469 82.31567383 C43.33010417 80.33537701 43.33010417 80.33537701 41.39355469 79.31567383 C38.26806451 79.06518747 38.26806451 79.06518747 35.39355469 79.31567383 Z M-14.60644531 87.31567383 C-15.92696028 89.1782692 -15.92696028 89.1782692 -15.60644531 91.31567383 C-13.13855909 94.29415721 -11.19853407 96.1521765 -7.28613281 96.55395508 C-0.51597318 96.73310972 3.5884716 95.82062966 9.39355469 92.31567383 C9.20526697 89.87087304 9.20526697 89.87087304 8.39355469 87.31567383 C2.27980914 83.18672245 -8.84249081 82.67248826 -14.60644531 87.31567383 Z " fill="#000000" transform="translate(55.6064453125,4.684326171875)"/>
<path d="M0 0 C4.37520054 3.90029425 6.19863152 9.42032991 6.6640625 15.17578125 C6.88534295 34.0478425 6.88534295 34.0478425 0.59765625 40.734375 C-6.88697079 47.61148361 -11.92796317 47.6942945 -21.9128418 47.69311523 C-23.97140658 47.69528646 -26.02942169 47.71340999 -28.08789062 47.73242188 C-38.59147644 47.7478759 -48.64326476 47.16597189 -57.12109375 40.1953125 C-61.79297585 34.45557163 -61.56185067 28.72984049 -61.18359375 21.6953125 C-61.16039063 20.84388672 -61.1371875 19.99246094 -61.11328125 19.11523438 C-60.78734987 12.42854836 -59.36906809 5.96569247 -54.81762695 0.82324219 C-41.65820264 -10.64787546 -13.71854505 -9.25655363 0 0 Z M-29.30859375 -2.4921875 C-29.30859375 -2.1621875 -29.30859375 -1.8321875 -29.30859375 -1.4921875 C-28.17421875 -1.33363281 -27.03984375 -1.17507812 -25.87109375 -1.01171875 C-8.06003378 1.66724471 -8.06003378 1.66724471 -2.37109375 9.0078125 C-0.73023091 14.41300773 -0.55048452 19.88593742 -0.30859375 25.5078125 C0.35140625 25.5078125 1.01140625 25.5078125 1.69140625 25.5078125 C3.6069845 18.57746841 3.40377199 12.05268013 0.23046875 5.5234375 C-3.31174758 0.88439277 -9.66186311 -1.49267496 -15.30859375 -2.4921875 C-17.72438435 -2.56050737 -20.14194088 -2.57706392 -22.55859375 -2.5546875 C-24.45351563 -2.54115234 -24.45351563 -2.54115234 -26.38671875 -2.52734375 C-27.3509375 -2.51574219 -28.31515625 -2.50414062 -29.30859375 -2.4921875 Z M-43.30859375 0.5078125 C-36.87359375 0.0128125 -36.87359375 0.0128125 -30.30859375 -0.4921875 C-30.30859375 -0.8221875 -30.30859375 -1.1521875 -30.30859375 -1.4921875 C-31.91238716 -1.54634938 -33.51670781 -1.58505388 -35.12109375 -1.6171875 C-36.01441406 -1.64039063 -36.90773438 -1.66359375 -37.828125 -1.6875 C-40.56262089 -1.67504577 -40.56262089 -1.67504577 -43.30859375 0.5078125 Z M-49.30859375 1.6953125 C-54.02646845 4.54569513 -55.43187564 7.22024135 -56.88525391 12.49267578 C-57.62460566 16.01205836 -57.63702376 19.48606091 -57.62109375 23.0703125 C-57.63720703 23.79927734 -57.65332031 24.52824219 -57.66992188 25.27929688 C-57.67424765 30.085231 -56.92088607 33.33314438 -54.30859375 37.5078125 C-46.31648949 44.68021376 -35.30437755 44.79110181 -25.12109375 44.8828125 C-24.19490234 44.89666992 -23.26871094 44.91052734 -22.31445312 44.92480469 C-15.42888334 44.87811453 -8.84189009 44.09377576 -3.15234375 39.9296875 C0.19494969 35.76503171 1.47221232 32.87806385 1.69140625 27.5078125 C1.03140625 27.5078125 0.37140625 27.5078125 -0.30859375 27.5078125 C-0.54642578 28.44753906 -0.54642578 28.44753906 -0.7890625 29.40625 C-2.70885737 36.13083535 -2.70885737 36.13083535 -5.49609375 37.8828125 C-6.42421875 38.0890625 -7.35234375 38.2953125 -8.30859375 38.5078125 C-9.47132812 39.00925781 -10.6340625 39.51070312 -11.83203125 40.02734375 C-16.8107591 41.91557239 -21.4745267 41.91532993 -26.74609375 41.8203125 C-28.08124023 41.82514648 -28.08124023 41.82514648 -29.44335938 41.83007812 C-44.16229042 41.7118106 -44.16229042 41.7118106 -49.74609375 36.8828125 C-55.49763045 30.18866284 -54.41642741 22.39978546 -53.98828125 14.09375 C-53.21265657 10.00166119 -51.91468924 7.7298942 -49.30859375 4.5078125 C-46.05859375 2.6328125 -46.05859375 2.6328125 -43.30859375 1.5078125 C-46.3286935 0.14378365 -46.3286935 0.14378365 -49.30859375 1.6953125 Z M-49.328125 8.13671875 C-51.84852842 12.4268729 -52.11840984 15.55216358 -51.99609375 20.4453125 C-51.98175293 21.24783447 -51.96741211 22.05035645 -51.95263672 22.87719727 C-51.76149406 27.05619282 -51.53462512 30.50691205 -48.93359375 33.9453125 C-41.89276134 39.95697451 -32.76587564 39.98796696 -23.94140625 39.80078125 C-17.57116422 39.28705205 -10.23942839 37.82229281 -5.30859375 33.5078125 C-2.40510368 26.87126378 -2.14888405 18.98694159 -4.43359375 12.1328125 C-8.15224866 6.92669563 -12.16401715 4.10426716 -18.30859375 2.5078125 C-21.41773865 2.20760932 -24.49923216 2.18297313 -27.62109375 2.1953125 C-28.82668945 2.17114258 -28.82668945 2.17114258 -30.05664062 2.14648438 C-37.01950448 2.14088271 -44.24310662 2.90858799 -49.328125 8.13671875 Z " fill="#000000" transform="translate(80.30859375,24.4921875)"/>
<path d="M0 0 C1.14017578 -0.00257812 2.28035156 -0.00515625 3.45507812 -0.0078125 C4.63134766 -0.00007813 5.80761719 0.00765625 7.01953125 0.015625 C8.20740234 0.00789063 9.39527344 0.00015625 10.61914062 -0.0078125 C12.32360352 -0.00394531 12.32360352 -0.00394531 14.0625 0 C15.61553833 0.00338379 15.61553833 0.00338379 17.19995117 0.00683594 C19.83203125 0.265625 19.83203125 0.265625 22.83203125 2.265625 C23.14453125 5.265625 23.14453125 5.265625 22.83203125 8.265625 C20.83203125 10.265625 20.83203125 10.265625 12.83203125 11.265625 C12.50203125 16.875625 12.17203125 22.485625 11.83203125 28.265625 C8.78902809 29.78712658 6.17794625 29.50461893 2.83203125 29.265625 C0.43084066 25.66383912 0.39431803 22.75696131 0.20703125 18.578125 C0.16835938 17.87623047 0.1296875 17.17433594 0.08984375 16.45117188 C-0.00420215 14.72307845 -0.08716555 12.99438825 -0.16796875 11.265625 C-0.95042969 11.20503906 -1.73289062 11.14445312 -2.5390625 11.08203125 C-3.55097656 10.99824219 -4.56289063 10.91445313 -5.60546875 10.828125 C-7.11947266 10.70630859 -7.11947266 10.70630859 -8.6640625 10.58203125 C-11.16796875 10.265625 -11.16796875 10.265625 -12.16796875 9.265625 C-12.20889812 6.93265067 -12.21038598 4.59857275 -12.16796875 2.265625 C-7.96849533 0.68606772 -4.48023083 0.00972981 0 0 Z M-9.16796875 5.265625 C-8.83796875 5.925625 -8.50796875 6.585625 -8.16796875 7.265625 C-5.81889 7.95493844 -5.81889 7.95493844 -3.10546875 8.390625 C-2.18636719 8.55820312 -1.26726563 8.72578125 -0.3203125 8.8984375 C0.74509766 9.08019531 0.74509766 9.08019531 1.83203125 9.265625 C3.53287944 14.59494932 4.35217094 19.69671983 4.83203125 25.265625 C6.15203125 25.265625 7.47203125 25.265625 8.83203125 25.265625 C8.89261719 24.12222656 8.95320313 22.97882812 9.015625 21.80078125 C9.10001553 20.30988195 9.18466427 18.81899725 9.26953125 17.328125 C9.30884766 16.57337891 9.34816406 15.81863281 9.38867188 15.04101562 C9.71875 9.37890625 9.71875 9.37890625 10.83203125 8.265625 C13.48666246 7.81102642 16.15392263 7.56319262 18.83203125 7.265625 C18.83203125 6.275625 18.83203125 5.285625 18.83203125 4.265625 C4.58954959 2.28946486 4.58954959 2.28946486 -9.16796875 5.265625 Z " fill="#000000" transform="translate(47.16796875,30.734375)"/>
</svg>
