<?xml version="1.0" encoding="UTF-8"?>
<svg version="1.1" xmlns="http://www.w3.org/2000/svg" width="110" height="110">
<path d="M0 0 C0.81870575 -0.00637985 1.6374115 -0.0127597 2.48092651 -0.01933289 C3.36523346 -0.02044571 4.24954041 -0.02155853 5.16064453 -0.02270508 C6.07999786 -0.02603348 6.9993512 -0.02936188 7.94656372 -0.03279114 C9.89845276 -0.03785833 11.85035048 -0.04019953 13.80224609 -0.04003906 C16.74738521 -0.04220248 19.69213536 -0.06029576 22.63720703 -0.0793457 C54.59298423 -0.17806888 54.59298423 -0.17806888 64.60595703 8.62963867 C65.91845703 10.14526367 65.91845703 10.14526367 67.91845703 13.14526367 C68.43053711 13.91185303 68.94261719 14.67844238 69.47021484 15.46826172 C74.06772849 23.96653163 73.23877507 35.42549054 73.17919922 44.82128906 C73.16840936 46.84169104 73.17920464 48.86121527 73.19189453 50.8815918 C73.1546182 69.79001193 73.1546182 69.79001193 67.91845703 76.14526367 C68.74345703 76.72276367 69.56845703 77.30026367 70.41845703 77.89526367 C73.24605082 80.70669978 73.39915323 83.23944081 73.54345703 87.14526367 C73.36189003 91.2506954 73.14800516 92.8076929 70.79345703 96.27026367 C64.87765055 100.12839833 59.28420972 100.53471408 52.41845703 100.58276367 C51.58958984 100.61563477 50.76072266 100.64850586 49.90673828 100.68237305 C45.59734826 100.72005452 42.76105122 100.48655036 39.32470703 97.74291992 C36.91845703 95.14526367 36.91845703 95.14526367 36.91845703 93.14526367 C36.34998047 93.56678711 35.78150391 93.98831055 35.19580078 94.42260742 C26.82205153 100.36391532 26.82205153 100.36391532 20.91845703 100.14526367 C16.46183621 98.439876 13.08705909 95.69409798 9.91845703 92.14526367 C9.39896484 92.55518555 8.87947266 92.96510742 8.34423828 93.38745117 C7.64685547 93.9262793 6.94947266 94.46510742 6.23095703 95.02026367 C5.54646484 95.55393555 4.86197266 96.08760742 4.15673828 96.63745117 C-0.7985476 99.97556697 -5.19946066 100.48489505 -11.08154297 100.45776367 C-11.78021484 100.47387695 -12.47888672 100.48999023 -13.19873047 100.5065918 C-17.67734114 100.5108169 -20.55868324 99.9518303 -24.08154297 97.14526367 C-26.72216877 92.41034845 -27.78161839 88.54584546 -27.08154297 83.14526367 C-25.28728154 80.45387153 -23.35920124 78.42292194 -21.08154297 76.14526367 C-21.88591797 75.29963867 -22.69029297 74.45401367 -23.51904297 73.58276367 C-28.43036431 68.41957969 -27.25421879 59.48752198 -27.28466797 52.82885742 C-27.29036804 51.85417007 -27.29606812 50.87948273 -27.30194092 49.8752594 C-27.31134731 47.82375155 -27.31790745 45.77222889 -27.32177734 43.72070312 C-27.33152303 40.5891707 -27.3626039 37.45828417 -27.39404297 34.3269043 C-27.40057027 32.32755921 -27.40582181 30.32820946 -27.40966797 28.32885742 C-27.42201477 27.39746445 -27.43436157 26.46607147 -27.44708252 25.50645447 C-27.4248174 18.99342079 -26.20367959 14.88350448 -22.14404297 9.64526367 C-16.12510527 4.73184514 -7.93365015 0.04211799 0 0 Z M18.91845703 3.14526367 C19.24845703 4.13526367 19.57845703 5.12526367 19.91845703 6.14526367 C20.24845703 5.15526367 20.57845703 4.16526367 20.91845703 3.14526367 C20.25845703 3.14526367 19.59845703 3.14526367 18.91845703 3.14526367 Z M12.91845703 4.14526367 C13.24845703 4.80526367 13.57845703 5.46526367 13.91845703 6.14526367 C14.24845703 5.48526367 14.57845703 4.82526367 14.91845703 4.14526367 C14.25845703 4.14526367 13.59845703 4.14526367 12.91845703 4.14526367 Z M35.91845703 4.14526367 C36.24845703 4.80526367 36.57845703 5.46526367 36.91845703 6.14526367 C37.24845703 5.48526367 37.57845703 4.82526367 37.91845703 4.14526367 C37.25845703 4.14526367 36.59845703 4.14526367 35.91845703 4.14526367 Z M-18.70654297 11.60229492 C-26.882709 20.82481554 -25.35071698 35.61061791 -24.80029297 47.11791992 C-24.65268154 49.54424216 -24.49644995 51.97005555 -24.33154297 54.39526367 C-24.25774414 55.5614624 -24.18394531 56.72766113 -24.10791016 57.92919922 C-23.55780189 65.98343649 -23.55780189 65.98343649 -20.08154297 73.14526367 C-8.67272782 80.85392255 12.77344875 78.70887121 25.96728516 79.06176758 C28.57216971 79.13546633 31.17422017 79.23627324 33.77783203 79.34448242 C44.02618717 79.67743669 56.03784048 79.08963416 64.73095703 72.89526367 C69.1265854 67.36933086 69.23374278 60.46341644 69.25439453 53.65698242 C69.26105133 52.87313675 69.26770813 52.08929108 69.27456665 51.2816925 C69.28462556 49.63378216 69.28938578 47.98583164 69.2890625 46.33789062 C69.29342828 43.84915315 69.32979723 41.36220331 69.36767578 38.8737793 C69.52875255 24.61666455 69.52875255 24.61666455 63.23852539 12.1640625 C59.55363092 8.59488926 55.88803178 7.1594626 50.91845703 6.14526367 C50.92748047 6.76272461 50.93650391 7.38018555 50.94580078 8.01635742 C50.63564521 16.87601864 46.64405712 21.51519179 40.48095703 27.52026367 C33.21457188 32.12821523 24.9447894 34.03594728 16.41845703 32.58276367 C10.63790363 31.05410594 5.26577382 28.19337359 1.57080078 23.39526367 C-1.50701663 17.77795432 -2.71618456 11.35143825 -4.08154297 5.14526367 C-9.89188352 5.14526367 -14.39034171 7.73223946 -18.70654297 11.60229492 Z M-0.08154297 5.14526367 C-0.05089147 13.34453841 1.38728164 18.95806515 6.91845703 25.14526367 C12.77806957 29.92862085 18.47254056 30.86791761 25.91845703 30.14526367 C31.82622455 28.93705859 35.80576622 27.71072779 39.91845703 23.14526367 C39.26361328 23.36182617 38.60876953 23.57838867 37.93408203 23.80151367 C29.57958252 26.35034403 20.65492144 28.26135921 12.41845703 24.39526367 C8.18234789 22.05425599 5.43523912 19.46592902 3.65283203 14.91088867 C3.16556641 13.1706543 3.16556641 13.1706543 2.66845703 11.39526367 C2.33330078 10.22479492 1.99814453 9.05432617 1.65283203 7.84838867 C1.41048828 6.95635742 1.16814453 6.06432617 0.91845703 5.14526367 C0.58845703 5.14526367 0.25845703 5.14526367 -0.08154297 5.14526367 Z M6.91845703 5.14526367 C7.91845703 7.14526367 7.91845703 7.14526367 7.91845703 7.14526367 Z M46.91845703 5.14526367 C46.27074196 7.06129524 45.62535755 8.9781148 44.98095703 10.89526367 C44.44148438 12.4962793 44.44148438 12.4962793 43.89111328 14.12963867 C43.13863584 16.46262093 42.46868459 18.75901362 41.91845703 21.14526367 C45.41688238 18.11329503 46.83827762 15.64601124 47.91845703 11.14526367 C48.08644172 7.89481658 48.08644172 7.89481658 47.91845703 5.14526367 C47.58845703 5.14526367 47.25845703 5.14526367 46.91845703 5.14526367 Z M21.91845703 6.14526367 C21.58845703 6.80526367 21.25845703 7.46526367 20.91845703 8.14526367 C22.23845703 7.48526367 23.55845703 6.82526367 24.91845703 6.14526367 C23.92845703 6.14526367 22.93845703 6.14526367 21.91845703 6.14526367 Z M8.91845703 8.14526367 C9.24845703 8.80526367 9.57845703 9.46526367 9.91845703 10.14526367 C10.24845703 9.48526367 10.57845703 8.82526367 10.91845703 8.14526367 C10.25845703 8.14526367 9.59845703 8.14526367 8.91845703 8.14526367 Z M25.91845703 8.14526367 C25.58845703 8.80526367 25.25845703 9.46526367 24.91845703 10.14526367 C25.57845703 10.14526367 26.23845703 10.14526367 26.91845703 10.14526367 C26.58845703 9.48526367 26.25845703 8.82526367 25.91845703 8.14526367 Z M35.91845703 9.14526367 C34.92845703 10.63026367 34.92845703 10.63026367 33.91845703 12.14526367 C34.90845703 11.81526367 35.89845703 11.48526367 36.91845703 11.14526367 C36.58845703 10.48526367 36.25845703 9.82526367 35.91845703 9.14526367 Z M11.91845703 10.14526367 C11.58845703 10.80526367 11.25845703 11.46526367 10.91845703 12.14526367 C11.90845703 11.81526367 12.89845703 11.48526367 13.91845703 11.14526367 C13.25845703 10.81526367 12.59845703 10.48526367 11.91845703 10.14526367 Z M30.91845703 14.14526367 C30.58845703 14.80526367 30.25845703 15.46526367 29.91845703 16.14526367 C30.90845703 15.81526367 31.89845703 15.48526367 32.91845703 15.14526367 C32.25845703 14.81526367 31.59845703 14.48526367 30.91845703 14.14526367 Z M17.91845703 15.14526367 C18.91845703 17.14526367 18.91845703 17.14526367 18.91845703 17.14526367 Z M33.91845703 16.14526367 C33.91845703 17.13526367 33.91845703 18.12526367 33.91845703 19.14526367 C34.57845703 18.15526367 35.23845703 17.16526367 35.91845703 16.14526367 C35.25845703 16.14526367 34.59845703 16.14526367 33.91845703 16.14526367 Z M8.91845703 18.14526367 C9.24845703 18.80526367 9.57845703 19.46526367 9.91845703 20.14526367 C10.57845703 19.81526367 11.23845703 19.48526367 11.91845703 19.14526367 C10.92845703 18.81526367 9.93845703 18.48526367 8.91845703 18.14526367 Z M20.91845703 18.14526367 C20.91845703 18.80526367 20.91845703 19.46526367 20.91845703 20.14526367 C21.57845703 20.14526367 22.23845703 20.14526367 22.91845703 20.14526367 C22.91845703 19.48526367 22.91845703 18.82526367 22.91845703 18.14526367 C22.25845703 18.14526367 21.59845703 18.14526367 20.91845703 18.14526367 Z M29.91845703 20.14526367 C29.91845703 23.14526367 29.91845703 23.14526367 29.91845703 23.14526367 Z M-19.33154297 80.20776367 C-22.12192639 81.94708119 -22.12192639 81.94708119 -23.64404297 84.33276367 C-24.27870731 88.41274875 -22.9648367 91.53029731 -21.08154297 95.14526367 C-17.91108093 98.31572571 -14.29174456 97.58195015 -9.97290039 97.58349609 C-2.44588527 97.37899191 2.14448048 94.84989081 7.41845703 89.70776367 C9.11235483 86.8140216 9.60958059 84.4656854 9.91845703 81.14526367 C5.95845703 80.81526367 1.99845703 80.48526367 -2.08154297 80.14526367 C-2.49404297 81.25901367 -2.90654297 82.37276367 -3.33154297 83.52026367 C-4.34812943 85.86077668 -4.86933357 86.97695967 -6.89404297 88.58276367 C-9.67728188 89.29845368 -12.22103397 89.27528681 -15.08154297 89.14526367 C-15.08154297 88.15526367 -15.08154297 87.16526367 -15.08154297 86.14526367 C-13.10154297 86.14526367 -11.12154297 86.14526367 -9.08154297 86.14526367 C-9.41154297 84.49526367 -9.74154297 82.84526367 -10.08154297 81.14526367 C-13.76311203 79.47979195 -15.42272901 78.92988218 -19.33154297 80.20776367 Z M-7.08154297 80.14526367 C-6.09154297 81.63026367 -6.09154297 81.63026367 -5.08154297 83.14526367 C-5.08154297 82.15526367 -5.08154297 81.16526367 -5.08154297 80.14526367 C-5.74154297 80.14526367 -6.40154297 80.14526367 -7.08154297 80.14526367 Z M15.91845703 82.14526367 C15.91845703 83.13526367 15.91845703 84.12526367 15.91845703 85.14526367 C17.23845703 85.47526367 18.55845703 85.80526367 19.91845703 86.14526367 C19.25845703 84.82526367 18.59845703 83.50526367 17.91845703 82.14526367 C17.25845703 82.14526367 16.59845703 82.14526367 15.91845703 82.14526367 Z M26.91845703 82.14526367 C25.92845703 83.63026367 25.92845703 83.63026367 24.91845703 85.14526367 C22.29345703 85.83276367 22.29345703 85.83276367 19.91845703 86.14526367 C19.91845703 86.47526367 19.91845703 86.80526367 19.91845703 87.14526367 C24.84643267 87.47848028 24.84643267 87.47848028 29.35595703 85.77026367 C31.14949327 84.28070867 31.14949327 84.28070867 30.91845703 82.14526367 C29.59845703 82.14526367 28.27845703 82.14526367 26.91845703 82.14526367 Z M56.91845703 81.14526367 C57.24845703 82.79526367 57.57845703 84.44526367 57.91845703 86.14526367 C59.23845703 86.14526367 60.55845703 86.14526367 61.91845703 86.14526367 C61.58845703 87.13526367 61.25845703 88.12526367 60.91845703 89.14526367 C53.46689848 88.53448018 53.46689848 88.53448018 50.98095703 86.77026367 C49.91845703 85.14526367 49.91845703 85.14526367 48.91845703 82.14526367 C44.62845703 82.14526367 40.33845703 82.14526367 35.91845703 82.14526367 C36.73265447 86.21625089 37.16694464 88.02906582 39.23095703 91.33276367 C39.63958984 92.00694336 40.04822266 92.68112305 40.46923828 93.37573242 C42.93106722 96.38168528 45.03709393 97.05549521 48.87158203 97.44604492 C59.40452478 97.50052826 59.40452478 97.50052826 68.60595703 92.78588867 C70.52140287 90.39158137 70.33245524 88.05480484 70.19580078 85.08666992 C69.78746985 82.22835338 69.21935222 80.92660188 66.91845703 79.14526367 C62.53990208 78.67613278 60.62260996 78.67582839 56.91845703 81.14526367 Z M11.91845703 85.14526367 C12.333606 89.98866828 14.38054402 91.96114196 17.91845703 95.14526367 C18.24845703 95.47526367 18.57845703 95.80526367 18.91845703 96.14526367 C25.09213956 96.62016233 28.01101822 95.37430009 32.79345703 91.70776367 C34.17902886 90.16405698 34.17902886 90.16405698 33.60595703 87.95776367 C33.37908203 87.35963867 33.15220703 86.76151367 32.91845703 86.14526367 C32.11408203 86.64026367 31.30970703 87.13526367 30.48095703 87.64526367 C26.15758245 89.46563192 22.55148702 89.98362148 17.91845703 89.14526367 C15.48095703 87.14526367 15.48095703 87.14526367 13.91845703 85.14526367 C13.25845703 85.14526367 12.59845703 85.14526367 11.91845703 85.14526367 Z " fill="#000000" transform="translate(31.08154296875,4.854736328125)"/>
<path d="M0 0 C3 1 3 1 4.1875 3.1875 C5.56704851 7.96286023 5.63467663 10.77765982 3.3125 15.25 C0.93404776 18.07842969 -0.49188148 19.02552263 -4 20 C-2.94153105 17.23169658 -1.8680636 14.78499254 -0.3125 12.25 C1.44601576 7.89558001 0.83585022 4.53171808 0 0 Z " fill="#000000" transform="translate(52,60)"/>
<path d="M0 0 C3.1488634 1.53187949 4.85505807 2.7922499 6.875 5.6875 C8.378111 10.11332682 8.13367046 12.46531817 7 17 C4.94140625 18.234375 4.94140625 18.234375 3 19 C3.01160156 18.25234375 3.02320312 17.5046875 3.03515625 16.734375 C3.04417969 15.74953125 3.05320312 14.7646875 3.0625 13.75 C3.07410156 12.77546875 3.08570312 11.8009375 3.09765625 10.796875 C3.01055042 8.30216406 2.92877276 6.31397099 2 4 C1.01 3.67 0.02 3.34 -1 3 C-0.67 2.01 -0.34 1.02 0 0 Z " fill="#000000" transform="translate(86,57)"/>
<path d="M0 0 C0.66 0 1.32 0 2 0 C2.63599265 6.10552947 2.05048762 10.30205509 -1.48828125 15.40234375 C-3.68427934 17.72317895 -5.90794617 18.42473417 -9 19 C-7.90311239 16.53200287 -6.83902766 14.8239365 -5 12.8125 C-2.65458215 9.51425614 -2.09076003 6.82073885 -1.39453125 2.890625 C-1 1 -1 1 0 0 Z " fill="#000000" transform="translate(21,58)"/>
<path d="M0 0 C0.99 0 1.98 0 3 0 C4.59760269 3.19520539 4.37477857 6.5236057 4 10 C2.65059348 13.31217963 1.5207227 15.4792773 -1 18 C-1.99 18 -2.98 18 -4 18 C-3.52757486 15.44890427 -2.96538306 13.95153629 -1.4375 11.8125 C0.57842235 7.8683041 0.25568625 4.34666621 0 0 Z " fill="#000000" transform="translate(26,59)"/>
<path d="M0 0 C0.99 0 1.98 0 3 0 C5.24089661 4.34997576 5.16045265 7.27529991 4 12 C2.0625 15.4375 2.0625 15.4375 0 18 C-0.66 18 -1.32 18 -2 18 C-1.125 13.25 -1.125 13.25 0 11 C0.07033769 9.12620395 0.0843022 7.24998898 0.0625 5.375 C0.04896484 3.87066406 0.04896484 3.87066406 0.03515625 2.3359375 C0.02355469 1.56507812 0.01195312 0.79421875 0 0 Z " fill="#000000" transform="translate(58,61)"/>
<path d="M0 0 C2.69976751 0.27928629 4.02440411 1.01882603 6.1875 2.6875 C8.43802383 5.55885799 8.85184071 7.37009749 9 11 C8.0625 13.875 8.0625 13.875 7 16 C6.01 16 5.02 16 4 16 C4.05800781 15.33613281 4.11601563 14.67226562 4.17578125 13.98828125 C4.58310864 8.88251083 4.58310864 8.88251083 2.88671875 4.22265625 C1.38431777 2.70538271 1.38431777 2.70538271 -1 1 C-0.67 0.67 -0.34 0.34 0 0 Z " fill="#000000" transform="translate(79,61)"/>
<path d="M0 0 C1.32 0 2.64 0 4 0 C3.67 1.32 3.34 2.64 3 4 C2.01 4 1.02 4 0 4 C0 2.68 0 1.36 0 0 Z " fill="#000000" transform="translate(22,14)"/>
<path d="M0 0 C1.32 0.33 2.64 0.66 4 1 C3.67 1.99 3.34 2.98 3 4 C2.01 3.67 1.02 3.34 0 3 C0 2.01 0 1.02 0 0 Z " fill="#000000" transform="translate(84,16)"/>
<path d="M0 0 C1.32 0 2.64 0 4 0 C4 0.99 4 1.98 4 3 C2.68 3 1.36 3 0 3 C0 2.01 0 1.02 0 0 Z " fill="#000000" transform="translate(68,38)"/>
<path d="M0 0 C1.32 0 2.64 0 4 0 C4 0.99 4 1.98 4 3 C2.68 3 1.36 3 0 3 C0 2.01 0 1.02 0 0 Z " fill="#000000" transform="translate(35,38)"/>
<path d="M0 0 C1.32 0.33 2.64 0.66 4 1 C3.67 1.99 3.34 2.98 3 4 C2.01 3.67 1.02 3.34 0 3 C0 2.01 0 1.02 0 0 Z " fill="#000000" transform="translate(25,28)"/>
<path d="M0 0 C0.99 0 1.98 0 3 0 C3 1.32 3 2.64 3 4 C2.01 4 1.02 4 0 4 C0 2.68 0 1.36 0 0 Z " fill="#000000" transform="translate(23,21)"/>
<path d="M0 0 C1.32 0 2.64 0 4 0 C3.67 0.99 3.34 1.98 3 3 C2.01 3 1.02 3 0 3 C0 2.01 0 1.02 0 0 Z " fill="#000000" transform="translate(52,41)"/>
<path d="M0 0 C0.99 0 1.98 0 3 0 C3 0.99 3 1.98 3 3 C2.01 3 1.02 3 0 3 C0 2.01 0 1.02 0 0 Z " fill="#000000" transform="translate(61,40)"/>
<path d="M0 0 C0.99 0 1.98 0 3 0 C3 0.99 3 1.98 3 3 C2.01 3 1.02 3 0 3 C0 2.01 0 1.02 0 0 Z " fill="#000000" transform="translate(80,28)"/>
<path d="M0 0 C0.66 0.33 1.32 0.66 2 1 C1.67 1.99 1.34 2.98 1 4 C0.34 3.67 -0.32 3.34 -1 3 C-0.67 2.01 -0.34 1.02 0 0 Z " fill="#000000" transform="translate(45,40)"/>
<path d="M0 0 C0.66 0 1.32 0 2 0 C2 0.99 2 1.98 2 3 C1.01 3 0.02 3 -1 3 C-0.67 2.01 -0.34 1.02 0 0 Z " fill="#000000" transform="translate(76,33)"/>
<path d="M0 0 C0.99 0 1.98 0 3 0 C2.67 0.99 2.34 1.98 2 3 C1.34 2.67 0.68 2.34 0 2 C0 1.34 0 0.68 0 0 Z " fill="#000000" transform="translate(31,34)"/>
<path d="M0 0 C0.66 0 1.32 0 2 0 C2 0.66 2 1.32 2 2 C1.34 2 0.68 2 0 2 C0 1.34 0 0.68 0 0 Z " fill="#000000" transform="translate(84,23)"/>
</svg>
