<?xml version="1.0" encoding="UTF-8"?>
<svg version="1.1" xmlns="http://www.w3.org/2000/svg" width="110" height="110">
<path d="M0 0 C1.24201172 -0.03287109 2.48402344 -0.06574219 3.76367188 -0.09960938 C16.34494683 -0.17218097 25.42484604 3.34398183 34.4296875 12.1171875 C35.17476563 12.88289063 35.91984375 13.64859375 36.6875 14.4375 C37.37070313 15.10007812 38.05390625 15.76265625 38.7578125 16.4453125 C47.87967564 25.87250997 47.8843405 38.79732705 48 51.25 C48.04350586 52.79397461 48.04350586 52.79397461 48.08789062 54.36914062 C48.15737203 62.81914826 46.71105966 69.89772284 41.125 76.4375 C38.6875 78.4375 38.6875 78.4375 35.6875 80.4375 C36.23019531 80.66824219 36.77289063 80.89898437 37.33203125 81.13671875 C40.6867173 82.66597203 43.23746981 83.94655798 45.75 86.6875 C47.14187119 90.77032214 46.70664217 93.22504571 45.6875 97.4375 C43.14814908 100.31630143 41.58541458 100.44682607 37.7109375 100.80078125 C36.16136764 100.80311645 34.6116701 100.78527341 33.0625 100.75 C32.25506348 100.73727051 31.44762695 100.72454102 30.61572266 100.71142578 C20.23571971 100.45886589 13.74862899 99.2143805 5.6875 92.4375 C4.6975 91.9425 4.6975 91.9425 3.6875 91.4375 C3.543125 92.55125 3.39875 93.665 3.25 94.8125 C2.6875 98.4375 2.6875 98.4375 1.6875 100.4375 C-5.84532276 101.32371444 -5.84532276 101.32371444 -9.05859375 99.3828125 C-11.11374683 97.22868604 -12.28459048 95.2571585 -12.38671875 92.2578125 C-12.125 90.0625 -12.125 90.0625 -11.3125 86.4375 C-12.3025 85.9425 -12.3025 85.9425 -13.3125 85.4375 C-13.374375 86.30375 -13.43625 87.17 -13.5 88.0625 C-14.73660577 93.19917011 -17.4396134 96.21504224 -21.83203125 99.08203125 C-26.55921207 100.92303208 -30.78300435 100.95152928 -35.8125 100.9375 C-36.73675781 100.96585937 -37.66101563 100.99421875 -38.61328125 101.0234375 C-43.12264179 101.03633982 -46.31913932 100.94203193 -49.90625 98.03125 C-53.24580727 94.43146749 -53.6603594 92.35084153 -53.59765625 87.40625 C-53.3125 85.4375 -53.3125 85.4375 -51.5625 83.0625 C-49.52894149 81.59381885 -47.61515651 80.42435279 -45.3125 79.4375 C-46.055 78.9425 -46.7975 78.4475 -47.5625 77.9375 C-52.55050767 73.40294758 -54.55754028 68.07036038 -55.3125 61.4375 C-55.67320612 48.70570111 -54.43029289 37.18484575 -49.3125 25.4375 C-48.86777344 24.39722656 -48.42304687 23.35695313 -47.96484375 22.28515625 C-44.66109516 15.42918772 -40.94171715 12.00707847 -34.3125 8.4375 C-33.41917969 7.90253906 -32.52585937 7.36757812 -31.60546875 6.81640625 C-21.18901189 0.74135378 -11.95801103 0.0553327 0 0 Z M0.6875 4.4375 C0.6875 4.7675 0.6875 5.0975 0.6875 5.4375 C2.6675 5.4375 4.6475 5.4375 6.6875 5.4375 C6.6875 5.1075 6.6875 4.7775 6.6875 4.4375 C4.7075 4.4375 2.7275 4.4375 0.6875 4.4375 Z M-27.3125 8.6875 C-28.8903125 9.31398438 -28.8903125 9.31398438 -30.5 9.953125 C-33.38130927 11.473816 -34.62582748 12.69665715 -36.3125 15.4375 C-32.71027329 14.02023047 -29.15839495 12.51860988 -25.625 10.9375 C-24.67238281 10.5146875 -23.71976563 10.091875 -22.73828125 9.65625 C-20.21120491 8.54580207 -20.21120491 8.54580207 -18.3125 6.4375 C-21.84057223 6.4375 -24.04969282 7.35998531 -27.3125 8.6875 Z M-10.3125 8.4375 C-10.3125 8.7675 -10.3125 9.0975 -10.3125 9.4375 C-5.6925 9.4375 -1.0725 9.4375 3.6875 9.4375 C3.6875 9.1075 3.6875 8.7775 3.6875 8.4375 C-0.9325 8.4375 -5.5525 8.4375 -10.3125 8.4375 Z M5.6875 9.4375 C5.6875 9.7675 5.6875 10.0975 5.6875 10.4375 C7.3375 10.4375 8.9875 10.4375 10.6875 10.4375 C10.6875 10.1075 10.6875 9.7775 10.6875 9.4375 C9.0375 9.4375 7.3875 9.4375 5.6875 9.4375 Z M22.6875 9.4375 C23.6775 10.4275 24.6675 11.4175 25.6875 12.4375 C26.3475 12.1075 27.0075 11.7775 27.6875 11.4375 C27.0275 10.7775 26.3675 10.1175 25.6875 9.4375 C24.6975 9.4375 23.7075 9.4375 22.6875 9.4375 Z M-32.59765625 16.7578125 C-39.59853317 21.47902044 -43.90594805 28.2435315 -45.625 36.5 C-45.89070311 38.47459361 -46.11521441 40.45490159 -46.3125 42.4375 C-46.42682373 43.40381348 -46.42682373 43.40381348 -46.54345703 44.38964844 C-47.63254931 53.86365115 -48.16057886 62.78957554 -43.3125 71.4375 C-32.29673403 81.63119388 -7.88537585 80.1388989 6.33203125 79.73046875 C15.49320732 79.24376202 24.56763181 77.87669287 32.6875 73.4375 C29.67401911 71.93075956 27.59763927 73.01687671 24.375 73.8125 C5.38183025 78.4470933 -18.88989526 79.24767049 -37.0078125 70.8515625 C-40.27183222 68.84889277 -41.35313686 67.12735823 -42.3125 63.4375 C-44.62565232 49.31870365 -44.24574015 37.71596603 -36.984375 25.13671875 C-31.77425583 18.07563618 -23.08643059 14.94650108 -15.3125 11.4375 C-21.69210288 9.53663528 -27.11995615 13.59291911 -32.59765625 16.7578125 Z M10.6875 10.4375 C13.74533908 12.84319331 16.91207996 14.79939615 20.3125 16.6875 C21.75496094 17.49960937 21.75496094 17.49960937 23.2265625 18.328125 C24.03867188 18.69421875 24.85078125 19.0603125 25.6875 19.4375 C26.3475 19.1075 27.0075 18.7775 27.6875 18.4375 C21.23429338 12.41830941 21.23429338 12.41830941 12.875 10.3125 C11.7921875 10.374375 11.7921875 10.374375 10.6875 10.4375 Z M-33.3125 24.4375 C-35.59414376 27.27210683 -37.31466735 29.88965059 -38.3125 33.4375 C-31.64266284 33.4101646 -27.11519173 32.46652438 -21.94140625 28.12890625 C-19.2600832 25.3447027 -17.3125 22.3749312 -17.3125 18.4375 C-16.3225 18.4375 -15.3325 18.4375 -14.3125 18.4375 C-18.13691113 27.95784261 -18.13691113 27.95784261 -22.3125 31.4375 C-22.9725 32.0975 -23.6325 32.7575 -24.3125 33.4375 C-15.83593298 33.94509685 -15.83593298 33.94509685 -8.3125 30.4375 C-4.97889372 26.31216223 -3.78907009 22.80265657 -4.3125 17.4375 C-3.3225 18.0975 -2.3325 18.7575 -1.3125 19.4375 C-3.05509681 29.03203303 -3.05509681 29.03203303 -6.3125 32.4375 C-0.73312922 32.92691849 2.7447349 32.67653362 7.2109375 29.1484375 C9.8810424 26.05450643 10.79041618 22.35903786 11.6875 18.4375 C12.6775 18.4375 13.6675 18.4375 14.6875 18.4375 C14.09401139 20.21194057 13.48727999 21.98195553 12.875 23.75 C12.53855469 24.73613281 12.20210937 25.72226562 11.85546875 26.73828125 C10.74319033 29.30879759 9.80541809 30.65941977 7.6875 32.4375 C13.35700339 33.13726399 13.35700339 33.13726399 18.5859375 31.27734375 C21.84322502 28.1710037 23.01195699 25.94367896 23.6875 21.4375 C5.70551826 11.06418859 -17.56386807 7.19518339 -33.3125 24.4375 Z M-39.75 16.72265625 C-43.38560447 20.85815634 -45.20946689 24.03263777 -46.3125 29.4375 C-44.01374907 27.29289272 -42.37362322 25.12487637 -40.75 22.4375 C-39.3093657 20.06785853 -37.85197807 17.7467171 -36.3125 15.4375 C-38.38536796 15.21533376 -38.38536796 15.21533376 -39.75 16.72265625 Z M30.6875 15.4375 C35.29396193 21.77273443 35.29396193 21.77273443 40.6875 27.4375 C40.535548 22.42308397 37.76048671 20.10395254 34.37890625 16.79296875 C32.78863994 15.22904861 32.78863994 15.22904861 30.6875 15.4375 Z M27.6875 19.4375 C28.62351246 20.85514994 29.5613792 22.27157568 30.5 23.6875 C31.28310547 24.87085938 31.28310547 24.87085938 32.08203125 26.078125 C33.55916941 28.24890711 35.10695264 30.3416509 36.6875 32.4375 C37.6775 33.9225 37.6775 33.9225 38.6875 35.4375 C38.21721495 30.50312452 36.90253461 27.85922342 33.75 24.0625 C33.03972656 23.18851563 32.32945313 22.31453125 31.59765625 21.4140625 C30.96730469 20.76179688 30.33695312 20.10953125 29.6875 19.4375 C29.0275 19.4375 28.3675 19.4375 27.6875 19.4375 Z M25.6875 25.4375 C25.0275 27.0875 24.3675 28.7375 23.6875 30.4375 C27.27077753 31.43967064 27.27077753 31.43967064 30.6875 30.4375 C29.89632096 28.43766466 29.89632096 28.43766466 28.6875 26.4375 C27.6975 26.1075 26.7075 25.7775 25.6875 25.4375 Z M40.6875 27.4375 C41.6875 29.4375 41.6875 29.4375 41.6875 29.4375 Z M-47.3125 29.4375 C-46.3125 31.4375 -46.3125 31.4375 -46.3125 31.4375 Z M41.6875 31.4375 C42.6875 35.4375 42.6875 35.4375 42.6875 35.4375 Z M17.6484375 34.47265625 C14.70730893 35.91978525 12.27813119 35.35204992 9.0625 35 C4.72456057 34.3225618 4.72456057 34.3225618 0.6875 35.4375 C-3.51395713 35.59604555 -7.21082667 35.25783467 -11.3125 34.4375 C-12.3025 34.9325 -12.3025 34.9325 -13.3125 35.4375 C-15.12291793 35.53382897 -16.93702753 35.56731533 -18.75 35.5625 C-19.71808594 35.56507812 -20.68617187 35.56765625 -21.68359375 35.5703125 C-24.3125 35.4375 -24.3125 35.4375 -27.3125 34.4375 C-30.22996271 34.56522476 -30.22996271 34.56522476 -33.375 35.0625 C-34.43847656 35.19914062 -35.50195312 35.33578125 -36.59765625 35.4765625 C-39.45976039 36.1727075 -39.45976039 36.1727075 -40.66796875 38.60546875 C-42.55945651 46.91655133 -42.29033668 57.37516559 -39.3125 65.4375 C-35.43475685 70.31595106 -29.15691604 71.17444845 -23.3125 72.4375 C-22.36632812 72.64503906 -21.42015625 72.85257813 -20.4453125 73.06640625 C-6.66218366 75.62613018 7.60378787 75.46630734 21.3125 72.625 C22.51156982 72.3772583 22.51156982 72.3772583 23.73486328 72.12451172 C27.61028373 71.22719699 30.1179753 70.4939525 32.6875 67.4375 C35.91718706 57.54885141 37.96225183 43.11905257 33.6875 33.4375 C31.43776553 33.383362 29.18765617 33.34464509 26.9375 33.3125 C25.68453125 33.28929687 24.4315625 33.26609375 23.140625 33.2421875 C19.82097871 33.1980844 19.82097871 33.1980844 17.6484375 34.47265625 Z M-49.3125 36.4375 C-50.82224035 43.52788772 -51.59557925 50.18752578 -51.3125 57.4375 C-49.2984044 54.4163566 -49.04413404 53.63089983 -48.8984375 50.20703125 C-48.85976563 49.40458984 -48.82109375 48.60214844 -48.78125 47.77539062 C-48.7503125 46.94201172 -48.719375 46.10863281 -48.6875 45.25 C-48.64882813 44.40501953 -48.61015625 43.56003906 -48.5703125 42.68945312 C-48.47613721 40.60582476 -48.39323325 38.52169247 -48.3125 36.4375 C-48.6425 36.4375 -48.9725 36.4375 -49.3125 36.4375 Z M38.6875 38.4375 C38.6373877 39.05157715 38.58727539 39.6656543 38.53564453 40.29833984 C38.30056189 43.13692277 38.05657466 45.97467666 37.8125 48.8125 C37.73386719 49.77800781 37.65523438 50.74351563 37.57421875 51.73828125 C37.0206387 58.08316025 36.07801747 64.2219722 34.6875 70.4375 C40.0093683 65.58223885 40.04482945 58.60801021 40.375 51.8125 C40.42205078 51.07515625 40.46910156 50.3378125 40.51757812 49.578125 C40.72997784 45.69225487 40.67924217 42.21059426 39.6875 38.4375 C39.3575 38.4375 39.0275 38.4375 38.6875 38.4375 Z M43.6875 45.4375 C43.55472656 46.58347656 43.42195313 47.72945312 43.28515625 48.91015625 C43.10681812 50.44010968 42.92843004 51.97005729 42.75 53.5 C42.66298828 54.25216797 42.57597656 55.00433594 42.48632812 55.77929688 C41.95286361 60.34338219 41.35763702 64.89143534 40.6875 69.4375 C44.46044121 65.66455879 44.6287144 60.07614856 44.8125 54.953125 C44.8125 51.77870244 44.77577811 48.61060757 44.6875 45.4375 C44.3575 45.4375 44.0275 45.4375 43.6875 45.4375 Z M-50.3125 61.4375 C-50.18875 62.736875 -50.065 64.03625 -49.9375 65.375 C-49.83308594 66.47134766 -49.83308594 66.47134766 -49.7265625 67.58984375 C-49.58992188 68.19957031 -49.45328125 68.80929688 -49.3125 69.4375 C-48.6525 69.7675 -47.9925 70.0975 -47.3125 70.4375 C-47.9725 67.4675 -48.6325 64.4975 -49.3125 61.4375 C-49.6425 61.4375 -49.9725 61.4375 -50.3125 61.4375 Z M38.6875 70.4375 C39.6875 72.4375 39.6875 72.4375 39.6875 72.4375 Z M-31.3125 80.4375 C-31.3125 80.7675 -31.3125 81.0975 -31.3125 81.4375 C-27.0225 81.4375 -22.7325 81.4375 -18.3125 81.4375 C-18.3125 81.1075 -18.3125 80.7775 -18.3125 80.4375 C-22.6025 80.4375 -26.8925 80.4375 -31.3125 80.4375 Z M11.6875 81.4375 C11.6875 81.7675 11.6875 82.0975 11.6875 82.4375 C13.5746875 82.499375 13.5746875 82.499375 15.5 82.5625 C16.20769531 82.58570312 16.91539063 82.60890625 17.64453125 82.6328125 C20.00109719 82.57004462 20.00109719 82.57004462 22.6875 80.4375 C18.89833746 80.32605404 15.41180357 80.74460631 11.6875 81.4375 Z M-48.875 85 C-50.61411611 87.47730136 -50.61411611 87.47730136 -50.3125 91 C-49.60021326 94.41175276 -49.60021326 94.41175276 -47.5625 96.3125 C-41.18093821 99.50328089 -33.41237792 99.22304967 -26.625 97.4375 C-21.58849757 95.60845438 -18.82014432 92.06926656 -16.3125 87.4375 C-16.3125 86.7775 -16.3125 86.1175 -16.3125 85.4375 C-22.97122702 84.73770686 -22.97122702 84.73770686 -28.75 87.375 C-29.265625 88.055625 -29.78125 88.73625 -30.3125 89.4375 C-33.06328884 90.35442961 -34.67198913 90.54636083 -37.5 90.5 C-39.3871875 90.4690625 -39.3871875 90.4690625 -41.3125 90.4375 C-41.3125 89.7775 -41.3125 89.1175 -41.3125 88.4375 C-40.3225 87.7775 -39.3325 87.1175 -38.3125 86.4375 C-38.3125 85.4475 -38.3125 84.4575 -38.3125 83.4375 C-43.88764765 82.9523501 -43.88764765 82.9523501 -48.875 85 Z M-35.3125 84.4375 C-35.6425 85.7575 -35.9725 87.0775 -36.3125 88.4375 C-34.0025 87.7775 -31.6925 87.1175 -29.3125 86.4375 C-29.6425 85.7775 -29.9725 85.1175 -30.3125 84.4375 C-31.9625 84.4375 -33.6125 84.4375 -35.3125 84.4375 Z M20.6875 85.4375 C21.0175 86.4275 21.3475 87.4175 21.6875 88.4375 C24.6575 88.9325 24.6575 88.9325 27.6875 89.4375 C27.3575 87.4575 27.0275 85.4775 26.6875 83.4375 C24.60321791 83.4375 22.58932036 84.65726601 20.6875 85.4375 Z M-6.3125 86.4375 C-8.10219026 88.86422567 -8.10219026 88.86422567 -9.3125 91.4375 C-8.2479148 94.04693058 -8.2479148 94.04693058 -6.3125 96.4375 C-3.18614791 96.85496608 -3.18614791 96.85496608 -0.3125 96.4375 C0.87595297 91.80726382 0.87595297 91.80726382 -0.5 87.5 C-2.53747081 86.10035367 -2.53747081 86.10035367 -6.3125 86.4375 Z M30.6875 84.4375 C30.483063 88.11736596 30.94184889 90.22110346 32.6875 93.4375 C22.94979508 91.63422131 22.94979508 91.63422131 18.6875 88.4375 C18.3575 87.7775 18.0275 87.1175 17.6875 86.4375 C14.0575 86.4375 10.4275 86.4375 6.6875 86.4375 C8.66850795 90.4525881 8.66850795 90.4525881 11.8125 93.0625 C12.35132812 93.46726562 12.89015625 93.87203125 13.4453125 94.2890625 C19.54141479 97.41145636 25.85716033 97.75808252 32.5625 97.6875 C33.32046875 97.69523437 34.0784375 97.70296875 34.859375 97.7109375 C39.24210348 97.85449628 39.24210348 97.85449628 42.6875 95.4375 C43.11181591 91.61865682 43.2265434 89.31344552 41.1875 86 C37.55103539 83.72720962 34.92967465 84.15468836 30.6875 84.4375 Z " fill="#000000" transform="translate(58.3125,3.5625)"/>
<path d="M0 0 C2.57134426 2.00125408 4.43241355 4.14178584 6 7 C6.0625 10.8125 6.0625 10.8125 5 14 C0.94502709 16.70331527 -2.2466671 16.41695903 -7 16 C-10 15.125 -10 15.125 -12 14 C-13.44430855 11.11138291 -13.37688506 9.20352299 -13 6 C-9.38358269 1.60165462 -5.84097037 -1.08669216 0 0 Z " fill="#000000" transform="translate(59,58)"/>
<path d="M0 0 C2.6875 1.625 2.6875 1.625 4 4 C4.5625 7 4.5625 7 4 10 C1.85293133 12.63189063 0.19371254 13.7690285 -3.16015625 14.41796875 C-7.46096517 14.68362807 -9.48998875 14.34680765 -13.125 11.875 C-15 9 -15 9 -15 5.875 C-12.44299154 -1.47639933 -6.91307774 -0.92105377 0 0 Z " fill="#000000" transform="translate(76,43)"/>
<path d="M0 0 C2.390625 0.484375 2.390625 0.484375 5.078125 3.171875 C6.390625 6.484375 6.390625 6.484375 6.453125 9.171875 C4.98293965 12.37169016 3.63317215 13.14506205 0.390625 14.484375 C-3.73515221 15.00009715 -5.90928156 14.849007 -9.609375 12.921875 C-11.609375 10.484375 -11.609375 10.484375 -11.609375 6.921875 C-9.67361383 0.26769598 -6.48446895 -0.18960436 0 0 Z " fill="#000000" transform="translate(45.609375,42.515625)"/>
</svg>
