<?xml version="1.0" encoding="UTF-8"?>
<svg version="1.1" xmlns="http://www.w3.org/2000/svg" width="110" height="110">
<path d="M0 0 C0.60328125 0.3609375 1.2065625 0.721875 1.828125 1.09375 C9.9527626 6.8029548 14.98441649 19.59066626 17 29 C17.36958346 32.9618034 17.46076593 36.89764627 17.5 40.875 C17.54125 41.91269531 17.5825 42.95039062 17.625 44.01953125 C17.70148703 51.60130818 16.02057835 56.28786694 11 62 C8.125 64.5625 8.125 64.5625 6 66 C6.81404297 66.47179687 6.81404297 66.47179687 7.64453125 66.953125 C15.5164985 71.66212163 15.5164985 71.66212163 17 75 C17.57306164 78.13706939 17.69719191 80.87658024 17 84 C14.17530359 87.80282753 9.55678613 90.43780037 4.95703125 91.44921875 C-3.89650412 92.4329449 -10.46128934 91.97234108 -18 87 C-18.5775 87.639375 -19.155 88.27875 -19.75 88.9375 C-23.32697507 92.21639382 -26.70289003 92.15466637 -31.4375 92.1875 C-32.36433594 92.20167969 -33.29117188 92.21585937 -34.24609375 92.23046875 C-37.97480429 91.91842063 -40.85008085 90.94457645 -43.75 88.5625 C-45 87 -45 87 -46 84 C-46.37769531 84.40992187 -46.75539062 84.81984375 -47.14453125 85.2421875 C-52.19568923 90.18688079 -56.97763097 91.71061666 -64 92 C-70.29849634 91.54752182 -75.12489258 90.02196362 -80 86 C-82.7020964 81.94685541 -82.52827017 78.7544315 -82 74 C-80.15794757 69.39486893 -77.18574325 67.51144595 -73 65 C-73.72316406 64.23816406 -73.72316406 64.23816406 -74.4609375 63.4609375 C-82.96600105 54.19215396 -83.19526441 44.72371266 -83.3125 32.625 C-83.34150391 31.635 -83.37050781 30.645 -83.40039062 29.625 C-83.47358112 21.08986233 -81.31089087 14.47696963 -76.0625 7.6875 C-75.59972656 7.07261719 -75.13695313 6.45773438 -74.66015625 5.82421875 C-66.11178302 -3.56893489 -53.3785518 -7.8556312 -41.02734375 -8.90234375 C-26.64302371 -9.36635407 -12.24428552 -8.16285702 0 0 Z M-72.1875 8.5 C-78.46715614 15.42043738 -79.57433596 21.94496495 -80 31 C-80.05285156 31.71929687 -80.10570313 32.43859375 -80.16015625 33.1796875 C-80.49888028 40.9850674 -79.70681311 52.32673912 -74.75 58.625 C-73.38875 59.800625 -73.38875 59.800625 -72 61 C-71.31357422 61.70189453 -71.31357422 61.70189453 -70.61328125 62.41796875 C-65.02007658 67.44762635 -58.1297643 66.91950507 -51 67 C-50.1145752 67.01901367 -49.22915039 67.03802734 -48.31689453 67.05761719 C-36.25512255 67.30480956 -24.28084312 67.04800353 -12.25 66.125 C-11.19707764 66.04660889 -10.14415527 65.96821777 -9.05932617 65.88745117 C-8.07552979 65.80342041 -7.0917334 65.71938965 -6.078125 65.6328125 C-4.78503418 65.52283936 -4.78503418 65.52283936 -3.46582031 65.41064453 C0.4020158 64.76651578 3.21187891 63.78812109 6 61 C6.495 60.54625 6.99 60.0925 7.5 59.625 C14.00853755 52.57408432 12.96289427 40.96591643 13 32 C12.32736342 21.9612164 7.84906082 11.2920074 0.359375 4.515625 C-19.06885406 -11.43763626 -54.39472184 -8.34267836 -72.1875 8.5 Z M-75 70 C-77.85492717 72.63531739 -78.86089108 74.16534651 -79.5 78 C-78.86089108 81.83465349 -77.85492717 83.36468261 -75 86 C-68.56656412 88.70204307 -61.48954719 89.02633741 -54.8125 87.0625 C-50.67031831 84.02490009 -47.60004004 80.43137258 -45 76 C-44.40650804 72.61663715 -44.40650804 72.61663715 -45 70 C-48.63 70 -52.26 70 -56 70 C-56 73.3 -56 76.6 -56 80 C-58.82716095 80.94238698 -60.63176123 81.13465647 -63.5625 81.125 C-64.34753906 81.12757812 -65.13257813 81.13015625 -65.94140625 81.1328125 C-68 81 -68 81 -70 80 C-69.67 79.34 -69.34 78.68 -69 78 C-68.34 78.33 -67.68 78.66 -67 79 C-63.5 79.25 -63.5 79.25 -60 79 C-59.34 78.34 -58.68 77.68 -58 77 C-57.93453102 74.48952515 -57.93453102 74.48952515 -59 72 C-64.61662799 67.74957882 -68.43587362 67.42123606 -75 70 Z M-36 71 C-37.15165877 76.38028331 -37.15165877 76.38028331 -35.875 81.5 C-33.46077366 83.43138108 -32.01510598 83.3259574 -29 83 C-27.02612187 78.23947038 -26.9929762 75.03511899 -28 70 C-31.04386724 69.91773332 -33.07175348 70.02391783 -36 71 Z M-19 71 C-18.59493378 76.69118036 -18.17361342 81.76805354 -13.6875 85.6875 C-8.18940356 89.14258792 -2.25379551 88.93456471 4 88 C7.92932995 86.69625919 11.04315059 84.95684941 14 82 C13.85489491 78.08216245 13.58063089 75.73546579 11.125 72.625 C7.36216789 69.74754015 3.7906474 69.6769014 -0.76953125 69.69921875 C-4.01682598 70.13712014 -5.76594238 71.69387601 -8 74 C-7.67 75.65 -7.34 77.3 -7 79 C-1.87160006 80.81975482 2.17684382 78.8599099 7 77 C6.67 78.32 6.34 79.64 6 81 C3.9211618 81.30341425 1.836427 81.5666325 -0.25 81.8125 C-1.41015625 81.96332031 -2.5703125 82.11414063 -3.765625 82.26953125 C-7 82 -7 82 -9.43359375 79.6796875 C-11 77 -11 77 -10.8125 74.3125 C-10 72 -10 72 -9 70 C-12.50935186 70 -15.56484998 70.37542727 -19 71 Z M-42 71 C-43.33861353 79.21828492 -43.33861353 79.21828492 -41 87 C-37.16437117 89.41096669 -33.43578997 89.31128351 -29 89 C-25.51870145 88.0804117 -23.54972745 87.54972745 -21 85 C-20.75756969 80.15139376 -21.04501582 75.7749209 -22 71 C-22.66 71 -23.32 71 -24 71 C-24.12117188 71.84304687 -24.24234375 72.68609375 -24.3671875 73.5546875 C-24.53476562 74.65039062 -24.70234375 75.74609375 -24.875 76.875 C-25.03742187 77.96554688 -25.19984375 79.05609375 -25.3671875 80.1796875 C-26 83 -26 83 -28 85 C-33.68348624 85.5412844 -33.68348624 85.5412844 -36 85 C-38.88799035 82.13838399 -39.42552656 79.73199624 -39.6875 75.75 C-39.75324219 74.85796875 -39.81898437 73.9659375 -39.88671875 73.046875 C-39.92410156 72.37140625 -39.96148437 71.6959375 -40 71 C-40.66 71 -41.32 71 -42 71 Z " fill="#000000" transform="translate(87,14)"/>
<path d="M0 0 C10.47726051 -0.75153345 22.68356319 3.38843974 30.91796875 9.8359375 C35.22028451 14.44454395 38.58481339 19.53280135 40.83984375 25.42578125 C41.25234375 26.49828125 41.66484375 27.57078125 42.08984375 28.67578125 C44.16671378 39.06013142 43.3983211 50.23291486 37.83984375 59.42578125 C33.22023844 65.12980095 26.59520145 65.49290534 19.69091797 66.234375 C6.04450804 67.15052377 -7.94584221 65.90610423 -21.53515625 64.55078125 C-22.23503662 64.48479736 -22.93491699 64.41881348 -23.65600586 64.35083008 C-28.71653241 63.75920932 -33.18065308 62.55264197 -36.734375 58.734375 C-43.21410251 47.84388561 -44.14864724 37.79578601 -42.16015625 25.42578125 C-40.20356619 17.81094428 -35.41313458 11.5565588 -29.1171875 6.921875 C-20.26460615 1.81754668 -9.91801316 1.33629596 0 0 Z M-31.91015625 14.30078125 C-35.3585301 18.43201357 -35.3585301 18.43201357 -37.16015625 23.42578125 C-36.75146373 25.74327247 -36.75146373 25.74327247 -35.16015625 27.42578125 C-32.60495704 28.23749353 -32.60495704 28.23749353 -30.16015625 28.42578125 C-29.86882813 27.92949219 -29.5775 27.43320312 -29.27734375 26.921875 C-24.26742903 18.61928047 -19.38026577 11.64735341 -9.72265625 8.67578125 C3.59294067 7.37669862 17.22980487 9.90762701 27.83984375 18.42578125 C32.59284414 23.28908334 33.325038 28.7493937 33.46484375 35.36328125 C33.36798339 42.18637873 32.17544617 48.01195309 27.83984375 53.42578125 C24.26179324 55.96023369 21.23354558 57.15806489 16.83984375 56.42578125 C13.37953542 51.23531876 13.20180024 46.50106509 13.83984375 40.42578125 C15.55126461 34.74648017 19.21921119 32.11741761 24.23046875 29.2734375 C25.02710937 28.85384766 25.02710937 28.85384766 25.83984375 28.42578125 C25.89408763 25.27963594 25.90808723 23.32306599 24.83984375 20.42578125 C19.69592687 15.54701472 13.07537736 12.43194844 6.02734375 11.80078125 C5.23714844 11.72601562 4.44695313 11.65125 3.6328125 11.57421875 C3.04113281 11.52523438 2.44945312 11.47625 1.83984375 11.42578125 C1.73027344 12.30621094 1.62070312 13.18664063 1.5078125 14.09375 C1.26998047 15.83591797 1.26998047 15.83591797 1.02734375 17.61328125 C0.87652344 18.76183594 0.72570313 19.91039062 0.5703125 21.09375 C-0.72574879 27.00573012 -3.8343901 30.33384029 -8.16015625 34.42578125 C-7.02710633 37.824931 -6.0349715 38.47832576 -3.16015625 40.42578125 C-3.50046875 42.03453125 -3.50046875 42.03453125 -3.84765625 43.67578125 C-4.5179145 47.35556701 -4.5179145 47.35556701 -2.72265625 49.86328125 C-2.20703125 50.37890625 -1.69140625 50.89453125 -1.16015625 51.42578125 C-3.03515625 51.11328125 -3.03515625 51.11328125 -5.16015625 50.42578125 C-7.16015625 47.42578125 -7.16015625 47.42578125 -7.09765625 43.98828125 C-6.80912529 40.46793886 -6.80912529 40.46793886 -8.72265625 38.36328125 C-10.16015625 36.42578125 -10.16015625 36.42578125 -10.22265625 33.42578125 C-8.81162984 29.44170669 -6.66615304 28.64386085 -3.16015625 26.42578125 C-0.26115705 21.94550975 -0.98024031 16.57337623 -1.16015625 11.42578125 C-2.74425619 11.54065873 -4.32744588 11.66812633 -5.91015625 11.80078125 C-6.791875 11.87039062 -7.67359375 11.94 -8.58203125 12.01171875 C-11.15082007 12.4242818 -12.9185664 13.13739082 -15.16015625 14.42578125 C-14.83015625 15.10640625 -14.50015625 15.78703125 -14.16015625 16.48828125 C-12.54350066 21.23720705 -12.76317548 24.99665048 -14.09765625 29.80078125 C-16.4510409 32.79599808 -17.04628074 32.9204263 -20.66015625 33.42578125 C-24.29182985 33.71631514 -24.9689829 33.55323015 -28.16015625 31.42578125 C-28.92328125 31.44640625 -29.68640625 31.46703125 -30.47265625 31.48828125 C-33.94872262 31.4074425 -36.15888292 30.10091055 -39.16015625 28.42578125 C-39.4525734 38.93655326 -39.62827866 48.68507529 -33.16015625 57.42578125 C-20.75918417 64.72047071 -0.45140161 62.49587931 13.52734375 62.61328125 C14.32760986 62.62625244 15.12787598 62.63922363 15.95239258 62.65258789 C22.17959681 62.66234738 29.00715462 62.43848142 34.21484375 58.73828125 C39.98945503 50.5205652 40.31968717 41.11616851 38.83984375 31.42578125 C36.59917861 23.48008094 31.85738072 14.9808007 24.83984375 10.42578125 C8.26291142 2.43108351 -18.21544707 -0.6261717 -31.91015625 14.30078125 Z M23.83984375 48.42578125 C24.16984375 49.08578125 24.49984375 49.74578125 24.83984375 50.42578125 C25.49984375 49.76578125 26.15984375 49.10578125 26.83984375 48.42578125 C25.84984375 48.42578125 24.85984375 48.42578125 23.83984375 48.42578125 Z " fill="#000000" transform="translate(54.16015625,11.57421875)"/>
<path d="" fill="#000000" transform="translate(0,0)"/>
<path d="" fill="#000000" transform="translate(0,0)"/>
</svg>
