<?xml version="1.0" encoding="UTF-8"?>
<svg version="1.1" xmlns="http://www.w3.org/2000/svg" width="110" height="110">
<path d="M0 0 C0.81863022 -0.0159874 1.63726044 -0.03197479 2.48069763 -0.04844666 C3.79941612 -0.05649071 3.79941612 -0.05649071 5.14477539 -0.06469727 C6.52168297 -0.07823997 6.52168297 -0.07823997 7.92640686 -0.09205627 C9.87229152 -0.10655957 11.81822496 -0.11544571 13.76416016 -0.11914062 C16.7011503 -0.1309377 19.63596915 -0.180036 22.57250977 -0.23071289 C33.41078302 -0.32318215 42.00860198 0.25212478 51.80493164 5.30639648 C52.91868164 5.84264648 54.03243164 6.37889648 55.17993164 6.93139648 C62.04611346 13.14365623 65.46286854 20.27476243 65.98193359 29.42749023 C66.62057619 63.99052219 66.62057619 63.99052219 59.28540039 72.08764648 C56.80493164 74.30639648 56.80493164 74.30639648 54.80493164 75.30639648 C55.73305664 75.69827148 56.66118164 76.09014648 57.61743164 76.49389648 C61.17484803 78.5167411 62.29787965 79.5387665 63.80493164 83.30639648 C64.46986977 87.35348905 64.26769876 90.33678918 62.49243164 94.05639648 C57.5387065 98.20370126 51.07782654 100.43540351 44.61743164 100.80639648 C38.9566346 100.06399687 34.53180021 98.42320312 30.86743164 93.93139648 C29.70168458 91.05131552 29.16314728 88.38705098 28.80493164 85.30639648 C28.62317383 85.97026367 28.44141602 86.63413086 28.25415039 87.31811523 C25.28798551 97.73772007 25.28798551 97.73772007 22.80493164 100.30639648 C17.53328839 101.30619089 14.56086866 100.51625957 9.99243164 97.74389648 C5.83501326 94.7405201 4.26488475 92.17290684 2.80493164 87.30639648 C2.45881836 88.10303711 2.45881836 88.10303711 2.10571289 88.91577148 C-0.35319146 94.24177774 -2.8015277 97.60962615 -8.19506836 100.30639648 C-25.52016498 101.41999973 -25.52016498 101.41999973 -32.19506836 97.30639648 C-34.84415433 93.95608187 -35.4277957 91.34721594 -35.19506836 87.18139648 C-34.6479472 84.06518464 -34.22840095 83.34158088 -31.94506836 80.93139648 C-29.40250013 79.4289698 -26.98565078 78.2631676 -24.19506836 77.30639648 C-24.73776367 76.87069336 -25.28045898 76.43499023 -25.83959961 75.98608398 C-26.5550293 75.39053711 -27.27045898 74.79499023 -28.00756836 74.18139648 C-28.71526367 73.60131836 -29.42295898 73.02124023 -30.15209961 72.42358398 C-34.30247157 68.12243369 -35.57482875 63.90287802 -35.52319336 58.01733398 C-35.51803711 56.8275293 -35.51288086 55.63772461 -35.50756836 54.41186523 C-35.48694336 53.18081055 -35.46631836 51.94975586 -35.44506836 50.68139648 C-35.43991211 49.47354492 -35.43475586 48.26569336 -35.42944336 47.02124023 C-35.23555348 24.5057777 -35.23555348 24.5057777 -31.44506836 18.86889648 C-30.95522461 18.10706055 -30.46538086 17.34522461 -29.96069336 16.56030273 C-25.765111 11.20443765 -21.77082006 8.26854496 -15.63256836 5.61889648 C-14.31864301 5.03193276 -13.00483742 4.44470086 -11.69116211 3.85717773 C-9.9605957 3.08954102 -9.9605957 3.08954102 -8.19506836 2.30639648 C-7.54948471 1.95073105 -6.90390106 1.59506561 -6.23875427 1.22862244 C-3.9919109 0.21472042 -2.45315185 0.0364643 0 0 Z M18.7097168 3.32275391 C3.91411205 3.48516286 -11.77035906 4.09104731 -23.42553711 14.43139648 C-29.32397093 20.68139258 -30.85667517 25.8348979 -31.19506836 34.30639648 C-31.3801412 36.63992359 -31.56777865 38.97324828 -31.75756836 41.30639648 C-32.97410596 55.58985529 -32.97410596 55.58985529 -28.69506836 68.99389648 C-19.99614081 77.04040447 -9.46599633 77.56828176 1.80493164 78.30639648 C2.73160645 78.37342773 3.65828125 78.44045898 4.61303711 78.50952148 C22.22761412 79.74044103 40.1130667 80.72465814 55.49633789 70.52124023 C61.93910088 64.34011229 62.51092985 52.83244845 62.80493164 44.30639648 C62.84489258 43.4981543 62.88485352 42.68991211 62.92602539 41.85717773 C63.22723961 30.85399937 62.21894435 20.85104614 54.80493164 12.30639648 C47.1810843 4.47649922 33.85986423 3.52155328 23.46508789 3.24389648 C21.88018364 3.28113359 20.29501012 3.31037746 18.7097168 3.32275391 Z M49.80493164 79.30639648 C48.74141489 82.69031341 48.59050182 83.88685989 50.24243164 87.11889648 C50.75805664 87.84077148 51.27368164 88.56264648 51.80493164 89.30639648 C50.34477873 89.02398008 48.88683371 88.73013035 47.42993164 88.43139648 C46.61782227 88.26897461 45.80571289 88.10655273 44.96899414 87.93920898 C42.80493164 87.30639648 42.80493164 87.30639648 40.80493164 85.30639648 C40.17993164 82.68139648 40.17993164 82.68139648 39.80493164 80.30639648 C37.16493164 80.96639648 34.52493164 81.62639648 31.80493164 82.30639648 C32.48772246 86.98402318 33.17737101 90.46964898 36.05493164 94.30639648 C39.34036163 96.69580011 40.73253718 97.30639648 44.80493164 97.30639648 C50.16561188 96.40637064 54.56362419 95.20695287 58.99243164 91.99389648 C61.19997196 88.72064705 61.54593428 87.17607694 60.80493164 83.30639648 C59.36831853 80.78632804 59.36831853 80.78632804 56.80493164 79.30639648 C53.13741034 78.97221719 53.13741034 78.97221719 49.80493164 79.30639648 Z M-13.19506836 80.30639648 C-13.52506836 82.28639648 -13.85506836 84.26639648 -14.19506836 86.30639648 C-12.17884506 85.59076383 -12.17884506 85.59076383 -10.19506836 84.30639648 C-9.38977946 82.25638778 -9.38977946 82.25638778 -9.19506836 80.30639648 C-10.51506836 80.30639648 -11.83506836 80.30639648 -13.19506836 80.30639648 Z M42.80493164 80.30639648 C43.13493164 81.95639648 43.46493164 83.60639648 43.80493164 85.30639648 C44.46493164 84.97639648 45.12493164 84.64639648 45.80493164 84.30639648 C45.47493164 82.98639648 45.14493164 81.66639648 44.80493164 80.30639648 C44.14493164 80.30639648 43.48493164 80.30639648 42.80493164 80.30639648 Z M-29.32006836 82.86889648 C-31.48939533 85.2740662 -31.48939533 85.2740662 -31.69506836 88.86889648 C-31.15844914 92.5581536 -31.01586872 93.13934385 -28.19506836 95.30639648 C-21.95651173 97.75123624 -15.63203239 99.18679309 -9.10522461 97.22045898 C-5.62353967 95.55437662 -4.11647202 93.60880902 -2.19506836 90.30639648 C-1.54306944 87.30131878 -1.27013477 84.37729504 -1.19506836 81.30639648 C-3.17506836 81.30639648 -5.15506836 81.30639648 -7.19506836 81.30639648 C-7.48381836 82.09014648 -7.77256836 82.87389648 -8.07006836 83.68139648 C-9.19506836 86.30639648 -9.19506836 86.30639648 -11.19506836 88.30639648 C-13.35913086 88.50170898 -13.35913086 88.50170898 -15.82006836 88.43139648 C-16.63733398 88.41334961 -17.45459961 88.39530273 -18.29663086 88.37670898 C-18.92311523 88.35350586 -19.54959961 88.33030273 -20.19506836 88.30639648 C-18.87506836 85.99639648 -17.55506836 83.68639648 -16.19506836 81.30639648 C-22.97212501 80.8199749 -22.97212501 80.8199749 -29.32006836 82.86889648 Z M1.80493164 81.30639648 C2.80493164 84.30639648 2.80493164 84.30639648 2.80493164 84.30639648 Z M6.80493164 82.30639648 C5.44686839 86.17323287 5.44686839 86.17323287 6.86743164 89.30639648 C9.13662603 92.81998779 11.10580783 94.3828521 14.80493164 96.30639648 C17.39229869 97.05724755 17.39229869 97.05724755 19.80493164 96.30639648 C23.21172995 93.37276461 24.06377281 90.81882281 24.55493164 86.49389648 C24.63743164 85.11202148 24.71993164 83.73014648 24.80493164 82.30639648 C18.86493164 82.30639648 12.92493164 82.30639648 6.80493164 82.30639648 Z " fill="#000000" transform="translate(38.195068359375,4.693603515625)"/>
<path d="M0 0 C4.74765032 4.54774925 7.84970072 8.62273944 8.5625 15.26171875 C8.66343744 24.13411968 8.31137063 33.13524857 2.4609375 40.29296875 C0.47927297 42.13029944 -1.5208416 43.64359632 -3.7734375 45.1328125 C-4.34578125 45.54144531 -4.918125 45.95007813 -5.5078125 46.37109375 C-17.99769022 53.97002378 -36.70511685 51.5495839 -50.1484375 48.5078125 C-56.62882474 46.85907033 -61.85137509 44.75730859 -65.7734375 39.1328125 C-69.34549552 32.15539249 -68.92470714 25.67774029 -67.7734375 18.1328125 C-67.6703125 17.10414062 -67.5671875 16.07546875 -67.4609375 15.015625 C-66.78323878 9.35401691 -65.99775345 4.76399058 -61.84375 0.66015625 C-44.61047775 -12.05344649 -16.69286295 -13.86540734 0 0 Z M-36.7734375 -4.8671875 C-36.7734375 -4.5371875 -36.7734375 -4.2071875 -36.7734375 -3.8671875 C-33.69065894 -3.6696998 -30.607209 -3.48595418 -27.5234375 -3.3046875 C-26.65074219 -3.24861328 -25.77804688 -3.19253906 -24.87890625 -3.13476562 C-24.03457031 -3.08642578 -23.19023438 -3.03808594 -22.3203125 -2.98828125 C-21.15773926 -2.91758423 -21.15773926 -2.91758423 -19.97167969 -2.84545898 C-17.74231165 -2.86749516 -15.90445183 -3.2367978 -13.7734375 -3.8671875 C-21.46400821 -6.53534469 -28.82799058 -5.63276442 -36.7734375 -4.8671875 Z M-44.7734375 -3.8671875 C-44.7734375 -3.5371875 -44.7734375 -3.2071875 -44.7734375 -2.8671875 C-43.1234375 -2.8671875 -41.4734375 -2.8671875 -39.7734375 -2.8671875 C-39.7734375 -3.1971875 -39.7734375 -3.5271875 -39.7734375 -3.8671875 C-41.4234375 -3.8671875 -43.0734375 -3.8671875 -44.7734375 -3.8671875 Z M-60.2734375 3.7578125 C-63.82077739 7.55993371 -63.7537401 12.14936996 -63.7734375 17.1328125 C-62.95101562 17.184375 -62.12859375 17.2359375 -61.28125 17.2890625 C-53.29864185 18.10022822 -48.71755786 19.91670193 -42.796875 25.35546875 C-37.49998547 30.00814199 -28.02540414 29.36978516 -21.3203125 28.99609375 C-16.19647124 28.05806769 -13.82839326 25.34216176 -10.4921875 21.6875 C-6.56475601 18.13495969 -0.7652248 19.01106159 4.2265625 19.1328125 C4.2008887 12.75287338 3.617447 8.32363345 -0.953125 3.67578125 C-3.96857905 1.11976333 -7.09464866 -1.36115881 -10.7734375 -2.8671875 C-11.7634375 -2.5371875 -12.7534375 -2.2071875 -13.7734375 -1.8671875 C-13.1134375 -1.5371875 -12.4534375 -1.2071875 -11.7734375 -0.8671875 C-9.7734375 1.1328125 -9.7734375 1.1328125 -9.3984375 4.9453125 C-9.60150875 8.61413314 -10.14641991 11.79742645 -11.7734375 15.1328125 C-16.56185412 16.9035152 -21.99650424 16.31715884 -27.0234375 16.3203125 C-28.54130859 16.33868164 -28.54130859 16.33868164 -30.08984375 16.35742188 C-35.99880767 16.36891791 -41.14850832 16.00562878 -46.7734375 14.1328125 C-49.14255774 11.46755223 -49.67889741 9.68823554 -50.2734375 6.1953125 C-49.57729399 1.93143351 -47.72810031 0.23520845 -44.7734375 -2.8671875 C-50.48461957 -2.8671875 -55.96602896 0.08660716 -60.2734375 3.7578125 Z M-45.7734375 2.1328125 C-45.7734375 2.4628125 -45.7734375 2.7928125 -45.7734375 3.1328125 C-41.4834375 3.1328125 -37.1934375 3.1328125 -32.7734375 3.1328125 C-32.7734375 1.8128125 -32.7734375 0.4928125 -32.7734375 -0.8671875 C-38.03396787 -1.18281932 -41.21917566 -0.53309687 -45.7734375 2.1328125 Z M-29.7734375 -0.8671875 C-28.7734375 3.1328125 -28.7734375 3.1328125 -28.7734375 3.1328125 Z M-25.7734375 -0.8671875 C-25.7734375 0.4528125 -25.7734375 1.7728125 -25.7734375 3.1328125 C-21.4834375 3.4628125 -17.1934375 3.7928125 -12.7734375 4.1328125 C-13.1034375 3.1428125 -13.4334375 2.1528125 -13.7734375 1.1328125 C-16.20731503 -0.08412626 -18.19182596 -0.18678646 -20.8984375 -0.4296875 C-21.80851562 -0.51347656 -22.71859375 -0.59726562 -23.65625 -0.68359375 C-24.35492188 -0.74417969 -25.05359375 -0.80476563 -25.7734375 -0.8671875 Z M-47.7734375 6.1328125 C-46.52366994 9.78597921 -46.10244997 10.91347086 -42.7734375 13.1328125 C-37.56867249 14.14018637 -32.43060674 14.34548268 -27.1484375 14.3828125 C-26.04242188 14.41375 -26.04242188 14.41375 -24.9140625 14.4453125 C-20.34390204 14.47807351 -17.38225045 14.00598281 -13.7734375 11.1328125 C-12.80466693 9.10037702 -12.80466693 9.10037702 -12.7734375 7.1328125 C-13.91931851 5.75964162 -13.91931851 5.75964162 -17.00805664 6.01928711 C-18.44157876 6.01944619 -19.87510662 6.02513843 -21.30859375 6.03515625 C-22.06184433 6.0365712 -22.81509491 6.03798615 -23.59117126 6.03944397 C-26.0061331 6.04505874 -28.42100351 6.05761367 -30.8359375 6.0703125 C-32.46939971 6.0753256 -34.10286336 6.07988884 -35.73632812 6.08398438 C-39.74873335 6.09503296 -43.76106991 6.11230744 -47.7734375 6.1328125 Z M-64.7734375 20.1328125 C-64.7734375 20.4628125 -64.7734375 20.7928125 -64.7734375 21.1328125 C-61.8034375 21.1328125 -58.8334375 21.1328125 -55.7734375 21.1328125 C-55.7734375 20.8028125 -55.7734375 20.4728125 -55.7734375 20.1328125 C-58.7434375 20.1328125 -61.7134375 20.1328125 -64.7734375 20.1328125 Z M-52.7734375 22.1328125 C-46.86150921 29.78354322 -41.81644548 32.47710821 -32.1875 33.8359375 C-30.99253906 33.98289062 -30.99253906 33.98289062 -29.7734375 34.1328125 C-28.87207626 38.45783155 -28.29370116 42.74773309 -27.7734375 47.1328125 C-27.4434375 47.1328125 -27.1134375 47.1328125 -26.7734375 47.1328125 C-26.4434375 42.8428125 -26.1134375 38.5528125 -25.7734375 34.1328125 C-24.2884375 34.1121875 -22.8034375 34.0915625 -21.2734375 34.0703125 C-15.86618245 33.56410139 -13.23664153 31.59601653 -9.46484375 27.82421875 C-6.46107965 24.82045465 -4.21345492 23.86672706 -0.0859375 23.5078125 C0.72230469 23.43304688 1.53054687 23.35828125 2.36328125 23.28125 C3.28560547 23.20777344 3.28560547 23.20777344 4.2265625 23.1328125 C4.2265625 22.8028125 4.2265625 22.4728125 4.2265625 22.1328125 C0.17061986 21.78349687 -3.72838197 21.60589079 -7.7734375 22.1328125 C-10.53364182 24.89504739 -10.53364182 24.89504739 -12.7734375 28.1328125 C-18.74073759 31.41723372 -25.12498467 31.67026228 -31.7734375 31.1328125 C-32.69640625 31.06320313 -33.619375 30.99359375 -34.5703125 30.921875 C-41.04654259 30.11681877 -44.64149869 28.25266701 -49.21484375 23.59375 C-50.66059435 21.9048524 -50.66059435 21.9048524 -52.7734375 22.1328125 Z M-63.7734375 24.1328125 C-65.2555831 29.52243285 -64.44238535 33.34711291 -61.7734375 38.1328125 C-56.736661 43.04044089 -51.63132126 44.54368742 -44.8359375 45.7578125 C-44.13275391 45.891875 -43.42957031 46.0259375 -42.70507812 46.1640625 C-38.94500364 46.85476034 -35.62684992 47.1328125 -31.7734375 47.1328125 C-31.7734375 43.5028125 -31.7734375 39.8728125 -31.7734375 36.1328125 C-32.69125 36.0090625 -33.6090625 35.8853125 -34.5546875 35.7578125 C-43.55239921 34.24559205 -47.98216856 32.07610806 -53.7734375 25.1328125 C-56.06049581 23.98928334 -57.36608512 24.02946811 -59.8984375 24.0703125 C-61.8165625 24.10125 -61.8165625 24.10125 -63.7734375 24.1328125 Z M-5.7734375 28.1328125 C-6.6190625 29.1228125 -7.4646875 30.1128125 -8.3359375 31.1328125 C-12.42518781 35.55653975 -18.05613507 35.59623719 -23.7734375 36.1328125 C-23.7734375 39.7628125 -23.7734375 43.3928125 -23.7734375 47.1328125 C-15.37169607 46.59076467 -7.13663946 45.24326797 -1.2734375 38.6953125 C0.76708427 35.99003151 2.41661955 33.46257796 3.2265625 30.1328125 C2.93916325 27.89040468 2.93916325 27.89040468 2.2265625 26.1328125 C-1.17235361 26.1328125 -2.75002563 26.58595061 -5.7734375 28.1328125 Z " fill="#000000" transform="translate(83.7734375,24.8671875)"/>
<path d="M0 0 C0.99 0 1.98 0 3 0 C3 0.99 3 1.98 3 3 C1.68 3 0.36 3 -1 3 C-0.67 2.01 -0.34 1.02 0 0 Z " fill="#000000" transform="translate(63,33)"/>
<path d="M0 0 C0.99 0 1.98 0 3 0 C3 0.99 3 1.98 3 3 C1.68 3 0.36 3 -1 3 C-0.67 2.01 -0.34 1.02 0 0 Z " fill="#000000" transform="translate(45,33)"/>
</svg>
