<?xml version="1.0" encoding="UTF-8"?>
<svg version="1.1" xmlns="http://www.w3.org/2000/svg" width="110" height="110">
<path d="M0 0 C5.85773159 5.13730779 10.41951778 10.10006506 10.95410156 18.13745117 C10.99983283 21.05920063 11.02823868 23.98026641 11.04296875 26.90234375 C11.06359375 27.90587891 11.08421875 28.90941406 11.10546875 29.94335938 C11.14608495 37.74674631 10.28242424 44.64262777 5.60546875 51.1015625 C2.15855286 54.30432185 -0.73300971 55.3510558 -5.20703125 56.52734375 C-5.90570313 56.73037109 -6.604375 56.93339844 -7.32421875 57.14257812 C-21.38556896 61.16200182 -34.95052246 60.18460737 -49.26953125 57.96484375 C-50.3152832 57.80798096 -51.36103516 57.65111816 -52.43847656 57.48950195 C-59.8100041 56.26071758 -67.02812971 54.64921441 -72.64453125 49.46484375 C-78.98591074 38.30401585 -77.34994741 21.70343344 -74.20703125 9.71484375 C-70.39148854 0.47536033 -64.24867383 -4.38156886 -55.20703125 -8.28515625 C-37.11470736 -14.81524469 -15.61905813 -11.12929233 0 0 Z M-50.20703125 -5.28515625 C-41.62703125 -5.28515625 -33.04703125 -5.28515625 -24.20703125 -5.28515625 C-27.36375807 -7.38964079 -28.15884215 -7.54063886 -31.76953125 -7.55078125 C-32.64867188 -7.55335937 -33.5278125 -7.5559375 -34.43359375 -7.55859375 C-35.34882812 -7.55085937 -36.2640625 -7.543125 -37.20703125 -7.53515625 C-38.12226562 -7.54289063 -39.0375 -7.550625 -39.98046875 -7.55859375 C-41.29917969 -7.55472656 -41.29917969 -7.55472656 -42.64453125 -7.55078125 C-43.44761719 -7.54852539 -44.25070313 -7.54626953 -45.078125 -7.54394531 C-47.50616579 -7.41090808 -47.50616579 -7.41090808 -50.20703125 -5.28515625 Z M-17.20703125 -3.28515625 C-14.31688612 -1.04395575 -11.34794162 0.90524626 -8.20703125 2.77734375 C-7.36140625 3.28394531 -6.51578125 3.79054688 -5.64453125 4.3125 C-3.27159833 5.71989985 -3.27159833 5.71989985 -0.96484375 6.78125 C1.37510767 8.0240242 1.79748401 9.29723795 2.79296875 11.71484375 C3.13481201 12.32690674 3.47665527 12.93896973 3.82885742 13.56958008 C5.53008257 17.35501066 5.12044836 21.3129099 5.10546875 25.40234375 C5.12158203 26.26279297 5.13769531 27.12324219 5.15429688 28.00976562 C5.15838882 33.43977402 4.38677737 37.77564782 2.34057617 42.81567383 C1.54277596 44.90873977 1.54277596 44.90873977 2.79296875 47.71484375 C8.45017623 41.28267634 8.2589129 30.57556134 8.03125 22.34375 C7.42909447 15.70029637 6.18881269 10.53312212 1.16796875 5.90234375 C-4.43709685 1.53596668 -10.12971221 -2.12006345 -17.20703125 -3.28515625 Z M-31.20703125 -2.28515625 C-31.28953125 -1.52203125 -31.37203125 -0.75890625 -31.45703125 0.02734375 C-32.20703125 2.71484375 -32.20703125 2.71484375 -34.26953125 4.21484375 C-34.90890625 4.70984375 -35.54828125 5.20484375 -36.20703125 5.71484375 C-36.45703125 8.21484375 -36.45703125 8.21484375 -36.20703125 10.71484375 C-36.53703125 11.70484375 -36.86703125 12.69484375 -37.20703125 13.71484375 C-37.20703125 14.70484375 -37.20703125 15.69484375 -37.20703125 16.71484375 C-37.84640625 16.94171875 -38.48578125 17.16859375 -39.14453125 17.40234375 C-41.47896786 18.56735271 -41.47896786 18.56735271 -41.95703125 21.33984375 C-42.03953125 22.12359375 -42.12203125 22.90734375 -42.20703125 23.71484375 C-44.01953125 24.40234375 -44.01953125 24.40234375 -46.20703125 24.71484375 C-48.38728807 23.18058895 -49.0949365 22.07150886 -49.89453125 19.52734375 C-49.99765625 18.92921875 -50.10078125 18.33109375 -50.20703125 17.71484375 C-50.86703125 17.71484375 -51.52703125 17.71484375 -52.20703125 17.71484375 C-52.22765625 17.13734375 -52.24828125 16.55984375 -52.26953125 15.96484375 C-53.80258664 12.2855108 -56.69101368 11.44201028 -60.20703125 9.71484375 C-60.86703125 9.71484375 -61.52703125 9.71484375 -62.20703125 9.71484375 C-62.53703125 9.05484375 -62.86703125 8.39484375 -63.20703125 7.71484375 C-67.70233914 13.97616545 -67.81712025 19.27122481 -67.70703125 26.83984375 C-67.7225 27.91105469 -67.73796875 28.98226562 -67.75390625 30.0859375 C-67.73185911 34.51190086 -67.66832232 37.79460318 -65.66796875 41.78515625 C-62.46937735 44.29325807 -59.19301881 45.409271 -55.33203125 46.46484375 C-54.63722656 46.67238281 -53.94242188 46.87992188 -53.2265625 47.09375 C-46.30359405 49.11457883 -39.51119383 49.93234537 -32.33203125 50.33984375 C-31.56761719 50.39140625 -30.80320313 50.44296875 -30.015625 50.49609375 C-24.92903614 50.78971688 -20.2450592 50.48374551 -15.20703125 49.71484375 C-15.86703125 49.05484375 -16.52703125 48.39484375 -17.20703125 47.71484375 C-19.31523922 48.03336145 -19.31523922 48.03336145 -21.20703125 48.71484375 C-21.20703125 48.05484375 -21.20703125 47.39484375 -21.20703125 46.71484375 C-19.22703125 46.21984375 -19.22703125 46.21984375 -17.20703125 45.71484375 C-17.78453125 44.99296875 -18.36203125 44.27109375 -18.95703125 43.52734375 C-23.10637047 37.21378084 -26.04805663 29.09095651 -24.76953125 21.52734375 C-22.86485483 14.61866536 -19.87328806 7.33179374 -14.20703125 2.71484375 C-19.85978786 -1.09462266 -24.4331674 -2.01256616 -31.20703125 -2.28515625 Z M-46.20703125 -0.28515625 C-46.20703125 0.70484375 -46.20703125 1.69484375 -46.20703125 2.71484375 C-44.88703125 2.71484375 -43.56703125 2.71484375 -42.20703125 2.71484375 C-43.1855332 1.69379824 -44.18683552 0.69423165 -45.20703125 -0.28515625 C-45.53703125 -0.28515625 -45.86703125 -0.28515625 -46.20703125 -0.28515625 Z M-40.20703125 0.71484375 C-39.87703125 1.37484375 -39.54703125 2.03484375 -39.20703125 2.71484375 C-37.55703125 2.38484375 -35.90703125 2.05484375 -34.20703125 1.71484375 C-34.53703125 0.72484375 -34.86703125 -0.26515625 -35.20703125 -1.28515625 C-37.04749513 -1.28515625 -38.60332719 -0.11287448 -40.20703125 0.71484375 Z M-54.20703125 1.71484375 C-53.87703125 2.37484375 -53.54703125 3.03484375 -53.20703125 3.71484375 C-52.21703125 3.71484375 -51.22703125 3.71484375 -50.20703125 3.71484375 C-50.20703125 3.05484375 -50.20703125 2.39484375 -50.20703125 1.71484375 C-51.52703125 1.71484375 -52.84703125 1.71484375 -54.20703125 1.71484375 Z M-59.20703125 3.71484375 C-59.53703125 5.03484375 -59.86703125 6.35484375 -60.20703125 7.71484375 C-59.21703125 7.71484375 -58.22703125 7.71484375 -57.20703125 7.71484375 C-56.87703125 6.72484375 -56.54703125 5.73484375 -56.20703125 4.71484375 C-57.19703125 4.38484375 -58.18703125 4.05484375 -59.20703125 3.71484375 Z M-67.20703125 4.71484375 C-67.53703125 6.03484375 -67.86703125 7.35484375 -68.20703125 8.71484375 C-67.54703125 7.39484375 -66.88703125 6.07484375 -66.20703125 4.71484375 C-66.53703125 4.71484375 -66.86703125 4.71484375 -67.20703125 4.71484375 Z M-48.20703125 6.71484375 C-48.20703125 8.03484375 -48.20703125 9.35484375 -48.20703125 10.71484375 C-46.88703125 10.38484375 -45.56703125 10.05484375 -44.20703125 9.71484375 C-44.20703125 9.05484375 -44.20703125 8.39484375 -44.20703125 7.71484375 C-45.52703125 7.38484375 -46.84703125 7.05484375 -48.20703125 6.71484375 Z M-41.20703125 6.71484375 C-41.20703125 7.70484375 -41.20703125 8.69484375 -41.20703125 9.71484375 C-40.21703125 9.71484375 -39.22703125 9.71484375 -38.20703125 9.71484375 C-38.20703125 8.72484375 -38.20703125 7.73484375 -38.20703125 6.71484375 C-39.19703125 6.71484375 -40.18703125 6.71484375 -41.20703125 6.71484375 Z M-55.20703125 7.71484375 C-54.87703125 8.70484375 -54.54703125 9.69484375 -54.20703125 10.71484375 C-53.21703125 10.71484375 -52.22703125 10.71484375 -51.20703125 10.71484375 C-51.20703125 10.05484375 -51.20703125 9.39484375 -51.20703125 8.71484375 C-52.52703125 8.38484375 -53.84703125 8.05484375 -55.20703125 7.71484375 Z M-69.20703125 8.71484375 C-71.59322444 12.29413353 -71.92886136 15.42349201 -72.39453125 19.58984375 C-72.47985107 20.34563721 -72.5651709 21.10143066 -72.65307617 21.88012695 C-74.07355034 35.50336996 -74.07355034 35.50336996 -69.20703125 47.71484375 C-62.60041944 52.24879303 -54.95445825 53.1450573 -47.19384766 54.38574219 C-45.40439729 54.68215151 -43.62322887 55.02755734 -41.84375 55.37890625 C-27.386438 58.07952493 -11.33604033 56.82107924 1.79296875 49.71484375 C1.79296875 49.05484375 1.79296875 48.39484375 1.79296875 47.71484375 C-1.13711506 48.41057141 -3.96952749 49.2824321 -6.83203125 50.21484375 C-11.96675735 51.75601337 -16.86207023 52.45211141 -22.20703125 52.71484375 C-23.03589844 52.75609375 -23.86476562 52.79734375 -24.71875 52.83984375 C-38.96398773 53.18053703 -51.84900862 50.35057833 -65.20703125 45.71484375 C-66.19703125 45.38484375 -67.18703125 45.05484375 -68.20703125 44.71484375 C-70.26433594 32.29754045 -71.25596063 21.01945162 -68.20703125 8.71484375 C-68.53703125 8.71484375 -68.86703125 8.71484375 -69.20703125 8.71484375 Z M-11.20703125 12.71484375 C-11.53703125 13.37484375 -11.86703125 14.03484375 -12.20703125 14.71484375 C-11.21703125 15.04484375 -10.22703125 15.37484375 -9.20703125 15.71484375 C-9.53703125 14.72484375 -9.86703125 13.73484375 -10.20703125 12.71484375 C-10.53703125 12.71484375 -10.86703125 12.71484375 -11.20703125 12.71484375 Z M-43.20703125 13.71484375 C-43.20703125 14.37484375 -43.20703125 15.03484375 -43.20703125 15.71484375 C-42.21703125 15.71484375 -41.22703125 15.71484375 -40.20703125 15.71484375 C-40.20703125 15.05484375 -40.20703125 14.39484375 -40.20703125 13.71484375 C-41.19703125 13.71484375 -42.18703125 13.71484375 -43.20703125 13.71484375 Z M-1.20703125 14.71484375 C-0.54703125 15.37484375 0.11296875 16.03484375 0.79296875 16.71484375 C0.79296875 16.05484375 0.79296875 15.39484375 0.79296875 14.71484375 C0.13296875 14.71484375 -0.52703125 14.71484375 -1.20703125 14.71484375 Z M-14.20703125 15.71484375 C-14.53703125 16.37484375 -14.86703125 17.03484375 -15.20703125 17.71484375 C-14.21703125 17.38484375 -13.22703125 17.05484375 -12.20703125 16.71484375 C-12.86703125 16.38484375 -13.52703125 16.05484375 -14.20703125 15.71484375 Z M-8.20703125 15.71484375 C-7.54703125 16.37484375 -6.88703125 17.03484375 -6.20703125 17.71484375 C-6.20703125 17.05484375 -6.20703125 16.39484375 -6.20703125 15.71484375 C-6.86703125 15.71484375 -7.52703125 15.71484375 -8.20703125 15.71484375 Z M-5.20703125 17.71484375 C-5.20703125 18.37484375 -5.20703125 19.03484375 -5.20703125 19.71484375 C-4.54703125 19.38484375 -3.88703125 19.05484375 -3.20703125 18.71484375 C-3.86703125 18.38484375 -4.52703125 18.05484375 -5.20703125 17.71484375 Z M-17.20703125 18.71484375 C-17.20703125 19.37484375 -17.20703125 20.03484375 -17.20703125 20.71484375 C-16.54703125 20.38484375 -15.88703125 20.05484375 -15.20703125 19.71484375 C-15.86703125 19.38484375 -16.52703125 19.05484375 -17.20703125 18.71484375 Z M-11.20703125 18.71484375 C-10.54703125 19.37484375 -9.88703125 20.03484375 -9.20703125 20.71484375 C-9.20703125 20.05484375 -9.20703125 19.39484375 -9.20703125 18.71484375 C-9.86703125 18.71484375 -10.52703125 18.71484375 -11.20703125 18.71484375 Z M-45.20703125 19.71484375 C-45.20703125 20.37484375 -45.20703125 21.03484375 -45.20703125 21.71484375 C-44.54703125 21.38484375 -43.88703125 21.05484375 -43.20703125 20.71484375 C-43.86703125 20.38484375 -44.52703125 20.05484375 -45.20703125 19.71484375 Z M-7.20703125 20.71484375 C-6.20703125 22.71484375 -6.20703125 22.71484375 -6.20703125 22.71484375 Z M-20.20703125 21.71484375 C-20.20703125 22.37484375 -20.20703125 23.03484375 -20.20703125 23.71484375 C-20.86703125 23.71484375 -21.52703125 23.71484375 -22.20703125 23.71484375 C-21.87703125 24.37484375 -21.54703125 25.03484375 -21.20703125 25.71484375 C-20.21703125 24.72484375 -19.22703125 23.73484375 -18.20703125 22.71484375 C-18.86703125 22.38484375 -19.52703125 22.05484375 -20.20703125 21.71484375 Z M-5.20703125 23.71484375 C-4.54703125 24.37484375 -3.88703125 25.03484375 -3.20703125 25.71484375 C-2.87703125 25.05484375 -2.54703125 24.39484375 -2.20703125 23.71484375 C-3.19703125 23.71484375 -4.18703125 23.71484375 -5.20703125 23.71484375 Z M-17.20703125 24.71484375 C-16.87703125 25.37484375 -16.54703125 26.03484375 -16.20703125 26.71484375 C-15.87703125 26.05484375 -15.54703125 25.39484375 -15.20703125 24.71484375 C-15.86703125 24.71484375 -16.52703125 24.71484375 -17.20703125 24.71484375 Z M-7.20703125 25.71484375 C-7.20703125 26.70484375 -7.20703125 27.69484375 -7.20703125 28.71484375 C-6.54703125 28.05484375 -5.88703125 27.39484375 -5.20703125 26.71484375 C-5.86703125 26.38484375 -6.52703125 26.05484375 -7.20703125 25.71484375 Z M-14.20703125 26.71484375 C-14.53703125 27.37484375 -14.86703125 28.03484375 -15.20703125 28.71484375 C-14.21703125 28.38484375 -13.22703125 28.05484375 -12.20703125 27.71484375 C-12.86703125 27.38484375 -13.52703125 27.05484375 -14.20703125 26.71484375 Z M-20.20703125 27.71484375 C-20.20703125 30.71484375 -20.20703125 30.71484375 -20.20703125 30.71484375 Z M-10.20703125 28.71484375 C-11.19703125 30.19984375 -11.19703125 30.19984375 -12.20703125 31.71484375 C-10.88703125 31.38484375 -9.56703125 31.05484375 -8.20703125 30.71484375 C-8.86703125 30.05484375 -9.52703125 29.39484375 -10.20703125 28.71484375 Z M-2.20703125 30.71484375 C-1.20703125 32.71484375 -1.20703125 32.71484375 -1.20703125 32.71484375 Z M-14.20703125 32.71484375 C-13.20703125 34.71484375 -13.20703125 34.71484375 -13.20703125 34.71484375 Z M-5.20703125 33.71484375 C-5.20703125 34.70484375 -5.20703125 35.69484375 -5.20703125 36.71484375 C-4.54703125 36.05484375 -3.88703125 35.39484375 -3.20703125 34.71484375 C-3.86703125 34.38484375 -4.52703125 34.05484375 -5.20703125 33.71484375 Z M-18.20703125 35.71484375 C-18.53703125 36.37484375 -18.86703125 37.03484375 -19.20703125 37.71484375 C-18.21703125 37.38484375 -17.22703125 37.05484375 -16.20703125 36.71484375 C-16.86703125 36.38484375 -17.52703125 36.05484375 -18.20703125 35.71484375 Z M-9.20703125 36.71484375 C-8.87703125 37.70484375 -8.54703125 38.69484375 -8.20703125 39.71484375 C-7.54703125 39.05484375 -6.88703125 38.39484375 -6.20703125 37.71484375 C-7.19703125 37.38484375 -8.18703125 37.05484375 -9.20703125 36.71484375 Z M-12.20703125 39.71484375 C-12.53703125 40.37484375 -12.86703125 41.03484375 -13.20703125 41.71484375 C-12.21703125 41.71484375 -11.22703125 41.71484375 -10.20703125 41.71484375 C-10.20703125 41.05484375 -10.20703125 40.39484375 -10.20703125 39.71484375 C-10.86703125 39.71484375 -11.52703125 39.71484375 -12.20703125 39.71484375 Z " fill="#000000" transform="translate(87.20703125,21.28515625)"/>
<path d="M0 0 C2.43940596 0.01915256 4.87303596 -0.02016886 7.31201172 -0.06469727 C22.44758768 -0.14605687 34.01848978 4.08007223 45.20654297 14.70678711 C53.54572117 22.97577021 55.95289524 29.75117361 56.23535156 41.51733398 C56.16888887 46.56849847 55.56550251 51.58988533 54.96923828 56.60180664 C54.51152857 60.45381141 54.15469761 64.18773347 54.21826172 68.07006836 C54.20339678 72.6831549 53.39977906 74.71196424 51.20654297 78.70678711 C49.01904297 80.64428711 49.01904297 80.64428711 47.20654297 81.70678711 C47.72345703 82.04709961 48.24037109 82.38741211 48.77294922 82.73803711 C53.94325285 86.54240925 53.94325285 86.54240925 54.65966797 89.71069336 C54.44728233 92.81978319 53.89582523 94.90262447 51.84716797 97.29272461 C47.37095251 101.12631508 44.34810922 102.02979054 38.65185547 102.01147461 C35.29000206 101.59258553 32.89871272 100.17019251 29.97607422 98.53881836 C27.36592397 97.31152917 25.8774946 97.74798396 23.20654297 98.70678711 C8.94153731 103.32759876 -4.03044289 100.29445849 -17.79345703 95.70678711 C-19.09283203 96.88241211 -19.09283203 96.88241211 -20.41845703 98.08178711 C-24.22133177 101.44334059 -27.80349912 101.96941647 -32.79345703 101.70678711 C-36.86693278 101.08009853 -40.3653007 100.19491851 -43.28173828 97.15600586 C-45.13613017 94.28201705 -45.79345703 91.98315241 -45.79345703 88.58178711 C-44.63633251 85.25505412 -43.28133747 83.19466754 -40.79345703 80.70678711 C-39.80345703 80.70678711 -38.81345703 80.70678711 -37.79345703 80.70678711 C-38.28716797 79.95913086 -38.78087891 79.21147461 -39.28955078 78.44116211 C-39.93021484 77.45631836 -40.57087891 76.47147461 -41.23095703 75.45678711 C-41.86904297 74.48225586 -42.50712891 73.50772461 -43.16455078 72.50366211 C-46.10421139 67.45618729 -45.95360964 62.69727993 -45.96142578 56.96069336 C-45.96475418 56.11256577 -45.96808258 55.26443817 -45.97151184 54.39060974 C-45.97656719 52.59944195 -45.9789206 50.80826477 -45.97875977 49.01708984 C-45.98094636 46.28263794 -45.99911696 43.54858956 -46.01806641 40.81420898 C-46.02100063 39.07137182 -46.02298523 37.32853274 -46.02392578 35.58569336 C-46.0311113 34.77097061 -46.03829681 33.95624786 -46.04570007 33.11683655 C-46.01145418 24.57357994 -43.04647539 20.33903052 -37.28564453 14.13647461 C-33.74176768 10.68147242 -30.03796691 8.20355762 -25.79345703 5.70678711 C-25.13627686 5.2672168 -24.47909668 4.82764648 -23.80200195 4.37475586 C-16.17585038 -0.20491289 -8.63582711 -0.09051326 0 0 Z M-36.91064453 18.00756836 C-42.14725501 25.51482529 -42.31969899 34.46670681 -42.54345703 43.33178711 C-42.58599609 44.41202148 -42.62853516 45.49225586 -42.67236328 46.60522461 C-43.15301409 57.93585839 -43.15301409 57.93585839 -39.60595703 68.51928711 C-39.0278125 69.61176758 -39.0278125 69.61176758 -38.43798828 70.72631836 C-32.17969086 78.26303284 -17.86077337 78.80105767 -8.79345703 79.70678711 C-3.21416262 80.04663111 2.3685115 80.08540891 7.95654297 80.08178711 C8.64077332 80.08350922 9.32500366 80.08523132 10.02996826 80.08700562 C20.13460898 80.08412438 29.45274395 79.2647223 39.01904297 75.89428711 C40.32808594 75.45149414 40.32808594 75.45149414 41.66357422 74.99975586 C45.49384347 73.05226105 48.42974495 70.92884189 49.89624023 66.73388672 C50.42110241 64.35330853 50.77946207 62.00076155 51.08154297 59.58178711 C51.20029785 58.7095752 51.31905273 57.83736328 51.44140625 56.9387207 C52.19275182 50.70960686 52.3692809 44.59657037 52.08154297 38.33178711 C52.04786621 37.55432129 52.01418945 36.77685547 51.97949219 35.97583008 C51.49344379 29.01726257 48.96683928 23.84289629 44.20654297 18.70678711 C28.53867624 5.22165754 11.49925026 3.48702172 -8.57714844 4.39868164 C-19.52616184 5.44753961 -28.78634636 10.80326911 -36.91064453 18.00756836 Z M38.08154297 79.01928711 C33.51850875 80.65268852 28.95310617 81.75298599 24.20654297 82.70678711 C25.06082371 88.93383575 25.06082371 88.93383575 28.39404297 94.08178711 C34.88525887 97.83226741 38.8965948 99.50431535 46.20654297 97.70678711 C48.69078656 95.85952906 49.84172112 94.48507372 51.14404297 91.70678711 C51.3649086 89.6016532 51.3649086 89.6016532 50.14404297 87.51928711 C47.56857651 85.10997977 45.68704097 84.85489341 42.20654297 84.70678711 C41.54654297 85.36678711 40.88654297 86.02678711 40.20654297 86.70678711 C41.52654297 87.03678711 42.84654297 87.36678711 44.20654297 87.70678711 C43.87654297 89.02678711 43.54654297 90.34678711 43.20654297 91.70678711 C41.20699551 91.74933067 39.20612661 91.74759494 37.20654297 91.70678711 C36.20654297 90.70678711 36.20654297 90.70678711 35.95654297 87.83178711 C36.20654297 84.70678711 36.20654297 84.70678711 37.33154297 83.01928711 C39.82379681 81.27470942 42.45381916 79.99139155 45.20654297 78.70678711 C41.82118232 77.57833356 41.27244673 77.81269088 38.08154297 79.01928711 Z M-29.79345703 79.70678711 C-29.29845703 80.24303711 -28.80345703 80.77928711 -28.29345703 81.33178711 C-26.39875622 84.33173007 -26.49001756 86.21723315 -26.79345703 89.70678711 C-27.12345703 90.36678711 -27.45345703 91.02678711 -27.79345703 91.70678711 C-32.26886687 92.96908219 -32.26886687 92.96908219 -34.79345703 91.70678711 C-34.79345703 90.38678711 -34.79345703 89.06678711 -34.79345703 87.70678711 C-33.14345703 87.37678711 -31.49345703 87.04678711 -29.79345703 86.70678711 C-29.79345703 86.04678711 -29.79345703 85.38678711 -29.79345703 84.70678711 C-32.87672053 83.16515536 -35.40223803 83.40931176 -38.79345703 83.70678711 C-40.94128374 85.26476593 -40.94128374 85.26476593 -41.79345703 87.70678711 C-41.54074959 91.0762196 -40.54388095 93.82373595 -38.79345703 96.70678711 C-36.22012803 97.99345161 -34.29122665 97.87503262 -31.41845703 97.89428711 C-30.46197266 97.9084668 -29.50548828 97.92264648 -28.52001953 97.93725586 C-25.67425364 97.69671118 -24.14921569 97.29249132 -21.79345703 95.70678711 C-18.28613368 91.50934353 -16.20595786 87.20679819 -15.79345703 81.70678711 C-20.66671804 80.11551821 -24.60136299 79.4948649 -29.79345703 79.70678711 Z M-12.79345703 82.70678711 C-13.30908203 83.77928711 -13.82470703 84.85178711 -14.35595703 85.95678711 C-14.64599609 86.56006836 -14.93603516 87.16334961 -15.23486328 87.78491211 C-15.91107647 90.11146377 -15.55099611 91.4391867 -14.79345703 93.70678711 C-1.80862881 97.78045871 10.18157662 100.09642836 23.20654297 94.70678711 C22.54654297 90.74678711 21.88654297 86.78678711 21.20654297 82.70678711 C19.91619141 82.79057617 18.62583984 82.87436523 17.29638672 82.96069336 C15.57896092 83.0639266 13.86151169 83.16677055 12.14404297 83.26928711 C11.29648437 83.32536133 10.44892578 83.38143555 9.57568359 83.43920898 C4.61328156 83.72660679 0.13329812 83.53604293 -4.79345703 82.70678711 C-7.47285183 82.59926725 -10.10977752 82.65970501 -12.79345703 82.70678711 Z " fill="#000000" transform="translate(49.79345703125,4.293212890625)"/>
<path d="M0 0 C1.18613892 0.00785522 1.18613892 0.00785522 2.39624023 0.01586914 C3.67724609 0.02070312 3.67724609 0.02070312 4.98413086 0.02563477 C5.88196289 0.03401367 6.77979492 0.04239258 7.70483398 0.05102539 C8.6065332 0.05553711 9.50823242 0.06004883 10.43725586 0.06469727 C12.67234712 0.07652315 14.90730835 0.09300319 17.14233398 0.11352539 C18.26733398 2.42602539 18.26733398 2.42602539 19.14233398 5.11352539 C17.14233398 8.11352539 17.14233398 8.11352539 15.42358398 8.78540039 C12.48131789 9.20860305 9.61514343 9.32261517 6.64233398 9.36352539 C4.95624023 9.40219727 4.95624023 9.40219727 3.23608398 9.44165039 C-0.11109409 9.08664666 -1.43048861 8.37413179 -3.85766602 6.11352539 C-2.79098027 0.17056194 -2.79098027 0.17056194 0 0 Z M6.51733398 3.61352539 C4.73456055 3.75274414 4.73456055 3.75274414 2.91577148 3.89477539 C1.54291992 4.00305664 1.54291992 4.00305664 0.14233398 4.11352539 C3.28844652 6.21093375 4.05421477 6.36680758 7.64233398 6.30102539 C8.80249023 6.29135742 8.80249023 6.29135742 9.98608398 6.28149414 C12.32582248 6.18658189 12.32582248 6.18658189 15.14233398 5.11352539 C15.14233398 4.45352539 15.14233398 3.79352539 15.14233398 3.11352539 C12.25372499 3.11352539 9.39673983 3.38768964 6.51733398 3.61352539 Z " fill="#000000" transform="translate(48.857666015625,90.886474609375)"/>
<path d="M0 0 C1.98 0.495 1.98 0.495 4 1 C3.01 2.485 3.01 2.485 2 4 C1.01 3.67 0.02 3.34 -1 3 C-0.67 2.01 -0.34 1.02 0 0 Z " fill="#000000" transform="translate(57,54)"/>
<path d="M0 0 C0.99 0.33 1.98 0.66 3 1 C3 1.99 3 2.98 3 4 C2.01 4 1.02 4 0 4 C-0.33 3.01 -0.66 2.02 -1 1 C-0.67 0.67 -0.34 0.34 0 0 Z " fill="#000000" transform="translate(57,40)"/>
<path d="M0 0 C0.99 0 1.98 0 3 0 C2.67 1.32 2.34 2.64 2 4 C1.34 4 0.68 4 0 4 C-0.33 3.01 -0.66 2.02 -1 1 C-0.67 0.67 -0.34 0.34 0 0 Z " fill="#000000" transform="translate(66,23)"/>
<path d="M0 0 C0.99 0 1.98 0 3 0 C2.67 1.32 2.34 2.64 2 4 C1.34 4 0.68 4 0 4 C0 2.68 0 1.36 0 0 Z " fill="#000000" transform="translate(63,64)"/>
<path d="M0 0 C1.32 0 2.64 0 4 0 C3.67 0.99 3.34 1.98 3 3 C2.01 3 1.02 3 0 3 C0 2.01 0 1.02 0 0 Z " fill="#000000" transform="translate(61,28)"/>
<path d="M0 0 C0.99 0 1.98 0 3 0 C2.67 1.32 2.34 2.64 2 4 C1.34 3.67 0.68 3.34 0 3 C0 2.01 0 1.02 0 0 Z " fill="#000000" transform="translate(58,34)"/>
<path d="M0 0 C0.99 0 1.98 0 3 0 C3 0.99 3 1.98 3 3 C2.01 3 1.02 3 0 3 C0 2.01 0 1.02 0 0 Z " fill="#000000" transform="translate(60,60)"/>
<path d="M0 0 C0.99 0 1.98 0 3 0 C3 0.99 3 1.98 3 3 C2.01 3 1.02 3 0 3 C0 2.01 0 1.02 0 0 Z " fill="#000000" transform="translate(57,47)"/>
</svg>
