<?xml version="1.0" encoding="UTF-8"?>
<svg version="1.1" xmlns="http://www.w3.org/2000/svg" width="110" height="110">
<path d="M0 0 C1.25683594 0.44085938 1.25683594 0.44085938 2.5390625 0.890625 C10.50774634 4.11661785 13.34205371 9.48953581 17 17 C17.4228125 17.80953125 17.845625 18.6190625 18.28125 19.453125 C22.63228045 27.84439801 23.44764289 36.72136598 21.31640625 45.96484375 C18.26111798 54.19257026 13.38297913 60.03106203 5.5234375 64 C-10.17278997 70.22017683 -32.40635661 68.1825604 -48.2109375 62.93359375 C-53.55529013 60.50215404 -58.06597631 57.17419043 -61 52 C-62.91876784 46.6393187 -63.35418683 41.80807623 -63.3125 36.1875 C-63.30686035 35.39359863 -63.3012207 34.59969727 -63.29541016 33.78173828 C-63.09166483 23.91925424 -60.91030904 16.29244595 -54 9 C-40.93269637 -2.55953783 -16.04687505 -6.68163398 0 0 Z M-11 1 C-11 6.94 -11 12.88 -11 19 C-10.67 19 -10.34 19 -10 19 C-9.80379233 16.93831015 -9.61839247 14.87559002 -9.4375 12.8125 C-9.33308594 11.66394531 -9.22867188 10.51539063 -9.12109375 9.33203125 C-9.01140015 6.31368801 -9.25997611 3.91076064 -10 1 C-10.33 1 -10.66 1 -11 1 Z M-30 2 C-29.67 2.66 -29.34 3.32 -29 4 C-28.67 3.34 -28.34 2.68 -28 2 C-28.66 2 -29.32 2 -30 2 Z M-7 2 C-8.25062432 18.60031393 -8.25062432 18.60031393 -1 33 C4.42270314 37.76540579 11.97490188 39.14584979 19 39 C18.76365923 26.49542494 14.68750016 17.06747034 6 8 C1.69619282 4.46811086 -1.32788542 2 -7 2 Z M-51.4375 10.125 C-57.21803445 16.61047768 -60.15472948 24.97372111 -60.125 33.625 C-60.12757812 34.38039063 -60.13015625 35.13578125 -60.1328125 35.9140625 C-60.07667173 38.19549769 -60.07667173 38.19549769 -59 41 C-52.13581776 40.82521758 -47.37669726 39.33088658 -42 35 C-39.78468339 32.77287937 -39.78468339 32.77287937 -38 30 C-37.48179688 29.44441406 -36.96359375 28.88882813 -36.4296875 28.31640625 C-30.16378961 20.84104434 -31.46425434 12.19696711 -32 3 C-38.78973281 3 -45.89700705 6.17577135 -51.4375 10.125 Z M-15 7 C-14 9 -14 9 -14 9 Z M-29 8 C-29.22174933 9.45635371 -29.42698698 10.91522956 -29.625 12.375 C-29.74101563 13.18710937 -29.85703125 13.99921875 -29.9765625 14.8359375 C-29.98429687 15.55007812 -29.99203125 16.26421875 -30 17 C-29.34 17.66 -28.68 18.32 -28 19 C-28 15.37 -28 11.74 -28 8 C-28.33 8 -28.66 8 -29 8 Z M-17 10 C-17.33 10.66 -17.66 11.32 -18 12 C-17.34 12 -16.68 12 -16 12 C-16.33 11.34 -16.66 10.68 -17 10 Z M-15 12 C-14 15 -14 15 -14 15 Z M-32.484375 24.27734375 C-32.98453125 25.17582031 -33.4846875 26.07429688 -34 27 C-34.42023437 27.680625 -34.84046875 28.36125 -35.2734375 29.0625 C-35.63695313 29.701875 -36.00046875 30.34125 -36.375 31 C-40.77976788 38.08767195 -46.18205026 40.86309374 -54 43 C-54 43.33 -54 43.66 -54 44 C-47.49331745 44.69220027 -43.2791135 42.79064165 -38 39 C-35.28493624 36.43278625 -33.33385829 33.6836146 -31.6875 30.3125 C-29.14525227 26.82867903 -26.13234553 25.9167075 -22 25 C-17.02017426 24.46970242 -12.46789811 24.48680731 -8 27 C-7.505 27.99 -7.505 27.99 -7 29 C-7.57452746 25.06924356 -7.57452746 25.06924356 -10 22 C-13.26911171 21.49905553 -16.57183207 21.58334748 -19.875 21.5625 C-20.78636719 21.52962891 -21.69773438 21.49675781 -22.63671875 21.46289062 C-28.08963066 21.33894796 -28.08963066 21.33894796 -32.484375 24.27734375 Z M-29.375 31.375 C-29.91125 32.24125 -30.4475 33.1075 -31 34 C-31.86625 35.0828125 -31.86625 35.0828125 -32.75 36.1875 C-34.18924432 37.9074477 -34.18924432 37.9074477 -34 40 C-41.92647279 44.03562428 -49.04535207 46.61895115 -58 47 C-56.42906411 53.28374357 -53.70127321 55.36667201 -48.3125 58.625 C-42.48657687 61.04330771 -37.39942649 62.62935777 -31.1875 61 C-24.88535873 57.04571528 -22.97951605 53.70137964 -21.1875 46.625 C-20.77540712 44.75350635 -20.37406793 42.87946328 -20 41 C-19.34 41.33 -18.68 41.66 -18 42 C-17.5078125 44.109375 -17.5078125 44.109375 -17.125 46.75 C-16.2791842 51.21438113 -15.53198838 53.92083065 -12 57 C-7.3040283 59.71024652 -2.46497723 62.13853692 3 61 C8.18454456 58.26219664 12.86133807 55.0491518 16 50 C16 49.01 16 48.02 16 47 C15.3709375 46.90203125 14.741875 46.8040625 14.09375 46.703125 C6.10751757 45.30793982 -1.15068636 42.84931364 -7 37 C-8.43689307 34.68794543 -9.73395841 32.34351712 -10.984375 29.92578125 C-11.85336822 28.04809811 -11.85336822 28.04809811 -13 27 C-18.78263042 26.4578784 -25.20304055 27.20304055 -29.375 31.375 Z M-7 29 C-6 31 -6 31 -6 31 Z M-6 32 C-4.50902342 35.7952131 -2.24299151 37.61042731 1 40 C1.66 39.67 2.32 39.34 3 39 C1.69013727 37.83037314 0.3770374 36.66437056 -0.9375 35.5 C-1.66839844 34.8503125 -2.39929688 34.200625 -3.15234375 33.53125 C-4.7283755 31.8936499 -4.7283755 31.8936499 -6 32 Z M3 40 C6.43772727 43.43772727 10.10960984 43.97127774 14.875 44.125 C16.421875 44.063125 16.421875 44.063125 18 44 C18 43.34 18 42.68 18 42 C10.575 41.01 10.575 41.01 3 40 Z M-20 52 C-20.598125 52.928125 -21.19625 53.85625 -21.8125 54.8125 C-23.77178644 57.66746025 -25.25669197 59.04049427 -28 61 C-28 61.66 -28 62.32 -28 63 C-17.96417229 64.0379599 -17.96417229 64.0379599 -8 63 C-11.52366066 60.15670612 -11.52366066 60.15670612 -15.1875 57.5 C-17.195152 55.8384949 -18.01204925 54.38754765 -19 52 C-19.33 52 -19.66 52 -20 52 Z " fill="#000000" transform="translate(76,13)"/>
<path d="M0 0 C2.75465792 0.97892802 5.3965866 2.07055071 8.05419922 3.28759766 C8.8629248 3.65739746 9.67165039 4.02719727 10.50488281 4.40820312 C17.94421838 8.13177402 23.76032967 13.10159748 26.99169922 20.91259766 C27.38099609 21.82396484 27.77029297 22.73533203 28.17138672 23.67431641 C30.5651113 30.1334162 30.41092862 36.3889683 30.49169922 43.22509766 C30.54777344 44.97886719 30.54777344 44.97886719 30.60498047 46.76806641 C30.69475547 55.75554136 29.22238618 64.0946535 23.46069336 71.29443359 C21.80419922 72.97509766 21.80419922 72.97509766 19.11669922 75.22509766 C20.47794922 75.59634766 20.47794922 75.59634766 21.86669922 75.97509766 C25.85650556 77.50963856 28.1973372 79.38637362 30.11669922 83.22509766 C30.68812779 90.19652623 30.68812779 90.19652623 28.55419922 94.03759766 C23.22269183 98.82228378 17.88302529 99.70043617 10.99169922 99.53759766 C10.30205078 99.54082031 9.61240234 99.54404297 8.90185547 99.54736328 C3.49807207 99.49053573 -0.19032356 98.78080645 -4.19580078 95.10009766 C-4.75267578 94.48134766 -5.30955078 93.86259766 -5.88330078 93.22509766 C-6.60517578 94.00884766 -7.32705078 94.79259766 -8.07080078 95.60009766 C-11.50055153 98.80119835 -13.51696109 100.15860547 -18.24658203 100.29150391 C-22.93867091 100.06211289 -25.22451451 99.78781093 -28.88330078 96.66259766 C-29.54330078 95.85822266 -30.20330078 95.05384766 -30.88330078 94.22509766 C-33.10567916 94.00455711 -33.10567916 94.00455711 -35.00830078 96.10009766 C-41.47387617 100.87900121 -50.09840794 101.24673714 -57.88330078 100.22509766 C-62.43186398 98.4910413 -66.79514447 96.06417344 -69.88330078 92.22509766 C-70.77532499 88.38939355 -70.56862861 84.69365729 -68.89892578 81.11572266 C-65.82447392 76.52302297 -65.82447392 76.52302297 -62.71142578 75.53759766 C-62.10814453 75.43447266 -61.50486328 75.33134766 -60.88330078 75.22509766 C-61.28162109 74.58443359 -61.67994141 73.94376953 -62.09033203 73.28369141 C-62.62013672 72.41873047 -63.14994141 71.55376953 -63.69580078 70.66259766 C-64.21787109 69.81568359 -64.73994141 68.96876953 -65.27783203 68.09619141 C-65.80763672 67.14873047 -66.33744141 66.20126953 -66.88330078 65.22509766 C-67.43501953 64.24412109 -67.98673828 63.26314453 -68.55517578 62.25244141 C-70.88905942 56.60639496 -70.35520766 50.34940641 -70.32080078 44.35009766 C-70.34078125 43.12162109 -70.36076172 41.89314453 -70.38134766 40.62744141 C-70.377377 33.21819144 -69.58867775 27.67111754 -65.88330078 21.22509766 C-65.26455078 20.07009766 -64.64580078 18.91509766 -64.00830078 17.72509766 C-57.37828124 8.94646067 -43.88898404 2.50744512 -33.27392578 0.80712891 C-31.14769628 0.57351452 -29.01562069 0.3943294 -26.88330078 0.22509766 C-19.78909568 -3.32200489 -7.39658393 -1.98787107 0 0 Z M-60.72705078 19.82275391 C-65.75098842 25.42007574 -66.20524121 30.27136832 -65.89111328 37.67431641 C-65.88366642 40.10571568 -66.25861605 41.89630973 -66.88330078 44.22509766 C-68.01137667 54.02324251 -65.43916356 62.20505608 -59.75830078 70.22509766 C-47.71359681 78.60402216 -32.40123292 78.57739731 -18.3125 78.54077148 C-15.75624539 78.5375951 -13.20113326 78.56120259 -10.64501953 78.58642578 C4.66110206 78.65693828 4.66110206 78.65693828 17.49169922 70.91259766 C18.30380859 70.17396484 19.11591797 69.43533203 19.95263672 68.67431641 C24.2739122 63.78363098 25.66908451 58.84969501 26.36669922 52.47509766 C26.48791138 51.41730103 26.48791138 51.41730103 26.61157227 50.33813477 C27.47211296 41.995379 26.72994617 35.0769969 23.83544922 27.23291016 C23.11669922 25.22509766 23.11669922 25.22509766 22.60888672 23.12353516 C21.92372009 20.4807496 20.59947787 18.50629558 19.11669922 16.22509766 C18.70677734 15.57669922 18.29685547 14.92830078 17.87451172 14.26025391 C15.64926706 11.68391509 13.43367152 10.62213397 10.36669922 9.16259766 C9.36123047 8.67662109 8.35576172 8.19064453 7.31982422 7.68994141 C6.26279297 7.20654297 5.20576172 6.72314453 4.11669922 6.22509766 C3.06353516 5.67595703 2.01037109 5.12681641 0.92529297 4.56103516 C-3.91018854 2.5175082 -8.90458893 2.81895665 -14.07080078 2.91259766 C-15.09874756 2.92605225 -16.12669434 2.93950684 -17.18579102 2.95336914 C-34.51111155 3.29528915 -48.150708 7.52383045 -60.72705078 19.82275391 Z M-62.88330078 78.22509766 C-65.92945104 81.45349622 -66.80611722 84.47898986 -67.25830078 88.85009766 C-65.42923117 93.33963215 -63.34465266 94.50727852 -58.97705078 96.40869141 C-52.10191695 98.22296283 -44.12229769 97.75084611 -37.69580078 94.53759766 C-34.53744395 91.94072648 -33.21945271 90.07635911 -31.88330078 86.22509766 C-31.63045712 83.47363492 -31.63045712 83.47363492 -31.88330078 81.22509766 C-34.85330078 81.22509766 -37.82330078 81.22509766 -40.88330078 81.22509766 C-40.88330078 82.54509766 -40.88330078 83.86509766 -40.88330078 85.22509766 C-46.45397355 86.81671845 -51.09431659 87.43184709 -56.88330078 87.22509766 C-57.21330078 86.56509766 -57.54330078 85.90509766 -57.88330078 85.22509766 C-55.90330078 84.56509766 -53.92330078 83.90509766 -51.88330078 83.22509766 C-51.55330078 81.57509766 -51.22330078 79.92509766 -50.88330078 78.22509766 C-55.42364633 75.74854554 -58.21273906 76.10211506 -62.88330078 78.22509766 Z M-47.88330078 79.22509766 C-48.54330078 81.20509766 -49.20330078 83.18509766 -49.88330078 85.22509766 C-47.4385 85.03680994 -47.4385 85.03680994 -44.88330078 84.22509766 C-43.52309927 82.25751492 -43.52309927 82.25751492 -42.88330078 80.22509766 C-44.53330078 79.89509766 -46.18330078 79.56509766 -47.88330078 79.22509766 Z M14.11669922 79.22509766 C13.24819748 81.47385513 13.24819748 81.47385513 13.11669922 84.22509766 C14.94798032 87.03609179 14.94798032 87.03609179 17.11669922 89.22509766 C7.12172434 88.60575092 7.12172434 88.60575092 4.11669922 85.22509766 C3.78669922 83.90509766 3.45669922 82.58509766 3.11669922 81.22509766 C-1.33830078 81.72009766 -1.33830078 81.72009766 -5.88330078 82.22509766 C-5.66086533 87.78598396 -4.42017293 90.34131827 -0.55126953 94.06103516 C4.16005305 97.34903078 10.64341188 96.64844585 16.11669922 96.22509766 C19.97847644 95.36692494 23.12345791 94.06784785 26.17919922 91.47509766 C27.603441 88.05691738 27.07675384 85.74529794 26.11669922 82.22509766 C24.65628156 80.10839409 24.65628156 80.10839409 22.11669922 79.22509766 C19.39634926 78.99623456 16.85723849 79.08807069 14.11669922 79.22509766 Z M7.11669922 80.22509766 C6.78669922 81.54509766 6.45669922 82.86509766 6.11669922 84.22509766 C8.09669922 85.21509766 8.09669922 85.21509766 10.11669922 86.22509766 C10.11669922 84.24509766 10.11669922 82.26509766 10.11669922 80.22509766 C9.12669922 80.22509766 8.13669922 80.22509766 7.11669922 80.22509766 Z M-28.82080078 85.03759766 C-30.07553067 87.19482234 -30.07553067 87.19482234 -29.82080078 89.72509766 C-28.64561219 92.8589339 -27.58620655 94.23348288 -24.88330078 96.22509766 C-19.91795221 97.51241025 -16.56977837 97.29586682 -11.88330078 95.22509766 C-9.49121688 92.83301376 -9.53753131 92.0737088 -9.44580078 88.78759766 C-9.49988569 84.99429334 -9.49988569 84.99429334 -12.00830078 82.16259766 C-17.9313127 80.23118073 -24.11406927 80.63452624 -28.82080078 85.03759766 Z " fill="#000000" transform="translate(74.88330078125,4.77490234375)"/>
<path d="M0 0 C2 3 2 3 1.8125 5.5625 C1 8 1 8 -2 10 C-8.45283019 9.54716981 -8.45283019 9.54716981 -11 7 C-10.875 3.5 -10.875 3.5 -10 0 C-6.6798573 -3.07420621 -3.8139105 -1.74113306 0 0 Z M-7 2 C-7 3.32 -7 4.64 -7 6 C-5.35 6.33 -3.7 6.66 -2 7 C-2 5.68 -2 4.36 -2 3 C-3.65 2.67 -5.3 2.34 -7 2 Z " fill="#000000" transform="translate(60,89)"/>
<path d="" fill="#000000" transform="translate(0,0)"/>
</svg>
