<?xml version="1.0" encoding="UTF-8"?>
<svg version="1.1" xmlns="http://www.w3.org/2000/svg" width="110" height="110">
<path d="M0 0 C1.02480469 0.33902344 2.04960938 0.67804687 3.10546875 1.02734375 C11.82456152 4.13262267 18.12246707 9.05125405 22.21875 17.51953125 C26.03707963 28.74471327 23.87201242 38.40530632 19 49 C14.69249491 56.24557215 7.21897946 60.43959617 -0.79760742 62.60522461 C-5.79301326 63.50064321 -10.87786119 63.38199376 -15.9375 63.375 C-17.13866455 63.37338867 -18.3398291 63.37177734 -19.57739258 63.37011719 C-28.97081645 63.2410849 -37.14259126 62.16652362 -46 59 C-46.845625 58.73445313 -47.69125 58.46890625 -48.5625 58.1953125 C-52.73736343 56.58369243 -54.71244595 54.43134398 -56.9375 50.5625 C-61.93696558 39.06035115 -60.46479391 26.10058151 -56.125 14.625 C-53.22492667 8.03392426 -50.47456032 3.44160676 -43.9453125 0.1015625 C-29.46134214 -5.31551925 -14.32361875 -5.62912644 0 0 Z M-31 1 C-30.6596875 2.8253125 -30.6596875 2.8253125 -30.3125 4.6875 C-29.9220829 7.79983913 -29.93350276 8.8503812 -31.25 11.8125 C-32.74714563 13.68393204 -34.2928055 15.32637393 -36 17 C-33.24763726 17.16225719 -30.50482524 17.2809328 -27.75 17.375 C-26.97269531 17.42527344 -26.19539063 17.47554687 -25.39453125 17.52734375 C-23.11817945 17.58571174 -21.2096092 17.55969289 -19 17 C-15.84160999 13.48306396 -15.84160999 13.48306396 -15 9 C-9.16302999 7.19584563 -3.97847647 6.21215085 2 8 C5.24044458 10.56535196 6.69560167 12.086805 8 16 C9.73406703 16.68708316 11.4689299 17.37236823 13.2109375 18.0390625 C16.23266664 19.66208732 17.36087126 22.04956827 19 25 C20.33978199 22.88353988 20.33978199 22.88353988 19.125 19.9375 C14.80368858 10.75949344 7.34698091 6.19328602 -1.77050781 2.76342773 C-11.69546616 -0.78323208 -20.62480725 -0.23619318 -31 1 Z M-36 2 C-35.34 4.64 -34.68 7.28 -34 10 C-33.34 9.67 -32.68 9.34 -32 9 C-32.33 7.02 -32.66 5.04 -33 3 C-33.99 2.67 -34.98 2.34 -36 2 Z M-49 8 C-49.25030977 10.41619823 -49.25030977 10.41619823 -49 13 C-45.77208445 15.1519437 -44.71599191 15.20086443 -41 15 C-41.5775 14.773125 -42.155 14.54625 -42.75 14.3125 C-45.5663661 12.66961977 -47.08077114 10.60466773 -49 8 Z M-13 12 C-14.83297646 15.66595293 -15.09427739 17.51147173 -14.3125 21.5625 C-14 25 -14 25 -16.3125 27.8125 C-17.199375 28.534375 -18.08625 29.25625 -19 30 C-19.66 30.66 -20.32 31.32 -21 32 C-20.21625 32.226875 -19.4325 32.45375 -18.625 32.6875 C-16 34 -16 34 -14.6875 36.1875 C-13.26242519 42.01735151 -14.02701662 46.43336831 -16 52 C-13.93571843 51.74309819 -11.87358906 51.46886954 -9.8125 51.1875 C-8.66394531 51.03667969 -7.51539063 50.88585937 -6.33203125 50.73046875 C-2.9441638 49.98775924 -0.78151352 49.04552911 2 47 C3.25153259 44.65904469 3.25153259 44.65904469 3 42 C0.5155753 37.67926139 -2.96552543 35.58919513 -7.1953125 33.2109375 C-9 32 -9 32 -11 29 C-11.265625 26.37109375 -11.265625 26.37109375 -11.25 23.4375 C-11.25515625 22.46683594 -11.2603125 21.49617188 -11.265625 20.49609375 C-11 18 -11 18 -9 16 C-6 15.75 -6 15.75 -3 16 C-0.4345406 18.5654594 -0.45953913 20.47686668 0 24 C2.6905528 22.77992056 2.6905528 22.77992056 5 21 C5.50070321 17.62642666 5.50070321 17.62642666 5 14 C2.37881615 10.88734418 -0.08642246 9.76664747 -4 9.0625 C-7.85350507 8.77166943 -10.06462108 9.3236251 -13 12 Z M-52 14 C-52.48198463 15.24891614 -52.96045677 16.49918808 -53.4375 17.75 C-53.70433594 18.44609375 -53.97117187 19.1421875 -54.24609375 19.859375 C-55.69060039 23.96087571 -56.11450563 27.38152722 -56.0625 31.75 C-56.05347656 32.73484375 -56.04445313 33.7196875 -56.03515625 34.734375 C-56.02355469 35.48203125 -56.01195312 36.2296875 -56 37 C-55.67 37 -55.34 37 -55 37 C-54.835 36.0925 -54.67 35.185 -54.5 34.25 C-52.3959419 29.69120746 -49.56246563 28.70375736 -45 27 C-42.67456699 26.23212719 -40.37877299 25.59469325 -38 25 C-38.020625 24.05125 -38.04125 23.1025 -38.0625 22.125 C-38 19 -38 19 -37 17 C-37.87011719 17.05220703 -37.87011719 17.05220703 -38.7578125 17.10546875 C-44.009134 17.28744524 -47.39511219 16.83377711 -52 14 Z M-7 18 C-9.10416667 18.80208333 -9.10416667 18.80208333 -9.8125 20.625 C-10.10126052 24.28263329 -9.00863341 27.02543142 -7 30 C-2.59282677 34.30334579 -2.59282677 34.30334579 3 36 C5.22597431 40.32100896 5.13071827 43.30317025 4 48 C1.95342876 50.9675283 -0.6093359 51.94512673 -4 53 C-9.70420588 53.95070098 -15.22570215 54.12029787 -21 54 C-19.90191895 51.71752584 -18.83990632 49.78654176 -17.3125 47.75 C-15.42792908 43.80137522 -16.20622787 41.25750507 -17 37 C-18.65 36.67 -20.3 36.34 -22 36 C-21.80921875 36.60328125 -21.6184375 37.2065625 -21.421875 37.828125 C-21.08929688 39.02695312 -21.08929688 39.02695312 -20.75 40.25 C-20.51796875 41.03890625 -20.2859375 41.8278125 -20.046875 42.640625 C-20 45 -20 45 -21.6171875 47.109375 C-24.61513867 49.48807724 -26.28305638 49.53496189 -30.078125 49.609375 C-31.23828125 49.64160156 -32.3984375 49.67382812 -33.59375 49.70703125 C-34.8003125 49.72121094 -36.006875 49.73539063 -37.25 49.75 C-38.47203125 49.77964844 -39.6940625 49.80929688 -40.953125 49.83984375 C-43.96881644 49.91052402 -46.9837355 49.96323175 -50 50 C-50 50.99 -50 51.98 -50 53 C-39.6343329 61.34720049 -19.66446703 61.18488548 -7 60 C1.19391997 58.80833616 8.82658722 55.66971052 14.4453125 49.3828125 C16.30610432 46.76729393 17 45.24585081 17 42 C15.02 42 13.04 42 11 42 C11.33 40.02 11.66 38.04 12 36 C8.08936776 34.52952664 8.08936776 34.52952664 4 34 C4.5259375 33.13375 4.5259375 33.13375 5.0625 32.25 C6.14917407 29.64198224 5.93065133 28.60582371 5 26 C4.01 26.33 3.02 26.66 2 27 C-0.33299825 27.03954234 -2.66708189 27.04401732 -5 27 C-4.34 24.69 -3.68 22.38 -3 20 C-4.88316159 18.89163577 -4.88316159 18.89163577 -7 18 Z M8 19 C6.63115642 23.51718381 7.52924754 26.58774263 9 31 C10.65 30.67 12.3 30.34 14 30 C14.85387105 26.69432511 14.85387105 26.69432511 15 23 C13.39450853 20.47688989 13.39450853 20.47688989 11 19 C10.01 19 9.02 19 8 19 Z M-35 20 C-33.50958227 23.79379058 -31.30937488 25.68343758 -28 28 C-27.34 28 -26.68 28 -26 28 C-24.7922442 24.37673261 -25.45688872 23.35853631 -27 20 C-29.64 20 -32.28 20 -35 20 Z M-24 20 C-23.67 22.64 -23.34 25.28 -23 28 C-19.70924004 27.62095792 -19.70924004 27.62095792 -17 26 C-16.95936168 24.33382885 -16.957279 22.66611905 -17 21 C-19.31 20.67 -21.62 20.34 -24 20 Z M-43.0625 28.8125 C-44.12597656 29.14894531 -45.18945312 29.48539063 -46.28515625 29.83203125 C-49.27877924 30.82763919 -49.27877924 30.82763919 -51 34 C-49.9942535 35.2341453 -49.9942535 35.2341453 -47.953125 35.0625 C-46.61507812 35.0315625 -46.61507812 35.0315625 -45.25 35 C-39.70097572 34.91295648 -34.34595521 35.45034853 -28.84765625 36.171875 C-25.8497435 36.27346086 -25.8497435 36.27346086 -23.62109375 34.015625 C-23.08613281 33.35046875 -22.55117188 32.6853125 -22 32 C-22.92232422 31.70996094 -22.92232422 31.70996094 -23.86328125 31.4140625 C-25.07564453 31.02347656 -25.07564453 31.02347656 -26.3125 30.625 C-27.11300781 30.36976562 -27.91351563 30.11453125 -28.73828125 29.8515625 C-31 29 -31 29 -34 27 C-37.39217389 27 -39.83931584 27.76682543 -43.0625 28.8125 Z M17 29 C14.90649311 32.4019487 14.82057837 35.05272412 15 39 C16.32 38.34 17.64 37.68 19 37 C19 34.69 19 32.38 19 30 C18.34 29.67 17.68 29.34 17 29 Z M-53 38 C-53 38.66 -53 39.32 -53 40 C-52.01 40 -51.02 40 -50 40 C-50 39.34 -50 38.68 -50 38 C-50.99 38 -51.98 38 -53 38 Z M-45 37 C-45.66 37.66 -46.32 38.32 -47 39 C-46.01 39.33 -45.02 39.66 -44 40 C-44.33 39.01 -44.66 38.02 -45 37 Z M-41 38 C-41 38.66 -41 39.32 -41 40 C-40.01 40.33 -39.02 40.66 -38 41 C-38 40.01 -38 39.02 -38 38 C-38.99 38 -39.98 38 -41 38 Z M-35 38 C-35 38.66 -35 39.32 -35 40 C-34.01 40.33 -33.02 40.66 -32 41 C-32.33 40.01 -32.66 39.02 -33 38 C-33.66 38 -34.32 38 -35 38 Z M-29 39 C-28.34 39.66 -27.68 40.32 -27 41 C-27 40.34 -27 39.68 -27 39 C-27.66 39 -28.32 39 -29 39 Z M-55 43 C-54 45 -54 45 -54 45 Z M-51 43 C-50.34 44.32 -49.68 45.64 -49 47 C-48.34 47 -47.68 47 -47 47 C-47 45.68 -47 44.36 -47 43 C-48.32 43 -49.64 43 -51 43 Z M-44 43 C-43.67 44.32 -43.34 45.64 -43 47 C-42.34 47 -41.68 47 -41 47 C-41 45.68 -41 44.36 -41 43 C-41.99 43 -42.98 43 -44 43 Z M-38 44 C-37.01 44.99 -36.02 45.98 -35 47 C-35 46.01 -35 45.02 -35 44 C-35.99 44 -36.98 44 -38 44 Z M-32 44 C-31.67 44.99 -31.34 45.98 -31 47 C-30.34 47 -29.68 47 -29 47 C-29 46.01 -29 45.02 -29 44 C-29.99 44 -30.98 44 -32 44 Z M-26 44 C-26 44.66 -26 45.32 -26 46 C-25.34 46 -24.68 46 -24 46 C-24 45.34 -24 44.68 -24 44 C-24.66 44 -25.32 44 -26 44 Z M-54 45 C-53.67 46.32 -53.34 47.64 -53 49 C-52.67 48.34 -52.34 47.68 -52 47 C-52.66 46.34 -53.32 45.68 -54 45 Z " fill="#000000" transform="translate(72,17)"/>
<path d="M0 0 C1.28148926 -0.0009668 1.28148926 -0.0009668 2.58886719 -0.00195312 C11.69356473 0.07144495 20.66342183 1.04417788 29.6875 2.1875 C29.6875 2.8475 29.6875 3.5075 29.6875 4.1875 C30.42226562 4.30222656 31.15703125 4.41695312 31.9140625 4.53515625 C39.47176714 6.31281354 45.04799558 11.79325599 49.1796875 18.14453125 C54.26125775 28.39982459 56.0443331 39.99254276 53.6875 51.1875 C53.75904297 52.74210937 53.75904297 52.74210937 53.83203125 54.328125 C53.66322511 58.83570506 52.53200723 62.1680233 50.875 66.3125 C50.48344727 67.34697266 50.48344727 67.34697266 50.08398438 68.40234375 C48.59862016 72.23861775 46.93410037 75.7197745 44.6875 79.1875 C48.95327569 82.1415719 48.95327569 82.1415719 53.6875 84.1875 C54.15716181 88.97805049 54.46321545 92.11518746 51.5625 96.125 C45.7551608 100.29113465 39.69515645 101.2237713 32.6875 100.1875 C27.99344401 98.40150133 23.85551516 95.96617677 19.6875 93.1875 C19.501875 93.785625 19.31625 94.38375 19.125 95 C17.01336035 98.21336468 14.27764405 99.23877372 10.6875 100.1875 C4.29063757 101.13900463 -1.06070246 100.04621509 -6.3125 96.1875 C-8.3125 93.4375 -8.3125 93.4375 -9.3125 91.1875 C-9.786875 91.93 -10.26125 92.6725 -10.75 93.4375 C-15.62493997 98.6691429 -21.17809659 100.42234424 -28.25 100.75 C-34.3003657 100.54083243 -39.45843702 98.8618903 -44.3125 95.1875 C-46.76074537 91.41152281 -47.19597464 87.56881302 -46.3125 83.1875 C-43.41675444 80.04354768 -40.3236667 78.56275715 -36.3125 77.1875 C-37.240625 76.465625 -38.16875 75.74375 -39.125 75 C-43.50110809 71.33604158 -45.39009969 67.79842618 -46.3125 62.1875 C-47.33555058 46.20775995 -48.21979842 25.78728234 -38.3125 12.1875 C-28.58270058 1.7643657 -13.47567819 -0.01069923 0 0 Z M-3.359375 3.2421875 C-13.61261292 3.66732176 -26.43779621 5.84525579 -33.95703125 13.48046875 C-42.6675477 24.45019696 -42.67236624 37.60298788 -42.6875 51.125 C-42.71199219 52.30384766 -42.73648438 53.48269531 -42.76171875 54.69726562 C-42.78868574 62.64803329 -42.08515718 66.23396199 -36.6015625 71.98046875 C-36.05242188 72.44066406 -35.50328125 72.90085937 -34.9375 73.375 C-34.12152344 74.07689453 -34.12152344 74.07689453 -33.2890625 74.79296875 C-18.21144284 85.43073598 8.1741318 84.56555282 25.6875 82.1875 C26.60917969 82.06375 27.53085938 81.94 28.48046875 81.8125 C33.7072474 80.94780397 37.71279303 79.88490184 41.6875 76.1875 C43.67886063 72.97856458 45.23901701 69.67155875 46.6875 66.1875 C47.08243652 65.32729248 47.08243652 65.32729248 47.48535156 64.44970703 C49.89978302 58.80028111 50.15361709 53.65674992 50.0625 47.5625 C50.05379883 46.59699219 50.04509766 45.63148437 50.03613281 44.63671875 C49.78236734 32.17309008 48.38867373 21.58040279 39.125 12.5625 C27.39659504 2.75997703 11.11968212 2.98230699 -3.359375 3.2421875 Z M-42.3125 84.1875 C-43.53852281 87.00014056 -43.6259856 88.33895521 -42.56640625 91.20703125 C-40.24574762 94.87237059 -36.3142924 95.92648503 -32.3125 97.1875 C-26.17291588 98.35472132 -20.46846947 96.62481298 -15.3125 93.1875 C-13.44919584 90.36431188 -12.3125 88.57649588 -12.3125 85.1875 C-16.4321377 83.89506464 -19.98081683 82.92497375 -24.3125 83.1875 C-24.291875 84.156875 -24.27125 85.12625 -24.25 86.125 C-24.3125 89.1875 -24.3125 89.1875 -25.3125 90.1875 C-26.99858966 90.25955511 -28.68750659 90.27136068 -30.375 90.25 C-31.29410156 90.24097656 -32.21320312 90.23195313 -33.16015625 90.22265625 C-33.87042969 90.21105469 -34.58070312 90.19945313 -35.3125 90.1875 C-35.3125 89.1975 -35.3125 88.2075 -35.3125 87.1875 C-32.6725 87.5175 -30.0325 87.8475 -27.3125 88.1875 C-26.9825 87.1975 -26.6525 86.2075 -26.3125 85.1875 C-28.0868028 82.92033531 -29.28398876 82.19657176 -32.0625 81.3125 C-36.26349347 81.15092333 -38.70265834 82.06406373 -42.3125 84.1875 Z M37.6875 85.1875 C37.0275 85.8475 36.3675 86.5075 35.6875 87.1875 C35.6875 88.1775 35.6875 89.1675 35.6875 90.1875 C38.3275 89.8575 40.9675 89.5275 43.6875 89.1875 C43.3575 90.5075 43.0275 91.8275 42.6875 93.1875 C39.7175 92.8575 36.7475 92.5275 33.6875 92.1875 C32.6875 87.4375 32.6875 87.4375 32.6875 85.1875 C29.7175 85.1875 26.7475 85.1875 23.6875 85.1875 C23.3575 86.5075 23.0275 87.8275 22.6875 89.1875 C26.22043255 93.42701906 29.22176646 95.94502046 34.74609375 96.48828125 C35.86113281 96.49214844 36.97617188 96.49601562 38.125 96.5 C39.79369141 96.52513672 39.79369141 96.52513672 41.49609375 96.55078125 C45.02671466 96.14888683 46.89222139 95.3537141 49.6875 93.1875 C51.05090881 90.15159637 51.05090881 90.15159637 49.5 87.0625 C47.99946849 84.1692816 47.99946849 84.1692816 45.875 83.1875 C42.82554599 83.1875 40.49217108 84.0290489 37.6875 85.1875 Z M-7.3125 86.1875 C-5.93356366 90.66904312 -4.85396391 93.33037699 -0.6875 95.6875 C3.90861156 97.65121617 7.92532749 97.59347474 12.6875 96.1875 C15.75635514 94.68408542 15.75635514 94.68408542 17.6875 92.1875 C18.57343998 89.04886296 18.57343998 89.04886296 18.6875 86.1875 C16.7075 86.1875 14.7275 86.1875 12.6875 86.1875 C12.3575 87.1775 12.0275 88.1675 11.6875 89.1875 C8.47298731 90.79475635 5.25137464 90.24498185 1.6875 90.1875 C1.0275 88.8675 0.3675 87.5475 -0.3125 86.1875 C-2.6225 86.1875 -4.9325 86.1875 -7.3125 86.1875 Z M2.6875 86.1875 C3.0175 86.8475 3.3475 87.5075 3.6875 88.1875 C5.3375 88.1875 6.9875 88.1875 8.6875 88.1875 C9.0175 87.5275 9.3475 86.8675 9.6875 86.1875 C7.3775 86.1875 5.0675 86.1875 2.6875 86.1875 Z " fill="#000000" transform="translate(50.3125,4.8125)"/>
<path d="" fill="#000000" transform="translate(0,0)"/>
</svg>
