<?xml version="1.0" encoding="UTF-8"?>
<svg version="1.1" xmlns="http://www.w3.org/2000/svg" width="110" height="110">
<path d="M0 0 C1.1859375 -0.03738281 2.371875 -0.07476563 3.59375 -0.11328125 C16.15708002 -0.23672008 27.15933695 3.52308164 36.25 12.375 C44.5569892 21.46704533 45.69420664 29.89535675 45.4375 41.875 C45.41719727 43.68097656 45.41719727 43.68097656 45.39648438 45.5234375 C45.36135352 48.47442973 45.31215996 51.42447412 45.25 54.375 C44.59 54.375 43.93 54.375 43.25 54.375 C43.12431641 55.68210937 43.12431641 55.68210937 42.99609375 57.015625 C42.13532971 60.89131649 40.71098134 62.98485445 38.3125 66.125 C37.60222656 67.06859375 36.89195313 68.0121875 36.16015625 68.984375 C34.25 71.375 34.25 71.375 32.25 73.375 C33.136875 73.7875 34.02375 74.2 34.9375 74.625 C42.67600423 78.71326638 42.67600423 78.71326638 43.95703125 82.421875 C44.74504345 86.81117663 44.60480515 88.78735398 42.25 92.6875 C35.4597343 99.27589293 29.91206595 99.81786214 20.7734375 99.80859375 C15.66378753 99.1798009 12.55648672 96.96892342 9 93.375 C8.49984375 92.88 7.9996875 92.385 7.484375 91.875 C6.25 90.375 6.25 90.375 5.25 87.375 C5.21261719 87.98988281 5.17523438 88.60476562 5.13671875 89.23828125 C5.07097656 90.04652344 5.00523438 90.85476562 4.9375 91.6875 C4.85048828 92.88826172 4.85048828 92.88826172 4.76171875 94.11328125 C4.15572416 96.79168483 3.40209176 97.71085268 1.25 99.375 C-1.625 100.3125 -1.625 100.3125 -4.75 100.375 C-8.22963863 98.27889482 -9.5451636 97.09063098 -10.67578125 93.140625 C-10.80339844 91.98046875 -10.93101563 90.8203125 -11.0625 89.625 C-11.20300781 88.45453125 -11.34351563 87.2840625 -11.48828125 86.078125 C-11.57464844 85.18609375 -11.66101562 84.2940625 -11.75 83.375 C-12.0903125 83.95507812 -12.430625 84.53515625 -12.78125 85.1328125 C-17.30047274 92.4164534 -22.47297487 97.64073609 -30.75 100.375 C-38.2623741 101.27732426 -45.38336362 100.754597 -51.75 96.375 C-55.22559331 92.95495271 -55.24084394 89.81568506 -55.3125 85.0625 C-55.31081148 80.38248037 -55.07895579 76.75097545 -51.9375 73.0625 C-49.97582974 71.21707687 -48.00983612 69.88155741 -45.75 68.375 C-46.15992188 67.8903125 -46.56984375 67.405625 -46.9921875 66.90625 C-50.70881148 62.28269863 -52.94749532 58.31549197 -53.75 52.375 C-54.00136719 50.84552734 -54.00136719 50.84552734 -54.2578125 49.28515625 C-55.82860551 36.59029277 -52.01555601 25.30068062 -44.828125 14.81640625 C-37.23231938 5.89276243 -27.87641959 1.76466156 -16.45751953 0.58666992 C-10.97537975 0.15808424 -5.49667231 0.06487489 0 0 Z M-10.82421875 3.4921875 C-22.30538098 4.25910207 -33.28212115 7.49026591 -41.22265625 16.265625 C-50.00815457 28.39904978 -51.73872397 39.78006706 -49.75 54.375 C-48.50184007 59.53979971 -45.90991607 63.08173311 -41.75 66.375 C-23.25957672 76.55988889 0.71824342 78.88696746 21.25 74.375 C28.84963097 72.0588334 33.29700134 68.17593497 37.25 61.375 C41.05852038 53.94209465 41.84748435 47.40289983 41.6875 39.125 C41.69458984 38.07570312 41.70167969 37.02640625 41.70898438 35.9453125 C41.63117801 26.48884631 38.76770146 21.35289868 32.40625 14.484375 C23.72658905 5.99340233 12.2847882 3.0088464 0.375 3 C-3.36497002 3.06976968 -7.09025826 3.28122928 -10.82421875 3.4921875 Z M-50.5 77 C-52.43902206 80.68414192 -52.96602953 84.22723298 -52.75 88.375 C-50.96166332 92.57370352 -49.06162708 94.5169038 -44.9375 96.25 C-38.04511252 98.39033474 -32.07751271 97.69414714 -25.75 94.375 C-21.0530677 91.19683623 -17.61683138 87.85881717 -15.75 82.375 C-16.245 79.9 -16.245 79.9 -16.75 77.375 C-22.69 76.385 -22.69 76.385 -28.75 75.375 C-29.265625 76.839375 -29.78125 78.30375 -30.3125 79.8125 C-31.39453125 82.3046875 -31.39453125 82.3046875 -32.75 84.375 C-36.5 85.4375 -36.5 85.4375 -39.75 85.375 C-39.42 84.715 -39.09 84.055 -38.75 83.375 C-37.41923011 83.03157551 -36.08568021 82.69880126 -34.75 82.375 C-32.54142762 80.54713728 -32.54142762 80.54713728 -32.3125 77.9375 C-32.4987003 75.19730638 -32.4987003 75.19730638 -34.875 73.5625 C-41.29329917 70.91146339 -45.5607093 72.41351578 -50.5 77 Z M-11.75 78.375 C-10.75 80.375 -10.75 80.375 -10.75 80.375 Z M12.5 78.375 C11.02273437 78.6534375 11.02273437 78.6534375 9.515625 78.9375 C8.76796875 79.081875 8.0203125 79.22625 7.25 79.375 C8.62208605 85.987148 10.17031831 90.17257497 15.62890625 94.31640625 C19.95641145 97.14231929 24.21063213 96.89809228 29.25 96.375 C33.86578915 95.00125323 36.66827283 93.0259804 39.875 89.4375 C41.51014063 86.52570878 41.51014063 86.52570878 40.875 83.75 C38.68547929 80.54993127 36.73586854 79.08504872 33.25 77.375 C29.61745542 77.43656855 27.29749594 77.63161578 24.3125 79.75 C22.97637532 81.4698968 22.97637532 81.4698968 23.25 84.375 C25.56 84.705 27.87 85.035 30.25 85.375 C29.92 86.035 29.59 86.695 29.25 87.375 C26.375 87.5 26.375 87.5 23.25 87.375 C21.25 85.375 21.25 85.375 21.0625 82.375 C21.25 79.375 21.25 79.375 22.25 77.375 C18.77023497 77.375 15.89461639 77.7284064 12.5 78.375 Z M-7.75 79.375 C-7.80449838 81.10380982 -7.84301688 82.83312712 -7.875 84.5625 C-7.89820313 85.52542969 -7.92140625 86.48835938 -7.9453125 87.48046875 C-7.73829316 90.54849544 -7.17260643 92.65559587 -5.75 95.375 C-3.30460214 96.44772562 -3.30460214 96.44772562 -0.75 96.375 C1.63392117 94.43529948 1.63392117 94.43529948 1.4453125 90.8984375 C1.43201493 89.51549032 1.40816232 88.13261346 1.375 86.75 C1.36597656 86.04359375 1.35695313 85.3371875 1.34765625 84.609375 C1.32407603 82.86443902 1.28820461 81.11967705 1.25 79.375 C-1.72 79.375 -4.69 79.375 -7.75 79.375 Z " fill="#000000" transform="translate(59.75,4.625)"/>
<path d="M0 0 C1.12801025 -0.00845947 1.12801025 -0.00845947 2.27880859 -0.01708984 C12.92546001 0.120512 21.83284991 3.57577728 29.65234375 11 C35.02069098 17.2241707 34.41516322 24.56921847 34.05859375 32.33886719 C33.52290776 38.09749161 31.18015157 42.58509351 27.75 47.125 C20.56034145 52.59539238 13.87516653 55.10512289 4.875 55.3125 C4.04613281 55.36277344 3.21726563 55.41304687 2.36328125 55.46484375 C-3.3750832 55.67928188 -8.80788562 55.0137175 -14.4375 54 C-15.1073291 53.88237305 -15.7771582 53.76474609 -16.46728516 53.64355469 C-20.77234228 52.80422418 -24.29662492 51.43020748 -28.125 49.3125 C-29.7028125 48.44625 -29.7028125 48.44625 -31.3125 47.5625 C-34.87836647 44.70980682 -35.90059259 42.70596189 -37.125 38.3125 C-37.54724861 29.32212326 -34.29055338 17.78371736 -28.58984375 10.80078125 C-20.21108297 2.2879603 -11.66926891 0.08336893 0 0 Z M5.875 4.3125 C9.51116656 6.2914756 12.75925629 6.8376065 16.875 7.3125 C14.47736815 4.91486815 13.54226502 4.96969414 10.25 4.6875 C9.02410156 4.57535156 9.02410156 4.57535156 7.7734375 4.4609375 C7.14695313 4.41195313 6.52046875 4.36296875 5.875 4.3125 Z M-22.8046875 16.5859375 C-26.02573511 20.79807668 -27.61371482 23.99513413 -28.125 29.3125 C-28.20105469 30.05242188 -28.27710938 30.79234375 -28.35546875 31.5546875 C-28.6719291 36.48434736 -28.6719291 36.48434736 -26.25 40.625 C-18.64124742 44.73372639 -11.79013096 47.00158266 -3.125 47.3125 C-2.28839844 47.35246094 -1.45179687 47.39242187 -0.58984375 47.43359375 C7.99973293 47.65928587 15.85425963 46.50784788 22.875 41.3125 C26.83331331 35.24308626 27.26189551 27.42801309 26.875 20.3125 C24.24969769 14.29724423 19.64699258 12.7223276 13.875 10.3125 C13.11058594 9.98894531 12.34617188 9.66539063 11.55859375 9.33203125 C6.31901313 7.44365448 1.16557469 6.98439505 -4.375 6.875 C-5.38554443 6.84152466 -5.38554443 6.84152466 -6.41650391 6.80737305 C-14.03798397 6.84224749 -18.2733573 11.01074065 -22.8046875 16.5859375 Z M-25.125 12.3125 C-28.03727269 15.60054981 -29.62201212 17.91135603 -30.125 22.3125 C-27.50999232 19.94654067 -25.73500397 17.45200774 -24.125 14.3125 C-24.455 13.6525 -24.785 12.9925 -25.125 12.3125 Z M-31.125 22.3125 C-33.23725935 28.38524563 -34.56152484 35.17192839 -32.39453125 41.41796875 C-29.11468365 46.31251055 -22.40592081 49.24736117 -16.8125 50.625 C-0.43663942 53.59996536 -0.43663942 53.59996536 14.875 49.3125 C14.19099121 49.33344727 13.50698242 49.35439453 12.80224609 49.37597656 C-19.08506902 50.22315931 -19.08506902 50.22315931 -29.125 41.3125 C-33.00338482 35.95663525 -30.98534309 28.44244449 -30.125 22.3125 C-30.455 22.3125 -30.785 22.3125 -31.125 22.3125 Z M29.875 23.3125 C29.875 25.6225 29.875 27.9325 29.875 30.3125 C30.205 30.3125 30.535 30.3125 30.875 30.3125 C30.875 28.0025 30.875 25.6925 30.875 23.3125 C30.545 23.3125 30.215 23.3125 29.875 23.3125 Z M22.875 44.3125 C22.545 44.9725 22.215 45.6325 21.875 46.3125 C22.865 45.9825 23.855 45.6525 24.875 45.3125 C24.215 44.9825 23.555 44.6525 22.875 44.3125 Z " fill="#000000" transform="translate(57.125,16.6875)"/>
<path d="M0 0 C0.66 0 1.32 0 2 0 C2.20496094 0.75925781 2.40992187 1.51851562 2.62109375 2.30078125 C2.89050781 3.29464844 3.15992187 4.28851563 3.4375 5.3125 C3.70433594 6.29863281 3.97117187 7.28476562 4.24609375 8.30078125 C4.78079425 10.21517526 5.37144538 12.11433615 6 14 C10.67508911 16.2145159 15.52293709 16.41342065 20.609375 16.75390625 C23 17 23 17 25 18 C25 18.66 25 19.32 25 20 C23.96359375 20.12117188 22.9271875 20.24234375 21.859375 20.3671875 C20.48953562 20.53607181 19.11974651 20.70536411 17.75 20.875 C17.06808594 20.95363281 16.38617188 21.03226563 15.68359375 21.11328125 C10.52644844 21.69969592 10.52644844 21.69969592 6 24 C4.87481809 26.05798912 4.87481809 26.05798912 4.25 28.4375 C4.00765625 29.21996094 3.7653125 30.00242187 3.515625 30.80859375 C2.88548033 33.11150011 2.88548033 33.11150011 3 36 C2.01 36 1.02 36 0 36 C-0.15855469 35.16855469 -0.31710938 34.33710937 -0.48046875 33.48046875 C-0.71378906 32.39378906 -0.94710937 31.30710937 -1.1875 30.1875 C-1.40792969 29.10855469 -1.62835938 28.02960937 -1.85546875 26.91796875 C-2.77378382 23.88627074 -2.77378382 23.88627074 -5.21875 22.15625 C-8.36023971 20.85023742 -10.92158803 20.49881384 -14.3125 20.3125 C-15.91544922 20.21388672 -15.91544922 20.21388672 -17.55078125 20.11328125 C-18.35902344 20.07589844 -19.16726562 20.03851563 -20 20 C-19.505 18.515 -19.505 18.515 -19 17 C-17.53626953 16.87044922 -17.53626953 16.87044922 -16.04296875 16.73828125 C-14.77066406 16.59777344 -13.49835937 16.45726563 -12.1875 16.3125 C-10.29064453 16.12107422 -10.29064453 16.12107422 -8.35546875 15.92578125 C-4.89355484 15.31309069 -4.89355484 15.31309069 -3.08984375 12.71484375 C-2.03657544 10.09111085 -1.55396335 8.05689887 -1.375 5.25 C-1.08540925 1.08540925 -1.08540925 1.08540925 0 0 Z M1 12 C-2.61436939 15.50028135 -2.61436939 15.50028135 -4 20 C-2.03852126 21.38938077 -0.03833424 22.7260411 2 24 C3.98 22.35 5.96 20.7 8 19 C7.02433888 17.83040013 6.044375 16.66438823 5.0625 15.5 C4.51722656 14.8503125 3.97195312 14.200625 3.41015625 13.53125 C2.94480469 13.0259375 2.47945312 12.520625 2 12 C1.67 12 1.34 12 1 12 Z " fill="#000000" transform="translate(54,26)"/>
<path d="M0 0 C2.31 0.33 4.62 0.66 7 1 C6.67 2.98 6.34 4.96 6 7 C3.6875 7.6875 3.6875 7.6875 1 8 C-0.8125 6.5625 -0.8125 6.5625 -2 5 C-1.34 3.35 -0.68 1.7 0 0 Z M2 3 C2.33 3.66 2.66 4.32 3 5 C3.33 4.34 3.66 3.68 4 3 C3.34 3 2.68 3 2 3 Z " fill="#000000" transform="translate(40,29)"/>
<path d="M0 0 C2.6875 0.3125 2.6875 0.3125 5 1 C5.625 2.8125 5.625 2.8125 6 5 C5.01 6.485 5.01 6.485 4 8 C1.375 8.1875 1.375 8.1875 -1 8 C-1.66 6.35 -2.32 4.7 -3 3 C-1.8125 1.4375 -1.8125 1.4375 0 0 Z M1 3 C2 5 2 5 2 5 Z " fill="#000000" transform="translate(70,51)"/>
<path d="M0 0 C2.5625 -0.25 2.5625 -0.25 5 0 C6 1 6 1 6.125 3.5 C6 6 6 6 5 7 C3.00041636 7.04080783 0.99954746 7.04254356 -1 7 C-1.625 5.1875 -1.625 5.1875 -2 3 C-1.34 2.01 -0.68 1.02 0 0 Z M2 3 C3 5 3 5 3 5 Z " fill="#000000" transform="translate(41,53)"/>
<path d="M0 0 C2.5625 0.1875 2.5625 0.1875 4.5625 2.1875 C4.1875 4.8125 4.1875 4.8125 3.5625 7.1875 C0.5925 6.6925 0.5925 6.6925 -2.4375 6.1875 C-2.81968767 4.53135343 -3.15145102 2.86292976 -3.4375 1.1875 C-2.4375 0.1875 -2.4375 0.1875 0 0 Z " fill="#000000" transform="translate(71.4375,30.8125)"/>
</svg>
