<?xml version="1.0" encoding="UTF-8"?>
<!DOCTYPE svg PUBLIC "-//W3C//DTD SVG 1.1//EN" "http://www.w3.org/Graphics/SVG/1.1/DTD/svg11.dtd">
<svg xmlns="http://www.w3.org/2000/svg" version="1.1" width="110px" height="110px" style="shape-rendering:geometricPrecision; text-rendering:geometricPrecision; image-rendering:optimizeQuality; fill-rule:evenodd; clip-rule:evenodd" xmlns:xlink="http://www.w3.org/1999/xlink">
<g><path style="opacity:0.772" fill="#000000" d="M 50.5,4.5 C 65.7726,2.82186 80.106,5.65519 93.5,13C 100.112,19.0576 103.946,26.5576 105,35.5C 105.667,42.8333 105.667,50.1667 105,57.5C 101.972,63.5342 97.8049,68.7009 92.5,73C 102.245,73.7856 106.578,79.119 105.5,89C 105.379,91.7858 104.545,94.2858 103,96.5C 95.9346,103.693 87.768,105.527 78.5,102C 77.3147,100.647 75.9814,99.4803 74.5,98.5C 72.4262,101.078 69.7595,102.578 66.5,103C 66.8333,103.333 67.1667,103.667 67.5,104C 57.7168,105.515 48.8835,103.348 41,97.5C 33.2842,104.449 24.4508,106.283 14.5,103C 5.83371,99.2477 3.00037,92.7477 6,83.5C 8.53587,78.888 12.0359,76.2214 16.5,75.5C 12.7465,71.2438 9.57985,66.5772 7,61.5C 5.51729,52.2127 5.18396,42.8794 6,33.5C 14.7473,14.2157 29.5806,4.54903 50.5,4.5 Z M 50.5,7.5 C 62.1741,6.60972 73.5074,8.10972 84.5,12C 92.3193,15.4641 97.4859,21.2974 100,29.5C 105.986,45.3411 102.82,58.8411 90.5,70C 84.4682,73.3476 78.4682,76.6809 72.5,80C 53.5198,83.86 35.5198,81.1934 18.5,72C 14.8841,69.2575 12.3841,65.7575 11,61.5C 9.55751,52.2075 9.22418,42.8742 10,33.5C 14.0182,25.1461 19.8515,18.3128 27.5,13C 35.0346,10.0315 42.7013,8.19818 50.5,7.5 Z M 43.5,18.5 C 45.4346,17.291 47.4346,17.4577 49.5,19C 47.4024,19.6776 45.4024,19.5109 43.5,18.5 Z M 55.5,17.5 C 59.3935,17.1098 63.0602,17.7765 66.5,19.5C 64.288,20.1135 61.9546,20.1135 59.5,19.5C 57.6672,19.4146 56.3339,18.7479 55.5,17.5 Z M 37.5,18.5 C 38.8333,18.5 40.1667,18.5 41.5,18.5C 41.3601,20.1238 42.0267,21.2904 43.5,22C 46.1667,22.3333 48.8333,22.6667 51.5,23C 48.4674,24.8444 45.1341,25.8444 41.5,26C 36.8788,28.0768 35.0454,31.5768 36,36.5C 48.1697,41.302 59.8364,40.302 71,33.5C 72.8277,31.5969 72.661,29.7636 70.5,28C 65.9859,26.0625 61.3192,24.5625 56.5,23.5C 59.7087,22.2126 62.8753,22.2126 66,23.5C 68.4397,22.7262 69.773,21.0595 70,18.5C 77.8425,19.9731 81.3425,24.4731 80.5,32C 82.6975,33.8783 82.8642,36.0449 81,38.5C 78.2002,43.3237 74.0336,46.3237 68.5,47.5C 68.1667,47.8333 67.8333,48.1667 67.5,48.5C 73.1533,49.537 77.9867,47.8703 82,43.5C 83.7496,39.4077 85.2496,35.241 86.5,31C 84.9926,30.1627 84.4926,28.9961 85,27.5C 88.8785,30.2544 90.2118,33.9211 89,38.5C 87.6189,40.6349 86.6189,42.9682 86,45.5C 82.0474,49.8943 77.2141,52.8943 71.5,54.5C 71.8333,55.5 72.5,56.1667 73.5,56.5C 80.5018,54.9836 86.0018,51.317 90,45.5C 89.9846,48.5698 89.3179,51.5698 88,54.5C 84.3581,57.7384 80.1915,60.0717 75.5,61.5C 75.8333,62.5 76.5,63.1667 77.5,63.5C 78.7678,62.5721 80.1011,62.4054 81.5,63C 74.6557,68.0901 66.989,70.9234 58.5,71.5C 54.5472,71.7107 53.7138,70.3773 56,67.5C 57.175,60.6929 55.0083,55.1929 49.5,51C 42.721,47.5897 35.721,46.9231 28.5,49C 25.3333,50.8333 22.8333,53.3333 21,56.5C 14.7846,38.6079 20.2846,25.9413 37.5,18.5 Z M 46.5,27.5 C 48.1992,27.3398 49.8659,27.5065 51.5,28C 48.9272,32.8467 44.9272,35.18 39.5,35C 38.5494,34.2825 38.3828,33.4491 39,32.5C 40.9133,29.7197 43.4133,28.053 46.5,27.5 Z M 51.5,33.5 C 53.385,31.9468 54.385,29.9468 54.5,27.5C 57.8738,27.6744 61.2072,28.1744 64.5,29C 66.2861,29.1962 67.6195,30.0295 68.5,31.5C 62.5024,35.832 55.8358,37.332 48.5,36C 49.3734,34.955 50.3734,34.1217 51.5,33.5 Z M 33.5,50.5 C 43.6097,50.1375 50.2763,54.6375 53.5,64C 51.9174,69.624 48.2507,71.9573 42.5,71C 35.4091,69.5384 29.2424,66.3717 24,61.5C 24.0914,55.2383 27.2581,51.5717 33.5,50.5 Z M 34.5,59.5 C 37.4225,58.2503 40.0891,58.9169 42.5,61.5C 39.566,62.3071 36.8993,61.6404 34.5,59.5 Z M 90.5,76.5 C 95.1524,75.984 98.6524,77.6507 101,81.5C 103.507,93.3499 98.6739,99.6832 86.5,100.5C 81.2183,99.7435 77.0516,97.0768 74,92.5C 70.7448,86.4781 72.4114,82.8115 79,81.5C 79.4442,85.517 81.6108,88.017 85.5,89C 88.8168,89.4983 92.1501,89.665 95.5,89.5C 94.736,86.213 92.9027,83.5463 90,81.5C 89.3603,79.735 89.5269,78.0683 90.5,76.5 Z M 84.5,77.5 C 86.0019,79.768 87.3352,82.268 88.5,85C 84.6313,85.5603 82.298,83.8936 81.5,80C 82.5707,79.1482 83.5707,78.3149 84.5,77.5 Z M 16.5,78.5 C 19.8066,78.0632 22.8066,78.7298 25.5,80.5C 23.5536,84.7344 20.3869,87.7344 16,89.5C 15.3828,90.4491 15.5494,91.2825 16.5,92C 21.6048,92.3167 26.6048,91.65 31.5,90C 33.4023,87.6554 35.4023,85.4888 37.5,83.5C 39.1347,84.0463 40.8014,84.3796 42.5,84.5C 40.195,97.3294 32.5283,102.829 19.5,101C 9.83779,99.521 6.33779,94.021 9,84.5C 10.7074,81.4096 13.2074,79.4096 16.5,78.5 Z M 27.5,81.5 C 32.3943,81.5231 33.3943,83.3564 30.5,87C 28.6354,88.3014 26.6354,88.6347 24.5,88C 26.4506,86.2658 27.4506,84.0991 27.5,81.5 Z M 45.5,84.5 C 52.7652,86.9133 60.0985,86.9133 67.5,84.5C 69.1384,88.3823 70.4718,92.3823 71.5,96.5C 68.1843,99.6054 64.1843,100.939 59.5,100.5C 55.3065,100.602 51.3065,99.769 47.5,98C 45.3874,97.1283 44.0541,95.6283 43.5,93.5C 44.9322,90.6727 45.5988,87.6727 45.5,84.5 Z M 55.5,91.5 C 56.3764,91.3691 57.0431,91.7025 57.5,92.5C 55.1916,93.8734 54.5249,93.5401 55.5,91.5 Z"/></g>
<g><path style="opacity:0.753" fill="#000000" d="M 49.5,13.5 C 60.0645,13.5067 70.3979,15.0067 80.5,18C 81.6721,18.4186 82.6721,19.0853 83.5,20C 82.4829,21.0495 82.3162,22.2161 83,23.5C 89.155,25.1562 92.655,29.1562 93.5,35.5C 93.7939,41.8512 93.2939,48.1845 92,54.5C 90.7533,57.3286 89.2533,59.9952 87.5,62.5C 73.5762,74.3306 57.5762,78.1639 39.5,74C 19.4922,68.7752 11.6589,56.2752 16,36.5C 21.6281,20.6972 32.7948,13.0305 49.5,13.5 Z M 43.5,18.5 C 45.4024,19.5109 47.4024,19.6776 49.5,19C 47.4346,17.4577 45.4346,17.291 43.5,18.5 Z M 55.5,17.5 C 56.3339,18.7479 57.6672,19.4146 59.5,19.5C 61.9546,20.1135 64.288,20.1135 66.5,19.5C 63.0602,17.7765 59.3935,17.1098 55.5,17.5 Z M 37.5,18.5 C 20.2846,25.9413 14.7846,38.6079 21,56.5C 22.8333,53.3333 25.3333,50.8333 28.5,49C 35.721,46.9231 42.721,47.5897 49.5,51C 55.0083,55.1929 57.175,60.6929 56,67.5C 53.7138,70.3773 54.5472,71.7107 58.5,71.5C 66.989,70.9234 74.6557,68.0901 81.5,63C 80.1011,62.4054 78.7678,62.5721 77.5,63.5C 76.5,63.1667 75.8333,62.5 75.5,61.5C 80.1915,60.0717 84.3581,57.7384 88,54.5C 89.3179,51.5698 89.9846,48.5698 90,45.5C 86.0018,51.317 80.5018,54.9836 73.5,56.5C 72.5,56.1667 71.8333,55.5 71.5,54.5C 77.2141,52.8943 82.0474,49.8943 86,45.5C 86.6189,42.9682 87.6189,40.6349 89,38.5C 90.2118,33.9211 88.8785,30.2544 85,27.5C 84.4926,28.9961 84.9926,30.1627 86.5,31C 85.2496,35.241 83.7496,39.4077 82,43.5C 77.9867,47.8703 73.1533,49.537 67.5,48.5C 67.8333,48.1667 68.1667,47.8333 68.5,47.5C 74.0336,46.3237 78.2002,43.3237 81,38.5C 82.8642,36.0449 82.6975,33.8783 80.5,32C 81.3425,24.4731 77.8425,19.9731 70,18.5C 69.773,21.0595 68.4397,22.7262 66,23.5C 62.8753,22.2126 59.7087,22.2126 56.5,23.5C 61.3192,24.5625 65.9859,26.0625 70.5,28C 72.661,29.7636 72.8277,31.5969 71,33.5C 59.8364,40.302 48.1697,41.302 36,36.5C 35.0454,31.5768 36.8788,28.0768 41.5,26C 45.1341,25.8444 48.4674,24.8444 51.5,23C 48.8333,22.6667 46.1667,22.3333 43.5,22C 42.0267,21.2904 41.3601,20.1238 41.5,18.5C 40.1667,18.5 38.8333,18.5 37.5,18.5 Z M 46.5,27.5 C 43.4133,28.053 40.9133,29.7197 39,32.5C 38.3828,33.4491 38.5494,34.2825 39.5,35C 44.9272,35.18 48.9272,32.8467 51.5,28C 49.8659,27.5065 48.1992,27.3398 46.5,27.5 Z M 51.5,33.5 C 50.3734,34.1217 49.3734,34.955 48.5,36C 55.8358,37.332 62.5024,35.832 68.5,31.5C 67.6195,30.0295 66.2861,29.1962 64.5,29C 61.2072,28.1744 57.8738,27.6744 54.5,27.5C 54.385,29.9468 53.385,31.9468 51.5,33.5 Z M 33.5,50.5 C 27.2581,51.5717 24.0914,55.2383 24,61.5C 29.2424,66.3717 35.4091,69.5384 42.5,71C 48.2507,71.9573 51.9174,69.624 53.5,64C 50.2763,54.6375 43.6097,50.1375 33.5,50.5 Z M 34.5,59.5 C 36.8993,61.6404 39.566,62.3071 42.5,61.5C 40.0891,58.9169 37.4225,58.2503 34.5,59.5 Z"/></g>
<g><path style="opacity:0.756" fill="#000000" d="M 31.5,55.5 C 36.7654,54.5706 41.2654,55.9039 45,59.5C 47.0538,63.4764 45.7205,65.4764 41,65.5C 37,65.1667 33.6667,63.5 31,60.5C 30.3603,58.735 30.5269,57.0683 31.5,55.5 Z M 34.5,59.5 C 36.8993,61.6404 39.566,62.3071 42.5,61.5C 40.0891,58.9169 37.4225,58.2503 34.5,59.5 Z"/></g>
<g><path style="opacity:0.75" fill="#000000" d="M 54.5,88.5 C 59.3548,87.964 61.5214,89.964 61,94.5C 58.3661,96.594 55.5328,96.9273 52.5,95.5C 50.9112,92.4116 51.5779,90.0783 54.5,88.5 Z M 55.5,91.5 C 54.5249,93.5401 55.1916,93.8734 57.5,92.5C 57.0431,91.7025 56.3764,91.3691 55.5,91.5 Z"/></g>
</svg>
