<?xml version="1.0" encoding="UTF-8"?>
<svg version="1.1" xmlns="http://www.w3.org/2000/svg" width="110" height="110">
<path d="M0 0 C15.06189604 -0.46865782 28.75516016 0.41121353 41.70605469 9.08251953 C51.94217089 19.37222797 53.20746907 31.03646041 53.28491211 44.96118164 C53.13836687 51.67001156 52.19007105 56.15313841 47.59667969 61.29736328 C46.97277344 61.88646484 46.34886719 62.47556641 45.70605469 63.08251953 C44.92488281 63.91976562 44.92488281 63.91976562 44.12792969 64.77392578 C43.03622423 65.92523585 41.88005203 67.01524922 40.70605469 68.08251953 C41.24875 68.25267578 41.79144531 68.42283203 42.35058594 68.59814453 C49.63713479 71.0663809 49.63713479 71.0663809 51.70605469 75.08251953 C52.75268134 78.37503253 52.80953368 81.39028427 52.76855469 84.83251953 C52.75953125 85.81736328 52.75050781 86.80220703 52.74121094 87.81689453 C52.72960937 88.56455078 52.71800781 89.31220703 52.70605469 90.08251953 C52.04605469 90.08251953 51.38605469 90.08251953 50.70605469 90.08251953 C50.44953125 90.68708984 50.19300781 91.29166016 49.92871094 91.91455078 C47.51578414 96.19306316 43.0574452 98.41817118 38.42480469 99.72705078 C32.92907936 100.58340524 29.58193391 99.66386736 24.70605469 97.08251953 C23.90167969 96.69064453 23.09730469 96.29876953 22.26855469 95.89501953 C21.75292969 95.62689453 21.23730469 95.35876953 20.70605469 95.08251953 C20.27292969 95.53626953 19.83980469 95.99001953 19.39355469 96.45751953 C14.85523595 100.82775239 11.08464261 100.49097505 5.07324219 100.41064453 C-0.64088351 99.85381558 -5.02487977 97.46609608 -9.85644531 94.52001953 C-12.97714434 93.95989406 -13.77861333 94.73702522 -16.41894531 96.39501953 C-17.08152344 96.86552734 -17.74410156 97.33603516 -18.42675781 97.82080078 C-23.19443129 101.04247135 -28.77754181 100.49757041 -34.29394531 100.08251953 C-38.49113334 99.18664915 -41.67018372 97.47237053 -45.29394531 95.20751953 C-48.53628564 90.14136277 -48.22928621 84.91378543 -47.29394531 79.08251953 C-45.91338429 76.25033919 -44.76784635 75.14410373 -42.29394531 73.08251953 C-41.63394531 73.08251953 -40.97394531 73.08251953 -40.29394531 73.08251953 C-39.79894531 72.09251953 -39.79894531 72.09251953 -39.29394531 71.08251953 C-38.30394531 71.41251953 -37.31394531 71.74251953 -36.29394531 72.08251953 C-38.24382637 69.08805933 -40.16898286 66.23688491 -42.41894531 63.45751953 C-49.23195992 54.82770102 -48.17697043 42.1567089 -47.60205078 31.67382812 C-46.4382738 21.88592889 -38.52590583 14.16305879 -31.29394531 8.08251953 C-22.18714947 1.23741145 -10.9759685 0.39483582 0 0 Z M-35.78613281 16.93798828 C-41.81031639 24.09104068 -44.07963322 30.1872182 -43.73144531 39.52001953 C-43.72564453 40.39722656 -43.71984375 41.27443359 -43.71386719 42.17822266 C-43.55105615 51.01560565 -43.06499048 59.63063256 -36.68847656 66.26220703 C-31.78964083 69.98628118 -26.04062544 72.01081165 -20.29394531 74.08251953 C-19.36453125 74.43958984 -18.43511719 74.79666016 -17.47753906 75.16455078 C-3.80674011 79.1064376 12.50772194 79.7255522 25.63183594 73.75048828 C28.114827 72.32248583 30.39707077 70.77466298 32.70605469 69.08251953 C33.39957031 68.64166016 34.09308594 68.20080078 34.80761719 67.74658203 C40.99700654 63.61235671 46.97605574 57.14826231 49.41308594 50.01220703 C51.15906759 38.51200791 49.34778753 24.36903981 42.40136719 14.87939453 C38.50302006 10.74750587 34.63519152 8.39194516 29.33105469 6.39501953 C28.25082031 5.97865234 27.17058594 5.56228516 26.05761719 5.13330078 C6.01846943 -1.14936909 -20.97612868 1.84062586 -35.78613281 16.93798828 Z M37.70605469 72.08251953 C36.75585053 74.32235454 36.75585053 74.32235454 36.70605469 77.08251953 C39.03938802 79.7491862 39.03938802 79.7491862 41.70605469 82.08251953 C42.03605469 83.07251953 42.36605469 84.06251953 42.70605469 85.08251953 C41.12195475 84.96764205 39.53876506 84.84017445 37.95605469 84.70751953 C36.63347656 84.60310547 36.63347656 84.60310547 35.28417969 84.49658203 C32.66800054 84.07640781 30.92871381 83.51137183 28.70605469 82.08251953 C27.45605469 79.45751953 27.45605469 79.45751953 26.70605469 77.08251953 C23.24105469 78.56751953 23.24105469 78.56751953 19.70605469 80.08251953 C19.80017506 85.44738104 20.28746781 88.16393265 24.14355469 92.02001953 C27.97202064 95.5287806 30.28856448 96.38407 35.61621094 96.29736328 C40.02737049 95.84387959 43.03127844 93.5519291 46.58105469 91.08251953 C49.35306508 87.16909309 49.2268545 84.39460251 49.17480469 79.70361328 C48.63059201 76.66055739 47.90173002 75.2484566 45.70605469 73.08251953 C43.67439809 72.39401125 43.67439809 72.39401125 41.51855469 72.33251953 C40.26042969 72.25001953 39.00230469 72.16751953 37.70605469 72.08251953 Z M30.08105469 74.58251953 C29.62730469 75.07751953 29.17355469 75.57251953 28.70605469 76.08251953 C29.34585317 78.1149368 29.34585317 78.1149368 30.70605469 80.08251953 C33.2612539 80.89423181 33.2612539 80.89423181 35.70605469 81.08251953 C35.04605469 78.44251953 34.38605469 75.80251953 33.70605469 73.08251953 C31.58240988 72.85642616 31.58240988 72.85642616 30.08105469 74.58251953 Z M-42.29394531 77.08251953 C-45.12161547 81.32402477 -45.06550656 85.10316548 -44.29394531 90.08251953 C-41.3060058 94.30078708 -38.3041933 96.00187781 -33.29394531 97.08251953 C-27.4115981 97.55690237 -22.48556381 97.06186376 -17.29394531 94.08251953 C-13.86268549 91.05953619 -11.59796821 87.46877836 -10.29394531 83.08251953 C-10.29394531 82.09251953 -10.29394531 81.10251953 -10.29394531 80.08251953 C-12.60394531 79.75251953 -14.91394531 79.42251953 -17.29394531 79.08251953 C-17.76832031 80.03126953 -18.24269531 80.98001953 -18.73144531 81.95751953 C-20.66892975 84.8809836 -22.27108752 85.67824692 -25.66894531 86.45751953 C-29.2296558 87.04606672 -32.68157023 87.26776954 -36.29394531 87.08251953 C-36.29394531 86.42251953 -36.29394531 85.76251953 -36.29394531 85.08251953 C-35.18019531 84.54626953 -34.06644531 84.01001953 -32.91894531 83.45751953 C-29.84818449 81.73293063 -29.36375152 81.24034227 -27.85644531 77.83251953 C-27.67082031 76.92501953 -27.48519531 76.01751953 -27.29394531 75.08251953 C-32.52333036 72.46782701 -37.61733597 74.14604389 -42.29394531 77.08251953 Z M-25.29394531 77.08251953 C-26.77894531 80.54751953 -26.77894531 80.54751953 -28.29394531 84.08251953 C-25.34666996 83.98082792 -25.34666996 83.98082792 -22.29394531 83.08251953 C-20.84103258 80.61996268 -20.84103258 80.61996268 -20.29394531 78.08251953 C-21.94394531 77.75251953 -23.59394531 77.42251953 -25.29394531 77.08251953 Z M-7.29394531 80.08251953 C-8.37691423 83.33142628 -9.24253513 86.34564022 -9.48144531 89.77001953 C-7.75368288 93.13460953 -5.49112854 93.99824306 -2.03613281 95.35595703 C3.94676411 96.94116904 10.78083021 97.38659025 16.45605469 94.58251953 C17.19855469 94.08751953 17.94105469 93.59251953 18.70605469 93.08251953 C17.71605469 88.79251953 16.72605469 84.50251953 15.70605469 80.08251953 C13.78792969 80.33001953 13.78792969 80.33001953 11.83105469 80.58251953 C5.46332086 81.28669231 -1.0746992 81.87571177 -7.29394531 80.08251953 Z " fill="#000000" transform="translate(53.2939453125,4.91748046875)"/>
<path d="M0 0 C10.70260465 -0.32215198 21.83539281 0.91075198 31.2734375 6.1796875 C31.2734375 7.4996875 31.2734375 8.8196875 31.2734375 10.1796875 C32.2221875 10.6334375 33.1709375 11.0871875 34.1484375 11.5546875 C37.94809984 13.53051192 38.96940051 14.31824935 40.3984375 18.3671875 C42.53079529 27.90212069 42.61323318 38.03321735 38.0234375 46.80859375 C34.87389257 51.07594592 30.80936182 53.55702036 26.2734375 56.1796875 C25.67402344 56.58960938 25.07460937 56.99953125 24.45703125 57.421875 C14.66747064 63.88534393 0.1434679 63.32515954 -10.9765625 61.4921875 C-20.51944261 59.23944203 -29.21718337 54.17977048 -35.14453125 46.29296875 C-39.40869819 38.65239658 -38.2352878 28.51939175 -35.9296875 20.359375 C-32.58607916 12.2744204 -26.7739111 5.7293399 -18.7265625 2.1796875 C-12.50329739 0.83238268 -6.34591199 0.41821196 0 0 Z M-8.7265625 4.1796875 C-8.3965625 4.8396875 -8.0665625 5.4996875 -7.7265625 6.1796875 C-6.0765625 6.1796875 -4.4265625 6.1796875 -2.7265625 6.1796875 C-3.3865625 5.5196875 -4.0465625 4.8596875 -4.7265625 4.1796875 C-6.0465625 4.1796875 -7.3665625 4.1796875 -8.7265625 4.1796875 Z M3.2734375 4.1796875 C3.2734375 4.8396875 3.2734375 5.4996875 3.2734375 6.1796875 C6.9034375 6.5096875 10.5334375 6.8396875 14.2734375 7.1796875 C14.2734375 6.5196875 14.2734375 5.8596875 14.2734375 5.1796875 C11.52264866 4.26275789 9.91394837 4.07082667 7.0859375 4.1171875 C5.8278125 4.1378125 4.5696875 4.1584375 3.2734375 4.1796875 Z M-26.60546875 11.7890625 C-32.55009715 18.28494717 -34.19463704 24.86310756 -33.96484375 33.546875 C-33.65289534 36.99364919 -32.88410315 39.92410443 -31.7265625 43.1796875 C-31.29085938 42.76976562 -30.85515625 42.35984375 -30.40625 41.9375 C-26.02950691 37.97758959 -22.54796415 35.16699181 -16.375 35.1875 C-9.70969938 35.65064778 -4.1087205 36.67215277 0.6484375 41.6796875 C3.73950947 46.43518284 3.90178202 51.11650794 2.7734375 56.6171875 C2.6084375 57.1328125 2.4434375 57.6484375 2.2734375 58.1796875 C12.99425228 58.56257374 20.10226259 55.54077872 29.2734375 50.1796875 C26.48425601 49.07427824 26.48425601 49.07427824 24.2734375 49.1796875 C23.9434375 48.5196875 23.6134375 47.8596875 23.2734375 47.1796875 C24.1396875 47.0971875 25.0059375 47.0146875 25.8984375 46.9296875 C29.91748398 46.03656606 32.12693245 44.83673621 35.2734375 42.1796875 C36.75178727 39.82825436 37.43664975 37.88694197 38.2734375 35.1796875 C37.7784375 33.6946875 37.7784375 33.6946875 37.2734375 32.1796875 C36.5309375 32.9428125 35.7884375 33.7059375 35.0234375 34.4921875 C30.14247037 39.26222356 26.89693576 40.74459621 20.2734375 42.1796875 C19.9434375 41.5196875 19.6134375 40.8596875 19.2734375 40.1796875 C20.0778125 40.1590625 20.8821875 40.1384375 21.7109375 40.1171875 C27.3274386 38.6391609 32.19591432 35.20450898 35.515625 30.37109375 C37.24754639 26.66808088 37.97146775 23.19336144 37.2734375 19.1796875 C34.89842959 16.30328134 34.89842959 16.30328134 32.2734375 14.1796875 C32.46164063 14.73785156 32.64984375 15.29601563 32.84375 15.87109375 C33.65201564 20.2136846 31.92641981 24.18660081 30.2734375 28.1796875 C26.46875418 33.59847889 21.43846651 34.7072631 15.2734375 36.1796875 C15.2734375 35.5196875 15.2734375 34.8596875 15.2734375 34.1796875 C15.86511719 34.03273438 16.45679688 33.88578125 17.06640625 33.734375 C23.00303067 32.04926464 25.92276323 30.41511604 29.2734375 25.1796875 C30.45319281 21.59098593 30.45319281 21.59098593 29.2734375 18.1796875 C29.2115625 17.0865625 29.1496875 15.9934375 29.0859375 14.8671875 C28.03206145 10.08421157 26.31368029 8.82138471 22.2734375 6.1796875 C19.55230247 5.31426051 19.55230247 5.31426051 17.2734375 5.1796875 C16.9434375 6.1696875 16.6134375 7.1596875 16.2734375 8.1796875 C13.39132448 9.14039184 11.57493706 9.28550633 8.5859375 9.2421875 C7.37357422 9.22865234 7.37357422 9.22865234 6.13671875 9.21484375 C5.21439453 9.19744141 5.21439453 9.19744141 4.2734375 9.1796875 C4.2734375 9.8396875 4.2734375 10.4996875 4.2734375 11.1796875 C5.10488281 11.36144531 5.93632813 11.54320312 6.79296875 11.73046875 C7.87964844 11.98183594 8.96632812 12.23320312 10.0859375 12.4921875 C11.16488281 12.73582031 12.24382812 12.97945312 13.35546875 13.23046875 C16.2181531 14.16170342 17.42740816 14.86729285 19.2734375 17.1796875 C18.2734375 20.1796875 18.2734375 20.1796875 16.33203125 21.56640625 C5.97740876 26.70513843 -4.77955146 26.71052396 -15.7265625 23.1796875 C-15.24559364 16.80685013 -15.24559364 16.80685013 -13.2265625 14.3671875 C-10.10573398 12.88479395 -7.04695515 12.29039327 -3.65234375 11.70703125 C-3.01683594 11.53300781 -2.38132812 11.35898437 -1.7265625 11.1796875 C-1.3965625 10.5196875 -1.0665625 9.8596875 -0.7265625 9.1796875 C-4.0265625 8.8496875 -7.3265625 8.5196875 -10.7265625 8.1796875 C-10.7265625 7.1896875 -10.7265625 6.1996875 -10.7265625 5.1796875 C-16.83346274 5.1796875 -21.97107769 7.81948014 -26.60546875 11.7890625 Z M-12.5390625 17.8046875 C-12.9309375 18.2584375 -13.3228125 18.7121875 -13.7265625 19.1796875 C-13.3965625 20.1696875 -13.0665625 21.1596875 -12.7265625 22.1796875 C-8.07762184 22.04674259 -8.07762184 22.04674259 -4.1484375 19.8125 C-1.74173752 17.30374289 -1.74173752 17.30374289 -0.7265625 14.1796875 C-5.43515918 13.91062483 -8.96256793 14.59817512 -12.5390625 17.8046875 Z M0.6484375 16.4296875 C0.1946875 17.3371875 -0.2590625 18.2446875 -0.7265625 19.1796875 C-1.70943784 20.52569413 -2.70684209 21.86137492 -3.7265625 23.1796875 C3.86914189 23.76148613 9.41458791 22.44858603 16.2734375 19.1796875 C15.9434375 18.1896875 15.6134375 17.1996875 15.2734375 16.1796875 C7.27002056 13.19675818 7.27002056 13.19675818 0.6484375 16.4296875 Z M-27.7265625 42.0546875 C-29.06405706 44.89686344 -28.66691311 46.21396635 -27.7265625 49.1796875 C-22.94718219 53.80971218 -16.2429718 56.95488794 -9.7265625 58.1796875 C-6.14669906 58.06420803 -3.83803963 57.92067225 -0.8515625 55.9296875 C0.67242676 53.55903754 1.14163731 52.01339163 1.2734375 49.1796875 C-0.44054261 44.51385275 -2.54094079 41.84326495 -6.7265625 39.1796875 C-14.53518085 36.39089523 -21.2611386 35.9933526 -27.7265625 42.0546875 Z " fill="#000000" transform="translate(52.7265625,13.8203125)"/>
<path d="M0 0 C3.45536091 0.03851517 4.66420015 0.26245009 7.75 2.0625 C9.71233179 4.27012327 10.65191601 5.36998015 10.75 8.3125 C8.75 10.3125 8.75 10.3125 5.5 10.6875 C1.08422028 10.24592203 -0.93506986 9.2327956 -4.25 6.3125 C-5.1875 3.625 -5.1875 3.625 -5.25 1.3125 C-3.69014791 -0.24735209 -2.16093902 0.06797656 0 0 Z M-1.25 3.3125 C0.45892499 6.62710705 0.45892499 6.62710705 3.875 7 C4.82375 7.103125 5.7725 7.20625 6.75 7.3125 C6.75 6.6525 6.75 5.9925 6.75 5.3125 C3.66190305 3.54787317 2.51687864 3.3125 -1.25 3.3125 Z " fill="#000000" transform="translate(36.25,55.6875)"/>
<path d="M0 0 C0.928125 0.20625 1.85625 0.4125 2.8125 0.625 C3.1425 2.275 3.4725 3.925 3.8125 5.625 C-0.0378105 8.19187367 -1.77319763 7.45788724 -6.1875 6.625 C-6.375 4.25 -6.375 4.25 -6.1875 1.625 C-3.1875 -0.375 -3.1875 -0.375 0 0 Z M-2.1875 2.625 C-2.5175 3.285 -2.8475 3.945 -3.1875 4.625 C-2.1975 4.625 -1.2075 4.625 -0.1875 4.625 C-0.1875 3.965 -0.1875 3.305 -0.1875 2.625 C-0.8475 2.625 -1.5075 2.625 -2.1875 2.625 Z " fill="#000000" transform="translate(58.1875,89.375)"/>
<path d="" fill="#000000" transform="translate(0,0)"/>
<path d="" fill="#000000" transform="translate(0,0)"/>
</svg>
