<?xml version="1.0" encoding="UTF-8"?>
<svg version="1.1" xmlns="http://www.w3.org/2000/svg" width="110" height="110">
<path d="M0 0 C1.2375 0.18949219 2.475 0.37898437 3.75 0.57421875 C17.07770315 2.68103089 26.90384674 5.7565354 36.0390625 16.28125 C42.09902355 24.68310834 40.96978503 36.05044974 40 46 C39.07166464 50.35634429 37.26508241 54.17807222 35 58 C34.52046875 58.88042969 34.0409375 59.76085937 33.546875 60.66796875 C31.02063707 64.47646382 27.45879438 66.22961784 23.09039307 67.59831238 C20.6884386 68.05986929 18.43755779 68.14941614 15.99121094 68.17700195 C14.4988089 68.19625481 14.4988089 68.19625481 12.97625732 68.21589661 C11.90643616 68.22328354 10.83661499 68.23067047 9.734375 68.23828125 C8.62700989 68.246353 7.51964478 68.25442474 6.37872314 68.26274109 C4.03521279 68.27656611 1.69168244 68.28729533 -0.65185547 68.29516602 C-4.22272204 68.31236859 -7.79266017 68.35626932 -11.36328125 68.40039062 C-13.64322238 68.41051902 -15.92317136 68.41903466 -18.203125 68.42578125 C-19.26484924 68.44328934 -20.32657349 68.46079742 -21.42047119 68.47883606 C-28.6748958 68.45777165 -34.33811025 67.48751405 -39.8046875 62.28125 C-43.30634164 56.45367961 -44.36630422 50.72231339 -45 44 C-45.14308594 42.65228516 -45.14308594 42.65228516 -45.2890625 41.27734375 C-45.92165277 29.97395445 -41.49658282 19.50842397 -34.08203125 11.1171875 C-24.79901746 1.67742488 -13.18946123 -2.60416919 0 0 Z M-19.1875 4.9375 C-20.04730469 5.29714844 -20.90710938 5.65679687 -21.79296875 6.02734375 C-23.21028619 6.65196684 -24.61466459 7.3073323 -26 8 C-26 8.66 -26 9.32 -26 10 C-20.30601106 12.09570426 -15.04801071 13.45018084 -9 14 C-9.185625 12.9275 -9.37125 11.855 -9.5625 10.75 C-9.9304568 7.59608454 -10.04465343 5.90181508 -9 3 C-12.90581198 2.78262088 -15.59879664 3.41189388 -19.1875 4.9375 Z M-6 3 C-7.38550197 5.77100394 -7.1877467 7.9334706 -7 11 C-6.01 12.485 -6.01 12.485 -5 14 C-4.34 14 -3.68 14 -3 14 C-3.020625 12.906875 -3.04125 11.81375 -3.0625 10.6875 C-3 7 -3 7 -2 4 C-3.32 3.67 -4.64 3.34 -6 3 Z M1 4 C-0.61949011 6.57213134 -1.04408751 7.67669159 -0.625 10.75 C-0.41875 11.4925 -0.2125 12.235 0 13 C1.98 13.495 1.98 13.495 4 14 C3.88637738 12.5199159 3.75877092 11.04089926 3.625 9.5625 C3.52058594 8.32693359 3.52058594 8.32693359 3.4140625 7.06640625 C3.27742188 6.38449219 3.14078125 5.70257812 3 5 C2.34 4.67 1.68 4.34 1 4 Z M6 5 C5.0884516 7.98324932 4.74371771 9.43938249 6.0625 12.32421875 C7.9297021 14.27613136 7.9297021 14.27613136 10.8125 14.20703125 C11.864375 14.07683594 12.91625 13.94664063 14 13.8125 C15.051875 13.69519531 16.10375 13.57789063 17.1875 13.45703125 C20.06969406 13.06563998 20.06969406 13.06563998 23 12 C23 11.34 23 10.68 23 10 C19.3548211 7.31514652 16.1278102 6.44683003 11.6875 5.8125 C10.61886719 5.65394531 9.55023438 5.49539062 8.44921875 5.33203125 C7.64097656 5.22246094 6.83273438 5.11289062 6 5 Z M-30 11 C-29.67 11.99 -29.34 12.98 -29 14 C-27.02 14 -25.04 14 -23 14 C-26.05580974 11.41222792 -26.05580974 11.41222792 -30 11 Z M-18 15 C-16.04366025 17.41121859 -16.04366025 17.41121859 -12.375 17.125 C-11.26125 17.08375 -10.1475 17.0425 -9 17 C-9 16.67 -9 16.34 -9 16 C-11.97 15.67 -14.94 15.34 -18 15 Z M27 13 C24.38945588 13.4438596 24.38945588 13.4438596 21.375 14.375 C14.6250105 16.08499734 8.62348716 16.21513488 1.7265625 16.0078125 C-2.00760019 15.99998407 -5.32921711 16.38346024 -9 17 C-9 17.33 -9 17.66 -9 18 C3.34878341 20.35214922 17.35917402 20.00997574 29 15 C28.34 14.34 27.68 13.68 27 13 Z M-35 20 C-39.25006892 24.25006892 -41.10166363 28.45223225 -41.1953125 34.42578125 C-41.18212204 36.0548027 -41.15842307 37.68376804 -41.125 39.3125 C-41.11597656 40.14845703 -41.10695313 40.98441406 -41.09765625 41.84570312 C-41.07420989 43.89725969 -41.03834266 45.94866777 -41 48 C-40.34 47.67 -39.68 47.34 -39 47 C-39 46.34 -39 45.68 -39 45 C-38.41347656 44.72671875 -37.82695313 44.4534375 -37.22265625 44.171875 C-35.06080763 43.03206026 -33.33849069 41.77736185 -31.4375 40.25 C-27.34682836 37.10510395 -23.00334575 34.74219253 -18.41796875 32.39453125 C-16.1760445 31.10153132 -14.62756459 29.99746563 -13 28 C-12.43971599 24.87841767 -12.6838335 23.50299216 -14.375 20.8125 C-20.80705108 16.37132187 -28.32130582 15.84127608 -35 20 Z M30 17 C29.33613281 17.20496094 28.67226562 17.40992187 27.98828125 17.62109375 C26.66376953 18.02521484 26.66376953 18.02521484 25.3125 18.4375 C24.44238281 18.70433594 23.57226562 18.97117187 22.67578125 19.24609375 C20 20 20 20 17.2734375 20.3828125 C16.52320313 20.58648438 15.77296875 20.79015625 15 21 C13.25429661 24.40663508 13.25429661 24.40663508 12 28 C11.34 28.66 10.68 29.32 10 30 C11.04800781 30.09087891 11.04800781 30.09087891 12.1171875 30.18359375 C13.02726562 30.26738281 13.93734375 30.35117187 14.875 30.4375 C15.77992187 30.51871094 16.68484375 30.59992187 17.6171875 30.68359375 C20 31 20 31 22 32 C22.309375 31.113125 22.61875 30.22625 22.9375 29.3125 C25.74138737 24.80928695 29.3008742 23.22642019 34 21 C32.68 19.68 31.36 18.36 30 17 Z M-6 21 C-5.67 22.65 -5.34 24.3 -5 26 C-0.00837213 25.52003578 1.85035583 25.11223313 6 22 C2.04 21.67 -1.92 21.34 -6 21 Z M-11 21 C-10.71125 22.27875 -10.4225 23.5575 -10.125 24.875 C-9.88136719 25.95394531 -9.88136719 25.95394531 -9.6328125 27.0546875 C-9.09525572 29.20719964 -9.09525572 29.20719964 -7 31 C-0.87847852 31.74957406 3.74282209 29.93374083 9 27 C9.66 26.34 10.32 25.68 11 25 C11 24.01 11 23.02 11 22 C10.34 22 9.68 22 9 22 C8.401875 22.61875 7.80375 23.2375 7.1875 23.875 C3.87924259 27.08873577 1.27488218 27.95189124 -3.3125 28.125 C-4.199375 28.08375 -5.08625 28.0425 -6 28 C-6.99 25.69 -7.98 23.38 -9 21 C-9.66 21 -10.32 21 -11 21 Z M35 23 C33.02 23.99 31.04 24.98 29 26 C29.99 26.495 29.99 26.495 31 27 C33.60931266 26.10636395 33.60931266 26.10636395 36 25 C35.67 24.34 35.34 23.68 35 23 Z M27 27 C24.79086 30.31371 24.77518447 31.3446021 24.875 35.1875 C24.89304687 36.08855469 24.91109375 36.98960938 24.9296875 37.91796875 C24.95289062 38.60503906 24.97609375 39.29210938 25 40 C25.33 40 25.66 40 26 40 C26.13277344 39.31292969 26.26554687 38.62585937 26.40234375 37.91796875 C26.57894531 37.01691406 26.75554687 36.11585937 26.9375 35.1875 C27.11152344 34.29417969 27.28554687 33.40085937 27.46484375 32.48046875 C28 30 28 30 29 27 C28.34 27 27.68 27 27 27 Z M-14.31640625 32.01171875 C-15.05761719 32.56472656 -15.79882812 33.11773437 -16.5625 33.6875 C-17.30628906 34.22761719 -18.05007812 34.76773438 -18.81640625 35.32421875 C-19.53699219 35.87722656 -20.25757813 36.43023437 -21 37 C-21.75152344 37.56332031 -22.50304687 38.12664063 -23.27734375 38.70703125 C-23.84582031 39.13371094 -24.41429688 39.56039062 -25 40 C-23.75347656 39.91878906 -22.50695312 39.83757813 -21.22265625 39.75390625 C-6.5184046 39.09754424 6.12701125 41.84681484 18 51 C19.35546875 53.25390625 19.35546875 53.25390625 20.1875 55.5625 C21.3661145 58.75390822 22.43168932 60.73554579 25 63 C25.969375 62.2575 26.93875 61.515 27.9375 60.75 C28.75541016 60.12351562 28.75541016 60.12351562 29.58984375 59.484375 C31.2692289 57.71660116 31.59922685 56.37420043 32 54 C31.52949219 53.64808594 31.05898437 53.29617187 30.57421875 52.93359375 C26.0289526 49.32937649 23.8681913 46.4946803 22 41 C21.175 41.53625 20.35 42.0725 19.5 42.625 C14.78666202 44.47666849 12.7310742 43.54983465 8 42 C7.9729957 40.54176788 7.95360213 39.08339325 7.9375 37.625 C7.92589844 36.81289063 7.91429687 36.00078125 7.90234375 35.1640625 C8 33 8 33 9 31 C8.43152344 31.144375 7.86304688 31.28875 7.27734375 31.4375 C-4.43830205 34.25394907 -4.43830205 34.25394907 -9.41796875 31.81640625 C-11.98807568 30.69234404 -11.98807568 30.69234404 -14.31640625 32.01171875 Z M10 34 C9.58333333 36.5 9.58333333 36.5 10 39 C11.83883881 41.28728734 11.83883881 41.28728734 14.625 41.125 C15.40875 41.08375 16.1925 41.0425 17 41 C16.34 40.566875 15.68 40.13375 15 39.6875 C14.34 39.130625 13.68 38.57375 13 38 C13 37.01 13 36.02 13 35 C13.99 34.67 14.98 34.34 16 34 C16 33.34 16 32.68 16 32 C12.81509993 31.7226499 12.81509993 31.7226499 10 34 Z M29 32 C29 33.98 29 35.96 29 38 C29.33 38 29.66 38 30 38 C30 36.02 30 34.04 30 32 C29.67 32 29.34 32 29 32 Z M36 31 C35.34 31.66 34.68 32.32 34 33 C34.99 33 35.98 33 37 33 C36.67 32.34 36.34 31.68 36 31 Z M17 36 C21 37 21 37 21 37 Z M34 39 C34.99 40.485 34.99 40.485 36 42 C36 41.01 36 40.02 36 39 C35.34 39 34.68 39 34 39 Z M30 40 C30.66 41.65 31.32 43.3 32 45 C32.99 45 33.98 45 35 45 C33.35 43.35 31.7 41.7 30 40 Z M26 42 C27 44 27 44 27 44 Z M-38.9375 49.75 C-39.4634375 50.36875 -39.4634375 50.36875 -40 51 C-39.67 51.66 -39.34 52.32 -39 53 C-38.45472656 52.59007812 -37.90945312 52.18015625 -37.34765625 51.7578125 C-27.47738642 44.70520944 -17.81918275 44.59173774 -6 44 C-6 43.67 -6 43.34 -6 43 C-17.85606879 41.44441651 -29.61052633 41.32563669 -38.9375 49.75 Z M27 44 C28 46 28 46 28 46 Z M-1 45 C1.93828597 47.50298434 4.17902761 48.46930939 8 49 C5.06171403 46.49701566 2.82097239 45.53069061 -1 45 Z M-20 47 C-18.53064075 54.00106466 -17.27259601 59.03866932 -11.8515625 63.89453125 C-9.86735846 65.30027639 -9.86735846 65.30027639 -6.5625 64.9375 C-5.2940625 64.4734375 -5.2940625 64.4734375 -4 64 C-4.20496094 63.35933594 -4.40992188 62.71867187 -4.62109375 62.05859375 C-6.18827364 57.02712149 -7.43042174 52.24011997 -8 47 C-11.96 47 -15.92 47 -20 47 Z M29 47 C29.33 47.99 29.66 48.98 30 50 C32.01508358 50.73323796 32.01508358 50.73323796 34 51 C34 50.34 34 49.68 34 49 C31.525 48.01 31.525 48.01 29 47 Z M-31 50 C-30.52353853 55.00284542 -29.06711438 58.03079315 -26 62 C-22.3558226 64.4294516 -20.28758728 64.16179575 -16 64 C-16.61875 62.845 -17.2375 61.69 -17.875 60.5 C-19.94122218 56.39686375 -21.03935718 52.48299983 -22 48 C-25.62528568 47.79859524 -27.86501708 48.14223235 -31 50 Z M-5 48 C-4.65361659 56.77157399 -4.65361659 56.77157399 0 64 C3.6365731 64.97350778 3.6365731 64.97350778 7 65 C7.33 64.01 7.66 63.02 8 62 C7.566875 61.13375 7.566875 61.13375 7.125 60.25 C6 58 6 58 5.8125 54.4375 C5.4103125 52.7359375 5.4103125 52.7359375 5 51 C1.47986667 48.97918272 -0.93552213 48 -5 48 Z M8 49 C8.99 49.99 9.98 50.98 11 52 C11.66 51.67 12.32 51.34 13 51 C10.525 50.01 10.525 50.01 8 49 Z M-35 52 C-36.38232443 53.62626404 -37.71937515 55.2925002 -39 57 C-36.42215154 59.64752004 -34.08351902 61.94432065 -31 64 C-30.01 63.67 -29.02 63.34 -28 63 C-28.45375 62.484375 -28.9075 61.96875 -29.375 61.4375 C-31.38200383 58.42699426 -32.12731809 55.49072763 -33 52 C-33.66 52 -34.32 52 -35 52 Z M13 52 C14.32 53.32 15.64 54.64 17 56 C16.34 54.68 15.68 53.36 15 52 C14.34 52 13.68 52 13 52 Z M8 54 C8.5024484 58.39642348 9.97295941 60.7948982 13 64 C13.99 64.33 14.98 64.66 16 65 C15.71915428 60.97454466 15.21634296 59.25517374 12.5625 56.125 C10.2982421 53.78722138 10.2982421 53.78722138 8 54 Z " fill="#000000" transform="translate(57,11)"/>
<path d="M0 0 C1.11632813 -0.020625 2.23265625 -0.04125 3.3828125 -0.0625 C13.54139295 -0.10985935 22.24568122 1.71641006 31.125 6.6875 C32.17429687 7.26371094 33.22359375 7.83992187 34.3046875 8.43359375 C39.37701768 11.56175493 42.80086464 14.57149857 46 19.625 C46.88945312 20.99785156 46.88945312 20.99785156 47.796875 22.3984375 C51.21095541 29.09811143 50.5369347 37.02555013 50.625 44.375 C50.68107422 46.11523438 50.68107422 46.11523438 50.73828125 47.890625 C50.84700051 58.69007144 47.72524442 67.61634077 41.25 76.25 C42.178125 76.6625 43.10625 77.075 44.0625 77.5 C47.275239 79.2638567 48.41067566 80.17908129 50.25 83.25 C50.97074669 86.99900022 50.929762 90.49459357 50.25 94.25 C46.57632979 98.6404839 42.81769832 100.24598883 37.25 101.25 C30.69513167 101.78509129 26.04265191 101.64082063 20.25 98.25 C16.54311917 98.25 14.35269887 98.75013446 10.875 99.8125 C1.6150908 102.20398206 -8.27659507 101.95744718 -16.75 97.25 C-17.74 96.59 -18.73 95.93 -19.75 95.25 C-20.678125 96.054375 -21.60625 96.85875 -22.5625 97.6875 C-27.02724119 101.55694236 -31.300795 101.59529069 -37.0234375 101.52734375 C-42.32246486 100.98833094 -44.85773002 98.3301163 -48.125 94.375 C-50.00628189 90.75715021 -50.55051789 89.25258947 -49.75 85.25 C-48.0213271 82.34077 -46.12113325 79.67027591 -43.75 77.25 C-43.09 77.25 -42.43 77.25 -41.75 77.25 C-42.513125 76.528125 -43.27625 75.80625 -44.0625 75.0625 C-51.74158143 65.72543508 -50.24860154 51.16299113 -49.5390625 39.90234375 C-48.19343405 27.59731919 -42.90685256 17.44586176 -33.5390625 9.3359375 C-22.77751547 0.82771079 -13.41375908 0.06111052 0 0 Z M-34.00390625 14.32421875 C-44.28289117 24.86822354 -45.91875423 36.60151387 -46 50.6875 C-46.020625 51.57759766 -46.04125 52.46769531 -46.0625 53.38476562 C-46.10338169 60.3806454 -45.50480815 67.42073757 -40.4375 72.625 C-31.03095759 78.31267681 -22.58706525 79.56096714 -11.72265625 79.55078125 C-10.69369736 79.55506638 -9.66473846 79.5593515 -8.604599 79.56376648 C-6.44058972 79.56947865 -4.27656125 79.57003318 -2.11254883 79.56567383 C1.17465333 79.56251236 4.46095553 79.58601823 7.74804688 79.61132812 C9.86197804 79.61360148 11.97591161 79.61430445 14.08984375 79.61328125 C15.05993881 79.622491 16.03003387 79.63170074 17.02952576 79.64118958 C24.56817946 79.59076312 31.36446765 78.32228392 38.0625 74.75 C45.83125036 65.87142816 46.50386231 55.40374889 46.625 44.1875 C46.66238281 42.90166016 46.69976562 41.61582031 46.73828125 40.29101562 C46.82204531 31.1746939 45.62940362 24.15789159 39.42919922 17.20947266 C32.58484267 10.49175686 22.75222133 5.61984578 13.25 4.25 C12.37859375 4.11722656 11.5071875 3.98445312 10.609375 3.84765625 C-5.83653613 1.97113562 -21.49660091 2.8140296 -34.00390625 14.32421875 Z M-42.48828125 80.5703125 C-45.90846394 84.43441393 -45.90846394 84.43441393 -46.9375 89.375 C-45.25250944 93.45445084 -42.72084881 96.2645756 -38.75 98.25 C-33.14272183 98.62381854 -29.58227462 98.43490827 -24.75 95.25 C-20.48560664 91.21611439 -20.13119768 87.87266579 -19.75 82.25 C-22.39 82.25 -25.03 82.25 -27.75 82.25 C-28.059375 83.673125 -28.059375 83.673125 -28.375 85.125 C-29.75 88.25 -29.75 88.25 -32.875 89.625 C-33.82375 89.83125 -34.7725 90.0375 -35.75 90.25 C-35.75 89.59 -35.75 88.93 -35.75 88.25 C-34.1 87.59 -32.45 86.93 -30.75 86.25 C-30.85613836 83.79775306 -30.85613836 83.79775306 -31.75 81.25 C-35.21908046 79.28106244 -39.01892603 77.93516179 -42.48828125 80.5703125 Z M32.25 82.25 C31.43415432 85.30908413 31.43415432 85.30908413 31.25 88.25 C34.20377498 90.61980013 34.20377498 90.61980013 38.25 90.25 C38.58 90.91 38.91 91.57 39.25 92.25 C37.77031676 92.10950482 36.29125484 91.96245174 34.8125 91.8125 C33.98878906 91.73128906 33.16507813 91.65007812 32.31640625 91.56640625 C30.25 91.25 30.25 91.25 29.25 90.25 C28.79540142 87.59536879 28.54756762 84.92810862 28.25 82.25 C24.62 82.58 20.99 82.91 17.25 83.25 C18.81863353 90.04859746 18.81863353 90.04859746 22.4375 95.8125 C29.29443796 99.31715718 34.69555421 98.20722338 41.83203125 96.234375 C44.36263528 95.20414525 45.64337055 94.44799469 47.25 92.25 C47.95487571 88.82236908 47.86339881 85.43846019 46.25 82.3125 C42.1238991 80.1205089 35.9521472 78.84402457 32.25 82.25 Z M-15.75 83.25 C-18.15047202 89.44454457 -18.15047202 89.44454457 -17.1875 92.5 C-14.54946581 95.71151988 -11.6332838 97.07770514 -7.5859375 97.8671875 C0.17198977 98.44509179 6.9885448 98.30250061 14.25 95.25 C14.91 94.59 15.57 93.93 16.25 93.25 C15.59 89.95 14.93 86.65 14.25 83.25 C4.35 83.25 -5.55 83.25 -15.75 83.25 Z " fill="#000000" transform="translate(54.75,3.75)"/>
<path d="M0 0 C0 4 0 4 -1.35546875 5.73828125 C-6.34745209 10.027768 -6.34745209 10.027768 -9.9375 9.875 C-10.9584375 9.441875 -10.9584375 9.441875 -12 9 C-10.13346484 2.89133947 -6.64007326 -0.75886552 0 0 Z " fill="#000000" transform="translate(31,31)"/>
<path d="M0 0 C2.6875 0.3125 2.6875 0.3125 5 1 C5.625 3.375 5.625 3.375 6 6 C4 8 4 8 1.375 8.125 C0.59125 8.08375 -0.1925 8.0425 -1 8 C-1.66 6.35 -2.32 4.7 -3 3 C-1.8125 1.4375 -1.8125 1.4375 0 0 Z " fill="#000000" transform="translate(52,92)"/>
</svg>
