<?xml version="1.0" encoding="UTF-8"?>
<svg version="1.1" xmlns="http://www.w3.org/2000/svg" width="110" height="110">
<path d="M0 0 C8.2245435 7.66435787 8.97743941 15.61769794 9.41015625 26.4609375 C9.4538067 28.09099876 9.49130182 29.72123359 9.5234375 31.3515625 C9.54100098 32.22876953 9.55856445 33.10597656 9.57666016 34.00976562 C9.69816878 45.53455006 9.55350372 54.39898215 1.5234375 63.3515625 C2.5134375 63.9703125 3.5034375 64.5890625 4.5234375 65.2265625 C6.66502954 67.00783929 7.4326739 67.95628046 8.0625 70.69921875 C8.25032025 76.35943806 7.42624485 80.03793332 3.5234375 84.3515625 C-3.21783783 89.65852393 -10.12465255 90.06851862 -18.4765625 89.3515625 C-21.88199107 87.8616875 -23.90585661 85.9587841 -26.4765625 83.3515625 C-26.95867187 83.77308594 -27.44078125 84.19460937 -27.9375 84.62890625 C-28.56914063 85.17675781 -29.20078125 85.72460938 -29.8515625 86.2890625 C-30.47804687 86.83433594 -31.10453125 87.37960938 -31.75 87.94140625 C-33.93440721 89.72550354 -35.22805555 90.31519563 -38.0390625 90.7265625 C-42.9087595 90.19532283 -46.53388063 88.21193955 -50.4765625 85.3515625 C-52.5390625 82.5390625 -52.5390625 82.5390625 -53.4765625 80.3515625 C-53.816875 80.82207031 -54.1571875 81.29257813 -54.5078125 81.77734375 C-58.24714236 86.58079141 -61.42763057 89.24013273 -67.4765625 90.3515625 C-74.81676997 91.16918261 -80.73102989 91.19338033 -86.890625 86.8359375 C-89.60345444 84.29683606 -91.30396388 82.48699065 -91.875 78.73046875 C-91.81736863 71.80509853 -91.05180971 68.32919209 -86.4765625 63.0390625 C-84.4765625 61.3515625 -84.4765625 61.3515625 -81.4765625 61.3515625 C-81.4765625 60.6915625 -81.4765625 60.0315625 -81.4765625 59.3515625 C-82.311875 58.9803125 -82.311875 58.9803125 -83.1640625 58.6015625 C-89.883437 54.96946818 -89.883437 54.96946818 -91.1105957 51.62207031 C-91.98629026 46.18914213 -91.66136957 40.58975519 -91.6640625 35.1015625 C-91.67630859 33.80347656 -91.68855469 32.50539062 -91.70117188 31.16796875 C-91.71901523 19.49841395 -90.63148228 12.05537111 -82.4765625 3.3515625 C-63.69689932 -15.2417945 -20.12832915 -16.04751721 0 0 Z M-73.6796875 1.4375 C-74.27265625 2.06914062 -74.865625 2.70078125 -75.4765625 3.3515625 C-76.4459375 3.7846875 -77.4153125 4.2178125 -78.4140625 4.6640625 C-83.78650446 7.62438766 -85.7632221 10.99120451 -87.48828125 16.69921875 C-89.18871412 24.38579086 -89.70572364 31.67455723 -89.3515625 39.5390625 C-89.31788574 40.34053711 -89.28420898 41.14201172 -89.24951172 41.96777344 C-88.8750408 47.50149098 -87.86479453 51.23194552 -83.56640625 55.046875 C-78.02077769 58.73054116 -72.91619726 60.78365614 -66.4765625 62.3515625 C-65.48978516 62.60389648 -64.50300781 62.85623047 -63.48632812 63.11621094 C-54.12796534 65.3405577 -45.25066499 65.95247506 -35.6640625 65.9140625 C-34.54710999 65.9133374 -34.54710999 65.9133374 -33.40759277 65.91259766 C-21.29641269 65.85793433 -8.82975894 65.65430231 0.8203125 57.3828125 C6.70065313 50.36956221 5.70603665 41.33367033 5.7109375 32.6640625 C5.72318359 31.54322266 5.73542969 30.42238281 5.74804688 29.26757812 C5.99746228 16.83588601 5.99746228 16.83588601 1.5859375 5.6015625 C0.5753125 4.8590625 -0.4353125 4.1165625 -1.4765625 3.3515625 C-2.20617187 2.77664062 -2.93578125 2.20171875 -3.6875 1.609375 C-19.44940617 -9.79789042 -58.73413203 -12.71307912 -73.6796875 1.4375 Z M-86.4765625 67.3515625 C-88.80673268 70.31723364 -88.95678189 73.59102017 -88.859375 77.3203125 C-88.15153981 81.0761727 -86.25088743 82.76219257 -83.4765625 85.3515625 C-78.25650683 88.45537939 -72.50455681 87.76403592 -66.7890625 86.6015625 C-61.11832879 84.46166299 -58.06385444 81.40666802 -55.2578125 76.16796875 C-54.15904426 73.61333259 -53.74534008 71.10653271 -53.4765625 68.3515625 C-57.90749448 66.53854492 -57.90749448 66.53854492 -62.4765625 67.3515625 C-62.6003125 68.4653125 -62.7240625 69.5790625 -62.8515625 70.7265625 C-63.4765625 74.3515625 -63.4765625 74.3515625 -65.4765625 76.3515625 C-67.71875 76.65234375 -67.71875 76.65234375 -70.3515625 76.6640625 C-71.21523437 76.68082031 -72.07890625 76.69757813 -72.96875 76.71484375 C-75.92181172 76.28706378 -77.20301895 75.21665559 -79.4765625 73.3515625 C-80.1365625 73.3515625 -80.7965625 73.3515625 -81.4765625 73.3515625 C-81.1465625 72.6915625 -80.8165625 72.0315625 -80.4765625 71.3515625 C-79.1978125 71.3928125 -77.9190625 71.4340625 -76.6015625 71.4765625 C-74.45784758 71.59369123 -74.45784758 71.59369123 -72.4765625 71.3515625 C-71.8165625 70.6915625 -71.1565625 70.0315625 -70.4765625 69.3515625 C-70.4765625 68.0315625 -70.4765625 66.7115625 -70.4765625 65.3515625 C-71.1365625 65.3515625 -71.7965625 65.3515625 -72.4765625 65.3515625 C-72.4765625 64.6915625 -72.4765625 64.0315625 -72.4765625 63.3515625 C-78.53418044 62.93379575 -81.66681347 63.22892047 -86.4765625 67.3515625 Z M-66.4765625 65.3515625 C-67.4665625 68.3215625 -68.4565625 71.2915625 -69.4765625 74.3515625 C-68.1565625 74.0215625 -66.8365625 73.6915625 -65.4765625 73.3515625 C-64.79855216 70.45083069 -64.79855216 70.45083069 -64.4765625 67.3515625 C-65.1365625 66.6915625 -65.7965625 66.0315625 -66.4765625 65.3515625 Z M-8.4765625 66.3515625 C-9.30989583 68.26822917 -9.30989583 68.26822917 -9.4765625 70.3515625 C-7.63772369 72.63884984 -7.63772369 72.63884984 -4.8515625 72.4765625 C-4.0678125 72.4353125 -3.2840625 72.3940625 -2.4765625 72.3515625 C-3.4765625 75.3515625 -3.4765625 75.3515625 -6.7265625 77.1015625 C-10.46468632 78.34760377 -11.89132981 78.80503521 -15.4765625 77.3515625 C-18.21436738 75.22215871 -19.30903592 73.96582662 -20.2265625 70.6015625 C-20.3503125 69.4878125 -20.3503125 69.4878125 -20.4765625 68.3515625 C-23.4465625 68.3515625 -26.4165625 68.3515625 -29.4765625 68.3515625 C-27.67483099 74.85781516 -25.75561301 79.93363371 -20.4765625 84.3515625 C-14.45831229 87.30168515 -8.69861316 86.22683279 -2.4765625 84.3515625 C1.52954583 81.98060043 3.31643433 79.85039251 4.5234375 75.3515625 C5.10694255 72.80865625 5.10694255 72.80865625 4.5234375 70.3515625 C1.08602684 66.71195121 -3.5703062 63.89843435 -8.4765625 66.3515625 Z M-16.4765625 67.3515625 C-16.8065625 69.0015625 -17.1365625 70.6515625 -17.4765625 72.3515625 C-15.66694673 73.97988012 -15.66694673 73.97988012 -13.4765625 75.3515625 C-12.4865625 75.0215625 -11.4965625 74.6915625 -10.4765625 74.3515625 C-10.9715625 73.1759375 -10.9715625 73.1759375 -11.4765625 71.9765625 C-12.4765625 69.3515625 -12.4765625 69.3515625 -12.4765625 67.3515625 C-13.7965625 67.3515625 -15.1165625 67.3515625 -16.4765625 67.3515625 Z M-49.4765625 68.3515625 C-49.67207588 69.95477224 -49.85768233 71.55919236 -50.0390625 73.1640625 C-50.14347656 74.05738281 -50.24789062 74.95070313 -50.35546875 75.87109375 C-50.63314959 78.48531822 -50.63314959 78.48531822 -49.4765625 81.3515625 C-48.8165625 81.3515625 -48.1565625 81.3515625 -47.4765625 81.3515625 C-47.4765625 82.0115625 -47.4765625 82.6715625 -47.4765625 83.3515625 C-46.020308 84.02275799 -44.56148383 84.68838057 -43.1015625 85.3515625 C-41.88339844 85.9084375 -41.88339844 85.9084375 -40.640625 86.4765625 C-38.55657817 87.47651263 -38.55657817 87.47651263 -36.4765625 87.3515625 C-36.4765625 86.6915625 -36.4765625 86.0315625 -36.4765625 85.3515625 C-35.8578125 85.2278125 -35.2390625 85.1040625 -34.6015625 84.9765625 C-32.28535418 84.47958894 -32.28535418 84.47958894 -30.4765625 82.3515625 C-30.07221178 77.19609083 -30.89807141 73.18569147 -32.4765625 68.3515625 C-32.8065625 68.3515625 -33.1365625 68.3515625 -33.4765625 68.3515625 C-33.52554688 68.97804688 -33.57453125 69.60453125 -33.625 70.25 C-33.69976562 71.06726563 -33.77453125 71.88453125 -33.8515625 72.7265625 C-33.92117187 73.53867188 -33.99078125 74.35078125 -34.0625 75.1875 C-34.4765625 77.3515625 -34.4765625 77.3515625 -36.4765625 79.3515625 C-40.1015625 79.4765625 -40.1015625 79.4765625 -43.4765625 79.3515625 C-43.68152344 78.72507812 -43.88648438 78.09859375 -44.09765625 77.453125 C-44.36707031 76.63585937 -44.63648438 75.81859375 -44.9140625 74.9765625 C-45.18089844 74.16445312 -45.44773437 73.35234375 -45.72265625 72.515625 C-46.42835979 70.34124451 -46.42835979 70.34124451 -47.4765625 68.3515625 C-48.1365625 68.3515625 -48.7965625 68.3515625 -49.4765625 68.3515625 Z M-42.4765625 69.3515625 C-42.4765625 71.3315625 -42.4765625 73.3115625 -42.4765625 75.3515625 C-40.4965625 76.3415625 -40.4965625 76.3415625 -38.4765625 77.3515625 C-36.12682432 75.45401106 -36.12682432 75.45401106 -36.3515625 72.2265625 C-36.3928125 71.2778125 -36.4340625 70.3290625 -36.4765625 69.3515625 C-38.4565625 69.3515625 -40.4365625 69.3515625 -42.4765625 69.3515625 Z " fill="#000000" transform="translate(97.4765625,14.6484375)"/>
<path d="M0 0 C5.54762121 5.5025186 8.45699597 11.42061081 8.9375 19.25 C8.55170528 27.00722954 5.66095923 36.10170295 0.4375 41.875 C-14.41712066 52.47812578 -31.48052981 51.26154652 -48.85668945 48.42822266 C-58.94786187 46.48378689 -68.55993289 42.58355443 -74.5625 33.875 C-77.28264364 23.97217293 -75.23234737 13.26768183 -71.5625 3.875 C-69.61731227 0.94931114 -67.65247936 -0.50808343 -64.5625 -2.125 C-63.75683594 -2.58003906 -62.95117188 -3.03507812 -62.12109375 -3.50390625 C-44.80155243 -12.35275487 -15.56502294 -12.74935309 0 0 Z M-38.875 -5.875 C-40.14706299 -5.81759644 -40.14706299 -5.81759644 -41.44482422 -5.7590332 C-46.43225222 -5.45817773 -50.81510118 -4.68824603 -55.5625 -3.125 C-51.4978641 -0.41524273 -47.18880843 1.33289719 -42.5625 2.875 C-40.62992415 2.15544506 -40.62992415 2.15544506 -38.6875 1 C-33.18137942 -1.88320496 -29.81336201 -2.60740416 -23.62109375 -0.8515625 C-19.32093494 0.66614061 -15.71699856 2.48163966 -12.75 6.0625 C-9.57811051 13.57486984 -8.77998812 20.85369656 -10.5625 28.875 C-12.7098382 32.45389701 -13.6176632 33.5600544 -17.5625 34.875 C-20.30115287 34.94551114 -23.01277588 34.96857765 -25.75 34.9375 C-26.49958984 34.93298828 -27.24917969 34.92847656 -28.02148438 34.92382812 C-29.86852383 34.91206354 -31.71552213 34.89412865 -33.5625 34.875 C-33.8925 38.175 -34.2225 41.475 -34.5625 44.875 C-24.82466365 48.12094545 -15.73543408 47.36882767 -6.4453125 42.84375 C-0.54440431 39.09553364 1.37930424 33.78503834 3.6875 27.4375 C5.19678739 20.26838492 5.21413791 14.3660964 1.4375 7.875 C-5.49558519 -0.93683489 -14.05417666 -4.27909228 -24.94140625 -5.87890625 C-29.61166941 -6.19630278 -34.20174798 -6.08749797 -38.875 -5.875 Z M-66.171875 3.3828125 C-71.65313236 9.26438641 -71.72546182 16.57436873 -71.6640625 24.13671875 C-71.54089671 27.45745799 -71.1437013 30.60574267 -70.5625 33.875 C-69.99402344 33.91238281 -69.42554688 33.94976562 -68.83984375 33.98828125 C-63.48943371 34.44382534 -59.23957267 35.16229785 -54.5625 37.875 C-54.15128906 38.87402344 -53.74007812 39.87304688 -53.31640625 40.90234375 C-51.81561715 44.21074121 -51.81561715 44.21074121 -48.20703125 44.8984375 C-46.94246094 45.01445313 -45.67789063 45.13046875 -44.375 45.25 C-43.10269531 45.38148437 -41.83039062 45.51296875 -40.51953125 45.6484375 C-39.54371094 45.72320312 -38.56789062 45.79796875 -37.5625 45.875 C-37.44507501 41.58356843 -37.37484004 37.29255727 -37.3125 33 C-37.27898438 31.79601562 -37.24546875 30.59203125 -37.2109375 29.3515625 C-37.12190388 21.16046961 -37.66950989 13.45747786 -43.17944336 6.97167969 C-49.42295537 0.87277879 -59.09981874 -2.93917719 -66.171875 3.3828125 Z M-35.5625 2.875 C-34.75425781 2.90078125 -33.94601563 2.9265625 -33.11328125 2.953125 C-24.45267168 3.41279547 -24.45267168 3.41279547 -20.3125 5.5625 C-18.0683064 8.52804154 -18.48662566 10.23303163 -18.5625 13.875 C-16.74989868 16.10431824 -16.74989868 16.10431824 -14.5625 17.875 C-13.9025 18.865 -13.2425 19.855 -12.5625 20.875 C-12.71561973 13.95677226 -13.47230626 8.84104267 -18.5625 3.875 C-23.2575954 0.56709188 -31.07838354 -1.60911646 -35.5625 2.875 Z M-40.5625 3.875 C-40.5625 4.535 -40.5625 5.195 -40.5625 5.875 C-39.5725 5.545 -38.5825 5.215 -37.5625 4.875 C-38.5525 4.545 -39.5425 4.215 -40.5625 3.875 Z M-37.5625 7.875 C-37.0645163 11.60987777 -36.68758244 13.68737635 -34.5625 16.875 C-32.9559324 16.61879316 -31.3522517 16.34444129 -29.75 16.0625 C-28.85667969 15.91167969 -27.96335937 15.76085938 -27.04296875 15.60546875 C-24.34971638 14.81233774 -23.20257364 14.13564205 -21.5625 11.875 C-21.79293864 9.22033951 -21.79293864 9.22033951 -22.5625 6.875 C-28.9086382 4.7596206 -31.66813242 4.68221756 -37.5625 7.875 Z M-34.5625 18.875 C-34.38120185 22.31293339 -34.38120185 22.31293339 -33.5625 25.875 C-30.62508452 27.92389703 -28.02517293 28.17154899 -24.5 28.1875 C-23.64277344 28.20425781 -22.78554687 28.22101562 -21.90234375 28.23828125 C-19.51662487 28.04522567 -19.51662487 28.04522567 -17.734375 26.5859375 C-16.18477466 24.71052973 -16.18477466 24.71052973 -16.875 21.1875 C-17.101875 20.094375 -17.32875 19.00125 -17.5625 17.875 C-23.4771029 16.27645867 -28.71534453 17.61609286 -34.5625 18.875 Z M-13.5625 23.875 C-12.5625 26.875 -12.5625 26.875 -12.5625 26.875 Z M-14.5625 26.875 C-16.0475 28.855 -16.0475 28.855 -17.5625 30.875 C-16.2425 30.215 -14.9225 29.555 -13.5625 28.875 C-13.8925 28.215 -14.2225 27.555 -14.5625 26.875 Z M-32.5625 30.875 C-32.5625 31.205 -32.5625 31.535 -32.5625 31.875 C-30.62653108 32.09711116 -28.68860672 32.30222992 -26.75 32.5 C-25.13158203 32.67402344 -25.13158203 32.67402344 -23.48046875 32.8515625 C-20.36625668 33.14960156 -20.36625668 33.14960156 -17.5625 30.875 C-22.5125 30.875 -27.4625 30.875 -32.5625 30.875 Z M-65.5625 36.875 C-61.53902412 40.34471377 -61.53902412 40.34471377 -56.5625 41.875 C-57.04955712 39.81097032 -57.04955712 39.81097032 -58.5625 37.875 C-62.12456661 37.05629815 -62.12456661 37.05629815 -65.5625 36.875 Z " fill="#000000" transform="translate(89.5625,24.125)"/>
<path d="M0 0 C3.03978021 0.68164768 4.80055419 2.23591662 6.93359375 4.43359375 C8.36021594 7.28683812 8.24393243 9.26813924 7.93359375 12.43359375 C6.62109375 15.30859375 6.62109375 15.30859375 3.93359375 17.43359375 C-1.27835712 18.19041895 -5.62020071 18.39773078 -10.06640625 15.43359375 C-11.27901502 11.79576743 -11.46185177 9.25623376 -11.06640625 5.43359375 C-7.97951919 0.89972838 -5.28958377 -0.32997404 0 0 Z M-2.06640625 4.43359375 C-2.39640625 5.09359375 -2.72640625 5.75359375 -3.06640625 6.43359375 C-2.40640625 6.43359375 -1.74640625 6.43359375 -1.06640625 6.43359375 C-1.39640625 5.77359375 -1.72640625 5.11359375 -2.06640625 4.43359375 Z " fill="#000000" transform="translate(38.06640625,33.56640625)"/>
<path d="M0 0 C1.32 0 2.64 0 4 0 C4 1.32 4 2.64 4 4 C2.35 3.67 0.7 3.34 -1 3 C-0.67 2.01 -0.34 1.02 0 0 Z " fill="#000000" transform="translate(85,38)"/>
<path d="M0 0 C1.32 0 2.64 0 4 0 C4 1.32 4 2.64 4 4 C2.68 3.67 1.36 3.34 0 3 C0 2.01 0 1.02 0 0 Z " fill="#000000" transform="translate(85,46)"/>
<path d="M0 0 C1.32 0.33 2.64 0.66 4 1 C4 1.99 4 2.98 4 4 C2.68 4 1.36 4 0 4 C0 2.68 0 1.36 0 0 Z " fill="#000000" transform="translate(83,31)"/>
<path d="" fill="#000000" transform="translate(0,0)"/>
</svg>
