<?xml version="1.0" encoding="UTF-8"?>
<svg version="1.1" xmlns="http://www.w3.org/2000/svg" width="110" height="110">
<path d="M0 0 C1.35883301 0.03939697 1.35883301 0.03939697 2.74511719 0.07958984 C11.71912245 0.49314601 19.5449766 2.8017879 27.5 7 C28.55832031 7.54140625 29.61664063 8.0828125 30.70703125 8.640625 C36.96438853 13.06916095 39.59935361 18.94656788 41.5625 26.1875 C41.77592041 26.96665771 41.98934082 27.74581543 42.20922852 28.54858398 C44.19292154 36.53264539 43.86746978 43.63543862 42.6875 51.75 C42.58179687 52.63429687 42.47609375 53.51859375 42.3671875 54.4296875 C41.18228216 61.71559478 36.97982435 67.72624136 31.6875 72.75 C32.739375 73.1625 33.79125 73.575 34.875 74 C38.33184133 75.52466376 41.12920963 76.88161383 43.6875 79.75 C44.44572334 85.531453 43.65089157 89.61345461 40.6875 94.75 C33.21763005 100.78946932 24.91093974 100.51039064 15.6875 99.75 C12.91663569 98.71656689 11.12249388 97.48155121 8.6875 95.75 C4.62504288 95.39567262 4.62504288 95.39567262 1.5 97.75 C-2.70825099 100.25876501 -6.51278512 100.76437273 -11.3125 99.75 C-13.54730402 98.53783598 -15.49667323 97.22669291 -17.48828125 95.6484375 C-18.09027344 95.35195312 -18.69226562 95.05546875 -19.3125 94.75 C-21.40370451 95.44119176 -21.40370451 95.44119176 -23.3125 96.75 C-29.68491757 99.99868347 -34.87866773 100.87520215 -41.8984375 99.09375 C-47.76830038 97.04899296 -52.20520142 94.26516834 -55.3125 88.75 C-56.31966058 85.69361665 -56.45614633 84.19340146 -55.45703125 81.109375 C-55.01746094 80.24828125 -54.57789063 79.3871875 -54.125 78.5 C-53.69832031 77.62859375 -53.27164063 76.7571875 -52.83203125 75.859375 C-51.3125 73.75 -51.3125 73.75 -49.13671875 72.953125 C-48.23373047 72.85257813 -48.23373047 72.85257813 -47.3125 72.75 C-48.03566406 71.698125 -48.03566406 71.698125 -48.7734375 70.625 C-49.40507813 69.67625 -50.03671875 68.7275 -50.6875 67.75 C-51.31398438 66.821875 -51.94046875 65.89375 -52.5859375 64.9375 C-56.40473483 57.88741262 -56.62998861 51.08992706 -56.5625 43.25 C-56.57023437 42.35152344 -56.57796875 41.45304687 -56.5859375 40.52734375 C-56.56383794 32.93614564 -56.05184086 26.12246874 -51 20.0625 C-50.42636719 19.35738281 -49.85273437 18.65226562 -49.26171875 17.92578125 C-44.92317205 13.08295458 -40.61725013 9.40898284 -35.125 6 C-34.49658203 5.60167969 -33.86816406 5.20335937 -33.22070312 4.79296875 C-23.17047898 -1.54888392 -11.58461169 -0.42985936 0 0 Z M-34.3125 9.75 C-35.64861328 10.61044922 -35.64861328 10.61044922 -37.01171875 11.48828125 C-47.13743146 19.47026737 -47.13743146 19.47026737 -52.7265625 30.72265625 C-53.91175602 42.4648513 -54.957127 55.96913596 -47.84375 66.1015625 C-40.66110918 73.83389522 -26.39078238 75.49553337 -16.46362305 75.91113281 C-15.08389335 75.9309792 -13.70406561 75.94472459 -12.32421875 75.953125 C-11.58097855 75.95882507 -10.83773834 75.96452515 -10.07197571 75.97039795 C-8.50804034 75.97978831 -6.94408571 75.98635799 -5.38012695 75.99023438 C-3.01673053 75.99993135 -0.6542084 76.03100717 1.70898438 76.0625 C12.21557969 76.13584242 22.27947971 75.8203807 30.6875 68.75 C38.22520141 60.28820539 39.58420666 51.90568099 39.6875 40.75 C39.0514922 31.26035981 37.78680937 21.25924031 31.1875 14 C19.95400252 5.93492489 9.88340248 4.49727263 -3.44580078 4.39990234 C-5.09633548 4.3834067 -6.74680064 4.35620147 -8.39697266 4.31787109 C-18.11528553 4.09376723 -26.02322376 3.97772795 -34.3125 9.75 Z M-49.3125 76.75 C-51.6232659 80.17630805 -52.3125 82.22321742 -52.3125 86.375 C-51.10239622 90.45910025 -49.90233983 91.54714374 -46.3125 93.75 C-40.83210447 96.56425716 -35.01416299 97.57647681 -29.125 95.6875 C-24.38923074 93.67386583 -21.61167633 90.34835266 -19.3125 85.75 C-19.27227609 83.4170134 -19.26929753 81.08293334 -19.3125 78.75 C-22.60249282 78.33168596 -22.60249282 78.33168596 -26.3125 78.75 C-29.16734511 81.02110728 -29.16734511 81.02110728 -31.3125 83.75 C-33.71013185 86.14763185 -34.64523498 86.09280586 -37.9375 86.375 C-38.75476562 86.44976562 -39.57203125 86.52453125 -40.4140625 86.6015625 C-41.04054688 86.65054688 -41.66703125 86.69953125 -42.3125 86.75 C-41.3125 84.75 -41.3125 84.75 -39.46484375 84.1171875 C-38.73394531 83.95476562 -38.00304687 83.79234375 -37.25 83.625 C-36.51652344 83.45742187 -35.78304687 83.28984375 -35.02734375 83.1171875 C-34.46144531 82.99601562 -33.89554688 82.87484375 -33.3125 82.75 C-33.34343173 80.33414426 -33.34343173 80.33414426 -34.3125 77.75 C-39.22494292 74.51225353 -44.28160636 73.060678 -49.3125 76.75 Z M21.6875 80.75 C21.3575 82.07 21.0275 83.39 20.6875 84.75 C23.3275 85.41 25.9675 86.07 28.6875 86.75 C28.6875 87.08 28.6875 87.41 28.6875 87.75 C19.89159906 88.21114432 19.89159906 88.21114432 15.75 86.625 C13.18814498 84.29604089 12.02513166 81.91807498 10.6875 78.75 C8.0475 78.75 5.4075 78.75 2.6875 78.75 C2.78681285 82.05024234 3.2993217 84.74150656 4.6875 87.75 C10.97683857 93.61874516 16.39967613 97.06782984 24.9453125 96.96875 C30.05650832 96.56101928 34.74256043 95.3413142 38.75 92.0625 C40.16329818 88.5763645 40.34088003 85.44995437 39.6875 81.75 C38.02289916 78.92741596 36.72662398 78.04661561 33.59375 77.15234375 C28.32996619 76.24872753 25.37070788 76.49129088 21.6875 80.75 Z M-30.3125 77.75 C-29.9825 78.41 -29.6525 79.07 -29.3125 79.75 C-28.9825 79.09 -28.6525 78.43 -28.3125 77.75 C-28.9725 77.75 -29.6325 77.75 -30.3125 77.75 Z M13.6875 79.75 C14.6775 80.74 15.6675 81.73 16.6875 82.75 C17.6775 81.1 18.6675 79.45 19.6875 77.75 C17.22471199 77.75 15.83525881 78.60452863 13.6875 79.75 Z M-15.3125 79.75 C-15.6425 82.72 -15.9725 85.69 -16.3125 88.75 C-13.3425 89.245 -13.3425 89.245 -10.3125 89.75 C-10.6425 89.09 -10.9725 88.43 -11.3125 87.75 C-11.5 84.75 -11.5 84.75 -11.3125 81.75 C-10.6525 81.09 -9.9925 80.43 -9.3125 79.75 C-11.2925 79.75 -13.2725 79.75 -15.3125 79.75 Z M-7.3125 79.75 C-5.9925 80.41 -4.6725 81.07 -3.3125 81.75 C-3.6425 84.06 -3.9725 86.37 -4.3125 88.75 C-6.2925 89.08 -8.2725 89.41 -10.3125 89.75 C-10.3125 90.08 -10.3125 90.41 -10.3125 90.75 C-8.87594146 90.83131463 -7.4380517 90.88933559 -6 90.9375 C-5.19949219 90.97230469 -4.39898437 91.00710937 -3.57421875 91.04296875 C-1.25893408 90.91560593 -1.25893408 90.91560593 0.53125 89.5 C1.90033896 87.81391126 1.90033896 87.81391126 1.54296875 85.70703125 C1.32253906 84.99933594 1.10210937 84.29164062 0.875 83.5625 C0.483125 82.304375 0.09125 81.04625 -0.3125 79.75 C-2.6225 79.75 -4.9325 79.75 -7.3125 79.75 Z M-8.3125 83.75 C-8.3125 84.74 -8.3125 85.73 -8.3125 86.75 C-7.3225 86.42 -6.3325 86.09 -5.3125 85.75 C-5.6425 85.09 -5.9725 84.43 -6.3125 83.75 C-6.9725 83.75 -7.6325 83.75 -8.3125 83.75 Z M-16.3125 91.75 C-14.16244915 94.11505594 -12.37542682 95.75661833 -9.3125 96.75 C-5.59807713 96.75751907 -2.42010479 96.73371164 0.43359375 94.19921875 C0.84738281 93.72097656 1.26117188 93.24273437 1.6875 92.75 C0.80707031 92.76160156 -0.07335937 92.77320312 -0.98046875 92.78515625 C-2.72263672 92.79869141 -2.72263672 92.79869141 -4.5 92.8125 C-5.64855469 92.82410156 -6.79710937 92.83570312 -7.98046875 92.84765625 C-10.90550586 92.76192832 -13.47566291 92.42849023 -16.3125 91.75 Z " fill="#000000" transform="translate(61.3125,6.25)"/>
<path d="M0 0 C2.39824066 0.99031828 4.62114844 1.50538839 7.16796875 1.97265625 C13.53298418 3.27975763 17.74548662 6.61992412 21.35546875 11.97265625 C25.74107509 20.74386893 25.71795307 30.96363842 23.23046875 40.41015625 C20.62873959 47.59818938 16.70698791 54.22141994 9.859375 57.9765625 C-3.81658988 63.41707895 -18.84820027 62.93755994 -33.14453125 60.72265625 C-34.23858276 60.55902588 -34.23858276 60.55902588 -35.35473633 60.39208984 C-43.01712153 59.0540878 -49.65519469 56.1024126 -54.64453125 49.97265625 C-59.70461961 39.85247953 -60.27798104 28.3795329 -57.08203125 17.53515625 C-52.95590104 6.82990434 -43.63877699 1.67718065 -33.64453125 -3.02734375 C-23.1575148 -5.73505701 -9.82033721 -4.24786679 0 0 Z M-50.64453125 11.97265625 C-56.69762521 22.84007146 -56.50643994 31.52502147 -53.59375 43.17578125 C-51.51455143 49.30214412 -48.94926455 51.97474784 -43.25341797 54.91064453 C-38.68444474 56.77055783 -34.08680875 57.38060157 -29.20703125 57.91015625 C-28.15950684 58.03076416 -27.11198242 58.15137207 -26.03271484 58.27563477 C-14.29033072 59.45559855 1.14498913 59.94677849 11.35546875 52.97265625 C12.62146976 50.93284009 12.62146976 50.93284009 13.35546875 48.97265625 C12.74960938 49.23820312 12.14375 49.50375 11.51953125 49.77734375 C-4.20871916 56.40740623 -21.58045118 58.45465347 -37.64453125 51.97265625 C-40.76320588 50.46855432 -43.7358757 48.8502011 -46.64453125 46.97265625 C-46.64453125 45.32265625 -46.64453125 43.67265625 -46.64453125 41.97265625 C-44.16953125 41.47765625 -44.16953125 41.47765625 -41.64453125 40.97265625 C-41.76630813 39.05799258 -41.76630813 39.05799258 -42.64453125 36.97265625 C-43.49015625 36.49828125 -44.33578125 36.02390625 -45.20703125 35.53515625 C-46.01140625 35.01953125 -46.81578125 34.50390625 -47.64453125 33.97265625 C-47.76953125 31.41015625 -47.76953125 31.41015625 -47.64453125 28.97265625 C-48.63453125 28.31265625 -49.62453125 27.65265625 -50.64453125 26.97265625 C-51.08203125 24.09765625 -51.08203125 24.09765625 -50.64453125 20.97265625 C-48.36157583 18.03742785 -46.03395119 16.41989471 -42.64453125 14.97265625 C-40.671875 14.8046875 -40.671875 14.8046875 -38.58203125 14.78515625 C-32.24996644 14.24871887 -27.71880285 10.51163542 -22.64453125 6.97265625 C-15.82499851 3.56288988 -4.73566878 6.08324132 2.35546875 7.97265625 C3.04125 8.32328125 3.72703125 8.67390625 4.43359375 9.03515625 C7.36377827 10.46451455 10.15363886 10.09580355 13.35546875 9.97265625 C6.0791019 1.94250086 -9.67859704 0.32540405 -19.95703125 -0.33984375 C-32.51442067 -0.85956528 -41.45335651 3.29352467 -50.64453125 11.97265625 Z M-30.08203125 14.09765625 C-34.02881121 16.87880689 -36.87036436 17.48714106 -41.625 17.6953125 C-44.730413 18.12178121 -46.48496587 19.81309087 -48.64453125 21.97265625 C-48.31453125 23.29265625 -47.98453125 24.61265625 -47.64453125 25.97265625 C-44.266357 26.81719981 -41.96987882 27.08110544 -38.64453125 25.97265625 C-40.64453125 28.97265625 -40.64453125 28.97265625 -43.26953125 29.66015625 C-44.05328125 29.76328125 -44.83703125 29.86640625 -45.64453125 29.97265625 C-44.74796616 32.21406898 -44.05817464 33.67276479 -42.08203125 35.10546875 C-37.91827864 36.58680381 -33.55452305 36.04938775 -29.1953125 35.89453125 C-23.98398694 35.78305905 -19.65774519 36.52086579 -14.64453125 37.97265625 C-14.64453125 39.29265625 -14.64453125 40.61265625 -14.64453125 41.97265625 C-17.11953125 42.46765625 -17.11953125 42.46765625 -19.64453125 42.97265625 C-18.98453125 44.62265625 -18.32453125 46.27265625 -17.64453125 47.97265625 C-16.98453125 47.97265625 -16.32453125 47.97265625 -15.64453125 47.97265625 C-15.64453125 48.96265625 -15.64453125 49.95265625 -15.64453125 50.97265625 C-19.87488598 51.47626991 -21.35038011 51.1819561 -24.89453125 48.66015625 C-27.64453125 45.97265625 -27.64453125 45.97265625 -29.64453125 42.97265625 C-31.12953125 43.46765625 -31.12953125 43.46765625 -32.64453125 43.97265625 C-32.31453125 45.29265625 -31.98453125 46.61265625 -31.64453125 47.97265625 C-38.39453125 45.22265625 -38.39453125 45.22265625 -40.64453125 42.97265625 C-42.75273922 43.29117395 -42.75273922 43.29117395 -44.64453125 43.97265625 C-44.64453125 44.63265625 -44.64453125 45.29265625 -44.64453125 45.97265625 C-33.54532232 51.50486383 -23.98389806 56.08577852 -11.64453125 51.97265625 C-10.81953125 52.17890625 -9.99453125 52.38515625 -9.14453125 52.59765625 C-0.23307761 53.55245485 7.56980108 49.41206921 14.35546875 43.97265625 C16.13650215 42.3709775 17.73915133 40.74539148 19.35546875 38.97265625 C18.86046875 37.98265625 18.86046875 37.98265625 18.35546875 36.97265625 C17.81921875 37.30265625 17.28296875 37.63265625 16.73046875 37.97265625 C13.06103667 39.51768028 9.8714737 39.47799123 6.10546875 38.22265625 C3.88647907 36.63766362 3.21870624 35.56236872 2.35546875 32.97265625 C1.91024038 29.41082925 1.92444432 27.6551116 3.85546875 24.59765625 C7.48797949 22.23652427 10.07390172 22.68721845 14.35546875 22.97265625 C14.85046875 24.95265625 14.85046875 24.95265625 15.35546875 26.97265625 C14.36546875 27.30265625 13.37546875 27.63265625 12.35546875 27.97265625 C11.86046875 26.48765625 11.86046875 26.48765625 11.35546875 24.97265625 C9.70546875 25.30265625 8.05546875 25.63265625 6.35546875 25.97265625 C6.02546875 28.28265625 5.69546875 30.59265625 5.35546875 32.97265625 C7.44622533 34.7466698 7.44622533 34.7466698 10.35546875 35.97265625 C14.81761164 35.42467379 16.75932514 34.62994279 19.79296875 31.28515625 C21.61650768 27.41925372 21.88412646 25.20191797 21.35546875 20.97265625 C19.77822573 16.9919953 18.94545964 15.36598351 15.35546875 12.97265625 C10.0556973 12.54525533 6.60798634 12.44914167 2.35546875 15.97265625 C-0.35859829 19.55910199 -0.94826643 22.59613452 -1.64453125 26.97265625 C-2.63453125 27.46765625 -2.63453125 27.46765625 -3.64453125 27.97265625 C-4.41953207 21.92764986 -1.87001314 17.85975003 1.35546875 12.97265625 C2.01546875 12.31265625 2.67546875 11.65265625 3.35546875 10.97265625 C-8.41194309 5.92947975 -19.73424593 6.66297803 -30.08203125 14.09765625 Z M-27.64453125 38.97265625 C-27.45624353 41.41745704 -27.45624353 41.41745704 -26.64453125 43.97265625 C-24.67694852 45.33285776 -24.67694852 45.33285776 -22.64453125 45.97265625 C-22.97453125 43.33265625 -23.30453125 40.69265625 -23.64453125 37.97265625 C-25.71906685 37.82358505 -25.71906685 37.82358505 -27.64453125 38.97265625 Z M-38.64453125 38.97265625 C-38.31453125 39.96265625 -37.98453125 40.95265625 -37.64453125 41.97265625 C-37.31453125 40.98265625 -36.98453125 39.99265625 -36.64453125 38.97265625 C-37.30453125 38.97265625 -37.96453125 38.97265625 -38.64453125 38.97265625 Z " fill="#000000" transform="translate(71.64453125,17.02734375)"/>
<path d="M0 0 C0.99 0.66 1.98 1.32 3 2 C3 2.66 3 3.32 3 4 C2.13375 4.185625 1.2675 4.37125 0.375 4.5625 C-3.11863719 6.05053066 -3.70727445 6.70598979 -5.8125 9.625 C-7.57000429 11.84500542 -8.43409419 12.85551341 -11.203125 13.5625 C-15.90885916 13.68715521 -19.19311171 12.94726835 -23 10 C-18.60141109 0.37808676 -9.76056957 -1.37370979 0 0 Z M-8 2 C-7.34 2.66 -6.68 3.32 -6 4 C-6 3.34 -6 2.68 -6 2 C-6.66 2 -7.32 2 -8 2 Z M-11 8 C-11.99 8.66 -12.98 9.32 -14 10 C-12.35 9.67 -10.7 9.34 -9 9 C-9.66 8.67 -10.32 8.34 -11 8 Z " fill="#000000" transform="translate(64,32)"/>
<path d="M0 0 C6.38169044 -0.23539022 11.89577531 0.03792778 18 2 C20 4 20 4 20.375 7.375 C20 11 20 11 18.6875 13.4375 C14.37264684 15.94613556 9.87373394 15.30250762 5 15 C5.3125 13.125 5.3125 13.125 6 11 C6.99 10.34 7.98 9.68 9 9 C8.35932024 5.91240441 8.35932024 5.91240441 6.15234375 5.05078125 C5.42144531 4.80714844 4.69054688 4.56351563 3.9375 4.3125 C3.20402344 4.06113281 2.47054687 3.80976562 1.71484375 3.55078125 C1.14894531 3.36902344 0.58304688 3.18726563 0 3 C0 2.01 0 1.02 0 0 Z M11 3 C11.33 5.97 11.66 8.94 12 12 C13.32 11.67 14.64 11.34 16 11 C16.33 9.02 16.66 7.04 17 5 C15.02 4.34 13.04 3.68 11 3 Z " fill="#000000" transform="translate(53,49)"/>
<path d="M0 0 C2.5 1.625 2.5 1.625 5 4 C5.5 7.125 5.5 7.125 5 10 C2 12 2 12 -0.1875 11.625 C-0.785625 11.41875 -1.38375 11.2125 -2 11 C-0.68 10.34 0.64 9.68 2 9 C1.01 6.36 0.02 3.72 -1 1 C-0.67 0.67 -0.34 0.34 0 0 Z " fill="#000000" transform="translate(34,38)"/>
</svg>
