<?xml version="1.0" encoding="UTF-8"?>
<!DOCTYPE svg PUBLIC "-//W3C//DTD SVG 1.1//EN" "http://www.w3.org/Graphics/SVG/1.1/DTD/svg11.dtd">
<svg xmlns="http://www.w3.org/2000/svg" version="1.1" width="110px" height="110px" style="shape-rendering:geometricPrecision; text-rendering:geometricPrecision; image-rendering:optimizeQuality; fill-rule:evenodd; clip-rule:evenodd" xmlns:xlink="http://www.w3.org/1999/xlink">
<g><path style="opacity:0.79" fill="#000000" d="M 49.5,5.5 C 65.3412,4.23361 80.0079,7.73361 93.5,16C 95.3333,18.5 97.1667,21 99,23.5C 105.777,39.1681 105.777,54.8348 99,70.5C 96.872,73.6301 94.372,76.4634 91.5,79C 104.079,81.1206 107.579,87.9539 102,99.5C 100.269,101.617 98.1024,103.117 95.5,104C 85.2343,107.23 75.901,105.73 67.5,99.5C 62.4626,104.52 56.4626,106.354 49.5,105C 46.8338,102.665 43.8338,100.831 40.5,99.5C 31.2693,106.948 21.6026,107.448 11.5,101C 2.58686,92.56 3.25353,84.7267 13.5,77.5C 8.79122,72.4145 5.95789,66.4145 5,59.5C 4.33333,52.5 4.33333,45.5 5,38.5C 5.24136,35.7111 5.90803,33.0444 7,30.5C 13.7842,20.0036 22.9509,12.1702 34.5,7C 39.6835,6.82614 44.6835,6.32614 49.5,5.5 Z M 36.5,10.5 C 48.5046,10.3335 60.5046,10.5001 72.5,11C 80.4354,13.3845 87.6021,17.2179 94,22.5C 100.705,36.86 101.705,51.5266 97,66.5C 91.2667,76.3729 82.6,81.3729 71,81.5C 60.8801,81.404 50.7134,81.2373 40.5,81C 33.3144,80.1203 26.3144,78.4536 19.5,76C 13.7413,73.3422 10.2413,68.8422 9,62.5C 7.05994,53.1704 7.05994,43.837 9,34.5C 15.3202,23.1118 24.4869,15.1118 36.5,10.5 Z M 40.5,16.5 C 47.8373,16.8721 55.1706,17.3721 62.5,18C 70.0197,20.2831 77.3531,22.9498 84.5,26C 82.1667,26.6667 79.8333,26.6667 77.5,26C 63.1321,18.6662 49.7988,19.9995 37.5,30C 30.2202,29.3958 24.3869,31.8958 20,37.5C 18.6206,41.4755 19.7873,44.3088 23.5,46C 22.4464,47.3876 22.2797,48.8876 23,50.5C 25.7249,51.9372 27.8915,53.9372 29.5,56.5C 24.428,56.3976 22.5946,58.7309 24,63.5C 38.2558,73.2667 53.7558,75.7667 70.5,71C 75.4416,70.1336 79.9416,68.3002 84,65.5C 84.5074,66.9961 84.0074,68.1627 82.5,69C 73.9288,72.8742 64.9288,75.0409 55.5,75.5C 47.1591,74.5549 38.8257,73.3882 30.5,72C 24.4689,70.0877 20.3022,66.2544 18,60.5C 17.6128,55.5572 16.7795,50.7238 15.5,46C 15.9236,36.3474 19.9236,28.6808 27.5,23C 32.2045,21.3145 36.5378,19.1479 40.5,16.5 Z M 53.5,24.5 C 60.8486,23.9664 67.8486,25.133 74.5,28C 70.9212,30.6306 68.4212,34.1306 67,38.5C 66.2438,40.8087 66.7438,42.8087 68.5,44.5C 69.086,44.2907 69.586,43.9574 70,43.5C 70.8375,31.3186 77.0042,27.152 88.5,31C 93.746,37.3651 93.746,43.6984 88.5,50C 84.3251,53.0008 80.4917,52.8341 77,49.5C 75.6903,45.4526 77.0236,42.7859 81,41.5C 82.531,42.2173 83.8643,43.2173 85,44.5C 87.9839,43.1668 88.1506,41.3334 85.5,39C 73.5563,37.7209 70.0563,42.5542 75,53.5C 80,57.5 85,57.5 90,53.5C 90.2649,55.1626 89.7649,56.6626 88.5,58C 81.4461,64.5257 73.1127,68.359 63.5,69.5C 61.7257,69.1132 60.059,68.4465 58.5,67.5C 55.235,69.094 51.735,70.094 48,70.5C 40.1913,68.955 33.0246,65.955 26.5,61.5C 26.8869,60.2801 27.7202,59.6135 29,59.5C 31.1561,60.9851 33.3228,62.4851 35.5,64C 36.7932,64.49 38.1266,64.6567 39.5,64.5C 39.7135,62.8561 39.3802,61.3561 38.5,60C 39,59.8333 39.5,59.6667 40,59.5C 42.4336,61.9336 44.9336,64.4336 47.5,67C 50.5689,68.9101 53.5689,68.9101 56.5,67C 54.4453,64.9451 52.7787,62.6117 51.5,60C 55.4898,59.8152 56.8231,57.9819 55.5,54.5C 52.5124,52.9609 49.3458,51.9609 46,51.5C 41.195,52.5255 36.3617,52.6921 31.5,52C 28.9242,51.2178 26.9242,49.7178 25.5,47.5C 27.0777,46.7022 28.7444,46.2022 30.5,46C 31.3567,45.3109 32.0233,44.4776 32.5,43.5C 29.4393,43.5602 26.4393,43.0602 23.5,42C 22.4829,40.9505 22.3162,39.7839 23,38.5C 26.436,34.6315 30.6026,33.2981 35.5,34.5C 41.3143,30.5983 47.3143,27.265 53.5,24.5 Z M 55.5,34.5 C 56.0768,33.2267 56.7435,33.2267 57.5,34.5C 57.0302,35.463 56.3635,35.463 55.5,34.5 Z M 52.5,39.5 C 54.3786,39.3932 54.7119,39.8932 53.5,41C 52.1667,41.6667 50.8333,41.6667 49.5,41C 50.7375,40.7679 51.7375,40.2679 52.5,39.5 Z M 63.5,51.5 C 70.5562,53.2504 71.2229,56.2504 65.5,60.5C 65.3477,57.6308 64.6811,54.6308 63.5,51.5 Z M 48.5,62.5 C 45.142,61.4731 43.4754,59.1398 43.5,55.5C 44.5832,55.4606 45.5832,55.1272 46.5,54.5C 47.3815,57.1303 48.0481,59.797 48.5,62.5 Z M 32.5,55.5 C 34.2252,55.8425 34.7252,56.8425 34,58.5C 32.9614,57.7562 32.4614,56.7562 32.5,55.5 Z M 15.5,80.5 C 19.8751,80.3469 23.7084,81.6803 27,84.5C 27.7805,85.9437 27.6139,87.277 26.5,88.5C 23.9607,89.1153 21.4607,89.7819 19,90.5C 18.8676,92.3232 19.8676,93.3232 22,93.5C 27.0692,92.2679 31.2359,89.6012 34.5,85.5C 36.7427,84.5258 39.076,84.1924 41.5,84.5C 41.6151,94.7212 36.6151,100.721 26.5,102.5C 22.3488,101.863 18.3488,100.697 14.5,99C 7.4888,94.5906 6.65547,89.0906 12,82.5C 13.3024,81.9152 14.469,81.2485 15.5,80.5 Z M 87.5,82.5 C 97.0691,81.8986 101.236,86.2319 100,95.5C 99.1667,97.6667 97.6667,99.1667 95.5,100C 90.0054,102.183 84.3388,102.849 78.5,102C 74.5,99.3333 70.5,96.6667 66.5,94C 64.8073,91.0655 63.8073,87.8989 63.5,84.5C 66.2469,84.1866 68.9135,84.52 71.5,85.5C 75.4091,94.1207 81.7424,96.6207 90.5,93C 87.513,91.8964 84.513,90.7298 81.5,89.5C 82.8334,86.5067 84.8334,84.1734 87.5,82.5 Z M 30.5,83.5 C 33.0009,83.5109 33.1676,84.1776 31,85.5C 30.5357,84.9056 30.369,84.2389 30.5,83.5 Z M 78.5,83.5 C 79.2389,83.369 79.9056,83.5357 80.5,84C 79.2125,85.4095 78.0458,86.9095 77,88.5C 76.044,87.4214 75.2106,86.2547 74.5,85C 76.0581,84.79 77.3915,84.29 78.5,83.5 Z M 50.5,95.5 C 48.5,95.1667 46.5,94.8333 44.5,94.5C 44.9629,91.5176 45.2962,88.5176 45.5,85.5C 47.5273,85.3379 49.5273,85.5045 51.5,86C 47.86,88.6984 47.5267,91.865 50.5,95.5 Z M 50.5,95.5 C 56.6556,96.6794 58.9889,94.3461 57.5,88.5C 56.3349,87.4164 55.0016,86.5831 53.5,86C 55.8098,85.5034 58.1432,85.3367 60.5,85.5C 60.6203,88.4802 61.287,91.3135 62.5,94C 58.6682,96.5915 54.6682,97.0915 50.5,95.5 Z M 52.5,89.5 C 55.6741,89.9522 56.0075,90.9522 53.5,92.5C 51.4807,91.8671 51.1474,90.8671 52.5,89.5 Z M 44.5,97.5 C 50.3854,99.6881 56.3854,100.021 62.5,98.5C 56.2562,103.993 50.2562,103.659 44.5,97.5 Z"/></g>
<g><path style="opacity:0.778" fill="#000000" d="M 43.5,12.5 C 58.4992,12.6667 72.8325,15.8334 86.5,22C 94.9787,30.1126 97.812,39.9459 95,51.5C 93.6048,58.886 90.4382,65.386 85.5,71C 76.2832,76.3466 66.2832,78.8466 55.5,78.5C 44.0684,78.3214 33.0684,76.1547 22.5,72C 15.1839,65.5712 11.8505,57.4045 12.5,47.5C 12.3465,35.7437 17.0131,26.5771 26.5,20C 31.7986,16.3437 37.4652,13.8437 43.5,12.5 Z M 40.5,16.5 C 36.5378,19.1479 32.2045,21.3145 27.5,23C 19.9236,28.6808 15.9236,36.3474 15.5,46C 16.7795,50.7238 17.6128,55.5572 18,60.5C 20.3022,66.2544 24.4689,70.0877 30.5,72C 38.8257,73.3882 47.1591,74.5549 55.5,75.5C 64.9288,75.0409 73.9288,72.8742 82.5,69C 84.0074,68.1627 84.5074,66.9961 84,65.5C 79.9416,68.3002 75.4416,70.1336 70.5,71C 53.7558,75.7667 38.2558,73.2667 24,63.5C 22.5946,58.7309 24.428,56.3976 29.5,56.5C 27.8915,53.9372 25.7249,51.9372 23,50.5C 22.2797,48.8876 22.4464,47.3876 23.5,46C 19.7873,44.3088 18.6206,41.4755 20,37.5C 24.3869,31.8958 30.2202,29.3958 37.5,30C 49.7988,19.9995 63.1321,18.6662 77.5,26C 79.8333,26.6667 82.1667,26.6667 84.5,26C 77.3531,22.9498 70.0197,20.2831 62.5,18C 55.1706,17.3721 47.8373,16.8721 40.5,16.5 Z M 53.5,24.5 C 47.3143,27.265 41.3143,30.5983 35.5,34.5C 30.6026,33.2981 26.436,34.6315 23,38.5C 22.3162,39.7839 22.4829,40.9505 23.5,42C 26.4393,43.0602 29.4393,43.5602 32.5,43.5C 32.0233,44.4776 31.3567,45.3109 30.5,46C 28.7444,46.2022 27.0777,46.7022 25.5,47.5C 26.9242,49.7178 28.9242,51.2178 31.5,52C 36.3617,52.6921 41.195,52.5255 46,51.5C 49.3458,51.9609 52.5124,52.9609 55.5,54.5C 56.8231,57.9819 55.4898,59.8152 51.5,60C 52.7787,62.6117 54.4453,64.9451 56.5,67C 53.5689,68.9101 50.5689,68.9101 47.5,67C 44.9336,64.4336 42.4336,61.9336 40,59.5C 39.5,59.6667 39,59.8333 38.5,60C 39.3802,61.3561 39.7135,62.8561 39.5,64.5C 38.1266,64.6567 36.7932,64.49 35.5,64C 33.3228,62.4851 31.1561,60.9851 29,59.5C 27.7202,59.6135 26.8869,60.2801 26.5,61.5C 33.0246,65.955 40.1913,68.955 48,70.5C 51.735,70.094 55.235,69.094 58.5,67.5C 60.059,68.4465 61.7257,69.1132 63.5,69.5C 73.1127,68.359 81.4461,64.5257 88.5,58C 89.7649,56.6626 90.2649,55.1626 90,53.5C 85,57.5 80,57.5 75,53.5C 70.0563,42.5542 73.5563,37.7209 85.5,39C 88.1506,41.3334 87.9839,43.1668 85,44.5C 83.8643,43.2173 82.531,42.2173 81,41.5C 77.0236,42.7859 75.6903,45.4526 77,49.5C 80.4917,52.8341 84.3251,53.0008 88.5,50C 93.746,43.6984 93.746,37.3651 88.5,31C 77.0042,27.152 70.8375,31.3186 70,43.5C 69.586,43.9574 69.086,44.2907 68.5,44.5C 66.7438,42.8087 66.2438,40.8087 67,38.5C 68.4212,34.1306 70.9212,30.6306 74.5,28C 67.8486,25.133 60.8486,23.9664 53.5,24.5 Z M 55.5,34.5 C 56.3635,35.463 57.0302,35.463 57.5,34.5C 56.7435,33.2267 56.0768,33.2267 55.5,34.5 Z M 52.5,39.5 C 51.7375,40.2679 50.7375,40.7679 49.5,41C 50.8333,41.6667 52.1667,41.6667 53.5,41C 54.7119,39.8932 54.3786,39.3932 52.5,39.5 Z M 63.5,51.5 C 64.6811,54.6308 65.3477,57.6308 65.5,60.5C 71.2229,56.2504 70.5562,53.2504 63.5,51.5 Z M 48.5,62.5 C 45.142,61.4731 43.4754,59.1398 43.5,55.5C 44.5832,55.4606 45.5832,55.1272 46.5,54.5C 47.3815,57.1303 48.0481,59.797 48.5,62.5 Z M 32.5,55.5 C 32.4614,56.7562 32.9614,57.7562 34,58.5C 34.7252,56.8425 34.2252,55.8425 32.5,55.5 Z"/></g>
<g><path style="opacity:0.723" fill="#000000" d="M 51.5,31.5 C 55.5138,31.3345 59.5138,31.5012 63.5,32C 64.91,32.3678 65.91,33.2011 66.5,34.5C 64.9223,35.2978 63.2556,35.7978 61.5,36C 56.352,45.3151 49.352,46.9817 40.5,41C 43.4116,36.8896 47.0783,33.723 51.5,31.5 Z M 55.5,34.5 C 56.3635,35.463 57.0302,35.463 57.5,34.5C 56.7435,33.2267 56.0768,33.2267 55.5,34.5 Z M 52.5,39.5 C 51.7375,40.2679 50.7375,40.7679 49.5,41C 50.8333,41.6667 52.1667,41.6667 53.5,41C 54.7119,39.8932 54.3786,39.3932 52.5,39.5 Z"/></g>
<g><path style="opacity:0.674" fill="#000000" d="M 33.5,37.5 C 37.9704,39.4768 39.4704,42.8102 38,47.5C 36.087,49.1869 33.9203,49.6869 31.5,49C 36.4635,46.1634 36.7968,42.8301 32.5,39C 33.056,38.6174 33.3893,38.1174 33.5,37.5 Z"/></g>
<g><path style="opacity:0.749" fill="#000000" d="M 52.5,48.5 C 57.887,48.4054 63.2203,48.9054 68.5,50C 73.7782,54.1581 73.7782,58.4915 68.5,63C 64.8484,63.4986 61.1817,63.6653 57.5,63.5C 57.3505,62.448 57.5172,61.448 58,60.5C 59.9717,59.6948 61.4717,58.3615 62.5,56.5C 59.9763,53.3191 56.643,51.6524 52.5,51.5C 52.5,50.5 52.5,49.5 52.5,48.5 Z M 63.5,51.5 C 64.6811,54.6308 65.3477,57.6308 65.5,60.5C 71.2229,56.2504 70.5562,53.2504 63.5,51.5 Z"/></g>
</svg>
